<svg xmlns="http://www.w3.org/2000/svg" xmlns:xlink="http://www.w3.org/1999/xlink" width="40" zoomAndPan="magnify" viewBox="0 0 30 30.000001" height="40" preserveAspectRatio="xMidYMid meet" version="1.0"><defs><clipPath id="8f0a658e80"><path d="M 0.484375 1.542969 L 29.515625 1.542969 L 29.515625 27.671875 L 0.484375 27.671875 Z M 0.484375 1.542969 " clip-rule="nonzero"/></clipPath></defs><g clip-path="url(#8f0a658e80)"><path fill="#31ac7d" d="M 8.847656 21.023438 C 9.355469 21.023438 9.773438 20.691406 9.890625 20.199219 L 10.046875 19.53125 L 7.875 19.613281 L 7.714844 21.023438 Z M 2.890625 21.023438 L 3.988281 21.023438 L 3.964844 19.761719 L 1.785156 19.847656 L 1.832031 20.128906 C 1.921875 20.65625 2.359375 21.023438 2.890625 21.023438 Z M 1.441406 17.8125 L 1.640625 18.992188 L 3.945312 18.902344 L 3.921875 17.640625 Z M 4.820312 19.730469 L 4.847656 21.023438 L 6.847656 21.023438 L 7.007812 19.648438 Z M 7.105469 18.78125 L 7.261719 17.40625 L 4.78125 17.578125 L 4.808594 18.871094 Z M 10.601562 17.175781 L 8.132812 17.347656 L 7.976562 18.75 L 10.253906 18.664062 Z M 8.480469 24.25 C 8.480469 23.984375 8.265625 23.765625 8 23.765625 C 7.734375 23.765625 7.515625 23.984375 7.515625 24.25 C 7.515625 24.511719 7.734375 24.730469 8 24.730469 C 8.265625 24.730469 8.480469 24.511719 8.480469 24.25 Z M 3.214844 23.765625 C 2.949219 23.765625 2.738281 23.984375 2.738281 24.25 C 2.738281 24.511719 2.949219 24.730469 3.214844 24.730469 C 3.480469 24.730469 3.699219 24.511719 3.699219 24.25 C 3.699219 23.984375 3.480469 23.765625 3.214844 23.765625 Z M 11.757812 16.023438 L 10.285156 22.277344 C 10.140625 22.886719 9.722656 23.371094 9.175781 23.605469 C 9.660156 24.472656 9.03125 25.589844 8 25.589844 C 7.042969 25.589844 6.414062 24.621094 6.75 23.765625 L 4.46875 23.765625 C 4.800781 24.621094 4.171875 25.589844 3.214844 25.589844 C 2.300781 25.589844 1.628906 24.683594 1.964844 23.765625 L 1.851562 23.765625 C 1.613281 23.765625 1.421875 23.574219 1.421875 23.335938 C 1.421875 23.097656 1.613281 22.90625 1.851562 22.90625 L 8.402344 22.90625 C 8.914062 22.90625 9.332031 22.574219 9.445312 22.078125 L 9.523438 21.765625 C 9.3125 21.84375 9.082031 21.882812 8.847656 21.882812 L 2.890625 21.882812 C 1.949219 21.882812 1.144531 21.207031 0.984375 20.273438 L 0.574219 17.832031 C 0.5 17.394531 0.820312 16.992188 1.261719 16.960938 L 10.808594 16.296875 L 11 15.496094 C 11.042969 15.300781 11.214844 15.164062 11.414062 15.164062 L 13.464844 15.164062 C 13.703125 15.164062 13.898438 15.355469 13.898438 15.59375 C 13.898438 15.832031 13.703125 16.023438 13.464844 16.023438 Z M 23.839844 25.476562 L 22.246094 25.476562 C 22.011719 25.476562 21.816406 25.667969 21.816406 25.90625 C 21.816406 26.140625 22.011719 26.335938 22.246094 26.335938 L 23.839844 26.335938 C 24.078125 26.335938 24.269531 26.140625 24.269531 25.90625 C 24.269531 25.667969 24.078125 25.476562 23.839844 25.476562 Z M 24.4375 20.65625 L 21.652344 20.65625 L 21.652344 24.351562 L 24.4375 24.351562 Z M 25.292969 20.546875 L 25.292969 24.460938 C 25.292969 24.875 24.960938 25.210938 24.546875 25.210938 L 21.542969 25.210938 C 21.128906 25.210938 20.789062 24.875 20.789062 24.460938 L 20.789062 20.546875 C 20.789062 20.132812 21.128906 19.796875 21.542969 19.796875 L 24.546875 19.796875 C 24.960938 19.796875 25.292969 20.132812 25.292969 20.546875 Z M 28.648438 18.972656 C 28.648438 19.929688 27.867188 20.707031 26.914062 20.707031 L 26.546875 20.707031 L 26.546875 19.394531 C 26.546875 18.863281 26.113281 18.429688 25.582031 18.429688 L 20.5 18.429688 C 19.96875 18.429688 19.539062 18.863281 19.539062 19.394531 L 19.539062 20.707031 L 19.167969 20.707031 C 18.214844 20.707031 17.4375 19.929688 17.4375 18.972656 C 17.4375 18.019531 18.214844 17.238281 19.167969 17.238281 L 19.433594 17.238281 C 19.648438 17.238281 19.832031 17.082031 19.863281 16.871094 C 20.085938 15.304688 21.453125 14.121094 23.042969 14.121094 C 24.628906 14.121094 25.996094 15.304688 26.226562 16.871094 C 26.253906 17.082031 26.433594 17.238281 26.648438 17.238281 L 26.914062 17.238281 C 27.867188 17.238281 28.648438 18.019531 28.648438 18.972656 Z M 25.6875 19.394531 L 25.6875 26.527344 C 25.6875 26.582031 25.640625 26.628906 25.582031 26.628906 L 20.5 26.628906 C 20.445312 26.628906 20.398438 26.582031 20.398438 26.527344 L 20.398438 19.394531 C 20.398438 19.335938 20.445312 19.289062 20.5 19.289062 L 25.582031 19.289062 C 25.640625 19.289062 25.6875 19.335938 25.6875 19.394531 Z M 29.507812 18.972656 C 29.507812 17.574219 28.394531 16.429688 27.003906 16.382812 C 26.570312 14.578125 24.929688 13.261719 23.042969 13.261719 C 21.160156 13.261719 19.515625 14.578125 19.082031 16.382812 C 17.695312 16.429688 16.578125 17.574219 16.578125 18.972656 C 16.578125 20.402344 17.738281 21.566406 19.167969 21.566406 L 19.539062 21.566406 L 19.539062 23.9375 C 17.207031 25.753906 14.136719 26.328125 11.3125 25.488281 C 11.085938 25.421875 10.847656 25.550781 10.777344 25.777344 C 10.707031 26.007812 10.839844 26.246094 11.066406 26.3125 C 13.941406 27.167969 17.058594 26.6875 19.539062 25 L 19.539062 26.527344 C 19.539062 27.058594 19.96875 27.488281 20.5 27.488281 L 25.582031 27.488281 C 26.113281 27.488281 26.546875 27.058594 26.546875 26.527344 L 26.546875 21.566406 L 26.914062 21.566406 C 28.34375 21.566406 29.507812 20.402344 29.507812 18.972656 Z M 10.019531 4.800781 L 11.3125 4.796875 C 11.464844 4.09375 11.714844 3.394531 12.0625 2.828125 C 11.1875 3.242188 10.46875 3.9375 10.019531 4.800781 Z M 15.835938 2.828125 C 16.195312 3.414062 16.425781 4.050781 16.585938 4.777344 L 17.871094 4.773438 C 17.421875 3.925781 16.710938 3.238281 15.835938 2.828125 Z M 17.882812 8.855469 L 16.589844 8.859375 C 16.429688 9.597656 16.199219 10.238281 15.835938 10.832031 C 16.714844 10.414062 17.4375 9.71875 17.882812 8.855469 Z M 12.035156 5.652344 C 11.933594 6.421875 11.933594 7.25 12.039062 8.015625 L 15.867188 8.003906 C 15.964844 7.214844 15.964844 6.429688 15.863281 5.640625 Z M 15.707031 8.863281 L 12.199219 8.875 C 12.5625 10.339844 13.28125 11.253906 13.953125 11.253906 C 14.621094 11.253906 15.34375 10.332031 15.707031 8.863281 Z M 18.210938 5.632812 L 16.730469 5.640625 C 16.824219 6.441406 16.828125 7.195312 16.734375 8 L 18.21875 7.996094 C 18.433594 7.222656 18.429688 6.40625 18.210938 5.632812 Z M 12.199219 4.792969 L 15.703125 4.78125 C 15.339844 3.320312 14.621094 2.402344 13.953125 2.402344 C 13.28125 2.402344 12.558594 3.324219 12.199219 4.792969 Z M 9.691406 8.023438 L 11.175781 8.019531 C 11.078125 7.242188 11.078125 6.433594 11.171875 5.65625 L 9.679688 5.660156 C 9.472656 6.441406 9.472656 7.246094 9.691406 8.023438 Z M 12.0625 10.832031 C 11.71875 10.265625 11.46875 9.574219 11.316406 8.878906 L 10.03125 8.882812 C 10.480469 9.730469 11.195312 10.417969 12.0625 10.832031 Z M 8.664062 6.828125 C 8.664062 3.914062 11.035156 1.542969 13.953125 1.542969 C 17.414062 1.542969 19.929688 4.828125 19.066406 8.160156 C 20.511719 9.03125 21.71875 10.253906 22.566406 11.714844 C 22.730469 12 22.527344 12.363281 22.195312 12.363281 C 22.046875 12.363281 21.902344 12.285156 21.824219 12.148438 C 21.074219 10.863281 20.027344 9.78125 18.773438 8.992188 C 17.945312 10.832031 16.09375 12.113281 13.953125 12.113281 C 11.035156 12.113281 8.664062 9.742188 8.664062 6.828125 Z M 3.988281 15.609375 C 3.964844 15.84375 4.132812 16.054688 4.367188 16.082031 C 4.605469 16.109375 4.816406 15.941406 4.84375 15.703125 C 5.109375 13.34375 6.265625 11.203125 8.109375 9.683594 C 8.292969 9.535156 8.316406 9.261719 8.164062 9.078125 C 8.011719 8.898438 7.746094 8.871094 7.5625 9.019531 C 5.546875 10.683594 4.277344 13.023438 3.988281 15.609375 Z M 3.988281 15.609375 " fill-opacity="1" fill-rule="evenodd"/></g></svg>