<svg xmlns="http://www.w3.org/2000/svg" xmlns:xlink="http://www.w3.org/1999/xlink" width="40" zoomAndPan="magnify" viewBox="0 0 30 30.000001" height="40" preserveAspectRatio="xMidYMid meet" version="1.0"><defs><clipPath id="97fd8c9c69"><path d="M 10 23 L 20 23 L 20 26.128906 L 10 26.128906 Z M 10 23 " clip-rule="nonzero"/></clipPath><clipPath id="4d9741d2e8"><path d="M 18 2.902344 L 29.011719 2.902344 L 29.011719 13 L 18 13 Z M 18 2.902344 " clip-rule="nonzero"/></clipPath><clipPath id="8e233bd177"><path d="M 0.707031 2.902344 L 12 2.902344 L 12 13 L 0.707031 13 Z M 0.707031 2.902344 " clip-rule="nonzero"/></clipPath></defs><path fill="#31ac7d" d="M 12.214844 5.238281 L 17.78125 5.238281 L 17.78125 6.667969 L 12.214844 6.667969 Z M 12.214844 5.238281 " fill-opacity="1" fill-rule="nonzero"/><path fill="#31ac7d" d="M 24.730469 18.25 L 5.261719 18.25 L 5.261719 11.542969 L 3.832031 11.542969 L 3.832031 21.730469 C 3.832031 22.523438 4.472656 23.160156 5.261719 23.160156 L 24.730469 23.160156 C 25.523438 23.160156 26.160156 22.523438 26.160156 21.730469 L 26.160156 11.542969 L 24.730469 11.542969 Z M 14.996094 22.609375 C 14.339844 22.609375 13.800781 22.078125 13.800781 21.417969 C 13.800781 20.761719 14.339844 20.230469 14.996094 20.230469 C 15.652344 20.230469 16.191406 20.761719 16.191406 21.417969 C 16.191406 22.078125 15.652344 22.609375 14.996094 22.609375 Z M 14.996094 22.609375 " fill-opacity="1" fill-rule="nonzero"/><g clip-path="url(#97fd8c9c69)"><path fill="#31ac7d" d="M 12.296875 23.75 L 10.1875 25.347656 L 10.1875 26.097656 L 19.808594 26.097656 L 19.808594 25.347656 L 17.699219 23.75 Z M 12.296875 23.75 " fill-opacity="1" fill-rule="nonzero"/></g><path fill="#31ac7d" d="M 12.648438 14.804688 C 12.3125 14.980469 12.007812 15.199219 11.714844 15.453125 C 11.054688 14.726562 10.628906 13.789062 10.5625 12.746094 C 10.019531 12.347656 9.921875 12.273438 9.980469 12.316406 C 9.972656 12.363281 9.972656 12.410156 9.972656 12.464844 C 9.972656 15.230469 12.230469 17.480469 14.996094 17.480469 C 17.761719 17.480469 20.019531 15.230469 20.019531 12.464844 C 20.019531 12.410156 20.019531 12.359375 20.015625 12.308594 C 19.953125 12.355469 19.09375 13 19.429688 12.746094 C 19.363281 13.78125 18.945312 14.726562 18.28125 15.449219 C 17.992188 15.199219 17.679688 14.976562 17.347656 14.796875 C 17.515625 14.183594 17.613281 13.484375 17.636719 12.746094 L 18.292969 12.746094 C 18.070312 12.625 17.902344 12.421875 17.828125 12.175781 L 17.636719 12.175781 C 17.613281 11.429688 17.515625 10.730469 17.347656 10.117188 C 17.496094 10.039062 17.636719 9.953125 17.78125 9.859375 L 17.78125 9.140625 C 17.589844 9.296875 17.382812 9.4375 17.171875 9.554688 C 16.980469 9.046875 16.746094 8.605469 16.46875 8.261719 C 16.941406 8.425781 17.390625 8.675781 17.78125 9 L 17.78125 8.273438 C 16.964844 7.730469 16 7.433594 14.996094 7.433594 C 13.984375 7.433594 13.027344 7.730469 12.214844 8.28125 L 12.214844 9 C 12.609375 8.675781 13.050781 8.425781 13.53125 8.261719 C 13.253906 8.605469 13.015625 9.046875 12.828125 9.554688 C 12.609375 9.4375 12.402344 9.296875 12.214844 9.136719 L 12.214844 9.851562 C 12.355469 9.953125 12.496094 10.039062 12.648438 10.117188 C 12.480469 10.730469 12.378906 11.429688 12.359375 12.175781 L 12.164062 12.175781 C 12.089844 12.421875 11.921875 12.625 11.699219 12.746094 L 12.359375 12.746094 C 12.378906 13.488281 12.480469 14.183594 12.648438 14.804688 Z M 17.867188 15.851562 C 17.460938 16.199219 16.988281 16.472656 16.46875 16.652344 C 16.746094 16.3125 16.980469 15.867188 17.171875 15.359375 C 17.417969 15.496094 17.648438 15.660156 17.867188 15.851562 Z M 15.285156 8.0625 C 15.835938 8.234375 16.320312 8.882812 16.652344 9.808594 C 16.21875 9.980469 15.757812 10.082031 15.285156 10.113281 Z M 15.285156 10.683594 C 15.816406 10.65625 16.332031 10.550781 16.816406 10.355469 C 16.957031 10.902344 17.046875 11.523438 17.066406 12.175781 L 15.285156 12.175781 Z M 15.285156 12.746094 L 17.066406 12.746094 C 17.046875 13.390625 16.957031 14.011719 16.816406 14.554688 C 16.332031 14.367188 15.816406 14.261719 15.285156 14.230469 Z M 15.285156 14.804688 C 15.757812 14.832031 16.21875 14.933594 16.652344 15.105469 C 16.328125 16.035156 15.835938 16.6875 15.285156 16.859375 Z M 14.710938 16.859375 C 14.164062 16.691406 13.671875 16.035156 13.347656 15.105469 C 13.777344 14.933594 14.238281 14.832031 14.710938 14.804688 Z M 14.710938 8.0625 L 14.710938 10.113281 C 14.238281 10.082031 13.777344 9.980469 13.347656 9.808594 C 13.671875 8.882812 14.164062 8.230469 14.710938 8.0625 Z M 13.175781 10.359375 C 13.660156 10.550781 14.179688 10.65625 14.710938 10.683594 L 14.710938 12.175781 L 12.929688 12.175781 C 12.953125 11.523438 13.035156 10.910156 13.175781 10.359375 Z M 14.710938 12.746094 L 14.710938 14.230469 C 14.179688 14.261719 13.667969 14.371094 13.175781 14.5625 C 13.035156 14.011719 12.953125 13.390625 12.929688 12.746094 Z M 12.828125 15.359375 C 13.015625 15.875 13.253906 16.3125 13.523438 16.652344 C 13.011719 16.472656 12.539062 16.199219 12.125 15.855469 C 12.34375 15.667969 12.578125 15.5 12.828125 15.359375 Z M 12.828125 15.359375 " fill-opacity="1" fill-rule="nonzero"/><path fill="#31ac7d" d="M 25.367188 8.40625 L 26.203125 8.40625 L 26.519531 7.054688 L 25.367188 7.054688 Z M 25.367188 8.40625 " fill-opacity="1" fill-rule="nonzero"/><g clip-path="url(#4d9741d2e8)"><path fill="#31ac7d" d="M 28.359375 2.875 L 19.1875 2.875 C 18.734375 2.875 18.367188 3.242188 18.367188 3.695312 L 18.367188 11.878906 C 18.367188 12.195312 18.710938 12.390625 18.984375 12.234375 L 21.179688 10.953125 L 28.359375 10.953125 C 28.8125 10.953125 29.179688 10.585938 29.179688 10.132812 L 29.179688 3.695312 C 29.179688 3.242188 28.8125 2.875 28.359375 2.875 Z M 22.957031 9.871094 C 22.621094 9.871094 22.34375 9.589844 22.34375 9.253906 C 22.34375 9.082031 22.414062 8.929688 22.527344 8.816406 L 23.394531 8.816406 C 23.507812 8.929688 23.578125 9.082031 23.578125 9.253906 C 23.578125 9.589844 23.300781 9.871094 22.957031 9.871094 Z M 25.597656 9.871094 C 25.261719 9.871094 24.984375 9.589844 24.984375 9.253906 C 24.984375 9.082031 25.054688 8.929688 25.167969 8.816406 L 26.035156 8.816406 C 26.148438 8.929688 26.21875 9.082031 26.21875 9.253906 C 26.21875 9.589844 25.941406 9.871094 25.597656 9.871094 Z M 27.390625 5.132812 L 26.566406 8.65625 C 26.546875 8.75 26.460938 8.816406 26.367188 8.816406 L 22.164062 8.816406 C 22.140625 8.816406 22.117188 8.8125 22.09375 8.804688 C 22.082031 8.800781 22.070312 8.792969 22.0625 8.785156 C 22.050781 8.78125 22.042969 8.777344 22.035156 8.773438 C 22.023438 8.765625 22.015625 8.753906 22.007812 8.742188 C 22.003906 8.734375 21.996094 8.730469 21.988281 8.722656 C 21.980469 8.707031 21.976562 8.691406 21.96875 8.675781 C 21.96875 8.667969 21.964844 8.664062 21.960938 8.65625 L 20.996094 4.527344 C 20.972656 4.433594 20.890625 4.371094 20.796875 4.371094 L 20.359375 4.371094 C 20.246094 4.371094 20.15625 4.277344 20.15625 4.164062 C 20.15625 4.050781 20.246094 3.960938 20.359375 3.960938 L 20.796875 3.960938 C 21.082031 3.960938 21.332031 4.15625 21.394531 4.4375 L 21.5 4.878906 L 27.1875 4.878906 C 27.25 4.878906 27.308594 4.910156 27.347656 4.957031 C 27.386719 5.007812 27.402344 5.070312 27.390625 5.132812 Z M 27.390625 5.132812 " fill-opacity="1" fill-rule="nonzero"/></g><path fill="#31ac7d" d="M 25.367188 6.644531 L 26.613281 6.644531 L 26.929688 5.292969 L 25.367188 5.292969 Z M 25.367188 6.644531 " fill-opacity="1" fill-rule="nonzero"/><path fill="#31ac7d" d="M 21.914062 6.644531 L 23.160156 6.644531 L 23.160156 5.292969 L 21.597656 5.292969 Z M 21.914062 6.644531 " fill-opacity="1" fill-rule="nonzero"/><path fill="#31ac7d" d="M 23.574219 5.292969 L 24.957031 5.292969 L 24.957031 6.644531 L 23.574219 6.644531 Z M 23.574219 5.292969 " fill-opacity="1" fill-rule="nonzero"/><path fill="#31ac7d" d="M 22.292969 8.273438 L 22.324219 8.40625 L 23.160156 8.40625 L 23.160156 7.054688 L 22.011719 7.054688 Z M 22.292969 8.273438 " fill-opacity="1" fill-rule="nonzero"/><path fill="#31ac7d" d="M 23.574219 7.054688 L 24.957031 7.054688 L 24.957031 8.40625 L 23.574219 8.40625 Z M 23.574219 7.054688 " fill-opacity="1" fill-rule="nonzero"/><g clip-path="url(#8e233bd177)"><path fill="#31ac7d" d="M 11.007812 12.234375 C 11.277344 12.394531 11.621094 12.199219 11.621094 11.878906 L 11.621094 3.695312 C 11.621094 3.246094 11.253906 2.878906 10.804688 2.878906 L 1.632812 2.878906 C 1.179688 2.878906 0.8125 3.246094 0.8125 3.695312 L 0.8125 10.136719 C 0.8125 10.585938 1.179688 10.949219 1.632812 10.949219 L 8.816406 10.949219 Z M 1.492188 9.238281 L 1.492188 4.59375 C 1.492188 4.078125 1.910156 3.664062 2.421875 3.664062 L 10.015625 3.664062 C 10.523438 3.664062 10.941406 4.078125 10.941406 4.59375 L 10.941406 9.238281 C 10.941406 9.746094 10.523438 10.164062 10.015625 10.164062 L 2.421875 10.164062 C 1.910156 10.164062 1.492188 9.746094 1.492188 9.238281 Z M 1.492188 9.238281 " fill-opacity="1" fill-rule="nonzero"/></g><path fill="#31ac7d" d="M 10.351562 4.59375 C 10.351562 4.402344 10.199219 4.253906 10.015625 4.253906 L 2.421875 4.253906 C 2.238281 4.253906 2.082031 4.402344 2.082031 4.59375 L 2.082031 4.929688 L 10.351562 4.929688 Z M 10.351562 4.59375 " fill-opacity="1" fill-rule="nonzero"/><path fill="#31ac7d" d="M 2.085938 5.519531 L 10.351562 5.519531 L 10.351562 6.265625 L 2.085938 6.265625 Z M 2.085938 5.519531 " fill-opacity="1" fill-rule="nonzero"/><path fill="#31ac7d" d="M 10.351562 9.238281 L 10.351562 6.855469 L 2.082031 6.855469 L 2.082031 9.238281 C 2.082031 9.421875 2.238281 9.574219 2.421875 9.574219 L 10.015625 9.574219 C 10.199219 9.574219 10.351562 9.421875 10.351562 9.238281 Z M 5.054688 8.441406 L 3.683594 8.441406 L 3.683594 7.933594 L 5.054688 7.933594 Z M 6.90625 8.441406 L 5.53125 8.441406 L 5.53125 7.933594 L 6.90625 7.933594 Z M 8.753906 8.441406 L 7.382812 8.441406 L 7.382812 7.933594 L 8.753906 7.933594 Z M 8.753906 8.441406 " fill-opacity="1" fill-rule="nonzero"/></svg>