<svg xmlns="http://www.w3.org/2000/svg" xmlns:xlink="http://www.w3.org/1999/xlink" width="40" zoomAndPan="magnify" viewBox="0 0 30 30.000001" height="40" preserveAspectRatio="xMidYMid meet" version="1.0"><defs><clipPath id="3571ed5d8d"><path d="M 0.484375 5.933594 L 29.515625 5.933594 L 29.515625 23.351562 L 0.484375 23.351562 Z M 0.484375 5.933594 " clip-rule="nonzero"/></clipPath></defs><g clip-path="url(#3571ed5d8d)"><path fill="#31ac7d" d="M 29.011719 20.257812 L 27.71875 20.257812 C 27.71875 20.234375 27.71875 20.207031 27.71875 20.183594 L 27.71875 6.488281 C 27.71875 6.183594 27.492188 5.957031 27.1875 5.957031 L 2.8125 5.957031 C 2.507812 5.957031 2.28125 6.183594 2.28125 6.488281 L 2.28125 20.183594 C 2.28125 20.207031 2.28125 20.234375 2.28125 20.257812 L 0.988281 20.257812 C 0.710938 20.257812 0.484375 20.484375 0.484375 20.765625 L 0.484375 22.234375 C 0.484375 22.6875 0.863281 23.066406 1.320312 23.066406 L 28.65625 23.066406 C 29.109375 23.066406 29.492188 22.6875 29.492188 22.234375 L 29.492188 20.765625 C 29.515625 20.460938 29.289062 20.257812 29.011719 20.257812 Z M 2.8125 7.019531 C 2.8125 6.714844 3.039062 6.488281 3.34375 6.488281 L 26.679688 6.488281 C 26.984375 6.488281 27.210938 6.714844 27.210938 7.019531 L 27.210938 20.257812 L 26.429688 20.257812 C 26.429688 20.234375 26.429688 20.207031 26.429688 20.183594 L 26.429688 7.90625 C 26.429688 7.550781 26.148438 7.273438 25.796875 7.273438 L 4.179688 7.273438 C 3.824219 7.273438 3.546875 7.550781 3.546875 7.90625 L 3.546875 20.15625 C 3.546875 20.183594 3.546875 20.207031 3.546875 20.234375 L 2.761719 20.234375 L 2.761719 7.019531 Z M 26.25 7.90625 L 26.25 20.15625 C 26.25 20.183594 26.25 20.207031 26.25 20.234375 L 3.75 20.234375 C 3.75 20.207031 3.75 20.183594 3.75 20.15625 L 3.75 7.90625 C 3.75 7.652344 3.953125 7.476562 4.179688 7.476562 L 25.820312 7.476562 C 26.074219 7.476562 26.25 7.679688 26.25 7.90625 Z M 28.984375 22.183594 C 28.984375 22.410156 28.832031 22.511719 28.605469 22.535156 C 28.476562 22.535156 28.351562 22.535156 28.226562 22.535156 C 23.796875 22.535156 19.367188 22.535156 14.9375 22.535156 C 10.582031 22.535156 6.203125 22.535156 1.851562 22.535156 C 1.75 22.535156 1.648438 22.535156 1.570312 22.535156 C 1.117188 22.535156 1.015625 22.433594 1.015625 21.980469 C 1.015625 21.675781 1.015625 21.347656 1.015625 21.042969 C 1.015625 20.867188 1.089844 20.789062 1.269531 20.789062 C 1.371094 20.789062 1.496094 20.789062 1.597656 20.789062 C 2.40625 20.789062 3.21875 20.789062 4.027344 20.789062 C 6.128906 20.789062 8.230469 20.789062 10.328125 20.789062 C 10.429688 20.789062 10.53125 20.789062 10.632812 20.816406 C 10.8125 20.839844 10.960938 20.941406 11.089844 21.144531 C 11.292969 21.472656 11.644531 21.550781 12 21.550781 C 13.925781 21.550781 15.847656 21.550781 17.773438 21.550781 C 18.175781 21.550781 18.53125 21.398438 18.734375 21.042969 C 18.808594 20.890625 18.910156 20.839844 19.039062 20.816406 C 19.113281 20.789062 19.1875 20.789062 19.289062 20.789062 C 20.65625 20.789062 22.023438 20.789062 23.390625 20.789062 C 24.226562 20.789062 25.0625 20.789062 25.921875 20.789062 C 26.730469 20.789062 27.515625 20.789062 28.328125 20.789062 C 28.453125 20.789062 28.578125 20.789062 28.707031 20.789062 C 28.859375 20.789062 28.960938 20.839844 28.960938 21.019531 C 28.984375 21.398438 28.984375 21.777344 28.984375 22.183594 Z M 28.984375 22.183594 " fill-opacity="1" fill-rule="nonzero"/></g><path fill="#31ac7d" d="M 14.859375 10.664062 L 14.859375 17.449219 L 10.683594 16.257812 L 10.683594 12.792969 L 13.949219 12.992188 Z M 14.859375 10.664062 " fill-opacity="1" fill-rule="evenodd"/><path fill="#31ac7d" d="M 19.113281 10.511719 L 15.191406 10.285156 L 16.175781 12.765625 L 20.101562 12.539062 Z M 19.113281 10.511719 " fill-opacity="1" fill-rule="evenodd"/><path fill="#31ac7d" d="M 15.140625 10.664062 L 16.050781 12.992188 L 19.316406 12.792969 L 19.316406 16.257812 L 15.140625 17.449219 Z M 15.140625 10.664062 " fill-opacity="1" fill-rule="evenodd"/><path fill="#31ac7d" d="M 10.886719 10.511719 L 9.925781 12.539062 L 13.847656 12.765625 L 14.808594 10.285156 Z M 10.886719 10.511719 " fill-opacity="1" fill-rule="evenodd"/></svg>