<svg xmlns="http://www.w3.org/2000/svg" xmlns:xlink="http://www.w3.org/1999/xlink" width="40" zoomAndPan="magnify" viewBox="0 0 30 30.000001" height="40" preserveAspectRatio="xMidYMid meet" version="1.0"><defs><clipPath id="3a54635a75"><path d="M 0.484375 1 L 29.515625 1 L 29.515625 29 L 0.484375 29 Z M 0.484375 1 " clip-rule="nonzero"/></clipPath></defs><path fill="#31ac7d" d="M 20.210938 20.566406 L 20.210938 25.21875 L 23.003906 25.21875 L 23.003906 27.078125 L 27.65625 27.078125 L 27.65625 20.566406 L 20.210938 20.566406 " fill-opacity="1" fill-rule="nonzero"/><path fill="#31ac7d" d="M 6.71875 6.140625 C 6.71875 4.601562 7.96875 3.351562 9.511719 3.351562 C 11.050781 3.351562 12.300781 4.601562 12.300781 6.140625 L 15.558594 6.140625 L 15.558594 5.910156 C 15.558594 5.289062 15.164062 4.742188 14.574219 4.550781 C 14.433594 4.503906 14.324219 4.402344 14.273438 4.273438 C 14.246094 4.210938 14.222656 4.152344 14.199219 4.089844 C 14.140625 3.964844 14.148438 3.816406 14.214844 3.683594 C 14.496094 3.132812 14.386719 2.464844 13.949219 2.027344 L 13.621094 1.703125 C 13.183594 1.261719 12.519531 1.15625 11.96875 1.4375 C 11.835938 1.5 11.6875 1.507812 11.558594 1.453125 C 11.5 1.425781 11.4375 1.402344 11.378906 1.378906 C 11.246094 1.328125 11.148438 1.21875 11.101562 1.078125 C 10.90625 0.488281 10.363281 0.09375 9.742188 0.09375 L 9.277344 0.09375 C 8.65625 0.09375 8.113281 0.488281 7.917969 1.078125 C 7.871094 1.21875 7.773438 1.328125 7.644531 1.378906 C 7.582031 1.402344 7.519531 1.425781 7.460938 1.453125 C 7.332031 1.507812 7.183594 1.5 7.054688 1.4375 C 6.5 1.15625 5.835938 1.261719 5.398438 1.703125 L 5.066406 2.027344 C 4.628906 2.464844 4.523438 3.132812 4.804688 3.683594 C 4.871094 3.816406 4.878906 3.964844 4.820312 4.089844 C 4.796875 4.152344 4.769531 4.210938 4.746094 4.273438 C 4.695312 4.402344 4.585938 4.503906 4.445312 4.550781 C 3.859375 4.742188 3.460938 5.289062 3.460938 5.910156 L 3.460938 6.140625 L 6.71875 6.140625 " fill-opacity="1" fill-rule="nonzero"/><path fill="#31ac7d" d="M 25.792969 5.210938 L 27.65625 5.210938 L 27.65625 3.351562 L 25.792969 3.351562 L 25.792969 5.210938 " fill-opacity="1" fill-rule="nonzero"/><path fill="#31ac7d" d="M 18.351562 5.210938 L 20.210938 5.210938 L 20.210938 3.351562 L 18.351562 3.351562 L 18.351562 5.210938 " fill-opacity="1" fill-rule="nonzero"/><path fill="#31ac7d" d="M 9.976562 13.121094 L 9.042969 13.121094 L 9.042969 14.050781 L 9.976562 14.050781 L 9.976562 13.121094 " fill-opacity="1" fill-rule="nonzero"/><path fill="#31ac7d" d="M 13.699219 13.121094 L 12.765625 13.121094 L 12.765625 14.050781 L 13.699219 14.050781 L 13.699219 13.121094 " fill-opacity="1" fill-rule="nonzero"/><path fill="#31ac7d" d="M 11.835938 13.121094 L 10.90625 13.121094 L 10.90625 14.050781 L 11.835938 14.050781 L 11.835938 13.121094 " fill-opacity="1" fill-rule="nonzero"/><path fill="#31ac7d" d="M 9.042969 27.078125 L 9.976562 27.078125 L 9.976562 26.148438 L 9.042969 26.148438 L 9.042969 27.078125 " fill-opacity="1" fill-rule="nonzero"/><path fill="#31ac7d" d="M 10.90625 27.078125 L 13.699219 27.078125 L 13.699219 26.148438 L 10.90625 26.148438 L 10.90625 27.078125 " fill-opacity="1" fill-rule="nonzero"/><path fill="#31ac7d" d="M 14.628906 27.078125 L 19.28125 27.078125 L 19.28125 26.148438 L 14.628906 26.148438 L 14.628906 27.078125 " fill-opacity="1" fill-rule="nonzero"/><path fill="#31ac7d" d="M 21.140625 17.773438 L 26.722656 17.773438 L 26.722656 18.703125 L 21.140625 18.703125 Z M 20.210938 19.632812 L 27.65625 19.632812 L 27.65625 16.84375 L 20.210938 16.84375 L 20.210938 19.632812 " fill-opacity="1" fill-rule="nonzero"/><path fill="#31ac7d" d="M 22.070312 20.566406 L 20.210938 20.566406 L 20.210938 21.496094 L 22.070312 21.496094 L 22.070312 20.566406 " fill-opacity="1" fill-rule="nonzero"/><path fill="#31ac7d" d="M 23.003906 21.496094 L 27.65625 21.496094 L 27.65625 20.566406 L 23.003906 20.566406 L 23.003906 21.496094 " fill-opacity="1" fill-rule="nonzero"/><path fill="#31ac7d" d="M 20.210938 23.355469 L 27.65625 23.355469 L 27.65625 22.425781 L 20.210938 22.425781 L 20.210938 23.355469 " fill-opacity="1" fill-rule="nonzero"/><path fill="#31ac7d" d="M 23.003906 24.285156 L 20.210938 24.285156 L 20.210938 25.21875 L 23.003906 25.21875 L 23.003906 24.285156 " fill-opacity="1" fill-rule="nonzero"/><path fill="#31ac7d" d="M 24.863281 24.285156 L 23.933594 24.285156 L 23.933594 25.21875 L 24.863281 25.21875 L 24.863281 24.285156 " fill-opacity="1" fill-rule="nonzero"/><path fill="#31ac7d" d="M 25.792969 25.21875 L 27.65625 25.21875 L 27.65625 24.285156 L 25.792969 24.285156 L 25.792969 25.21875 " fill-opacity="1" fill-rule="nonzero"/><path fill="#31ac7d" d="M 23.003906 27.078125 L 23.933594 27.078125 L 23.933594 26.148438 L 23.003906 26.148438 L 23.003906 27.078125 " fill-opacity="1" fill-rule="nonzero"/><path fill="#31ac7d" d="M 24.863281 27.078125 L 25.792969 27.078125 L 25.792969 26.148438 L 24.863281 26.148438 L 24.863281 27.078125 " fill-opacity="1" fill-rule="nonzero"/><path fill="#31ac7d" d="M 26.722656 27.078125 L 27.65625 27.078125 L 27.65625 26.148438 L 26.722656 26.148438 L 26.722656 27.078125 " fill-opacity="1" fill-rule="nonzero"/><g clip-path="url(#3a54635a75)"><path fill="#31ac7d" d="M 24.863281 1.953125 L 28.585938 1.953125 L 28.585938 6.605469 L 24.863281 6.605469 Z M 21.140625 6.605469 L 17.417969 6.605469 L 17.417969 1.953125 L 21.140625 1.953125 Z M 13.3125 8.46875 L 15.488281 8.46875 L 15.320312 9.632812 Z M 14.585938 11.257812 L 10.878906 8.941406 C 11.078125 8.796875 11.25 8.625 11.390625 8.429688 L 16.277344 11.257812 Z M 28.585938 12.65625 L 28.585938 14.980469 L 8.113281 14.980469 L 8.113281 12.65625 C 8.113281 12.398438 8.324219 12.191406 8.578125 12.191406 L 28.121094 12.191406 C 28.375 12.191406 28.585938 12.398438 28.585938 12.65625 Z M 28.121094 28.007812 L 8.578125 28.007812 C 8.324219 28.007812 8.113281 27.800781 8.113281 27.542969 L 8.113281 22.425781 L 9.042969 22.425781 L 9.042969 24.285156 C 9.042969 24.800781 9.460938 25.21875 9.976562 25.21875 L 18.351562 25.21875 C 18.863281 25.21875 19.28125 24.800781 19.28125 24.285156 L 19.28125 17.773438 C 19.28125 17.261719 18.863281 16.84375 18.351562 16.84375 L 9.976562 16.84375 C 9.460938 16.84375 9.042969 17.261719 9.042969 17.773438 L 9.042969 19.632812 L 8.113281 19.632812 L 8.113281 15.910156 L 28.585938 15.910156 L 28.585938 27.542969 C 28.585938 27.800781 28.375 28.007812 28.121094 28.007812 Z M 12.765625 21.03125 C 12.765625 20.257812 13.390625 19.632812 14.164062 19.632812 C 15.082031 19.632812 16.488281 20.382812 16.488281 21.03125 C 16.488281 21.675781 15.082031 22.425781 14.164062 22.425781 C 13.390625 22.425781 12.765625 21.800781 12.765625 21.03125 Z M 9.976562 22.425781 L 12.3125 22.425781 C 12.738281 22.988281 13.40625 23.355469 14.164062 23.355469 C 15.28125 23.355469 17.417969 22.449219 17.417969 21.03125 C 17.417969 19.609375 15.28125 18.703125 14.164062 18.703125 C 13.40625 18.703125 12.738281 19.074219 12.3125 19.632812 L 9.976562 19.632812 L 9.976562 17.773438 L 18.351562 17.773438 L 18.351562 24.285156 L 9.976562 24.285156 Z M 1.601562 21.03125 C 1.601562 20.773438 1.808594 20.566406 2.066406 20.566406 L 11.882812 20.566406 C 11.851562 20.714844 11.835938 20.871094 11.835938 21.03125 C 11.835938 21.191406 11.851562 21.34375 11.882812 21.496094 L 2.066406 21.496094 C 1.808594 21.496094 1.601562 21.285156 1.601562 21.03125 Z M 6.253906 14.050781 L 6.253906 12.191406 L 5.324219 12.191406 L 5.324219 14.050781 L 4.734375 14.050781 C 4.503906 14.050781 4.304688 13.878906 4.273438 13.652344 L 4.117188 12.554688 L 9.214844 9.367188 C 9.3125 9.382812 9.40625 9.398438 9.511719 9.398438 C 9.613281 9.398438 9.707031 9.382812 9.804688 9.367188 L 12.832031 11.257812 L 8.578125 11.257812 C 7.808594 11.257812 7.183594 11.882812 7.183594 12.65625 L 7.183594 14.050781 Z M 2.3125 12.585938 C 2.101562 12.71875 1.804688 12.648438 1.671875 12.4375 C 1.535156 12.21875 1.601562 11.933594 1.816406 11.796875 L 7.523438 8.269531 C 7.683594 8.53125 7.890625 8.761719 8.140625 8.941406 Z M 3.535156 8.46875 L 5.433594 8.46875 L 3.6875 9.546875 Z M 2.996094 6.605469 L 7.230469 6.605469 C 7.199219 6.757812 7.183594 6.910156 7.183594 7.070312 C 7.183594 7.171875 7.203125 7.269531 7.214844 7.367188 L 6.941406 7.539062 L 2.996094 7.539062 C 2.738281 7.539062 2.53125 7.328125 2.53125 7.070312 C 2.53125 6.816406 2.738281 6.605469 2.996094 6.605469 Z M 9.511719 8.46875 C 8.742188 8.46875 8.113281 7.84375 8.113281 7.070312 C 8.113281 6.300781 8.742188 5.675781 9.511719 5.675781 C 10.28125 5.675781 10.90625 6.300781 10.90625 7.070312 C 10.90625 7.84375 10.28125 8.46875 9.511719 8.46875 Z M 9.511719 3.816406 C 10.632812 3.816406 11.574219 4.613281 11.789062 5.675781 L 11.359375 5.675781 C 10.933594 5.113281 10.269531 4.746094 9.511719 4.746094 C 8.753906 4.746094 8.085938 5.113281 7.660156 5.675781 L 7.230469 5.675781 C 7.445312 4.613281 8.386719 3.816406 9.511719 3.816406 Z M 16.488281 7.070312 L 16.488281 7.074219 C 16.488281 7.328125 16.28125 7.539062 16.023438 7.539062 L 11.789062 7.539062 C 11.820312 7.386719 11.835938 7.230469 11.835938 7.070312 C 11.835938 6.910156 11.820312 6.757812 11.789062 6.605469 L 16.023438 6.605469 C 16.28125 6.605469 16.488281 6.8125 16.488281 7.070312 Z M 29.515625 7.539062 L 29.515625 1.023438 L 23.933594 1.023438 L 23.933594 3.816406 L 22.070312 3.816406 L 22.070312 1.023438 L 16.488281 1.023438 L 16.488281 3.816406 L 14.179688 3.816406 C 14.164062 3.910156 14.160156 4.003906 14.199219 4.089844 C 14.222656 4.152344 14.246094 4.210938 14.273438 4.273438 C 14.324219 4.402344 14.433594 4.503906 14.574219 4.550781 C 14.714844 4.597656 14.84375 4.664062 14.957031 4.746094 L 16.488281 4.746094 L 16.488281 5.761719 C 16.339844 5.710938 16.1875 5.675781 16.023438 5.675781 L 12.730469 5.675781 C 12.503906 4.101562 11.148438 2.882812 9.511719 2.882812 C 7.871094 2.882812 6.515625 4.101562 6.292969 5.675781 L 2.996094 5.675781 C 2.226562 5.675781 1.601562 6.300781 1.601562 7.070312 C 1.601562 7.695312 2.015625 8.21875 2.582031 8.398438 L 2.824219 10.082031 L 1.324219 11.007812 C 0.671875 11.414062 0.472656 12.277344 0.882812 12.929688 C 1.140625 13.339844 1.582031 13.585938 2.066406 13.585938 C 2.328125 13.585938 2.582031 13.511719 2.804688 13.371094 L 3.253906 13.09375 L 3.351562 13.785156 C 3.449219 14.46875 4.046875 14.980469 4.734375 14.980469 L 7.183594 14.980469 L 7.183594 19.632812 L 2.066406 19.632812 C 1.296875 19.632812 0.671875 20.257812 0.671875 21.03125 C 0.671875 21.800781 1.296875 22.425781 2.066406 22.425781 L 7.183594 22.425781 L 7.183594 27.542969 C 7.183594 28.3125 7.808594 28.9375 8.578125 28.9375 L 28.121094 28.9375 C 28.890625 28.9375 29.515625 28.3125 29.515625 27.542969 L 29.515625 12.65625 C 29.515625 11.882812 28.890625 11.257812 28.121094 11.257812 L 17.988281 11.257812 C 17.898438 11.160156 17.800781 11.070312 17.679688 10.996094 L 16.1875 10.132812 L 16.4375 8.398438 C 16.855469 8.269531 17.1875 7.949219 17.332031 7.539062 L 22.070312 7.539062 L 22.070312 4.746094 L 23.933594 4.746094 L 23.933594 7.539062 L 29.515625 7.539062 " fill-opacity="1" fill-rule="nonzero"/></g><path fill="#31ac7d" d="M 25.792969 3.816406 L 27.65625 3.816406 L 27.65625 2.882812 L 25.792969 2.882812 L 25.792969 3.816406 " fill-opacity="1" fill-rule="nonzero"/><path fill="#31ac7d" d="M 25.792969 5.675781 L 27.65625 5.675781 L 27.65625 4.746094 L 25.792969 4.746094 L 25.792969 5.675781 " fill-opacity="1" fill-rule="nonzero"/><path fill="#31ac7d" d="M 20.210938 2.882812 L 18.351562 2.882812 L 18.351562 3.816406 L 20.210938 3.816406 L 20.210938 2.882812 " fill-opacity="1" fill-rule="nonzero"/><path fill="#31ac7d" d="M 20.210938 4.746094 L 18.351562 4.746094 L 18.351562 5.675781 L 20.210938 5.675781 L 20.210938 4.746094 " fill-opacity="1" fill-rule="nonzero"/></svg>