<svg xmlns="http://www.w3.org/2000/svg" xmlns:xlink="http://www.w3.org/1999/xlink" width="40" zoomAndPan="magnify" viewBox="0 0 30 30.000001" height="40" preserveAspectRatio="xMidYMid meet" version="1.0"><defs><clipPath id="6a591a8d7f"><path d="M 0.484375 4.535156 L 29.515625 4.535156 L 29.515625 24.859375 L 0.484375 24.859375 Z M 0.484375 4.535156 " clip-rule="nonzero"/></clipPath></defs><path fill="#31ac7d" d="M 10.394531 19.6875 L 10.167969 19.800781 L 10.078125 19.597656 C 9.761719 19.484375 9.464844 19.277344 9.238281 19.03125 C 8.761719 19.144531 8.261719 19.144531 7.789062 19.074219 C 7.558594 19.03125 7.355469 19.164062 7.289062 19.371094 L 7.085938 19.9375 L 6.402344 19.6875 L 6.609375 19.121094 C 6.675781 18.917969 6.609375 18.691406 6.402344 18.574219 C 5.925781 18.304688 5.542969 17.941406 5.222656 17.488281 C 5.089844 17.304688 4.863281 17.238281 4.65625 17.328125 L 4.113281 17.578125 L 3.816406 16.921875 L 4.363281 16.671875 C 4.566406 16.582031 4.65625 16.351562 4.613281 16.148438 C 4.476562 15.628906 4.453125 15.082031 4.542969 14.539062 C 4.589844 14.3125 4.453125 14.109375 4.25 14.039062 L 3.683594 13.835938 L 3.929688 13.15625 L 4.5 13.359375 C 4.703125 13.425781 4.929688 13.359375 5.042969 13.15625 C 5.316406 12.679688 5.679688 12.292969 6.132812 11.976562 C 6.3125 11.839844 6.382812 11.613281 6.289062 11.410156 L 6.039062 10.863281 L 6.699219 10.570312 L 6.949219 11.113281 C 7.039062 11.316406 7.265625 11.410156 7.46875 11.363281 C 7.96875 11.226562 8.46875 11.203125 8.964844 11.273438 C 9.148438 10.933594 9.441406 10.660156 9.761719 10.480469 L 9.785156 10.433594 L 9.804688 10.433594 C 10.125 10.253906 10.488281 10.160156 10.871094 10.160156 L 11.257812 10.160156 C 11.167969 10.023438 11.03125 9.910156 10.871094 9.867188 L 9.964844 9.527344 C 9.761719 9.457031 9.554688 9.457031 9.375 9.550781 C 9.195312 9.640625 9.035156 9.796875 8.964844 9.980469 L 8.851562 10.320312 C 8.445312 10.273438 8.035156 10.296875 7.628906 10.367188 L 7.46875 10.046875 C 7.378906 9.867188 7.21875 9.707031 7.039062 9.640625 C 6.835938 9.570312 6.628906 9.570312 6.449219 9.664062 L 5.566406 10.070312 C 5.179688 10.253906 4.996094 10.707031 5.179688 11.113281 L 5.335938 11.429688 C 5.019531 11.703125 4.746094 12 4.5 12.339844 L 4.160156 12.226562 C 3.75 12.089844 3.320312 12.292969 3.160156 12.703125 L 2.820312 13.609375 C 2.753906 13.8125 2.753906 14.015625 2.84375 14.199219 C 2.933594 14.378906 3.09375 14.539062 3.273438 14.605469 L 3.613281 14.71875 C 3.570312 15.128906 3.589844 15.535156 3.660156 15.945312 L 3.339844 16.105469 C 3.160156 16.195312 3 16.351562 2.933594 16.535156 C 2.867188 16.738281 2.867188 16.941406 2.957031 17.125 L 3.363281 18.007812 C 3.546875 18.394531 4 18.574219 4.40625 18.394531 L 4.726562 18.234375 C 4.996094 18.554688 5.292969 18.824219 5.632812 19.074219 L 5.519531 19.414062 C 5.382812 19.824219 5.585938 20.253906 5.996094 20.414062 L 6.902344 20.753906 C 6.992188 20.777344 7.085938 20.800781 7.175781 20.800781 C 7.289062 20.800781 7.402344 20.777344 7.492188 20.730469 C 7.675781 20.640625 7.832031 20.480469 7.902344 20.300781 L 8.015625 19.960938 C 8.421875 20.003906 8.832031 19.980469 9.238281 19.914062 L 9.398438 20.230469 C 9.488281 20.414062 9.648438 20.570312 9.828125 20.640625 C 10.03125 20.707031 10.238281 20.707031 10.417969 20.617188 L 11.304688 20.210938 C 11.53125 20.097656 11.664062 19.914062 11.734375 19.6875 L 10.847656 19.6875 C 10.691406 19.734375 10.53125 19.710938 10.394531 19.6875 Z M 10.394531 19.6875 " fill-opacity="1" fill-rule="nonzero"/><path fill="#31ac7d" d="M 7.652344 13.539062 C 7.902344 13.425781 8.148438 13.359375 8.421875 13.359375 C 8.492188 13.359375 8.582031 13.359375 8.648438 13.382812 L 8.648438 12.476562 C 8.171875 12.429688 7.695312 12.519531 7.265625 12.722656 C 6.609375 13.042969 6.109375 13.585938 5.859375 14.265625 C 5.609375 14.945312 5.632812 15.695312 5.949219 16.351562 C 6.269531 17.011719 6.8125 17.511719 7.492188 17.757812 C 7.789062 17.871094 8.105469 17.917969 8.421875 17.917969 C 8.511719 17.917969 8.605469 17.917969 8.671875 17.894531 C 8.648438 17.78125 8.625 17.644531 8.625 17.511719 L 8.625 16.988281 C 8.355469 17.035156 8.058594 16.988281 7.789062 16.898438 C 7.332031 16.738281 6.972656 16.398438 6.765625 15.96875 C 6.5625 15.535156 6.539062 15.039062 6.699219 14.585938 C 6.878906 14.128906 7.21875 13.746094 7.652344 13.539062 Z M 7.652344 13.539062 " fill-opacity="1" fill-rule="nonzero"/><path fill="#31ac7d" d="M 21.351562 12.40625 L 21.351562 13.15625 L 21.804688 13.15625 C 21.828125 13.15625 21.871094 13.15625 21.894531 13.15625 C 21.917969 13.15625 21.917969 13.15625 21.941406 13.132812 C 21.964844 13.132812 21.964844 13.132812 21.984375 13.109375 C 22.007812 13.109375 22.007812 13.085938 22.03125 13.085938 C 22.03125 13.085938 22.054688 13.085938 22.054688 13.066406 C 22.078125 13.042969 22.097656 13.019531 22.121094 12.996094 L 23.347656 11.773438 C 23.371094 11.773438 23.371094 11.773438 23.390625 11.773438 L 24.84375 11.773438 C 25.023438 12.292969 25.523438 12.679688 26.113281 12.679688 C 26.863281 12.679688 27.476562 12.066406 27.476562 11.316406 C 27.476562 10.570312 26.863281 9.957031 26.113281 9.957031 C 25.523438 9.957031 25.023438 10.34375 24.84375 10.863281 L 23.164062 10.863281 C 23.050781 10.863281 22.9375 10.910156 22.847656 11 L 21.621094 12.246094 L 21.351562 12.246094 C 21.351562 12.292969 21.351562 12.363281 21.351562 12.40625 Z M 26.113281 10.886719 C 26.363281 10.886719 26.566406 11.089844 26.566406 11.339844 C 26.566406 11.589844 26.363281 11.792969 26.113281 11.792969 C 25.863281 11.792969 25.660156 11.589844 25.660156 11.339844 C 25.660156 11.089844 25.863281 10.886719 26.113281 10.886719 Z M 26.113281 10.886719 " fill-opacity="1" fill-rule="nonzero"/><g clip-path="url(#6a591a8d7f)"><path fill="#31ac7d" d="M 28.15625 4.535156 L 1.84375 4.535156 C 1.097656 4.535156 0.484375 5.148438 0.484375 5.898438 L 0.484375 23.136719 C 0.484375 23.882812 1.097656 24.496094 1.84375 24.496094 L 28.15625 24.496094 C 28.902344 24.496094 29.515625 23.882812 29.515625 23.136719 L 29.515625 5.898438 C 29.515625 5.148438 28.902344 4.535156 28.15625 4.535156 Z M 1.84375 5.445312 L 28.15625 5.445312 C 28.40625 5.445312 28.609375 5.648438 28.609375 5.898438 L 28.609375 7.710938 L 1.390625 7.710938 L 1.390625 5.898438 C 1.390625 5.648438 1.59375 5.445312 1.84375 5.445312 Z M 28.15625 23.589844 L 1.84375 23.589844 C 1.59375 23.589844 1.390625 23.382812 1.390625 23.136719 L 1.390625 8.617188 L 28.609375 8.617188 L 28.609375 23.136719 C 28.609375 23.382812 28.40625 23.589844 28.15625 23.589844 Z M 28.15625 23.589844 " fill-opacity="1" fill-rule="nonzero"/></g><path fill="#31ac7d" d="M 4.113281 6.578125 C 4.113281 6.703125 4.070312 6.808594 3.980469 6.898438 C 3.890625 6.988281 3.785156 7.03125 3.660156 7.03125 C 3.535156 7.03125 3.425781 6.988281 3.339844 6.898438 C 3.25 6.808594 3.207031 6.703125 3.207031 6.578125 C 3.207031 6.453125 3.25 6.34375 3.339844 6.257812 C 3.425781 6.167969 3.535156 6.125 3.660156 6.125 C 3.785156 6.125 3.890625 6.167969 3.980469 6.257812 C 4.070312 6.34375 4.113281 6.453125 4.113281 6.578125 Z M 4.113281 6.578125 " fill-opacity="1" fill-rule="nonzero"/><path fill="#31ac7d" d="M 6.835938 6.578125 C 6.835938 6.703125 6.789062 6.808594 6.703125 6.898438 C 6.613281 6.988281 6.507812 7.03125 6.382812 7.03125 C 6.253906 7.03125 6.148438 6.988281 6.058594 6.898438 C 5.972656 6.808594 5.925781 6.703125 5.925781 6.578125 C 5.925781 6.453125 5.972656 6.34375 6.058594 6.257812 C 6.148438 6.167969 6.253906 6.125 6.382812 6.125 C 6.507812 6.125 6.613281 6.167969 6.703125 6.257812 C 6.789062 6.34375 6.835938 6.453125 6.835938 6.578125 Z M 6.835938 6.578125 " fill-opacity="1" fill-rule="nonzero"/><path fill="#31ac7d" d="M 9.554688 6.578125 C 9.554688 6.703125 9.511719 6.808594 9.421875 6.898438 C 9.335938 6.988281 9.226562 7.03125 9.101562 7.03125 C 8.976562 7.03125 8.871094 6.988281 8.78125 6.898438 C 8.695312 6.808594 8.648438 6.703125 8.648438 6.578125 C 8.648438 6.453125 8.695312 6.34375 8.78125 6.257812 C 8.871094 6.167969 8.976562 6.125 9.101562 6.125 C 9.226562 6.125 9.335938 6.167969 9.421875 6.257812 C 9.511719 6.34375 9.554688 6.453125 9.554688 6.578125 Z M 9.554688 6.578125 " fill-opacity="1" fill-rule="nonzero"/><path fill="#31ac7d" d="M 20.445312 12.40625 C 20.445312 11.703125 19.855469 11.113281 19.152344 11.113281 L 10.847656 11.113281 C 10.144531 11.113281 9.554688 11.703125 9.554688 12.40625 L 9.554688 17.53125 C 9.554688 18.234375 10.144531 18.824219 10.847656 18.824219 L 19.152344 18.824219 C 19.855469 18.824219 20.445312 18.234375 20.445312 17.53125 Z M 19.535156 17.53125 C 19.535156 17.738281 19.355469 17.917969 19.152344 17.917969 L 10.847656 17.917969 C 10.644531 17.917969 10.464844 17.738281 10.464844 17.53125 L 10.464844 12.40625 C 10.464844 12.203125 10.644531 12.019531 10.847656 12.019531 L 19.152344 12.019531 C 19.355469 12.019531 19.535156 12.203125 19.535156 12.40625 Z M 19.535156 17.53125 " fill-opacity="1" fill-rule="nonzero"/><path fill="#31ac7d" d="M 13.480469 14.265625 C 13.480469 14.199219 13.480469 14.152344 13.480469 14.085938 C 13.480469 14.039062 13.480469 13.972656 13.480469 13.882812 C 13.480469 13.789062 13.457031 13.722656 13.457031 13.652344 L 11.234375 14.5625 C 11.191406 14.699219 11.191406 14.8125 11.191406 14.945312 C 11.191406 15.082031 11.210938 15.21875 11.234375 15.378906 L 13.457031 16.285156 C 13.457031 16.261719 13.480469 16.21875 13.480469 16.171875 C 13.480469 16.125 13.480469 16.082031 13.503906 16.035156 C 13.503906 15.992188 13.503906 15.945312 13.503906 15.921875 C 13.503906 15.898438 13.503906 15.855469 13.503906 15.832031 C 13.503906 15.761719 13.503906 15.71875 13.503906 15.648438 C 13.503906 15.582031 13.480469 15.515625 13.480469 15.445312 L 12.050781 14.945312 L 13.457031 14.449219 C 13.480469 14.378906 13.480469 14.335938 13.480469 14.265625 Z M 13.480469 14.265625 " fill-opacity="1" fill-rule="nonzero"/><path fill="#31ac7d" d="M 15.636719 12.949219 C 15.566406 12.949219 15.5 12.949219 15.429688 12.949219 C 15.363281 12.949219 15.292969 12.972656 15.226562 12.972656 L 13.933594 16.808594 C 14.023438 16.828125 14.117188 16.828125 14.183594 16.851562 C 14.25 16.851562 14.320312 16.851562 14.386719 16.851562 C 14.457031 16.851562 14.523438 16.851562 14.589844 16.851562 C 14.660156 16.851562 14.726562 16.828125 14.796875 16.828125 L 16.089844 12.996094 C 15.996094 12.972656 15.90625 12.972656 15.839844 12.949219 C 15.769531 12.949219 15.703125 12.949219 15.636719 12.949219 Z M 15.636719 12.949219 " fill-opacity="1" fill-rule="nonzero"/><path fill="#31ac7d" d="M 16.542969 13.632812 C 16.519531 13.699219 16.519531 13.769531 16.519531 13.859375 C 16.519531 13.949219 16.519531 14.015625 16.519531 14.0625 C 16.519531 14.128906 16.519531 14.175781 16.519531 14.242188 C 16.519531 14.3125 16.542969 14.378906 16.542969 14.449219 L 17.949219 14.945312 L 16.542969 15.421875 C 16.519531 15.492188 16.519531 15.558594 16.519531 15.628906 C 16.519531 15.695312 16.519531 15.761719 16.519531 15.808594 C 16.519531 15.832031 16.519531 15.878906 16.519531 15.898438 C 16.519531 15.945312 16.519531 15.992188 16.519531 16.011719 C 16.519531 16.058594 16.519531 16.105469 16.542969 16.148438 C 16.566406 16.195312 16.566406 16.21875 16.566406 16.261719 L 18.789062 15.355469 C 18.832031 15.21875 18.832031 15.058594 18.832031 14.925781 C 18.832031 14.789062 18.808594 14.652344 18.789062 14.539062 Z M 16.542969 13.632812 " fill-opacity="1" fill-rule="nonzero"/><path fill="#31ac7d" d="M 26.792969 19.050781 L 21.351562 19.050781 C 20.851562 19.050781 20.445312 19.460938 20.445312 19.960938 L 20.445312 21.773438 C 20.445312 22.273438 20.851562 22.679688 21.351562 22.679688 L 26.792969 22.679688 C 27.292969 22.679688 27.703125 22.273438 27.703125 21.773438 L 27.703125 19.960938 C 27.703125 19.460938 27.292969 19.050781 26.792969 19.050781 Z M 21.351562 21.773438 L 21.351562 19.960938 L 26.792969 19.960938 L 26.792969 21.773438 Z M 21.351562 21.773438 " fill-opacity="1" fill-rule="nonzero"/><path fill="#31ac7d" d="M 25.886719 20.1875 C 25.480469 20.1875 25.253906 20.414062 25.117188 20.550781 C 25.023438 20.640625 25.023438 20.640625 24.980469 20.640625 C 24.933594 20.640625 24.933594 20.640625 24.84375 20.550781 C 24.707031 20.414062 24.480469 20.1875 24.074219 20.1875 C 23.664062 20.1875 23.4375 20.414062 23.300781 20.550781 C 23.210938 20.640625 23.210938 20.640625 23.164062 20.640625 C 23.121094 20.640625 23.121094 20.640625 23.027344 20.550781 C 22.894531 20.414062 22.667969 20.1875 22.257812 20.1875 C 22.007812 20.1875 21.804688 20.390625 21.804688 20.640625 C 21.804688 20.890625 22.007812 21.09375 22.257812 21.09375 C 22.304688 21.09375 22.304688 21.09375 22.394531 21.183594 C 22.53125 21.320312 22.757812 21.546875 23.164062 21.546875 C 23.574219 21.546875 23.800781 21.320312 23.9375 21.183594 C 24.027344 21.09375 24.027344 21.09375 24.074219 21.09375 C 24.117188 21.09375 24.117188 21.09375 24.207031 21.183594 C 24.34375 21.320312 24.570312 21.546875 24.980469 21.546875 C 25.386719 21.546875 25.613281 21.320312 25.75 21.183594 C 25.839844 21.09375 25.839844 21.09375 25.886719 21.09375 C 26.136719 21.09375 26.339844 20.890625 26.339844 20.640625 C 26.339844 20.390625 26.136719 20.1875 25.886719 20.1875 Z M 25.886719 20.1875 " fill-opacity="1" fill-rule="nonzero"/><path fill="#31ac7d" d="M 24.074219 13.609375 C 23.484375 13.609375 22.984375 13.996094 22.800781 14.515625 L 21.351562 14.515625 L 21.351562 15.421875 L 22.800781 15.421875 C 22.984375 15.945312 23.484375 16.332031 24.074219 16.332031 C 24.820312 16.332031 25.433594 15.71875 25.433594 14.96875 C 25.433594 14.222656 24.820312 13.609375 24.074219 13.609375 Z M 24.074219 15.421875 C 23.824219 15.421875 23.617188 15.21875 23.617188 14.96875 C 23.617188 14.71875 23.824219 14.515625 24.074219 14.515625 C 24.320312 14.515625 24.527344 14.71875 24.527344 14.96875 C 24.527344 15.21875 24.320312 15.421875 24.074219 15.421875 Z M 24.074219 15.421875 " fill-opacity="1" fill-rule="nonzero"/></svg>