<svg xmlns="http://www.w3.org/2000/svg" xmlns:xlink="http://www.w3.org/1999/xlink" width="40" zoomAndPan="magnify" viewBox="0 0 30 30.000001" height="40" preserveAspectRatio="xMidYMid meet" version="1.0"><defs><clipPath id="1832f37fce"><path d="M 0.484375 0 L 29.515625 0 L 29.515625 29.03125 L 0.484375 29.03125 Z M 0.484375 0 " clip-rule="nonzero"/></clipPath></defs><g clip-path="url(#1832f37fce)"><path fill="#31ac7d" d="M 0.488281 4.59375 L 0.488281 29.027344 L 29.511719 29.027344 L 29.511719 25.816406 L 29.171875 25.816406 L 29.171875 28.683594 L 0.828125 28.683594 L 0.828125 4.9375 L 29.167969 4.9375 L 29.167969 23.867188 L 29.507812 23.867188 L 29.507812 0.00390625 L 0.488281 0.00390625 Z M 0.828125 0.347656 L 8.304688 0.347656 L 10.960938 4.589844 L 0.828125 4.589844 Z M 8.714844 0.347656 L 29.171875 0.347656 L 29.171875 4.589844 L 11.367188 4.589844 L 10.039062 2.46875 Z M 8.714844 0.347656 " fill-opacity="1" fill-rule="nonzero"/></g><path fill="#31ac7d" d="M 27.214844 2.296875 L 26.871094 2.296875 L 26.871094 2.640625 C 27.214844 2.640625 26.871094 2.640625 27.214844 2.640625 Z M 27.214844 2.296875 " fill-opacity="1" fill-rule="nonzero"/><path fill="#31ac7d" d="M 22.628906 2.296875 L 22.28125 2.296875 L 22.28125 2.640625 C 22.628906 2.640625 22.28125 2.640625 22.628906 2.640625 Z M 22.628906 2.296875 " fill-opacity="1" fill-rule="nonzero"/><path fill="#31ac7d" d="M 24.925781 2.296875 L 24.578125 2.296875 L 24.578125 2.640625 C 24.925781 2.640625 24.578125 2.640625 24.925781 2.640625 Z M 24.925781 2.296875 " fill-opacity="1" fill-rule="nonzero"/><path fill="#31ac7d" d="M 2.78125 2.296875 L 7.332031 2.296875 L 7.332031 2.640625 L 2.78125 2.640625 Z M 2.78125 2.296875 " fill-opacity="1" fill-rule="nonzero"/><path fill="#31ac7d" d="M 9.894531 19.628906 L 10.089844 19.578125 L 10.238281 19.578125 L 10.238281 19.539062 L 11.148438 19.296875 L 12.398438 19.628906 L 12.398438 10.808594 L 9.871094 10.808594 L 9.871094 10.269531 C 9.871094 9.375 9.144531 8.648438 8.253906 8.648438 L 7.925781 8.648438 C 7.867188 8.648438 7.8125 8.652344 7.761719 8.65625 C 7.460938 8.300781 7.011719 8.074219 6.507812 8.074219 C 5.605469 8.074219 4.871094 8.808594 4.871094 9.710938 L 4.871094 10.808594 L 2.78125 10.808594 L 2.78125 19.582031 L 9.890625 19.582031 L 9.890625 19.628906 Z M 10.234375 11.15625 L 12.050781 11.15625 L 12.050781 19.183594 L 11.140625 18.941406 L 10.230469 19.183594 L 10.230469 11.15625 Z M 3.125 11.15625 L 4.871094 11.15625 L 4.871094 11.925781 L 5.214844 11.925781 L 5.214844 11.15625 L 7.800781 11.15625 L 7.800781 11.925781 L 8.144531 11.925781 L 8.144531 11.15625 L 9.890625 11.15625 L 9.890625 19.238281 L 3.125 19.238281 Z M 7.800781 9.710938 L 7.800781 10.808594 L 6.648438 10.808594 L 6.648438 10.269531 C 6.648438 9.675781 7.058594 9.175781 7.605469 9.035156 C 7.730469 9.230469 7.800781 9.460938 7.800781 9.710938 Z M 8.25 8.992188 C 8.949219 8.992188 9.523438 9.5625 9.523438 10.265625 L 9.523438 10.808594 L 8.144531 10.808594 L 8.144531 9.707031 C 8.144531 9.449219 8.085938 9.207031 7.976562 8.988281 L 8.25 8.988281 Z M 5.214844 9.710938 C 5.214844 9 5.792969 8.417969 6.507812 8.417969 C 6.839844 8.417969 7.140625 8.542969 7.367188 8.746094 C 6.746094 8.972656 6.304688 9.566406 6.304688 10.265625 L 6.304688 10.808594 L 5.214844 10.808594 Z M 5.214844 9.710938 " fill-opacity="1" fill-rule="nonzero"/><path fill="#31ac7d" d="M 14.347656 6.621094 L 14.691406 6.621094 L 14.691406 19.871094 L 14.347656 19.871094 Z M 14.347656 6.621094 " fill-opacity="1" fill-rule="nonzero"/><path fill="#31ac7d" d="M 16.152344 6.621094 L 19.71875 6.621094 L 19.71875 6.960938 L 16.152344 6.960938 Z M 16.152344 6.621094 " fill-opacity="1" fill-rule="nonzero"/><path fill="#31ac7d" d="M 16.152344 8.34375 L 22.464844 8.34375 L 22.464844 8.683594 L 16.152344 8.683594 Z M 16.152344 8.34375 " fill-opacity="1" fill-rule="nonzero"/><path fill="#31ac7d" d="M 16.726562 11.5 L 26.929688 11.5 L 26.929688 11.839844 L 16.726562 11.839844 Z M 16.726562 11.5 " fill-opacity="1" fill-rule="nonzero"/><path fill="#31ac7d" d="M 21.316406 13.21875 L 26.933594 13.21875 L 26.933594 13.558594 L 21.316406 13.558594 Z M 21.316406 13.21875 " fill-opacity="1" fill-rule="nonzero"/><path fill="#31ac7d" d="M 16.152344 13.21875 L 19.367188 13.21875 L 19.367188 13.558594 L 16.152344 13.558594 Z M 16.152344 13.21875 " fill-opacity="1" fill-rule="nonzero"/><path fill="#31ac7d" d="M 24.46875 14.941406 L 26.929688 14.941406 L 26.929688 15.28125 L 24.46875 15.28125 Z M 24.46875 14.941406 " fill-opacity="1" fill-rule="nonzero"/><path fill="#31ac7d" d="M 16.152344 14.941406 L 22.519531 14.941406 L 22.519531 15.28125 L 16.152344 15.28125 Z M 16.152344 14.941406 " fill-opacity="1" fill-rule="nonzero"/><path fill="#31ac7d" d="M 24.921875 18.863281 L 24.921875 18.238281 C 24.921875 17.683594 24.46875 17.234375 23.917969 17.234375 L 19.355469 17.234375 C 18.796875 17.234375 18.347656 17.6875 18.347656 18.238281 L 18.347656 18.863281 C 18.347656 19.421875 18.800781 19.871094 19.355469 19.871094 L 23.917969 19.871094 C 24.472656 19.875 24.921875 19.421875 24.921875 18.863281 Z M 18.695312 18.863281 L 18.695312 18.238281 C 18.695312 17.875 18.992188 17.578125 19.359375 17.578125 L 23.917969 17.578125 C 24.28125 17.578125 24.578125 17.871094 24.578125 18.238281 L 24.578125 18.863281 C 24.578125 19.226562 24.285156 19.527344 23.917969 19.527344 L 19.355469 19.527344 C 18.992188 19.527344 18.695312 19.230469 18.695312 18.863281 Z M 18.695312 18.863281 " fill-opacity="1" fill-rule="nonzero"/><path fill="#31ac7d" d="M 7.855469 21.46875 L 2.78125 21.46875 L 2.78125 25.667969 L 7.855469 25.667969 Z M 7.511719 25.324219 L 3.125 25.324219 L 3.125 21.808594 L 7.511719 21.808594 Z M 7.511719 25.324219 " fill-opacity="1" fill-rule="nonzero"/><path fill="#31ac7d" d="M 14.210938 21.46875 L 9.136719 21.46875 L 9.136719 25.667969 L 14.210938 25.667969 Z M 13.867188 25.324219 L 9.480469 25.324219 L 9.480469 21.808594 L 13.867188 21.808594 Z M 13.867188 25.324219 " fill-opacity="1" fill-rule="nonzero"/><path fill="#31ac7d" d="M 20.570312 21.46875 L 15.496094 21.46875 L 15.496094 25.667969 L 20.570312 25.667969 Z M 20.230469 25.324219 L 15.839844 25.324219 L 15.839844 21.808594 L 20.230469 21.808594 Z M 20.230469 25.324219 " fill-opacity="1" fill-rule="nonzero"/><path fill="#31ac7d" d="M 26.929688 21.46875 L 21.855469 21.46875 L 21.855469 25.667969 L 26.929688 25.667969 Z M 26.589844 25.324219 L 22.199219 25.324219 L 22.199219 21.808594 L 26.589844 21.808594 Z M 26.589844 25.324219 " fill-opacity="1" fill-rule="nonzero"/><path fill="#31ac7d" d="M 2.78125 27.046875 L 6.648438 27.046875 L 6.648438 27.386719 L 2.78125 27.386719 Z M 2.78125 27.046875 " fill-opacity="1" fill-rule="nonzero"/><path fill="#31ac7d" d="M 9.136719 27.046875 L 11.917969 27.046875 L 11.917969 27.386719 L 9.136719 27.386719 Z M 9.136719 27.046875 " fill-opacity="1" fill-rule="nonzero"/><path fill="#31ac7d" d="M 15.496094 27.046875 L 19.042969 27.046875 L 19.042969 27.386719 L 15.496094 27.386719 Z M 15.496094 27.046875 " fill-opacity="1" fill-rule="nonzero"/><path fill="#31ac7d" d="M 21.855469 27.046875 L 25.355469 27.046875 L 25.355469 27.386719 L 21.855469 27.386719 Z M 21.855469 27.046875 " fill-opacity="1" fill-rule="nonzero"/></svg>