<svg xmlns="http://www.w3.org/2000/svg" xmlns:xlink="http://www.w3.org/1999/xlink" width="40" zoomAndPan="magnify" viewBox="0 0 30 30.000001" height="40" preserveAspectRatio="xMidYMid meet" version="1.0"><defs><clipPath id="0adaba4616"><path d="M 18 2 L 29.515625 2 L 29.515625 17 L 18 17 Z M 18 2 " clip-rule="nonzero"/></clipPath><clipPath id="090185f40b"><path d="M 12 17 L 27 17 L 27 29.03125 L 12 29.03125 Z M 12 17 " clip-rule="nonzero"/></clipPath><clipPath id="5851489acb"><path d="M 0.484375 12 L 12 12 L 12 27 L 0.484375 27 Z M 0.484375 12 " clip-rule="nonzero"/></clipPath></defs><g clip-path="url(#0adaba4616)"><path fill="#31ac7d" d="M 27.339844 12.121094 C 27.238281 11.582031 27.105469 11.050781 26.933594 10.539062 C 25.6875 6.792969 22.714844 3.816406 18.972656 2.574219 C 18.722656 2.492188 18.445312 2.628906 18.363281 2.878906 C 18.28125 3.128906 18.417969 3.40625 18.667969 3.488281 C 22.121094 4.636719 24.871094 7.378906 26.019531 10.839844 C 26.171875 11.289062 26.285156 11.742188 26.375 12.207031 C 25.394531 12.519531 24.675781 13.421875 24.675781 14.507812 C 24.675781 15.84375 25.761719 16.925781 27.097656 16.925781 C 28.433594 16.925781 29.515625 15.84375 29.515625 14.507812 C 29.515625 13.257812 28.558594 12.238281 27.339844 12.109375 Z M 27.339844 12.121094 " fill-opacity="1" fill-rule="nonzero"/></g><g clip-path="url(#090185f40b)"><path fill="#31ac7d" d="M 26.628906 17.878906 C 26.375 17.796875 26.101562 17.933594 26.019531 18.183594 C 24.871094 21.640625 22.128906 24.386719 18.667969 25.535156 C 18.21875 25.6875 17.761719 25.800781 17.296875 25.890625 C 16.988281 24.910156 16.082031 24.195312 15 24.195312 C 13.664062 24.195312 12.582031 25.277344 12.582031 26.613281 C 12.582031 27.949219 13.664062 29.03125 15 29.03125 C 16.25 29.03125 17.269531 28.074219 17.394531 26.855469 C 17.933594 26.753906 18.464844 26.621094 18.976562 26.449219 C 22.722656 25.203125 25.699219 22.230469 26.9375 18.488281 C 27.019531 18.238281 26.882812 17.960938 26.632812 17.878906 Z M 26.628906 17.878906 " fill-opacity="1" fill-rule="nonzero"/></g><path fill="#31ac7d" d="M 3.367188 11.152344 C 3.417969 11.167969 3.46875 11.175781 3.519531 11.175781 C 3.722656 11.175781 3.910156 11.046875 3.976562 10.84375 C 5.125 7.390625 7.867188 4.640625 11.328125 3.492188 C 11.78125 3.339844 12.230469 3.226562 12.695312 3.136719 C 13.007812 4.117188 13.910156 4.832031 14.996094 4.832031 C 16.332031 4.832031 17.414062 3.75 17.414062 2.414062 C 17.414062 1.078125 16.332031 -0.00390625 14.996094 -0.00390625 C 13.746094 -0.00390625 12.726562 0.953125 12.601562 2.167969 C 12.0625 2.269531 11.53125 2.398438 11.019531 2.574219 C 7.273438 3.816406 4.296875 6.792969 3.058594 10.535156 C 2.976562 10.785156 3.109375 11.0625 3.363281 11.144531 Z M 3.367188 11.152344 " fill-opacity="1" fill-rule="nonzero"/><g clip-path="url(#5851489acb)"><path fill="#31ac7d" d="M 11.328125 25.535156 C 7.871094 24.386719 5.125 21.644531 3.976562 18.183594 C 3.824219 17.730469 3.710938 17.273438 3.621094 16.816406 C 4.601562 16.503906 5.316406 15.601562 5.316406 14.515625 C 5.316406 13.179688 4.234375 12.097656 2.898438 12.097656 C 1.5625 12.097656 0.480469 13.179688 0.480469 14.515625 C 0.480469 15.765625 1.4375 16.785156 2.652344 16.910156 C 2.753906 17.449219 2.882812 17.980469 3.058594 18.492188 C 4.300781 22.238281 7.277344 25.214844 11.023438 26.453125 C 11.070312 26.46875 11.125 26.476562 11.171875 26.476562 C 11.375 26.476562 11.566406 26.347656 11.632812 26.144531 C 11.714844 25.890625 11.578125 25.617188 11.328125 25.535156 Z M 11.328125 25.535156 " fill-opacity="1" fill-rule="nonzero"/></g><path fill="#31ac7d" d="M 19.355469 10.160156 L 17.902344 10.160156 C 17.902344 8.558594 16.601562 7.257812 15 7.257812 C 13.398438 7.257812 12.097656 8.558594 12.097656 10.160156 L 10.644531 10.160156 C 10.113281 10.160156 9.675781 10.597656 9.675781 11.128906 L 9.675781 17.902344 C 9.675781 18.972656 10.542969 19.839844 11.613281 19.839844 L 18.386719 19.839844 C 19.457031 19.839844 20.324219 18.972656 20.324219 17.902344 L 20.324219 11.128906 C 20.324219 10.597656 19.886719 10.160156 19.355469 10.160156 Z M 15 8.226562 C 16.070312 8.226562 16.933594 9.09375 16.933594 10.160156 L 13.066406 10.160156 C 13.066406 9.09375 13.929688 8.226562 15 8.226562 Z M 19.355469 17.902344 C 19.355469 18.433594 18.917969 18.871094 18.386719 18.871094 L 11.613281 18.871094 C 11.082031 18.871094 10.644531 18.433594 10.644531 17.902344 L 10.644531 16.933594 L 19.355469 16.933594 Z M 19.355469 17.902344 " fill-opacity="1" fill-rule="nonzero"/></svg>