<svg xmlns="http://www.w3.org/2000/svg" xmlns:xlink="http://www.w3.org/1999/xlink" width="40" zoomAndPan="magnify" viewBox="0 0 30 30.000001" height="40" preserveAspectRatio="xMidYMid meet" version="1.0"><defs><clipPath id="f49666829b"><path d="M 0.484375 0.0546875 L 29.515625 0.0546875 L 29.515625 29 L 0.484375 29 Z M 0.484375 0.0546875 " clip-rule="nonzero"/></clipPath></defs><g clip-path="url(#f49666829b)"><path fill="#31ac7d" d="M 21.832031 14.347656 C 21.832031 14.605469 21.625 14.8125 21.367188 14.8125 L 16.859375 14.8125 C 16.601562 14.8125 16.390625 14.605469 16.390625 14.347656 C 16.390625 14.089844 16.601562 13.878906 16.859375 13.878906 L 21.367188 13.878906 C 21.625 13.878906 21.832031 14.089844 21.832031 14.347656 Z M 21.367188 16.980469 L 16.859375 16.980469 C 16.601562 16.980469 16.390625 17.191406 16.390625 17.449219 C 16.390625 17.707031 16.601562 17.914062 16.859375 17.914062 L 21.367188 17.914062 C 21.625 17.914062 21.832031 17.707031 21.832031 17.449219 C 21.832031 17.191406 21.625 16.980469 21.367188 16.980469 Z M 21.367188 18.53125 L 16.859375 18.53125 C 16.601562 18.53125 16.390625 18.742188 16.390625 19 C 16.390625 19.257812 16.601562 19.464844 16.859375 19.464844 L 21.367188 19.464844 C 21.625 19.464844 21.832031 19.257812 21.832031 19 C 21.832031 18.742188 21.625 18.53125 21.367188 18.53125 Z M 21.367188 15.429688 L 16.859375 15.429688 C 16.601562 15.429688 16.390625 15.640625 16.390625 15.898438 C 16.390625 16.15625 16.601562 16.363281 16.859375 16.363281 L 21.367188 16.363281 C 21.625 16.363281 21.832031 16.15625 21.832031 15.898438 C 21.832031 15.640625 21.625 15.429688 21.367188 15.429688 Z M 16.390625 12.796875 C 16.390625 13.054688 16.601562 13.261719 16.859375 13.261719 L 21.367188 13.261719 C 21.625 13.261719 21.832031 13.054688 21.832031 12.796875 C 21.832031 12.539062 21.625 12.328125 21.367188 12.328125 L 16.859375 12.328125 C 16.601562 12.328125 16.390625 12.539062 16.390625 12.796875 Z M 28.707031 6.105469 C 28.625 6.371094 28.519531 6.625 28.386719 6.871094 L 28.605469 7.363281 C 28.683594 7.539062 28.644531 7.746094 28.507812 7.882812 L 28.101562 8.289062 C 29.035156 10.238281 29.507812 12.332031 29.507812 14.515625 C 29.507812 18.375 28.003906 22.007812 25.273438 24.738281 C 22.539062 27.46875 18.910156 28.972656 15.046875 28.972656 C 13.332031 28.972656 11.65625 28.675781 10.058594 28.089844 C 10.039062 28.089844 10.019531 28.09375 10 28.089844 C 9.839844 28.085938 9.691406 28 9.609375 27.859375 L 8.765625 26.398438 L 8.289062 26.398438 L 8.050781 26.808594 L 8.894531 28.269531 C 8.976562 28.410156 8.976562 28.582031 8.902344 28.726562 C 8.824219 28.867188 8.679688 28.960938 8.515625 28.96875 C 8.472656 28.972656 8.425781 28.972656 8.382812 28.972656 C 7.519531 28.972656 6.730469 28.519531 6.292969 27.765625 C 5.953125 27.175781 5.882812 26.484375 6.078125 25.855469 C 3.804688 24.058594 2.148438 21.667969 1.273438 18.917969 C 1.136719 18.777344 1.011719 18.617188 0.910156 18.441406 C 0.554688 17.828125 0.496094 17.109375 0.71875 16.457031 C 0.632812 15.816406 0.589844 15.164062 0.589844 14.515625 C 0.589844 10.652344 2.09375 7.019531 4.824219 4.289062 C 7.554688 1.558594 11.183594 0.0546875 15.046875 0.0546875 C 17.230469 0.0546875 19.320312 0.527344 21.269531 1.460938 L 21.679688 1.050781 C 21.816406 0.914062 22.019531 0.875 22.195312 0.957031 L 22.691406 1.171875 C 22.933594 1.042969 23.191406 0.9375 23.457031 0.855469 L 23.648438 0.351562 C 23.71875 0.171875 23.894531 0.0546875 24.085938 0.0546875 L 25.265625 0.0546875 C 25.460938 0.0546875 25.632812 0.171875 25.703125 0.351562 L 25.894531 0.855469 C 26.160156 0.9375 26.417969 1.042969 26.664062 1.171875 L 27.15625 0.957031 C 27.332031 0.875 27.539062 0.914062 27.675781 1.050781 L 28.507812 1.886719 C 28.644531 2.023438 28.683594 2.230469 28.605469 2.40625 L 28.386719 2.898438 C 28.519531 3.144531 28.625 3.398438 28.707031 3.664062 L 29.207031 3.859375 C 29.386719 3.929688 29.507812 4.101562 29.507812 4.292969 L 29.507812 5.476562 C 29.507812 5.667969 29.386719 5.839844 29.207031 5.910156 Z M 5.625 24.21875 L 2.984375 19.648438 C 2.824219 19.648438 2.664062 19.632812 2.507812 19.597656 C 3.214844 21.34375 4.269531 22.910156 5.625 24.21875 Z M 9.859375 26.421875 C 9.839844 26.214844 9.773438 26.011719 9.664062 25.820312 C 9.367188 25.304688 8.789062 25.019531 8.195312 25.09375 C 8.011719 25.117188 7.828125 25.027344 7.734375 24.863281 L 4.144531 18.648438 C 4.050781 18.484375 4.066406 18.28125 4.179688 18.132812 C 4.539062 17.65625 4.582031 17.015625 4.28125 16.496094 C 4.171875 16.308594 4.027344 16.148438 3.855469 16.027344 L 4.277344 16.753906 C 4.359375 16.898438 4.359375 17.078125 4.277344 17.222656 L 3.769531 18.101562 C 3.683594 18.246094 3.53125 18.332031 3.363281 18.332031 L 2.347656 18.332031 C 2.183594 18.332031 2.027344 18.246094 1.945312 18.101562 L 1.527344 17.375 C 1.546875 17.582031 1.609375 17.789062 1.71875 17.976562 C 2.019531 18.492188 2.59375 18.78125 3.1875 18.703125 C 3.207031 18.703125 3.226562 18.703125 3.246094 18.703125 C 3.410156 18.703125 3.566406 18.789062 3.648438 18.933594 L 7.238281 25.148438 C 7.332031 25.3125 7.320312 25.515625 7.207031 25.664062 C 6.84375 26.140625 6.804688 26.78125 7.101562 27.300781 C 7.210938 27.488281 7.355469 27.648438 7.527344 27.769531 L 7.109375 27.042969 C 7.023438 26.898438 7.023438 26.722656 7.109375 26.578125 L 7.617188 25.699219 C 7.699219 25.554688 7.851562 25.464844 8.019531 25.464844 L 9.035156 25.464844 C 9.203125 25.464844 9.355469 25.554688 9.4375 25.699219 Z M 9.332031 8.351562 L 9.332031 8.574219 L 14.0625 8.574219 L 14.0625 8.351562 C 14.0625 7.519531 13.632812 6.769531 12.949219 6.347656 L 12.835938 7.226562 C 12.804688 7.460938 12.609375 7.632812 12.375 7.632812 L 11.019531 7.632812 C 10.785156 7.632812 10.589844 7.460938 10.558594 7.226562 L 10.445312 6.347656 C 9.761719 6.769531 9.332031 7.519531 9.332031 8.351562 Z M 11.429688 6.703125 L 11.964844 6.703125 L 12.101562 5.636719 C 12.054688 5.609375 11.929688 5.5625 11.699219 5.542969 C 11.464844 5.5625 11.339844 5.609375 11.292969 5.636719 Z M 9.726562 9.507812 C 9.914062 10.425781 10.726562 11.117188 11.695312 11.117188 C 11.695312 11.117188 11.695312 11.117188 11.699219 11.117188 C 12.667969 11.117188 13.480469 10.425781 13.667969 9.507812 Z M 14.492188 13.046875 C 13.972656 12.621094 13.367188 12.324219 12.722656 12.171875 L 13.339844 14.105469 C 13.386719 14.261719 13.351562 14.433594 13.242188 14.558594 L 12.417969 15.488281 L 14.492188 15.488281 Z M 11.027344 14.136719 L 11.699219 14.894531 L 12.367188 14.136719 L 11.707031 12.050781 C 11.703125 12.050781 11.699219 12.050781 11.699219 12.050781 C 11.695312 12.050781 11.695312 12.050781 11.695312 12.050781 C 11.695312 12.050781 11.691406 12.050781 11.6875 12.050781 Z M 10.054688 14.105469 L 10.671875 12.171875 C 9.5625 12.433594 8.589844 13.121094 7.964844 14.097656 L 8.3125 14.46875 C 8.382812 14.542969 8.425781 14.640625 8.433594 14.742188 L 8.503906 15.488281 L 10.976562 15.488281 L 10.152344 14.558594 C 10.042969 14.433594 10.007812 14.261719 10.054688 14.105469 Z M 6.507812 13.898438 L 6.007812 14.1875 L 6.441406 15.609375 L 7.195312 16.144531 C 7.25 16.183594 7.296875 16.234375 7.332031 16.289062 L 10.273438 21.382812 L 10.605469 21.191406 L 7.664062 16.097656 C 7.632812 16.039062 7.613281 15.976562 7.605469 15.90625 L 7.519531 14.988281 Z M 10.1875 22.511719 L 12.636719 26.757812 L 14.074219 25.925781 L 11.625 21.679688 Z M 28.574219 14.515625 C 28.574219 12.53125 28.15625 10.628906 27.335938 8.855469 C 27.273438 8.851562 27.214844 8.839844 27.15625 8.816406 L 26.664062 8.597656 C 26.417969 8.726562 26.160156 8.835938 25.894531 8.914062 L 25.703125 9.417969 C 25.632812 9.597656 25.460938 9.714844 25.265625 9.714844 L 24.085938 9.714844 C 23.894531 9.714844 23.71875 9.597656 23.648438 9.417969 L 23.457031 8.914062 C 23.191406 8.835938 22.933594 8.726562 22.691406 8.597656 L 22.199219 8.816406 C 22.019531 8.894531 21.816406 8.855469 21.679688 8.71875 L 20.84375 7.882812 C 20.707031 7.746094 20.667969 7.539062 20.746094 7.363281 L 20.964844 6.871094 C 20.832031 6.625 20.726562 6.371094 20.648438 6.105469 L 20.144531 5.910156 C 19.964844 5.839844 19.847656 5.667969 19.847656 5.476562 L 19.847656 4.292969 C 19.847656 4.101562 19.964844 3.929688 20.144531 3.859375 L 20.648438 3.664062 C 20.726562 3.398438 20.832031 3.144531 20.964844 2.898438 L 20.746094 2.40625 C 20.71875 2.347656 20.707031 2.285156 20.707031 2.226562 C 18.929688 1.402344 17.03125 0.988281 15.046875 0.988281 C 7.589844 0.988281 1.519531 7.054688 1.519531 14.515625 C 1.519531 14.929688 1.539062 15.34375 1.578125 15.753906 C 1.660156 15.796875 1.726562 15.859375 1.773438 15.9375 L 2.617188 17.402344 L 3.09375 17.402344 L 3.332031 16.988281 L 2.488281 15.527344 C 2.410156 15.386719 2.40625 15.214844 2.484375 15.070312 C 2.558594 14.929688 2.707031 14.835938 2.867188 14.828125 C 3.78125 14.777344 4.632812 15.238281 5.089844 16.03125 C 5.523438 16.78125 5.519531 17.691406 5.097656 18.429688 L 8.398438 24.148438 C 9.25 24.152344 10.039062 24.605469 10.472656 25.355469 C 10.824219 25.960938 10.886719 26.671875 10.675781 27.316406 C 11.15625 27.480469 11.644531 27.617188 12.140625 27.726562 C 12.113281 27.699219 12.085938 27.664062 12.0625 27.628906 L 9.347656 22.921875 C 9.230469 22.722656 9.199219 22.488281 9.261719 22.261719 C 9.300781 22.113281 9.375 21.984375 9.480469 21.878906 L 6.574219 16.847656 L 5.773438 16.277344 C 5.6875 16.21875 5.628906 16.132812 5.597656 16.035156 L 5.007812 14.105469 C 4.941406 13.898438 5.03125 13.671875 5.21875 13.566406 L 6.359375 12.90625 C 6.550781 12.796875 6.789062 12.832031 6.9375 12.992188 L 7.3125 13.394531 C 7.957031 12.480469 8.859375 11.800781 9.894531 11.429688 C 9.300781 10.96875 8.890625 10.285156 8.785156 9.507812 L 8.394531 9.507812 C 8.136719 9.507812 7.925781 9.296875 7.925781 9.039062 C 7.925781 8.78125 8.136719 8.574219 8.394531 8.574219 L 8.398438 8.574219 L 8.398438 8.351562 C 8.398438 7.015625 9.195312 5.832031 10.40625 5.316406 C 10.441406 5.226562 10.488281 5.140625 10.550781 5.0625 C 10.769531 4.796875 11.144531 4.644531 11.664062 4.609375 C 11.6875 4.605469 11.707031 4.605469 11.730469 4.609375 C 12.25 4.644531 12.625 4.796875 12.84375 5.0625 C 12.90625 5.140625 12.957031 5.226562 12.988281 5.316406 C 14.199219 5.832031 14.996094 7.015625 14.996094 8.351562 L 14.996094 8.574219 L 15 8.574219 C 15.257812 8.574219 15.46875 8.78125 15.46875 9.039062 C 15.46875 9.296875 15.257812 9.507812 15 9.507812 L 14.613281 9.507812 C 14.507812 10.285156 14.09375 10.96875 13.5 11.433594 C 13.847656 11.554688 14.179688 11.714844 14.492188 11.90625 L 14.492188 11.195312 C 14.492188 10.675781 14.917969 10.253906 15.4375 10.253906 L 16.808594 10.253906 L 16.808594 10.097656 C 16.808594 9.839844 17.015625 9.632812 17.273438 9.632812 L 18.015625 9.632812 C 18.242188 9.253906 18.652344 9.011719 19.113281 9.011719 C 19.574219 9.011719 19.984375 9.253906 20.210938 9.632812 L 20.949219 9.632812 C 21.207031 9.632812 21.417969 9.839844 21.417969 10.097656 L 21.417969 10.253906 L 22.789062 10.253906 C 23.308594 10.253906 23.730469 10.675781 23.730469 11.195312 L 23.730469 19.976562 C 23.730469 20.5 23.308594 20.921875 22.789062 20.921875 L 15.4375 20.921875 C 14.917969 20.921875 14.492188 20.5 14.492188 19.976562 L 14.492188 16.421875 L 8.929688 16.421875 L 11.429688 20.753906 C 11.574219 20.714844 11.726562 20.714844 11.871094 20.753906 C 12.097656 20.8125 12.285156 20.957031 12.398438 21.160156 L 15.117188 25.863281 C 15.179688 25.972656 15.195312 26.097656 15.164062 26.21875 C 15.132812 26.335938 15.054688 26.441406 14.945312 26.5 L 12.699219 27.796875 C 12.679688 27.808594 12.660156 27.820312 12.640625 27.828125 C 13.429688 27.96875 14.234375 28.039062 15.046875 28.039062 C 22.507812 28.039062 28.574219 21.972656 28.574219 14.515625 Z M 20.484375 10.566406 L 19.902344 10.566406 C 19.6875 10.566406 19.5 10.417969 19.449219 10.207031 C 19.410156 10.054688 19.273438 9.945312 19.113281 9.945312 C 18.953125 9.945312 18.816406 10.054688 18.777344 10.207031 C 18.726562 10.417969 18.539062 10.566406 18.324219 10.566406 L 17.742188 10.566406 L 17.742188 10.875 L 20.484375 10.875 Z M 16.808594 11.339844 L 16.808594 11.1875 L 15.4375 11.1875 C 15.433594 11.1875 15.425781 11.191406 15.425781 11.195312 L 15.425781 19.976562 C 15.425781 19.984375 15.433594 19.988281 15.4375 19.988281 L 22.789062 19.988281 C 22.792969 19.988281 22.796875 19.984375 22.796875 19.976562 L 22.796875 11.195312 C 22.796875 11.191406 22.792969 11.1875 22.789062 11.1875 L 21.417969 11.1875 L 21.417969 11.339844 C 21.417969 11.597656 21.207031 11.804688 20.949219 11.804688 L 17.273438 11.804688 C 17.015625 11.804688 16.808594 11.597656 16.808594 11.339844 Z M 28.574219 4.613281 L 28.148438 4.453125 C 28.007812 4.394531 27.898438 4.273438 27.863281 4.125 C 27.785156 3.785156 27.648438 3.464844 27.46875 3.167969 C 27.386719 3.039062 27.375 2.875 27.4375 2.734375 L 27.625 2.320312 L 27.242188 1.9375 L 26.824219 2.121094 C 26.683594 2.183594 26.523438 2.175781 26.390625 2.09375 C 26.09375 1.910156 25.773438 1.777344 25.4375 1.699219 C 25.289062 1.664062 25.164062 1.554688 25.109375 1.410156 L 24.945312 0.988281 L 24.40625 0.988281 L 24.242188 1.410156 C 24.1875 1.554688 24.066406 1.664062 23.914062 1.699219 C 23.578125 1.777344 23.257812 1.910156 22.960938 2.09375 C 22.832031 2.175781 22.667969 2.183594 22.527344 2.121094 L 22.113281 1.9375 L 21.730469 2.320312 L 21.914062 2.734375 C 21.976562 2.875 21.964844 3.039062 21.882812 3.167969 C 21.703125 3.464844 21.570312 3.785156 21.488281 4.125 C 21.453125 4.273438 21.347656 4.394531 21.203125 4.453125 L 20.777344 4.613281 L 20.777344 5.15625 L 21.203125 5.320312 C 21.347656 5.375 21.453125 5.496094 21.488281 5.644531 C 21.570312 5.984375 21.703125 6.304688 21.882812 6.601562 C 21.964844 6.730469 21.976562 6.894531 21.914062 7.035156 L 21.730469 7.449219 L 22.113281 7.832031 L 22.527344 7.648438 C 22.667969 7.585938 22.832031 7.597656 22.960938 7.675781 C 23.257812 7.859375 23.578125 7.992188 23.914062 8.070312 C 24.066406 8.109375 24.1875 8.214844 24.242188 8.359375 L 24.40625 8.78125 L 24.945312 8.78125 L 25.109375 8.359375 C 25.164062 8.214844 25.289062 8.109375 25.4375 8.074219 C 25.773438 7.992188 26.09375 7.859375 26.390625 7.675781 C 26.523438 7.597656 26.683594 7.585938 26.824219 7.648438 L 27.242188 7.832031 L 27.625 7.449219 L 27.4375 7.035156 C 27.375 6.894531 27.386719 6.730469 27.46875 6.601562 C 27.648438 6.304688 27.785156 5.984375 27.863281 5.644531 C 27.898438 5.496094 28.007812 5.375 28.148438 5.320312 L 28.574219 5.15625 Z M 27.203125 4.886719 C 27.203125 6.277344 26.070312 7.410156 24.675781 7.410156 C 23.28125 7.410156 22.148438 6.277344 22.148438 4.886719 C 22.148438 3.492188 23.28125 2.359375 24.675781 2.359375 C 26.070312 2.359375 27.203125 3.492188 27.203125 4.886719 Z M 26.269531 4.886719 C 26.269531 4.007812 25.554688 3.292969 24.675781 3.292969 C 23.796875 3.292969 23.082031 4.007812 23.082031 4.886719 C 23.082031 5.765625 23.796875 6.480469 24.675781 6.480469 C 25.554688 6.480469 26.269531 5.765625 26.269531 4.886719 Z M 26.269531 4.886719 " fill-opacity="1" fill-rule="nonzero"/></g></svg>