<svg xmlns="http://www.w3.org/2000/svg" xmlns:xlink="http://www.w3.org/1999/xlink" width="40" zoomAndPan="magnify" viewBox="0 0 30 30.000001" height="40" preserveAspectRatio="xMidYMid meet" version="1.0"><defs><clipPath id="11c9f771cf"><path d="M 19 14 L 26.613281 14 L 26.613281 22 L 19 22 Z M 19 14 " clip-rule="nonzero"/></clipPath><clipPath id="8b7791a577"><path d="M 3.386719 14 L 11 14 L 11 22 L 3.386719 22 Z M 3.386719 14 " clip-rule="nonzero"/></clipPath></defs><path fill="#31ac7d" d="M 10.664062 11.320312 L 19.21875 11.320312 C 19.382812 11.324219 19.527344 11.179688 19.519531 11.011719 C 19.507812 10.011719 19.386719 8.230469 18.738281 7.546875 C 17.628906 6.367188 15.90625 6.355469 15.832031 6.355469 L 14.046875 6.355469 C 13.972656 6.355469 12.25 6.367188 11.136719 7.546875 C 10.492188 8.230469 10.371094 10.011719 10.355469 11.011719 C 10.351562 11.179688 10.496094 11.324219 10.664062 11.320312 Z M 11.582031 7.960938 C 12.507812 6.980469 14.03125 6.960938 14.046875 6.960938 L 15.832031 6.960938 C 15.847656 6.960938 17.371094 6.980469 18.296875 7.964844 C 18.632812 8.316406 18.859375 9.355469 18.90625 10.714844 L 10.972656 10.714844 C 11.019531 9.355469 11.246094 8.316406 11.582031 7.960938 Z M 11.582031 7.960938 " fill-opacity="1" fill-rule="nonzero"/><path fill="#31ac7d" d="M 20.410156 10.410156 L 22.84375 10.410156 L 22.84375 12.410156 L 22.289062 11.855469 C 22.007812 11.578125 21.578125 12.003906 21.859375 12.285156 C 21.859375 12.285156 22.933594 13.359375 22.933594 13.359375 C 22.988281 13.417969 23.066406 13.449219 23.148438 13.449219 C 23.226562 13.449219 23.304688 13.417969 23.363281 13.359375 C 23.363281 13.359375 24.4375 12.285156 24.4375 12.285156 C 24.714844 12.003906 24.289062 11.574219 24.007812 11.855469 C 24.007812 11.855469 23.453125 12.410156 23.453125 12.410156 L 23.453125 10.105469 C 23.453125 9.9375 23.316406 9.800781 23.148438 9.800781 L 20.410156 9.800781 C 20.011719 9.808594 20.011719 10.402344 20.410156 10.410156 Z M 20.410156 10.410156 " fill-opacity="1" fill-rule="nonzero"/><path fill="#31ac7d" d="M 22.84375 22.265625 C 22.675781 22.265625 22.539062 22.402344 22.539062 22.570312 L 22.539062 24.089844 L 20.234375 24.089844 L 20.789062 23.535156 C 21.070312 23.253906 20.640625 22.824219 20.359375 23.105469 C 20.359375 23.105469 19.285156 24.179688 19.285156 24.179688 C 19.199219 24.261719 19.171875 24.398438 19.21875 24.511719 C 19.234375 24.546875 19.257812 24.582031 19.285156 24.609375 L 20.359375 25.683594 C 20.640625 25.964844 21.070312 25.535156 20.789062 25.253906 C 20.789062 25.253906 20.234375 24.699219 20.234375 24.699219 L 22.84375 24.699219 C 23.011719 24.699219 23.148438 24.5625 23.148438 24.394531 L 23.148438 22.570312 C 23.148438 22.402344 23.011719 22.265625 22.84375 22.265625 Z M 22.84375 22.265625 " fill-opacity="1" fill-rule="nonzero"/><path fill="#31ac7d" d="M 10.660156 24.277344 C 10.644531 24.242188 10.621094 24.207031 10.59375 24.179688 L 9.519531 23.105469 C 9.238281 22.824219 8.808594 23.25 9.089844 23.535156 C 9.089844 23.535156 9.644531 24.089844 9.644531 24.089844 L 7.339844 24.089844 L 7.339844 22.570312 C 7.332031 22.171875 6.738281 22.171875 6.730469 22.570312 C 6.730469 22.570312 6.730469 24.394531 6.730469 24.394531 C 6.730469 24.5625 6.867188 24.699219 7.035156 24.699219 L 9.644531 24.699219 L 9.089844 25.253906 C 8.808594 25.535156 9.238281 25.964844 9.519531 25.683594 C 9.519531 25.683594 10.59375 24.609375 10.59375 24.609375 C 10.679688 24.523438 10.707031 24.390625 10.660156 24.277344 Z M 10.660156 24.277344 " fill-opacity="1" fill-rule="nonzero"/><path fill="#31ac7d" d="M 18.867188 16.980469 C 18.851562 16.945312 18.832031 16.910156 18.800781 16.882812 L 17.726562 15.808594 C 17.445312 15.527344 17.019531 15.957031 17.296875 16.238281 C 17.296875 16.238281 17.851562 16.792969 17.851562 16.792969 L 12.023438 16.792969 L 12.582031 16.238281 C 12.859375 15.957031 12.433594 15.527344 12.152344 15.808594 C 12.152344 15.808594 11.078125 16.882812 11.078125 16.882812 C 10.992188 16.96875 10.964844 17.101562 11.011719 17.214844 C 11.027344 17.25 11.046875 17.285156 11.078125 17.3125 L 12.152344 18.386719 C 12.433594 18.667969 12.863281 18.238281 12.582031 17.957031 C 12.582031 17.957031 12.023438 17.402344 12.023438 17.402344 L 17.851562 17.402344 L 17.296875 17.957031 C 17.019531 18.238281 17.445312 18.667969 17.726562 18.386719 C 17.726562 18.386719 18.800781 17.3125 18.800781 17.3125 C 18.886719 17.226562 18.914062 17.09375 18.867188 16.980469 Z M 18.867188 16.980469 " fill-opacity="1" fill-rule="nonzero"/><path fill="#31ac7d" d="M 6.515625 13.359375 C 6.628906 13.476562 6.832031 13.476562 6.945312 13.359375 C 6.945312 13.359375 8.019531 12.285156 8.019531 12.285156 C 8.300781 12.003906 7.875 11.574219 7.589844 11.855469 C 7.589844 11.855469 7.035156 12.414062 7.035156 12.414062 L 7.035156 10.410156 L 9.46875 10.410156 C 9.867188 10.402344 9.867188 9.808594 9.46875 9.800781 C 9.46875 9.800781 6.730469 9.800781 6.730469 9.800781 C 6.5625 9.800781 6.425781 9.9375 6.425781 10.105469 L 6.425781 12.414062 L 5.871094 11.855469 C 5.589844 11.578125 5.160156 12.003906 5.441406 12.285156 C 5.441406 12.285156 6.515625 13.359375 6.515625 13.359375 Z M 6.515625 13.359375 " fill-opacity="1" fill-rule="nonzero"/><g clip-path="url(#11c9f771cf)"><path fill="#31ac7d" d="M 26.414062 18.628906 L 25.882812 18.324219 C 25.933594 18.011719 25.933594 17.691406 25.882812 17.378906 L 26.414062 17.074219 C 26.558594 16.992188 26.609375 16.804688 26.523438 16.660156 L 25.796875 15.402344 C 25.757812 15.332031 25.691406 15.28125 25.613281 15.261719 C 25.4375 15.1875 25.101562 15.472656 24.851562 15.597656 C 24.730469 15.492188 24.597656 15.402344 24.464844 15.324219 C 24.332031 15.246094 24.1875 15.179688 24.035156 15.125 L 24.035156 14.511719 C 24.035156 14.34375 23.898438 14.207031 23.730469 14.207031 L 22.28125 14.207031 C 22.113281 14.207031 21.976562 14.34375 21.976562 14.511719 L 21.976562 15.125 C 21.679688 15.234375 21.402344 15.394531 21.15625 15.59375 L 20.628906 15.289062 C 20.484375 15.207031 20.296875 15.253906 20.214844 15.402344 L 19.488281 16.660156 C 19.402344 16.804688 19.453125 16.988281 19.597656 17.074219 L 20.128906 17.378906 C 20.078125 17.691406 20.078125 18.011719 20.128906 18.324219 L 19.597656 18.628906 C 19.453125 18.710938 19.402344 18.898438 19.488281 19.042969 L 20.214844 20.300781 C 20.296875 20.445312 20.484375 20.496094 20.628906 20.414062 L 21.15625 20.105469 C 21.410156 20.3125 21.671875 20.464844 21.976562 20.578125 L 21.976562 21.191406 C 21.976562 21.359375 22.109375 21.496094 22.28125 21.496094 L 23.730469 21.496094 C 23.898438 21.496094 24.035156 21.359375 24.035156 21.191406 L 24.035156 20.578125 C 24.332031 20.46875 24.609375 20.308594 24.851562 20.105469 L 25.382812 20.414062 C 25.527344 20.496094 25.714844 20.445312 25.796875 20.300781 L 26.523438 19.042969 C 26.609375 18.898438 26.558594 18.714844 26.414062 18.628906 Z M 25.246094 17.300781 C 25.335938 17.660156 25.335938 18.042969 25.246094 18.40625 C 25.214844 18.535156 25.273438 18.671875 25.390625 18.742188 L 25.84375 19.003906 L 25.421875 19.734375 L 24.96875 19.472656 C 24.851562 19.40625 24.703125 19.421875 24.605469 19.515625 C 24.335938 19.773438 24.003906 19.964844 23.648438 20.070312 C 23.515625 20.105469 23.425781 20.226562 23.425781 20.359375 L 23.425781 20.886719 L 22.582031 20.886719 L 22.582031 20.359375 C 22.570312 19.992188 22.070312 20.035156 21.851562 19.851562 C 21.585938 19.753906 21.367188 19.300781 21.042969 19.472656 C 21.042969 19.472656 20.585938 19.734375 20.585938 19.734375 L 20.164062 19.003906 L 20.621094 18.742188 C 20.738281 18.671875 20.796875 18.535156 20.765625 18.40625 C 20.675781 18.042969 20.675781 17.660156 20.765625 17.300781 C 20.796875 17.167969 20.738281 17.03125 20.621094 16.960938 L 20.164062 16.699219 L 20.585938 15.96875 L 21.042969 16.230469 C 21.160156 16.300781 21.308594 16.28125 21.40625 16.1875 C 21.675781 15.929688 22.003906 15.738281 22.363281 15.636719 C 22.492188 15.597656 22.582031 15.476562 22.582031 15.34375 L 22.582031 14.816406 L 23.425781 14.816406 L 23.425781 15.34375 C 23.441406 15.710938 23.941406 15.671875 24.160156 15.851562 C 24.425781 15.949219 24.640625 16.402344 24.964844 16.234375 C 24.964844 16.234375 25.421875 15.96875 25.421875 15.96875 L 25.84375 16.699219 L 25.390625 16.964844 C 25.273438 17.03125 25.214844 17.167969 25.246094 17.300781 Z M 25.246094 17.300781 " fill-opacity="1" fill-rule="nonzero"/></g><path fill="#31ac7d" d="M 14.9375 21.050781 C 13.09375 21.050781 11.59375 22.550781 11.59375 24.394531 C 11.777344 28.832031 18.101562 28.828125 18.285156 24.394531 C 18.285156 22.550781 16.78125 21.050781 14.9375 21.050781 Z M 14.9375 27.128906 C 13.429688 27.128906 12.203125 25.902344 12.203125 24.394531 C 12.355469 20.765625 17.523438 20.765625 17.675781 24.394531 C 17.675781 25.902344 16.449219 27.128906 14.9375 27.128906 Z M 14.9375 27.128906 " fill-opacity="1" fill-rule="nonzero"/><path fill="#31ac7d" d="M 16.015625 23.316406 L 14.472656 24.863281 L 13.75 24.140625 C 13.46875 23.863281 13.039062 24.289062 13.320312 24.570312 C 13.320312 24.570312 14.257812 25.507812 14.257812 25.507812 C 14.316406 25.566406 14.394531 25.597656 14.472656 25.597656 C 14.550781 25.597656 14.625 25.566406 14.6875 25.507812 L 16.449219 23.746094 C 16.726562 23.464844 16.300781 23.035156 16.015625 23.316406 Z M 16.015625 23.316406 " fill-opacity="1" fill-rule="nonzero"/><g clip-path="url(#8b7791a577)"><path fill="#31ac7d" d="M 8.859375 21.050781 L 8.859375 20.136719 L 9.769531 20.136719 C 9.9375 20.136719 10.074219 20 10.074219 19.832031 L 10.074219 14.363281 C 10.074219 14.195312 9.9375 14.058594 9.769531 14.058594 L 4.90625 14.058594 C 4.738281 14.058594 4.601562 14.195312 4.601562 14.363281 L 4.601562 15.273438 L 3.691406 15.273438 C 3.523438 15.273438 3.386719 15.410156 3.386719 15.578125 L 3.386719 21.050781 C 3.386719 21.21875 3.523438 21.355469 3.691406 21.355469 L 8.554688 21.355469 C 8.722656 21.355469 8.859375 21.21875 8.859375 21.050781 Z M 5.210938 14.664062 L 9.46875 14.664062 L 9.46875 19.53125 L 5.210938 19.53125 Z M 3.996094 20.746094 L 3.996094 15.882812 L 4.601562 15.882812 L 4.601562 19.832031 C 4.601562 20 4.738281 20.136719 4.90625 20.136719 L 8.25 20.136719 L 8.25 20.746094 Z M 3.996094 20.746094 " fill-opacity="1" fill-rule="nonzero"/></g><path fill="#31ac7d" d="M 6.125 16.1875 L 8.554688 16.1875 C 8.953125 16.179688 8.957031 15.585938 8.554688 15.578125 C 8.554688 15.578125 6.125 15.578125 6.125 15.578125 C 5.722656 15.585938 5.722656 16.179688 6.125 16.1875 Z M 6.125 16.1875 " fill-opacity="1" fill-rule="nonzero"/><path fill="#31ac7d" d="M 6.125 17.402344 L 8.554688 17.402344 C 8.953125 17.394531 8.957031 16.800781 8.554688 16.792969 C 8.554688 16.792969 6.125 16.792969 6.125 16.792969 C 5.722656 16.800781 5.722656 17.394531 6.125 17.402344 Z M 6.125 17.402344 " fill-opacity="1" fill-rule="nonzero"/><path fill="#31ac7d" d="M 6.125 18.617188 L 7.644531 18.617188 C 8.042969 18.609375 8.042969 18.015625 7.644531 18.011719 C 7.644531 18.011719 6.125 18.011719 6.125 18.011719 C 5.722656 18.015625 5.722656 18.609375 6.125 18.617188 Z M 6.125 18.617188 " fill-opacity="1" fill-rule="nonzero"/><path fill="#31ac7d" d="M 14.9375 5.851562 C 16.28125 5.851562 17.371094 4.757812 17.371094 3.417969 C 17.238281 0.191406 12.640625 0.191406 12.507812 3.417969 C 12.507812 4.757812 13.597656 5.851562 14.9375 5.851562 Z M 14.9375 1.59375 C 15.945312 1.59375 16.761719 2.410156 16.761719 3.417969 C 16.679688 5.832031 13.199219 5.832031 13.113281 3.417969 C 13.113281 2.414062 13.933594 1.59375 14.9375 1.59375 Z M 14.9375 1.59375 " fill-opacity="1" fill-rule="nonzero"/><path fill="#31ac7d" d="M 23.003906 16.492188 C 21.210938 16.550781 21.210938 19.152344 23.003906 19.210938 C 24.800781 19.152344 24.800781 16.550781 23.003906 16.492188 Z M 23.003906 18.601562 C 22.015625 18.574219 22.015625 17.128906 23.003906 17.101562 C 23.996094 17.128906 23.992188 18.574219 23.003906 18.601562 Z M 23.003906 18.601562 " fill-opacity="1" fill-rule="nonzero"/></svg>