<svg xmlns="http://www.w3.org/2000/svg" xmlns:xlink="http://www.w3.org/1999/xlink" width="40" zoomAndPan="magnify" viewBox="0 0 30 30.000001" height="40" preserveAspectRatio="xMidYMid meet" version="1.0"><defs><clipPath id="78d6d7cce1"><path d="M 7 8 L 29.515625 8 L 29.515625 24 L 7 24 Z M 7 8 " clip-rule="nonzero"/></clipPath><clipPath id="d6b8692ec4"><path d="M 0.484375 13 L 9 13 L 9 26 L 0.484375 26 Z M 0.484375 13 " clip-rule="nonzero"/></clipPath><clipPath id="aba404c5aa"><path d="M 8 22 L 13 22 L 13 27.691406 L 8 27.691406 Z M 8 22 " clip-rule="nonzero"/></clipPath><clipPath id="084c65af05"><path d="M 22 22 L 27 22 L 27 27.691406 L 22 27.691406 Z M 22 22 " clip-rule="nonzero"/></clipPath><clipPath id="7e90fcc83b"><path d="M 15 1.558594 L 25 1.558594 L 25 11 L 15 11 Z M 15 1.558594 " clip-rule="nonzero"/></clipPath></defs><g clip-path="url(#78d6d7cce1)"><path fill="#31ac7d" d="M 28.730469 8.445312 L 22.980469 8.445312 C 22.648438 8.445312 22.3125 8.636719 22.117188 8.933594 L 18.300781 17.410156 C 18.203125 17.558594 17.964844 17.519531 17.914062 17.347656 L 16.96875 8.933594 C 16.882812 8.636719 16.617188 8.445312 16.285156 8.445312 L 11.351562 8.445312 C 10.882812 8.445312 10.429688 8.820312 10.351562 9.285156 L 7.929688 22.683594 C 7.847656 23.136719 8.148438 23.507812 8.601562 23.519531 C 8.953125 23.007812 9.429688 22.644531 9.945312 22.484375 C 10.542969 22.296875 11.125 22.390625 11.589844 22.753906 C 11.828125 22.933594 12.011719 23.171875 12.152344 23.457031 C 12.480469 23.328125 12.746094 23.03125 12.8125 22.683594 L 13.773438 17.351562 L 14.917969 23.03125 C 15.003906 23.328125 15.273438 23.519531 15.601562 23.519531 L 19.019531 23.519531 C 19.347656 23.519531 19.683594 23.328125 19.882812 23.03125 L 23.195312 17.324219 L 22.324219 22.683594 C 22.261719 23.03125 22.421875 23.328125 22.707031 23.457031 C 23.054688 22.980469 23.511719 22.644531 24.003906 22.488281 C 24.601562 22.304688 25.1875 22.394531 25.648438 22.761719 C 25.890625 22.953125 26.089844 23.199219 26.226562 23.496094 C 26.609375 23.402344 26.941406 23.074219 27.011719 22.683594 L 29.429688 9.285156 C 29.511719 8.816406 29.199219 8.445312 28.730469 8.445312 Z M 16.199219 10.195312 C 16 10.640625 15.527344 10.867188 15.140625 10.699219 C 14.75 10.53125 14.601562 10.027344 14.796875 9.574219 C 14.996094 9.128906 15.46875 8.902344 15.855469 9.070312 C 16.246094 9.246094 16.394531 9.75 16.199219 10.195312 Z M 24.046875 10.195312 C 23.847656 10.640625 23.375 10.867188 22.984375 10.699219 C 22.597656 10.53125 22.445312 10.027344 22.644531 9.574219 C 22.839844 9.128906 23.316406 8.902344 23.703125 9.070312 C 24.089844 9.246094 24.242188 9.75 24.046875 10.195312 Z M 24.046875 10.195312 " fill-opacity="1" fill-rule="nonzero"/></g><g clip-path="url(#d6b8692ec4)"><path fill="#31ac7d" d="M 8.28125 14.089844 C 8.582031 14.449219 8.707031 14.917969 8.625 15.378906 L 7.285156 22.765625 C 7.230469 23.089844 7.316406 23.425781 7.53125 23.679688 C 7.722656 23.914062 8 24.050781 8.289062 24.074219 C 8.070312 24.566406 7.96875 25.105469 8.011719 25.628906 C 8.011719 25.648438 8.015625 25.667969 8.015625 25.691406 C 7.339844 25.597656 6.714844 25.261719 6.273438 24.730469 C 5.753906 24.105469 5.53125 23.28125 5.675781 22.484375 L 6.996094 15.164062 L 1.304688 15.164062 C 0.851562 15.164062 0.488281 14.796875 0.488281 14.347656 C 0.488281 13.894531 0.851562 13.53125 1.304688 13.53125 L 7.078125 13.53125 C 7.546875 13.523438 7.988281 13.734375 8.28125 14.089844 Z M 8.28125 14.089844 " fill-opacity="1" fill-rule="nonzero"/></g><path fill="#31ac7d" d="M 22.335938 24.082031 C 22.117188 24.574219 22.023438 25.105469 22.066406 25.628906 C 22.066406 25.65625 22.070312 25.683594 22.070312 25.714844 L 12.21875 25.714844 C 12.375 25.285156 12.441406 24.828125 12.40625 24.386719 C 12.398438 24.285156 12.382812 24.179688 12.363281 24.082031 Z M 22.335938 24.082031 " fill-opacity="1" fill-rule="nonzero"/><path fill="#31ac7d" d="M 28.53125 24.898438 C 28.53125 25.347656 28.167969 25.714844 27.714844 25.714844 L 26.269531 25.714844 C 26.425781 25.285156 26.488281 24.828125 26.453125 24.386719 C 26.449219 24.285156 26.429688 24.179688 26.414062 24.082031 L 27.714844 24.082031 C 28.167969 24.082031 28.53125 24.445312 28.53125 24.898438 Z M 28.53125 24.898438 " fill-opacity="1" fill-rule="nonzero"/><g clip-path="url(#aba404c5aa)"><path fill="#31ac7d" d="M 11.363281 23.144531 C 10.605469 22.550781 9.46875 22.90625 8.839844 23.9375 C 8.203125 24.96875 8.304688 26.28125 9.0625 26.871094 C 9.824219 27.460938 10.957031 27.109375 11.589844 26.078125 C 12.226562 25.046875 12.121094 23.734375 11.363281 23.144531 Z M 11.363281 23.144531 " fill-opacity="1" fill-rule="nonzero"/></g><g clip-path="url(#084c65af05)"><path fill="#31ac7d" d="M 25.410156 23.144531 C 24.652344 22.550781 23.519531 22.90625 22.886719 23.9375 C 22.25 24.96875 22.355469 26.28125 23.113281 26.871094 C 23.871094 27.460938 25.007812 27.109375 25.636719 26.078125 C 26.273438 25.046875 26.171875 23.734375 25.410156 23.144531 Z M 25.410156 23.144531 " fill-opacity="1" fill-rule="nonzero"/></g><g clip-path="url(#7e90fcc83b)"><path fill="#31ac7d" d="M 23.34375 10.195312 C 23.320312 10.195312 23.296875 10.195312 23.269531 10.1875 C 23.050781 10.148438 22.898438 9.933594 22.9375 9.714844 L 23.535156 6.453125 C 23.722656 5.445312 23.449219 4.410156 22.789062 3.621094 C 22.128906 2.835938 21.167969 2.382812 20.136719 2.382812 C 18.46875 2.382812 17.042969 3.574219 16.742188 5.214844 L 15.890625 9.863281 C 15.851562 10.085938 15.636719 10.234375 15.417969 10.195312 C 15.195312 10.152344 15.046875 9.941406 15.085938 9.71875 L 15.949219 5.058594 C 16.320312 3.03125 18.085938 1.558594 20.148438 1.558594 C 21.417969 1.558594 22.613281 2.121094 23.425781 3.09375 C 24.234375 4.066406 24.570312 5.347656 24.347656 6.59375 L 23.75 9.851562 C 23.710938 10.054688 23.542969 10.195312 23.34375 10.195312 Z M 23.34375 10.195312 " fill-opacity="1" fill-rule="nonzero"/></g></svg>