<svg xmlns="http://www.w3.org/2000/svg" xmlns:xlink="http://www.w3.org/1999/xlink" width="40" zoomAndPan="magnify" viewBox="0 0 30 30.000001" height="40" preserveAspectRatio="xMidYMid meet" version="1.0"><defs><clipPath id="7516232c88"><path d="M 0.484375 11 L 29.515625 11 L 29.515625 29 L 0.484375 29 Z M 0.484375 11 " clip-rule="nonzero"/></clipPath><clipPath id="9580cdd4f2"><path d="M 19 0 L 29.515625 0 L 29.515625 10 L 19 10 Z M 19 0 " clip-rule="nonzero"/></clipPath><clipPath id="8ec908dad2"><path d="M 0.484375 5 L 20 5 L 20 19 L 0.484375 19 Z M 0.484375 5 " clip-rule="nonzero"/></clipPath></defs><g clip-path="url(#7516232c88)"><path fill="#31ac7d" d="M 28.554688 27.976562 L 1.636719 27.976562 L 1.636719 27.011719 L 28.554688 27.011719 Z M 5.003906 22.6875 L 5.003906 26.050781 L 2.117188 26.050781 L 2.117188 22.6875 Z M 7.886719 19.324219 L 10.769531 19.324219 L 10.769531 26.050781 L 7.886719 26.050781 Z M 13.652344 16.917969 L 16.539062 16.917969 L 16.539062 26.050781 L 13.652344 26.050781 Z M 19.421875 15.476562 L 22.304688 15.476562 L 22.304688 26.050781 L 19.421875 26.050781 Z M 25.191406 12.113281 L 28.074219 12.113281 L 28.074219 26.050781 L 25.191406 26.050781 Z M 29.035156 26.183594 L 29.035156 12.113281 C 29.035156 11.582031 28.605469 11.152344 28.074219 11.152344 L 25.191406 11.152344 C 24.660156 11.152344 24.230469 11.582031 24.230469 12.113281 L 24.230469 26.050781 L 23.265625 26.050781 L 23.265625 15.476562 C 23.265625 14.949219 22.835938 14.515625 22.304688 14.515625 L 19.421875 14.515625 C 18.894531 14.515625 18.460938 14.949219 18.460938 15.476562 L 18.460938 26.050781 L 17.5 26.050781 L 17.5 16.917969 C 17.5 16.390625 17.066406 15.957031 16.539062 15.957031 L 13.652344 15.957031 C 13.125 15.957031 12.691406 16.390625 12.691406 16.917969 L 12.691406 26.050781 L 11.730469 26.050781 L 11.730469 19.324219 C 11.730469 18.792969 11.300781 18.363281 10.769531 18.363281 L 7.886719 18.363281 C 7.355469 18.363281 6.925781 18.792969 6.925781 19.324219 L 6.925781 26.050781 L 5.964844 26.050781 L 5.964844 22.6875 C 5.964844 22.15625 5.53125 21.726562 5.003906 21.726562 L 2.117188 21.726562 C 1.589844 21.726562 1.15625 22.15625 1.15625 22.6875 L 1.15625 26.183594 C 0.871094 26.351562 0.675781 26.660156 0.675781 27.011719 L 0.675781 27.976562 C 0.675781 28.503906 1.109375 28.9375 1.636719 28.9375 L 28.554688 28.9375 C 29.085938 28.9375 29.515625 28.503906 29.515625 27.976562 L 29.515625 27.011719 C 29.515625 26.660156 29.320312 26.351562 29.035156 26.183594 " fill-opacity="1" fill-rule="nonzero"/></g><g clip-path="url(#9580cdd4f2)"><path fill="#31ac7d" d="M 24.710938 8.75 C 22.589844 8.75 20.863281 7.023438 20.863281 4.902344 C 20.863281 2.78125 22.589844 1.058594 24.710938 1.058594 C 26.828125 1.058594 28.554688 2.78125 28.554688 4.902344 C 28.554688 7.023438 26.828125 8.75 24.710938 8.75 Z M 24.710938 0.0976562 C 22.058594 0.0976562 19.902344 2.25 19.902344 4.902344 C 19.902344 7.554688 22.058594 9.710938 24.710938 9.710938 C 27.359375 9.710938 29.515625 7.554688 29.515625 4.902344 C 29.515625 2.25 27.359375 0.0976562 24.710938 0.0976562 " fill-opacity="1" fill-rule="nonzero"/></g><g clip-path="url(#8ec908dad2)"><path fill="#31ac7d" d="M 1.871094 16.507812 C 1.871094 16.507812 15.382812 8.546875 15.398438 8.539062 C 15.757812 8.324219 15.679688 7.761719 15.273438 7.65625 L 14.316406 7.414062 C 14.0625 7.347656 13.882812 7.121094 13.902344 6.894531 C 13.925781 6.601562 14.21875 6.394531 14.5 6.46875 L 17.757812 7.304688 C 18.015625 7.375 18.167969 7.632812 18.101562 7.890625 L 17.28125 11.09375 C 17.214844 11.347656 16.996094 11.527344 16.761719 11.507812 C 16.480469 11.488281 16.257812 11.199219 16.328125 10.914062 L 16.59375 9.898438 C 16.644531 9.710938 16.574219 9.511719 16.417969 9.394531 C 16.265625 9.277344 16.050781 9.265625 15.886719 9.363281 C 15.886719 9.363281 2.367188 17.328125 2.359375 17.332031 C 2.132812 17.464844 1.839844 17.390625 1.703125 17.164062 C 1.570312 16.941406 1.648438 16.636719 1.871094 16.507812 Z M 0.878906 17.652344 C 1.277344 18.324219 2.171875 18.558594 2.847656 18.160156 L 15.375 10.777344 C 15.308594 11.15625 15.398438 11.542969 15.621094 11.859375 C 15.867188 12.207031 16.253906 12.429688 16.675781 12.464844 C 17.371094 12.535156 18.023438 12.042969 18.210938 11.332031 L 19.03125 8.132812 C 19.234375 7.367188 18.769531 6.578125 18 6.375 L 14.742188 5.539062 C 14.328125 5.429688 13.894531 5.511719 13.542969 5.757812 C 13.195312 6.003906 12.976562 6.390625 12.945312 6.808594 C 12.886719 7.449219 13.296875 8.058594 13.917969 8.292969 C 13.917969 8.292969 1.386719 15.675781 1.386719 15.679688 C 0.710938 16.074219 0.476562 16.980469 0.878906 17.652344 " fill-opacity="1" fill-rule="nonzero"/></g><path fill="#31ac7d" d="M 24.710938 4.421875 C 24.445312 4.421875 24.230469 4.207031 24.230469 3.941406 C 24.230469 3.675781 24.445312 3.460938 24.710938 3.460938 C 24.878906 3.460938 25.039062 3.554688 25.125 3.699219 C 25.257812 3.929688 25.550781 4.011719 25.785156 3.875 C 26.011719 3.746094 26.089844 3.449219 25.957031 3.21875 C 25.785156 2.921875 25.507812 2.707031 25.191406 2.59375 L 25.191406 2.5 C 25.191406 2.234375 24.972656 2.019531 24.710938 2.019531 C 24.445312 2.019531 24.230469 2.234375 24.230469 2.5 L 24.230469 2.585938 C 23.671875 2.785156 23.265625 3.316406 23.265625 3.941406 C 23.265625 4.738281 23.914062 5.382812 24.710938 5.382812 C 24.972656 5.382812 25.191406 5.597656 25.191406 5.863281 C 25.191406 6.128906 24.972656 6.34375 24.710938 6.34375 C 24.539062 6.34375 24.378906 6.253906 24.292969 6.105469 C 24.160156 5.875 23.867188 5.792969 23.636719 5.929688 C 23.40625 6.0625 23.328125 6.355469 23.460938 6.585938 C 23.632812 6.886719 23.910156 7.097656 24.230469 7.210938 L 24.230469 7.304688 C 24.230469 7.570312 24.445312 7.785156 24.710938 7.785156 C 24.972656 7.785156 25.191406 7.570312 25.191406 7.304688 L 25.191406 7.21875 C 25.746094 7.019531 26.152344 6.488281 26.152344 5.863281 C 26.152344 5.066406 25.503906 4.421875 24.710938 4.421875 " fill-opacity="1" fill-rule="nonzero"/></svg>