<svg xmlns="http://www.w3.org/2000/svg" xmlns:xlink="http://www.w3.org/1999/xlink" width="40" zoomAndPan="magnify" viewBox="0 0 30 30.000001" height="40" preserveAspectRatio="xMidYMid meet" version="1.0"><defs><clipPath id="849d38156c"><path d="M 20 2.285156 L 29.515625 2.285156 L 29.515625 9 L 20 9 Z M 20 2.285156 " clip-rule="nonzero"/></clipPath><clipPath id="b833aeb91a"><path d="M 20 20 L 29.515625 20 L 29.515625 26.964844 L 20 26.964844 Z M 20 20 " clip-rule="nonzero"/></clipPath><clipPath id="7709dea828"><path d="M 0.484375 2.285156 L 10 2.285156 L 10 9 L 0.484375 9 Z M 0.484375 2.285156 " clip-rule="nonzero"/></clipPath><clipPath id="f6a24adefa"><path d="M 0.484375 20 L 10 20 L 10 26.964844 L 0.484375 26.964844 Z M 0.484375 20 " clip-rule="nonzero"/></clipPath></defs><path fill="#31ac7d" d="M 15 12.808594 C 15.9375 12.808594 16.699219 13.570312 16.699219 14.507812 C 16.699219 14.703125 16.859375 14.863281 17.054688 14.863281 C 17.25 14.863281 17.40625 14.703125 17.40625 14.507812 C 17.40625 13.179688 16.328125 12.101562 15 12.101562 C 13.671875 12.101562 12.59375 13.179688 12.59375 14.507812 C 12.59375 15.835938 13.671875 16.917969 15 16.917969 C 15.476562 16.917969 15.9375 16.777344 16.332031 16.515625 C 16.496094 16.40625 16.539062 16.1875 16.429688 16.023438 C 16.324219 15.863281 16.101562 15.816406 15.941406 15.925781 C 15.660156 16.109375 15.335938 16.207031 15 16.207031 C 14.0625 16.207031 13.300781 15.445312 13.300781 14.507812 C 13.300781 13.570312 14.0625 12.808594 15 12.808594 Z M 15 12.808594 " fill-opacity="1" fill-rule="nonzero"/><path fill="#31ac7d" d="M 19.835938 15.84375 L 19.285156 15.445312 C 19.351562 15.136719 19.386719 14.824219 19.386719 14.507812 C 19.386719 14.195312 19.351562 13.878906 19.285156 13.574219 L 19.835938 13.175781 C 20.085938 12.996094 20.160156 12.65625 20.003906 12.390625 L 19.335938 11.234375 C 19.183594 10.964844 18.855469 10.859375 18.574219 10.988281 L 17.953125 11.265625 C 17.484375 10.839844 16.933594 10.519531 16.332031 10.328125 L 16.261719 9.652344 C 16.230469 9.347656 15.976562 9.113281 15.667969 9.113281 L 14.332031 9.113281 C 14.023438 9.113281 13.769531 9.347656 13.738281 9.652344 L 13.667969 10.328125 C 13.066406 10.519531 12.515625 10.839844 12.046875 11.265625 L 11.425781 10.988281 C 11.144531 10.859375 10.816406 10.964844 10.664062 11.234375 L 9.996094 12.390625 C 9.839844 12.65625 9.914062 12.996094 10.164062 13.175781 L 10.90625 13.710938 C 11.066406 13.828125 11.289062 13.792969 11.402344 13.632812 C 11.515625 13.472656 11.480469 13.253906 11.320312 13.136719 L 10.65625 12.660156 L 11.226562 11.671875 L 11.976562 12.007812 C 12.109375 12.070312 12.269531 12.039062 12.371094 11.933594 C 12.84375 11.453125 13.4375 11.109375 14.082031 10.945312 C 14.226562 10.90625 14.332031 10.785156 14.347656 10.636719 L 14.429688 9.824219 L 15.570312 9.824219 L 15.652344 10.636719 C 15.667969 10.785156 15.773438 10.90625 15.917969 10.945312 C 16.5625 11.109375 17.15625 11.453125 17.628906 11.933594 C 17.730469 12.039062 17.890625 12.070312 18.023438 12.007812 L 18.773438 11.671875 L 19.34375 12.660156 L 18.679688 13.136719 C 18.558594 13.226562 18.503906 13.378906 18.542969 13.519531 C 18.632812 13.84375 18.679688 14.175781 18.679688 14.507812 C 18.679688 14.839844 18.632812 15.175781 18.542969 15.496094 C 18.503906 15.640625 18.558594 15.792969 18.679688 15.878906 L 19.34375 16.359375 L 18.773438 17.34375 L 18.023438 17.007812 C 17.890625 16.949219 17.730469 16.976562 17.628906 17.082031 C 17.15625 17.566406 16.5625 17.90625 15.917969 18.074219 C 15.773438 18.109375 15.667969 18.230469 15.652344 18.378906 L 15.570312 19.195312 L 14.429688 19.195312 L 14.347656 18.378906 C 14.332031 18.230469 14.226562 18.109375 14.082031 18.074219 C 13.4375 17.90625 12.84375 17.566406 12.371094 17.082031 C 12.269531 16.976562 12.109375 16.949219 11.976562 17.007812 L 11.226562 17.34375 L 10.65625 16.359375 L 11.320312 15.878906 C 11.480469 15.765625 11.515625 15.542969 11.402344 15.382812 C 11.289062 15.226562 11.066406 15.191406 10.90625 15.304688 L 10.164062 15.84375 C 9.914062 16.023438 9.839844 16.359375 9.996094 16.628906 L 10.664062 17.785156 C 10.816406 18.050781 11.144531 18.15625 11.425781 18.03125 L 12.046875 17.753906 C 12.515625 18.179688 13.066406 18.5 13.667969 18.691406 L 13.738281 19.363281 C 13.769531 19.671875 14.023438 19.902344 14.332031 19.902344 L 15.667969 19.902344 C 15.976562 19.902344 16.230469 19.671875 16.261719 19.363281 L 16.332031 18.691406 C 16.933594 18.5 17.484375 18.179688 17.953125 17.753906 L 18.574219 18.03125 C 18.855469 18.15625 19.183594 18.050781 19.335938 17.785156 L 20.003906 16.628906 C 20.160156 16.359375 20.085938 16.023438 19.835938 15.84375 Z M 19.835938 15.84375 " fill-opacity="1" fill-rule="nonzero"/><g clip-path="url(#849d38156c)"><path fill="#31ac7d" d="M 28.207031 2.285156 L 21.867188 2.285156 C 21.144531 2.285156 20.558594 2.871094 20.558594 3.59375 L 20.558594 4.726562 C 20.558594 4.921875 20.714844 5.078125 20.910156 5.078125 C 21.105469 5.078125 21.265625 4.921875 21.265625 4.726562 L 21.265625 3.59375 C 21.265625 3.261719 21.535156 2.992188 21.867188 2.992188 L 28.207031 2.992188 C 28.539062 2.992188 28.808594 3.261719 28.808594 3.59375 L 28.808594 7.550781 C 28.808594 7.882812 28.539062 8.152344 28.207031 8.152344 L 27.699219 8.152344 L 27.460938 7.128906 C 27.328125 6.558594 26.820312 6.152344 26.234375 6.152344 L 23.839844 6.152344 C 23.253906 6.152344 22.746094 6.558594 22.613281 7.128906 L 22.375 8.152344 L 21.867188 8.152344 C 21.535156 8.152344 21.265625 7.882812 21.265625 7.550781 L 21.265625 6.554688 C 21.265625 6.359375 21.105469 6.203125 20.910156 6.203125 C 20.714844 6.203125 20.558594 6.359375 20.558594 6.554688 L 20.558594 7.550781 C 20.558594 8.273438 21.144531 8.863281 21.867188 8.863281 L 28.207031 8.863281 C 28.929688 8.863281 29.515625 8.273438 29.515625 7.550781 L 29.515625 3.59375 C 29.515625 2.871094 28.929688 2.285156 28.207031 2.285156 Z M 28.207031 2.285156 " fill-opacity="1" fill-rule="nonzero"/></g><g clip-path="url(#b833aeb91a)"><path fill="#31ac7d" d="M 28.207031 20.15625 L 21.867188 20.15625 C 21.144531 20.15625 20.558594 20.742188 20.558594 21.464844 L 20.558594 25.421875 C 20.558594 26.144531 21.144531 26.730469 21.867188 26.730469 L 28.207031 26.730469 C 28.929688 26.730469 29.515625 26.144531 29.515625 25.421875 L 29.515625 21.464844 C 29.515625 20.742188 28.929688 20.15625 28.207031 20.15625 Z M 28.808594 25.421875 C 28.808594 25.753906 28.539062 26.023438 28.207031 26.023438 L 27.699219 26.023438 L 27.460938 25 C 27.328125 24.429688 26.820312 24.023438 26.234375 24.023438 L 23.839844 24.023438 C 23.253906 24.023438 22.746094 24.429688 22.613281 25 L 22.375 26.023438 L 21.867188 26.023438 C 21.535156 26.023438 21.265625 25.753906 21.265625 25.421875 L 21.265625 21.464844 C 21.265625 21.132812 21.535156 20.863281 21.867188 20.863281 L 28.207031 20.863281 C 28.539062 20.863281 28.808594 21.132812 28.808594 21.464844 Z M 28.808594 25.421875 " fill-opacity="1" fill-rule="nonzero"/></g><g clip-path="url(#7709dea828)"><path fill="#31ac7d" d="M 8.132812 2.285156 L 1.792969 2.285156 C 1.070312 2.285156 0.484375 2.871094 0.484375 3.59375 L 0.484375 7.550781 C 0.484375 8.273438 1.070312 8.863281 1.792969 8.863281 L 8.132812 8.863281 C 8.855469 8.863281 9.441406 8.273438 9.441406 7.550781 L 9.441406 3.59375 C 9.441406 2.871094 8.855469 2.285156 8.132812 2.285156 Z M 8.734375 7.550781 C 8.734375 7.882812 8.464844 8.152344 8.132812 8.152344 L 7.625 8.152344 L 7.386719 7.128906 C 7.253906 6.558594 6.746094 6.152344 6.160156 6.152344 L 3.765625 6.152344 C 3.179688 6.152344 2.671875 6.558594 2.539062 7.128906 L 2.300781 8.152344 L 1.792969 8.152344 C 1.460938 8.152344 1.191406 7.882812 1.191406 7.550781 L 1.191406 3.59375 C 1.191406 3.261719 1.460938 2.992188 1.792969 2.992188 L 8.132812 2.992188 C 8.464844 2.992188 8.734375 3.261719 8.734375 3.59375 Z M 8.734375 7.550781 " fill-opacity="1" fill-rule="nonzero"/></g><g clip-path="url(#f6a24adefa)"><path fill="#31ac7d" d="M 8.132812 20.15625 L 6.765625 20.15625 C 6.570312 20.15625 6.410156 20.3125 6.410156 20.511719 C 6.410156 20.707031 6.570312 20.863281 6.765625 20.863281 L 8.132812 20.863281 C 8.464844 20.863281 8.734375 21.132812 8.734375 21.464844 L 8.734375 25.421875 C 8.734375 25.753906 8.464844 26.023438 8.132812 26.023438 L 7.625 26.023438 L 7.386719 25 C 7.253906 24.429688 6.746094 24.023438 6.160156 24.023438 L 3.765625 24.023438 C 3.179688 24.023438 2.671875 24.429688 2.539062 25 L 2.300781 26.023438 L 1.792969 26.023438 C 1.460938 26.023438 1.191406 25.753906 1.191406 25.421875 L 1.191406 21.464844 C 1.191406 21.132812 1.460938 20.863281 1.792969 20.863281 L 4.964844 20.863281 C 5.160156 20.863281 5.316406 20.707031 5.316406 20.511719 C 5.316406 20.3125 5.160156 20.15625 4.964844 20.15625 L 1.792969 20.15625 C 1.070312 20.15625 0.484375 20.742188 0.484375 21.464844 L 0.484375 25.421875 C 0.484375 26.144531 1.070312 26.730469 1.792969 26.730469 L 8.132812 26.730469 C 8.855469 26.730469 9.441406 26.144531 9.441406 25.421875 L 9.441406 21.464844 C 9.441406 20.742188 8.855469 20.15625 8.132812 20.15625 Z M 8.132812 20.15625 " fill-opacity="1" fill-rule="nonzero"/></g><path fill="#31ac7d" d="M 18.898438 23.410156 C 17.597656 23.960938 16.210938 24.238281 14.78125 24.238281 C 13.820312 24.238281 12.867188 24.109375 11.949219 23.855469 L 12.378906 23.480469 C 12.527344 23.351562 12.542969 23.128906 12.414062 22.980469 C 12.285156 22.835938 12.0625 22.820312 11.914062 22.949219 L 11.007812 23.738281 C 11.007812 23.742188 11.003906 23.742188 11.003906 23.742188 C 10.992188 23.753906 10.980469 23.765625 10.972656 23.777344 C 10.96875 23.777344 10.96875 23.78125 10.964844 23.78125 C 10.957031 23.792969 10.949219 23.804688 10.941406 23.816406 C 10.9375 23.820312 10.9375 23.820312 10.9375 23.824219 C 10.929688 23.835938 10.921875 23.851562 10.914062 23.863281 C 10.914062 23.867188 10.914062 23.871094 10.910156 23.875 C 10.910156 23.878906 10.90625 23.886719 10.90625 23.890625 C 10.902344 23.898438 10.902344 23.90625 10.898438 23.910156 C 10.898438 23.914062 10.898438 23.917969 10.894531 23.921875 C 10.890625 23.9375 10.890625 23.953125 10.886719 23.96875 C 10.886719 23.96875 10.886719 23.96875 10.886719 23.972656 C 10.886719 23.988281 10.886719 24.003906 10.886719 24.019531 C 10.886719 24.019531 10.886719 24.023438 10.886719 24.023438 C 10.886719 24.039062 10.886719 24.054688 10.890625 24.074219 C 10.890625 24.074219 10.890625 24.074219 10.894531 24.078125 C 10.894531 24.09375 10.898438 24.109375 10.90625 24.125 L 10.90625 24.128906 C 10.90625 24.128906 10.90625 24.132812 10.910156 24.132812 L 11.394531 25.488281 C 11.445312 25.632812 11.582031 25.722656 11.726562 25.722656 C 11.765625 25.722656 11.808594 25.71875 11.847656 25.703125 C 12.03125 25.636719 12.128906 25.433594 12.0625 25.25 L 11.8125 24.550781 C 12.773438 24.816406 13.773438 24.949219 14.78125 24.949219 C 16.304688 24.949219 17.785156 24.648438 19.175781 24.0625 C 19.355469 23.984375 19.441406 23.777344 19.363281 23.597656 C 19.289062 23.417969 19.078125 23.332031 18.898438 23.410156 Z M 18.898438 23.410156 " fill-opacity="1" fill-rule="nonzero"/><path fill="#31ac7d" d="M 6.027344 11.890625 C 6.097656 11.96875 6.195312 12.011719 6.292969 12.011719 C 6.375 12.011719 6.460938 11.980469 6.527344 11.921875 C 6.675781 11.792969 6.6875 11.570312 6.5625 11.425781 L 5.769531 10.515625 C 5.769531 10.515625 5.765625 10.515625 5.765625 10.511719 C 5.753906 10.5 5.746094 10.492188 5.734375 10.480469 C 5.730469 10.476562 5.726562 10.476562 5.726562 10.472656 C 5.714844 10.464844 5.703125 10.457031 5.691406 10.449219 C 5.691406 10.449219 5.6875 10.445312 5.683594 10.445312 C 5.671875 10.4375 5.660156 10.429688 5.644531 10.425781 C 5.640625 10.421875 5.636719 10.421875 5.632812 10.421875 C 5.628906 10.417969 5.621094 10.414062 5.617188 10.414062 C 5.609375 10.410156 5.601562 10.410156 5.597656 10.40625 C 5.59375 10.40625 5.589844 10.40625 5.589844 10.40625 C 5.574219 10.402344 5.554688 10.398438 5.539062 10.394531 C 5.519531 10.394531 5.503906 10.394531 5.488281 10.394531 C 5.488281 10.394531 5.488281 10.394531 5.484375 10.394531 C 5.46875 10.394531 5.453125 10.398438 5.433594 10.402344 C 5.414062 10.40625 5.398438 10.410156 5.382812 10.414062 C 5.378906 10.414062 5.378906 10.417969 5.375 10.417969 L 4.019531 10.902344 C 3.835938 10.96875 3.738281 11.171875 3.804688 11.355469 C 3.871094 11.539062 4.074219 11.636719 4.257812 11.570312 L 4.957031 11.320312 C 4.695312 12.285156 4.558594 13.28125 4.558594 14.292969 C 4.558594 15.816406 4.859375 17.292969 5.449219 18.683594 C 5.503906 18.820312 5.636719 18.898438 5.773438 18.898438 C 5.820312 18.898438 5.867188 18.890625 5.910156 18.871094 C 6.089844 18.796875 6.175781 18.589844 6.101562 18.40625 C 5.546875 17.105469 5.269531 15.71875 5.269531 14.292969 C 5.269531 13.328125 5.398438 12.378906 5.652344 11.460938 Z M 6.027344 11.890625 " fill-opacity="1" fill-rule="nonzero"/><path fill="#31ac7d" d="M 10.960938 5.636719 C 11.007812 5.636719 11.054688 5.628906 11.101562 5.609375 C 12.402344 5.058594 13.789062 4.777344 15.21875 4.777344 C 16.179688 4.777344 17.132812 4.90625 18.050781 5.160156 L 17.621094 5.535156 C 17.472656 5.664062 17.457031 5.886719 17.585938 6.035156 C 17.65625 6.117188 17.753906 6.15625 17.851562 6.15625 C 17.933594 6.15625 18.019531 6.128906 18.085938 6.070312 L 18.992188 5.277344 C 18.992188 5.277344 18.996094 5.277344 18.996094 5.273438 C 19.007812 5.265625 19.019531 5.253906 19.027344 5.242188 C 19.03125 5.238281 19.03125 5.238281 19.035156 5.234375 C 19.042969 5.222656 19.050781 5.210938 19.058594 5.199219 C 19.0625 5.199219 19.0625 5.195312 19.0625 5.195312 C 19.070312 5.179688 19.078125 5.167969 19.085938 5.152344 C 19.085938 5.148438 19.085938 5.144531 19.089844 5.144531 C 19.089844 5.136719 19.09375 5.132812 19.09375 5.125 C 19.097656 5.117188 19.097656 5.113281 19.101562 5.105469 C 19.101562 5.101562 19.101562 5.101562 19.105469 5.097656 C 19.109375 5.082031 19.109375 5.066406 19.113281 5.050781 C 19.113281 5.046875 19.113281 5.046875 19.113281 5.046875 C 19.113281 5.03125 19.113281 5.015625 19.113281 5 C 19.113281 4.996094 19.113281 4.996094 19.113281 4.992188 C 19.113281 4.976562 19.113281 4.960938 19.109375 4.945312 C 19.109375 4.941406 19.109375 4.941406 19.105469 4.941406 C 19.105469 4.925781 19.101562 4.910156 19.09375 4.894531 C 19.09375 4.890625 19.09375 4.890625 19.09375 4.890625 L 19.09375 4.886719 C 19.09375 4.886719 19.09375 4.886719 19.089844 4.882812 L 18.605469 3.527344 C 18.539062 3.34375 18.335938 3.25 18.152344 3.3125 C 17.96875 3.378906 17.871094 3.582031 17.9375 3.765625 L 18.1875 4.464844 C 17.226562 4.203125 16.226562 4.070312 15.21875 4.070312 C 13.695312 4.070312 12.214844 4.367188 10.824219 4.957031 C 10.644531 5.03125 10.558594 5.238281 10.636719 5.421875 C 10.695312 5.554688 10.824219 5.636719 10.960938 5.636719 Z M 10.960938 5.636719 " fill-opacity="1" fill-rule="nonzero"/><path fill="#31ac7d" d="M 23.972656 17.128906 C 23.84375 16.980469 23.621094 16.964844 23.472656 17.09375 C 23.324219 17.222656 23.3125 17.445312 23.4375 17.59375 L 24.230469 18.5 C 24.230469 18.503906 24.234375 18.503906 24.234375 18.503906 C 24.238281 18.511719 24.246094 18.515625 24.25 18.523438 C 24.253906 18.523438 24.257812 18.527344 24.261719 18.53125 C 24.265625 18.539062 24.273438 18.542969 24.28125 18.550781 C 24.285156 18.550781 24.285156 18.554688 24.289062 18.554688 C 24.296875 18.5625 24.308594 18.566406 24.320312 18.574219 C 24.320312 18.574219 24.324219 18.578125 24.324219 18.578125 C 24.335938 18.582031 24.34375 18.585938 24.351562 18.589844 C 24.355469 18.59375 24.363281 18.59375 24.367188 18.597656 C 24.371094 18.601562 24.378906 18.601562 24.382812 18.605469 C 24.382812 18.605469 24.382812 18.605469 24.386719 18.605469 C 24.402344 18.609375 24.417969 18.613281 24.433594 18.617188 C 24.4375 18.617188 24.445312 18.617188 24.449219 18.621094 C 24.464844 18.621094 24.480469 18.621094 24.496094 18.621094 C 24.496094 18.625 24.496094 18.625 24.5 18.625 C 24.519531 18.625 24.539062 18.621094 24.554688 18.617188 C 24.558594 18.617188 24.5625 18.617188 24.566406 18.617188 C 24.582031 18.613281 24.597656 18.609375 24.613281 18.605469 C 24.613281 18.601562 24.617188 18.601562 24.617188 18.601562 L 25.980469 18.113281 C 26.164062 18.046875 26.261719 17.84375 26.195312 17.660156 C 26.128906 17.476562 25.925781 17.382812 25.742188 17.449219 L 25.042969 17.699219 C 25.304688 16.734375 25.441406 15.738281 25.441406 14.726562 C 25.441406 13.203125 25.140625 11.726562 24.550781 10.332031 C 24.476562 10.152344 24.269531 10.070312 24.089844 10.144531 C 23.910156 10.222656 23.824219 10.429688 23.898438 10.609375 C 24.453125 11.914062 24.730469 13.296875 24.730469 14.726562 C 24.730469 15.691406 24.601562 16.640625 24.347656 17.558594 Z M 23.972656 17.128906 " fill-opacity="1" fill-rule="nonzero"/><path fill="#31ac7d" d="M 25.210938 3.511719 C 25.351562 3.53125 25.480469 3.582031 25.601562 3.65625 C 25.722656 3.730469 25.824219 3.828125 25.910156 3.941406 C 25.992188 4.058594 26.050781 4.183594 26.082031 4.324219 C 26.117188 4.460938 26.121094 4.601562 26.097656 4.742188 C 26.074219 4.882812 26.027344 5.015625 25.949219 5.136719 C 25.875 5.257812 25.78125 5.359375 25.664062 5.441406 C 25.550781 5.527344 25.421875 5.582031 25.285156 5.617188 C 25.144531 5.648438 25.003906 5.652344 24.863281 5.632812 C 24.722656 5.609375 24.59375 5.558594 24.472656 5.484375 C 24.351562 5.410156 24.25 5.3125 24.164062 5.199219 C 24.082031 5.082031 24.023438 4.957031 23.992188 4.816406 C 23.957031 4.679688 23.953125 4.539062 23.976562 4.398438 C 24 4.257812 24.046875 4.125 24.121094 4.003906 C 24.199219 3.882812 24.292969 3.78125 24.410156 3.699219 C 24.523438 3.617188 24.652344 3.558594 24.789062 3.523438 C 24.929688 3.492188 25.070312 3.488281 25.210938 3.511719 Z M 25.210938 3.511719 " fill-opacity="1" fill-rule="nonzero"/><path fill="#31ac7d" d="M 25.449219 21.449219 C 25.578125 21.503906 25.695312 21.582031 25.796875 21.679688 C 25.898438 21.78125 25.976562 21.898438 26.03125 22.03125 C 26.085938 22.160156 26.113281 22.296875 26.113281 22.441406 C 26.113281 22.582031 26.085938 22.71875 26.03125 22.851562 C 25.976562 22.984375 25.898438 23.101562 25.796875 23.199219 C 25.695312 23.300781 25.578125 23.378906 25.449219 23.433594 C 25.316406 23.488281 25.179688 23.515625 25.035156 23.515625 C 24.894531 23.515625 24.757812 23.488281 24.625 23.433594 C 24.492188 23.378906 24.378906 23.300781 24.277344 23.199219 C 24.175781 23.101562 24.097656 22.984375 24.042969 22.851562 C 23.988281 22.71875 23.960938 22.582031 23.960938 22.441406 C 23.960938 22.296875 23.988281 22.160156 24.042969 22.03125 C 24.097656 21.898438 24.175781 21.78125 24.277344 21.679688 C 24.378906 21.582031 24.492188 21.503906 24.625 21.449219 C 24.757812 21.394531 24.894531 21.367188 25.035156 21.367188 C 25.179688 21.367188 25.316406 21.394531 25.449219 21.449219 Z M 25.449219 21.449219 " fill-opacity="1" fill-rule="nonzero"/><path fill="#31ac7d" d="M 5.527344 3.65625 C 5.648438 3.730469 5.75 3.828125 5.835938 3.941406 C 5.917969 4.058594 5.976562 4.183594 6.007812 4.324219 C 6.042969 4.460938 6.046875 4.601562 6.023438 4.742188 C 6 4.882812 5.953125 5.015625 5.878906 5.136719 C 5.800781 5.257812 5.707031 5.359375 5.589844 5.441406 C 5.476562 5.527344 5.347656 5.582031 5.210938 5.617188 C 5.070312 5.648438 4.933594 5.652344 4.792969 5.632812 C 4.652344 5.609375 4.519531 5.558594 4.398438 5.484375 C 4.277344 5.410156 4.175781 5.3125 4.089844 5.199219 C 4.007812 5.082031 3.949219 4.957031 3.917969 4.816406 C 3.882812 4.679688 3.878906 4.539062 3.902344 4.398438 C 3.925781 4.257812 3.972656 4.125 4.050781 4.003906 C 4.125 3.882812 4.21875 3.78125 4.335938 3.699219 C 4.449219 3.617188 4.578125 3.558594 4.714844 3.523438 C 4.855469 3.492188 4.996094 3.488281 5.136719 3.511719 C 5.277344 3.53125 5.40625 3.582031 5.527344 3.65625 Z M 5.527344 3.65625 " fill-opacity="1" fill-rule="nonzero"/><path fill="#31ac7d" d="M 6.023438 22.269531 C 6.046875 22.410156 6.042969 22.550781 6.007812 22.6875 C 5.976562 22.828125 5.917969 22.953125 5.835938 23.070312 C 5.75 23.183594 5.648438 23.28125 5.527344 23.355469 C 5.40625 23.429688 5.277344 23.480469 5.136719 23.5 C 4.996094 23.523438 4.855469 23.519531 4.714844 23.488281 C 4.578125 23.453125 4.449219 23.394531 4.335938 23.3125 C 4.21875 23.230469 4.125 23.125 4.050781 23.003906 C 3.972656 22.882812 3.925781 22.753906 3.902344 22.613281 C 3.878906 22.472656 3.882812 22.332031 3.917969 22.195312 C 3.949219 22.054688 4.007812 21.929688 4.089844 21.8125 C 4.175781 21.695312 4.277344 21.601562 4.398438 21.527344 C 4.519531 21.453125 4.648438 21.402344 4.789062 21.378906 C 4.929688 21.355469 5.070312 21.363281 5.210938 21.394531 C 5.347656 21.429688 5.476562 21.484375 5.589844 21.570312 C 5.707031 21.652344 5.800781 21.753906 5.878906 21.875 C 5.953125 21.996094 6 22.128906 6.023438 22.269531 Z M 6.023438 22.269531 " fill-opacity="1" fill-rule="nonzero"/></svg>