<svg xmlns="http://www.w3.org/2000/svg" xmlns:xlink="http://www.w3.org/1999/xlink" width="40" zoomAndPan="magnify" viewBox="0 0 30 30.000001" height="40" preserveAspectRatio="xMidYMid meet" version="1.0"><defs><clipPath id="eb8cbbfc29"><path d="M 12 27 L 14 27 L 14 29.03125 L 12 29.03125 Z M 12 27 " clip-rule="nonzero"/></clipPath><clipPath id="cb6fb0e4f8"><path d="M 16 27 L 18 27 L 18 29.03125 L 16 29.03125 Z M 16 27 " clip-rule="nonzero"/></clipPath><clipPath id="f9c62a677f"><path d="M 4.785156 0 L 25.105469 0 L 25.105469 19 L 4.785156 19 Z M 4.785156 0 " clip-rule="nonzero"/></clipPath><clipPath id="63468e2ff6"><path d="M 14 27 L 16 27 L 16 29.03125 L 14 29.03125 Z M 14 27 " clip-rule="nonzero"/></clipPath></defs><g clip-path="url(#eb8cbbfc29)"><path fill="#31ac7d" d="M 12.957031 27.671875 C 12.707031 27.671875 12.5 27.875 12.5 28.125 L 12.5 28.578125 C 12.5 28.828125 12.707031 29.03125 12.957031 29.03125 C 13.203125 29.03125 13.410156 28.828125 13.410156 28.578125 L 13.410156 28.125 C 13.410156 27.875 13.203125 27.671875 12.957031 27.671875 Z M 12.957031 27.671875 " fill-opacity="1" fill-rule="nonzero"/></g><g clip-path="url(#cb6fb0e4f8)"><path fill="#31ac7d" d="M 16.96875 27.671875 C 16.71875 27.671875 16.515625 27.875 16.515625 28.125 L 16.515625 28.578125 C 16.515625 28.828125 16.71875 29.03125 16.96875 29.03125 C 17.21875 29.03125 17.421875 28.828125 17.421875 28.578125 L 17.421875 28.125 C 17.421875 27.875 17.21875 27.671875 16.96875 27.671875 Z M 16.96875 27.671875 " fill-opacity="1" fill-rule="nonzero"/></g><g clip-path="url(#f9c62a677f)"><path fill="#31ac7d" d="M 5.175781 11.660156 L 7.398438 12.019531 C 7.578125 12.816406 7.898438 13.585938 8.328125 14.265625 L 7.011719 16.105469 C 6.875 16.285156 6.898438 16.535156 7.058594 16.695312 L 8.488281 18.121094 C 8.644531 18.28125 8.894531 18.304688 9.078125 18.167969 L 10.617188 17.054688 L 10.4375 16.105469 L 8.851562 17.238281 L 7.988281 16.332031 L 9.257812 14.5625 C 9.371094 14.402344 9.371094 14.199219 9.257812 14.039062 C 8.757812 13.269531 8.394531 12.429688 8.214844 11.542969 C 8.167969 11.363281 8.035156 11.226562 7.851562 11.183594 L 5.695312 10.839844 L 5.695312 9.59375 L 7.851562 9.230469 C 8.035156 9.207031 8.191406 9.050781 8.214844 8.867188 C 8.394531 7.960938 8.738281 7.121094 9.257812 6.375 C 9.371094 6.214844 9.371094 6.011719 9.257812 5.851562 L 7.988281 4.082031 L 8.871094 3.199219 L 10.640625 4.46875 C 10.800781 4.582031 11.003906 4.582031 11.164062 4.46875 C 11.933594 3.96875 12.773438 3.605469 13.660156 3.425781 C 13.839844 3.378906 14 3.242188 14.019531 3.0625 L 14.363281 0.90625 L 15.609375 0.90625 L 15.972656 3.0625 C 15.996094 3.242188 16.152344 3.402344 16.335938 3.425781 C 17.242188 3.605469 18.082031 3.945312 18.828125 4.46875 C 18.988281 4.582031 19.191406 4.582031 19.351562 4.46875 L 21.121094 3.199219 L 22.003906 4.082031 L 20.734375 5.851562 C 20.621094 6.011719 20.621094 6.214844 20.734375 6.375 C 21.234375 7.144531 21.597656 7.984375 21.777344 8.867188 C 21.824219 9.050781 21.960938 9.1875 22.140625 9.230469 L 24.296875 9.59375 L 24.296875 10.839844 L 22.140625 11.203125 C 21.960938 11.226562 21.800781 11.386719 21.777344 11.566406 C 21.597656 12.476562 21.257812 13.3125 20.734375 14.0625 C 20.621094 14.222656 20.621094 14.425781 20.734375 14.585938 L 22.003906 16.351562 L 21.121094 17.214844 L 19.554688 16.105469 L 19.375 17.101562 L 20.917969 18.191406 C 21.097656 18.328125 21.347656 18.304688 21.507812 18.144531 L 22.933594 16.714844 C 23.09375 16.558594 23.117188 16.308594 22.980469 16.125 L 21.664062 14.289062 C 22.097656 13.585938 22.414062 12.835938 22.59375 12.042969 L 24.816406 11.679688 C 25.042969 11.636719 25.203125 11.453125 25.203125 11.226562 L 25.203125 9.207031 C 25.203125 8.980469 25.042969 8.800781 24.816406 8.753906 L 22.59375 8.390625 C 22.414062 7.597656 22.097656 6.828125 21.664062 6.148438 L 22.980469 4.308594 C 23.117188 4.128906 23.09375 3.878906 22.933594 3.71875 L 21.507812 2.269531 C 21.347656 2.109375 21.097656 2.085938 20.917969 2.222656 L 19.078125 3.539062 C 18.375 3.105469 17.628906 2.789062 16.832031 2.609375 L 16.472656 0.386719 C 16.425781 0.160156 16.242188 0 16.015625 0 L 14 0 C 13.773438 0 13.589844 0.160156 13.546875 0.386719 L 13.183594 2.609375 C 12.386719 2.789062 11.617188 3.105469 10.9375 3.539062 L 9.097656 2.222656 C 8.894531 2.085938 8.644531 2.109375 8.488281 2.269531 L 7.058594 3.695312 C 6.898438 3.855469 6.875 4.105469 7.011719 4.285156 L 8.328125 6.125 C 7.898438 6.828125 7.578125 7.574219 7.398438 8.371094 L 5.175781 8.730469 C 4.949219 8.777344 4.789062 8.960938 4.789062 9.1875 L 4.789062 11.203125 C 4.789062 11.429688 4.949219 11.636719 5.175781 11.660156 Z M 5.175781 11.660156 " fill-opacity="1" fill-rule="nonzero"/></g><path fill="#31ac7d" d="M 13.410156 26.0625 C 13.410156 25.8125 13.203125 25.605469 12.957031 25.605469 C 12.707031 25.605469 12.5 25.8125 12.5 26.0625 L 12.5 26.808594 C 12.5 27.058594 12.707031 27.261719 12.957031 27.261719 C 13.203125 27.261719 13.410156 27.058594 13.410156 26.808594 Z M 13.410156 26.0625 " fill-opacity="1" fill-rule="nonzero"/><path fill="#31ac7d" d="M 13.410156 23.996094 C 13.410156 23.839844 13.316406 23.679688 13.183594 23.613281 L 12.910156 23.613281 C 12.84375 23.613281 12.796875 23.613281 12.75 23.589844 C 12.59375 23.65625 12.5 23.816406 12.5 23.996094 L 12.5 24.746094 C 12.5 24.996094 12.707031 25.199219 12.957031 25.199219 C 13.203125 25.199219 13.410156 24.996094 13.410156 24.746094 Z M 13.410156 23.996094 " fill-opacity="1" fill-rule="nonzero"/><path fill="#31ac7d" d="M 17.421875 26.0625 C 17.421875 25.8125 17.21875 25.605469 16.96875 25.605469 C 16.71875 25.605469 16.515625 25.8125 16.515625 26.0625 L 16.515625 26.808594 C 16.515625 27.058594 16.71875 27.261719 16.96875 27.261719 C 17.21875 27.261719 17.421875 27.058594 17.421875 26.808594 Z M 17.421875 26.0625 " fill-opacity="1" fill-rule="nonzero"/><path fill="#31ac7d" d="M 17.421875 23.996094 C 17.421875 23.816406 17.332031 23.679688 17.175781 23.589844 C 17.128906 23.589844 17.105469 23.589844 17.0625 23.589844 L 16.71875 23.589844 C 16.585938 23.65625 16.492188 23.816406 16.492188 23.972656 L 16.492188 24.722656 C 16.492188 24.972656 16.699219 25.175781 16.945312 25.175781 C 17.195312 25.175781 17.402344 24.972656 17.402344 24.722656 L 17.402344 23.996094 Z M 17.421875 23.996094 " fill-opacity="1" fill-rule="nonzero"/><path fill="#31ac7d" d="M 15.449219 23.613281 L 14.542969 23.613281 L 14.542969 25.402344 C 14.542969 25.652344 14.746094 25.855469 14.996094 25.855469 C 15.246094 25.855469 15.449219 25.652344 15.449219 25.402344 Z M 15.449219 23.613281 " fill-opacity="1" fill-rule="nonzero"/><path fill="#31ac7d" d="M 8.464844 22.660156 L 8.464844 24.269531 C 8.464844 24.429688 8.554688 24.5625 8.691406 24.65625 C 8.757812 24.699219 8.851562 24.722656 8.917969 24.722656 C 8.984375 24.722656 9.054688 24.699219 9.121094 24.675781 L 13.046875 22.703125 L 16.945312 22.703125 L 20.871094 24.675781 C 20.9375 24.699219 21.007812 24.722656 21.074219 24.722656 C 21.164062 24.722656 21.234375 24.699219 21.300781 24.65625 C 21.4375 24.5625 21.527344 24.429688 21.527344 24.269531 L 21.527344 22.660156 C 21.527344 20.164062 20.257812 18.460938 18.261719 18.214844 L 18.808594 15.175781 C 19.054688 13.722656 19.078125 12.316406 18.828125 10.976562 C 18.601562 9.683594 18.148438 8.597656 17.492188 7.644531 L 15.996094 5.488281 C 15.769531 5.171875 15.40625 4.96875 14.996094 4.96875 C 14.609375 4.96875 14.226562 5.148438 14 5.488281 L 12.5 7.644531 C 11.84375 8.597656 11.414062 9.683594 11.164062 10.976562 C 10.914062 12.292969 10.9375 13.722656 11.1875 15.175781 L 11.730469 18.214844 C 9.734375 18.460938 8.464844 20.140625 8.464844 22.660156 Z M 16.902344 20.683594 L 16.699219 21.796875 L 13.296875 21.796875 L 13.089844 20.683594 Z M 20.621094 22.660156 L 20.621094 23.542969 L 17.605469 22 L 17.878906 20.457031 L 18.125 19.074219 C 19.941406 19.300781 20.621094 21.027344 20.621094 22.660156 Z M 14.746094 6.011719 C 14.835938 5.898438 14.953125 5.898438 14.996094 5.898438 C 15.042969 5.898438 15.15625 5.917969 15.246094 6.035156 L 16.242188 7.460938 L 13.75 7.460938 Z M 12.070312 11.136719 C 12.273438 10.046875 12.613281 9.140625 13.136719 8.347656 L 16.902344 8.347656 C 17.421875 9.140625 17.765625 10.046875 17.96875 11.136719 C 18.195312 12.363281 18.171875 13.652344 17.945312 15.015625 L 17.332031 18.441406 C 17.308594 18.460938 17.308594 18.507812 17.308594 18.53125 L 17.105469 19.753906 L 15.449219 19.753906 L 15.449219 17.191406 C 15.449219 16.941406 15.246094 16.738281 14.996094 16.738281 C 14.746094 16.738281 14.542969 16.941406 14.542969 17.191406 L 14.542969 19.777344 L 12.933594 19.777344 L 12.726562 18.691406 L 12.726562 18.53125 L 12.09375 15.015625 C 11.84375 13.652344 11.84375 12.363281 12.070312 11.136719 Z M 11.890625 19.097656 L 12.386719 22 L 9.371094 23.519531 L 9.371094 22.636719 C 9.371094 21.027344 10.050781 19.300781 11.890625 19.097656 Z M 11.890625 19.097656 " fill-opacity="1" fill-rule="nonzero"/><path fill="#31ac7d" d="M 14.996094 13.789062 C 16.039062 13.789062 16.878906 12.949219 16.878906 11.929688 C 16.878906 10.910156 16.039062 10.070312 14.996094 10.070312 C 13.953125 10.070312 13.113281 10.910156 13.113281 11.929688 C 13.113281 12.949219 13.976562 13.789062 14.996094 13.789062 Z M 14.996094 10.957031 C 15.519531 10.957031 15.972656 11.386719 15.972656 11.90625 C 15.972656 12.429688 15.539062 12.859375 14.996094 12.859375 C 14.453125 12.859375 14.019531 12.429688 14.019531 11.90625 C 14.019531 11.386719 14.476562 10.957031 14.996094 10.957031 Z M 14.996094 10.957031 " fill-opacity="1" fill-rule="nonzero"/><g clip-path="url(#63468e2ff6)"><path fill="#31ac7d" d="M 14.996094 27.21875 C 14.746094 27.21875 14.542969 27.421875 14.542969 27.671875 L 14.542969 28.578125 C 14.542969 28.828125 14.746094 29.03125 14.996094 29.03125 C 15.246094 29.03125 15.449219 28.828125 15.449219 28.578125 L 15.449219 27.671875 C 15.449219 27.421875 15.246094 27.21875 14.996094 27.21875 Z M 14.996094 27.21875 " fill-opacity="1" fill-rule="nonzero"/></g></svg>