<svg xmlns="http://www.w3.org/2000/svg" xmlns:xlink="http://www.w3.org/1999/xlink" width="40" zoomAndPan="magnify" viewBox="0 0 30 30.000001" height="40" preserveAspectRatio="xMidYMid meet" version="1.0"><defs><clipPath id="053183e86b"><path d="M 0.664062 2.902344 L 29.515625 2.902344 L 29.515625 26.128906 L 0.664062 26.128906 Z M 0.664062 2.902344 " clip-rule="nonzero"/></clipPath></defs><g clip-path="url(#053183e86b)"><path fill="#31ac7d" d="M 27.933594 2.902344 L 2.242188 2.902344 C 1.375 2.902344 0.671875 3.609375 0.671875 4.476562 L 0.671875 18.332031 C 0.671875 19.199219 1.375 19.90625 2.242188 19.90625 L 12.128906 19.90625 L 12.128906 23.238281 L 8.308594 23.238281 C 7.441406 23.238281 6.738281 23.917969 6.738281 24.75 C 6.738281 25.585938 7.441406 26.265625 8.308594 26.265625 L 21.867188 26.265625 C 22.734375 26.265625 23.441406 25.585938 23.441406 24.75 C 23.441406 23.917969 22.734375 23.238281 21.867188 23.238281 L 18.046875 23.238281 L 18.046875 19.90625 L 23.933594 19.90625 L 25.6875 21.660156 C 25.949219 21.921875 26.304688 22.070312 26.664062 22.070312 C 26.992188 22.070312 27.296875 21.949219 27.519531 21.722656 C 28 21.242188 27.976562 20.429688 27.464844 19.90625 L 27.933594 19.90625 C 28.800781 19.90625 29.507812 19.199219 29.507812 18.332031 L 29.507812 4.476562 C 29.507812 3.609375 28.800781 2.902344 27.933594 2.902344 Z M 29.054688 18.332031 C 29.054688 18.953125 28.550781 19.457031 27.933594 19.457031 L 27.015625 19.457031 L 26.042969 18.484375 L 27.859375 18.484375 C 27.984375 18.484375 28.082031 18.382812 28.082031 18.257812 L 28.082031 4.550781 C 28.082031 4.425781 27.984375 4.328125 27.859375 4.328125 L 2.320312 4.328125 C 2.195312 4.328125 2.09375 4.425781 2.09375 4.550781 L 2.09375 18.257812 C 2.09375 18.382812 2.195312 18.484375 2.320312 18.484375 L 22.511719 18.484375 L 23.484375 19.457031 L 2.242188 19.457031 C 1.625 19.457031 1.121094 18.953125 1.121094 18.332031 L 1.121094 4.476562 C 1.121094 3.859375 1.625 3.355469 2.242188 3.355469 L 27.933594 3.355469 C 28.550781 3.355469 29.054688 3.859375 29.054688 4.476562 Z M 27.132812 20.210938 C 27.480469 20.558594 27.511719 21.09375 27.199219 21.40625 C 27.0625 21.542969 26.871094 21.621094 26.664062 21.621094 C 26.421875 21.621094 26.183594 21.519531 26.003906 21.339844 L 22.234375 17.566406 L 23.363281 16.441406 Z M 27.632812 6.398438 L 2.542969 6.398438 L 2.542969 4.777344 L 27.632812 4.777344 Z M 2.542969 6.847656 L 27.632812 6.847656 L 27.632812 18.03125 L 25.59375 18.03125 L 22.695312 15.136719 C 23.910156 13.128906 23.652344 10.472656 21.917969 8.738281 C 20.933594 7.753906 19.621094 7.210938 18.226562 7.210938 C 16.832031 7.210938 15.519531 7.753906 14.535156 8.738281 C 13.546875 9.726562 13.003906 11.039062 13.003906 12.433594 C 13.003906 13.828125 13.546875 15.140625 14.535156 16.125 C 15.519531 17.113281 16.832031 17.65625 18.226562 17.65625 C 19.195312 17.65625 20.125 17.394531 20.929688 16.902344 L 22.0625 18.03125 L 2.542969 18.03125 Z M 18.226562 17.203125 C 16.953125 17.203125 15.753906 16.707031 14.851562 15.808594 C 13.953125 14.90625 13.453125 13.707031 13.453125 12.433594 C 13.453125 11.160156 13.953125 9.960938 14.851562 9.058594 C 15.753906 8.15625 16.953125 7.660156 18.226562 7.660156 C 19.5 7.660156 20.699219 8.15625 21.601562 9.058594 C 23.460938 10.917969 23.460938 13.945312 21.601562 15.808594 C 20.699219 16.707031 19.5 17.203125 18.226562 17.203125 Z M 21.3125 16.648438 C 21.527344 16.492188 21.730469 16.316406 21.917969 16.125 C 22.113281 15.933594 22.285156 15.730469 22.441406 15.519531 L 23.042969 16.121094 L 21.914062 17.25 Z M 21.867188 25.8125 L 8.308594 25.8125 C 7.691406 25.8125 7.1875 25.335938 7.1875 24.75 C 7.1875 24.164062 7.691406 23.6875 8.308594 23.6875 L 21.867188 23.6875 C 22.484375 23.6875 22.988281 24.164062 22.988281 24.75 C 22.988281 25.335938 22.484375 25.8125 21.867188 25.8125 Z M 12.578125 23.238281 L 12.578125 19.90625 L 17.597656 19.90625 L 17.597656 23.238281 Z M 12.578125 23.238281 " fill-opacity="1" fill-rule="nonzero"/></g><path fill="#31ac7d" d="M 3.460938 5.84375 L 3.890625 5.84375 C 4.015625 5.84375 4.117188 5.742188 4.117188 5.617188 C 4.117188 5.496094 4.015625 5.394531 3.890625 5.394531 L 3.460938 5.394531 C 3.335938 5.394531 3.234375 5.496094 3.234375 5.617188 C 3.234375 5.742188 3.335938 5.84375 3.460938 5.84375 Z M 3.460938 5.84375 " fill-opacity="1" fill-rule="nonzero"/><path fill="#31ac7d" d="M 4.957031 5.84375 L 5.390625 5.84375 C 5.515625 5.84375 5.613281 5.742188 5.613281 5.617188 C 5.613281 5.496094 5.515625 5.394531 5.390625 5.394531 L 4.957031 5.394531 C 4.835938 5.394531 4.734375 5.496094 4.734375 5.617188 C 4.734375 5.742188 4.835938 5.84375 4.957031 5.84375 Z M 4.957031 5.84375 " fill-opacity="1" fill-rule="nonzero"/><path fill="#31ac7d" d="M 6.457031 5.84375 L 6.886719 5.84375 C 7.011719 5.84375 7.113281 5.742188 7.113281 5.617188 C 7.113281 5.496094 7.011719 5.394531 6.886719 5.394531 L 6.457031 5.394531 C 6.332031 5.394531 6.230469 5.496094 6.230469 5.617188 C 6.230469 5.742188 6.332031 5.84375 6.457031 5.84375 Z M 6.457031 5.84375 " fill-opacity="1" fill-rule="nonzero"/><path fill="#31ac7d" d="M 21.035156 15.242188 C 22.585938 13.691406 22.585938 11.171875 21.035156 9.625 C 20.285156 8.875 19.289062 8.460938 18.226562 8.460938 C 17.164062 8.460938 16.167969 8.875 15.417969 9.625 C 13.867188 11.171875 13.867188 13.695312 15.417969 15.242188 C 16.167969 15.992188 17.164062 16.40625 18.226562 16.40625 C 19.289062 16.40625 20.285156 15.992188 21.035156 15.242188 Z M 15.734375 14.925781 C 14.363281 13.550781 14.363281 11.316406 15.734375 9.941406 C 16.402344 9.277344 17.285156 8.910156 18.226562 8.910156 C 19.167969 8.910156 20.050781 9.277344 20.71875 9.941406 C 22.089844 11.316406 22.089844 13.550781 20.71875 14.925781 C 20.050781 15.589844 19.167969 15.957031 18.226562 15.957031 C 17.285156 15.957031 16.402344 15.589844 15.734375 14.925781 Z M 15.734375 14.925781 " fill-opacity="1" fill-rule="nonzero"/><path fill="#31ac7d" d="M 6.695312 13.738281 L 3.304688 13.738281 C 3.179688 13.738281 3.078125 13.839844 3.078125 13.964844 L 3.078125 17.359375 C 3.078125 17.480469 3.179688 17.582031 3.304688 17.582031 L 6.695312 17.582031 C 6.820312 17.582031 6.921875 17.480469 6.921875 17.359375 L 6.921875 13.964844 C 6.921875 13.839844 6.820312 13.738281 6.695312 13.738281 Z M 6.472656 17.132812 L 3.527344 17.132812 L 3.527344 14.191406 L 4.332031 14.191406 L 4.332031 14.96875 C 4.332031 15.046875 4.378906 15.125 4.445312 15.164062 C 4.515625 15.203125 4.601562 15.203125 4.671875 15.164062 L 5 14.96875 L 5.328125 15.164062 C 5.363281 15.183594 5.402344 15.191406 5.441406 15.191406 C 5.480469 15.191406 5.519531 15.183594 5.554688 15.164062 C 5.625 15.125 5.667969 15.046875 5.667969 14.96875 L 5.667969 14.191406 L 6.472656 14.191406 Z M 5.214844 14.191406 L 5.214844 14.574219 L 5.113281 14.515625 C 5.042969 14.472656 4.957031 14.472656 4.886719 14.515625 L 4.785156 14.574219 L 4.785156 14.191406 Z M 5.214844 14.191406 " fill-opacity="1" fill-rule="nonzero"/><path fill="#31ac7d" d="M 11.015625 13.738281 L 7.621094 13.738281 C 7.496094 13.738281 7.394531 13.839844 7.394531 13.964844 L 7.394531 17.359375 C 7.394531 17.480469 7.496094 17.582031 7.621094 17.582031 L 11.015625 17.582031 C 11.140625 17.582031 11.238281 17.480469 11.238281 17.359375 L 11.238281 13.964844 C 11.238281 13.839844 11.140625 13.738281 11.015625 13.738281 Z M 10.789062 17.132812 L 7.847656 17.132812 L 7.847656 14.191406 L 8.652344 14.191406 L 8.652344 14.96875 C 8.652344 15.046875 8.695312 15.125 8.765625 15.164062 C 8.835938 15.203125 8.921875 15.203125 8.992188 15.164062 L 9.320312 14.96875 L 9.644531 15.164062 C 9.679688 15.183594 9.71875 15.191406 9.757812 15.191406 C 9.796875 15.191406 9.835938 15.183594 9.871094 15.164062 C 9.941406 15.125 9.984375 15.046875 9.984375 14.96875 L 9.984375 14.191406 L 10.789062 14.191406 Z M 9.535156 14.191406 L 9.535156 14.574219 L 9.433594 14.515625 C 9.363281 14.472656 9.273438 14.472656 9.203125 14.515625 L 9.101562 14.574219 L 9.101562 14.191406 Z M 9.535156 14.191406 " fill-opacity="1" fill-rule="nonzero"/><path fill="#31ac7d" d="M 6.695312 9.484375 L 3.304688 9.484375 C 3.179688 9.484375 3.078125 9.582031 3.078125 9.707031 L 3.078125 13.101562 C 3.078125 13.226562 3.179688 13.328125 3.304688 13.328125 L 6.695312 13.328125 C 6.820312 13.328125 6.921875 13.226562 6.921875 13.101562 L 6.921875 9.707031 C 6.921875 9.582031 6.820312 9.484375 6.695312 9.484375 Z M 6.472656 12.875 L 3.527344 12.875 L 3.527344 9.933594 L 4.332031 9.933594 L 4.332031 10.710938 C 4.332031 10.792969 4.378906 10.867188 4.445312 10.90625 C 4.515625 10.945312 4.601562 10.945312 4.671875 10.90625 L 5 10.714844 L 5.328125 10.90625 C 5.363281 10.925781 5.402344 10.9375 5.441406 10.9375 C 5.480469 10.9375 5.519531 10.925781 5.554688 10.90625 C 5.625 10.867188 5.667969 10.792969 5.667969 10.710938 L 5.667969 9.933594 L 6.472656 9.933594 Z M 5.214844 9.933594 L 5.214844 10.316406 L 5.113281 10.257812 C 5.042969 10.21875 4.957031 10.21875 4.886719 10.257812 L 4.785156 10.316406 L 4.785156 9.933594 Z M 5.214844 9.933594 " fill-opacity="1" fill-rule="nonzero"/><path fill="#31ac7d" d="M 11.015625 9.484375 L 7.621094 9.484375 C 7.496094 9.484375 7.394531 9.582031 7.394531 9.707031 L 7.394531 13.101562 C 7.394531 13.226562 7.496094 13.328125 7.621094 13.328125 L 11.015625 13.328125 C 11.140625 13.328125 11.238281 13.226562 11.238281 13.101562 L 11.238281 9.707031 C 11.238281 9.582031 11.140625 9.484375 11.015625 9.484375 Z M 10.789062 12.875 L 7.847656 12.875 L 7.847656 9.933594 L 8.652344 9.933594 L 8.652344 10.710938 C 8.652344 10.792969 8.695312 10.867188 8.765625 10.90625 C 8.835938 10.945312 8.921875 10.945312 8.992188 10.90625 L 9.320312 10.714844 L 9.644531 10.90625 C 9.679688 10.925781 9.71875 10.9375 9.757812 10.9375 C 9.796875 10.9375 9.835938 10.925781 9.871094 10.90625 C 9.941406 10.867188 9.984375 10.792969 9.984375 10.710938 L 9.984375 9.933594 L 10.789062 9.933594 Z M 9.535156 9.933594 L 9.535156 10.316406 L 9.433594 10.257812 C 9.363281 10.21875 9.273438 10.21875 9.203125 10.257812 L 9.101562 10.316406 L 9.101562 9.933594 Z M 9.535156 9.933594 " fill-opacity="1" fill-rule="nonzero"/><path fill="#31ac7d" d="M 18.3125 15.476562 C 18.316406 15.476562 18.316406 15.476562 18.320312 15.472656 C 18.324219 15.472656 18.332031 15.46875 18.339844 15.464844 L 20.789062 14.050781 C 20.859375 14.011719 20.902344 13.933594 20.902344 13.855469 L 20.902344 11.027344 C 20.902344 11.019531 20.902344 11.011719 20.898438 11.003906 C 20.898438 11.003906 20.898438 11 20.898438 11 C 20.898438 10.984375 20.894531 10.972656 20.890625 10.960938 C 20.890625 10.957031 20.890625 10.953125 20.886719 10.949219 C 20.882812 10.9375 20.878906 10.925781 20.871094 10.914062 C 20.863281 10.902344 20.855469 10.890625 20.847656 10.882812 C 20.84375 10.878906 20.84375 10.875 20.839844 10.875 C 20.832031 10.863281 20.824219 10.855469 20.8125 10.847656 C 20.8125 10.847656 20.808594 10.847656 20.808594 10.84375 C 20.800781 10.839844 20.796875 10.835938 20.789062 10.832031 L 18.339844 9.417969 C 18.269531 9.378906 18.183594 9.378906 18.113281 9.417969 L 15.664062 10.832031 C 15.660156 10.835938 15.652344 10.839844 15.644531 10.84375 C 15.644531 10.847656 15.644531 10.847656 15.640625 10.847656 C 15.632812 10.855469 15.621094 10.863281 15.613281 10.875 C 15.609375 10.875 15.609375 10.878906 15.605469 10.882812 C 15.597656 10.890625 15.589844 10.902344 15.582031 10.914062 C 15.574219 10.925781 15.570312 10.9375 15.566406 10.949219 C 15.566406 10.953125 15.5625 10.957031 15.5625 10.960938 C 15.558594 10.972656 15.554688 10.984375 15.554688 11 C 15.554688 11 15.554688 11.003906 15.554688 11.003906 C 15.554688 11.011719 15.550781 11.019531 15.550781 11.027344 L 15.550781 13.855469 C 15.550781 13.933594 15.59375 14.011719 15.664062 14.050781 L 18.113281 15.464844 C 18.121094 15.46875 18.128906 15.472656 18.136719 15.472656 C 18.136719 15.476562 18.136719 15.476562 18.140625 15.476562 C 18.152344 15.480469 18.164062 15.484375 18.175781 15.488281 C 18.179688 15.488281 18.183594 15.488281 18.1875 15.488281 C 18.199219 15.492188 18.214844 15.496094 18.226562 15.496094 C 18.242188 15.496094 18.253906 15.492188 18.265625 15.488281 C 18.269531 15.488281 18.273438 15.488281 18.277344 15.488281 C 18.289062 15.484375 18.300781 15.480469 18.3125 15.476562 Z M 19.328125 10.507812 L 17.214844 11.726562 C 17.214844 11.726562 17.210938 11.730469 17.210938 11.730469 C 17.207031 11.734375 17.203125 11.734375 17.199219 11.738281 C 17.191406 11.742188 17.1875 11.746094 17.183594 11.75 C 17.179688 11.753906 17.175781 11.753906 17.171875 11.757812 C 17.171875 11.761719 17.167969 11.765625 17.164062 11.769531 C 17.160156 11.769531 17.15625 11.773438 17.15625 11.78125 C 17.152344 11.785156 17.148438 11.789062 17.144531 11.792969 C 17.140625 11.796875 17.140625 11.800781 17.136719 11.804688 C 17.136719 11.804688 17.132812 11.808594 17.132812 11.808594 C 17.132812 11.8125 17.132812 11.8125 17.128906 11.816406 C 17.128906 11.820312 17.125 11.824219 17.125 11.828125 C 17.121094 11.832031 17.121094 11.839844 17.117188 11.84375 C 17.117188 11.847656 17.113281 11.851562 17.113281 11.859375 C 17.109375 11.863281 17.109375 11.867188 17.109375 11.871094 C 17.109375 11.875 17.105469 11.878906 17.105469 11.886719 C 17.105469 11.890625 17.105469 11.894531 17.105469 11.902344 C 17.105469 11.90625 17.101562 11.910156 17.101562 11.914062 C 17.101562 11.917969 17.101562 11.917969 17.101562 11.921875 L 17.101562 12.269531 L 16.949219 12.183594 L 16.949219 11.703125 L 19.175781 10.421875 Z M 20.226562 11.027344 L 18.226562 12.179688 L 17.777344 11.921875 L 19.777344 10.769531 Z M 18.453125 12.570312 L 20.449219 11.417969 L 20.449219 13.726562 L 18.453125 14.878906 Z M 16.726562 11.3125 L 16.226562 11.027344 L 18.226562 9.875 L 18.722656 10.160156 Z M 16.003906 11.417969 L 16.5 11.703125 L 16.5 12.3125 C 16.5 12.394531 16.542969 12.46875 16.613281 12.507812 L 17.214844 12.855469 C 17.25 12.875 17.289062 12.886719 17.328125 12.886719 C 17.367188 12.886719 17.40625 12.875 17.441406 12.855469 C 17.511719 12.816406 17.554688 12.742188 17.554688 12.660156 L 17.554688 12.3125 L 18 12.570312 L 18 14.878906 L 16.003906 13.726562 Z M 16.003906 11.417969 " fill-opacity="1" fill-rule="nonzero"/></svg>