<svg xmlns="http://www.w3.org/2000/svg" xmlns:xlink="http://www.w3.org/1999/xlink" width="40" zoomAndPan="magnify" viewBox="0 0 30 30.000001" height="40" preserveAspectRatio="xMidYMid meet" version="1.0"><defs><clipPath id="05d67f5508"><path d="M 0.484375 0.835938 L 29.515625 0.835938 L 29.515625 28.414062 L 0.484375 28.414062 Z M 0.484375 0.835938 " clip-rule="nonzero"/></clipPath></defs><g clip-path="url(#05d67f5508)"><path fill="#31ac7d" d="M 28.058594 9.871094 L 28.109375 9.769531 C 28.277344 9.425781 28.691406 9.285156 29.03125 9.453125 C 29.371094 9.621094 29.511719 10.035156 29.34375 10.375 L 28.523438 12.042969 C 28.441406 12.207031 28.296875 12.332031 28.121094 12.390625 C 27.945312 12.449219 27.753906 12.433594 27.589844 12.347656 L 25.941406 11.496094 C 25.601562 11.320312 25.46875 10.90625 25.644531 10.570312 C 25.820312 10.230469 26.234375 10.097656 26.574219 10.273438 L 26.777344 10.378906 C 25.007812 5.613281 20.414062 2.210938 15.03125 2.210938 C 9.09375 2.210938 4.117188 6.347656 2.824219 11.894531 C 2.738281 12.261719 2.367188 12.492188 2 12.40625 C 1.628906 12.320312 1.398438 11.949219 1.484375 11.582031 C 2.917969 5.425781 8.441406 0.835938 15.03125 0.835938 C 20.992188 0.835938 26.082031 4.59375 28.058594 9.871094 Z M 1.933594 18.847656 L 1.878906 18.949219 C 1.707031 19.289062 1.292969 19.421875 0.953125 19.25 C 0.617188 19.074219 0.480469 18.660156 0.65625 18.320312 L 1.5 16.671875 C 1.585938 16.507812 1.734375 16.382812 1.910156 16.328125 C 2.085938 16.273438 2.277344 16.289062 2.441406 16.378906 L 4.074219 17.253906 C 4.410156 17.433594 4.535156 17.851562 4.355469 18.1875 C 4.175781 18.523438 3.757812 18.648438 3.425781 18.46875 L 3.21875 18.359375 C 4.917969 23.152344 9.460938 26.625 14.839844 26.707031 C 20.777344 26.800781 25.816406 22.742188 27.195312 17.214844 C 27.285156 16.847656 27.660156 16.621094 28.027344 16.714844 C 28.398438 16.804688 28.621094 17.179688 28.53125 17.550781 C 27 23.679688 21.40625 28.1875 14.820312 28.085938 C 8.859375 27.992188 3.828125 24.15625 1.933594 18.847656 Z M 7.679688 20.835938 C 6.289062 19.242188 5.414062 17.195312 5.300781 14.941406 L 8.839844 14.941406 C 8.910156 16.628906 9.328125 18.246094 10.050781 19.710938 C 9.210938 19.992188 8.433594 20.347656 7.746094 20.785156 C 7.722656 20.800781 7.699219 20.816406 7.679688 20.835938 Z M 10.996094 19.433594 C 10.289062 18.0625 9.878906 16.535156 9.804688 14.941406 L 14.515625 14.941406 L 14.515625 18.957031 C 13.308594 18.992188 12.113281 19.148438 10.996094 19.433594 Z M 15.480469 18.957031 L 15.480469 14.941406 L 20.191406 14.941406 C 20.121094 16.535156 19.707031 18.0625 19 19.433594 C 17.882812 19.148438 16.6875 18.992188 15.480469 18.957031 Z M 19.945312 19.710938 C 20.667969 18.246094 21.089844 16.628906 21.160156 14.941406 L 24.691406 14.941406 C 24.582031 17.191406 23.703125 19.242188 22.316406 20.835938 C 22.296875 20.816406 22.273438 20.800781 22.25 20.785156 C 21.5625 20.347656 20.785156 19.992188 19.945312 19.710938 Z M 21.636719 21.539062 C 20.179688 22.90625 18.304688 23.828125 16.21875 24.089844 C 17.554688 23.136719 18.65625 21.933594 19.476562 20.566406 C 20.261719 20.816406 20.992188 21.144531 21.636719 21.539062 Z M 18.507812 20.296875 C 17.730469 21.515625 16.710938 22.585938 15.480469 23.429688 L 15.480469 19.902344 C 16.515625 19.933594 17.539062 20.066406 18.507812 20.296875 Z M 14.515625 19.902344 L 14.515625 23.429688 C 13.285156 22.582031 12.261719 21.515625 11.488281 20.296875 C 12.457031 20.066406 13.480469 19.933594 14.515625 19.902344 Z M 10.519531 20.566406 C 11.339844 21.933594 12.441406 23.136719 13.777344 24.089844 C 11.695312 23.828125 9.816406 22.90625 8.359375 21.539062 C 9.003906 21.144531 9.734375 20.820312 10.519531 20.566406 Z M 5.300781 13.976562 C 5.414062 11.726562 6.289062 9.679688 7.675781 8.085938 C 7.699219 8.105469 7.722656 8.125 7.746094 8.140625 C 8.433594 8.574219 9.210938 8.933594 10.050781 9.214844 C 9.332031 10.660156 8.902344 12.273438 8.835938 13.976562 Z M 8.355469 7.382812 C 9.816406 6.011719 11.695312 5.089844 13.785156 4.828125 C 12.46875 5.769531 11.355469 6.972656 10.519531 8.359375 C 9.734375 8.105469 9.003906 7.78125 8.355469 7.382812 Z M 16.214844 4.828125 C 18.300781 5.089844 20.179688 6.015625 21.640625 7.382812 C 20.992188 7.78125 20.261719 8.105469 19.476562 8.359375 C 18.640625 6.972656 17.527344 5.769531 16.214844 4.828125 Z M 22.316406 8.085938 C 23.707031 9.679688 24.582031 11.726562 24.691406 13.976562 L 21.160156 13.976562 C 21.09375 12.273438 20.664062 10.660156 19.945312 9.214844 C 20.785156 8.933594 21.566406 8.574219 22.25 8.140625 C 22.273438 8.125 22.296875 8.105469 22.316406 8.085938 Z M 10.992188 9.488281 C 12.113281 9.773438 13.308594 9.933594 14.515625 9.96875 L 14.515625 13.976562 L 9.804688 13.976562 C 9.871094 12.367188 10.292969 10.84375 10.992188 9.488281 Z M 14.515625 5.496094 L 14.515625 9.019531 C 13.480469 8.988281 12.457031 8.859375 11.488281 8.628906 C 12.277344 7.394531 13.308594 6.324219 14.515625 5.496094 Z M 18.507812 8.628906 C 17.539062 8.859375 16.511719 8.988281 15.480469 9.019531 L 15.480469 5.496094 C 16.6875 6.324219 17.71875 7.390625 18.507812 8.628906 Z M 20.195312 13.976562 L 15.480469 13.976562 L 15.480469 9.96875 C 16.6875 9.933594 17.882812 9.773438 19.003906 9.488281 C 19.703125 10.84375 20.125 12.367188 20.195312 13.976562 Z M 20.195312 13.976562 " fill-opacity="1" fill-rule="evenodd"/></g></svg>