<svg xmlns="http://www.w3.org/2000/svg" xmlns:xlink="http://www.w3.org/1999/xlink" width="40" zoomAndPan="magnify" viewBox="0 0 30 30.000001" height="40" preserveAspectRatio="xMidYMid meet" version="1.0"><defs><clipPath id="efe6eb8568"><path d="M 1.265625 6 L 28.84375 6 L 28.84375 24 L 1.265625 24 Z M 1.265625 6 " clip-rule="nonzero"/></clipPath><clipPath id="af1d916f23"><path d="M 1.265625 13 L 12 13 L 12 19 L 1.265625 19 Z M 1.265625 13 " clip-rule="nonzero"/></clipPath><clipPath id="8b02818eff"><path d="M 12 4 L 28.84375 4 L 28.84375 15 L 12 15 Z M 12 4 " clip-rule="nonzero"/></clipPath><clipPath id="69f5ad4355"><path d="M 1.265625 16 L 14 16 L 14 22 L 1.265625 22 Z M 1.265625 16 " clip-rule="nonzero"/></clipPath><clipPath id="64a2c7644e"><path d="M 1.265625 0 L 7 0 L 7 6 L 1.265625 6 Z M 1.265625 0 " clip-rule="nonzero"/></clipPath><clipPath id="b7957386cd"><path d="M 18 23 L 24 23 L 24 29.03125 L 18 29.03125 Z M 18 23 " clip-rule="nonzero"/></clipPath></defs><path fill="#31ac7d" d="M 7.476562 14.699219 C 7.242188 14.539062 7.078125 14.4375 6.828125 14.292969 L 7.34375 13.394531 C 7.621094 13.550781 7.800781 13.667969 8.058594 13.84375 Z M 5.671875 13.734375 C 5.089844 13.496094 4.492188 13.320312 3.847656 13.195312 L 4.046875 12.179688 C 4.757812 12.316406 5.417969 12.511719 6.058594 12.773438 Z M 5.671875 13.734375 " fill-opacity="1" fill-rule="nonzero"/><g clip-path="url(#efe6eb8568)"><path fill="#31ac7d" d="M 23.550781 23.84375 C 22.980469 23.84375 22.515625 23.378906 22.515625 22.808594 L 22.515625 21.765625 C 17.519531 21.59375 14.953125 18.957031 12.472656 16.402344 C 9.835938 13.691406 7.109375 10.890625 1.265625 10.890625 L 1.265625 9.851562 C 7.546875 9.851562 10.425781 12.816406 13.214844 15.679688 C 15.742188 18.28125 18.132812 20.738281 23.035156 20.738281 L 23.550781 20.738281 L 23.550781 22.808594 L 27.714844 19.449219 L 23.558594 16.085938 L 23.550781 18.144531 L 23.035156 18.144531 C 19.171875 18.144531 16.992188 15.902344 14.683594 13.527344 C 11.832031 10.589844 8.597656 7.261719 1.265625 7.261719 L 1.265625 6.226562 C 9.039062 6.226562 12.433594 9.722656 15.429688 12.804688 C 17.554688 14.996094 19.40625 16.902344 22.515625 17.09375 L 22.515625 16.070312 C 22.515625 15.5 22.980469 15.035156 23.550781 15.035156 C 23.796875 15.035156 24.035156 15.125 24.226562 15.292969 L 28.367188 18.683594 C 28.605469 18.894531 28.734375 19.175781 28.734375 19.46875 C 28.734375 19.757812 28.605469 20.039062 28.382812 20.238281 L 24.210938 23.601562 C 24.035156 23.753906 23.796875 23.84375 23.550781 23.84375 Z M 23.550781 23.84375 " fill-opacity="1" fill-rule="nonzero"/></g><g clip-path="url(#af1d916f23)"><path fill="#31ac7d" d="M 1.265625 18.144531 L 1.265625 17.109375 C 5.90625 17.109375 8.496094 15.339844 10.417969 13.613281 L 11.109375 14.382812 C 9.042969 16.242188 6.253906 18.144531 1.265625 18.144531 Z M 1.265625 18.144531 " fill-opacity="1" fill-rule="nonzero"/></g><g clip-path="url(#8b02818eff)"><path fill="#31ac7d" d="M 16.238281 14.363281 L 15.503906 13.632812 C 17.40625 11.71875 19.554688 9.851562 23.035156 9.851562 L 23.550781 9.851562 L 23.550781 11.925781 L 27.710938 8.511719 L 23.5625 5.203125 L 23.550781 7.261719 L 23.035156 7.261719 C 18.535156 7.261719 16.148438 9.320312 13.707031 11.8125 L 12.96875 11.085938 C 15.480469 8.519531 17.949219 6.382812 22.515625 6.234375 L 22.515625 5.1875 C 22.515625 4.617188 22.980469 4.152344 23.550781 4.152344 C 23.796875 4.152344 24.035156 4.242188 24.226562 4.410156 L 28.363281 7.742188 C 28.605469 7.957031 28.734375 8.238281 28.734375 8.53125 C 28.734375 8.820312 28.605469 9.101562 28.382812 9.300781 L 24.214844 12.714844 C 24.035156 12.871094 23.796875 12.960938 23.550781 12.960938 C 22.980469 12.960938 22.515625 12.496094 22.515625 11.925781 L 22.515625 10.90625 C 19.730469 11.078125 17.953125 12.636719 16.238281 14.363281 Z M 16.238281 14.363281 " fill-opacity="1" fill-rule="nonzero"/></g><g clip-path="url(#69f5ad4355)"><path fill="#31ac7d" d="M 1.265625 21.773438 L 1.265625 20.734375 C 7.328125 20.734375 10.589844 18.429688 12.980469 16.171875 L 13.695312 16.925781 C 11.152344 19.324219 7.691406 21.773438 1.265625 21.773438 Z M 1.265625 21.773438 " fill-opacity="1" fill-rule="nonzero"/></g><g clip-path="url(#64a2c7644e)"><path fill="#31ac7d" d="M 3.859375 5.1875 C 2.429688 5.1875 1.265625 4.023438 1.265625 2.597656 C 1.265625 1.167969 2.429688 0.00390625 3.859375 0.00390625 C 5.289062 0.00390625 6.449219 1.167969 6.449219 2.597656 C 6.449219 4.023438 5.289062 5.1875 3.859375 5.1875 Z M 3.859375 1.042969 C 3 1.042969 2.304688 1.738281 2.304688 2.597656 C 2.304688 3.453125 3 4.152344 3.859375 4.152344 C 4.714844 4.152344 5.414062 3.453125 5.414062 2.597656 C 5.414062 1.738281 4.714844 1.042969 3.859375 1.042969 Z M 3.859375 1.042969 " fill-opacity="1" fill-rule="nonzero"/></g><path fill="#31ac7d" d="M 5.414062 27.992188 C 3.984375 27.992188 2.820312 26.828125 2.820312 25.398438 C 2.820312 23.972656 3.984375 22.808594 5.414062 22.808594 C 6.84375 22.808594 8.003906 23.972656 8.003906 25.398438 C 8.003906 26.828125 6.84375 27.992188 5.414062 27.992188 Z M 5.414062 23.84375 C 4.554688 23.84375 3.859375 24.542969 3.859375 25.402344 C 3.859375 26.257812 4.554688 26.957031 5.414062 26.957031 C 6.269531 26.957031 6.96875 26.257812 6.96875 25.402344 C 6.96875 24.542969 6.269531 23.84375 5.414062 23.84375 Z M 5.414062 23.84375 " fill-opacity="1" fill-rule="nonzero"/><g clip-path="url(#b7957386cd)"><path fill="#31ac7d" d="M 20.960938 29.027344 C 19.53125 29.027344 18.371094 27.867188 18.371094 26.4375 C 18.371094 25.007812 19.53125 23.84375 20.960938 23.84375 C 22.390625 23.84375 23.550781 25.007812 23.550781 26.4375 C 23.550781 27.867188 22.390625 29.027344 20.960938 29.027344 Z M 20.960938 24.882812 C 20.105469 24.882812 19.40625 25.578125 19.40625 26.4375 C 19.40625 27.292969 20.105469 27.992188 20.960938 27.992188 C 21.820312 27.992188 22.515625 27.292969 22.515625 26.4375 C 22.515625 25.578125 21.820312 24.882812 20.960938 24.882812 Z M 20.960938 24.882812 " fill-opacity="1" fill-rule="nonzero"/></g><path fill="#31ac7d" d="M 17.332031 5.1875 C 15.90625 5.1875 14.742188 4.023438 14.742188 2.597656 C 14.742188 1.167969 15.90625 0.00390625 17.332031 0.00390625 C 18.761719 0.00390625 19.925781 1.167969 19.925781 2.597656 C 19.925781 4.023438 18.761719 5.1875 17.332031 5.1875 Z M 17.332031 1.042969 C 16.476562 1.042969 15.777344 1.738281 15.777344 2.597656 C 15.777344 3.453125 16.476562 4.152344 17.332031 4.152344 C 18.191406 4.152344 18.886719 3.453125 18.886719 2.597656 C 18.886719 1.738281 18.191406 1.042969 17.332031 1.042969 Z M 17.332031 1.042969 " fill-opacity="1" fill-rule="nonzero"/><path fill="#31ac7d" d="M 9.039062 8.128906 L 8.003906 8.128906 L 8.003906 3.113281 L 5.929688 3.117188 L 5.929688 2.078125 L 8.007812 2.078125 C 8.578125 2.078125 9.039062 2.542969 9.039062 3.113281 Z M 9.039062 8.128906 " fill-opacity="1" fill-rule="nonzero"/><path fill="#31ac7d" d="M 16.816406 4.667969 L 17.851562 4.667969 L 17.851562 8.152344 L 16.816406 8.152344 Z M 16.816406 4.667969 " fill-opacity="1" fill-rule="nonzero"/><path fill="#31ac7d" d="M 10.078125 25.917969 L 7.484375 25.917969 L 7.484375 24.882812 L 10.078125 24.882812 L 10.078125 18.742188 L 11.113281 18.742188 L 11.113281 24.882812 C 11.113281 25.453125 10.648438 25.917969 10.078125 25.917969 Z M 10.078125 25.917969 " fill-opacity="1" fill-rule="nonzero"/><path fill="#31ac7d" d="M 18.886719 26.957031 L 16.8125 26.957031 C 16.242188 26.957031 15.777344 26.492188 15.777344 25.921875 L 15.777344 19.179688 L 16.816406 19.179688 L 16.816406 25.921875 L 18.886719 25.917969 Z M 18.886719 26.957031 " fill-opacity="1" fill-rule="nonzero"/></svg>