<svg xmlns="http://www.w3.org/2000/svg" xmlns:xlink="http://www.w3.org/1999/xlink" width="40" zoomAndPan="magnify" viewBox="0 0 30 30.000001" height="40" preserveAspectRatio="xMidYMid meet" version="1.0"><defs><clipPath id="4f76f33f26"><path d="M 28 9 L 29.515625 9 L 29.515625 17 L 28 17 Z M 28 9 " clip-rule="nonzero"/></clipPath><clipPath id="bf2c3bee5d"><path d="M 0.484375 2 L 19 2 L 19 26 L 0.484375 26 Z M 0.484375 2 " clip-rule="nonzero"/></clipPath><clipPath id="41bfbbdde6"><path d="M 9 26 L 17 26 L 17 29.03125 L 9 29.03125 Z M 9 26 " clip-rule="nonzero"/></clipPath><clipPath id="8162381389"><path d="M 16 15 L 29.515625 15 L 29.515625 29.03125 L 16 29.03125 Z M 16 15 " clip-rule="nonzero"/></clipPath><clipPath id="f9a5eedf22"><path d="M 18 0 L 29.515625 0 L 29.515625 11 L 18 11 Z M 18 0 " clip-rule="nonzero"/></clipPath></defs><g clip-path="url(#4f76f33f26)"><path fill="#31ac7d" d="M 29.03125 9.574219 C 28.765625 9.574219 28.546875 9.792969 28.546875 10.058594 L 28.546875 16.136719 C 28.546875 16.402344 28.765625 16.621094 29.03125 16.621094 C 29.296875 16.621094 29.515625 16.402344 29.515625 16.136719 L 29.515625 10.058594 C 29.515625 9.792969 29.296875 9.574219 29.03125 9.574219 Z M 29.03125 9.574219 " fill-opacity="1" fill-rule="nonzero"/></g><g clip-path="url(#bf2c3bee5d)"><path fill="#31ac7d" d="M 15.96875 24.675781 C 15.96875 24.410156 15.75 24.195312 15.484375 24.195312 L 2.902344 24.195312 C 2.105469 24.195312 1.453125 23.539062 1.453125 22.742188 L 1.453125 21.289062 L 15.484375 21.289062 C 15.75 21.289062 15.96875 21.074219 15.96875 20.804688 C 15.96875 20.539062 15.75 20.324219 15.484375 20.324219 L 1.453125 20.324219 L 1.453125 5.324219 C 1.453125 4.523438 2.105469 3.871094 2.902344 3.871094 L 17.699219 3.871094 C 17.964844 3.871094 18.183594 3.652344 18.183594 3.386719 C 18.183594 3.121094 17.964844 2.902344 17.699219 2.902344 L 2.902344 2.902344 C 1.566406 2.902344 0.484375 3.988281 0.484375 5.324219 L 0.484375 22.742188 C 0.484375 24.078125 1.566406 25.160156 2.902344 25.160156 L 15.484375 25.160156 C 15.75 25.160156 15.96875 24.945312 15.96875 24.675781 Z M 15.96875 24.675781 " fill-opacity="1" fill-rule="nonzero"/></g><g clip-path="url(#41bfbbdde6)"><path fill="#31ac7d" d="M 15.652344 28.066406 L 10.945312 28.066406 L 11.566406 26.832031 C 11.683594 26.59375 11.589844 26.304688 11.347656 26.183594 C 11.105469 26.0625 10.816406 26.15625 10.699219 26.398438 L 9.730469 28.335938 C 9.65625 28.484375 9.664062 28.664062 9.75 28.804688 C 9.835938 28.945312 9.992188 29.03125 10.160156 29.03125 L 15.652344 29.03125 C 15.917969 29.03125 16.136719 28.816406 16.136719 28.546875 C 16.136719 28.28125 15.917969 28.066406 15.652344 28.066406 Z M 15.652344 28.066406 " fill-opacity="1" fill-rule="nonzero"/></g><g clip-path="url(#8162381389)"><path fill="#31ac7d" d="M 28.066406 17.417969 L 26.613281 17.417969 L 26.613281 16.453125 C 26.613281 16.183594 26.394531 15.96875 26.128906 15.96875 C 25.863281 15.96875 25.644531 16.183594 25.644531 16.453125 L 25.644531 17.417969 L 20.804688 17.417969 L 20.804688 16.453125 C 20.804688 16.183594 20.589844 15.96875 20.324219 15.96875 C 20.054688 15.96875 19.839844 16.183594 19.839844 16.453125 L 19.839844 17.417969 L 18.386719 17.417969 C 17.589844 17.417969 16.933594 18.074219 16.933594 18.871094 L 16.933594 27.582031 C 16.933594 28.378906 17.589844 29.03125 18.386719 29.03125 L 28.066406 29.03125 C 28.863281 29.03125 29.515625 28.378906 29.515625 27.582031 L 29.515625 18.871094 C 29.515625 18.074219 28.863281 17.417969 28.066406 17.417969 Z M 18.386719 18.386719 L 28.066406 18.386719 C 28.332031 18.386719 28.546875 18.605469 28.546875 18.871094 L 28.546875 20.324219 L 17.902344 20.324219 L 17.902344 18.871094 C 17.902344 18.605469 18.121094 18.386719 18.386719 18.386719 Z M 28.066406 28.066406 L 18.386719 28.066406 C 18.121094 28.066406 17.902344 27.847656 17.902344 27.582031 L 17.902344 21.289062 L 28.546875 21.289062 L 28.546875 27.582031 C 28.546875 27.847656 28.332031 28.066406 28.066406 28.066406 Z M 28.066406 28.066406 " fill-opacity="1" fill-rule="nonzero"/></g><path fill="#31ac7d" d="M 6.289062 13.546875 L 3.871094 13.546875 C 3.605469 13.546875 3.386719 13.765625 3.386719 14.03125 L 3.386719 17.902344 C 3.386719 18.167969 3.605469 18.386719 3.871094 18.386719 L 6.289062 18.386719 C 6.554688 18.386719 6.773438 18.167969 6.773438 17.902344 L 6.773438 14.03125 C 6.773438 13.765625 6.554688 13.546875 6.289062 13.546875 Z M 5.804688 17.417969 L 4.355469 17.417969 L 4.355469 14.515625 L 5.804688 14.515625 Z M 5.804688 17.417969 " fill-opacity="1" fill-rule="nonzero"/><path fill="#31ac7d" d="M 8.226562 18.386719 L 10.644531 18.386719 C 10.910156 18.386719 11.128906 18.167969 11.128906 17.902344 L 11.128906 11.128906 C 11.128906 10.863281 10.910156 10.644531 10.644531 10.644531 L 8.226562 10.644531 C 7.960938 10.644531 7.742188 10.863281 7.742188 11.128906 L 7.742188 17.902344 C 7.742188 18.167969 7.960938 18.386719 8.226562 18.386719 Z M 8.710938 11.613281 L 10.160156 11.613281 L 10.160156 17.417969 L 8.710938 17.417969 Z M 8.710938 11.613281 " fill-opacity="1" fill-rule="nonzero"/><path fill="#31ac7d" d="M 12.582031 12.097656 C 12.316406 12.097656 12.097656 12.316406 12.097656 12.582031 L 12.097656 17.902344 C 12.097656 18.167969 12.316406 18.386719 12.582031 18.386719 L 15 18.386719 C 15.265625 18.386719 15.484375 18.167969 15.484375 17.902344 L 15.484375 12.582031 C 15.484375 12.316406 15.265625 12.097656 15 12.097656 Z M 14.515625 17.417969 L 13.066406 17.417969 L 13.066406 13.066406 L 14.515625 13.066406 Z M 14.515625 17.417969 " fill-opacity="1" fill-rule="nonzero"/><path fill="#31ac7d" d="M 3.871094 6.289062 L 9.675781 6.289062 C 9.945312 6.289062 10.160156 6.074219 10.160156 5.804688 C 10.160156 5.539062 9.945312 5.324219 9.675781 5.324219 L 3.871094 5.324219 C 3.605469 5.324219 3.386719 5.539062 3.386719 5.804688 C 3.386719 6.074219 3.605469 6.289062 3.871094 6.289062 Z M 3.871094 6.289062 " fill-opacity="1" fill-rule="nonzero"/><path fill="#31ac7d" d="M 10.160156 7.742188 C 10.160156 7.476562 9.945312 7.257812 9.675781 7.257812 L 3.871094 7.257812 C 3.605469 7.257812 3.386719 7.476562 3.386719 7.742188 C 3.386719 8.007812 3.605469 8.226562 3.871094 8.226562 L 9.675781 8.226562 C 9.945312 8.226562 10.160156 8.007812 10.160156 7.742188 Z M 10.160156 7.742188 " fill-opacity="1" fill-rule="nonzero"/><path fill="#31ac7d" d="M 6.289062 9.195312 L 3.871094 9.195312 C 3.605469 9.195312 3.386719 9.410156 3.386719 9.675781 C 3.386719 9.945312 3.605469 10.160156 3.871094 10.160156 L 6.289062 10.160156 C 6.554688 10.160156 6.773438 9.945312 6.773438 9.675781 C 6.773438 9.410156 6.554688 9.195312 6.289062 9.195312 Z M 6.289062 9.195312 " fill-opacity="1" fill-rule="nonzero"/><g clip-path="url(#f9a5eedf22)"><path fill="#31ac7d" d="M 24.195312 10.644531 C 27.128906 10.644531 29.515625 8.257812 29.515625 5.324219 C 29.515625 2.386719 27.128906 0 24.195312 0 C 21.257812 0 18.871094 2.386719 18.871094 5.324219 C 18.871094 8.257812 21.257812 10.644531 24.195312 10.644531 Z M 24.195312 0.96875 C 26.59375 0.96875 28.546875 2.921875 28.546875 5.324219 C 28.546875 7.722656 26.59375 9.675781 24.195312 9.675781 C 21.792969 9.675781 19.839844 7.722656 19.839844 5.324219 C 19.839844 2.921875 21.792969 0.96875 24.195312 0.96875 Z M 24.195312 0.96875 " fill-opacity="1" fill-rule="nonzero"/></g><path fill="#31ac7d" d="M 23.925781 5.722656 L 25.378906 6.691406 C 25.460938 6.746094 25.554688 6.773438 25.644531 6.773438 C 25.800781 6.773438 25.953125 6.695312 26.046875 6.554688 C 26.195312 6.332031 26.132812 6.035156 25.910156 5.882812 L 24.675781 5.0625 L 24.675781 2.902344 C 24.675781 2.636719 24.460938 2.417969 24.195312 2.417969 C 23.925781 2.417969 23.710938 2.636719 23.710938 2.902344 L 23.710938 5.324219 C 23.710938 5.480469 23.792969 5.636719 23.925781 5.722656 Z M 23.925781 5.722656 " fill-opacity="1" fill-rule="nonzero"/><path fill="#31ac7d" d="M 21.289062 22.257812 L 19.355469 22.257812 C 19.089844 22.257812 18.871094 22.476562 18.871094 22.742188 L 18.871094 24.675781 C 18.871094 24.945312 19.089844 25.160156 19.355469 25.160156 L 21.289062 25.160156 C 21.554688 25.160156 21.773438 24.945312 21.773438 24.675781 L 21.773438 22.742188 C 21.773438 22.476562 21.554688 22.257812 21.289062 22.257812 Z M 20.804688 24.195312 L 19.839844 24.195312 L 19.839844 23.226562 L 20.804688 23.226562 Z M 20.804688 24.195312 " fill-opacity="1" fill-rule="nonzero"/></svg>