<svg xmlns="http://www.w3.org/2000/svg" xmlns:xlink="http://www.w3.org/1999/xlink" width="40" zoomAndPan="magnify" viewBox="0 0 30 30.000001" height="40" preserveAspectRatio="xMidYMid meet" version="1.0"><defs><clipPath id="936a0dabe8"><path d="M 1 15 L 29 15 L 29 28.199219 L 1 28.199219 Z M 1 15 " clip-rule="nonzero"/></clipPath><clipPath id="57d350e79f"><path d="M 1 0.617188 L 29 0.617188 L 29 14 L 1 14 Z M 1 0.617188 " clip-rule="nonzero"/></clipPath><clipPath id="98e0f4bfa4"><path d="M 0.484375 12 L 4 12 L 4 16 L 0.484375 16 Z M 0.484375 12 " clip-rule="nonzero"/></clipPath><clipPath id="2babb5094a"><path d="M 26 13 L 29.515625 13 L 29.515625 17 L 26 17 Z M 26 13 " clip-rule="nonzero"/></clipPath></defs><g clip-path="url(#936a0dabe8)"><path fill="#31ac7d" d="M 15.007812 28.414062 C 7.765625 28.414062 1.875 22.851562 1.875 16.015625 C 1.875 15.832031 2.023438 15.683594 2.207031 15.683594 C 2.390625 15.683594 2.539062 15.835938 2.539062 16.015625 C 2.539062 22.488281 8.132812 27.75 15.007812 27.75 C 21.882812 27.75 27.476562 22.484375 27.476562 16.015625 C 27.476562 15.832031 27.625 15.683594 27.808594 15.683594 C 27.992188 15.683594 28.140625 15.835938 28.140625 16.015625 C 28.140625 22.851562 22.25 28.414062 15.007812 28.414062 Z M 15.007812 28.414062 " fill-opacity="1" fill-rule="evenodd"/></g><g clip-path="url(#57d350e79f)"><path fill="#31ac7d" d="M 27.808594 13.34375 C 27.625 13.34375 27.476562 13.195312 27.476562 13.011719 C 27.476562 6.542969 21.882812 1.28125 15.007812 1.28125 C 8.332031 1.28125 2.859375 6.191406 2.550781 12.460938 C 2.542969 12.640625 2.539062 12.828125 2.539062 13.011719 C 2.539062 13.195312 2.390625 13.34375 2.207031 13.34375 C 2.023438 13.34375 1.875 13.195312 1.875 13.011719 C 1.875 12.816406 1.878906 12.621094 1.890625 12.425781 C 2.214844 5.804688 7.976562 0.617188 15.007812 0.617188 C 22.25 0.617188 28.140625 6.175781 28.140625 13.011719 C 28.140625 13.195312 27.992188 13.34375 27.808594 13.34375 Z M 27.808594 13.34375 " fill-opacity="1" fill-rule="evenodd"/></g><g clip-path="url(#98e0f4bfa4)"><path fill="#31ac7d" d="M 2.1875 15.070312 C 2.082031 15.070312 1.984375 15.019531 1.921875 14.9375 L 0.59375 13.164062 C 0.484375 13.015625 0.515625 12.808594 0.660156 12.699219 C 0.808594 12.589844 1.015625 12.617188 1.125 12.765625 L 2.1875 14.1875 L 3.253906 12.765625 C 3.367188 12.617188 3.574219 12.589844 3.71875 12.699219 C 3.867188 12.808594 3.894531 13.015625 3.785156 13.164062 L 2.453125 14.9375 C 2.390625 15.023438 2.292969 15.070312 2.1875 15.070312 Z M 2.1875 15.070312 " fill-opacity="1" fill-rule="evenodd"/></g><g clip-path="url(#2babb5094a)"><path fill="#31ac7d" d="M 26.476562 16.234375 C 26.410156 16.234375 26.339844 16.210938 26.28125 16.167969 C 26.132812 16.058594 26.101562 15.851562 26.210938 15.703125 L 27.539062 13.929688 C 27.601562 13.847656 27.699219 13.796875 27.804688 13.796875 C 27.910156 13.796875 28.007812 13.84375 28.070312 13.929688 L 29.402344 15.703125 C 29.511719 15.851562 29.484375 16.058594 29.335938 16.167969 C 29.191406 16.277344 28.984375 16.246094 28.871094 16.101562 L 27.804688 14.679688 L 26.742188 16.101562 C 26.679688 16.1875 26.578125 16.234375 26.476562 16.234375 Z M 26.476562 16.234375 " fill-opacity="1" fill-rule="evenodd"/></g><path fill="#31ac7d" d="M 21.304688 22.320312 L 8.695312 22.320312 C 6.777344 22.320312 5.222656 20.765625 5.222656 18.851562 C 5.222656 17.125 6.515625 15.667969 8.183594 15.417969 C 8.085938 15.054688 8.039062 14.683594 8.039062 14.304688 C 8.039062 11.910156 9.984375 9.964844 12.375 9.964844 C 13.882812 9.964844 15.253906 10.730469 16.042969 11.988281 C 16.648438 11.519531 17.390625 11.265625 18.167969 11.265625 C 20.082031 11.265625 21.636719 12.820312 21.636719 14.734375 C 21.636719 14.957031 21.617188 15.175781 21.578125 15.390625 C 23.363281 15.527344 24.777344 17.027344 24.777344 18.851562 C 24.777344 20.765625 23.21875 22.320312 21.304688 22.320312 Z M 12.375 10.628906 C 10.347656 10.628906 8.699219 12.277344 8.699219 14.304688 C 8.699219 14.746094 8.777344 15.183594 8.933594 15.59375 C 8.972656 15.695312 8.957031 15.808594 8.898438 15.898438 C 8.839844 15.988281 8.738281 16.039062 8.628906 16.042969 C 7.117188 16.078125 5.886719 17.335938 5.886719 18.851562 C 5.886719 20.398438 7.144531 21.65625 8.695312 21.65625 L 21.304688 21.65625 C 22.855469 21.65625 24.113281 20.398438 24.113281 18.851562 C 24.113281 17.300781 22.855469 16.042969 21.304688 16.042969 C 21.257812 16.042969 21.210938 16.042969 21.164062 16.046875 C 21.058594 16.050781 20.953125 16.003906 20.886719 15.914062 C 20.820312 15.828125 20.800781 15.714844 20.835938 15.613281 C 20.925781 15.332031 20.972656 15.035156 20.972656 14.738281 C 20.972656 13.1875 19.714844 11.929688 18.167969 11.929688 C 17.421875 11.929688 16.71875 12.21875 16.1875 12.742188 C 16.113281 12.816406 16.007812 12.851562 15.902344 12.835938 C 15.796875 12.816406 15.707031 12.75 15.660156 12.65625 C 15.03125 11.40625 13.773438 10.628906 12.375 10.628906 Z M 12.375 10.628906 " fill-opacity="1" fill-rule="evenodd"/><path fill="#31ac7d" d="M 21.304688 20.625 L 8.695312 20.625 C 7.714844 20.625 6.917969 19.828125 6.917969 18.851562 C 6.917969 17.894531 7.695312 17.097656 8.652344 17.078125 L 10.578125 17.035156 L 9.902344 15.230469 C 9.789062 14.933594 9.734375 14.621094 9.734375 14.304688 C 9.734375 12.847656 10.917969 11.664062 12.375 11.664062 C 13.378906 11.664062 14.285156 12.222656 14.734375 13.121094 C 14.816406 13.285156 14.753906 13.484375 14.589844 13.566406 C 14.425781 13.648438 14.226562 13.582031 14.144531 13.417969 C 13.804688 12.746094 13.125 12.324219 12.375 12.324219 C 11.285156 12.324219 10.398438 13.214844 10.398438 14.304688 C 10.398438 14.542969 10.4375 14.777344 10.523438 15 L 11.363281 17.238281 C 11.402344 17.339844 11.386719 17.453125 11.328125 17.542969 C 11.265625 17.628906 11.167969 17.683594 11.058594 17.6875 L 8.667969 17.738281 C 8.070312 17.753906 7.582031 18.25 7.582031 18.851562 C 7.582031 19.460938 8.082031 19.960938 8.695312 19.960938 L 21.304688 19.960938 C 21.488281 19.960938 21.636719 20.109375 21.636719 20.292969 C 21.636719 20.476562 21.488281 20.625 21.304688 20.625 Z M 21.304688 20.625 " fill-opacity="1" fill-rule="evenodd"/><path fill="#31ac7d" d="M 15.957031 12.839844 C 15.9375 12.839844 15.917969 12.835938 15.902344 12.835938 C 15.796875 12.816406 15.707031 12.75 15.660156 12.65625 C 15.03125 11.40625 13.773438 10.628906 12.375 10.628906 C 12.277344 10.628906 12.183594 10.632812 12.089844 10.640625 C 11.984375 10.648438 11.886719 10.609375 11.816406 10.53125 C 11.75 10.457031 11.71875 10.351562 11.738281 10.25 C 12.109375 8.171875 13.917969 6.660156 16.035156 6.660156 C 18.441406 6.660156 20.398438 8.617188 20.398438 11.023438 C 20.398438 11.429688 20.34375 11.832031 20.230469 12.21875 C 20.203125 12.320312 20.125 12.402344 20.027344 12.4375 C 19.925781 12.476562 19.816406 12.460938 19.726562 12.402344 C 19.265625 12.09375 18.726562 11.929688 18.167969 11.929688 C 17.421875 11.929688 16.71875 12.21875 16.1875 12.742188 C 16.125 12.804688 16.042969 12.839844 15.957031 12.839844 Z M 12.484375 9.96875 C 13.949219 10.003906 15.273438 10.761719 16.042969 11.988281 C 16.648438 11.519531 17.386719 11.265625 18.167969 11.265625 C 18.699219 11.265625 19.214844 11.386719 19.6875 11.613281 C 19.71875 11.421875 19.734375 11.222656 19.734375 11.023438 C 19.734375 8.984375 18.074219 7.324219 16.035156 7.324219 C 14.375 7.324219 12.945312 8.414062 12.484375 9.96875 Z M 12.484375 9.96875 " fill-opacity="1" fill-rule="evenodd"/><path fill="#31ac7d" d="M 16.035156 5.808594 C 15.851562 5.808594 15.703125 5.65625 15.703125 5.476562 L 15.703125 4.0625 C 15.703125 3.878906 15.851562 3.730469 16.035156 3.730469 C 16.214844 3.730469 16.363281 3.878906 16.363281 4.0625 L 16.363281 5.476562 C 16.363281 5.660156 16.214844 5.808594 16.035156 5.808594 Z M 16.035156 5.808594 " fill-opacity="1" fill-rule="evenodd"/><path fill="#31ac7d" d="M 13.257812 6.550781 C 13.144531 6.550781 13.03125 6.492188 12.972656 6.382812 L 12.265625 5.160156 C 12.171875 5 12.226562 4.796875 12.386719 4.707031 C 12.542969 4.613281 12.746094 4.667969 12.839844 4.828125 L 13.546875 6.050781 C 13.636719 6.210938 13.582031 6.414062 13.425781 6.503906 C 13.371094 6.535156 13.316406 6.550781 13.257812 6.550781 Z M 13.257812 6.550781 " fill-opacity="1" fill-rule="evenodd"/><path fill="#31ac7d" d="M 11.226562 8.582031 C 11.171875 8.582031 11.113281 8.566406 11.0625 8.535156 L 9.835938 7.828125 C 9.679688 7.738281 9.625 7.535156 9.714844 7.375 C 9.808594 7.21875 10.007812 7.164062 10.167969 7.253906 L 11.394531 7.960938 C 11.550781 8.054688 11.605469 8.257812 11.515625 8.414062 C 11.453125 8.523438 11.339844 8.582031 11.226562 8.582031 Z M 11.226562 8.582031 " fill-opacity="1" fill-rule="evenodd"/><path fill="#31ac7d" d="M 18.808594 6.550781 C 18.75 6.550781 18.695312 6.535156 18.640625 6.503906 C 18.484375 6.414062 18.429688 6.210938 18.519531 6.050781 L 19.226562 4.828125 C 19.320312 4.667969 19.523438 4.617188 19.679688 4.707031 C 19.839844 4.796875 19.894531 5 19.800781 5.160156 L 19.09375 6.382812 C 19.035156 6.492188 18.921875 6.550781 18.808594 6.550781 Z M 18.808594 6.550781 " fill-opacity="1" fill-rule="evenodd"/><path fill="#31ac7d" d="M 20.839844 8.582031 C 20.722656 8.582031 20.613281 8.523438 20.550781 8.414062 C 20.460938 8.257812 20.515625 8.054688 20.671875 7.960938 L 21.898438 7.253906 C 22.054688 7.164062 22.257812 7.21875 22.351562 7.375 C 22.441406 7.535156 22.386719 7.738281 22.230469 7.828125 L 21.003906 8.535156 C 20.953125 8.566406 20.894531 8.582031 20.839844 8.582031 Z M 20.839844 8.582031 " fill-opacity="1" fill-rule="evenodd"/><path fill="#31ac7d" d="M 22.996094 11.355469 L 21.582031 11.355469 C 21.398438 11.355469 21.25 11.207031 21.25 11.023438 C 21.25 10.839844 21.398438 10.691406 21.582031 10.691406 L 22.996094 10.691406 C 23.179688 10.691406 23.328125 10.839844 23.328125 11.023438 C 23.328125 11.207031 23.179688 11.355469 22.996094 11.355469 Z M 22.996094 11.355469 " fill-opacity="1" fill-rule="evenodd"/></svg>