<svg xmlns="http://www.w3.org/2000/svg" xmlns:xlink="http://www.w3.org/1999/xlink" width="152" zoomAndPan="magnify" viewBox="0 0 114 33.749998" height="45" preserveAspectRatio="xMidYMid meet" version="1.0"><defs><g/><clipPath id="c8108bcbc4"><path d="M 6 14 L 31.6875 14 L 31.6875 19 L 6 19 Z M 6 14 " clip-rule="nonzero"/></clipPath><clipPath id="6717604d51"><path d="M 11 5 L 31.6875 5 L 31.6875 10 L 11 10 Z M 11 5 " clip-rule="nonzero"/></clipPath><clipPath id="9adeaf2b47"><path d="M 22 9 L 31.6875 9 L 31.6875 14 L 22 14 Z M 22 9 " clip-rule="nonzero"/></clipPath><clipPath id="72ee77fb4b"><path d="M 0.417969 14 L 5 14 L 5 19 L 0.417969 19 Z M 0.417969 14 " clip-rule="nonzero"/></clipPath><clipPath id="e9cec58abb"><path d="M 12 19 L 31.6875 19 L 31.6875 24 L 12 24 Z M 12 19 " clip-rule="nonzero"/></clipPath><clipPath id="99bfb1bd5a"><path d="M 14 24 L 31.6875 24 L 31.6875 29 L 14 29 Z M 14 24 " clip-rule="nonzero"/></clipPath></defs><g clip-path="url(#c8108bcbc4)"><path fill="#3067ff" d="M 42.960938 14.722656 L 22.609375 14.722656 L 21.738281 16.226562 L 19.726562 16.226562 L 18.859375 14.722656 C 18.109375 14.722656 8.71875 14.722656 7.96875 14.722656 L 6.84375 16.667969 L 7.96875 18.617188 C 8.71875 18.617188 18.109375 18.617188 18.859375 18.617188 L 19.726562 17.113281 L 21.738281 17.113281 L 22.609375 18.617188 L 42.960938 18.617188 C 43.1875 17.328125 43.1875 16.011719 42.960938 14.722656 Z M 42.960938 14.722656 " fill-opacity="1" fill-rule="nonzero"/></g><g clip-path="url(#6717604d51)"><path fill="#3067ff" d="M 15.019531 9.042969 L 15.886719 7.542969 L 17.898438 7.542969 L 18.769531 9.042969 L 40.226562 9.042969 C 36.195312 4.496094 31.671875 5.148438 26.21875 5.148438 L 18.769531 5.148438 L 17.898438 6.648438 L 15.886719 6.648438 L 15.019531 5.148438 L 12.769531 5.148438 L 11.644531 7.09375 L 12.769531 9.039062 L 15.019531 9.039062 Z M 15.019531 9.042969 " fill-opacity="1" fill-rule="nonzero"/></g><g clip-path="url(#9adeaf2b47)"><path fill="#3067ff" d="M 28.460938 11.4375 L 26.449219 11.4375 L 25.578125 9.9375 L 23.332031 9.9375 L 22.207031 11.882812 L 23.332031 13.832031 L 25.578125 13.832031 L 26.449219 12.328125 L 28.460938 12.328125 L 29.332031 13.832031 L 42.773438 13.832031 C 42.410156 12.410156 41.78125 11.089844 40.941406 9.933594 L 29.332031 9.933594 Z M 28.460938 11.4375 " fill-opacity="1" fill-rule="nonzero"/></g><g clip-path="url(#72ee77fb4b)"><path fill="#3067ff" d="M 1.550781 14.722656 L 0.425781 16.667969 L 1.550781 18.621094 L 3.800781 18.621094 L 4.925781 16.667969 L 3.800781 14.722656 Z M 1.550781 14.722656 " fill-opacity="1" fill-rule="nonzero"/></g><path fill="#3067ff" d="M 15.789062 11.882812 L 16.910156 13.832031 L 19.164062 13.832031 L 20.289062 11.882812 L 19.164062 9.9375 L 16.910156 9.9375 Z M 15.789062 11.882812 " fill-opacity="1" fill-rule="nonzero"/><path fill="#3067ff" d="M 9.230469 24.292969 L 8.105469 26.246094 L 9.230469 28.191406 L 11.480469 28.191406 L 12.605469 26.246094 L 11.480469 24.292969 Z M 9.230469 24.292969 " fill-opacity="1" fill-rule="nonzero"/><g clip-path="url(#e9cec58abb)"><path fill="#3067ff" d="M 18.859375 21.011719 L 16.847656 21.011719 L 15.976562 19.507812 L 13.726562 19.507812 L 12.605469 21.457031 L 13.726562 23.402344 L 15.976562 23.402344 L 16.847656 21.898438 L 18.859375 21.898438 L 19.726562 23.402344 L 40.9375 23.402344 C 41.777344 22.242188 42.40625 20.925781 42.769531 19.503906 C 35.726562 19.503906 26.765625 19.503906 19.722656 19.503906 Z M 18.859375 21.011719 " fill-opacity="1" fill-rule="nonzero"/></g><g clip-path="url(#99bfb1bd5a)"><path fill="#3067ff" d="M 24.621094 25.800781 L 22.609375 25.800781 L 21.738281 24.296875 C 19.710938 24.296875 17.679688 24.296875 15.648438 24.296875 L 14.523438 26.246094 L 15.648438 28.191406 C 17.679688 28.191406 19.707031 28.191406 21.738281 28.191406 L 22.609375 26.691406 L 24.621094 26.691406 L 25.492188 28.191406 C 31.25 28.191406 36.089844 28.960938 40.226562 24.292969 L 25.492188 24.292969 Z M 24.621094 25.800781 " fill-opacity="1" fill-rule="nonzero"/></g><g fill="#000000" fill-opacity="1"><g transform="translate(36.459919, 17.518089)"><g><path d="M 1.085938 0 L 1.085938 -9.585938 L 3.742188 -9.585938 C 5.308594 -9.585938 6.523438 -9.160156 7.386719 -8.3125 C 8.246094 -7.464844 8.679688 -6.265625 8.679688 -4.71875 C 8.679688 -3.195312 8.25 -2.027344 7.398438 -1.21875 C 6.546875 -0.40625 5.320312 0 3.726562 0 Z M 2.296875 -1.113281 L 3.617188 -1.113281 C 4.433594 -1.113281 5.128906 -1.234375 5.699219 -1.476562 C 6.273438 -1.722656 6.707031 -2.109375 7.007812 -2.648438 C 7.304688 -3.183594 7.453125 -3.886719 7.453125 -4.757812 C 7.453125 -5.628906 7.304688 -6.335938 7.007812 -6.882812 C 6.707031 -7.429688 6.28125 -7.828125 5.726562 -8.085938 C 5.171875 -8.34375 4.507812 -8.472656 3.726562 -8.472656 L 2.296875 -8.472656 Z M 2.296875 -1.113281 "/></g></g></g><g fill="#000000" fill-opacity="1"><g transform="translate(48.58718, 17.518089)"><g><path d="M 3.546875 0 L 3.546875 -3.699219 L 0.164062 -9.585938 L 1.539062 -9.585938 L 4.113281 -4.910156 L 6.738281 -9.585938 L 8.113281 -9.585938 L 4.757812 -3.699219 L 4.757812 0 Z M 3.546875 0 "/></g></g></g><g fill="#000000" fill-opacity="1"><g transform="translate(59.61467, 17.518089)"><g><path d="M 1.085938 0 L 1.085938 -9.585938 L 2.367188 -9.585938 L 7.273438 -1.566406 L 7 -1.566406 L 7 -9.585938 L 8.210938 -9.585938 L 8.210938 0 L 6.902344 0 L 2.023438 -8.03125 L 2.296875 -8.03125 L 2.296875 0 Z M 1.085938 0 "/></g></g></g><g fill="#000000" fill-opacity="1"><g transform="translate(71.659445, 17.518089)"><g><path d="M 0.234375 0 L 3.890625 -9.585938 L 4.855469 -9.585938 L 8.511719 0 L 7.191406 0 L 4.386719 -7.851562 L 1.566406 0 Z M 2.269531 -2.253906 L 2.640625 -3.34375 L 6.105469 -3.34375 L 6.503906 -2.253906 Z M 2.269531 -2.253906 "/></g></g></g><g fill="#000000" fill-opacity="1"><g transform="translate(83.168092, 17.518089)"><g><path d="M 1.085938 0 L 1.085938 -9.585938 L 2.875 -9.585938 L 5.886719 -2.007812 L 5.667969 -2.007812 L 8.679688 -9.585938 L 10.453125 -9.585938 L 10.453125 0 L 9.242188 0 L 9.242188 -8.183594 L 9.339844 -8.167969 L 6.367188 -0.8125 L 5.183594 -0.8125 L 2.199219 -8.167969 L 2.296875 -8.183594 L 2.296875 0 Z M 1.085938 0 "/></g></g></g><g fill="#000000" fill-opacity="1"><g transform="translate(97.453659, 17.518089)"><g><path d="M 1.085938 -9.585938 L 2.296875 -9.585938 L 2.296875 0 L 1.085938 0 Z M 1.085938 -9.585938 "/></g></g></g><g fill="#000000" fill-opacity="1"><g transform="translate(103.587178, 17.518089)"><g><path d="M 5.117188 0.164062 C 4.234375 0.164062 3.464844 -0.0429688 2.796875 -0.453125 C 2.132812 -0.867188 1.617188 -1.445312 1.246094 -2.195312 C 0.875 -2.941406 0.6875 -3.808594 0.6875 -4.800781 C 0.6875 -5.789062 0.875 -6.65625 1.246094 -7.398438 C 1.617188 -8.140625 2.132812 -8.71875 2.796875 -9.132812 C 3.464844 -9.542969 4.234375 -9.75 5.117188 -9.75 C 6.078125 -9.75 6.914062 -9.511719 7.617188 -9.035156 C 8.324219 -8.558594 8.832031 -7.898438 9.144531 -7.054688 L 8.019531 -6.628906 C 7.78125 -7.253906 7.414062 -7.734375 6.917969 -8.078125 C 6.421875 -8.421875 5.820312 -8.59375 5.117188 -8.59375 C 4.464844 -8.59375 3.898438 -8.4375 3.410156 -8.128906 C 2.925781 -7.816406 2.550781 -7.378906 2.289062 -6.8125 C 2.027344 -6.25 1.898438 -5.578125 1.898438 -4.800781 C 1.898438 -4.019531 2.027344 -3.347656 2.289062 -2.777344 C 2.550781 -2.210938 2.925781 -1.769531 3.410156 -1.457031 C 3.898438 -1.144531 4.464844 -0.988281 5.117188 -0.988281 C 5.820312 -0.988281 6.421875 -1.164062 6.917969 -1.511719 C 7.414062 -1.859375 7.78125 -2.34375 8.019531 -2.957031 L 9.144531 -2.542969 C 8.832031 -1.710938 8.324219 -1.050781 7.617188 -0.5625 C 6.914062 -0.078125 6.078125 0.164062 5.117188 0.164062 Z M 5.117188 0.164062 "/></g></g></g><g fill="#000000" fill-opacity="1"><g transform="translate(44.708199, 26.344682)"><g><path d="M 1.820312 0.0703125 C 1.386719 0.0703125 1.027344 -0.046875 0.75 -0.273438 C 0.46875 -0.503906 0.300781 -0.808594 0.238281 -1.1875 L 0.773438 -1.316406 C 0.820312 -1.027344 0.9375 -0.804688 1.132812 -0.652344 C 1.324219 -0.5 1.5625 -0.425781 1.839844 -0.425781 C 2.003906 -0.425781 2.148438 -0.457031 2.277344 -0.519531 C 2.40625 -0.582031 2.507812 -0.667969 2.582031 -0.78125 C 2.660156 -0.898438 2.695312 -1.027344 2.695312 -1.171875 C 2.695312 -1.328125 2.652344 -1.453125 2.570312 -1.554688 C 2.488281 -1.652344 2.371094 -1.742188 2.226562 -1.816406 C 2.078125 -1.890625 1.90625 -1.964844 1.710938 -2.039062 C 1.46875 -2.132812 1.257812 -2.230469 1.078125 -2.339844 C 0.894531 -2.449219 0.753906 -2.578125 0.65625 -2.730469 C 0.554688 -2.882812 0.503906 -3.066406 0.503906 -3.289062 C 0.503906 -3.507812 0.558594 -3.703125 0.667969 -3.875 C 0.777344 -4.046875 0.929688 -4.179688 1.125 -4.277344 C 1.320312 -4.375 1.546875 -4.425781 1.804688 -4.425781 C 2.078125 -4.425781 2.320312 -4.363281 2.535156 -4.238281 C 2.746094 -4.113281 2.917969 -3.925781 3.046875 -3.683594 L 2.609375 -3.414062 C 2.511719 -3.585938 2.394531 -3.714844 2.257812 -3.804688 C 2.121094 -3.894531 1.964844 -3.9375 1.785156 -3.9375 C 1.644531 -3.9375 1.515625 -3.910156 1.40625 -3.855469 C 1.296875 -3.800781 1.210938 -3.726562 1.148438 -3.632812 C 1.085938 -3.535156 1.054688 -3.425781 1.054688 -3.300781 C 1.054688 -3.167969 1.09375 -3.054688 1.167969 -2.960938 C 1.242188 -2.867188 1.351562 -2.785156 1.492188 -2.714844 C 1.632812 -2.644531 1.804688 -2.570312 2.003906 -2.496094 C 2.257812 -2.402344 2.476562 -2.296875 2.660156 -2.183594 C 2.839844 -2.070312 2.984375 -1.9375 3.085938 -1.78125 C 3.1875 -1.625 3.238281 -1.433594 3.238281 -1.203125 C 3.238281 -0.957031 3.179688 -0.742188 3.058594 -0.550781 C 2.9375 -0.359375 2.769531 -0.207031 2.558594 -0.0976562 C 2.347656 0.0117188 2.101562 0.0703125 1.820312 0.0703125 Z M 1.820312 0.0703125 "/></g></g></g><g fill="#000000" fill-opacity="1"><g transform="translate(51.64758, 26.344682)"><g><path d="M 2.320312 0.0742188 C 1.921875 0.0742188 1.570312 -0.0195312 1.269531 -0.207031 C 0.96875 -0.394531 0.734375 -0.65625 0.566406 -0.992188 C 0.394531 -1.328125 0.3125 -1.722656 0.3125 -2.171875 C 0.3125 -2.625 0.394531 -3.019531 0.566406 -3.355469 C 0.734375 -3.695312 0.96875 -3.957031 1.269531 -4.144531 C 1.570312 -4.332031 1.921875 -4.425781 2.320312 -4.425781 C 2.730469 -4.425781 3.085938 -4.332031 3.386719 -4.144531 C 3.691406 -3.957031 3.929688 -3.695312 4.097656 -3.355469 C 4.265625 -3.019531 4.347656 -2.625 4.347656 -2.171875 C 4.347656 -1.722656 4.265625 -1.328125 4.09375 -0.992188 C 3.921875 -0.65625 3.6875 -0.394531 3.382812 -0.207031 C 3.078125 -0.0195312 2.726562 0.0742188 2.320312 0.0742188 Z M 2.320312 -0.449219 C 2.625 -0.449219 2.886719 -0.519531 3.105469 -0.660156 C 3.324219 -0.804688 3.492188 -1.003906 3.613281 -1.261719 C 3.734375 -1.519531 3.792969 -1.820312 3.792969 -2.171875 C 3.792969 -2.523438 3.734375 -2.832031 3.613281 -3.089844 C 3.492188 -3.347656 3.324219 -3.546875 3.105469 -3.6875 C 2.886719 -3.828125 2.625 -3.898438 2.320312 -3.898438 C 2.027344 -3.898438 1.769531 -3.832031 1.546875 -3.691406 C 1.328125 -3.550781 1.15625 -3.351562 1.039062 -3.09375 C 0.921875 -2.835938 0.859375 -2.53125 0.859375 -2.171875 C 0.859375 -1.816406 0.921875 -1.511719 1.039062 -1.253906 C 1.15625 -0.996094 1.328125 -0.796875 1.546875 -0.660156 C 1.769531 -0.519531 2.027344 -0.449219 2.320312 -0.449219 Z M 2.320312 -0.449219 "/></g></g></g><g fill="#000000" fill-opacity="1"><g transform="translate(59.735203, 26.344682)"><g><path d="M 0.492188 0 L 0.492188 -4.347656 L 1.042969 -4.347656 L 1.042969 -0.492188 L 2.988281 -0.492188 L 2.988281 0 Z M 0.492188 0 "/></g></g></g><g fill="#000000" fill-opacity="1"><g transform="translate(66.243993, 26.344682)"><g><path d="M 2.039062 0.0742188 C 1.523438 0.0742188 1.128906 -0.0664062 0.859375 -0.34375 C 0.585938 -0.621094 0.449219 -1.03125 0.449219 -1.574219 L 0.449219 -4.347656 L 1 -4.347656 L 1 -1.636719 C 1 -1.371094 1.03125 -1.152344 1.101562 -0.972656 C 1.171875 -0.792969 1.28125 -0.660156 1.433594 -0.566406 C 1.589844 -0.476562 1.789062 -0.429688 2.039062 -0.429688 C 2.289062 -0.429688 2.492188 -0.476562 2.648438 -0.570312 C 2.804688 -0.664062 2.917969 -0.800781 2.988281 -0.980469 C 3.058594 -1.160156 3.09375 -1.378906 3.09375 -1.640625 L 3.09375 -4.347656 L 3.636719 -4.347656 L 3.636719 -1.605469 C 3.636719 -1.054688 3.5 -0.636719 3.230469 -0.351562 C 2.957031 -0.0664062 2.5625 0.0742188 2.039062 0.0742188 Z M 2.039062 0.0742188 "/></g></g></g><g fill="#000000" fill-opacity="1"><g transform="translate(73.757495, 26.344682)"><g><path d="M 1.554688 0 L 1.554688 -3.855469 L 0.09375 -3.855469 L 0.09375 -4.347656 L 3.5625 -4.347656 L 3.5625 -3.855469 L 2.109375 -3.855469 L 2.109375 0 Z M 1.554688 0 "/></g></g></g><g fill="#000000" fill-opacity="1"><g transform="translate(80.840408, 26.344682)"><g><path d="M 0.492188 -4.347656 L 1.042969 -4.347656 L 1.042969 0 L 0.492188 0 Z M 0.492188 -4.347656 "/></g></g></g><g fill="#000000" fill-opacity="1"><g transform="translate(85.795322, 26.344682)"><g><path d="M 2.320312 0.0742188 C 1.921875 0.0742188 1.570312 -0.0195312 1.269531 -0.207031 C 0.96875 -0.394531 0.734375 -0.65625 0.566406 -0.992188 C 0.394531 -1.328125 0.3125 -1.722656 0.3125 -2.171875 C 0.3125 -2.625 0.394531 -3.019531 0.566406 -3.355469 C 0.734375 -3.695312 0.96875 -3.957031 1.269531 -4.144531 C 1.570312 -4.332031 1.921875 -4.425781 2.320312 -4.425781 C 2.730469 -4.425781 3.085938 -4.332031 3.386719 -4.144531 C 3.691406 -3.957031 3.929688 -3.695312 4.097656 -3.355469 C 4.265625 -3.019531 4.347656 -2.625 4.347656 -2.171875 C 4.347656 -1.722656 4.265625 -1.328125 4.09375 -0.992188 C 3.921875 -0.65625 3.6875 -0.394531 3.382812 -0.207031 C 3.078125 -0.0195312 2.726562 0.0742188 2.320312 0.0742188 Z M 2.320312 -0.449219 C 2.625 -0.449219 2.886719 -0.519531 3.105469 -0.660156 C 3.324219 -0.804688 3.492188 -1.003906 3.613281 -1.261719 C 3.734375 -1.519531 3.792969 -1.820312 3.792969 -2.171875 C 3.792969 -2.523438 3.734375 -2.832031 3.613281 -3.089844 C 3.492188 -3.347656 3.324219 -3.546875 3.105469 -3.6875 C 2.886719 -3.828125 2.625 -3.898438 2.320312 -3.898438 C 2.027344 -3.898438 1.769531 -3.832031 1.546875 -3.691406 C 1.328125 -3.550781 1.15625 -3.351562 1.039062 -3.09375 C 0.921875 -2.835938 0.859375 -2.53125 0.859375 -2.171875 C 0.859375 -1.816406 0.921875 -1.511719 1.039062 -1.253906 C 1.15625 -0.996094 1.328125 -0.796875 1.546875 -0.660156 C 1.769531 -0.519531 2.027344 -0.449219 2.320312 -0.449219 Z M 2.320312 -0.449219 "/></g></g></g><g fill="#000000" fill-opacity="1"><g transform="translate(93.882948, 26.344682)"><g><path d="M 0.492188 0 L 0.492188 -4.347656 L 1.074219 -4.347656 L 3.300781 -0.710938 L 3.175781 -0.710938 L 3.175781 -4.347656 L 3.726562 -4.347656 L 3.726562 0 L 3.132812 0 L 0.917969 -3.644531 L 1.042969 -3.644531 L 1.042969 0 Z M 0.492188 0 "/></g></g></g><g fill="#000000" fill-opacity="1"><g transform="translate(101.521263, 26.344682)"><g><path d="M 1.820312 0.0703125 C 1.386719 0.0703125 1.027344 -0.046875 0.75 -0.273438 C 0.46875 -0.503906 0.300781 -0.808594 0.238281 -1.1875 L 0.773438 -1.316406 C 0.820312 -1.027344 0.9375 -0.804688 1.132812 -0.652344 C 1.324219 -0.5 1.5625 -0.425781 1.839844 -0.425781 C 2.003906 -0.425781 2.148438 -0.457031 2.277344 -0.519531 C 2.40625 -0.582031 2.507812 -0.667969 2.582031 -0.78125 C 2.660156 -0.898438 2.695312 -1.027344 2.695312 -1.171875 C 2.695312 -1.328125 2.652344 -1.453125 2.570312 -1.554688 C 2.488281 -1.652344 2.371094 -1.742188 2.226562 -1.816406 C 2.078125 -1.890625 1.90625 -1.964844 1.710938 -2.039062 C 1.46875 -2.132812 1.257812 -2.230469 1.078125 -2.339844 C 0.894531 -2.449219 0.753906 -2.578125 0.65625 -2.730469 C 0.554688 -2.882812 0.503906 -3.066406 0.503906 -3.289062 C 0.503906 -3.507812 0.558594 -3.703125 0.667969 -3.875 C 0.777344 -4.046875 0.929688 -4.179688 1.125 -4.277344 C 1.320312 -4.375 1.546875 -4.425781 1.804688 -4.425781 C 2.078125 -4.425781 2.320312 -4.363281 2.535156 -4.238281 C 2.746094 -4.113281 2.917969 -3.925781 3.046875 -3.683594 L 2.609375 -3.414062 C 2.511719 -3.585938 2.394531 -3.714844 2.257812 -3.804688 C 2.121094 -3.894531 1.964844 -3.9375 1.785156 -3.9375 C 1.644531 -3.9375 1.515625 -3.910156 1.40625 -3.855469 C 1.296875 -3.800781 1.210938 -3.726562 1.148438 -3.632812 C 1.085938 -3.535156 1.054688 -3.425781 1.054688 -3.300781 C 1.054688 -3.167969 1.09375 -3.054688 1.167969 -2.960938 C 1.242188 -2.867188 1.351562 -2.785156 1.492188 -2.714844 C 1.632812 -2.644531 1.804688 -2.570312 2.003906 -2.496094 C 2.257812 -2.402344 2.476562 -2.296875 2.660156 -2.183594 C 2.839844 -2.070312 2.984375 -1.9375 3.085938 -1.78125 C 3.1875 -1.625 3.238281 -1.433594 3.238281 -1.203125 C 3.238281 -0.957031 3.179688 -0.742188 3.058594 -0.550781 C 2.9375 -0.359375 2.769531 -0.207031 2.558594 -0.0976562 C 2.347656 0.0117188 2.101562 0.0703125 1.820312 0.0703125 Z M 1.820312 0.0703125 "/></g></g></g><path stroke-linecap="round" transform="matrix(0, 0.744485, -0.744485, 0, 32.540826, 2.886321)" fill="none" stroke-linejoin="miter" d="M 0.498992 0.500826 L 36.71844 0.500826 " stroke="#0091ff" stroke-width="1" stroke-opacity="1" stroke-miterlimit="4"/></svg>