<svg xmlns="http://www.w3.org/2000/svg" xmlns:xlink="http://www.w3.org/1999/xlink" width="40" zoomAndPan="magnify" viewBox="0 0 30 30.000001" height="40" preserveAspectRatio="xMidYMid meet" version="1.0"><defs><clipPath id="a194fc2f23"><path d="M 0.484375 0 L 29.515625 0 L 29.515625 29.03125 L 0.484375 29.03125 Z M 0.484375 0 " clip-rule="nonzero"/></clipPath></defs><path fill="#31ac7d" d="M 11.0625 16.792969 L 10.449219 16.792969 C 9.335938 16.792969 8.429688 15.886719 8.429688 14.777344 L 8.429688 14.261719 C 8.429688 13.152344 9.335938 12.246094 10.449219 12.246094 L 11.0625 12.246094 C 11.835938 12.246094 12.464844 12.875 12.464844 13.644531 C 12.464844 13.828125 12.316406 13.976562 12.136719 13.976562 C 11.953125 13.976562 11.808594 13.828125 11.808594 13.644531 C 11.808594 13.238281 11.472656 12.902344 11.0625 12.902344 L 10.449219 12.902344 C 9.699219 12.902344 9.085938 13.515625 9.085938 14.261719 L 9.085938 14.777344 C 9.085938 15.527344 9.699219 16.136719 10.449219 16.136719 L 11.0625 16.136719 C 11.472656 16.136719 11.808594 15.800781 11.808594 15.390625 C 11.808594 15.210938 11.953125 15.0625 12.136719 15.0625 C 12.316406 15.0625 12.464844 15.210938 12.464844 15.390625 C 12.464844 16.164062 11.835938 16.792969 11.0625 16.792969 Z M 11.0625 16.792969 " fill-opacity="1" fill-rule="nonzero"/><path fill="#31ac7d" d="M 17.503906 16.792969 C 17.324219 16.792969 17.175781 16.644531 17.175781 16.464844 L 17.175781 14.070312 L 16.011719 16.601562 C 15.957031 16.71875 15.839844 16.792969 15.714844 16.792969 C 15.585938 16.792969 15.46875 16.71875 15.414062 16.601562 L 14.25 14.070312 L 14.25 16.464844 C 14.25 16.644531 14.101562 16.792969 13.921875 16.792969 C 13.738281 16.792969 13.589844 16.644531 13.589844 16.464844 L 13.589844 12.574219 C 13.589844 12.417969 13.699219 12.285156 13.851562 12.253906 C 14 12.21875 14.152344 12.296875 14.21875 12.4375 L 15.714844 15.679688 L 17.207031 12.4375 C 17.273438 12.296875 17.425781 12.21875 17.574219 12.253906 C 17.726562 12.285156 17.835938 12.421875 17.835938 12.574219 L 17.835938 16.464844 C 17.835938 16.644531 17.6875 16.792969 17.503906 16.792969 Z M 17.503906 16.792969 " fill-opacity="1" fill-rule="nonzero"/><path fill="#31ac7d" d="M 20.261719 16.792969 C 19.734375 16.792969 19.265625 16.476562 19.0625 15.992188 C 18.992188 15.824219 19.070312 15.628906 19.238281 15.5625 C 19.40625 15.492188 19.597656 15.570312 19.667969 15.738281 C 19.769531 15.980469 20.003906 16.136719 20.265625 16.136719 C 20.621094 16.136719 20.90625 15.847656 20.90625 15.492188 C 20.90625 15.136719 20.617188 14.847656 20.265625 14.847656 C 19.546875 14.847656 18.964844 14.265625 18.964844 13.546875 C 18.964844 12.828125 19.546875 12.246094 20.265625 12.246094 C 20.753906 12.246094 21.199219 12.515625 21.421875 12.953125 C 21.503906 13.117188 21.441406 13.3125 21.28125 13.394531 C 21.117188 13.480469 20.921875 13.414062 20.835938 13.253906 C 20.726562 13.039062 20.507812 12.902344 20.265625 12.902344 C 19.910156 12.902344 19.621094 13.191406 19.621094 13.546875 C 19.621094 13.902344 19.910156 14.191406 20.265625 14.191406 C 20.980469 14.191406 21.5625 14.773438 21.5625 15.492188 C 21.5625 16.207031 20.980469 16.792969 20.261719 16.792969 Z M 20.261719 16.792969 " fill-opacity="1" fill-rule="nonzero"/><g clip-path="url(#a194fc2f23)"><path fill="#31ac7d" d="M 16.152344 29.035156 L 13.839844 29.035156 C 13.28125 29.035156 12.847656 28.628906 12.679688 27.941406 L 12.132812 25.679688 C 11.078125 25.410156 10.070312 24.992188 9.132812 24.4375 L 7.140625 25.648438 C 6.542969 26.015625 5.945312 25.996094 5.550781 25.601562 L 3.914062 23.964844 C 3.519531 23.570312 3.5 22.976562 3.867188 22.375 L 5.078125 20.386719 C 4.523438 19.445312 4.105469 18.4375 3.835938 17.382812 L 1.574219 16.835938 C 0.890625 16.667969 0.480469 16.234375 0.480469 15.675781 L 0.480469 13.363281 C 0.480469 12.800781 0.890625 12.367188 1.574219 12.203125 L 3.835938 11.652344 C 4.105469 10.601562 4.523438 9.59375 5.082031 8.652344 L 3.867188 6.664062 C 3.5 6.0625 3.519531 5.46875 3.914062 5.070312 L 5.550781 3.4375 C 5.945312 3.039062 6.542969 3.023438 7.140625 3.386719 L 9.132812 4.601562 C 10.070312 4.042969 11.078125 3.628906 12.132812 3.359375 L 12.679688 1.09375 C 12.847656 0.410156 13.28125 0.00390625 13.839844 0.00390625 L 16.152344 0.00390625 C 16.714844 0.00390625 17.148438 0.410156 17.3125 1.09375 L 17.863281 3.355469 C 18.917969 3.628906 19.921875 4.042969 20.863281 4.601562 L 22.851562 3.386719 C 23.453125 3.019531 24.046875 3.039062 24.445312 3.4375 L 26.078125 5.070312 C 26.476562 5.46875 26.492188 6.0625 26.128906 6.664062 L 24.914062 8.652344 C 25.472656 9.589844 25.890625 10.597656 26.160156 11.652344 L 28.421875 12.203125 C 29.105469 12.367188 29.511719 12.800781 29.511719 13.363281 L 29.511719 15.675781 C 29.511719 16.234375 29.105469 16.667969 28.421875 16.835938 L 26.160156 17.382812 C 25.890625 18.4375 25.472656 19.445312 24.914062 20.382812 L 26.128906 22.375 C 26.496094 22.972656 26.476562 23.570312 26.082031 23.964844 L 24.445312 25.601562 C 24.046875 25.996094 23.453125 26.015625 22.851562 25.648438 L 20.863281 24.4375 C 19.925781 24.992188 18.917969 25.410156 17.863281 25.679688 L 17.3125 27.941406 C 17.148438 28.628906 16.714844 29.035156 16.152344 29.035156 Z M 9.132812 23.722656 C 9.191406 23.722656 9.25 23.738281 9.304688 23.773438 C 10.289062 24.378906 11.359375 24.824219 12.480469 25.089844 C 12.601562 25.117188 12.695312 25.210938 12.722656 25.332031 L 13.320312 27.789062 C 13.371094 28.007812 13.511719 28.378906 13.839844 28.378906 L 16.152344 28.378906 C 16.484375 28.378906 16.621094 28.007812 16.675781 27.789062 L 17.269531 25.332031 C 17.300781 25.210938 17.394531 25.117188 17.515625 25.089844 C 18.636719 24.820312 19.707031 24.378906 20.691406 23.769531 C 20.796875 23.707031 20.929688 23.707031 21.035156 23.769531 L 23.195312 25.085938 C 23.386719 25.203125 23.746094 25.367188 23.980469 25.132812 L 25.613281 23.5 C 25.847656 23.265625 25.683594 22.90625 25.566406 22.714844 L 24.25 20.554688 C 24.1875 20.449219 24.1875 20.316406 24.25 20.210938 C 24.859375 19.226562 25.300781 18.15625 25.566406 17.035156 C 25.597656 16.914062 25.691406 16.820312 25.808594 16.789062 L 28.265625 16.195312 C 28.488281 16.140625 28.855469 16.003906 28.855469 15.671875 L 28.855469 13.359375 C 28.855469 13.03125 28.488281 12.890625 28.265625 12.839844 L 25.808594 12.242188 C 25.691406 12.214844 25.597656 12.121094 25.566406 12 C 25.300781 10.875 24.859375 9.808594 24.25 8.820312 C 24.183594 8.71875 24.183594 8.585938 24.25 8.476562 L 25.566406 6.320312 C 25.683594 6.125 25.847656 5.765625 25.613281 5.535156 L 23.980469 3.902344 C 23.746094 3.667969 23.386719 3.832031 23.195312 3.949219 L 21.035156 5.265625 C 20.929688 5.332031 20.796875 5.332031 20.691406 5.265625 C 19.703125 4.660156 18.636719 4.214844 17.515625 3.949219 C 17.394531 3.921875 17.300781 3.824219 17.269531 3.707031 L 16.675781 1.25 C 16.621094 1.027344 16.484375 0.660156 16.152344 0.660156 L 13.839844 0.660156 C 13.511719 0.660156 13.371094 1.027344 13.320312 1.25 L 12.722656 3.707031 C 12.695312 3.824219 12.601562 3.917969 12.480469 3.949219 C 11.355469 4.214844 10.289062 4.65625 9.300781 5.265625 C 9.199219 5.332031 9.066406 5.332031 8.960938 5.265625 L 6.800781 3.949219 C 6.605469 3.832031 6.246094 3.667969 6.015625 3.902344 L 4.378906 5.535156 C 4.144531 5.769531 4.308594 6.128906 4.425781 6.320312 L 5.742188 8.480469 C 5.808594 8.585938 5.808594 8.71875 5.742188 8.824219 C 5.136719 9.8125 4.691406 10.878906 4.425781 12.003906 C 4.398438 12.121094 4.304688 12.214844 4.183594 12.246094 L 1.726562 12.84375 C 1.507812 12.894531 1.136719 13.035156 1.136719 13.363281 L 1.136719 15.675781 C 1.136719 16.003906 1.507812 16.144531 1.726562 16.195312 L 4.183594 16.792969 C 4.304688 16.820312 4.398438 16.917969 4.425781 17.035156 C 4.691406 18.160156 5.136719 19.230469 5.742188 20.214844 C 5.808594 20.320312 5.808594 20.453125 5.742188 20.558594 L 4.425781 22.714844 C 4.308594 22.910156 4.144531 23.269531 4.378906 23.503906 L 6.015625 25.136719 C 6.246094 25.371094 6.605469 25.207031 6.800781 25.089844 L 8.960938 23.773438 C 9.011719 23.738281 9.070312 23.722656 9.132812 23.722656 Z M 9.132812 23.722656 " fill-opacity="1" fill-rule="nonzero"/></g><path fill="#31ac7d" d="M 14.996094 24.324219 C 9.589844 24.324219 5.191406 19.925781 5.191406 14.519531 C 5.191406 9.109375 9.589844 4.710938 14.996094 4.710938 C 20.40625 4.710938 24.804688 9.109375 24.804688 14.519531 C 24.804688 19.925781 20.40625 24.324219 14.996094 24.324219 Z M 14.996094 5.367188 C 9.953125 5.367188 5.847656 9.472656 5.847656 14.519531 C 5.847656 19.566406 9.953125 23.667969 14.996094 23.667969 C 20.042969 23.667969 24.148438 19.566406 24.148438 14.519531 C 24.148438 9.472656 20.042969 5.367188 14.996094 5.367188 Z M 14.996094 5.367188 " fill-opacity="1" fill-rule="nonzero"/><path fill="#31ac7d" d="M 14.996094 22.953125 C 10.347656 22.953125 6.5625 19.167969 6.5625 14.519531 C 6.5625 9.867188 10.347656 6.082031 14.996094 6.082031 C 19.648438 6.082031 23.433594 9.867188 23.433594 14.519531 C 23.433594 19.167969 19.648438 22.953125 14.996094 22.953125 Z M 14.996094 6.742188 C 10.707031 6.742188 7.21875 10.230469 7.21875 14.519531 C 7.21875 18.808594 10.707031 22.296875 14.996094 22.296875 C 19.285156 22.296875 22.777344 18.808594 22.777344 14.519531 C 22.777344 10.230469 19.285156 6.742188 14.996094 6.742188 Z M 14.996094 6.742188 " fill-opacity="1" fill-rule="nonzero"/><path fill="#31ac7d" d="M 18.742188 10.414062 L 11.253906 10.414062 C 11.070312 10.414062 10.925781 10.265625 10.925781 10.085938 C 10.925781 9.902344 11.070312 9.757812 11.253906 9.757812 L 18.742188 9.757812 C 18.921875 9.757812 19.070312 9.902344 19.070312 10.085938 C 19.070312 10.265625 18.921875 10.414062 18.742188 10.414062 Z M 18.742188 10.414062 " fill-opacity="1" fill-rule="nonzero"/><path fill="#31ac7d" d="M 18.742188 19.28125 L 11.253906 19.28125 C 11.070312 19.28125 10.925781 19.132812 10.925781 18.953125 C 10.925781 18.769531 11.070312 18.625 11.253906 18.625 L 18.742188 18.625 C 18.921875 18.625 19.070312 18.769531 19.070312 18.953125 C 19.070312 19.132812 18.921875 19.28125 18.742188 19.28125 Z M 18.742188 19.28125 " fill-opacity="1" fill-rule="nonzero"/></svg>