<svg xmlns="http://www.w3.org/2000/svg" xmlns:xlink="http://www.w3.org/1999/xlink" width="40" zoomAndPan="magnify" viewBox="0 0 30 30.000001" height="40" preserveAspectRatio="xMidYMid meet" version="1.0"><defs><clipPath id="6f74b8afb7"><path d="M 0.484375 1.542969 L 29 1.542969 L 29 27.671875 L 0.484375 27.671875 Z M 0.484375 1.542969 " clip-rule="nonzero"/></clipPath></defs><path fill="#31ac7d" d="M 13.496094 15.726562 C 13.378906 15.589844 13.171875 15.574219 13.035156 15.691406 L 10.914062 17.519531 C 10.84375 17.582031 10.800781 17.671875 10.800781 17.765625 C 10.800781 17.863281 10.84375 17.953125 10.914062 18.015625 L 13.035156 19.84375 C 13.171875 19.960938 13.378906 19.949219 13.496094 19.808594 C 13.617188 19.671875 13.601562 19.464844 13.464844 19.347656 L 11.632812 17.765625 L 13.464844 16.191406 C 13.601562 16.074219 13.617188 15.867188 13.496094 15.726562 Z M 13.496094 15.726562 " fill-opacity="1" fill-rule="nonzero"/><path fill="#31ac7d" d="M 17.835938 15.691406 C 17.699219 15.574219 17.492188 15.589844 17.371094 15.726562 C 17.253906 15.863281 17.269531 16.074219 17.40625 16.191406 L 19.238281 17.769531 L 17.40625 19.347656 C 17.269531 19.464844 17.253906 19.671875 17.371094 19.8125 C 17.492188 19.949219 17.699219 19.964844 17.835938 19.84375 L 19.953125 18.015625 C 20.027344 17.953125 20.070312 17.863281 20.070312 17.769531 C 20.070312 17.671875 20.027344 17.582031 19.953125 17.519531 Z M 17.835938 15.691406 " fill-opacity="1" fill-rule="nonzero"/><path fill="#31ac7d" d="M 16.648438 14.644531 C 16.480469 14.582031 16.289062 14.664062 16.222656 14.832031 L 14.035156 20.464844 C 13.96875 20.636719 14.050781 20.824219 14.222656 20.890625 C 14.394531 20.957031 14.582031 20.871094 14.648438 20.703125 L 16.835938 15.070312 C 16.902344 14.902344 16.816406 14.710938 16.648438 14.644531 Z M 16.648438 14.644531 " fill-opacity="1" fill-rule="nonzero"/><path fill="#31ac7d" d="M 24.101562 9.609375 L 6.765625 9.609375 C 6.246094 9.609375 5.824219 10.03125 5.824219 10.554688 C 5.824219 14.4375 5.824219 19.441406 5.824219 21.679688 C 5.824219 22.199219 6.246094 22.621094 6.765625 22.621094 L 24.105469 22.621094 C 24.625 22.621094 25.046875 22.199219 25.046875 21.679688 C 25.046875 19.4375 25.046875 14.4375 25.046875 10.554688 C 25.046875 10.03125 24.625 9.609375 24.101562 9.609375 Z M 6.480469 10.554688 C 6.480469 10.394531 6.609375 10.265625 6.765625 10.265625 L 24.101562 10.265625 C 24.261719 10.265625 24.390625 10.394531 24.390625 10.554688 L 24.390625 12.40625 L 6.480469 12.40625 Z M 24.101562 21.964844 L 6.765625 21.964844 C 6.609375 21.964844 6.480469 21.835938 6.480469 21.679688 L 6.480469 13.0625 L 24.390625 13.0625 L 24.390625 21.679688 C 24.390625 21.835938 24.261719 21.964844 24.101562 21.964844 Z M 24.101562 21.964844 " fill-opacity="1" fill-rule="nonzero"/><g clip-path="url(#6f74b8afb7)"><path fill="#31ac7d" d="M 28.179688 24.136719 L 27.5 24.136719 L 27.5 9.078125 C 27.5 8.171875 26.765625 7.4375 25.859375 7.4375 L 7.632812 7.4375 L 7.511719 7.261719 C 7.609375 7.070312 7.691406 6.878906 7.75 6.683594 L 8.292969 6.589844 C 8.449219 6.5625 8.566406 6.425781 8.566406 6.265625 L 8.566406 5.109375 C 8.566406 4.953125 8.453125 4.816406 8.296875 4.785156 L 7.75 4.6875 C 7.691406 4.492188 7.609375 4.296875 7.511719 4.113281 L 7.828125 3.65625 C 7.917969 3.527344 7.902344 3.351562 7.789062 3.238281 L 6.96875 2.421875 C 6.855469 2.3125 6.679688 2.296875 6.550781 2.386719 L 6.101562 2.699219 C 5.914062 2.601562 5.722656 2.523438 5.523438 2.460938 L 5.425781 1.917969 C 5.398438 1.761719 5.261719 1.648438 5.101562 1.648438 L 3.945312 1.648438 C 3.789062 1.648438 3.652344 1.761719 3.625 1.917969 L 3.527344 2.460938 C 3.324219 2.523438 3.132812 2.601562 2.949219 2.699219 L 2.492188 2.382812 C 2.363281 2.296875 2.1875 2.308594 2.074219 2.421875 L 1.261719 3.238281 C 1.148438 3.351562 1.132812 3.527344 1.222656 3.65625 L 1.539062 4.113281 C 1.4375 4.296875 1.359375 4.492188 1.296875 4.6875 L 0.753906 4.785156 C 0.597656 4.816406 0.484375 4.953125 0.484375 5.109375 L 0.484375 6.265625 C 0.484375 6.425781 0.597656 6.5625 0.757812 6.589844 L 1.300781 6.683594 C 1.359375 6.878906 1.4375 7.070312 1.539062 7.261719 L 1.222656 7.714844 C 1.132812 7.84375 1.148438 8.019531 1.257812 8.132812 L 2.074219 8.953125 C 2.183594 9.066406 2.363281 9.082031 2.496094 8.988281 L 2.949219 8.671875 C 3.089844 8.746094 3.238281 8.808594 3.386719 8.863281 C 3.378906 8.933594 3.371094 9.003906 3.371094 9.078125 L 3.371094 24.136719 L 2.644531 24.136719 C 2.464844 24.136719 2.316406 24.285156 2.316406 24.464844 C 2.316406 26.109375 3.652344 27.386719 5.234375 27.386719 L 25.59375 27.386719 C 27.203125 27.386719 28.507812 26.074219 28.507812 24.464844 C 28.507812 24.285156 28.363281 24.136719 28.179688 24.136719 Z M 2.742188 8.015625 L 2.34375 8.292969 L 1.917969 7.863281 L 2.195312 7.46875 C 2.269531 7.363281 2.273438 7.222656 2.207031 7.109375 C 2.050781 6.851562 1.945312 6.59375 1.882812 6.324219 C 1.855469 6.195312 1.75 6.09375 1.621094 6.070312 L 1.140625 5.988281 L 1.140625 5.386719 L 1.617188 5.300781 C 1.746094 5.277344 1.847656 5.179688 1.878906 5.050781 C 1.945312 4.777344 2.054688 4.515625 2.207031 4.265625 C 2.273438 4.15625 2.269531 4.015625 2.195312 3.90625 L 1.917969 3.507812 L 2.34375 3.082031 L 2.746094 3.355469 C 2.851562 3.429688 2.992188 3.433594 3.105469 3.367188 C 3.34375 3.214844 3.605469 3.109375 3.886719 3.046875 C 4.015625 3.015625 4.113281 2.914062 4.136719 2.785156 L 4.222656 2.304688 L 4.828125 2.304688 L 4.914062 2.785156 C 4.9375 2.914062 5.035156 3.015625 5.164062 3.046875 C 5.4375 3.109375 5.699219 3.214844 5.945312 3.367188 C 6.058594 3.433594 6.199219 3.429688 6.304688 3.355469 L 6.699219 3.082031 L 7.128906 3.507812 L 6.851562 3.90625 C 6.777344 4.015625 6.773438 4.15625 6.84375 4.265625 C 6.996094 4.515625 7.105469 4.777344 7.171875 5.054688 C 7.199219 5.179688 7.304688 5.277344 7.429688 5.300781 L 7.910156 5.386719 L 7.910156 5.988281 L 7.429688 6.070312 C 7.296875 6.09375 7.195312 6.195312 7.164062 6.324219 C 7.105469 6.59375 7 6.851562 6.839844 7.109375 C 6.773438 7.222656 6.777344 7.363281 6.851562 7.46875 L 7.128906 7.863281 L 6.699219 8.292969 L 6.304688 8.015625 C 6.199219 7.941406 6.058594 7.9375 5.945312 8.003906 C 5.695312 8.15625 5.4375 8.261719 5.160156 8.328125 C 5.03125 8.359375 4.933594 8.460938 4.914062 8.589844 L 4.828125 9.070312 L 4.222656 9.070312 L 4.136719 8.589844 C 4.113281 8.460938 4.015625 8.359375 3.890625 8.328125 C 3.609375 8.261719 3.34375 8.15625 3.105469 8.007812 C 2.992188 7.9375 2.851562 7.941406 2.742188 8.015625 Z M 4.027344 9.730469 L 5.101562 9.730469 C 5.261719 9.730469 5.398438 9.613281 5.425781 9.457031 L 5.523438 8.910156 C 5.722656 8.851562 5.914062 8.769531 6.097656 8.671875 L 6.550781 8.988281 C 6.679688 9.082031 6.855469 9.066406 6.96875 8.953125 L 7.789062 8.132812 C 7.800781 8.121094 7.808594 8.105469 7.816406 8.09375 L 25.859375 8.09375 C 26.402344 8.09375 26.84375 8.535156 26.84375 9.078125 L 26.84375 24.136719 L 4.027344 24.136719 Z M 25.59375 26.730469 L 5.234375 26.730469 C 4.109375 26.730469 3.15625 25.894531 2.996094 24.792969 C 3.042969 24.792969 29.519531 24.796875 27.828125 24.792969 C 27.667969 25.886719 26.726562 26.730469 25.59375 26.730469 Z M 25.59375 26.730469 " fill-opacity="1" fill-rule="nonzero"/></g><path fill="#31ac7d" d="M 15.519531 24.902344 C 15.042969 24.902344 14.65625 25.285156 14.65625 25.761719 C 14.65625 26.238281 15.042969 26.625 15.519531 26.625 C 15.996094 26.625 16.382812 26.238281 16.382812 25.761719 C 16.382812 25.285156 15.996094 24.902344 15.519531 24.902344 Z M 15.519531 25.964844 C 15.40625 25.964844 15.316406 25.875 15.316406 25.761719 C 15.316406 25.648438 15.40625 25.558594 15.519531 25.558594 C 15.632812 25.558594 15.722656 25.648438 15.722656 25.761719 C 15.722656 25.875 15.632812 25.964844 15.519531 25.964844 Z M 15.519531 25.964844 " fill-opacity="1" fill-rule="nonzero"/><path fill="#31ac7d" d="M 8.011719 10.417969 C 7.507812 10.417969 7.09375 10.828125 7.09375 11.335938 C 7.09375 11.84375 7.503906 12.253906 8.011719 12.253906 C 8.519531 12.253906 8.929688 11.84375 8.929688 11.335938 C 8.929688 10.832031 8.519531 10.417969 8.011719 10.417969 Z M 8.011719 11.597656 C 7.867188 11.597656 7.75 11.480469 7.75 11.335938 C 7.75 11.191406 7.867188 11.074219 8.011719 11.074219 C 8.15625 11.074219 8.273438 11.191406 8.273438 11.335938 C 8.273438 11.480469 8.15625 11.597656 8.011719 11.597656 Z M 8.011719 11.597656 " fill-opacity="1" fill-rule="nonzero"/><path fill="#31ac7d" d="M 9.925781 10.417969 C 9.417969 10.417969 9.007812 10.828125 9.007812 11.335938 C 9.007812 11.84375 9.417969 12.253906 9.925781 12.253906 C 10.429688 12.253906 10.84375 11.84375 10.84375 11.335938 C 10.84375 10.832031 10.429688 10.417969 9.925781 10.417969 Z M 9.925781 11.597656 C 9.78125 11.597656 9.664062 11.480469 9.664062 11.335938 C 9.664062 11.191406 9.78125 11.074219 9.925781 11.074219 C 10.070312 11.074219 10.1875 11.191406 10.1875 11.335938 C 10.1875 11.480469 10.070312 11.597656 9.925781 11.597656 Z M 9.925781 11.597656 " fill-opacity="1" fill-rule="nonzero"/><path fill="#31ac7d" d="M 11.839844 10.417969 C 11.332031 10.417969 10.917969 10.828125 10.917969 11.335938 C 10.917969 11.84375 11.332031 12.253906 11.839844 12.253906 C 12.34375 12.253906 12.757812 11.84375 12.757812 11.335938 C 12.757812 10.832031 12.34375 10.417969 11.839844 10.417969 Z M 11.839844 11.597656 C 11.695312 11.597656 11.578125 11.480469 11.578125 11.335938 C 11.578125 11.191406 11.695312 11.074219 11.839844 11.074219 C 11.980469 11.074219 12.101562 11.191406 12.101562 11.335938 C 12.101562 11.480469 11.980469 11.597656 11.839844 11.597656 Z M 11.839844 11.597656 " fill-opacity="1" fill-rule="nonzero"/><path fill="#31ac7d" d="M 23.128906 11.007812 L 15.433594 11.007812 C 15.253906 11.007812 15.105469 11.15625 15.105469 11.335938 C 15.105469 11.519531 15.253906 11.664062 15.433594 11.664062 L 23.128906 11.664062 C 23.308594 11.664062 23.457031 11.519531 23.457031 11.335938 C 23.457031 11.15625 23.308594 11.007812 23.128906 11.007812 Z M 23.128906 11.007812 " fill-opacity="1" fill-rule="nonzero"/><path fill="#31ac7d" d="M 6.550781 5.683594 C 6.550781 4.566406 5.644531 3.65625 4.523438 3.65625 C 3.40625 3.65625 2.496094 4.566406 2.496094 5.683594 C 2.496094 6.804688 3.40625 7.714844 4.523438 7.714844 C 5.644531 7.714844 6.550781 6.804688 6.550781 5.683594 Z M 3.152344 5.683594 C 3.152344 4.925781 3.769531 4.3125 4.523438 4.3125 C 5.28125 4.3125 5.894531 4.925781 5.894531 5.683594 C 5.894531 6.441406 5.28125 7.058594 4.523438 7.058594 C 3.769531 7.058594 3.152344 6.441406 3.152344 5.683594 Z M 3.152344 5.683594 " fill-opacity="1" fill-rule="nonzero"/></svg>