<svg xmlns="http://www.w3.org/2000/svg" xmlns:xlink="http://www.w3.org/1999/xlink" width="40" zoomAndPan="magnify" viewBox="0 0 30 30.000001" height="40" preserveAspectRatio="xMidYMid meet" version="1.0"><defs><clipPath id="98f3af61bb"><path d="M 10 1.652344 L 20 1.652344 L 20 8 L 10 8 Z M 10 1.652344 " clip-rule="nonzero"/></clipPath><clipPath id="c0a9c31d25"><path d="M 0.492188 24.199219 L 29.507812 24.199219 L 29.507812 27.054688 L 0.492188 27.054688 Z M 0.492188 24.199219 " clip-rule="nonzero"/></clipPath></defs><path fill="#31ac7d" d="M 7.460938 24.195312 L 22.539062 24.195312 L 23.203125 15.285156 C 23.210938 15.210938 23.175781 15.160156 23.152344 15.136719 C 23.132812 15.117188 23.082031 15.078125 23.011719 15.078125 L 6.988281 15.078125 C 6.917969 15.078125 6.867188 15.117188 6.847656 15.136719 C 6.824219 15.160156 6.789062 15.210938 6.796875 15.285156 Z M 22.90625 24.992188 L 7.09375 24.992188 C 6.882812 24.992188 6.710938 24.832031 6.695312 24.625 L 6 15.34375 C 5.980469 15.070312 6.078125 14.796875 6.261719 14.597656 C 6.449219 14.394531 6.714844 14.28125 6.988281 14.28125 L 23.011719 14.28125 C 23.285156 14.28125 23.550781 14.394531 23.738281 14.597656 C 23.921875 14.796875 24.019531 15.070312 24 15.34375 L 23.304688 24.625 C 23.289062 24.832031 23.117188 24.992188 22.90625 24.992188 " fill-opacity="1" fill-rule="nonzero"/><path fill="#31ac7d" d="M 15 14.960938 C 14.878906 14.960938 14.765625 14.90625 14.691406 14.8125 L 13.117188 12.863281 C 13.058594 12.792969 13.027344 12.703125 13.027344 12.613281 L 13.027344 11.21875 C 13.027344 10.996094 13.207031 10.820312 13.425781 10.820312 C 13.644531 10.820312 13.824219 10.996094 13.824219 11.21875 L 13.824219 12.472656 L 15 13.929688 L 16.175781 12.472656 L 16.175781 11.21875 C 16.175781 10.996094 16.355469 10.820312 16.574219 10.820312 C 16.792969 10.820312 16.972656 10.996094 16.972656 11.21875 L 16.972656 12.613281 C 16.972656 12.703125 16.941406 12.792969 16.882812 12.863281 L 15.308594 14.8125 C 15.234375 14.90625 15.121094 14.960938 15 14.960938 " fill-opacity="1" fill-rule="nonzero"/><g clip-path="url(#98f3af61bb)"><path fill="#31ac7d" d="M 18.707031 7.601562 C 18.488281 7.601562 18.308594 7.421875 18.308594 7.203125 L 18.308594 5.757812 C 18.308594 3.9375 16.828125 2.453125 15.011719 2.449219 C 15.007812 2.449219 15.003906 2.449219 15 2.449219 C 14.132812 2.449219 13.308594 2.789062 12.679688 3.414062 C 12.042969 4.050781 11.691406 4.894531 11.691406 5.785156 L 11.691406 7.203125 C 11.691406 7.421875 11.511719 7.601562 11.292969 7.601562 C 11.074219 7.601562 10.894531 7.421875 10.894531 7.203125 L 10.894531 5.785156 C 10.894531 5.226562 11.007812 4.683594 11.222656 4.171875 C 11.433594 3.675781 11.738281 3.230469 12.121094 2.851562 C 12.894531 2.078125 13.917969 1.652344 15 1.652344 C 15.003906 1.652344 15.011719 1.652344 15.015625 1.652344 C 16.109375 1.65625 17.136719 2.082031 17.90625 2.859375 C 18.679688 3.632812 19.105469 4.664062 19.105469 5.757812 L 19.105469 7.203125 C 19.105469 7.421875 18.925781 7.601562 18.707031 7.601562 " fill-opacity="1" fill-rule="nonzero"/></g><path fill="#31ac7d" d="M 12.652344 6.875 L 12.652344 8.960938 C 12.652344 10.253906 13.707031 11.308594 15 11.308594 C 16.292969 11.308594 17.347656 10.253906 17.347656 8.960938 L 17.347656 6.628906 L 16.589844 5.785156 C 15.390625 6.691406 13.488281 6.851562 12.652344 6.875 Z M 15 12.105469 C 13.265625 12.105469 11.859375 10.695312 11.859375 8.960938 L 11.859375 6.476562 C 11.859375 6.371094 11.902344 6.265625 11.980469 6.191406 C 12.054688 6.117188 12.160156 6.078125 12.269531 6.078125 C 12.296875 6.082031 15.144531 6.148438 16.34375 4.949219 C 16.421875 4.871094 16.527344 4.828125 16.636719 4.832031 C 16.746094 4.835938 16.847656 4.882812 16.921875 4.964844 L 18.039062 6.210938 C 18.105469 6.285156 18.140625 6.378906 18.140625 6.476562 L 18.140625 8.960938 C 18.140625 10.695312 16.734375 12.105469 15 12.105469 " fill-opacity="1" fill-rule="nonzero"/><path fill="#31ac7d" d="M 11.859375 7.449219 C 11.535156 7.453125 11.277344 7.714844 11.277344 8.039062 C 11.277344 8.359375 11.535156 8.625 11.859375 8.628906 Z M 12.257812 9.425781 L 11.867188 9.425781 C 11.101562 9.425781 10.480469 8.804688 10.480469 8.039062 C 10.480469 7.273438 11.101562 6.652344 11.867188 6.652344 L 12.257812 6.652344 C 12.476562 6.652344 12.652344 6.828125 12.652344 7.050781 L 12.652344 9.027344 C 12.652344 9.246094 12.476562 9.425781 12.257812 9.425781 " fill-opacity="1" fill-rule="nonzero"/><path fill="#31ac7d" d="M 18.140625 7.449219 L 18.140625 8.628906 C 18.464844 8.625 18.722656 8.359375 18.722656 8.039062 C 18.722656 7.714844 18.464844 7.453125 18.140625 7.449219 Z M 18.132812 9.425781 L 17.742188 9.425781 C 17.523438 9.425781 17.347656 9.246094 17.347656 9.027344 L 17.347656 7.050781 C 17.347656 6.828125 17.523438 6.652344 17.742188 6.652344 L 18.132812 6.652344 C 18.898438 6.652344 19.519531 7.273438 19.519531 8.039062 C 19.519531 8.804688 18.898438 9.425781 18.132812 9.425781 " fill-opacity="1" fill-rule="nonzero"/><path fill="#31ac7d" d="M 8.535156 15.078125 C 8.449219 15.078125 8.359375 15.046875 8.285156 14.988281 C 8.117188 14.851562 8.089844 14.601562 8.226562 14.429688 C 8.667969 13.878906 9.257812 13.480469 9.929688 13.273438 L 13.324219 12.222656 C 13.53125 12.160156 13.753906 12.277344 13.820312 12.488281 C 13.882812 12.699219 13.765625 12.921875 13.554688 12.984375 L 13.542969 12.988281 L 10.164062 14.035156 C 9.644531 14.195312 9.1875 14.503906 8.847656 14.929688 C 8.769531 15.027344 8.652344 15.078125 8.535156 15.078125 " fill-opacity="1" fill-rule="nonzero"/><path fill="#31ac7d" d="M 21.464844 15.078125 C 21.347656 15.078125 21.230469 15.027344 21.152344 14.929688 C 20.8125 14.503906 20.355469 14.195312 19.835938 14.035156 L 16.445312 12.984375 C 16.234375 12.921875 16.117188 12.699219 16.179688 12.488281 C 16.246094 12.277344 16.46875 12.160156 16.675781 12.222656 L 16.691406 12.226562 L 20.070312 13.273438 C 20.742188 13.480469 21.332031 13.878906 21.773438 14.429688 C 21.910156 14.601562 21.882812 14.851562 21.714844 14.988281 C 21.640625 15.046875 21.550781 15.078125 21.464844 15.078125 " fill-opacity="1" fill-rule="nonzero"/><path fill="#31ac7d" d="M 13.039062 21.589844 C 12.957031 21.589844 12.871094 21.5625 12.796875 21.507812 L 10.777344 19.953125 C 10.679688 19.875 10.625 19.757812 10.625 19.636719 C 10.625 19.511719 10.679688 19.394531 10.777344 19.320312 L 12.796875 17.765625 C 12.972656 17.628906 13.222656 17.660156 13.355469 17.835938 C 13.488281 18.011719 13.457031 18.261719 13.285156 18.394531 L 11.675781 19.636719 L 13.285156 20.878906 C 13.457031 21.011719 13.488281 21.261719 13.355469 21.4375 C 13.277344 21.539062 13.160156 21.589844 13.039062 21.589844 " fill-opacity="1" fill-rule="nonzero"/><path fill="#31ac7d" d="M 16.960938 21.589844 C 16.839844 21.589844 16.722656 21.539062 16.644531 21.4375 C 16.511719 21.261719 16.542969 21.011719 16.714844 20.878906 L 18.324219 19.636719 L 16.714844 18.394531 C 16.542969 18.261719 16.511719 18.011719 16.644531 17.835938 C 16.777344 17.660156 17.027344 17.628906 17.203125 17.765625 L 19.222656 19.320312 C 19.320312 19.394531 19.375 19.511719 19.375 19.636719 C 19.375 19.757812 19.320312 19.875 19.222656 19.953125 L 17.203125 21.507812 C 17.128906 21.5625 17.042969 21.589844 16.960938 21.589844 " fill-opacity="1" fill-rule="nonzero"/><path fill="#31ac7d" d="M 14.265625 22.777344 C 14.230469 22.777344 14.195312 22.773438 14.160156 22.765625 C 13.949219 22.707031 13.824219 22.488281 13.878906 22.277344 L 15.351562 16.789062 C 15.40625 16.578125 15.625 16.453125 15.839844 16.507812 C 16.050781 16.566406 16.175781 16.785156 16.121094 16.996094 L 14.648438 22.484375 C 14.601562 22.660156 14.441406 22.777344 14.265625 22.777344 " fill-opacity="1" fill-rule="nonzero"/><g clip-path="url(#c0a9c31d25)"><path fill="#31ac7d" d="M 1.289062 26.574219 L 28.710938 26.574219 C 28.683594 25.703125 27.96875 25 27.085938 25 L 2.914062 25 C 2.03125 25 1.316406 25.703125 1.289062 26.574219 Z M 29.109375 27.371094 L 0.890625 27.371094 C 0.671875 27.371094 0.492188 27.191406 0.492188 26.972656 L 0.492188 26.621094 C 0.492188 25.289062 1.578125 24.203125 2.914062 24.203125 L 27.085938 24.203125 C 28.421875 24.203125 29.507812 25.289062 29.507812 26.621094 L 29.507812 26.972656 C 29.507812 27.191406 29.328125 27.371094 29.109375 27.371094 " fill-opacity="1" fill-rule="nonzero"/></g></svg>