<svg xmlns="http://www.w3.org/2000/svg" xmlns:xlink="http://www.w3.org/1999/xlink" width="40" zoomAndPan="magnify" viewBox="0 0 30 30.000001" height="40" preserveAspectRatio="xMidYMid meet" version="1.0"><defs><clipPath id="e895b4630e"><path d="M 12 2.03125 L 18 2.03125 L 18 8 L 12 8 Z M 12 2.03125 " clip-rule="nonzero"/></clipPath><clipPath id="659f2898b0"><path d="M 0.484375 21 L 10 21 L 10 26.710938 L 0.484375 26.710938 Z M 0.484375 21 " clip-rule="nonzero"/></clipPath><clipPath id="7f62eafd83"><path d="M 20 21 L 29.515625 21 L 29.515625 26.710938 L 20 26.710938 Z M 20 21 " clip-rule="nonzero"/></clipPath></defs><path fill="#31ac7d" d="M 6.039062 9.5 C 6.132812 9.566406 6.222656 9.589844 6.3125 9.589844 C 6.449219 9.589844 6.585938 9.523438 6.675781 9.410156 C 6.765625 9.296875 6.855469 9.183594 6.949219 9.070312 C 7.105469 8.863281 7.085938 8.59375 6.878906 8.433594 C 6.675781 8.273438 6.402344 8.296875 6.246094 8.503906 C 6.152344 8.617188 6.039062 8.75 5.949219 8.863281 C 5.792969 9.046875 5.835938 9.339844 6.039062 9.5 Z M 6.039062 9.5 " fill-opacity="1" fill-rule="nonzero"/><path fill="#31ac7d" d="M 5.179688 10.023438 C 5.109375 10.15625 5.019531 10.292969 4.953125 10.429688 C 4.839844 10.65625 4.929688 10.929688 5.15625 11.042969 C 5.222656 11.085938 5.292969 11.085938 5.359375 11.085938 C 5.519531 11.085938 5.679688 10.996094 5.769531 10.839844 C 5.835938 10.703125 5.90625 10.589844 5.972656 10.453125 C 6.085938 10.226562 6.019531 9.953125 5.8125 9.839844 C 5.566406 9.726562 5.292969 9.816406 5.179688 10.023438 Z M 5.179688 10.023438 " fill-opacity="1" fill-rule="nonzero"/><path fill="#31ac7d" d="M 8.128906 7.820312 C 8.308594 7.664062 8.332031 7.367188 8.171875 7.1875 C 8.015625 7.003906 7.71875 6.984375 7.539062 7.140625 C 7.425781 7.253906 7.3125 7.34375 7.199219 7.457031 C 7.015625 7.640625 7.015625 7.914062 7.175781 8.09375 C 7.265625 8.183594 7.378906 8.230469 7.492188 8.230469 C 7.605469 8.230469 7.71875 8.183594 7.808594 8.09375 C 7.902344 8.003906 8.015625 7.914062 8.128906 7.820312 Z M 8.128906 7.820312 " fill-opacity="1" fill-rule="nonzero"/><path fill="#31ac7d" d="M 3.886719 13.539062 C 3.863281 13.695312 3.839844 13.855469 3.816406 13.992188 C 3.773438 14.242188 3.953125 14.46875 4.203125 14.511719 C 4.226562 14.511719 4.25 14.511719 4.273438 14.511719 C 4.5 14.511719 4.679688 14.355469 4.726562 14.128906 C 4.746094 13.992188 4.769531 13.832031 4.792969 13.695312 C 4.839844 13.445312 4.679688 13.21875 4.429688 13.175781 C 4.160156 13.128906 3.929688 13.289062 3.886719 13.539062 Z M 3.886719 13.539062 " fill-opacity="1" fill-rule="nonzero"/><path fill="#31ac7d" d="M 4.386719 11.722656 C 4.339844 11.859375 4.273438 12.019531 4.226562 12.175781 C 4.160156 12.425781 4.273438 12.675781 4.519531 12.742188 C 4.566406 12.765625 4.613281 12.765625 4.65625 12.765625 C 4.839844 12.765625 5.019531 12.652344 5.089844 12.449219 C 5.132812 12.3125 5.179688 12.175781 5.222656 12.039062 C 5.316406 11.8125 5.203125 11.542969 4.953125 11.449219 C 4.726562 11.359375 4.476562 11.496094 4.386719 11.722656 Z M 4.386719 11.722656 " fill-opacity="1" fill-rule="nonzero"/><path fill="#31ac7d" d="M 9.035156 6.03125 C 8.898438 6.121094 8.761719 6.1875 8.648438 6.28125 C 8.445312 6.414062 8.398438 6.710938 8.535156 6.914062 C 8.625 7.050781 8.761719 7.117188 8.921875 7.117188 C 9.011719 7.117188 9.101562 7.097656 9.171875 7.050781 C 9.285156 6.960938 9.421875 6.890625 9.535156 6.824219 C 9.738281 6.6875 9.804688 6.414062 9.667969 6.1875 C 9.511719 5.960938 9.238281 5.894531 9.035156 6.03125 Z M 9.035156 6.03125 " fill-opacity="1" fill-rule="nonzero"/><path fill="#31ac7d" d="M 25.683594 11.746094 C 25.59375 11.519531 25.34375 11.382812 25.09375 11.472656 C 24.867188 11.5625 24.730469 11.8125 24.820312 12.0625 C 24.867188 12.199219 24.910156 12.335938 24.957031 12.472656 C 25.023438 12.652344 25.207031 12.789062 25.386719 12.789062 C 25.433594 12.789062 25.480469 12.789062 25.523438 12.765625 C 25.773438 12.699219 25.886719 12.425781 25.820312 12.199219 C 25.773438 12.039062 25.726562 11.882812 25.683594 11.746094 Z M 25.683594 11.746094 " fill-opacity="1" fill-rule="nonzero"/><path fill="#31ac7d" d="M 24.09375 10.5 C 24.164062 10.613281 24.230469 10.746094 24.300781 10.882812 C 24.390625 11.042969 24.550781 11.132812 24.707031 11.132812 C 24.777344 11.132812 24.84375 11.109375 24.910156 11.085938 C 25.136719 10.972656 25.230469 10.703125 25.117188 10.476562 C 25.046875 10.339844 24.980469 10.203125 24.890625 10.066406 C 24.777344 9.839844 24.480469 9.773438 24.277344 9.910156 C 24.050781 10 23.980469 10.269531 24.09375 10.5 Z M 24.09375 10.5 " fill-opacity="1" fill-rule="nonzero"/><path fill="#31ac7d" d="M 26.160156 13.539062 C 26.113281 13.289062 25.863281 13.128906 25.636719 13.175781 C 25.386719 13.21875 25.230469 13.46875 25.273438 13.695312 C 25.296875 13.832031 25.320312 13.96875 25.34375 14.128906 C 25.367188 14.355469 25.570312 14.511719 25.796875 14.511719 C 25.820312 14.511719 25.839844 14.511719 25.863281 14.511719 C 26.113281 14.46875 26.296875 14.242188 26.25 13.992188 C 26.226562 13.855469 26.203125 13.695312 26.160156 13.539062 Z M 26.160156 13.539062 " fill-opacity="1" fill-rule="nonzero"/><path fill="#31ac7d" d="M 11.28125 5.417969 C 11.191406 5.191406 10.917969 5.078125 10.691406 5.167969 C 10.554688 5.234375 10.394531 5.28125 10.257812 5.347656 C 10.03125 5.460938 9.941406 5.734375 10.03125 5.960938 C 10.101562 6.121094 10.28125 6.234375 10.441406 6.234375 C 10.507812 6.234375 10.578125 6.210938 10.621094 6.1875 C 10.757812 6.121094 10.894531 6.074219 11.007812 6.007812 C 11.28125 5.894531 11.371094 5.644531 11.28125 5.417969 Z M 11.28125 5.417969 " fill-opacity="1" fill-rule="nonzero"/><path fill="#31ac7d" d="M 23.824219 8.503906 C 23.664062 8.296875 23.371094 8.273438 23.1875 8.433594 C 22.984375 8.59375 22.960938 8.886719 23.121094 9.070312 C 23.210938 9.183594 23.300781 9.296875 23.390625 9.410156 C 23.484375 9.523438 23.617188 9.589844 23.753906 9.589844 C 23.847656 9.589844 23.9375 9.566406 24.027344 9.5 C 24.230469 9.339844 24.277344 9.070312 24.117188 8.863281 C 24.027344 8.730469 23.914062 8.617188 23.824219 8.503906 Z M 23.824219 8.503906 " fill-opacity="1" fill-rule="nonzero"/><path fill="#31ac7d" d="M 19.605469 6.210938 C 19.785156 6.210938 19.945312 6.121094 20.011719 5.9375 C 20.125 5.710938 20.011719 5.441406 19.785156 5.328125 C 19.648438 5.257812 19.492188 5.191406 19.355469 5.144531 C 19.128906 5.054688 18.855469 5.167969 18.765625 5.394531 C 18.675781 5.621094 18.789062 5.894531 19.015625 5.984375 C 19.152344 6.03125 19.285156 6.097656 19.398438 6.164062 C 19.46875 6.210938 19.535156 6.210938 19.605469 6.210938 Z M 19.605469 6.210938 " fill-opacity="1" fill-rule="nonzero"/><path fill="#31ac7d" d="M 22.871094 7.457031 C 22.757812 7.34375 22.644531 7.253906 22.53125 7.140625 C 22.347656 6.984375 22.054688 6.984375 21.894531 7.1875 C 21.738281 7.367188 21.738281 7.664062 21.941406 7.820312 C 22.054688 7.914062 22.144531 8.003906 22.257812 8.117188 C 22.347656 8.207031 22.460938 8.253906 22.574219 8.253906 C 22.6875 8.253906 22.800781 8.207031 22.894531 8.117188 C 23.050781 7.933594 23.050781 7.640625 22.871094 7.457031 Z M 22.871094 7.457031 " fill-opacity="1" fill-rule="nonzero"/><path fill="#31ac7d" d="M 20.558594 6.800781 C 20.671875 6.867188 20.804688 6.960938 20.917969 7.027344 C 20.988281 7.074219 21.078125 7.097656 21.167969 7.097656 C 21.304688 7.097656 21.464844 7.027344 21.554688 6.890625 C 21.691406 6.6875 21.644531 6.394531 21.441406 6.257812 C 21.304688 6.164062 21.191406 6.074219 21.054688 6.007812 C 20.851562 5.871094 20.558594 5.9375 20.421875 6.144531 C 20.261719 6.394531 20.332031 6.664062 20.558594 6.800781 Z M 20.558594 6.800781 " fill-opacity="1" fill-rule="nonzero"/><path fill="#31ac7d" d="M 19.332031 11.5625 L 19.332031 9.976562 C 19.332031 8.75 18.808594 7.640625 17.972656 6.847656 C 17.789062 7.097656 17.585938 7.324219 17.359375 7.503906 C 18.015625 8.140625 18.425781 9 18.425781 9.976562 L 18.425781 11.109375 L 11.621094 11.109375 L 11.621094 9.976562 C 11.621094 9 12.027344 8.140625 12.664062 7.527344 C 12.4375 7.324219 12.234375 7.097656 12.050781 6.867188 C 11.210938 7.664062 10.691406 8.773438 10.691406 10 L 10.691406 11.585938 C 10.691406 11.835938 10.894531 12.039062 11.144531 12.039062 L 18.855469 12.039062 C 19.128906 12.019531 19.332031 11.8125 19.332031 11.5625 Z M 19.332031 11.5625 " fill-opacity="1" fill-rule="nonzero"/><g clip-path="url(#e895b4630e)"><path fill="#31ac7d" d="M 15.023438 7.480469 C 16.519531 7.480469 17.746094 6.257812 17.746094 4.757812 C 17.746094 3.261719 16.519531 2.039062 15.023438 2.039062 C 13.527344 2.039062 12.300781 3.261719 12.300781 4.757812 C 12.300781 6.257812 13.527344 7.480469 15.023438 7.480469 Z M 15.023438 2.945312 C 16.019531 2.945312 16.835938 3.761719 16.835938 4.757812 C 16.835938 5.757812 16.019531 6.574219 15.023438 6.574219 C 14.023438 6.574219 13.207031 5.757812 13.207031 4.757812 C 13.207031 3.761719 14.023438 2.945312 15.023438 2.945312 Z M 15.023438 2.945312 " fill-opacity="1" fill-rule="nonzero"/></g><g clip-path="url(#659f2898b0)"><path fill="#31ac7d" d="M 0.960938 26.988281 L 8.671875 26.988281 C 8.921875 26.988281 9.125 26.785156 9.125 26.535156 L 9.125 24.945312 C 9.125 23.722656 8.605469 22.609375 7.765625 21.816406 C 7.582031 22.066406 7.378906 22.292969 7.152344 22.472656 C 7.808594 23.085938 8.195312 23.972656 8.195312 24.921875 L 8.195312 26.058594 L 1.414062 26.058594 L 1.414062 24.921875 C 1.414062 23.949219 1.820312 23.085938 2.457031 22.472656 C 2.230469 22.269531 2.027344 22.042969 1.84375 21.816406 C 1.003906 22.609375 0.484375 23.722656 0.484375 24.945312 L 0.484375 26.535156 C 0.507812 26.785156 0.710938 26.988281 0.960938 26.988281 Z M 0.960938 26.988281 " fill-opacity="1" fill-rule="nonzero"/></g><path fill="#31ac7d" d="M 3.683594 15.648438 C 3.683594 15.894531 3.886719 16.101562 4.136719 16.101562 C 4.386719 16.101562 4.589844 15.894531 4.589844 15.648438 C 4.589844 15.578125 4.589844 15.511719 4.589844 15.421875 C 4.589844 15.171875 4.386719 14.964844 4.136719 14.964844 C 3.886719 14.964844 3.683594 15.171875 3.683594 15.421875 C 3.683594 15.488281 3.683594 15.578125 3.683594 15.648438 Z M 3.683594 15.648438 " fill-opacity="1" fill-rule="nonzero"/><path fill="#31ac7d" d="M 2.09375 19.730469 C 2.09375 21.226562 3.320312 22.453125 4.816406 22.453125 C 6.3125 22.453125 7.539062 21.226562 7.539062 19.730469 C 7.539062 18.234375 6.3125 17.007812 4.816406 17.007812 C 3.320312 17.007812 2.09375 18.234375 2.09375 19.730469 Z M 4.816406 17.914062 C 5.8125 17.914062 6.628906 18.730469 6.628906 19.730469 C 6.628906 20.726562 5.8125 21.542969 4.816406 21.542969 C 3.816406 21.542969 3 20.726562 3 19.730469 C 3 18.730469 3.816406 17.914062 4.816406 17.914062 Z M 4.816406 17.914062 " fill-opacity="1" fill-rule="nonzero"/><g clip-path="url(#7f62eafd83)"><path fill="#31ac7d" d="M 27.589844 22.042969 C 28.246094 22.65625 28.632812 23.539062 28.632812 24.492188 L 28.632812 25.625 L 21.828125 25.625 L 21.828125 24.492188 C 21.828125 23.515625 22.234375 22.65625 22.871094 22.042969 C 22.644531 21.839844 22.441406 21.613281 22.257812 21.386719 C 21.417969 22.179688 20.898438 23.289062 20.898438 24.515625 L 20.898438 26.101562 C 20.898438 26.351562 21.101562 26.554688 21.351562 26.554688 L 29.0625 26.554688 C 29.3125 26.554688 29.515625 26.351562 29.515625 26.101562 L 29.515625 24.515625 C 29.515625 23.289062 28.996094 22.179688 28.15625 21.386719 C 28.019531 21.613281 27.816406 21.839844 27.589844 22.042969 Z M 27.589844 22.042969 " fill-opacity="1" fill-rule="nonzero"/></g><path fill="#31ac7d" d="M 25.910156 14.964844 C 25.660156 14.964844 25.457031 15.171875 25.457031 15.421875 C 25.457031 15.488281 25.457031 15.554688 25.457031 15.648438 C 25.457031 15.648438 25.457031 15.648438 25.457031 15.667969 C 25.75 15.691406 26.046875 15.738281 26.316406 15.828125 C 26.339844 15.78125 26.363281 15.714844 26.363281 15.648438 C 26.363281 15.578125 26.363281 15.488281 26.363281 15.421875 C 26.363281 15.171875 26.160156 14.964844 25.910156 14.964844 Z M 25.910156 14.964844 " fill-opacity="1" fill-rule="nonzero"/><path fill="#31ac7d" d="M 25.230469 21.996094 C 26.726562 21.996094 27.949219 20.773438 27.949219 19.277344 C 27.949219 17.777344 26.726562 16.554688 25.230469 16.554688 C 23.730469 16.554688 22.507812 17.777344 22.507812 19.277344 C 22.507812 20.773438 23.730469 21.996094 25.230469 21.996094 Z M 25.230469 17.460938 C 26.226562 17.460938 27.042969 18.277344 27.042969 19.277344 C 27.042969 20.273438 26.226562 21.089844 25.230469 21.089844 C 24.230469 21.089844 23.414062 20.273438 23.414062 19.277344 C 23.414062 18.277344 24.230469 17.460938 25.230469 17.460938 Z M 25.230469 17.460938 " fill-opacity="1" fill-rule="nonzero"/><path fill="#31ac7d" d="M 16.519531 24.355469 C 16.609375 24.445312 16.722656 24.492188 16.835938 24.492188 C 16.949219 24.492188 17.0625 24.445312 17.15625 24.355469 L 18.515625 22.996094 C 18.539062 22.972656 18.5625 22.949219 18.582031 22.925781 C 18.582031 22.925781 18.605469 22.90625 18.605469 22.90625 C 18.605469 22.882812 18.628906 22.882812 18.628906 22.859375 C 18.628906 22.835938 18.628906 22.835938 18.652344 22.8125 C 18.652344 22.792969 18.652344 22.792969 18.675781 22.769531 C 18.695312 22.699219 18.695312 22.65625 18.675781 22.585938 C 18.675781 22.566406 18.675781 22.566406 18.652344 22.542969 C 18.652344 22.519531 18.652344 22.519531 18.628906 22.496094 C 18.628906 22.472656 18.605469 22.472656 18.605469 22.453125 C 18.605469 22.453125 18.605469 22.429688 18.582031 22.429688 C 18.5625 22.40625 18.539062 22.382812 18.515625 22.359375 L 17.15625 21 C 16.972656 20.816406 16.699219 20.816406 16.519531 21 C 16.339844 21.179688 16.339844 21.453125 16.519531 21.632812 L 17.109375 22.222656 L 12.9375 22.222656 L 13.527344 21.632812 C 13.707031 21.453125 13.707031 21.179688 13.527344 21 C 13.34375 20.816406 13.070312 20.816406 12.890625 21 L 11.53125 22.359375 C 11.347656 22.542969 11.347656 22.8125 11.53125 22.996094 L 12.890625 24.355469 C 12.980469 24.445312 13.09375 24.492188 13.207031 24.492188 C 13.320312 24.492188 13.433594 24.445312 13.527344 24.355469 C 13.707031 24.175781 13.707031 23.902344 13.527344 23.722656 L 12.9375 23.132812 L 17.085938 23.132812 L 16.496094 23.722656 C 16.339844 23.902344 16.339844 24.175781 16.519531 24.355469 Z M 16.519531 24.355469 " fill-opacity="1" fill-rule="nonzero"/><path fill="#31ac7d" d="M 15.023438 20.410156 C 15.273438 20.410156 15.476562 20.207031 15.476562 19.957031 L 15.476562 16.507812 L 16.066406 17.097656 C 16.15625 17.1875 16.269531 17.234375 16.382812 17.234375 C 16.496094 17.234375 16.609375 17.1875 16.699219 17.097656 C 16.882812 16.917969 16.882812 16.644531 16.699219 16.464844 L 15.339844 15.101562 C 15.316406 15.078125 15.292969 15.058594 15.273438 15.035156 C 15.273438 15.035156 15.25 15.011719 15.25 15.011719 C 15.226562 15.011719 15.226562 14.988281 15.203125 14.988281 C 15.179688 14.988281 15.179688 14.988281 15.160156 14.964844 C 15.136719 14.964844 15.136719 14.964844 15.113281 14.945312 C 15.046875 14.921875 15 14.921875 14.933594 14.945312 C 14.910156 14.945312 14.910156 14.945312 14.886719 14.964844 C 14.863281 14.964844 14.863281 14.964844 14.839844 14.988281 C 14.820312 14.988281 14.820312 15.011719 14.796875 15.011719 C 14.796875 15.011719 14.773438 15.011719 14.773438 15.035156 C 14.75 15.058594 14.726562 15.078125 14.707031 15.101562 L 13.34375 16.464844 C 13.164062 16.644531 13.164062 16.917969 13.34375 17.097656 C 13.433594 17.1875 13.546875 17.234375 13.660156 17.234375 C 13.773438 17.234375 13.886719 17.1875 13.980469 17.097656 L 14.570312 16.507812 L 14.570312 19.957031 C 14.570312 20.207031 14.773438 20.410156 15.023438 20.410156 Z M 15.023438 20.410156 " fill-opacity="1" fill-rule="nonzero"/></svg>