<svg xmlns="http://www.w3.org/2000/svg" xmlns:xlink="http://www.w3.org/1999/xlink" width="40" zoomAndPan="magnify" viewBox="0 0 30 30.000001" height="40" preserveAspectRatio="xMidYMid meet" version="1.0"><defs><clipPath id="9a64046c17"><path d="M 0.484375 1.214844 L 29.515625 1.214844 L 29.515625 28 L 0.484375 28 Z M 0.484375 1.214844 " clip-rule="nonzero"/></clipPath></defs><g clip-path="url(#9a64046c17)"><path fill="#31ac7d" d="M 25.273438 20.558594 C 24.914062 20.558594 24.671875 20.796875 24.671875 21.160156 L 24.671875 24.789062 C 24.671875 25.753906 23.824219 26.601562 22.855469 26.601562 L 3.515625 26.601562 C 2.550781 26.601562 1.703125 25.753906 1.703125 24.789062 L 1.703125 7.261719 L 24.671875 7.261719 L 24.671875 11.492188 C 24.671875 11.851562 24.914062 12.09375 25.273438 12.09375 C 25.636719 12.09375 25.878906 11.851562 25.878906 11.492188 L 25.878906 4.238281 C 25.878906 2.546875 24.550781 1.214844 22.855469 1.214844 L 3.515625 1.214844 C 1.824219 1.214844 0.496094 2.546875 0.496094 4.238281 L 0.496094 24.789062 C 0.496094 26.480469 1.824219 27.808594 3.515625 27.808594 L 22.855469 27.808594 C 24.550781 27.808594 25.878906 26.480469 25.878906 24.789062 L 25.878906 21.160156 C 25.878906 20.796875 25.636719 20.558594 25.273438 20.558594 Z M 8.351562 3.632812 C 8.714844 3.632812 8.957031 3.875 8.957031 4.238281 C 8.957031 4.601562 8.714844 4.84375 8.351562 4.84375 C 7.988281 4.84375 7.746094 4.601562 7.746094 4.238281 C 7.746094 3.875 7.988281 3.632812 8.351562 3.632812 Z M 5.933594 3.632812 C 6.296875 3.632812 6.539062 3.875 6.539062 4.238281 C 6.539062 4.601562 6.296875 4.84375 5.933594 4.84375 C 5.570312 4.84375 5.328125 4.601562 5.328125 4.238281 C 5.328125 3.875 5.570312 3.632812 5.933594 3.632812 Z M 3.515625 3.632812 C 3.878906 3.632812 4.121094 3.875 4.121094 4.238281 C 4.121094 4.601562 3.878906 4.84375 3.515625 4.84375 C 3.152344 4.84375 2.910156 4.601562 2.910156 4.238281 C 2.910156 3.875 3.152344 3.632812 3.515625 3.632812 Z M 27.691406 13.304688 L 26.484375 13.304688 C 26.121094 13.304688 25.878906 13.546875 25.878906 13.910156 L 25.878906 18.742188 C 25.878906 19.105469 26.121094 19.347656 26.484375 19.347656 C 26.847656 19.347656 27.089844 19.105469 27.089844 18.742188 L 27.089844 16.929688 L 27.691406 16.929688 C 28.660156 16.929688 29.503906 16.085938 29.503906 15.117188 C 29.503906 14.148438 28.660156 13.304688 27.691406 13.304688 Z M 27.691406 15.722656 L 27.089844 15.722656 L 27.089844 14.511719 L 27.691406 14.511719 C 28.054688 14.511719 28.296875 14.753906 28.296875 15.117188 C 28.296875 15.480469 28.054688 15.722656 27.691406 15.722656 Z M 21.648438 13.304688 C 21.285156 13.304688 21.042969 13.546875 21.042969 13.910156 L 21.042969 18.742188 C 21.042969 19.105469 21.285156 19.347656 21.648438 19.347656 C 22.011719 19.347656 22.253906 19.105469 22.253906 18.742188 L 22.253906 16.929688 L 22.855469 16.929688 C 23.824219 16.929688 24.671875 16.085938 24.671875 15.117188 C 24.671875 14.148438 23.824219 13.304688 22.855469 13.304688 Z M 23.460938 15.117188 C 23.460938 15.480469 23.21875 15.722656 22.855469 15.722656 L 22.253906 15.722656 L 22.253906 14.511719 L 22.855469 14.511719 C 23.21875 14.511719 23.460938 14.753906 23.460938 15.117188 Z M 16.8125 13.667969 L 15 18.5 C 14.878906 18.863281 15 19.105469 15.363281 19.226562 C 15.726562 19.347656 15.96875 19.226562 16.089844 18.863281 L 16.449219 18.019531 L 18.382812 18.019531 L 18.746094 18.863281 C 18.867188 19.105469 19.109375 19.226562 19.351562 19.226562 C 19.472656 19.226562 19.472656 19.226562 19.59375 19.226562 C 19.957031 19.105469 20.078125 18.742188 19.957031 18.5 L 18.144531 13.667969 C 17.78125 13.183594 17.054688 13.183594 16.8125 13.667969 Z M 16.933594 16.929688 L 17.417969 15.601562 L 17.902344 16.929688 Z M 16.933594 16.929688 " fill-opacity="1" fill-rule="nonzero"/></g></svg>