<svg xmlns="http://www.w3.org/2000/svg" xmlns:xlink="http://www.w3.org/1999/xlink" width="40" zoomAndPan="magnify" viewBox="0 0 30 30.000001" height="40" preserveAspectRatio="xMidYMid meet" version="1.0"><defs><clipPath id="8414efa80c"><path d="M 0.484375 0.238281 L 29.515625 0.238281 L 29.515625 28.542969 L 0.484375 28.542969 Z M 0.484375 0.238281 " clip-rule="nonzero"/></clipPath></defs><g clip-path="url(#8414efa80c)"><path fill="#31ac7d" d="M 14.753906 28.792969 L 15.175781 28.792969 C 15.210938 28.796875 15.242188 28.796875 15.277344 28.792969 C 16.214844 28.792969 17.140625 28.699219 18.0625 28.515625 C 18.980469 28.332031 19.871094 28.0625 20.738281 27.699219 C 21.605469 27.339844 22.425781 26.902344 23.207031 26.378906 C 23.984375 25.855469 24.707031 25.265625 25.367188 24.601562 C 26.03125 23.9375 26.621094 23.214844 27.140625 22.4375 C 27.660156 21.65625 28.101562 20.832031 28.457031 19.964844 C 28.816406 19.097656 29.085938 18.207031 29.265625 17.285156 C 29.449219 16.367188 29.539062 15.4375 29.539062 14.5 C 29.539062 13.5625 29.445312 12.636719 29.261719 11.714844 C 29.078125 10.796875 28.804688 9.902344 28.445312 9.039062 C 28.085938 8.171875 27.644531 7.351562 27.125 6.570312 C 26.601562 5.792969 26.011719 5.070312 25.347656 4.410156 C 24.683594 3.746094 23.960938 3.15625 23.179688 2.636719 C 22.402344 2.117188 21.578125 1.675781 20.710938 1.320312 C 19.84375 0.960938 18.953125 0.691406 18.03125 0.507812 C 17.113281 0.328125 16.183594 0.238281 15.246094 0.238281 L 14.753906 0.238281 C 13.816406 0.238281 12.886719 0.328125 11.96875 0.511719 C 11.050781 0.695312 10.15625 0.96875 9.292969 1.324219 C 8.425781 1.683594 7.601562 2.125 6.824219 2.644531 C 6.042969 3.167969 5.324219 3.757812 4.660156 4.421875 C 4 5.085938 3.40625 5.804688 2.886719 6.585938 C 2.367188 7.363281 1.925781 8.1875 1.566406 9.050781 C 1.207031 9.917969 0.9375 10.8125 0.753906 11.730469 C 0.570312 12.648438 0.480469 13.578125 0.480469 14.515625 C 0.480469 15.453125 0.570312 16.382812 0.753906 17.300781 C 0.9375 18.21875 1.207031 19.113281 1.566406 19.976562 C 1.925781 20.84375 2.367188 21.667969 2.886719 22.445312 C 3.40625 23.226562 4 23.945312 4.660156 24.609375 C 5.324219 25.273438 6.042969 25.863281 6.824219 26.386719 C 7.601562 26.90625 8.425781 27.347656 9.292969 27.707031 C 10.15625 28.0625 11.050781 28.335938 11.96875 28.519531 C 12.886719 28.703125 13.816406 28.792969 14.753906 28.792969 Z M 6.382812 14.378906 C 6.398438 13.402344 6.507812 12.4375 6.714844 11.484375 C 8.070312 11.796875 9.445312 12.023438 10.828125 12.167969 C 10.777344 12.851562 10.742188 13.554688 10.730469 14.273438 C 10.730469 15.210938 10.765625 16.105469 10.839844 16.980469 C 9.457031 17.128906 8.089844 17.367188 6.738281 17.695312 C 6.496094 16.601562 6.378906 15.496094 6.382812 14.378906 Z M 23.523438 14.378906 C 23.535156 15.542969 23.410156 16.691406 23.144531 17.824219 C 21.800781 17.484375 20.4375 17.230469 19.0625 17.0625 C 19.140625 16.167969 19.183594 15.25 19.175781 14.292969 C 19.175781 13.554688 19.136719 12.816406 19.078125 12.132812 C 20.457031 11.972656 21.824219 11.726562 23.179688 11.394531 C 23.398438 12.375 23.519531 13.371094 23.53125 14.378906 Z M 11.707031 14.285156 C 11.707031 13.589844 11.746094 12.910156 11.792969 12.253906 C 12.71875 12.324219 13.679688 12.367188 14.683594 12.367188 L 14.957031 12.367188 C 16.070312 12.367188 17.132812 12.316406 18.152344 12.210938 C 18.207031 12.882812 18.238281 13.570312 18.246094 14.285156 C 18.246094 15.199219 18.210938 16.082031 18.136719 16.9375 C 17.121094 16.84375 16.058594 16.785156 14.949219 16.773438 C 13.84375 16.765625 12.808594 16.808594 11.808594 16.894531 C 11.726562 16.050781 11.6875 15.179688 11.695312 14.285156 Z M 14.960938 6.738281 L 15.0625 6.738281 C 15.792969 6.738281 16.472656 6.703125 17.113281 6.65625 C 17.554688 8.167969 17.863281 9.703125 18.042969 11.265625 C 17.058594 11.355469 16.019531 11.410156 14.9375 11.414062 C 13.851562 11.417969 12.851562 11.382812 11.878906 11.308594 C 12.0625 9.726562 12.375 8.167969 12.820312 6.636719 C 13.53125 6.703125 14.261719 6.738281 14.960938 6.738281 Z M 13.109375 5.707031 C 13.605469 4.195312 14.222656 2.738281 14.964844 1.332031 C 15.707031 2.742188 16.328125 4.207031 16.828125 5.722656 C 16.269531 5.761719 15.683594 5.78125 15.058594 5.785156 L 14.960938 5.785156 C 14.34375 5.785156 13.726562 5.757812 13.109375 5.707031 Z M 14.929688 17.730469 C 16.015625 17.730469 17.046875 17.792969 18.027344 17.886719 C 17.839844 19.445312 17.523438 20.976562 17.082031 22.480469 C 16.449219 22.4375 15.777344 22.40625 15.0625 22.40625 C 14.351562 22.40625 13.585938 22.4375 12.851562 22.496094 C 12.402344 20.972656 12.082031 19.417969 11.894531 17.839844 C 12.863281 17.761719 13.878906 17.71875 14.929688 17.730469 Z M 15.058594 23.378906 C 15.667969 23.378906 16.242188 23.378906 16.789062 23.4375 C 16.296875 24.914062 15.6875 26.34375 14.964844 27.71875 C 14.242188 26.34375 13.632812 24.921875 13.144531 23.445312 C 13.769531 23.378906 14.425781 23.378906 15.058594 23.378906 Z M 13.636719 27.203125 C 12.164062 26.328125 10.882812 25.230469 9.789062 23.914062 C 10.574219 23.75 11.371094 23.625 12.167969 23.535156 C 12.578125 24.785156 13.066406 26 13.636719 27.183594 Z M 12.597656 27.695312 C 10.273438 27.296875 8.203125 26.351562 6.382812 24.855469 C 7.171875 24.570312 7.96875 24.324219 8.78125 24.121094 C 9.855469 25.515625 11.125 26.699219 12.597656 27.667969 Z M 16.289062 27.203125 C 16.867188 26.007812 17.359375 24.777344 17.765625 23.515625 C 18.574219 23.59375 19.375 23.710938 20.167969 23.871094 C 19.070312 25.203125 17.777344 26.308594 16.289062 27.183594 Z M 21.214844 24.105469 C 21.917969 24.289062 22.613281 24.507812 23.296875 24.765625 C 21.597656 26.1875 19.667969 27.125 17.5 27.578125 C 18.925781 26.617188 20.15625 25.453125 21.199219 24.085938 Z M 18.0625 22.585938 C 18.496094 21.085938 18.804688 19.558594 18.988281 18.007812 C 20.316406 18.167969 21.628906 18.414062 22.925781 18.746094 C 22.460938 20.289062 21.761719 21.71875 20.824219 23.03125 C 19.90625 22.824219 18.980469 22.667969 18.046875 22.566406 Z M 18.992188 11.167969 C 18.808594 9.613281 18.503906 8.082031 18.078125 6.574219 C 19.015625 6.476562 19.949219 6.324219 20.867188 6.117188 C 21.800781 7.449219 22.496094 8.894531 22.953125 10.453125 C 21.648438 10.773438 20.328125 11.011719 18.992188 11.167969 Z M 17.796875 5.652344 C 17.382812 4.351562 16.882812 3.085938 16.289062 1.855469 C 17.808594 2.769531 19.121094 3.917969 20.230469 5.304688 C 19.425781 5.460938 18.613281 5.578125 17.796875 5.652344 Z M 17.480469 1.484375 C 19.699219 1.941406 21.667969 2.90625 23.390625 4.375 C 22.699219 4.636719 21.996094 4.859375 21.28125 5.046875 C 20.214844 3.644531 18.949219 2.453125 17.480469 1.472656 Z M 13.636719 1.863281 C 13.054688 3.082031 12.5625 4.339844 12.160156 5.628906 C 11.347656 5.539062 10.539062 5.40625 9.746094 5.238281 C 10.84375 3.878906 12.140625 2.75 13.636719 1.851562 Z M 8.710938 5.003906 C 7.890625 4.792969 7.082031 4.546875 6.285156 4.253906 C 8.128906 2.722656 10.234375 1.757812 12.597656 1.363281 C 11.089844 2.351562 9.789062 3.5625 8.699219 4.992188 Z M 11.875 6.554688 C 11.4375 8.089844 11.128906 9.652344 10.949219 11.238281 C 9.601562 11.101562 8.269531 10.882812 6.949219 10.578125 C 7.410156 8.957031 8.125 7.460938 9.09375 6.085938 C 10.007812 6.289062 10.929688 6.441406 11.859375 6.542969 Z M 10.949219 17.925781 C 11.132812 19.507812 11.445312 21.066406 11.886719 22.59375 C 10.964844 22.703125 10.050781 22.855469 9.144531 23.058594 C 8.175781 21.703125 7.457031 20.226562 6.984375 18.625 C 8.289062 18.304688 9.613281 18.074219 10.949219 17.925781 Z M 8.167969 23.304688 C 7.28125 23.539062 6.410156 23.820312 5.558594 24.144531 C 4.351562 22.992188 3.390625 21.664062 2.679688 20.152344 C 3.765625 19.605469 4.894531 19.175781 6.0625 18.859375 C 6.527344 20.453125 7.226562 21.933594 8.167969 23.304688 Z M 24.070312 24.03125 C 23.328125 23.730469 22.566406 23.472656 21.792969 23.257812 C 22.691406 21.9375 23.367188 20.511719 23.828125 18.980469 C 24.863281 19.28125 25.859375 19.671875 26.820312 20.15625 C 26.136719 21.617188 25.222656 22.90625 24.070312 24.03125 Z M 27.195312 19.28125 C 26.191406 18.777344 25.148438 18.375 24.070312 18.066406 C 24.621094 15.757812 24.636719 13.445312 24.109375 11.128906 C 25.199219 10.828125 26.253906 10.441406 27.277344 9.960938 C 27.828125 11.46875 28.09375 13.023438 28.082031 14.628906 C 28.066406 16.234375 27.769531 17.785156 27.195312 19.28125 Z M 26.914062 9.101562 C 25.929688 9.566406 24.914062 9.945312 23.867188 10.238281 C 23.417969 8.683594 22.746094 7.234375 21.851562 5.890625 C 22.636719 5.671875 23.402344 5.410156 24.152344 5.101562 C 25.320312 6.265625 26.238281 7.597656 26.914062 9.101562 Z M 5.472656 4.964844 C 6.328125 5.292969 7.199219 5.578125 8.085938 5.816406 C 7.15625 7.207031 6.464844 8.710938 6.015625 10.320312 C 4.828125 10.015625 3.679688 9.597656 2.566406 9.074219 C 3.277344 7.519531 4.246094 6.148438 5.472656 4.964844 Z M 2.230469 9.964844 C 3.378906 10.503906 4.570312 10.933594 5.796875 11.25 C 5.574219 12.277344 5.453125 13.316406 5.445312 14.367188 C 5.433594 15.582031 5.558594 16.777344 5.828125 17.960938 C 4.609375 18.292969 3.4375 18.734375 2.308594 19.296875 C 1.734375 17.800781 1.441406 16.253906 1.425781 14.652344 C 1.414062 13.050781 1.679688 11.496094 2.230469 9.992188 Z M 2.230469 9.964844 " fill-opacity="1" fill-rule="nonzero"/></g></svg>