<svg xmlns="http://www.w3.org/2000/svg" xmlns:xlink="http://www.w3.org/1999/xlink" width="40" zoomAndPan="magnify" viewBox="0 0 30 30.000001" height="40" preserveAspectRatio="xMidYMid meet" version="1.0"><defs><clipPath id="3af3b0f905"><path d="M 1.808594 3 L 27.9375 3 L 27.9375 23 L 1.808594 23 Z M 1.808594 3 " clip-rule="nonzero"/></clipPath><clipPath id="f7bcc34520"><path d="M 9 25 L 21 25 L 21 29.03125 L 9 29.03125 Z M 9 25 " clip-rule="nonzero"/></clipPath><clipPath id="c07833eccf"><path d="M 1.808594 19 L 27.9375 19 L 27.9375 21 L 1.808594 21 Z M 1.808594 19 " clip-rule="nonzero"/></clipPath></defs><path fill="#31ac7d" d="M 22.457031 18.359375 C 22.371094 18.359375 22.285156 18.332031 22.210938 18.285156 C 21.574219 17.871094 21.117188 17 20.902344 16.515625 C 20.5625 15.753906 20.363281 14.945312 20.363281 14.347656 C 20.363281 13.449219 20.621094 12.980469 21.015625 12.367188 C 21.097656 12.238281 21.242188 12.160156 21.394531 12.160156 L 23.109375 12.160156 C 23.253906 12.160156 23.386719 12.226562 23.472656 12.34375 C 23.828125 12.820312 24.050781 13.304688 24.132812 13.777344 C 24.175781 14.035156 24.175781 14.277344 24.136719 14.5 C 24.089844 15.042969 23.808594 15.464844 23.558594 15.84375 C 23.496094 15.933594 23.4375 16.019531 23.382812 16.109375 C 23.011719 16.707031 22.984375 17.078125 22.953125 17.507812 C 22.941406 17.65625 22.933594 17.804688 22.90625 17.96875 C 22.886719 18.121094 22.785156 18.253906 22.644531 18.316406 C 22.585938 18.34375 22.523438 18.359375 22.457031 18.359375 Z M 21.644531 13.066406 C 21.398438 13.46875 21.269531 13.773438 21.269531 14.347656 C 21.269531 14.816406 21.445312 15.507812 21.730469 16.144531 C 21.851562 16.410156 21.980469 16.652344 22.113281 16.863281 C 22.175781 16.515625 22.308594 16.121094 22.613281 15.628906 C 22.675781 15.527344 22.738281 15.433594 22.800781 15.339844 C 23.019531 15.007812 23.210938 14.726562 23.230469 14.410156 C 23.234375 14.378906 23.238281 14.355469 23.242188 14.335938 C 23.269531 14.203125 23.3125 13.746094 22.871094 13.066406 Z M 24.136719 14.472656 Z M 24.136719 14.472656 " fill-opacity="1" fill-rule="evenodd"/><path fill="#31ac7d" d="M 23.109375 13.066406 C 23.078125 13.066406 23.046875 13.0625 23.015625 13.054688 C 22.769531 13.003906 22.613281 12.765625 22.664062 12.519531 L 22.878906 11.5 L 21.625 11.5 L 21.839844 12.519531 C 21.890625 12.765625 21.734375 13.003906 21.488281 13.054688 C 21.242188 13.109375 21.003906 12.949219 20.953125 12.703125 L 20.625 11.136719 C 20.597656 11.003906 20.628906 10.863281 20.714844 10.757812 C 20.804688 10.652344 20.933594 10.589844 21.070312 10.589844 L 23.433594 10.589844 C 23.570312 10.589844 23.703125 10.652344 23.789062 10.757812 C 23.875 10.863281 23.90625 11.003906 23.878906 11.136719 L 23.550781 12.703125 C 23.507812 12.917969 23.320312 13.066406 23.109375 13.066406 Z M 23.109375 13.066406 " fill-opacity="1" fill-rule="evenodd"/><path fill="#31ac7d" d="M 23.433594 11.5 C 23.191406 11.5 22.992188 11.304688 22.980469 11.058594 L 22.65625 1.328125 C 22.65625 1.320312 22.65625 1.316406 22.65625 1.3125 C 22.65625 1.089844 22.472656 0.910156 22.253906 0.910156 C 22.03125 0.910156 21.847656 1.089844 21.847656 1.3125 C 21.847656 1.316406 21.847656 1.320312 21.847656 1.328125 L 21.523438 11.058594 C 21.515625 11.308594 21.304688 11.507812 21.054688 11.5 C 20.804688 11.488281 20.605469 11.28125 20.617188 11.03125 L 20.941406 1.304688 C 20.945312 0.585938 21.53125 0 22.253906 0 C 22.972656 0 23.558594 0.585938 23.5625 1.304688 L 23.890625 11.03125 C 23.898438 11.28125 23.703125 11.488281 23.449219 11.5 C 23.445312 11.5 23.441406 11.5 23.433594 11.5 Z M 23.433594 11.5 " fill-opacity="1" fill-rule="evenodd"/><g clip-path="url(#3af3b0f905)"><path fill="#31ac7d" d="M 26.828125 22.871094 L 3.167969 22.871094 C 2.417969 22.871094 1.8125 22.261719 1.8125 21.515625 L 1.8125 5.039062 C 1.8125 4.289062 2.417969 3.679688 3.167969 3.679688 L 21.300781 3.679688 C 21.550781 3.679688 21.753906 3.882812 21.753906 4.136719 C 21.753906 4.386719 21.550781 4.589844 21.300781 4.589844 L 3.167969 4.589844 C 2.917969 4.589844 2.71875 4.789062 2.71875 5.039062 L 2.71875 21.515625 C 2.71875 21.761719 2.917969 21.964844 3.167969 21.964844 L 26.828125 21.964844 C 27.078125 21.964844 27.277344 21.761719 27.277344 21.515625 L 27.277344 5.039062 C 27.277344 4.789062 27.078125 4.589844 26.828125 4.589844 L 23.203125 4.589844 C 22.953125 4.589844 22.75 4.386719 22.75 4.136719 C 22.75 3.882812 22.953125 3.679688 23.203125 3.679688 L 26.828125 3.679688 C 27.578125 3.679688 28.1875 4.289062 28.1875 5.039062 L 28.1875 21.515625 C 28.1875 22.261719 27.578125 22.871094 26.828125 22.871094 Z M 26.828125 22.871094 " fill-opacity="1" fill-rule="evenodd"/></g><path fill="#31ac7d" d="M 12.523438 26.890625 C 12.484375 26.890625 12.445312 26.886719 12.40625 26.875 C 12.164062 26.808594 12.019531 26.558594 12.085938 26.320312 L 13.183594 22.296875 C 13.25 22.054688 13.5 21.914062 13.742188 21.980469 C 13.984375 22.046875 14.125 22.292969 14.058594 22.535156 L 12.960938 26.558594 C 12.90625 26.757812 12.726562 26.890625 12.523438 26.890625 Z M 12.523438 26.890625 " fill-opacity="1" fill-rule="evenodd"/><path fill="#31ac7d" d="M 17.472656 26.890625 C 17.273438 26.890625 17.089844 26.757812 17.035156 26.558594 L 15.941406 22.550781 C 15.929688 22.507812 15.921875 22.464844 15.921875 22.417969 C 15.921875 22.167969 16.125 21.964844 16.375 21.964844 C 16.578125 21.964844 16.757812 22.101562 16.8125 22.296875 L 17.910156 26.320312 C 17.976562 26.558594 17.832031 26.808594 17.589844 26.875 C 17.550781 26.886719 17.511719 26.890625 17.472656 26.890625 Z M 17.472656 26.890625 " fill-opacity="1" fill-rule="evenodd"/><g clip-path="url(#f7bcc34520)"><path fill="#31ac7d" d="M 20.019531 29.035156 L 9.976562 29.035156 C 9.726562 29.035156 9.523438 28.832031 9.523438 28.582031 L 9.523438 27.464844 C 9.523438 26.648438 10.1875 25.984375 11.003906 25.984375 L 18.996094 25.984375 C 19.8125 25.984375 20.476562 26.648438 20.476562 27.464844 L 20.476562 28.582031 C 20.476562 28.832031 20.273438 29.035156 20.019531 29.035156 Z M 10.429688 28.128906 L 19.566406 28.128906 L 19.566406 27.464844 C 19.566406 27.148438 19.3125 26.890625 18.996094 26.890625 L 11.003906 26.890625 C 10.6875 26.890625 10.429688 27.148438 10.429688 27.464844 Z M 10.429688 28.128906 " fill-opacity="1" fill-rule="evenodd"/></g><g clip-path="url(#c07833eccf)"><path fill="#31ac7d" d="M 27.734375 20.332031 L 2.265625 20.332031 C 2.015625 20.332031 1.8125 20.128906 1.8125 19.878906 C 1.8125 19.628906 2.015625 19.425781 2.265625 19.425781 L 27.734375 19.425781 C 27.984375 19.425781 28.1875 19.628906 28.1875 19.878906 C 28.1875 20.128906 27.984375 20.332031 27.734375 20.332031 Z M 27.734375 20.332031 " fill-opacity="1" fill-rule="evenodd"/></g><path fill="#31ac7d" d="M 25.585938 20.332031 C 25.335938 20.332031 25.132812 20.128906 25.132812 19.878906 L 25.132812 6.617188 L 23.273438 6.617188 C 23.019531 6.617188 22.816406 6.414062 22.816406 6.160156 C 22.816406 5.910156 23.019531 5.707031 23.273438 5.707031 L 25.585938 5.707031 C 25.835938 5.707031 26.039062 5.910156 26.039062 6.160156 L 26.039062 19.878906 C 26.039062 20.128906 25.835938 20.332031 25.585938 20.332031 Z M 25.585938 20.332031 " fill-opacity="1" fill-rule="evenodd"/><path fill="#31ac7d" d="M 4.410156 20.332031 C 4.160156 20.332031 3.957031 20.128906 3.957031 19.878906 L 3.957031 6.160156 C 3.957031 5.910156 4.160156 5.707031 4.410156 5.707031 L 21.234375 5.707031 C 21.484375 5.707031 21.6875 5.910156 21.6875 6.160156 C 21.6875 6.414062 21.484375 6.617188 21.234375 6.617188 L 4.867188 6.617188 L 4.867188 19.878906 C 4.867188 20.128906 4.664062 20.332031 4.410156 20.332031 Z M 4.410156 20.332031 " fill-opacity="1" fill-rule="evenodd"/><path fill="#31ac7d" d="M 18.847656 10.71875 L 6.425781 10.71875 C 6.175781 10.71875 5.972656 10.515625 5.972656 10.265625 L 5.972656 8.136719 C 5.972656 7.886719 6.175781 7.683594 6.425781 7.683594 L 18.847656 7.683594 C 19.097656 7.683594 19.300781 7.886719 19.300781 8.136719 L 19.300781 10.265625 C 19.300781 10.515625 19.097656 10.71875 18.847656 10.71875 Z M 6.882812 9.8125 L 18.394531 9.8125 L 18.394531 8.589844 L 6.882812 8.589844 Z M 6.882812 9.8125 " fill-opacity="1" fill-rule="evenodd"/><path fill="#31ac7d" d="M 18.847656 18.359375 L 14.289062 18.359375 C 14.039062 18.359375 13.835938 18.15625 13.835938 17.90625 L 13.835938 11.972656 C 13.835938 11.722656 14.039062 11.519531 14.289062 11.519531 L 18.847656 11.519531 C 19.097656 11.519531 19.300781 11.722656 19.300781 11.972656 L 19.300781 17.90625 C 19.300781 18.15625 19.097656 18.359375 18.847656 18.359375 Z M 14.746094 17.449219 L 18.394531 17.449219 L 18.394531 12.425781 L 14.746094 12.425781 Z M 14.746094 17.449219 " fill-opacity="1" fill-rule="evenodd"/><path fill="#31ac7d" d="M 12.078125 14.167969 L 6.425781 14.167969 C 6.175781 14.167969 5.972656 13.964844 5.972656 13.710938 L 5.972656 11.972656 C 5.972656 11.722656 6.175781 11.519531 6.425781 11.519531 L 12.078125 11.519531 C 12.328125 11.519531 12.53125 11.722656 12.53125 11.972656 L 12.53125 13.710938 C 12.53125 13.964844 12.328125 14.167969 12.078125 14.167969 Z M 6.882812 13.257812 L 11.625 13.257812 L 11.625 12.425781 L 6.882812 12.425781 Z M 6.882812 13.257812 " fill-opacity="1" fill-rule="evenodd"/><path fill="#31ac7d" d="M 12.078125 18.359375 L 6.425781 18.359375 C 6.175781 18.359375 5.972656 18.15625 5.972656 17.90625 L 5.972656 15.386719 C 5.972656 15.136719 6.175781 14.933594 6.425781 14.933594 L 12.078125 14.933594 C 12.328125 14.933594 12.53125 15.136719 12.53125 15.386719 L 12.53125 17.90625 C 12.53125 18.15625 12.328125 18.359375 12.078125 18.359375 Z M 6.882812 17.449219 L 11.625 17.449219 L 11.625 15.839844 L 6.882812 15.839844 Z M 6.882812 17.449219 " fill-opacity="1" fill-rule="evenodd"/></svg>