<svg xmlns="http://www.w3.org/2000/svg" xmlns:xlink="http://www.w3.org/1999/xlink" width="40" zoomAndPan="magnify" viewBox="0 0 30 30.000001" height="40" preserveAspectRatio="xMidYMid meet" version="1.0"><defs><clipPath id="f215085f9e"><path d="M 0.484375 0.707031 L 29.515625 0.707031 L 29.515625 28.289062 L 0.484375 28.289062 Z M 0.484375 0.707031 " clip-rule="nonzero"/></clipPath><clipPath id="7606617255"><path d="M 0.484375 6 L 29.515625 6 L 29.515625 8 L 0.484375 8 Z M 0.484375 6 " clip-rule="nonzero"/></clipPath></defs><g clip-path="url(#f215085f9e)"><path fill="#31ac7d" d="M 26.710938 28.320312 L 3.285156 28.320312 C 1.746094 28.320312 0.496094 27.066406 0.496094 25.527344 L 0.496094 3.5 C 0.496094 1.960938 1.746094 0.707031 3.285156 0.707031 L 26.710938 0.707031 C 28.25 0.707031 29.503906 1.960938 29.503906 3.5 L 29.503906 25.527344 C 29.503906 27.066406 28.25 28.320312 26.710938 28.320312 Z M 3.285156 1.652344 C 2.269531 1.652344 1.441406 2.480469 1.441406 3.5 L 1.441406 25.527344 C 1.441406 26.546875 2.269531 27.375 3.285156 27.375 L 26.710938 27.375 C 27.730469 27.375 28.558594 26.546875 28.558594 25.527344 L 28.558594 3.5 C 28.558594 2.480469 27.730469 1.652344 26.710938 1.652344 Z M 3.285156 1.652344 " fill-opacity="1" fill-rule="nonzero"/></g><g clip-path="url(#7606617255)"><path fill="#31ac7d" d="M 29.03125 7.566406 L 0.96875 7.566406 C 0.707031 7.566406 0.496094 7.355469 0.496094 7.09375 C 0.496094 6.832031 0.707031 6.621094 0.96875 6.621094 L 29.03125 6.621094 C 29.292969 6.621094 29.503906 6.832031 29.503906 7.09375 C 29.503906 7.355469 29.292969 7.566406 29.03125 7.566406 Z M 29.03125 7.566406 " fill-opacity="1" fill-rule="nonzero"/></g><path fill="#31ac7d" d="M 25.976562 4.609375 L 18.238281 4.609375 C 17.976562 4.609375 17.765625 4.398438 17.765625 4.136719 C 17.765625 3.875 17.976562 3.664062 18.238281 3.664062 L 25.976562 3.664062 C 26.238281 3.664062 26.449219 3.875 26.449219 4.136719 C 26.449219 4.398438 26.238281 4.609375 25.976562 4.609375 Z M 25.976562 4.609375 " fill-opacity="1" fill-rule="nonzero"/><path fill="#31ac7d" d="M 6.214844 5.628906 L 4.570312 5.628906 C 4.007812 5.628906 3.550781 5.171875 3.550781 4.609375 L 3.550781 3.664062 C 3.550781 3.101562 4.007812 2.644531 4.570312 2.644531 L 6.214844 2.644531 C 6.777344 2.644531 7.234375 3.101562 7.234375 3.664062 L 7.234375 4.609375 C 7.234375 5.171875 6.777344 5.628906 6.214844 5.628906 Z M 4.570312 3.589844 C 4.527344 3.589844 4.496094 3.625 4.496094 3.664062 L 4.496094 4.609375 C 4.496094 4.648438 4.527344 4.683594 4.570312 4.683594 L 6.214844 4.683594 C 6.253906 4.683594 6.289062 4.648438 6.289062 4.609375 L 6.289062 3.664062 C 6.289062 3.625 6.253906 3.589844 6.214844 3.589844 Z M 4.570312 3.589844 " fill-opacity="1" fill-rule="nonzero"/><path fill="#31ac7d" d="M 10.984375 5.628906 L 9.339844 5.628906 C 8.777344 5.628906 8.320312 5.171875 8.320312 4.609375 L 8.320312 3.664062 C 8.320312 3.101562 8.777344 2.644531 9.339844 2.644531 L 10.984375 2.644531 C 11.546875 2.644531 12.003906 3.101562 12.003906 3.664062 L 12.003906 4.609375 C 12.003906 5.171875 11.546875 5.628906 10.984375 5.628906 Z M 9.339844 3.589844 C 9.296875 3.589844 9.265625 3.625 9.265625 3.664062 L 9.265625 4.609375 C 9.265625 4.648438 9.296875 4.683594 9.339844 4.683594 L 10.984375 4.683594 C 11.023438 4.683594 11.058594 4.648438 11.058594 4.609375 L 11.058594 3.664062 C 11.058594 3.625 11.023438 3.589844 10.984375 3.589844 Z M 9.339844 3.589844 " fill-opacity="1" fill-rule="nonzero"/><path fill="#31ac7d" d="M 15.753906 5.628906 L 14.109375 5.628906 C 13.546875 5.628906 13.089844 5.171875 13.089844 4.609375 L 13.089844 3.664062 C 13.089844 3.101562 13.546875 2.644531 14.109375 2.644531 L 15.753906 2.644531 C 16.316406 2.644531 16.773438 3.101562 16.773438 3.664062 L 16.773438 4.609375 C 16.773438 5.171875 16.316406 5.628906 15.753906 5.628906 Z M 14.109375 3.589844 C 14.066406 3.589844 14.035156 3.625 14.035156 3.664062 L 14.035156 4.609375 C 14.035156 4.648438 14.066406 4.683594 14.109375 4.683594 L 15.753906 4.683594 C 15.792969 4.683594 15.828125 4.648438 15.828125 4.609375 L 15.828125 3.664062 C 15.828125 3.625 15.792969 3.589844 15.753906 3.589844 Z M 14.109375 3.589844 " fill-opacity="1" fill-rule="nonzero"/><path fill="#31ac7d" d="M 7.3125 21.894531 C 7.125 21.894531 6.9375 21.847656 6.765625 21.746094 L 5.832031 21.210938 C 5.351562 20.929688 5.152344 20.335938 5.371094 19.824219 L 5.742188 18.949219 C 5.410156 18.539062 5.140625 18.070312 4.949219 17.574219 L 4.003906 17.460938 C 3.453125 17.394531 3.039062 16.921875 3.039062 16.367188 L 3.039062 15.289062 C 3.039062 14.734375 3.453125 14.265625 4.007812 14.199219 L 4.949219 14.082031 C 5.042969 13.835938 5.160156 13.59375 5.292969 13.363281 C 5.425781 13.132812 5.578125 12.910156 5.746094 12.707031 L 5.371094 11.832031 C 5.152344 11.320312 5.351562 10.726562 5.835938 10.445312 L 6.765625 9.910156 C 7.246094 9.632812 7.863281 9.757812 8.195312 10.203125 L 8.765625 10.960938 C 9.292969 10.878906 9.832031 10.875 10.355469 10.960938 L 10.925781 10.203125 C 11.261719 9.757812 11.875 9.632812 12.359375 9.910156 L 13.289062 10.445312 C 13.773438 10.726562 13.96875 11.320312 13.75 11.832031 L 13.378906 12.707031 C 13.714844 13.117188 13.984375 13.585938 14.171875 14.082031 L 15.117188 14.195312 C 15.15625 14.199219 15.191406 14.207031 15.226562 14.214844 C 15.484375 14.273438 15.640625 14.527344 15.585938 14.78125 C 15.527344 15.035156 15.273438 15.195312 15.019531 15.136719 C 15.015625 15.136719 15.007812 15.136719 15.003906 15.136719 L 13.765625 14.984375 C 13.582031 14.964844 13.425781 14.832031 13.371094 14.65625 C 13.195312 14.082031 12.886719 13.550781 12.480469 13.113281 C 12.355469 12.976562 12.320312 12.777344 12.394531 12.605469 L 12.882812 11.460938 C 12.914062 11.386719 12.886719 11.304688 12.816406 11.265625 L 11.886719 10.726562 C 11.816406 10.6875 11.730469 10.703125 11.683594 10.769531 L 10.933594 11.765625 C 10.824219 11.914062 10.632812 11.984375 10.453125 11.941406 C 9.871094 11.808594 9.257812 11.808594 8.671875 11.941406 C 8.488281 11.984375 8.300781 11.914062 8.1875 11.765625 L 7.441406 10.769531 C 7.390625 10.703125 7.308594 10.6875 7.238281 10.726562 L 6.304688 11.265625 C 6.234375 11.304688 6.210938 11.386719 6.242188 11.460938 L 6.730469 12.605469 C 6.804688 12.777344 6.769531 12.976562 6.640625 13.113281 C 6.4375 13.332031 6.261719 13.574219 6.109375 13.835938 C 5.960938 14.09375 5.839844 14.371094 5.75 14.65625 C 5.695312 14.835938 5.542969 14.964844 5.355469 14.984375 L 4.117188 15.136719 C 4.039062 15.144531 3.980469 15.210938 3.980469 15.289062 L 3.980469 16.367188 C 3.980469 16.445312 4.039062 16.511719 4.117188 16.519531 L 5.355469 16.667969 C 5.542969 16.691406 5.695312 16.820312 5.75 17 C 5.929688 17.574219 6.234375 18.105469 6.640625 18.542969 C 6.769531 18.679688 6.800781 18.875 6.730469 19.050781 L 6.238281 20.195312 C 6.207031 20.269531 6.234375 20.351562 6.304688 20.390625 L 7.238281 20.929688 C 7.304688 20.96875 7.390625 20.953125 7.4375 20.886719 L 8.1875 19.890625 C 8.300781 19.742188 8.488281 19.671875 8.671875 19.714844 C 9.25 19.847656 9.867188 19.847656 10.449219 19.710938 C 10.632812 19.671875 10.820312 19.738281 10.933594 19.890625 L 11.683594 20.886719 C 11.730469 20.953125 11.816406 20.96875 11.882812 20.929688 L 12.816406 20.390625 C 12.886719 20.351562 12.914062 20.269531 12.882812 20.195312 L 12.390625 19.050781 C 12.320312 18.878906 12.355469 18.679688 12.480469 18.542969 C 12.683594 18.324219 12.863281 18.082031 13.011719 17.820312 C 13.164062 17.558594 13.28125 17.285156 13.371094 17 C 13.425781 16.820312 13.582031 16.691406 13.765625 16.667969 L 15.003906 16.519531 C 15.015625 16.519531 15.027344 16.515625 15.039062 16.511719 C 15.285156 16.417969 15.558594 16.542969 15.648438 16.785156 C 15.742188 17.03125 15.617188 17.304688 15.375 17.394531 C 15.289062 17.425781 15.203125 17.449219 15.117188 17.457031 L 14.171875 17.570312 C 14.078125 17.820312 13.964844 18.0625 13.832031 18.292969 C 13.695312 18.523438 13.546875 18.742188 13.378906 18.949219 L 13.75 19.824219 C 13.96875 20.335938 13.769531 20.929688 13.289062 21.207031 L 12.355469 21.746094 C 11.875 22.023438 11.257812 21.898438 10.925781 21.453125 L 10.355469 20.691406 C 9.828125 20.777344 9.289062 20.777344 8.765625 20.695312 L 8.195312 21.453125 C 7.980469 21.742188 7.652344 21.894531 7.3125 21.894531 Z M 7.3125 21.894531 " fill-opacity="1" fill-rule="nonzero"/><path fill="#31ac7d" d="M 9.558594 18.410156 C 9.121094 18.410156 8.675781 18.296875 8.269531 18.0625 C 7.675781 17.71875 7.246094 17.164062 7.066406 16.496094 C 6.890625 15.832031 6.980469 15.136719 7.324219 14.539062 C 7.671875 13.941406 8.226562 13.515625 8.894531 13.335938 C 9.558594 13.15625 10.253906 13.25 10.851562 13.59375 C 11.449219 13.9375 11.875 14.496094 12.054688 15.160156 C 12.230469 15.828125 12.140625 16.523438 11.796875 17.117188 C 11.320312 17.945312 10.449219 18.410156 9.558594 18.410156 Z M 9.5625 14.191406 C 9.421875 14.191406 9.277344 14.210938 9.136719 14.25 C 8.714844 14.363281 8.363281 14.632812 8.144531 15.011719 C 7.925781 15.390625 7.867188 15.828125 7.980469 16.25 C 8.09375 16.675781 8.363281 17.027344 8.742188 17.246094 C 9.523438 17.695312 10.527344 17.425781 10.976562 16.644531 C 11.429688 15.867188 11.160156 14.863281 10.378906 14.414062 C 10.128906 14.265625 9.847656 14.191406 9.5625 14.191406 Z M 9.5625 14.191406 " fill-opacity="1" fill-rule="nonzero"/><path fill="#31ac7d" d="M 20.804688 25.179688 C 20.71875 25.179688 20.632812 25.15625 20.558594 25.109375 C 17.75 23.378906 16.285156 21.980469 15.503906 20.277344 C 14.707031 18.550781 14.648438 16.601562 14.648438 13.820312 C 14.648438 13.589844 14.8125 13.390625 15.039062 13.351562 C 15.105469 13.339844 16.683594 13.03125 16.683594 11.378906 C 16.683594 11.117188 16.898438 10.90625 17.15625 10.90625 L 24.453125 10.90625 C 24.710938 10.90625 24.925781 11.117188 24.925781 11.378906 C 24.925781 13.050781 26.5 13.339844 26.570312 13.351562 C 26.796875 13.390625 26.960938 13.589844 26.960938 13.820312 C 26.960938 16.601562 26.902344 18.550781 26.105469 20.277344 C 25.324219 21.980469 23.859375 23.378906 21.054688 25.109375 C 20.976562 25.15625 20.890625 25.179688 20.804688 25.179688 Z M 15.59375 14.183594 C 15.605469 19.226562 15.949219 21.101562 20.804688 24.152344 C 25.660156 21.101562 26.003906 19.226562 26.015625 14.183594 C 25.238281 13.921875 24.207031 13.222656 24.011719 11.851562 L 17.597656 11.851562 C 17.402344 13.226562 16.371094 13.921875 15.59375 14.183594 Z M 15.59375 14.183594 " fill-opacity="1" fill-rule="nonzero"/><path fill="#31ac7d" d="M 20.804688 23.292969 C 20.714844 23.292969 20.625 23.269531 20.546875 23.21875 C 16.824219 20.8125 16.285156 19.296875 16.246094 14.949219 C 16.242188 14.769531 16.34375 14.601562 16.507812 14.523438 C 16.644531 14.453125 16.78125 14.375 16.898438 14.292969 C 17.414062 13.941406 17.769531 13.472656 17.957031 12.898438 C 18.019531 12.703125 18.203125 12.574219 18.40625 12.574219 L 23.203125 12.574219 C 23.40625 12.574219 23.589844 12.707031 23.652344 12.898438 C 23.839844 13.472656 24.195312 13.941406 24.710938 14.292969 C 24.828125 14.375 24.964844 14.453125 25.101562 14.523438 C 25.265625 14.601562 25.367188 14.769531 25.363281 14.949219 C 25.324219 19.296875 24.785156 20.8125 21.0625 23.21875 C 20.984375 23.269531 20.894531 23.292969 20.804688 23.292969 Z M 17.191406 15.226562 C 17.246094 18.902344 17.671875 20.183594 20.804688 22.257812 C 23.9375 20.183594 24.363281 18.902344 24.417969 15.226562 C 24.332031 15.175781 24.253906 15.125 24.175781 15.074219 C 23.59375 14.675781 23.152344 14.144531 22.878906 13.519531 L 18.730469 13.519531 C 18.457031 14.144531 18.015625 14.675781 17.433594 15.074219 C 17.355469 15.125 17.277344 15.175781 17.191406 15.226562 Z M 17.191406 15.226562 " fill-opacity="1" fill-rule="nonzero"/><path fill="#31ac7d" d="M 19.386719 19.542969 C 19.332031 19.542969 19.277344 19.535156 19.226562 19.515625 C 19.078125 19.460938 18.96875 19.34375 18.929688 19.191406 L 18.566406 17.84375 C 18.5 17.589844 18.648438 17.332031 18.902344 17.265625 C 19.152344 17.195312 19.414062 17.347656 19.480469 17.597656 L 19.667969 18.289062 L 22.3125 16.410156 C 22.527344 16.261719 22.820312 16.3125 22.972656 16.523438 C 23.125 16.738281 23.074219 17.03125 22.859375 17.183594 L 19.660156 19.457031 C 19.578125 19.511719 19.480469 19.542969 19.386719 19.542969 Z M 19.386719 19.542969 " fill-opacity="1" fill-rule="nonzero"/></svg>