<svg xmlns="http://www.w3.org/2000/svg" xmlns:xlink="http://www.w3.org/1999/xlink" width="40" zoomAndPan="magnify" viewBox="0 0 30 30.000001" height="40" preserveAspectRatio="xMidYMid meet" version="1.0"><defs><clipPath id="84145a1ddb"><path d="M 0.484375 4 L 25 4 L 25 24 L 0.484375 24 Z M 0.484375 4 " clip-rule="nonzero"/></clipPath><clipPath id="00481f2e61"><path d="M 17 12 L 29.515625 12 L 29.515625 24.984375 L 17 24.984375 Z M 17 12 " clip-rule="nonzero"/></clipPath></defs><g clip-path="url(#84145a1ddb)"><path fill="#31ac7d" d="M 21.40625 20.070312 L 20.125 18.785156 L 2.15625 18.785156 C 1.941406 18.785156 1.765625 18.609375 1.765625 18.394531 L 1.765625 5.671875 C 1.765625 5.457031 1.941406 5.28125 2.15625 5.28125 L 22.988281 5.28125 C 23.203125 5.28125 23.378906 5.457031 23.378906 5.671875 L 23.378906 15.738281 L 24.664062 17.023438 L 24.664062 5.671875 C 24.664062 4.75 23.914062 4 22.988281 4 L 2.15625 4 C 1.234375 4 0.484375 4.75 0.484375 5.671875 L 0.484375 18.394531 C 0.484375 19.320312 1.234375 20.070312 2.15625 20.070312 L 9.832031 20.070312 L 9.832031 21.292969 L 9.160156 21.292969 C 7.953125 21.292969 6.972656 22.273438 6.972656 23.480469 L 18.171875 23.480469 C 18.171875 22.273438 17.195312 21.292969 15.984375 21.292969 L 15.316406 21.292969 L 15.316406 20.070312 L 21.40625 20.070312 " fill-opacity="1" fill-rule="nonzero"/></g><path fill="#31ac7d" d="M 4.257812 7.054688 C 4.257812 6.699219 3.96875 6.414062 3.617188 6.414062 C 3.261719 6.414062 2.976562 6.699219 2.976562 7.054688 C 2.976562 7.40625 3.261719 7.695312 3.617188 7.695312 C 3.96875 7.695312 4.257812 7.40625 4.257812 7.054688 " fill-opacity="1" fill-rule="nonzero"/><path fill="#31ac7d" d="M 6.582031 7.054688 C 6.582031 6.699219 6.292969 6.414062 5.941406 6.414062 C 5.585938 6.414062 5.300781 6.699219 5.300781 7.054688 C 5.300781 7.40625 5.585938 7.695312 5.941406 7.695312 C 6.292969 7.695312 6.582031 7.40625 6.582031 7.054688 " fill-opacity="1" fill-rule="nonzero"/><path fill="#31ac7d" d="M 8.265625 7.695312 C 8.617188 7.695312 8.902344 7.40625 8.902344 7.054688 C 8.902344 6.699219 8.617188 6.414062 8.265625 6.414062 C 7.910156 6.414062 7.625 6.699219 7.625 7.054688 C 7.625 7.40625 7.910156 7.695312 8.265625 7.695312 " fill-opacity="1" fill-rule="nonzero"/><path fill="#31ac7d" d="M 20.238281 7.5625 L 20.945312 6.722656 C 20.59375 6.527344 20.191406 6.414062 19.757812 6.414062 C 18.8125 6.414062 17.992188 6.953125 17.589844 7.742188 L 18.65625 8.027344 C 18.90625 7.691406 19.308594 7.472656 19.757812 7.472656 C 19.929688 7.472656 20.089844 7.503906 20.238281 7.5625 " fill-opacity="1" fill-rule="nonzero"/><path fill="#31ac7d" d="M 22.191406 8.847656 C 22.191406 8.269531 21.988281 7.738281 21.648438 7.320312 L 20.945312 8.15625 C 21.066406 8.359375 21.132812 8.597656 21.132812 8.847656 C 21.132812 8.90625 21.128906 8.960938 21.125 9.015625 L 22.078125 9.59375 C 22.152344 9.359375 22.191406 9.109375 22.191406 8.847656 " fill-opacity="1" fill-rule="nonzero"/><path fill="#31ac7d" d="M 19.046875 11.175781 L 19.21875 10.113281 C 18.746094 9.910156 18.410156 9.449219 18.386719 8.910156 L 17.332031 8.628906 C 17.328125 8.703125 17.324219 8.773438 17.324219 8.847656 C 17.324219 9.945312 18.050781 10.871094 19.046875 11.175781 " fill-opacity="1" fill-rule="nonzero"/><path fill="#31ac7d" d="M 21.628906 10.402344 L 20.707031 9.84375 C 20.46875 10.070312 20.152344 10.210938 19.796875 10.222656 L 19.628906 11.28125 C 19.671875 11.28125 19.714844 11.285156 19.757812 11.285156 C 20.511719 11.285156 21.183594 10.941406 21.628906 10.402344 " fill-opacity="1" fill-rule="nonzero"/><path fill="#31ac7d" d="M 4.90625 17.644531 L 5.871094 17.644531 L 5.871094 11.398438 L 4.90625 11.398438 L 4.90625 17.644531 " fill-opacity="1" fill-rule="nonzero"/><path fill="#31ac7d" d="M 6.832031 17.644531 L 7.800781 17.644531 L 7.800781 9.835938 L 6.832031 9.835938 L 6.832031 17.644531 " fill-opacity="1" fill-rule="nonzero"/><path fill="#31ac7d" d="M 9.726562 13.730469 L 8.761719 13.730469 L 8.761719 17.644531 L 9.726562 17.644531 L 9.726562 13.730469 " fill-opacity="1" fill-rule="nonzero"/><path fill="#31ac7d" d="M 2.976562 17.644531 L 3.945312 17.644531 L 3.945312 13.445312 L 2.976562 13.445312 L 2.976562 17.644531 " fill-opacity="1" fill-rule="nonzero"/><path fill="#31ac7d" d="M 17.683594 12.558594 L 11.550781 12.558594 L 11.550781 13.738281 L 16.167969 13.738281 C 16.386719 13.40625 16.761719 13.1875 17.175781 13.1875 C 17.496094 13.1875 17.648438 12.914062 17.683594 12.558594 " fill-opacity="1" fill-rule="nonzero"/><path fill="#31ac7d" d="M 11.550781 14.714844 L 11.550781 15.152344 L 15.941406 15.152344 C 15.929688 15.007812 15.925781 14.863281 15.933594 14.714844 L 11.550781 14.714844 " fill-opacity="1" fill-rule="nonzero"/><path fill="#31ac7d" d="M 11.550781 16.398438 L 16.300781 16.398438 C 16.230469 16.257812 16.167969 16.109375 16.113281 15.960938 L 11.550781 15.960938 L 11.550781 16.398438 " fill-opacity="1" fill-rule="nonzero"/><path fill="#31ac7d" d="M 11.550781 17.644531 L 17.386719 17.644531 C 17.226562 17.53125 17.070312 17.402344 16.925781 17.257812 C 16.910156 17.238281 16.894531 17.222656 16.878906 17.207031 L 11.550781 17.207031 L 11.550781 17.644531 " fill-opacity="1" fill-rule="nonzero"/><g clip-path="url(#00481f2e61)"><path fill="#31ac7d" d="M 27.886719 23.398438 C 27.570312 23.710938 27.152344 23.855469 26.738281 23.832031 C 26.390625 23.808594 26.046875 23.664062 25.777344 23.398438 C 25.199219 22.816406 25.199219 21.871094 25.777344 21.289062 C 26.359375 20.710938 27.304688 20.710938 27.886719 21.289062 C 28.152344 21.558594 28.296875 21.898438 28.320312 22.25 C 28.34375 22.660156 28.199219 23.082031 27.886719 23.398438 Z M 28.566406 20.609375 C 27.894531 19.9375 26.925781 19.738281 26.078125 20.007812 L 21.546875 15.476562 C 21.765625 14.703125 21.570312 13.835938 20.960938 13.222656 C 20.390625 12.652344 19.59375 12.445312 18.855469 12.601562 C 18.792969 12.617188 18.765625 12.695312 18.8125 12.746094 L 20.351562 14.28125 C 20.445312 14.375 20.445312 14.519531 20.351562 14.609375 L 19.101562 15.863281 C 19.011719 15.953125 18.863281 15.953125 18.773438 15.863281 L 17.234375 14.324219 C 17.1875 14.277344 17.105469 14.300781 17.089844 14.367188 C 16.933594 15.101562 17.140625 15.902344 17.714844 16.472656 C 18.320312 17.082031 19.191406 17.277344 19.964844 17.054688 L 24.5 21.589844 C 24.226562 22.4375 24.425781 23.40625 25.097656 24.078125 C 26.054688 25.035156 27.609375 25.035156 28.566406 24.078125 C 29.523438 23.121094 29.523438 21.566406 28.566406 20.609375 " fill-opacity="1" fill-rule="nonzero"/></g></svg>