<svg xmlns="http://www.w3.org/2000/svg" xmlns:xlink="http://www.w3.org/1999/xlink" width="40" zoomAndPan="magnify" viewBox="0 0 30 30.000001" height="40" preserveAspectRatio="xMidYMid meet" version="1.0"><defs><clipPath id="27f1505dff"><path d="M 0.484375 0 L 29.515625 0 L 29.515625 29.03125 L 0.484375 29.03125 Z M 0.484375 0 " clip-rule="nonzero"/></clipPath></defs><path fill="#31ac7d" d="M 25.160156 18.386719 L 7.941406 18.386719 L 5.097656 15.542969 C 4.929688 15.375 4.839844 15.152344 4.839844 14.917969 C 4.839844 14.429688 5.234375 14.03125 5.722656 14.03125 C 5.957031 14.03125 6.183594 14.125 6.347656 14.292969 L 8.507812 16.453125 L 11.871094 16.453125 C 12.207031 17.03125 12.832031 17.417969 13.546875 17.417969 L 17.902344 17.417969 L 17.902344 16.453125 L 13.546875 16.453125 C 13.015625 16.453125 12.582031 16.015625 12.582031 15.484375 C 12.582031 14.949219 13.015625 14.515625 13.546875 14.515625 L 17.824219 14.515625 L 20.730469 15.484375 L 25.160156 15.484375 Z M 17.980469 13.546875 L 13.546875 13.546875 C 12.480469 13.546875 11.613281 14.414062 11.613281 15.484375 L 8.910156 15.484375 L 7.03125 13.605469 C 6.683594 13.257812 6.21875 13.066406 5.722656 13.066406 C 4.703125 13.066406 3.871094 13.894531 3.871094 14.917969 C 3.871094 15.410156 4.0625 15.878906 4.414062 16.226562 L 7.542969 19.355469 L 26.128906 19.355469 L 26.128906 14.515625 L 20.882812 14.515625 L 17.980469 13.546875 " fill-opacity="1" fill-rule="nonzero"/><path fill="#31ac7d" d="M 16.265625 4.839844 L 13.734375 4.839844 C 14.074219 4.542969 14.511719 4.355469 15 4.355469 C 15.488281 4.355469 15.925781 4.542969 16.265625 4.839844 Z M 15 8.226562 C 13.933594 8.226562 13.066406 7.359375 13.066406 6.289062 C 13.066406 6.121094 13.09375 5.960938 13.132812 5.804688 L 16.867188 5.804688 C 16.90625 5.960938 16.933594 6.121094 16.933594 6.289062 C 16.933594 7.359375 16.066406 8.226562 15 8.226562 Z M 15 9.195312 C 16.601562 9.195312 17.902344 7.890625 17.902344 6.289062 C 17.902344 4.6875 16.601562 3.386719 15 3.386719 C 13.398438 3.386719 12.097656 4.6875 12.097656 6.289062 C 12.097656 7.890625 13.398438 9.195312 15 9.195312 " fill-opacity="1" fill-rule="nonzero"/><g clip-path="url(#27f1505dff)"><path fill="#31ac7d" d="M 28.546875 5.804688 L 28.546875 20.324219 L 1.453125 20.324219 L 1.453125 5.804688 L 8.710938 5.804688 L 8.710938 7.742188 L 10.386719 7.742188 C 10.472656 8.011719 10.582031 8.273438 10.714844 8.523438 L 9.527344 9.710938 L 11.578125 11.765625 L 12.765625 10.578125 C 13.015625 10.710938 13.277344 10.820312 13.546875 10.902344 L 13.546875 12.582031 L 16.453125 12.582031 L 16.453125 10.902344 C 16.722656 10.820312 16.984375 10.710938 17.234375 10.578125 L 18.421875 11.765625 L 20.472656 9.710938 L 19.285156 8.523438 C 19.417969 8.273438 19.527344 8.011719 19.613281 7.742188 L 21.289062 7.742188 L 21.289062 5.804688 Z M 28.546875 23.226562 L 1.453125 23.226562 L 1.453125 21.289062 L 28.546875 21.289062 Z M 16.933594 25.644531 L 13.066406 25.644531 L 13.066406 24.195312 L 16.933594 24.195312 Z M 12.328125 28.066406 L 12.90625 26.613281 L 17.09375 26.613281 L 17.671875 28.066406 Z M 9.675781 5.804688 L 11.140625 5.804688 L 11.230469 5.429688 C 11.324219 5.003906 11.492188 4.601562 11.722656 4.234375 L 11.929688 3.90625 L 10.894531 2.871094 L 11.578125 2.183594 L 12.617188 3.222656 L 12.941406 3.015625 C 13.3125 2.78125 13.714844 2.617188 14.140625 2.519531 L 14.515625 2.433594 L 14.515625 0.96875 L 15.484375 0.96875 L 15.484375 2.433594 L 15.859375 2.519531 C 16.285156 2.617188 16.6875 2.78125 17.058594 3.015625 L 17.382812 3.222656 L 18.421875 2.183594 L 19.105469 2.871094 L 18.070312 3.90625 L 18.277344 4.234375 C 18.507812 4.601562 18.675781 5.003906 18.769531 5.429688 L 18.859375 5.804688 L 20.324219 5.804688 L 20.324219 6.773438 L 18.859375 6.773438 L 18.769531 7.148438 C 18.675781 7.574219 18.507812 7.976562 18.277344 8.347656 L 18.070312 8.671875 L 19.105469 9.710938 L 18.421875 10.394531 L 17.382812 9.359375 L 17.058594 9.5625 C 16.6875 9.796875 16.285156 9.964844 15.859375 10.0625 L 15.484375 10.148438 L 15.484375 11.613281 L 14.515625 11.613281 L 14.515625 10.148438 L 14.140625 10.0625 C 13.714844 9.964844 13.3125 9.796875 12.941406 9.5625 L 12.617188 9.359375 L 11.578125 10.394531 L 10.894531 9.710938 L 11.929688 8.671875 L 11.722656 8.347656 C 11.492188 7.976562 11.324219 7.574219 11.230469 7.148438 L 11.140625 6.773438 L 9.675781 6.773438 Z M 19.613281 4.839844 C 19.527344 4.570312 19.417969 4.308594 19.285156 4.054688 L 20.472656 2.871094 L 18.421875 0.816406 L 17.234375 2.003906 C 16.984375 1.871094 16.722656 1.761719 16.453125 1.675781 L 16.453125 0 L 13.546875 0 L 13.546875 1.675781 C 13.277344 1.761719 13.015625 1.871094 12.765625 2.003906 L 11.578125 0.816406 L 9.527344 2.871094 L 10.714844 4.054688 C 10.582031 4.308594 10.472656 4.570312 10.386719 4.839844 L 0.484375 4.839844 L 0.484375 24.195312 L 12.097656 24.195312 L 12.097656 26.035156 L 10.898438 29.03125 L 19.101562 29.03125 L 17.902344 26.035156 L 17.902344 24.195312 L 29.515625 24.195312 L 29.515625 4.839844 L 19.613281 4.839844 " fill-opacity="1" fill-rule="nonzero"/></g></svg>