<svg xmlns="http://www.w3.org/2000/svg" xmlns:xlink="http://www.w3.org/1999/xlink" width="40" zoomAndPan="magnify" viewBox="0 0 30 30.000001" height="40" preserveAspectRatio="xMidYMid meet" version="1.0"><defs><clipPath id="f17560cafb"><path d="M 0.921875 0 L 29.230469 0 L 29.230469 28.304688 L 0.921875 28.304688 Z M 0.921875 0 " clip-rule="nonzero"/></clipPath></defs><g clip-path="url(#f17560cafb)"><path fill="#31ac7d" d="M 4.949219 14.757812 C 4.742188 15.660156 3.929688 16.335938 2.964844 16.335938 C 1.835938 16.335938 0.921875 15.421875 0.921875 14.296875 C 0.921875 13.167969 1.835938 12.253906 2.964844 12.253906 C 3.929688 12.253906 4.742188 12.929688 4.949219 13.832031 L 6.121094 13.832031 C 6.351562 9.171875 10.09375 5.429688 14.757812 5.195312 L 14.757812 4.027344 C 13.851562 3.820312 13.175781 3.007812 13.175781 2.039062 C 13.175781 0.914062 14.089844 0 15.21875 0 C 16.34375 0 17.257812 0.914062 17.257812 2.039062 C 17.257812 3.007812 16.582031 3.820312 15.679688 4.027344 L 15.679688 5.195312 C 20.339844 5.429688 24.082031 9.171875 24.316406 13.832031 L 25.484375 13.832031 C 25.695312 12.929688 26.503906 12.253906 27.472656 12.253906 C 28.597656 12.253906 29.511719 13.167969 29.511719 14.296875 C 29.511719 15.421875 28.597656 16.335938 27.472656 16.335938 C 26.503906 16.335938 25.695312 15.660156 25.484375 14.757812 L 24.316406 14.757812 C 24.082031 19.417969 20.339844 23.160156 15.679688 23.394531 L 15.679688 24.5625 C 16.582031 24.769531 17.257812 25.582031 17.257812 26.550781 C 17.257812 27.675781 16.34375 28.589844 15.21875 28.589844 C 14.089844 28.589844 13.175781 27.675781 13.175781 26.550781 C 13.175781 25.582031 13.851562 24.769531 14.757812 24.5625 L 14.757812 23.394531 C 10.09375 23.160156 6.351562 19.417969 6.121094 14.757812 Z M 15.21875 6.109375 C 10.699219 6.109375 7.03125 9.777344 7.03125 14.296875 C 7.03125 18.8125 10.699219 22.480469 15.21875 22.480469 C 19.738281 22.480469 23.40625 18.8125 23.40625 14.296875 C 23.40625 9.777344 19.738281 6.109375 15.21875 6.109375 Z M 12.671875 17.675781 L 8.585938 17.675781 C 8.453125 17.675781 8.328125 17.621094 8.242188 17.523438 C 8.152344 17.425781 8.113281 17.296875 8.125 17.167969 C 8.246094 16.046875 8.945312 15.101562 9.921875 14.636719 C 9.628906 14.308594 9.453125 13.878906 9.453125 13.410156 C 9.453125 12.398438 10.277344 11.574219 11.289062 11.574219 C 11.734375 11.574219 12.140625 11.730469 12.457031 11.996094 C 12.78125 11.4375 13.265625 10.984375 13.847656 10.707031 C 13.558594 10.382812 13.382812 9.953125 13.382812 9.484375 C 13.382812 8.472656 14.207031 7.644531 15.21875 7.644531 C 16.230469 7.644531 17.054688 8.472656 17.054688 9.484375 C 17.054688 9.953125 16.878906 10.382812 16.585938 10.707031 C 17.171875 10.984375 17.65625 11.4375 17.976562 11.996094 C 18.296875 11.730469 18.703125 11.574219 19.144531 11.574219 C 20.15625 11.574219 20.984375 12.398438 20.984375 13.410156 C 20.984375 13.878906 20.804688 14.308594 20.515625 14.636719 C 21.488281 15.101562 22.191406 16.046875 22.308594 17.167969 C 22.324219 17.296875 22.28125 17.425781 22.195312 17.523438 C 22.105469 17.621094 21.980469 17.675781 21.851562 17.675781 L 17.765625 17.675781 C 18.097656 18.125 18.320312 18.660156 18.382812 19.246094 C 18.394531 19.375 18.355469 19.503906 18.265625 19.601562 C 18.179688 19.699219 18.054688 19.753906 17.921875 19.753906 L 12.511719 19.753906 C 12.378906 19.753906 12.257812 19.699219 12.167969 19.601562 C 12.082031 19.503906 12.039062 19.375 12.054688 19.246094 C 12.117188 18.660156 12.335938 18.125 12.671875 17.675781 Z M 11.289062 15.25 C 10.304688 15.25 9.46875 15.878906 9.160156 16.753906 L 13.421875 16.753906 C 13.113281 15.878906 12.273438 15.25 11.289062 15.25 Z M 12.660156 14.636719 C 12.933594 14.765625 13.1875 14.9375 13.414062 15.140625 C 13.539062 14.488281 14.011719 13.960938 14.628906 13.75 L 13.097656 13.75 C 13.035156 14.085938 12.878906 14.390625 12.660156 14.636719 Z M 11.289062 14.328125 C 11.792969 14.328125 12.207031 13.914062 12.207031 13.410156 C 12.207031 12.90625 11.792969 12.496094 11.289062 12.496094 C 10.785156 12.496094 10.375 12.90625 10.375 13.410156 C 10.375 13.914062 10.785156 14.328125 11.289062 14.328125 Z M 15.21875 11.320312 C 14.234375 11.320312 13.398438 11.949219 13.085938 12.828125 L 17.351562 12.828125 C 17.039062 11.949219 16.203125 11.320312 15.21875 11.320312 Z M 17.339844 13.75 L 15.808594 13.75 C 16.425781 13.960938 16.894531 14.488281 17.019531 15.140625 C 17.246094 14.9375 17.5 14.765625 17.777344 14.636719 C 17.558594 14.390625 17.402344 14.085938 17.339844 13.75 Z M 15.21875 10.398438 C 15.722656 10.398438 16.132812 9.988281 16.132812 9.484375 C 16.132812 8.980469 15.722656 8.566406 15.21875 8.566406 C 14.714844 8.566406 14.304688 8.980469 14.304688 9.484375 C 14.304688 9.988281 14.714844 10.398438 15.21875 10.398438 Z M 19.144531 14.328125 C 19.648438 14.328125 20.058594 13.914062 20.058594 13.410156 C 20.058594 12.90625 19.648438 12.496094 19.144531 12.496094 C 18.640625 12.496094 18.230469 12.90625 18.230469 13.410156 C 18.230469 13.914062 18.640625 14.328125 19.144531 14.328125 Z M 19.144531 15.25 C 18.160156 15.25 17.324219 15.878906 17.011719 16.753906 C 18.199219 16.753906 21.277344 16.753906 21.277344 16.753906 C 20.96875 15.878906 20.128906 15.25 19.144531 15.25 Z M 15.21875 17.328125 C 14.234375 17.328125 13.398438 17.957031 13.085938 18.832031 C 13.085938 18.832031 17.351562 18.832031 17.351562 18.832031 C 17.039062 17.957031 16.203125 17.328125 15.21875 17.328125 Z M 15.21875 16.40625 C 15.722656 16.40625 16.132812 15.992188 16.132812 15.488281 C 16.132812 14.984375 15.722656 14.574219 15.21875 14.574219 C 14.714844 14.574219 14.304688 14.984375 14.304688 15.488281 C 14.304688 15.992188 14.714844 16.40625 15.21875 16.40625 Z M 15.21875 0.921875 C 14.601562 0.921875 14.097656 1.421875 14.097656 2.039062 C 14.097656 2.65625 14.601562 3.160156 15.21875 3.160156 C 15.835938 3.160156 16.335938 2.65625 16.335938 2.039062 C 16.335938 1.421875 15.835938 0.921875 15.21875 0.921875 Z M 27.472656 13.175781 C 26.855469 13.175781 26.355469 13.679688 26.355469 14.296875 C 26.355469 14.910156 26.855469 15.414062 27.472656 15.414062 C 28.089844 15.414062 28.589844 14.910156 28.589844 14.296875 C 28.589844 13.679688 28.089844 13.175781 27.472656 13.175781 Z M 2.964844 13.175781 C 2.347656 13.175781 1.84375 13.679688 1.84375 14.296875 C 1.84375 14.910156 2.347656 15.414062 2.964844 15.414062 C 3.582031 15.414062 4.082031 14.910156 4.082031 14.296875 C 4.082031 13.679688 3.582031 13.175781 2.964844 13.175781 Z M 15.21875 25.429688 C 14.601562 25.429688 14.097656 25.933594 14.097656 26.550781 C 14.097656 27.167969 14.601562 27.667969 15.21875 27.667969 C 15.835938 27.667969 16.335938 27.167969 16.335938 26.550781 C 16.335938 25.933594 15.835938 25.429688 15.21875 25.429688 Z M 5.273438 24.890625 C 5.527344 25.269531 5.675781 25.722656 5.675781 26.214844 C 5.675781 27.523438 4.609375 28.589844 3.300781 28.589844 C 1.988281 28.589844 0.921875 27.523438 0.921875 26.214844 C 0.921875 24.902344 1.988281 23.835938 3.300781 23.835938 C 3.789062 23.835938 4.242188 23.984375 4.621094 24.238281 L 6.953125 21.90625 C 7.132812 21.726562 7.425781 21.726562 7.605469 21.90625 C 7.785156 22.085938 7.785156 22.378906 7.605469 22.558594 Z M 3.300781 24.757812 C 2.496094 24.757812 1.84375 25.410156 1.84375 26.214844 C 1.84375 27.015625 2.496094 27.667969 3.300781 27.667969 C 4.101562 27.667969 4.753906 27.015625 4.753906 26.214844 C 4.753906 25.410156 4.101562 24.757812 3.300781 24.757812 Z M 25.8125 4.351562 L 23.480469 6.683594 C 23.300781 6.863281 23.011719 6.863281 22.832031 6.683594 C 22.648438 6.503906 22.648438 6.210938 22.832031 6.03125 L 25.160156 3.699219 C 24.90625 3.320312 24.757812 2.867188 24.757812 2.375 C 24.757812 1.066406 25.824219 0 27.136719 0 C 28.449219 0 29.511719 1.066406 29.511719 2.375 C 29.511719 3.6875 28.449219 4.753906 27.136719 4.753906 C 26.648438 4.753906 26.191406 4.605469 25.8125 4.351562 Z M 27.136719 0.921875 C 26.332031 0.921875 25.679688 1.574219 25.679688 2.375 C 25.679688 3.179688 26.332031 3.832031 27.136719 3.832031 C 27.9375 3.832031 28.589844 3.179688 28.589844 2.375 C 28.589844 1.574219 27.9375 0.921875 27.136719 0.921875 Z M 25.160156 24.890625 L 22.832031 22.558594 C 22.648438 22.378906 22.648438 22.085938 22.832031 21.90625 C 23.011719 21.726562 23.300781 21.726562 23.480469 21.90625 L 25.8125 24.238281 C 26.191406 23.984375 26.648438 23.835938 27.136719 23.835938 C 28.449219 23.835938 29.511719 24.902344 29.511719 26.214844 C 29.511719 27.523438 28.449219 28.589844 27.136719 28.589844 C 25.824219 28.589844 24.757812 27.523438 24.757812 26.214844 C 24.757812 25.722656 24.90625 25.269531 25.160156 24.890625 Z M 27.136719 24.757812 C 26.332031 24.757812 25.679688 25.410156 25.679688 26.214844 C 25.679688 27.015625 26.332031 27.667969 27.136719 27.667969 C 27.9375 27.667969 28.589844 27.015625 28.589844 26.214844 C 28.589844 25.410156 27.9375 24.757812 27.136719 24.757812 Z M 4.621094 4.351562 C 4.242188 4.605469 3.789062 4.753906 3.300781 4.753906 C 1.988281 4.753906 0.921875 3.6875 0.921875 2.375 C 0.921875 1.066406 1.988281 0 3.300781 0 C 4.609375 0 5.675781 1.066406 5.675781 2.375 C 5.675781 2.867188 5.527344 3.320312 5.273438 3.699219 L 7.605469 6.03125 C 7.785156 6.210938 7.785156 6.503906 7.605469 6.683594 C 7.425781 6.863281 7.132812 6.863281 6.953125 6.683594 Z M 3.300781 0.921875 C 2.496094 0.921875 1.84375 1.574219 1.84375 2.375 C 1.84375 3.179688 2.496094 3.832031 3.300781 3.832031 C 4.101562 3.832031 4.753906 3.179688 4.753906 2.375 C 4.753906 1.574219 4.101562 0.921875 3.300781 0.921875 Z M 3.300781 0.921875 " fill-opacity="1" fill-rule="evenodd"/></g></svg>