<svg xmlns="http://www.w3.org/2000/svg" xmlns:xlink="http://www.w3.org/1999/xlink" width="40" zoomAndPan="magnify" viewBox="0 0 30 30.000001" height="40" preserveAspectRatio="xMidYMid meet" version="1.0"><defs><clipPath id="a7e9b815ca"><path d="M 0.847656 9 L 17 9 L 17 29.03125 L 0.847656 29.03125 Z M 0.847656 9 " clip-rule="nonzero"/></clipPath><clipPath id="0ebde622a3"><path d="M 19 12 L 29.152344 12 L 29.152344 29.03125 L 19 29.03125 Z M 19 12 " clip-rule="nonzero"/></clipPath></defs><g clip-path="url(#a7e9b815ca)"><path fill="#31ac7d" d="M 6.320312 17.886719 C 4.1875 17.886719 2.449219 16.148438 2.449219 14.011719 C 2.449219 11.878906 4.1875 10.140625 6.320312 10.140625 C 8.457031 10.140625 10.191406 11.878906 10.191406 14.011719 C 10.191406 16.148438 8.457031 17.886719 6.320312 17.886719 Z M 14.21875 25.226562 L 11.535156 25.226562 L 11.535156 22.34375 C 11.535156 20.3125 10.171875 18.597656 8.3125 18.058594 C 9.804688 17.324219 10.832031 15.785156 10.832031 14.011719 C 10.832031 11.523438 8.808594 9.5 6.320312 9.5 C 3.832031 9.5 1.808594 11.523438 1.808594 14.011719 C 1.808594 15.75 2.796875 17.261719 4.242188 18.015625 C 2.300781 18.496094 0.855469 20.253906 0.855469 22.34375 L 0.855469 28.710938 C 0.855469 28.890625 0.996094 29.03125 1.175781 29.03125 C 1.351562 29.03125 1.496094 28.890625 1.496094 28.710938 L 1.496094 22.34375 C 1.496094 20.238281 3.207031 18.527344 5.3125 18.527344 L 7.078125 18.527344 C 9.183594 18.527344 10.894531 20.238281 10.894531 22.34375 L 10.894531 25.546875 C 10.894531 25.722656 11.039062 25.867188 11.214844 25.867188 L 14.21875 25.867188 C 14.90625 25.867188 15.464844 26.425781 15.464844 27.113281 L 15.464844 28.390625 L 9.9375 28.390625 C 8.933594 28.390625 8.117188 27.574219 8.117188 26.570312 L 8.117188 21.660156 C 8.117188 21.484375 7.972656 21.339844 7.796875 21.339844 C 7.621094 21.339844 7.476562 21.484375 7.476562 21.660156 L 7.476562 26.570312 C 7.476562 27.929688 8.578125 29.03125 9.9375 29.03125 L 15.785156 29.03125 C 15.960938 29.03125 16.105469 28.890625 16.105469 28.710938 L 16.105469 27.113281 C 16.105469 26.074219 15.257812 25.226562 14.21875 25.226562 " fill-opacity="1" fill-rule="nonzero"/></g><g clip-path="url(#0ebde622a3)"><path fill="#31ac7d" d="M 24.253906 18.746094 C 22.65625 18.746094 21.355469 17.445312 21.355469 15.847656 C 21.355469 14.25 22.65625 12.949219 24.253906 12.949219 C 25.855469 12.949219 27.15625 14.25 27.15625 15.847656 C 27.15625 17.445312 25.855469 18.746094 24.253906 18.746094 Z M 26.121094 18.855469 C 27.125 18.230469 27.796875 17.117188 27.796875 15.847656 C 27.796875 13.894531 26.207031 12.308594 24.253906 12.308594 C 22.300781 12.308594 20.714844 13.894531 20.714844 15.847656 C 20.714844 17.117188 21.382812 18.230469 22.390625 18.855469 C 20.65625 19.269531 19.363281 20.828125 19.363281 22.683594 L 19.363281 28.710938 C 19.363281 28.890625 19.507812 29.03125 19.683594 29.03125 C 19.863281 29.03125 20.003906 28.890625 20.003906 28.710938 L 20.003906 22.683594 C 20.003906 20.867188 21.484375 19.390625 23.300781 19.390625 L 25.207031 19.390625 C 27.027344 19.390625 28.503906 20.867188 28.503906 22.683594 L 28.503906 27.417969 C 28.503906 27.957031 28.066406 28.390625 27.53125 28.390625 L 22.0625 28.390625 L 22.0625 28.175781 C 22.0625 27.304688 22.765625 26.597656 23.636719 26.597656 L 26.453125 26.597656 C 26.628906 26.597656 26.773438 26.457031 26.773438 26.277344 L 26.773438 23.074219 C 26.773438 22.898438 26.628906 22.753906 26.453125 22.753906 C 26.277344 22.753906 26.132812 22.898438 26.132812 23.074219 L 26.132812 25.957031 L 23.636719 25.957031 C 22.414062 25.957031 21.417969 26.953125 21.417969 28.175781 L 21.417969 28.710938 C 21.417969 28.890625 21.5625 29.03125 21.742188 29.03125 L 27.53125 29.03125 C 28.421875 29.03125 29.144531 28.308594 29.144531 27.417969 L 29.144531 22.683594 C 29.144531 20.828125 27.851562 19.269531 26.121094 18.855469 " fill-opacity="1" fill-rule="nonzero"/></g><path fill="#31ac7d" d="M 19.054688 11.34375 C 17.675781 11.34375 16.339844 11.042969 15.191406 10.472656 C 15.148438 10.453125 15.097656 10.441406 15.050781 10.441406 C 15.023438 10.441406 14.992188 10.445312 14.96875 10.453125 L 12.1875 11.191406 L 13.027344 9.054688 C 13.070312 8.949219 13.050781 8.828125 12.980469 8.738281 C 12.324219 7.910156 11.976562 6.960938 11.976562 5.992188 C 11.976562 3.039062 15.152344 0.640625 19.054688 0.640625 C 22.957031 0.640625 26.132812 3.039062 26.132812 5.992188 C 26.132812 8.941406 22.957031 11.34375 19.054688 11.34375 Z M 26.773438 5.992188 C 26.773438 2.6875 23.3125 0 19.054688 0 C 14.796875 0 11.335938 2.6875 11.335938 5.992188 C 11.335938 7.046875 11.691406 8.082031 12.367188 8.988281 L 11.359375 11.546875 C 11.3125 11.65625 11.335938 11.785156 11.417969 11.875 C 11.476562 11.945312 11.566406 11.984375 11.65625 11.984375 C 11.683594 11.984375 11.710938 11.980469 11.738281 11.972656 L 15.015625 11.101562 C 16.230469 11.679688 17.621094 11.984375 19.054688 11.984375 C 23.3125 11.984375 26.773438 9.296875 26.773438 5.992188 " fill-opacity="1" fill-rule="nonzero"/><path fill="#31ac7d" d="M 15.738281 6.078125 C 14.964844 6.078125 14.964844 7.28125 15.738281 7.28125 C 16.511719 7.28125 16.511719 6.078125 15.738281 6.078125 " fill-opacity="1" fill-rule="nonzero"/><path fill="#31ac7d" d="M 19.054688 6.078125 C 18.28125 6.078125 18.28125 7.28125 19.054688 7.28125 C 19.828125 7.28125 19.828125 6.078125 19.054688 6.078125 " fill-opacity="1" fill-rule="nonzero"/><path fill="#31ac7d" d="M 22.371094 6.078125 C 21.597656 6.078125 21.597656 7.28125 22.371094 7.28125 C 23.144531 7.28125 23.144531 6.078125 22.371094 6.078125 " fill-opacity="1" fill-rule="nonzero"/></svg>