<svg xmlns="http://www.w3.org/2000/svg" xmlns:xlink="http://www.w3.org/1999/xlink" width="40" zoomAndPan="magnify" viewBox="0 0 30 30.000001" height="40" preserveAspectRatio="xMidYMid meet" version="1.0"><defs><clipPath id="237db3376a"><path d="M 0.484375 3 L 27 3 L 27 29 L 0.484375 29 Z M 0.484375 3 " clip-rule="nonzero"/></clipPath><clipPath id="395d0c41a2"><path d="M 16 0 L 29.515625 0 L 29.515625 13 L 16 13 Z M 16 0 " clip-rule="nonzero"/></clipPath></defs><path fill="#31ac7d" d="M 20.382812 11.078125 L 21.324219 11.078125 C 20.851562 9.4375 19.574219 8.132812 17.933594 7.660156 L 17.933594 8.605469 C 19.054688 9.03125 19.953125 9.929688 20.382812 11.078125 Z M 20.382812 11.078125 " fill-opacity="1" fill-rule="nonzero"/><path fill="#31ac7d" d="M 13.414062 20.515625 C 15.664062 20.515625 17.574219 18.988281 18.179688 16.917969 L 17.234375 16.917969 C 16.675781 18.492188 15.191406 19.617188 13.4375 19.617188 C 11.214844 19.617188 9.394531 17.796875 9.394531 15.570312 C 9.394531 13.820312 10.515625 12.3125 12.089844 11.773438 L 12.089844 10.832031 C 10 11.414062 8.472656 13.324219 8.472656 15.570312 C 8.472656 18.289062 10.695312 20.515625 13.414062 20.515625 Z M 13.414062 20.515625 " fill-opacity="1" fill-rule="nonzero"/><g clip-path="url(#237db3376a)"><path fill="#31ac7d" d="M 0.675781 19.707031 L 1.484375 21.863281 C 1.574219 22.085938 1.730469 22.265625 1.957031 22.355469 C 2.179688 22.445312 2.429688 22.46875 2.652344 22.378906 L 4.789062 21.546875 C 5.597656 22.714844 6.609375 23.703125 7.796875 24.445312 L 6.898438 26.714844 C 6.71875 27.164062 6.945312 27.703125 7.394531 27.882812 L 9.507812 28.738281 C 9.617188 28.78125 9.730469 28.804688 9.84375 28.804688 C 9.957031 28.804688 10.089844 28.78125 10.203125 28.738281 C 10.425781 28.648438 10.605469 28.46875 10.695312 28.242188 L 11.640625 25.929688 C 12.921875 26.152344 14.269531 26.132812 15.527344 25.863281 L 16.539062 28.152344 C 16.628906 28.378906 16.808594 28.535156 17.035156 28.625 C 17.257812 28.714844 17.503906 28.714844 17.730469 28.601562 L 19.820312 27.683594 C 20.269531 27.480469 20.472656 26.941406 20.269531 26.492188 L 19.28125 24.265625 C 20.292969 23.570312 21.210938 22.695312 21.910156 21.683594 L 24.042969 22.558594 C 24.269531 22.648438 24.515625 22.648438 24.742188 22.558594 C 24.964844 22.46875 25.144531 22.289062 25.234375 22.066406 L 26.089844 19.929688 C 26.269531 19.457031 26.042969 18.941406 25.59375 18.761719 L 23.617188 17.953125 C 23.796875 17.167969 23.886719 16.359375 23.886719 15.546875 C 23.886719 15.300781 23.683594 15.097656 23.4375 15.097656 C 23.390625 15.097656 23.371094 15.097656 23.324219 15.121094 C 23.300781 15.121094 23.300781 15.121094 23.28125 15.121094 L 13.867188 15.121094 L 13.867188 5.484375 C 13.867188 5.234375 13.664062 5.03125 13.414062 5.03125 C 12.585938 5.03125 11.753906 5.121094 10.945312 5.324219 L 10.316406 3.863281 C 10.226562 3.640625 10.046875 3.484375 9.820312 3.394531 C 9.597656 3.304688 9.347656 3.304688 9.125 3.414062 L 7.011719 4.335938 C 6.5625 4.539062 6.359375 5.078125 6.5625 5.527344 L 7.238281 7.054688 C 6.113281 7.886719 5.148438 8.941406 4.429688 10.132812 L 2.765625 9.460938 C 2.539062 9.371094 2.292969 9.371094 2.070312 9.460938 C 1.84375 9.550781 1.664062 9.730469 1.574219 9.953125 L 0.722656 12.089844 C 0.542969 12.539062 0.765625 13.078125 1.214844 13.257812 L 3.035156 14 C 2.96875 14.515625 2.921875 15.03125 2.921875 15.546875 C 2.921875 16.289062 2.992188 17.054688 3.148438 17.773438 L 1.171875 18.535156 C 0.722656 18.738281 0.496094 19.257812 0.675781 19.707031 Z M 3.867188 18.492188 C 4.070312 18.402344 4.203125 18.175781 4.136719 17.953125 C 3.933594 17.1875 3.84375 16.378906 3.84375 15.570312 C 3.84375 14.988281 3.890625 14.402344 4 13.820312 C 4.046875 13.617188 3.933594 13.390625 3.730469 13.324219 L 1.574219 12.449219 L 2.429688 10.3125 L 4.449219 11.144531 C 4.652344 11.234375 4.898438 11.144531 5.011719 10.941406 C 5.730469 9.617188 6.789062 8.449219 8.046875 7.59375 C 8.226562 7.480469 8.292969 7.234375 8.203125 7.03125 L 7.394531 5.167969 L 9.484375 4.246094 L 10.269531 6.042969 C 10.359375 6.246094 10.585938 6.359375 10.808594 6.292969 C 11.507812 6.089844 12.226562 5.976562 12.964844 5.953125 L 12.964844 15.570312 C 12.964844 15.816406 13.167969 16.019531 13.414062 16.019531 L 22.988281 16.019531 C 22.964844 16.738281 22.851562 17.4375 22.671875 18.109375 C 22.605469 18.335938 22.71875 18.558594 22.941406 18.648438 L 25.28125 19.617188 L 24.425781 21.75 L 21.953125 20.738281 C 21.753906 20.648438 21.527344 20.738281 21.414062 20.894531 C 20.671875 22.019531 19.664062 23.007812 18.515625 23.726562 C 18.335938 23.839844 18.246094 24.085938 18.335938 24.289062 L 19.460938 26.875 L 17.371094 27.792969 L 16.222656 25.164062 C 16.132812 24.964844 15.910156 24.851562 15.707031 24.917969 C 14.335938 25.253906 12.855469 25.277344 11.460938 24.984375 C 11.238281 24.941406 11.035156 25.054688 10.945312 25.253906 L 9.84375 27.929688 L 7.730469 27.054688 L 8.789062 24.445312 C 8.878906 24.246094 8.789062 23.996094 8.609375 23.882812 C 7.304688 23.121094 6.179688 22.042969 5.371094 20.761719 C 5.257812 20.582031 5.035156 20.515625 4.832031 20.582031 L 2.359375 21.527344 L 1.507812 19.390625 Z M 3.867188 18.492188 " fill-opacity="1" fill-rule="nonzero"/></g><g clip-path="url(#395d0c41a2)"><path fill="#31ac7d" d="M 16.5625 12.875 L 26.449219 12.875 C 26.492188 12.875 26.515625 12.875 26.558594 12.851562 C 26.582031 12.851562 26.582031 12.851562 26.605469 12.851562 C 26.851562 12.851562 27.054688 12.648438 27.054688 12.402344 C 27.054688 11.953125 27.03125 11.480469 26.964844 11.03125 L 28.808594 10.3125 C 29.277344 10.132812 29.503906 9.617188 29.324219 9.144531 L 28.492188 6.988281 C 28.402344 6.761719 28.246094 6.582031 28.019531 6.492188 C 27.796875 6.402344 27.550781 6.382812 27.324219 6.472656 L 25.660156 7.121094 C 24.875 5.753906 23.773438 4.5625 22.472656 3.664062 L 23.101562 2.113281 C 23.28125 1.664062 23.054688 1.125 22.605469 0.945312 L 20.492188 0.0898438 C 20.269531 0 20.023438 0 19.796875 0.0898438 C 19.574219 0.179688 19.394531 0.359375 19.304688 0.585938 L 18.71875 2.042969 C 18.023438 1.910156 17.304688 1.820312 16.585938 1.820312 C 16.335938 1.820312 16.132812 2.023438 16.132812 2.269531 L 16.132812 12.425781 C 16.113281 12.671875 16.3125 12.875 16.5625 12.875 Z M 18.851562 3.054688 C 19.078125 3.101562 19.304688 2.988281 19.371094 2.785156 L 20.132812 0.964844 L 22.246094 1.84375 L 21.480469 3.730469 C 21.390625 3.933594 21.480469 4.15625 21.660156 4.269531 C 23.078125 5.167969 24.246094 6.425781 25.03125 7.929688 C 25.144531 8.132812 25.371094 8.222656 25.59375 8.132812 L 27.640625 7.347656 L 28.46875 9.503906 L 26.289062 10.335938 C 26.089844 10.402344 25.976562 10.628906 26 10.832031 C 26.066406 11.210938 26.089844 11.570312 26.109375 11.976562 L 17.011719 11.976562 L 17.011719 2.785156 C 17.640625 2.832031 18.269531 2.921875 18.851562 3.054688 Z M 18.851562 3.054688 " fill-opacity="1" fill-rule="nonzero"/></g></svg>