<svg xmlns="http://www.w3.org/2000/svg" xmlns:xlink="http://www.w3.org/1999/xlink" width="40" zoomAndPan="magnify" viewBox="0 0 30 30.000001" height="40" preserveAspectRatio="xMidYMid meet" version="1.0"><defs><clipPath id="e1e73eb5c6"><path d="M 19 10 L 29.515625 10 L 29.515625 20 L 19 20 Z M 19 10 " clip-rule="nonzero"/></clipPath><clipPath id="08b691f74a"><path d="M 0.484375 14 L 2 14 L 2 16 L 0.484375 16 Z M 0.484375 14 " clip-rule="nonzero"/></clipPath><clipPath id="05c1bc3b14"><path d="M 0.484375 15 L 28 15 L 28 25 L 0.484375 25 Z M 0.484375 15 " clip-rule="nonzero"/></clipPath><clipPath id="42da4b90ba"><path d="M 8 4.082031 L 22 4.082031 L 22 11 L 8 11 Z M 8 4.082031 " clip-rule="nonzero"/></clipPath><clipPath id="d5c0b4f470"><path d="M 0.484375 6 L 8 6 L 8 12 L 0.484375 12 Z M 0.484375 6 " clip-rule="nonzero"/></clipPath></defs><path fill="#31ac7d" d="M 11.824219 7.710938 L 18.175781 7.710938 C 18.425781 7.710938 18.628906 7.507812 18.628906 7.257812 C 18.628906 7.007812 18.425781 6.804688 18.175781 6.804688 L 11.824219 6.804688 C 11.574219 6.804688 11.371094 7.007812 11.371094 7.257812 C 11.371094 7.507812 11.574219 7.710938 11.824219 7.710938 Z M 11.824219 7.710938 " fill-opacity="1" fill-rule="nonzero"/><path fill="#31ac7d" d="M 11.824219 9.527344 L 18.175781 9.527344 C 18.425781 9.527344 18.628906 9.320312 18.628906 9.074219 C 18.628906 8.824219 18.425781 8.617188 18.175781 8.617188 L 11.824219 8.617188 C 11.574219 8.617188 11.371094 8.824219 11.371094 9.074219 C 11.371094 9.320312 11.574219 9.527344 11.824219 9.527344 Z M 11.824219 9.527344 " fill-opacity="1" fill-rule="nonzero"/><path fill="#31ac7d" d="M 11.824219 11.339844 L 18.175781 11.339844 C 18.425781 11.339844 18.628906 11.136719 18.628906 10.886719 C 18.628906 10.636719 18.425781 10.433594 18.175781 10.433594 L 11.824219 10.433594 C 11.574219 10.433594 11.371094 10.636719 11.371094 10.886719 C 11.371094 11.136719 11.574219 11.339844 11.824219 11.339844 Z M 11.824219 11.339844 " fill-opacity="1" fill-rule="nonzero"/><path fill="#31ac7d" d="M 11.824219 13.15625 L 18.175781 13.15625 C 18.425781 13.15625 18.628906 12.949219 18.628906 12.703125 C 18.628906 12.453125 18.425781 12.246094 18.175781 12.246094 L 11.824219 12.246094 C 11.574219 12.246094 11.371094 12.453125 11.371094 12.703125 C 11.371094 12.949219 11.574219 13.15625 11.824219 13.15625 Z M 11.824219 13.15625 " fill-opacity="1" fill-rule="nonzero"/><g clip-path="url(#e1e73eb5c6)"><path fill="#31ac7d" d="M 28.449219 13.449219 C 28.609375 13.222656 28.699219 12.929688 28.675781 12.65625 C 28.652344 12.316406 28.519531 12.019531 28.269531 11.773438 L 27.972656 11.476562 C 27.722656 11.226562 27.363281 11.070312 27.019531 11.070312 C 26.75 11.070312 26.5 11.136719 26.296875 11.296875 C 26.183594 10.683594 25.636719 10.230469 24.980469 10.230469 L 24.550781 10.230469 C 23.890625 10.230469 23.347656 10.683594 23.234375 11.296875 C 23.027344 11.160156 22.78125 11.070312 22.507812 11.070312 C 22.144531 11.070312 21.804688 11.203125 21.554688 11.476562 L 21.261719 11.773438 C 20.804688 12.246094 20.738281 12.949219 21.078125 13.449219 C 20.445312 13.539062 19.988281 14.109375 19.988281 14.765625 L 19.988281 15.195312 C 19.988281 15.855469 20.445312 16.398438 21.054688 16.511719 C 20.714844 17.011719 20.761719 17.738281 21.238281 18.191406 L 21.53125 18.484375 C 21.78125 18.734375 22.144531 18.894531 22.484375 18.894531 C 22.757812 18.894531 23.007812 18.824219 23.210938 18.667969 C 23.324219 19.277344 23.867188 19.734375 24.527344 19.734375 L 24.957031 19.734375 C 25.613281 19.734375 26.160156 19.277344 26.273438 18.667969 C 26.476562 18.804688 26.726562 18.894531 27 18.894531 C 27.363281 18.894531 27.703125 18.757812 27.949219 18.484375 L 28.246094 18.191406 C 28.496094 17.941406 28.652344 17.578125 28.652344 17.238281 C 28.652344 16.964844 28.5625 16.714844 28.425781 16.511719 C 29.039062 16.398438 29.492188 15.855469 29.492188 15.195312 L 29.492188 14.765625 C 29.515625 14.109375 29.0625 13.539062 28.449219 13.449219 Z M 28.609375 15.175781 C 28.609375 15.402344 28.449219 15.605469 28.222656 15.605469 L 27.835938 15.605469 C 27.746094 15.605469 27.65625 15.671875 27.632812 15.761719 C 27.566406 15.992188 27.476562 16.21875 27.363281 16.445312 C 27.316406 16.535156 27.316406 16.625 27.382812 16.695312 L 27.65625 16.964844 C 27.816406 17.125 27.792969 17.375 27.632812 17.53125 L 27.339844 17.828125 C 27.179688 17.988281 26.929688 18.03125 26.773438 17.851562 C 26.773438 17.851562 26.5 17.578125 26.5 17.578125 C 26.429688 17.511719 26.316406 17.511719 26.25 17.554688 C 26.046875 17.667969 25.820312 17.757812 25.570312 17.828125 C 25.480469 17.851562 25.410156 17.941406 25.410156 18.03125 L 25.410156 18.417969 C 25.410156 18.621094 25.230469 18.804688 24.980469 18.804688 L 24.550781 18.804688 C 24.320312 18.804688 24.117188 18.621094 24.117188 18.417969 L 24.117188 18.03125 C 24.117188 17.941406 24.050781 17.851562 23.960938 17.828125 C 23.730469 17.757812 23.503906 17.667969 23.277344 17.554688 C 23.1875 17.511719 23.097656 17.511719 23.027344 17.578125 C 23.027344 17.578125 22.757812 17.851562 22.757812 17.851562 C 22.597656 18.007812 22.324219 17.964844 22.191406 17.828125 L 21.894531 17.53125 C 21.738281 17.375 21.714844 17.101562 21.851562 16.964844 L 22.121094 16.695312 C 22.191406 16.625 22.210938 16.511719 22.144531 16.445312 C 22.03125 16.238281 21.941406 16.011719 21.871094 15.761719 C 21.851562 15.671875 21.757812 15.605469 21.667969 15.605469 L 21.28125 15.605469 C 21.078125 15.605469 20.898438 15.421875 20.898438 15.175781 L 20.898438 14.742188 C 20.898438 14.515625 21.078125 14.3125 21.28125 14.3125 L 21.667969 14.3125 C 21.757812 14.3125 21.851562 14.242188 21.871094 14.152344 C 21.941406 13.925781 22.03125 13.699219 22.144531 13.472656 C 22.191406 13.382812 22.191406 13.292969 22.121094 13.222656 L 21.851562 12.949219 C 21.691406 12.792969 21.714844 12.542969 21.894531 12.382812 C 21.894531 12.382812 22.191406 12.089844 22.191406 12.089844 C 22.324219 11.953125 22.597656 11.90625 22.757812 12.042969 C 22.757812 12.042969 23.027344 12.316406 23.027344 12.316406 C 23.097656 12.382812 23.210938 12.382812 23.277344 12.339844 C 23.484375 12.226562 23.710938 12.132812 23.960938 12.066406 C 24.050781 12.042969 24.117188 11.953125 24.117188 11.863281 L 24.117188 11.476562 C 24.117188 11.273438 24.300781 11.089844 24.550781 11.089844 L 24.980469 11.089844 C 25.207031 11.089844 25.410156 11.273438 25.410156 11.476562 L 25.410156 11.863281 C 25.410156 11.953125 25.480469 12.042969 25.570312 12.066406 C 25.796875 12.132812 26.023438 12.226562 26.226562 12.339844 C 26.316406 12.382812 26.429688 12.382812 26.5 12.316406 C 26.5 12.316406 26.773438 12.042969 26.773438 12.042969 C 26.929688 11.886719 27.203125 11.929688 27.339844 12.089844 L 27.632812 12.382812 C 27.792969 12.542969 27.816406 12.816406 27.65625 12.949219 L 27.382812 13.222656 C 27.316406 13.292969 27.292969 13.40625 27.363281 13.472656 C 27.476562 13.675781 27.566406 13.902344 27.632812 14.152344 C 27.65625 14.242188 27.746094 14.3125 27.835938 14.3125 L 28.222656 14.3125 C 28.425781 14.3125 28.609375 14.492188 28.609375 14.742188 Z M 28.609375 15.175781 " fill-opacity="1" fill-rule="nonzero"/></g><path fill="#31ac7d" d="M 24.753906 12.929688 C 23.617188 12.929688 22.710938 13.835938 22.710938 14.96875 C 22.710938 16.105469 23.617188 17.011719 24.753906 17.011719 C 25.886719 17.011719 26.792969 16.105469 26.792969 14.96875 C 26.792969 13.835938 25.886719 12.929688 24.753906 12.929688 Z M 24.753906 16.105469 C 24.117188 16.105469 23.617188 15.605469 23.617188 14.96875 C 23.617188 14.335938 24.117188 13.835938 24.753906 13.835938 C 25.386719 13.835938 25.886719 14.335938 25.886719 14.96875 C 25.886719 15.605469 25.386719 16.105469 24.753906 16.105469 Z M 24.753906 16.105469 " fill-opacity="1" fill-rule="nonzero"/><path fill="#31ac7d" d="M 5.203125 19.734375 L 6.199219 19.734375 C 6.652344 19.734375 6.972656 19.277344 6.972656 18.871094 L 6.972656 18.757812 C 7.015625 18.734375 7.0625 18.691406 7.085938 18.667969 C 7.199219 18.53125 7.265625 18.371094 7.265625 18.191406 C 7.265625 18.054688 7.289062 17.871094 7.3125 17.738281 C 7.355469 17.375 7.878906 16.625 7.878906 16.625 C 8.355469 15.921875 8.851562 15.105469 8.695312 14.0625 C 8.511719 12.746094 7.445312 11.703125 6.132812 11.476562 C 5.292969 11.339844 4.429688 11.589844 3.75 12.15625 C 3.070312 12.722656 2.660156 13.519531 2.617188 14.378906 C 2.570312 15.355469 3.070312 16.058594 3.476562 16.648438 L 3.5 16.671875 C 3.75 17.011719 4 17.375 4.042969 17.757812 C 4.066406 17.894531 4.089844 18.078125 4.089844 18.191406 C 4.089844 18.441406 4.203125 18.644531 4.40625 18.757812 L 4.40625 18.871094 C 4.429688 19.277344 4.746094 19.734375 5.203125 19.734375 Z M 4.25 16.125 C 3.816406 15.515625 3.523438 15.039062 3.546875 14.425781 C 3.570312 13.835938 3.863281 13.269531 4.339844 12.882812 C 4.816406 12.496094 5.429688 12.316406 5.996094 12.40625 C 6.925781 12.566406 7.675781 13.292969 7.808594 14.222656 C 7.902344 14.878906 7.628906 15.445312 7.128906 16.148438 C 7.128906 16.148438 6.496094 17.054688 6.402344 17.644531 C 6.402344 17.714844 6.382812 17.871094 6.359375 18.03125 C 6.335938 18.054688 6.289062 18.078125 6.246094 18.101562 C 6.085938 18.214844 6.039062 18.394531 6.039062 18.460938 C 6.039062 18.484375 6.039062 18.507812 6.039062 18.53125 L 6.039062 18.871094 L 5.292969 18.871094 L 5.292969 18.597656 C 5.292969 18.53125 5.292969 18.304688 5.089844 18.121094 C 5.042969 18.101562 5.019531 18.054688 4.976562 18.054688 C 4.976562 17.894531 4.953125 17.738281 4.929688 17.667969 C 4.882812 17.035156 4.25 16.125 4.25 16.125 Z M 4.25 16.125 " fill-opacity="1" fill-rule="nonzero"/><path fill="#31ac7d" d="M 6.109375 10.273438 L 6.109375 9.753906 C 6.109375 9.503906 5.90625 9.300781 5.65625 9.300781 C 5.40625 9.300781 5.203125 9.503906 5.203125 9.753906 L 5.203125 10.273438 C 5.203125 10.523438 5.40625 10.726562 5.65625 10.726562 C 5.90625 10.726562 6.109375 10.523438 6.109375 10.273438 Z M 6.109375 10.273438 " fill-opacity="1" fill-rule="nonzero"/><path fill="#31ac7d" d="M 3.546875 11.316406 C 3.886719 11.316406 4.113281 10.933594 3.929688 10.636719 L 3.660156 10.183594 C 3.523438 9.957031 3.25 9.890625 3.046875 10.023438 C 2.820312 10.160156 2.753906 10.433594 2.886719 10.636719 C 2.886719 10.636719 3.160156 11.089844 3.160156 11.089844 C 3.226562 11.226562 3.386719 11.316406 3.546875 11.316406 Z M 3.546875 11.316406 " fill-opacity="1" fill-rule="nonzero"/><path fill="#31ac7d" d="M 1.777344 11.773438 C 1.550781 11.636719 1.277344 11.726562 1.164062 11.929688 C 1.027344 12.15625 1.117188 12.429688 1.324219 12.542969 C 1.324219 12.542969 1.777344 12.816406 1.777344 12.816406 C 1.980469 12.929688 2.277344 12.859375 2.390625 12.65625 C 2.523438 12.429688 2.433594 12.15625 2.230469 12.042969 Z M 1.777344 11.773438 " fill-opacity="1" fill-rule="nonzero"/><g clip-path="url(#08b691f74a)"><path fill="#31ac7d" d="M 0.9375 15.015625 L 1.460938 15.015625 C 1.707031 15.015625 1.914062 14.8125 1.914062 14.5625 C 1.914062 14.3125 1.707031 14.109375 1.460938 14.109375 L 0.9375 14.109375 C 0.6875 14.109375 0.484375 14.3125 0.484375 14.5625 C 0.484375 14.8125 0.6875 15.015625 0.9375 15.015625 Z M 0.9375 15.015625 " fill-opacity="1" fill-rule="nonzero"/></g><path fill="#31ac7d" d="M 9.488281 14.449219 C 9.488281 14.699219 9.691406 14.902344 9.941406 14.902344 L 10.464844 14.902344 C 10.714844 14.902344 10.917969 14.699219 10.917969 14.449219 C 10.917969 14.199219 10.714844 13.996094 10.464844 13.996094 L 9.941406 13.996094 C 9.691406 13.996094 9.488281 14.199219 9.488281 14.449219 Z M 9.488281 14.449219 " fill-opacity="1" fill-rule="nonzero"/><path fill="#31ac7d" d="M 9.578125 11.679688 L 9.125 11.953125 C 8.898438 12.089844 8.832031 12.363281 8.964844 12.566406 C 9.082031 12.769531 9.375 12.859375 9.578125 12.722656 L 10.03125 12.453125 C 10.257812 12.316406 10.328125 12.042969 10.191406 11.839844 C 10.078125 11.636719 9.785156 11.566406 9.578125 11.679688 Z M 9.578125 11.679688 " fill-opacity="1" fill-rule="nonzero"/><path fill="#31ac7d" d="M 7.539062 11.203125 C 7.742188 11.316406 8.035156 11.25 8.148438 11.046875 L 8.421875 10.59375 C 8.558594 10.367188 8.46875 10.09375 8.261719 9.980469 C 8.058594 9.867188 7.765625 9.933594 7.652344 10.136719 L 7.378906 10.59375 C 7.265625 10.796875 7.332031 11.089844 7.539062 11.203125 Z M 7.539062 11.203125 " fill-opacity="1" fill-rule="nonzero"/><path fill="#31ac7d" d="M 17.675781 18.621094 C 17.8125 18.824219 18.105469 18.894531 18.3125 18.757812 L 19.332031 18.078125 C 19.46875 17.988281 19.535156 17.851562 19.535156 17.691406 C 19.535156 17.53125 19.46875 17.398438 19.332031 17.304688 L 18.3125 16.625 C 18.105469 16.488281 17.8125 16.535156 17.675781 16.761719 C 17.585938 16.921875 17.585938 17.101562 17.652344 17.238281 L 9.554688 17.238281 C 9.308594 17.238281 9.101562 17.441406 9.101562 17.691406 C 9.101562 17.941406 9.308594 18.144531 9.554688 18.144531 L 17.675781 18.144531 C 17.585938 18.28125 17.585938 18.484375 17.675781 18.621094 Z M 17.675781 18.621094 " fill-opacity="1" fill-rule="nonzero"/><path fill="#31ac7d" d="M 11.824219 14.96875 L 18.175781 14.96875 C 18.425781 14.96875 18.628906 14.765625 18.628906 14.515625 C 18.628906 14.265625 18.425781 14.0625 18.175781 14.0625 L 11.824219 14.0625 C 11.800781 14.0625 11.777344 14.0625 11.757812 14.0625 C 11.800781 14.175781 11.824219 14.3125 11.824219 14.449219 C 11.824219 14.628906 11.777344 14.789062 11.734375 14.945312 C 11.757812 14.96875 11.800781 14.96875 11.824219 14.96875 Z M 11.824219 14.96875 " fill-opacity="1" fill-rule="nonzero"/><g clip-path="url(#05c1bc3b14)"><path fill="#31ac7d" d="M 26.75 19.777344 C 26.636719 19.9375 26.5 20.050781 26.339844 20.164062 L 26.339844 20.84375 C 26.339844 21.09375 26.136719 21.296875 25.886719 21.296875 L 1.84375 21.296875 C 1.59375 21.296875 1.390625 21.09375 1.390625 20.84375 L 1.390625 15.921875 L 0.9375 15.921875 C 0.777344 15.921875 0.621094 15.898438 0.484375 15.855469 L 0.484375 20.867188 C 0.484375 21.617188 1.097656 22.226562 1.84375 22.226562 L 11.371094 22.226562 L 11.371094 23.136719 L 9.828125 23.136719 C 9.375 23.136719 8.988281 23.542969 8.988281 24.042969 L 8.988281 24.496094 C 8.988281 24.746094 9.195312 24.949219 9.441406 24.949219 C 9.691406 24.949219 9.898438 24.746094 9.898438 24.496094 L 9.898438 24.042969 L 17.835938 24.042969 L 17.835938 24.496094 C 17.835938 24.746094 18.039062 24.949219 18.289062 24.949219 C 18.539062 24.949219 18.742188 24.746094 18.742188 24.496094 L 18.742188 24.042969 C 18.742188 23.542969 18.355469 23.136719 17.902344 23.136719 L 16.359375 23.136719 L 16.359375 22.226562 L 25.886719 22.226562 C 26.636719 22.226562 27.246094 21.617188 27.246094 20.867188 L 27.246094 19.777344 C 27.179688 19.777344 27.089844 19.800781 27.019531 19.800781 C 26.929688 19.800781 26.839844 19.800781 26.75 19.777344 Z M 12.277344 23.136719 L 12.277344 22.226562 L 15.453125 22.226562 L 15.453125 23.136719 Z M 12.277344 23.136719 " fill-opacity="1" fill-rule="nonzero"/></g><g clip-path="url(#42da4b90ba)"><path fill="#31ac7d" d="M 9.101562 9.527344 L 9.101562 5.464844 C 9.101562 5.214844 9.308594 4.988281 9.578125 4.988281 L 20.445312 4.988281 C 20.691406 4.988281 20.917969 5.195312 20.917969 5.464844 L 20.917969 10.820312 C 21.167969 10.570312 21.488281 10.367188 21.828125 10.273438 L 21.828125 5.464844 C 21.828125 4.71875 21.214844 4.082031 20.445312 4.082031 L 9.578125 4.082031 C 8.832031 4.082031 8.195312 4.695312 8.195312 5.464844 L 8.195312 9.027344 C 8.378906 9.050781 8.558594 9.09375 8.71875 9.1875 C 8.875 9.277344 8.988281 9.390625 9.101562 9.527344 Z M 9.101562 9.527344 " fill-opacity="1" fill-rule="nonzero"/></g><path fill="#31ac7d" d="M 26.339844 7.484375 L 26.339844 9.753906 C 26.5 9.867188 26.636719 10.003906 26.75 10.136719 C 26.839844 10.136719 26.929688 10.117188 27.019531 10.117188 C 27.089844 10.117188 27.179688 10.117188 27.246094 10.136719 L 27.246094 7.484375 C 27.246094 6.738281 26.636719 6.125 25.886719 6.125 L 22.710938 6.125 L 22.710938 7.03125 L 25.886719 7.03125 C 26.136719 7.03125 26.339844 7.234375 26.339844 7.484375 Z M 26.339844 7.484375 " fill-opacity="1" fill-rule="nonzero"/><g clip-path="url(#d5c0b4f470)"><path fill="#31ac7d" d="M 1.390625 10.820312 L 1.390625 7.484375 C 1.390625 7.234375 1.59375 7.03125 1.84375 7.03125 L 7.289062 7.03125 L 7.289062 6.125 L 1.84375 6.125 C 1.097656 6.125 0.484375 6.738281 0.484375 7.484375 L 0.484375 11.339844 C 0.710938 11.046875 1.050781 10.863281 1.390625 10.820312 Z M 1.390625 10.820312 " fill-opacity="1" fill-rule="nonzero"/></g></svg>