<svg xmlns="http://www.w3.org/2000/svg" xmlns:xlink="http://www.w3.org/1999/xlink" width="40" zoomAndPan="magnify" viewBox="0 0 30 30.000001" height="40" preserveAspectRatio="xMidYMid meet" version="1.0"><defs><clipPath id="b3cf099817"><path d="M 0.484375 1.253906 L 29.515625 1.253906 L 29.515625 28 L 0.484375 28 Z M 0.484375 1.253906 " clip-rule="nonzero"/></clipPath></defs><g clip-path="url(#b3cf099817)"><path fill="#31ac7d" d="M 26.886719 1.269531 L 3.113281 1.269531 C 1.664062 1.269531 0.484375 2.449219 0.484375 3.898438 L 0.484375 18.757812 C 0.484375 20.207031 1.664062 21.386719 3.113281 21.386719 L 10.117188 21.386719 L 10.117188 23.878906 L 7.296875 23.878906 C 6.023438 23.878906 4.988281 24.75 4.988281 25.820312 L 4.988281 27.292969 C 4.988281 27.550781 5.195312 27.761719 5.457031 27.761719 L 24.542969 27.761719 C 24.804688 27.761719 25.011719 27.550781 25.011719 27.292969 L 25.011719 25.820312 C 25.011719 24.75 23.976562 23.878906 22.703125 23.878906 L 19.882812 23.878906 L 19.882812 21.386719 L 26.886719 21.386719 C 28.335938 21.386719 29.515625 20.207031 29.515625 18.757812 L 29.515625 3.898438 C 29.515625 2.449219 28.335938 1.269531 26.886719 1.269531 Z M 24.078125 25.820312 L 24.078125 26.824219 L 5.921875 26.824219 L 5.921875 25.820312 C 5.921875 25.277344 6.550781 24.816406 7.296875 24.816406 L 22.703125 24.816406 C 23.449219 24.816406 24.078125 25.277344 24.078125 25.820312 Z M 18.945312 23.878906 L 11.054688 23.878906 L 11.054688 21.386719 L 18.945312 21.386719 Z M 28.578125 18.757812 C 28.578125 19.691406 27.820312 20.449219 26.886719 20.449219 L 3.113281 20.449219 C 2.179688 20.449219 1.421875 19.691406 1.421875 18.757812 L 1.421875 3.898438 C 1.421875 2.964844 2.179688 2.207031 3.113281 2.207031 L 26.886719 2.207031 C 27.820312 2.207031 28.578125 2.964844 28.578125 3.898438 Z M 26.941406 3.074219 L 3.058594 3.074219 C 2.632812 3.074219 2.289062 3.421875 2.289062 3.84375 L 2.289062 18.058594 C 2.289062 18.316406 2.5 18.527344 2.757812 18.527344 L 27.242188 18.527344 C 27.5 18.527344 27.710938 18.316406 27.710938 18.058594 L 27.710938 3.84375 C 27.710938 3.421875 27.367188 3.074219 26.941406 3.074219 Z M 26.773438 17.589844 L 3.226562 17.589844 L 3.226562 4.011719 L 26.773438 4.011719 Z M 16.496094 16.347656 C 16.660156 16.34375 16.808594 16.253906 16.886719 16.113281 L 17.820312 14.5 L 18.386719 14.5 L 18.667969 14.992188 L 17.738281 16.605469 C 17.65625 16.746094 17.652344 16.917969 17.730469 17.0625 C 17.808594 17.207031 17.957031 17.296875 18.117188 17.308594 C 18.167969 17.308594 18.21875 17.3125 18.269531 17.3125 C 19.203125 17.3125 20.03125 16.835938 20.503906 16.015625 C 20.964844 15.214844 20.953125 14.210938 20.5 13.417969 L 22.777344 9.472656 C 23.691406 9.472656 24.566406 8.976562 25.027344 8.179688 C 25.527344 7.316406 25.496094 6.300781 24.953125 5.46875 C 24.863281 5.332031 24.710938 5.25 24.546875 5.253906 C 24.386719 5.257812 24.238281 5.347656 24.15625 5.488281 L 23.222656 7.101562 L 22.65625 7.101562 L 22.375 6.613281 L 23.304688 5 C 23.386719 4.859375 23.390625 4.683594 23.3125 4.542969 C 23.234375 4.398438 23.089844 4.304688 22.925781 4.296875 C 21.929688 4.242188 21.039062 4.726562 20.539062 5.589844 C 20.078125 6.386719 20.089844 7.394531 20.542969 8.183594 L 18.265625 12.128906 C 17.355469 12.132812 16.476562 12.625 16.015625 13.425781 C 15.519531 14.289062 15.546875 15.300781 16.089844 16.136719 C 16.179688 16.273438 16.332031 16.351562 16.496094 16.347656 Z M 16.828125 13.894531 C 17.15625 13.324219 17.816406 12.996094 18.46875 13.078125 C 18.65625 13.101562 18.839844 13.011719 18.933594 12.847656 L 21.5 8.402344 C 21.59375 8.238281 21.582031 8.035156 21.46875 7.886719 C 21.070312 7.363281 21.023438 6.625 21.351562 6.058594 C 21.507812 5.789062 21.71875 5.578125 21.972656 5.4375 L 21.429688 6.378906 C 21.34375 6.523438 21.34375 6.703125 21.429688 6.847656 L 21.980469 7.804688 C 22.066406 7.949219 22.21875 8.039062 22.386719 8.039062 L 23.496094 8.039062 C 23.660156 8.039062 23.816406 7.949219 23.898438 7.804688 L 24.441406 6.863281 C 24.445312 7.152344 24.371094 7.445312 24.214844 7.710938 C 23.886719 8.28125 23.226562 8.609375 22.574219 8.527344 C 22.386719 8.5 22.207031 8.59375 22.109375 8.757812 L 19.542969 13.199219 C 19.449219 13.363281 19.464844 13.566406 19.578125 13.71875 C 19.976562 14.242188 20.023438 14.976562 19.691406 15.546875 C 19.539062 15.8125 19.324219 16.023438 19.074219 16.167969 L 19.617188 15.226562 C 19.699219 15.082031 19.699219 14.902344 19.617188 14.757812 L 19.0625 13.796875 C 18.980469 13.652344 18.824219 13.5625 18.65625 13.5625 L 17.550781 13.5625 C 17.382812 13.5625 17.226562 13.652344 17.144531 13.796875 L 16.601562 14.738281 C 16.597656 14.449219 16.671875 14.160156 16.828125 13.894531 Z M 10.085938 13.476562 C 11.558594 13.476562 12.757812 12.277344 12.757812 10.800781 C 12.757812 9.328125 11.558594 8.128906 10.085938 8.128906 C 8.609375 8.128906 7.410156 9.328125 7.410156 10.800781 C 7.410156 12.277344 8.609375 13.476562 10.085938 13.476562 Z M 10.085938 9.0625 C 11.042969 9.0625 11.824219 9.84375 11.824219 10.800781 C 11.824219 11.761719 11.042969 12.539062 10.085938 12.539062 C 9.125 12.539062 8.347656 11.761719 8.347656 10.800781 C 8.347656 9.84375 9.125 9.0625 10.085938 9.0625 Z M 4.917969 11.738281 L 5.523438 11.96875 C 5.632812 12.402344 5.804688 12.816406 6.03125 13.199219 L 5.769531 13.792969 C 5.691406 13.96875 5.730469 14.175781 5.867188 14.3125 L 6.574219 15.019531 C 6.710938 15.15625 6.917969 15.195312 7.09375 15.117188 L 7.6875 14.851562 C 8.070312 15.082031 8.484375 15.253906 8.917969 15.363281 L 9.148438 15.96875 C 9.21875 16.148438 9.390625 16.265625 9.585938 16.265625 L 10.585938 16.265625 C 10.777344 16.265625 10.953125 16.148438 11.019531 15.96875 L 11.253906 15.363281 C 11.6875 15.253906 12.097656 15.082031 12.484375 14.851562 L 13.074219 15.117188 C 13.253906 15.195312 13.460938 15.15625 13.597656 15.019531 L 14.300781 14.3125 C 14.4375 14.175781 14.476562 13.96875 14.398438 13.792969 L 14.136719 13.199219 C 14.363281 12.816406 14.535156 12.402344 14.644531 11.96875 L 15.25 11.738281 C 15.429688 11.667969 15.550781 11.496094 15.550781 11.300781 L 15.550781 10.300781 C 15.550781 10.109375 15.429688 9.933594 15.25 9.867188 L 14.644531 9.632812 C 14.535156 9.199219 14.363281 8.789062 14.136719 8.402344 L 14.398438 7.8125 C 14.476562 7.632812 14.4375 7.425781 14.300781 7.289062 L 13.597656 6.585938 C 13.460938 6.445312 13.253906 6.410156 13.074219 6.488281 L 12.484375 6.75 C 12.097656 6.523438 11.6875 6.351562 11.253906 6.242188 L 11.019531 5.636719 C 10.953125 5.457031 10.777344 5.335938 10.585938 5.335938 L 9.585938 5.335938 C 9.390625 5.335938 9.21875 5.457031 9.148438 5.636719 L 8.914062 6.242188 C 8.484375 6.351562 8.070312 6.523438 7.6875 6.75 L 7.09375 6.488281 C 6.917969 6.410156 6.710938 6.449219 6.574219 6.585938 L 5.867188 7.289062 C 5.730469 7.425781 5.691406 7.632812 5.769531 7.8125 L 6.03125 8.402344 C 5.804688 8.789062 5.632812 9.199219 5.523438 9.632812 L 4.917969 9.867188 C 4.738281 9.933594 4.621094 10.109375 4.621094 10.300781 L 4.621094 11.300781 C 4.621094 11.496094 4.738281 11.667969 4.917969 11.738281 Z M 5.554688 10.625 L 6.09375 10.417969 C 6.242188 10.359375 6.351562 10.226562 6.382812 10.070312 C 6.480469 9.578125 6.671875 9.121094 6.953125 8.703125 C 7.042969 8.570312 7.054688 8.398438 6.992188 8.25 L 6.757812 7.726562 L 7.007812 7.472656 L 7.535156 7.707031 C 7.683594 7.773438 7.851562 7.757812 7.984375 7.667969 C 8.402344 7.390625 8.863281 7.199219 9.351562 7.101562 C 9.511719 7.070312 9.640625 6.960938 9.699219 6.808594 L 9.90625 6.273438 L 10.261719 6.273438 L 10.46875 6.808594 C 10.527344 6.960938 10.65625 7.070312 10.816406 7.101562 C 11.308594 7.199219 11.765625 7.390625 12.183594 7.667969 C 12.316406 7.757812 12.488281 7.773438 12.632812 7.707031 L 13.160156 7.472656 L 13.414062 7.726562 L 13.179688 8.25 C 13.113281 8.398438 13.128906 8.570312 13.21875 8.703125 C 13.5 9.121094 13.6875 9.578125 13.785156 10.070312 C 13.816406 10.230469 13.925781 10.359375 14.078125 10.417969 L 14.613281 10.625 L 14.613281 10.980469 L 14.078125 11.1875 C 13.925781 11.246094 13.816406 11.375 13.785156 11.53125 C 13.6875 12.023438 13.5 12.484375 13.21875 12.902344 C 13.128906 13.035156 13.113281 13.203125 13.179688 13.351562 L 13.414062 13.878906 L 13.160156 14.128906 L 12.636719 13.894531 C 12.488281 13.832031 12.316406 13.84375 12.183594 13.933594 C 11.765625 14.214844 11.308594 14.40625 10.816406 14.503906 C 10.65625 14.535156 10.527344 14.644531 10.46875 14.792969 L 10.261719 15.332031 L 9.90625 15.332031 L 9.699219 14.792969 C 9.640625 14.644531 9.511719 14.53125 9.355469 14.503906 C 8.863281 14.40625 8.402344 14.214844 7.984375 13.933594 C 7.851562 13.84375 7.683594 13.832031 7.535156 13.894531 L 7.007812 14.128906 L 6.757812 13.878906 L 6.992188 13.351562 C 7.054688 13.203125 7.042969 13.035156 6.953125 12.902344 C 6.671875 12.484375 6.480469 12.023438 6.382812 11.53125 C 6.351562 11.375 6.242188 11.242188 6.09375 11.1875 L 5.554688 10.980469 Z M 5.554688 10.625 " fill-opacity="1" fill-rule="nonzero"/></g></svg>