<svg xmlns="http://www.w3.org/2000/svg" xmlns:xlink="http://www.w3.org/1999/xlink" width="55" zoomAndPan="magnify" viewBox="0 0 41.25 41.250001" height="55" preserveAspectRatio="xMidYMid meet" version="1.0"><defs><clipPath id="1f8ae63d6b"><path d="M 0.683594 0 L 22 0 L 22 40.511719 L 0.683594 40.511719 Z M 0.683594 0 " clip-rule="nonzero"/></clipPath><clipPath id="669ac36c04"><path d="M 12 8 L 39.722656 8 L 39.722656 32 L 12 32 Z M 12 8 " clip-rule="nonzero"/></clipPath></defs><path fill="#000000" d="M 20.164062 17.320312 C 20.0625 17.058594 19.8125 16.882812 19.53125 16.882812 C 19.246094 16.882812 19 17.058594 18.898438 17.320312 L 16.878906 22.71875 C 16.75 23.070312 16.925781 23.457031 17.277344 23.589844 C 17.625 23.71875 18.007812 23.542969 18.144531 23.191406 L 18.488281 22.28125 L 20.582031 22.28125 L 20.925781 23.191406 C 21.023438 23.460938 21.28125 23.632812 21.558594 23.632812 C 21.636719 23.632812 21.71875 23.617188 21.792969 23.589844 C 22.140625 23.460938 22.316406 23.070312 22.183594 22.71875 Z M 18.992188 20.929688 L 19.539062 19.480469 L 20.082031 20.929688 Z M 18.992188 20.929688 " fill-opacity="1" fill-rule="nonzero"/><path fill="#000000" d="M 23.570312 16.882812 C 23.199219 16.882812 22.894531 17.1875 22.894531 17.558594 L 22.894531 22.957031 C 22.894531 23.328125 23.199219 23.632812 23.570312 23.632812 C 23.941406 23.632812 24.242188 23.328125 24.242188 22.957031 L 24.242188 17.558594 C 24.242188 17.1875 23.941406 16.882812 23.570312 16.882812 Z M 23.570312 16.882812 " fill-opacity="1" fill-rule="nonzero"/><g clip-path="url(#1f8ae63d6b)"><path fill="#000000" d="M 20.875 31.730469 C 14.570312 31.730469 9.433594 26.582031 9.433594 20.257812 C 9.433594 13.933594 14.570312 8.785156 20.875 8.785156 C 21.246094 8.785156 21.550781 8.480469 21.550781 8.109375 L 21.550781 0.683594 C 21.550781 0.3125 21.246094 0.0117188 20.875 0.0117188 L 17.328125 0.0117188 C 17.019531 0.0117188 16.75 0.21875 16.675781 0.523438 L 15.714844 4.398438 C 14.894531 4.667969 14.097656 4.992188 13.34375 5.375 L 9.933594 3.324219 C 9.667969 3.160156 9.328125 3.207031 9.109375 3.425781 L 4.097656 8.453125 C 3.882812 8.667969 3.832031 9.011719 3.996094 9.277344 L 6.042969 12.699219 C 5.65625 13.453125 5.328125 14.25 5.066406 15.074219 L 1.203125 16.039062 C 0.898438 16.113281 0.691406 16.382812 0.691406 16.691406 L 0.691406 23.804688 C 0.691406 24.117188 0.898438 24.386719 1.203125 24.460938 L 5.066406 25.425781 C 5.335938 26.25 5.65625 27.046875 6.042969 27.800781 L 3.996094 31.222656 C 3.832031 31.488281 3.882812 31.832031 4.097656 32.046875 L 9.109375 37.074219 C 9.328125 37.289062 9.667969 37.339844 9.933594 37.175781 L 13.34375 35.125 C 14.097656 35.507812 14.894531 35.839844 15.714844 36.101562 L 16.675781 39.976562 C 16.75 40.28125 17.019531 40.488281 17.328125 40.488281 L 20.875 40.488281 C 21.246094 40.488281 21.550781 40.1875 21.550781 39.816406 L 21.550781 32.390625 C 21.550781 32.019531 21.246094 31.714844 20.875 31.714844 Z M 20.203125 39.152344 L 17.855469 39.152344 L 16.925781 35.421875 C 16.863281 35.191406 16.691406 35.011719 16.46875 34.9375 C 15.480469 34.636719 14.523438 34.246094 13.640625 33.769531 C 13.433594 33.652344 13.175781 33.660156 12.972656 33.78125 L 9.691406 35.757812 L 5.414062 31.472656 L 7.386719 28.179688 C 7.507812 27.976562 7.515625 27.722656 7.402344 27.511719 C 6.921875 26.628906 6.53125 25.667969 6.238281 24.675781 C 6.167969 24.449219 5.988281 24.273438 5.753906 24.21875 L 2.03125 23.285156 L 2.03125 17.226562 L 5.753906 16.296875 C 5.980469 16.234375 6.164062 16.058594 6.238281 15.835938 C 6.53125 14.84375 6.921875 13.886719 7.402344 13 C 7.515625 12.792969 7.507812 12.535156 7.386719 12.332031 L 5.414062 9.039062 L 9.691406 4.753906 L 12.972656 6.730469 C 13.175781 6.851562 13.433594 6.859375 13.640625 6.746094 C 14.523438 6.265625 15.480469 5.875 16.46875 5.578125 C 16.695312 5.511719 16.871094 5.328125 16.925781 5.09375 L 17.855469 1.359375 L 20.203125 1.359375 L 20.203125 7.453125 C 13.464844 7.804688 8.085938 13.414062 8.085938 20.257812 C 8.085938 27.101562 13.464844 32.707031 20.203125 33.058594 Z M 20.203125 39.152344 " fill-opacity="1" fill-rule="nonzero"/></g><g clip-path="url(#669ac36c04)"><path fill="#000000" d="M 37.03125 17.558594 C 35.78125 17.558594 34.734375 18.421875 34.433594 19.582031 L 27.609375 19.582031 L 27.609375 16.882812 L 30.300781 16.882812 C 30.488281 16.882812 30.671875 16.800781 30.796875 16.660156 L 33.261719 13.953125 C 33.59375 14.09375 33.957031 14.183594 34.339844 14.183594 C 35.828125 14.183594 37.03125 12.972656 37.03125 11.484375 C 37.03125 9.992188 35.828125 8.785156 34.339844 8.785156 C 32.851562 8.785156 31.648438 9.992188 31.648438 11.484375 C 31.648438 12.097656 31.863281 12.65625 32.207031 13.109375 L 30.003906 15.53125 L 27.609375 15.53125 L 27.609375 14.183594 C 27.609375 13.8125 27.304688 13.507812 26.933594 13.507812 L 25.589844 13.507812 L 25.589844 12.15625 C 25.589844 11.785156 25.285156 11.484375 24.914062 11.484375 C 24.546875 11.484375 24.242188 11.785156 24.242188 12.15625 L 24.242188 13.507812 L 21.550781 13.507812 L 21.550781 12.15625 C 21.550781 11.785156 21.246094 11.484375 20.875 11.484375 C 20.507812 11.484375 20.203125 11.785156 20.203125 12.15625 L 20.203125 13.507812 L 17.511719 13.507812 L 17.511719 12.15625 C 17.511719 11.785156 17.207031 11.484375 16.839844 11.484375 C 16.46875 11.484375 16.164062 11.785156 16.164062 12.15625 L 16.164062 13.507812 L 14.820312 13.507812 C 14.449219 13.507812 14.144531 13.8125 14.144531 14.183594 L 14.144531 15.53125 L 12.800781 15.53125 C 12.429688 15.53125 12.125 15.835938 12.125 16.207031 C 12.125 16.578125 12.429688 16.882812 12.800781 16.882812 L 14.144531 16.882812 L 14.144531 19.582031 L 12.800781 19.582031 C 12.429688 19.582031 12.125 19.886719 12.125 20.257812 C 12.125 20.628906 12.429688 20.929688 12.800781 20.929688 L 14.144531 20.929688 L 14.144531 23.632812 L 12.800781 23.632812 C 12.429688 23.632812 12.125 23.933594 12.125 24.304688 C 12.125 24.675781 12.429688 24.980469 12.800781 24.980469 L 14.144531 24.980469 L 14.144531 26.332031 C 14.144531 26.703125 14.449219 27.003906 14.820312 27.003906 L 16.164062 27.003906 L 16.164062 28.355469 C 16.164062 28.726562 16.46875 29.03125 16.839844 29.03125 C 17.207031 29.03125 17.511719 28.726562 17.511719 28.355469 L 17.511719 27.003906 L 20.203125 27.003906 L 20.203125 28.355469 C 20.203125 28.726562 20.507812 29.03125 20.875 29.03125 C 21.246094 29.03125 21.550781 28.726562 21.550781 28.355469 L 21.550781 27.003906 L 24.242188 27.003906 L 24.242188 28.355469 C 24.242188 28.726562 24.546875 29.03125 24.914062 29.03125 C 25.285156 29.03125 25.589844 28.726562 25.589844 28.355469 L 25.589844 27.003906 L 26.933594 27.003906 C 27.304688 27.003906 27.609375 26.703125 27.609375 26.332031 L 27.609375 24.980469 L 30.003906 24.980469 L 32.207031 27.402344 C 31.863281 27.855469 31.648438 28.417969 31.648438 29.03125 C 31.648438 30.523438 32.851562 31.730469 34.339844 31.730469 C 35.828125 31.730469 37.03125 30.523438 37.03125 29.03125 C 37.03125 27.539062 35.828125 26.332031 34.339844 26.332031 C 33.957031 26.332031 33.59375 26.410156 33.261719 26.558594 L 30.796875 23.855469 C 30.671875 23.710938 30.488281 23.632812 30.300781 23.632812 L 27.609375 23.632812 L 27.609375 20.929688 L 34.433594 20.929688 C 34.734375 22.09375 35.78125 22.957031 37.03125 22.957031 C 38.519531 22.957031 39.722656 21.75 39.722656 20.257812 C 39.722656 18.765625 38.519531 17.558594 37.03125 17.558594 Z M 34.339844 10.132812 C 35.078125 10.132812 35.683594 10.742188 35.683594 11.484375 C 35.683594 12.226562 35.078125 12.832031 34.339844 12.832031 C 33.597656 12.832031 32.992188 12.226562 32.992188 11.484375 C 32.992188 10.742188 33.597656 10.132812 34.339844 10.132812 Z M 35.683594 29.03125 C 35.683594 29.773438 35.078125 30.378906 34.339844 30.378906 C 33.597656 30.378906 32.992188 29.773438 32.992188 29.03125 C 32.992188 28.289062 33.597656 27.679688 34.339844 27.679688 C 35.078125 27.679688 35.683594 28.289062 35.683594 29.03125 Z M 26.261719 25.65625 L 15.492188 25.65625 L 15.492188 14.859375 L 26.261719 14.859375 Z M 37.03125 21.605469 C 36.289062 21.605469 35.683594 21 35.683594 20.257812 C 35.683594 19.515625 36.289062 18.90625 37.03125 18.90625 C 37.773438 18.90625 38.378906 19.515625 38.378906 20.257812 C 38.378906 21 37.773438 21.605469 37.03125 21.605469 Z M 37.03125 21.605469 " fill-opacity="1" fill-rule="nonzero"/></g></svg>