<svg xmlns="http://www.w3.org/2000/svg" xmlns:xlink="http://www.w3.org/1999/xlink" width="55" zoomAndPan="magnify" viewBox="0 0 41.25 41.250001" height="55" preserveAspectRatio="xMidYMid meet" version="1.0"><defs><clipPath id="dfc65218e0"><path d="M 0 0.0234375 L 40.511719 0.0234375 L 40.511719 40.511719 L 0 40.511719 Z M 0 0.0234375 " clip-rule="nonzero"/></clipPath></defs><path fill="#000000" d="M 18.65625 6.691406 L 21.898438 6.691406 C 22.15625 6.691406 22.367188 6.476562 22.367188 6.222656 L 22.367188 5.582031 C 22.367188 5.066406 22.070312 4.597656 21.601562 4.425781 L 21.21875 4.257812 C 20.960938 4.511719 20.621094 4.640625 20.234375 4.640625 C 19.851562 4.640625 19.550781 4.511719 19.253906 4.257812 L 18.871094 4.425781 C 18.398438 4.640625 18.101562 5.109375 18.101562 5.582031 L 18.101562 6.222656 C 18.1875 6.476562 18.398438 6.691406 18.65625 6.691406 Z M 18.65625 6.691406 " fill-opacity="1" fill-rule="nonzero"/><path fill="#000000" d="M 21.34375 2.929688 C 21.34375 3.09375 21.316406 3.253906 21.265625 3.40625 C 21.210938 3.558594 21.132812 3.691406 21.03125 3.808594 C 20.933594 3.925781 20.816406 4.011719 20.6875 4.078125 C 20.554688 4.140625 20.417969 4.171875 20.277344 4.171875 C 20.136719 4.171875 20 4.140625 19.871094 4.078125 C 19.738281 4.011719 19.625 3.925781 19.523438 3.808594 C 19.421875 3.691406 19.347656 3.558594 19.292969 3.40625 C 19.238281 3.253906 19.210938 3.09375 19.210938 2.929688 C 19.210938 2.765625 19.238281 2.609375 19.292969 2.457031 C 19.347656 2.304688 19.421875 2.171875 19.523438 2.054688 C 19.625 1.9375 19.738281 1.847656 19.871094 1.785156 C 20 1.722656 20.136719 1.691406 20.277344 1.691406 C 20.417969 1.691406 20.554688 1.722656 20.6875 1.785156 C 20.816406 1.847656 20.933594 1.9375 21.03125 2.054688 C 21.132812 2.171875 21.210938 2.304688 21.265625 2.457031 C 21.316406 2.609375 21.34375 2.765625 21.34375 2.929688 Z M 21.34375 2.929688 " fill-opacity="1" fill-rule="nonzero"/><path fill="#000000" d="M 11.1875 10.835938 L 11.1875 10.195312 C 11.1875 9.683594 10.890625 9.214844 10.421875 9.042969 L 10.035156 8.914062 C 9.78125 9.171875 9.4375 9.300781 9.054688 9.300781 C 8.671875 9.300781 8.371094 9.171875 8.074219 8.914062 L 7.6875 9.085938 C 7.21875 9.300781 6.921875 9.769531 6.921875 10.238281 L 6.921875 10.878906 C 6.921875 11.136719 7.132812 11.351562 7.390625 11.351562 L 10.632812 11.351562 C 10.976562 11.308594 11.1875 11.136719 11.1875 10.835938 Z M 11.1875 10.835938 " fill-opacity="1" fill-rule="nonzero"/><path fill="#000000" d="M 9.097656 8.828125 C 9.695312 8.828125 10.164062 8.273438 10.164062 7.589844 C 10.164062 6.90625 9.695312 6.351562 9.097656 6.351562 C 8.5 6.351562 8.03125 6.90625 8.03125 7.589844 C 8.03125 8.273438 8.5 8.828125 9.097656 8.828125 Z M 9.097656 8.828125 " fill-opacity="1" fill-rule="nonzero"/><path fill="#000000" d="M 29.835938 11.308594 L 33.082031 11.308594 C 33.335938 11.308594 33.550781 11.09375 33.550781 10.835938 L 33.550781 10.195312 C 33.550781 9.683594 33.25 9.214844 32.78125 9.042969 L 32.398438 8.871094 C 32.140625 9.128906 31.800781 9.257812 31.417969 9.257812 C 31.03125 9.257812 30.734375 9.128906 30.433594 8.871094 L 30.050781 9.042969 C 29.582031 9.257812 29.28125 9.726562 29.28125 10.195312 L 29.28125 10.835938 C 29.367188 11.136719 29.582031 11.308594 29.835938 11.308594 Z M 29.835938 11.308594 " fill-opacity="1" fill-rule="nonzero"/><path fill="#000000" d="M 31.457031 8.828125 C 32.054688 8.828125 32.527344 8.273438 32.527344 7.589844 C 32.527344 6.90625 32.054688 6.351562 31.457031 6.351562 C 30.863281 6.351562 30.390625 6.90625 30.390625 7.589844 C 30.433594 8.273438 30.902344 8.828125 31.457031 8.828125 Z M 31.457031 8.828125 " fill-opacity="1" fill-rule="nonzero"/><path fill="#000000" d="M 5.769531 20.28125 L 5.382812 20.109375 C 5.128906 20.367188 4.785156 20.496094 4.402344 20.496094 C 4.019531 20.496094 3.71875 20.367188 3.421875 20.109375 L 3.121094 20.28125 C 2.652344 20.496094 2.355469 20.921875 2.355469 21.4375 L 2.355469 22.078125 C 2.355469 22.332031 2.566406 22.546875 2.824219 22.546875 L 6.066406 22.546875 C 6.324219 22.546875 6.535156 22.332031 6.535156 22.078125 L 6.535156 21.4375 C 6.535156 20.921875 6.238281 20.496094 5.769531 20.28125 Z M 5.769531 20.28125 " fill-opacity="1" fill-rule="nonzero"/><path fill="#000000" d="M 4.445312 20.027344 C 5.042969 20.027344 5.511719 19.46875 5.511719 18.785156 C 5.511719 18.101562 5.042969 17.546875 4.445312 17.546875 C 3.847656 17.546875 3.378906 18.101562 3.378906 18.785156 C 3.421875 19.46875 3.890625 20.027344 4.445312 20.027344 Z M 4.445312 20.027344 " fill-opacity="1" fill-rule="nonzero"/><path fill="#000000" d="M 21.601562 36.136719 L 21.21875 35.964844 C 20.960938 36.222656 20.621094 36.351562 20.234375 36.351562 C 19.851562 36.351562 19.550781 36.222656 19.253906 35.964844 L 18.871094 36.136719 C 18.398438 36.351562 18.101562 36.820312 18.101562 37.289062 L 18.101562 37.933594 C 18.101562 38.1875 18.316406 38.402344 18.570312 38.402344 L 21.8125 38.402344 C 22.070312 38.402344 22.285156 38.1875 22.285156 37.933594 L 22.285156 37.289062 C 22.367188 36.777344 22.070312 36.351562 21.601562 36.136719 Z M 21.601562 36.136719 " fill-opacity="1" fill-rule="nonzero"/><path fill="#000000" d="M 20.277344 35.878906 C 20.875 35.878906 21.34375 35.324219 21.34375 34.640625 C 21.34375 33.957031 20.875 33.402344 20.277344 33.402344 C 19.679688 33.402344 19.210938 33.957031 19.210938 34.640625 C 19.210938 35.324219 19.679688 35.878906 20.277344 35.878906 Z M 20.277344 35.878906 " fill-opacity="1" fill-rule="nonzero"/><path fill="#000000" d="M 10.421875 31.480469 L 10.035156 31.308594 C 9.78125 31.5625 9.4375 31.691406 9.054688 31.691406 C 8.671875 31.691406 8.371094 31.5625 8.074219 31.308594 L 7.6875 31.480469 C 7.21875 31.691406 6.921875 32.164062 6.921875 32.632812 L 6.921875 33.273438 C 6.921875 33.53125 7.132812 33.742188 7.390625 33.742188 L 10.632812 33.742188 C 10.890625 33.742188 11.101562 33.53125 11.101562 33.273438 L 11.101562 32.675781 C 11.1875 32.164062 10.890625 31.691406 10.421875 31.480469 Z M 10.421875 31.480469 " fill-opacity="1" fill-rule="nonzero"/><path fill="#000000" d="M 9.097656 31.222656 C 9.695312 31.222656 10.164062 30.667969 10.164062 29.984375 C 10.164062 29.300781 9.695312 28.742188 9.097656 28.742188 C 8.5 28.742188 8.03125 29.300781 8.03125 29.984375 C 8.03125 30.667969 8.5 31.222656 9.097656 31.222656 Z M 9.097656 31.222656 " fill-opacity="1" fill-rule="nonzero"/><path fill="#000000" d="M 31.457031 31.691406 C 31.074219 31.691406 30.777344 31.5625 30.476562 31.308594 L 30.09375 31.480469 C 29.625 31.691406 29.324219 32.164062 29.324219 32.632812 L 29.324219 33.273438 C 29.324219 33.53125 29.539062 33.742188 29.792969 33.742188 L 33.082031 33.742188 C 33.335938 33.742188 33.550781 33.53125 33.550781 33.273438 L 33.550781 32.675781 C 33.550781 32.164062 33.25 31.691406 32.78125 31.523438 L 32.398438 31.351562 C 32.183594 31.5625 31.84375 31.691406 31.457031 31.691406 Z M 31.457031 31.691406 " fill-opacity="1" fill-rule="nonzero"/><path fill="#000000" d="M 30.433594 30.027344 C 30.433594 30.710938 30.902344 31.265625 31.5 31.265625 C 32.097656 31.265625 32.570312 30.710938 32.570312 30.027344 C 32.570312 29.34375 32.097656 28.785156 31.5 28.785156 C 30.902344 28.785156 30.433594 29.34375 30.433594 30.027344 Z M 30.433594 30.027344 " fill-opacity="1" fill-rule="nonzero"/><g clip-path="url(#dfc65218e0)"><path fill="#000000" d="M 36.109375 15.835938 C 35.726562 15.835938 35.386719 15.878906 35 15.964844 L 33.847656 12.804688 C 35.085938 11.992188 35.898438 10.625 35.898438 9.085938 C 35.898438 6.648438 33.890625 4.640625 31.457031 4.640625 C 29.835938 4.640625 28.429688 5.496094 27.660156 6.820312 L 24.632812 5.410156 C 24.714844 5.109375 24.714844 4.8125 24.714844 4.46875 C 24.714844 2.035156 22.710938 0.0234375 20.277344 0.0234375 C 17.84375 0.0234375 15.839844 1.992188 15.839844 4.425781 C 15.839844 4.8125 15.882812 5.152344 15.96875 5.539062 L 12.808594 6.691406 C 12 5.453125 10.632812 4.640625 9.097656 4.640625 C 6.664062 4.640625 4.660156 6.648438 4.660156 9.085938 C 4.660156 10.710938 5.511719 12.121094 6.835938 12.890625 L 5.425781 15.921875 C 5.128906 15.835938 4.828125 15.835938 4.488281 15.835938 C 2.011719 15.835938 0.0078125 17.847656 0.0078125 20.28125 C 0.0078125 22.71875 2.011719 24.726562 4.445312 24.726562 C 4.828125 24.726562 5.171875 24.683594 5.554688 24.597656 L 6.707031 27.761719 C 5.46875 28.574219 4.660156 29.941406 4.660156 31.480469 C 4.660156 33.914062 6.664062 35.921875 9.097656 35.921875 C 10.71875 35.921875 12.128906 35.070312 12.894531 33.742188 L 15.925781 35.152344 C 15.839844 35.453125 15.839844 35.753906 15.839844 36.09375 C 15.839844 38.53125 17.84375 40.539062 20.277344 40.539062 C 22.710938 40.539062 24.714844 38.53125 24.714844 36.09375 C 24.714844 35.710938 24.671875 35.367188 24.589844 34.984375 L 27.746094 33.828125 C 28.558594 35.070312 29.921875 35.878906 31.457031 35.878906 C 33.890625 35.878906 35.898438 33.871094 35.898438 31.4375 C 35.898438 29.8125 35.042969 28.402344 33.71875 27.632812 L 35.128906 24.597656 C 35.425781 24.683594 35.726562 24.683594 36.066406 24.683594 C 38.5 24.683594 40.507812 22.675781 40.507812 20.238281 C 40.507812 17.804688 38.542969 15.835938 36.109375 15.835938 Z M 34.359375 16.179688 C 32.910156 16.777344 31.84375 18.1875 31.671875 19.8125 L 24.246094 16.734375 L 28.558594 12.417969 C 29.324219 13.101562 30.347656 13.488281 31.457031 13.488281 C 32.097656 13.488281 32.695312 13.359375 33.25 13.101562 Z M 20.621094 19.46875 L 20.621094 15.964844 L 23.09375 16.992188 Z M 19.9375 19.46875 L 17.460938 16.992188 L 19.9375 15.964844 Z M 19.9375 21.09375 L 19.9375 24.597656 L 17.460938 23.574219 Z M 20.621094 21.09375 L 23.09375 23.574219 L 20.621094 24.597656 Z M 23.777344 17.246094 L 30.222656 19.941406 L 21.089844 19.941406 Z M 23.605469 16.480469 L 21.175781 15.453125 L 27.0625 13.015625 Z M 16.949219 16.480469 L 13.492188 13.015625 L 19.425781 15.453125 Z M 19.46875 19.941406 L 10.335938 19.941406 L 16.777344 17.246094 Z M 19.46875 20.625 L 16.777344 23.316406 L 10.335938 20.625 Z M 16.949219 24.085938 L 19.382812 25.109375 L 13.492188 27.546875 Z M 23.605469 24.085938 L 27.0625 27.546875 L 21.132812 25.109375 Z M 21.089844 20.625 L 30.222656 20.625 L 23.777344 23.316406 Z M 31.457031 5.28125 C 33.550781 5.28125 35.214844 6.992188 35.214844 9.042969 C 35.214844 11.136719 33.507812 12.804688 31.457031 12.804688 C 29.367188 12.804688 27.703125 11.09375 27.703125 9.042969 C 27.703125 6.992188 29.410156 5.28125 31.457031 5.28125 Z M 27.363281 7.417969 C 27.148438 7.929688 27.019531 8.488281 27.019531 9.085938 C 27.019531 10.152344 27.40625 11.136719 28.003906 11.90625 L 20.578125 14.984375 L 20.578125 8.871094 C 22.328125 8.742188 23.777344 7.589844 24.375 6.050781 Z M 20.277344 0.667969 C 22.367188 0.667969 24.035156 2.375 24.035156 4.425781 C 24.035156 6.519531 22.328125 8.1875 20.277344 8.1875 C 18.230469 8.1875 16.523438 6.476562 16.523438 4.425781 C 16.523438 2.332031 18.1875 0.667969 20.277344 0.667969 Z M 16.179688 6.179688 C 16.820312 7.675781 18.230469 8.742188 19.9375 8.871094 L 19.9375 14.984375 L 12.511719 11.90625 C 13.152344 11.136719 13.492188 10.152344 13.492188 9.085938 C 13.492188 8.445312 13.363281 7.847656 13.109375 7.289062 Z M 5.300781 9.085938 C 5.300781 6.992188 7.007812 5.324219 9.054688 5.324219 C 11.144531 5.324219 12.808594 7.035156 12.808594 9.085938 C 12.808594 11.179688 11.101562 12.847656 9.054688 12.847656 C 7.007812 12.847656 5.300781 11.136719 5.300781 9.085938 Z M 7.433594 13.1875 C 7.945312 13.402344 8.5 13.53125 9.097656 13.53125 C 10.207031 13.53125 11.1875 13.101562 12 12.460938 L 16.308594 16.777344 L 8.882812 19.855469 C 8.714844 18.144531 7.605469 16.734375 6.066406 16.179688 Z M 0.691406 20.28125 C 0.691406 18.1875 2.398438 16.519531 4.445312 16.519531 C 6.492188 16.519531 8.199219 18.230469 8.199219 20.28125 C 8.199219 22.332031 6.492188 24.042969 4.445312 24.042969 C 2.398438 24.042969 0.691406 22.375 0.691406 20.28125 Z M 6.195312 24.382812 C 7.644531 23.742188 8.714844 22.375 8.882812 20.753906 L 16.308594 23.828125 L 11.957031 28.101562 C 11.1875 27.417969 10.164062 27.035156 9.054688 27.035156 C 8.414062 27.035156 7.816406 27.164062 7.261719 27.417969 Z M 9.097656 35.28125 C 7.007812 35.28125 5.34375 33.574219 5.34375 31.523438 C 5.34375 29.425781 7.046875 27.761719 9.097656 27.761719 C 11.1875 27.761719 12.851562 29.46875 12.851562 31.523438 C 12.851562 33.574219 11.144531 35.28125 9.097656 35.28125 Z M 13.195312 33.144531 C 13.40625 32.632812 13.535156 32.078125 13.535156 31.480469 C 13.535156 30.410156 13.152344 29.425781 12.554688 28.65625 L 19.980469 25.582031 L 19.980469 31.691406 C 18.230469 31.820312 16.777344 32.972656 16.179688 34.511719 Z M 20.277344 39.898438 C 18.1875 39.898438 16.523438 38.1875 16.523438 36.136719 C 16.523438 34.042969 18.230469 32.375 20.277344 32.375 C 22.367188 32.375 24.035156 34.085938 24.035156 36.136719 C 24.035156 38.230469 22.367188 39.898438 20.277344 39.898438 Z M 24.375 34.386719 C 23.734375 32.890625 22.328125 31.820312 20.621094 31.691406 L 20.621094 25.625 L 28.042969 28.699219 C 27.40625 29.46875 27.0625 30.453125 27.0625 31.523438 C 27.0625 32.164062 27.191406 32.761719 27.449219 33.316406 Z M 35.257812 31.480469 C 35.257812 33.574219 33.550781 35.238281 31.5 35.238281 C 29.410156 35.238281 27.746094 33.53125 27.746094 31.480469 C 27.746094 29.382812 29.453125 27.71875 31.5 27.71875 C 33.550781 27.71875 35.257812 29.425781 35.257812 31.480469 Z M 33.125 27.375 C 32.609375 27.164062 32.054688 27.035156 31.457031 27.035156 C 30.347656 27.035156 29.324219 27.460938 28.558594 28.101562 L 24.289062 23.828125 L 31.714844 20.753906 C 31.886719 22.460938 32.996094 23.871094 34.53125 24.425781 Z M 36.109375 24.042969 C 34.019531 24.042969 32.355469 22.332031 32.355469 20.28125 C 32.355469 18.1875 34.0625 16.519531 36.109375 16.519531 C 38.203125 16.519531 39.867188 18.230469 39.867188 20.28125 C 39.867188 22.375 38.203125 24.042969 36.109375 24.042969 Z M 36.109375 24.042969 " fill-opacity="1" fill-rule="nonzero"/></g><path fill="#000000" d="M 37.433594 20.28125 L 37.050781 20.109375 C 36.792969 20.367188 36.453125 20.496094 36.066406 20.496094 C 35.683594 20.496094 35.386719 20.367188 35.085938 20.109375 L 34.789062 20.28125 C 34.316406 20.496094 34.019531 20.964844 34.019531 21.4375 L 34.019531 22.078125 C 34.019531 22.332031 34.234375 22.546875 34.488281 22.546875 L 37.730469 22.546875 C 37.988281 22.546875 38.203125 22.332031 38.203125 22.078125 L 38.203125 21.4375 C 38.203125 20.921875 37.902344 20.496094 37.433594 20.28125 Z M 37.433594 20.28125 " fill-opacity="1" fill-rule="nonzero"/><path fill="#000000" d="M 36.109375 20.027344 C 36.707031 20.027344 37.175781 19.46875 37.175781 18.785156 C 37.175781 18.101562 36.707031 17.546875 36.109375 17.546875 C 35.511719 17.546875 35.042969 18.101562 35.042969 18.785156 C 35.042969 19.46875 35.511719 20.027344 36.109375 20.027344 Z M 36.109375 20.027344 " fill-opacity="1" fill-rule="nonzero"/></svg>