<svg xmlns="http://www.w3.org/2000/svg" xmlns:xlink="http://www.w3.org/1999/xlink" width="55" zoomAndPan="magnify" viewBox="0 0 41.25 41.250001" height="55" preserveAspectRatio="xMidYMid meet" version="1.0"><defs><clipPath id="97cf704f06"><path d="M 19 39 L 21 39 L 21 40.511719 L 19 40.511719 Z M 19 39 " clip-rule="nonzero"/></clipPath><clipPath id="e265946a10"><path d="M 39 19 L 40.511719 19 L 40.511719 21 L 39 21 Z M 39 19 " clip-rule="nonzero"/></clipPath></defs><path fill="#000000" d="M 20.257812 28.167969 C 20.429688 28.167969 20.582031 28.109375 20.703125 27.984375 C 20.828125 27.859375 20.890625 27.710938 20.890625 27.535156 C 20.890625 27.363281 20.828125 27.210938 20.703125 27.089844 C 20.582031 26.964844 20.429688 26.902344 20.257812 26.902344 L 19.972656 26.902344 C 19.796875 26.894531 19.644531 26.949219 19.515625 27.066406 C 19.386719 27.183594 19.316406 27.328125 19.308594 27.503906 C 19.296875 27.679688 19.355469 27.835938 19.472656 27.964844 C 19.59375 28.09375 19.742188 28.164062 19.917969 28.167969 Z M 20.257812 28.167969 " fill-opacity="1" fill-rule="nonzero"/><path fill="#000000" d="M 22.804688 26.398438 L 22.53125 26.5 C 22.367188 26.5625 22.25 26.671875 22.175781 26.832031 C 22.101562 26.988281 22.09375 27.152344 22.15625 27.316406 C 22.214844 27.480469 22.324219 27.597656 22.484375 27.671875 C 22.644531 27.746094 22.804688 27.75 22.96875 27.691406 L 23.285156 27.566406 C 23.449219 27.5 23.5625 27.386719 23.628906 27.226562 C 23.695312 27.0625 23.695312 26.902344 23.628906 26.742188 C 23.5625 26.578125 23.449219 26.464844 23.285156 26.398438 C 23.125 26.332031 22.964844 26.332031 22.800781 26.398438 Z M 22.804688 26.398438 " fill-opacity="1" fill-rule="nonzero"/><path fill="#000000" d="M 15.359375 24.753906 C 15.242188 24.632812 15.09375 24.566406 14.925781 24.5625 C 14.753906 24.558594 14.605469 24.613281 14.476562 24.730469 C 14.351562 24.847656 14.285156 24.992188 14.273438 25.160156 C 14.265625 25.332031 14.316406 25.484375 14.429688 25.613281 C 14.507812 25.695312 14.585938 25.777344 14.667969 25.859375 C 14.789062 25.984375 14.941406 26.042969 15.113281 26.042969 C 15.289062 26.042969 15.4375 25.984375 15.5625 25.859375 C 15.6875 25.734375 15.75 25.585938 15.75 25.410156 C 15.75 25.234375 15.6875 25.085938 15.5625 24.964844 Z M 15.359375 24.753906 " fill-opacity="1" fill-rule="nonzero"/><path fill="#000000" d="M 20.257812 12.34375 L 20.234375 12.34375 C 20.058594 12.34375 19.910156 12.40625 19.785156 12.53125 C 19.664062 12.652344 19.601562 12.800781 19.601562 12.976562 C 19.601562 13.152344 19.664062 13.300781 19.785156 13.425781 C 19.910156 13.546875 20.058594 13.609375 20.234375 13.609375 L 20.527344 13.609375 C 20.703125 13.617188 20.855469 13.558594 20.984375 13.441406 C 21.109375 13.320312 21.179688 13.175781 21.183594 13 C 21.191406 12.824219 21.132812 12.671875 21.015625 12.546875 C 20.894531 12.417969 20.746094 12.351562 20.574219 12.34375 Z M 20.257812 12.34375 " fill-opacity="1" fill-rule="nonzero"/><path fill="#000000" d="M 17.453125 14.171875 C 17.535156 14.167969 17.617188 14.152344 17.695312 14.121094 L 17.964844 14.015625 C 18.136719 13.960938 18.261719 13.851562 18.34375 13.691406 C 18.421875 13.527344 18.429688 13.363281 18.367188 13.191406 C 18.304688 13.023438 18.191406 12.902344 18.027344 12.832031 C 17.859375 12.757812 17.695312 12.757812 17.527344 12.828125 L 17.210938 12.953125 C 17.070312 13.011719 16.964844 13.109375 16.894531 13.242188 C 16.824219 13.375 16.800781 13.515625 16.832031 13.664062 C 16.863281 13.8125 16.933594 13.933594 17.050781 14.03125 C 17.167969 14.125 17.304688 14.175781 17.457031 14.171875 Z M 17.453125 14.171875 " fill-opacity="1" fill-rule="nonzero"/><path fill="#000000" d="M 14.011719 22.542969 C 13.957031 22.371094 13.847656 22.246094 13.6875 22.164062 C 13.523438 22.085938 13.359375 22.078125 13.191406 22.140625 C 13.019531 22.203125 12.898438 22.316406 12.828125 22.480469 C 12.757812 22.644531 12.753906 22.8125 12.824219 22.980469 C 12.863281 23.085938 12.90625 23.191406 12.949219 23.296875 C 13.011719 23.460938 13.125 23.578125 13.289062 23.648438 C 13.453125 23.71875 13.617188 23.71875 13.78125 23.652344 C 13.949219 23.582031 14.0625 23.464844 14.128906 23.300781 C 14.195312 23.132812 14.191406 22.96875 14.117188 22.808594 C 14.082031 22.722656 14.046875 22.632812 14.011719 22.542969 Z M 14.011719 22.542969 " fill-opacity="1" fill-rule="nonzero"/><path fill="#000000" d="M 15.097656 15.753906 C 15.273438 15.753906 15.421875 15.691406 15.546875 15.566406 C 15.613281 15.5 15.683594 15.433594 15.757812 15.367188 C 15.878906 15.246094 15.941406 15.101562 15.945312 14.929688 C 15.953125 14.757812 15.894531 14.609375 15.78125 14.484375 C 15.664062 14.359375 15.519531 14.289062 15.347656 14.28125 C 15.175781 14.273438 15.027344 14.324219 14.898438 14.4375 C 14.8125 14.515625 14.730469 14.59375 14.648438 14.675781 C 14.449219 14.875 14.40625 15.105469 14.511719 15.367188 C 14.621094 15.625 14.816406 15.757812 15.097656 15.757812 Z M 15.097656 15.753906 " fill-opacity="1" fill-rule="nonzero"/><path fill="#000000" d="M 17.722656 26.402344 L 17.457031 26.269531 C 17.296875 26.199219 17.136719 26.195312 16.976562 26.253906 C 16.816406 26.316406 16.699219 26.421875 16.625 26.578125 C 16.550781 26.734375 16.542969 26.894531 16.601562 27.058594 C 16.65625 27.21875 16.761719 27.339844 16.917969 27.417969 L 17.234375 27.554688 C 17.386719 27.59375 17.53125 27.582031 17.671875 27.511719 C 17.8125 27.441406 17.914062 27.335938 17.976562 27.191406 C 18.039062 27.046875 18.042969 26.898438 17.996094 26.75 C 17.949219 26.601562 17.859375 26.484375 17.722656 26.402344 Z M 17.722656 26.402344 " fill-opacity="1" fill-rule="nonzero"/><path fill="#000000" d="M 13.925781 16.621094 C 13.765625 16.546875 13.605469 16.539062 13.441406 16.601562 C 13.273438 16.664062 13.15625 16.777344 13.085938 16.9375 C 13.035156 17.039062 12.988281 17.144531 12.945312 17.253906 C 12.851562 17.417969 12.839844 17.59375 12.902344 17.769531 C 12.964844 17.949219 13.085938 18.074219 13.261719 18.148438 C 13.4375 18.21875 13.609375 18.210938 13.78125 18.128906 C 13.949219 18.042969 14.0625 17.90625 14.109375 17.726562 C 14.148438 17.636719 14.1875 17.546875 14.226562 17.457031 C 14.300781 17.300781 14.308594 17.140625 14.25 16.976562 C 14.191406 16.8125 14.082031 16.695312 13.925781 16.621094 Z M 13.925781 16.621094 " fill-opacity="1" fill-rule="nonzero"/><path fill="#000000" d="M 25.144531 15.75 C 25.265625 15.878906 25.414062 15.945312 25.589844 15.949219 C 25.765625 15.957031 25.917969 15.898438 26.042969 15.777344 C 26.171875 15.65625 26.238281 15.507812 26.246094 15.332031 C 26.25 15.15625 26.191406 15.003906 26.070312 14.875 C 25.992188 14.792969 25.914062 14.710938 25.832031 14.628906 C 25.703125 14.507812 25.554688 14.445312 25.378906 14.449219 C 25.203125 14.449219 25.054688 14.515625 24.929688 14.640625 C 24.808594 14.765625 24.746094 14.917969 24.75 15.09375 C 24.75 15.269531 24.816406 15.417969 24.941406 15.539062 Z M 25.144531 15.75 " fill-opacity="1" fill-rule="nonzero"/><path fill="#000000" d="M 26.496094 17.957031 C 26.550781 18.128906 26.65625 18.257812 26.820312 18.335938 C 26.980469 18.414062 27.148438 18.425781 27.316406 18.363281 C 27.488281 18.300781 27.605469 18.183594 27.679688 18.019531 C 27.75 17.855469 27.753906 17.6875 27.683594 17.523438 C 27.640625 17.414062 27.601562 17.308594 27.554688 17.207031 C 27.488281 17.042969 27.371094 16.929688 27.210938 16.863281 C 27.050781 16.796875 26.886719 16.800781 26.726562 16.867188 C 26.566406 16.933594 26.453125 17.050781 26.386719 17.210938 C 26.320312 17.375 26.320312 17.535156 26.386719 17.695312 C 26.425781 17.78125 26.460938 17.867188 26.496094 17.957031 Z M 26.496094 17.957031 " fill-opacity="1" fill-rule="nonzero"/><path fill="#000000" d="M 22.789062 14.105469 L 23.054688 14.222656 C 23.214844 14.296875 23.375 14.300781 23.539062 14.242188 C 23.703125 14.179688 23.820312 14.070312 23.894531 13.910156 C 23.964844 13.75 23.972656 13.589844 23.910156 13.425781 C 23.847656 13.261719 23.738281 13.144531 23.578125 13.070312 L 23.261719 12.933594 C 23.101562 12.867188 22.941406 12.867188 22.777344 12.9375 C 22.617188 13.003906 22.503906 13.121094 22.4375 13.28125 C 22.371094 13.445312 22.375 13.605469 22.441406 13.765625 C 22.511719 13.929688 22.625 14.042969 22.789062 14.105469 Z M 22.789062 14.105469 " fill-opacity="1" fill-rule="nonzero"/><path fill="#000000" d="M 12.34375 20.257812 C 12.34375 20.429688 12.40625 20.582031 12.53125 20.703125 C 12.652344 20.828125 12.800781 20.890625 12.976562 20.890625 C 13.152344 20.890625 13.300781 20.828125 13.425781 20.703125 C 13.546875 20.582031 13.609375 20.429688 13.609375 20.257812 C 13.609375 20.164062 13.609375 20.070312 13.609375 19.976562 C 13.613281 19.804688 13.558594 19.652344 13.4375 19.523438 C 13.316406 19.398438 13.171875 19.332031 12.996094 19.324219 C 12.820312 19.320312 12.671875 19.378906 12.542969 19.5 C 12.414062 19.617188 12.347656 19.765625 12.34375 19.941406 C 12.34375 20.046875 12.34375 20.160156 12.34375 20.257812 Z M 12.34375 20.257812 " fill-opacity="1" fill-rule="nonzero"/><path fill="#000000" d="M 26.902344 20.257812 C 26.902344 20.355469 26.902344 20.449219 26.902344 20.546875 C 26.894531 20.722656 26.949219 20.871094 27.066406 21 C 27.183594 21.128906 27.328125 21.195312 27.5 21.207031 L 27.535156 21.207031 C 27.707031 21.207031 27.851562 21.148438 27.972656 21.03125 C 28.097656 20.914062 28.160156 20.769531 28.167969 20.601562 C 28.167969 20.488281 28.167969 20.371094 28.167969 20.257812 L 28.167969 20.226562 C 28.167969 20.054688 28.109375 19.902344 27.984375 19.78125 C 27.859375 19.65625 27.710938 19.59375 27.535156 19.59375 C 27.355469 19.59375 27.203125 19.660156 27.078125 19.789062 C 26.953125 19.921875 26.894531 20.078125 26.902344 20.257812 Z M 26.902344 20.257812 " fill-opacity="1" fill-rule="nonzero"/><path fill="#000000" d="M 24.957031 24.953125 L 24.746094 25.152344 C 24.625 25.273438 24.558594 25.417969 24.554688 25.589844 C 24.546875 25.761719 24.601562 25.910156 24.71875 26.039062 C 24.835938 26.164062 24.980469 26.234375 25.152344 26.242188 C 25.324219 26.253906 25.472656 26.199219 25.601562 26.085938 C 25.6875 26.007812 25.769531 25.929688 25.851562 25.847656 C 25.976562 25.726562 26.039062 25.578125 26.039062 25.402344 C 26.039062 25.226562 25.976562 25.078125 25.851562 24.953125 C 25.730469 24.828125 25.578125 24.769531 25.40625 24.769531 C 25.230469 24.769531 25.082031 24.828125 24.957031 24.953125 Z M 24.957031 24.953125 " fill-opacity="1" fill-rule="nonzero"/><path fill="#000000" d="M 27.429688 23.597656 C 27.476562 23.496094 27.523438 23.390625 27.566406 23.28125 C 27.636719 23.121094 27.636719 22.960938 27.570312 22.796875 C 27.507812 22.632812 27.394531 22.519531 27.230469 22.449219 C 27.070312 22.382812 26.90625 22.382812 26.746094 22.449219 C 26.582031 22.511719 26.46875 22.628906 26.398438 22.789062 C 26.363281 22.878906 26.324219 22.964844 26.28125 23.054688 C 26.199219 23.214844 26.183594 23.378906 26.242188 23.550781 C 26.300781 23.722656 26.410156 23.847656 26.574219 23.925781 C 26.738281 24 26.90625 24.007812 27.074219 23.941406 C 27.242188 23.875 27.359375 23.757812 27.429688 23.589844 Z M 27.429688 23.597656 " fill-opacity="1" fill-rule="nonzero"/><path fill="#000000" d="M 20.257812 14.875 C 19.902344 14.875 19.554688 14.910156 19.207031 14.980469 C 18.859375 15.046875 18.523438 15.148438 18.199219 15.285156 C 17.871094 15.421875 17.5625 15.585938 17.265625 15.78125 C 16.972656 15.980469 16.703125 16.203125 16.453125 16.453125 C 16.203125 16.703125 15.980469 16.972656 15.78125 17.265625 C 15.585938 17.5625 15.421875 17.871094 15.285156 18.199219 C 15.148438 18.523438 15.046875 18.859375 14.980469 19.207031 C 14.910156 19.554688 14.875 19.902344 14.875 20.257812 C 14.875 20.609375 14.910156 20.960938 14.980469 21.304688 C 15.046875 21.652344 15.148438 21.988281 15.285156 22.316406 C 15.421875 22.640625 15.585938 22.953125 15.78125 23.246094 C 15.980469 23.539062 16.203125 23.8125 16.453125 24.0625 C 16.703125 24.3125 16.972656 24.535156 17.265625 24.730469 C 17.5625 24.925781 17.871094 25.09375 18.199219 25.226562 C 18.523438 25.363281 18.859375 25.464844 19.207031 25.535156 C 19.554688 25.601562 19.902344 25.636719 20.257812 25.636719 C 20.609375 25.636719 20.960938 25.601562 21.304688 25.535156 C 21.652344 25.464844 21.988281 25.363281 22.316406 25.226562 C 22.640625 25.09375 22.953125 24.925781 23.246094 24.730469 C 23.539062 24.535156 23.8125 24.3125 24.0625 24.0625 C 24.3125 23.8125 24.535156 23.539062 24.730469 23.246094 C 24.925781 22.953125 25.09375 22.640625 25.226562 22.316406 C 25.363281 21.988281 25.464844 21.652344 25.535156 21.304688 C 25.601562 20.960938 25.636719 20.609375 25.636719 20.257812 C 25.636719 19.902344 25.601562 19.554688 25.535156 19.207031 C 25.464844 18.859375 25.363281 18.523438 25.226562 18.199219 C 25.09375 17.871094 24.925781 17.5625 24.730469 17.265625 C 24.535156 16.972656 24.3125 16.703125 24.0625 16.453125 C 23.8125 16.203125 23.539062 15.980469 23.246094 15.78125 C 22.953125 15.585938 22.640625 15.421875 22.316406 15.285156 C 21.988281 15.152344 21.652344 15.046875 21.304688 14.980469 C 20.960938 14.910156 20.609375 14.875 20.257812 14.875 Z M 20.257812 24.371094 C 19.988281 24.371094 19.71875 24.34375 19.453125 24.292969 C 19.1875 24.238281 18.933594 24.160156 18.683594 24.058594 C 18.433594 23.953125 18.195312 23.828125 17.972656 23.679688 C 17.746094 23.527344 17.539062 23.355469 17.347656 23.167969 C 17.15625 22.976562 16.984375 22.765625 16.835938 22.542969 C 16.683594 22.316406 16.558594 22.082031 16.457031 21.832031 C 16.351562 21.582031 16.273438 21.324219 16.222656 21.058594 C 16.167969 20.792969 16.140625 20.527344 16.140625 20.257812 C 16.140625 19.988281 16.167969 19.71875 16.222656 19.453125 C 16.273438 19.1875 16.351562 18.933594 16.457031 18.683594 C 16.558594 18.433594 16.683594 18.195312 16.835938 17.972656 C 16.984375 17.746094 17.15625 17.539062 17.347656 17.347656 C 17.539062 17.15625 17.746094 16.984375 17.972656 16.835938 C 18.195312 16.683594 18.433594 16.558594 18.683594 16.457031 C 18.933594 16.351562 19.1875 16.273438 19.453125 16.222656 C 19.71875 16.167969 19.988281 16.140625 20.257812 16.140625 C 20.527344 16.140625 20.792969 16.167969 21.058594 16.222656 C 21.324219 16.273438 21.582031 16.351562 21.832031 16.457031 C 22.082031 16.558594 22.316406 16.683594 22.542969 16.835938 C 22.765625 16.984375 22.976562 17.15625 23.167969 17.347656 C 23.355469 17.539062 23.527344 17.746094 23.679688 17.972656 C 23.828125 18.195312 23.953125 18.433594 24.058594 18.683594 C 24.160156 18.933594 24.238281 19.1875 24.292969 19.453125 C 24.34375 19.71875 24.371094 19.988281 24.371094 20.257812 C 24.371094 20.527344 24.34375 20.792969 24.292969 21.058594 C 24.238281 21.324219 24.160156 21.582031 24.058594 21.832031 C 23.953125 22.082031 23.828125 22.316406 23.679688 22.542969 C 23.527344 22.765625 23.355469 22.976562 23.167969 23.167969 C 22.976562 23.355469 22.765625 23.527344 22.542969 23.679688 C 22.316406 23.828125 22.082031 23.953125 21.832031 24.058594 C 21.582031 24.160156 21.324219 24.238281 21.058594 24.292969 C 20.792969 24.34375 20.527344 24.371094 20.257812 24.371094 Z M 20.257812 24.371094 " fill-opacity="1" fill-rule="nonzero"/><path fill="#000000" d="M 20.257812 17.40625 C 19.878906 17.40625 19.515625 17.480469 19.167969 17.625 C 18.816406 17.769531 18.507812 17.976562 18.242188 18.242188 C 17.976562 18.507812 17.769531 18.816406 17.625 19.167969 C 17.480469 19.515625 17.40625 19.878906 17.40625 20.257812 C 17.40625 20.632812 17.480469 20.996094 17.625 21.347656 C 17.769531 21.695312 17.976562 22.003906 18.242188 22.269531 C 18.507812 22.539062 18.816406 22.742188 19.167969 22.886719 C 19.515625 23.03125 19.878906 23.105469 20.257812 23.105469 C 20.632812 23.105469 20.996094 23.03125 21.347656 22.886719 C 21.695312 22.742188 22.003906 22.539062 22.269531 22.269531 C 22.539062 22.003906 22.742188 21.695312 22.886719 21.347656 C 23.03125 20.996094 23.105469 20.632812 23.105469 20.257812 C 23.105469 19.878906 23.03125 19.515625 22.886719 19.167969 C 22.742188 18.816406 22.539062 18.507812 22.269531 18.242188 C 22.003906 17.976562 21.695312 17.769531 21.347656 17.625 C 20.996094 17.480469 20.632812 17.40625 20.257812 17.40625 Z M 20.257812 21.839844 C 20.046875 21.839844 19.84375 21.800781 19.652344 21.71875 C 19.457031 21.636719 19.285156 21.523438 19.136719 21.375 C 18.988281 21.226562 18.875 21.054688 18.792969 20.863281 C 18.714844 20.667969 18.675781 20.464844 18.675781 20.257812 C 18.675781 20.046875 18.714844 19.84375 18.792969 19.652344 C 18.875 19.457031 18.988281 19.285156 19.136719 19.136719 C 19.285156 18.988281 19.457031 18.875 19.652344 18.792969 C 19.84375 18.714844 20.046875 18.675781 20.257812 18.675781 C 20.464844 18.675781 20.667969 18.714844 20.863281 18.792969 C 21.054688 18.875 21.226562 18.988281 21.375 19.136719 C 21.523438 19.285156 21.636719 19.457031 21.71875 19.652344 C 21.800781 19.84375 21.839844 20.046875 21.839844 20.257812 C 21.839844 20.464844 21.800781 20.667969 21.71875 20.863281 C 21.636719 21.054688 21.523438 21.226562 21.375 21.375 C 21.226562 21.523438 21.054688 21.636719 20.863281 21.71875 C 20.667969 21.800781 20.464844 21.839844 20.257812 21.839844 Z M 20.257812 21.839844 " fill-opacity="1" fill-rule="nonzero"/><path fill="#000000" d="M 20.890625 20.257812 C 20.890625 20.429688 20.828125 20.582031 20.703125 20.703125 C 20.582031 20.828125 20.429688 20.890625 20.257812 20.890625 C 20.082031 20.890625 19.933594 20.828125 19.808594 20.703125 C 19.683594 20.582031 19.625 20.429688 19.625 20.257812 C 19.625 20.082031 19.683594 19.933594 19.808594 19.808594 C 19.933594 19.683594 20.082031 19.625 20.257812 19.625 C 20.429688 19.625 20.582031 19.683594 20.703125 19.808594 C 20.828125 19.933594 20.890625 20.082031 20.890625 20.257812 Z M 20.890625 20.257812 " fill-opacity="1" fill-rule="nonzero"/><path fill="#000000" d="M 19.730469 10.484375 C 19.789062 10.570312 19.867188 10.640625 19.960938 10.6875 C 20.050781 10.738281 20.152344 10.761719 20.257812 10.761719 C 20.363281 10.761719 20.460938 10.738281 20.554688 10.6875 C 20.648438 10.640625 20.722656 10.570312 20.78125 10.484375 L 22.363281 8.132812 C 22.464844 7.984375 22.5 7.828125 22.46875 7.652344 C 22.433594 7.480469 22.34375 7.34375 22.199219 7.242188 C 22.050781 7.144531 21.890625 7.113281 21.71875 7.148438 C 21.542969 7.183594 21.410156 7.277344 21.3125 7.425781 L 20.890625 8.058594 L 20.890625 3.164062 C 20.890625 2.992188 20.828125 2.839844 20.703125 2.71875 C 20.582031 2.59375 20.429688 2.53125 20.257812 2.53125 C 20.082031 2.53125 19.933594 2.59375 19.808594 2.71875 C 19.683594 2.839844 19.625 2.992188 19.625 3.164062 L 19.625 8.054688 L 19.199219 7.421875 C 19.101562 7.273438 18.96875 7.179688 18.796875 7.144531 C 18.621094 7.109375 18.460938 7.140625 18.316406 7.242188 C 18.167969 7.339844 18.078125 7.476562 18.046875 7.648438 C 18.011719 7.824219 18.046875 7.984375 18.148438 8.128906 Z M 19.730469 10.484375 " fill-opacity="1" fill-rule="nonzero"/><path fill="#000000" d="M 20.890625 0.632812 C 20.890625 0.808594 20.828125 0.957031 20.703125 1.082031 C 20.582031 1.203125 20.429688 1.265625 20.257812 1.265625 C 20.082031 1.265625 19.933594 1.203125 19.808594 1.082031 C 19.683594 0.957031 19.625 0.808594 19.625 0.632812 C 19.625 0.457031 19.683594 0.308594 19.808594 0.183594 C 19.933594 0.0625 20.082031 0 20.257812 0 C 20.429688 0 20.582031 0.0625 20.703125 0.183594 C 20.828125 0.308594 20.890625 0.457031 20.890625 0.632812 Z M 20.890625 0.632812 " fill-opacity="1" fill-rule="nonzero"/><path fill="#000000" d="M 20.78125 30.03125 C 20.722656 29.941406 20.648438 29.875 20.554688 29.824219 C 20.460938 29.773438 20.363281 29.75 20.257812 29.75 C 20.152344 29.75 20.050781 29.773438 19.960938 29.824219 C 19.867188 29.875 19.789062 29.941406 19.730469 30.03125 L 18.148438 32.382812 C 18.046875 32.527344 18.011719 32.6875 18.046875 32.859375 C 18.078125 33.035156 18.167969 33.171875 18.316406 33.269531 C 18.460938 33.367188 18.621094 33.398438 18.796875 33.363281 C 18.96875 33.328125 19.101562 33.238281 19.199219 33.089844 L 19.625 32.453125 L 19.625 37.347656 C 19.625 37.523438 19.6875 37.671875 19.808594 37.796875 C 19.933594 37.917969 20.082031 37.980469 20.257812 37.980469 C 20.429688 37.980469 20.582031 37.917969 20.703125 37.796875 C 20.828125 37.671875 20.890625 37.523438 20.890625 37.347656 L 20.890625 32.457031 L 21.3125 33.089844 C 21.410156 33.238281 21.542969 33.332031 21.71875 33.367188 C 21.890625 33.402344 22.050781 33.371094 22.199219 33.273438 C 22.34375 33.175781 22.433594 33.039062 22.46875 32.863281 C 22.5 32.691406 22.464844 32.53125 22.363281 32.386719 Z M 20.78125 30.03125 " fill-opacity="1" fill-rule="nonzero"/><g clip-path="url(#97cf704f06)"><path fill="#000000" d="M 20.890625 39.878906 C 20.890625 40.054688 20.828125 40.203125 20.703125 40.328125 C 20.582031 40.453125 20.429688 40.511719 20.257812 40.511719 C 20.082031 40.511719 19.933594 40.453125 19.808594 40.328125 C 19.683594 40.203125 19.625 40.054688 19.625 39.878906 C 19.625 39.707031 19.683594 39.554688 19.808594 39.433594 C 19.933594 39.308594 20.082031 39.246094 20.257812 39.246094 C 20.429688 39.246094 20.582031 39.308594 20.703125 39.433594 C 20.828125 39.554688 20.890625 39.707031 20.890625 39.878906 Z M 20.890625 39.878906 " fill-opacity="1" fill-rule="nonzero"/></g><path fill="#000000" d="M 37.347656 19.625 L 32.457031 19.625 L 33.089844 19.199219 C 33.238281 19.101562 33.332031 18.96875 33.367188 18.796875 C 33.402344 18.621094 33.371094 18.460938 33.273438 18.316406 C 33.175781 18.167969 33.039062 18.078125 32.863281 18.046875 C 32.691406 18.011719 32.53125 18.046875 32.386719 18.148438 L 30.035156 19.730469 C 29.945312 19.789062 29.878906 19.867188 29.828125 19.960938 C 29.777344 20.050781 29.753906 20.152344 29.753906 20.257812 C 29.753906 20.363281 29.777344 20.460938 29.828125 20.554688 C 29.878906 20.648438 29.945312 20.722656 30.035156 20.78125 L 32.386719 22.363281 C 32.53125 22.464844 32.691406 22.5 32.863281 22.46875 C 33.039062 22.433594 33.175781 22.34375 33.273438 22.199219 C 33.371094 22.050781 33.402344 21.890625 33.367188 21.71875 C 33.332031 21.542969 33.238281 21.410156 33.089844 21.3125 L 32.457031 20.890625 L 37.347656 20.890625 C 37.523438 20.890625 37.671875 20.828125 37.796875 20.703125 C 37.917969 20.582031 37.980469 20.429688 37.980469 20.257812 C 37.980469 20.082031 37.917969 19.933594 37.796875 19.808594 C 37.671875 19.683594 37.523438 19.625 37.347656 19.625 Z M 37.347656 19.625 " fill-opacity="1" fill-rule="nonzero"/><g clip-path="url(#e265946a10)"><path fill="#000000" d="M 40.511719 20.257812 C 40.511719 20.429688 40.453125 20.582031 40.328125 20.703125 C 40.203125 20.828125 40.054688 20.890625 39.878906 20.890625 C 39.707031 20.890625 39.554688 20.828125 39.433594 20.703125 C 39.308594 20.582031 39.246094 20.429688 39.246094 20.257812 C 39.246094 20.082031 39.308594 19.933594 39.433594 19.808594 C 39.554688 19.683594 39.707031 19.625 39.878906 19.625 C 40.054688 19.625 40.203125 19.683594 40.328125 19.808594 C 40.453125 19.933594 40.511719 20.082031 40.511719 20.257812 Z M 40.511719 20.257812 " fill-opacity="1" fill-rule="nonzero"/></g><path fill="#000000" d="M 8.132812 22.363281 L 10.484375 20.78125 C 10.570312 20.722656 10.640625 20.648438 10.6875 20.554688 C 10.738281 20.460938 10.761719 20.363281 10.761719 20.257812 C 10.761719 20.152344 10.738281 20.050781 10.6875 19.960938 C 10.640625 19.867188 10.570312 19.789062 10.484375 19.730469 L 8.132812 18.148438 C 7.984375 18.054688 7.828125 18.023438 7.660156 18.058594 C 7.492188 18.09375 7.359375 18.183594 7.261719 18.328125 C 7.164062 18.46875 7.132812 18.628906 7.164062 18.796875 C 7.195312 18.964844 7.285156 19.101562 7.425781 19.199219 L 8.058594 19.625 L 3.164062 19.625 C 2.992188 19.625 2.839844 19.6875 2.71875 19.808594 C 2.59375 19.933594 2.53125 20.082031 2.53125 20.257812 C 2.53125 20.429688 2.59375 20.582031 2.71875 20.703125 C 2.839844 20.828125 2.992188 20.890625 3.164062 20.890625 L 8.054688 20.890625 L 7.421875 21.3125 C 7.28125 21.414062 7.195312 21.546875 7.160156 21.714844 C 7.128906 21.886719 7.164062 22.042969 7.257812 22.1875 C 7.355469 22.328125 7.488281 22.417969 7.65625 22.453125 C 7.824219 22.488281 7.984375 22.457031 8.128906 22.363281 Z M 8.132812 22.363281 " fill-opacity="1" fill-rule="nonzero"/><path fill="#000000" d="M 1.265625 20.257812 C 1.265625 20.429688 1.203125 20.582031 1.082031 20.703125 C 0.957031 20.828125 0.808594 20.890625 0.632812 20.890625 C 0.457031 20.890625 0.308594 20.828125 0.183594 20.703125 C 0.0625 20.582031 0 20.429688 0 20.257812 C 0 20.082031 0.0625 19.933594 0.183594 19.808594 C 0.308594 19.683594 0.457031 19.625 0.632812 19.625 C 0.808594 19.625 0.957031 19.683594 1.082031 19.808594 C 1.203125 19.933594 1.265625 20.082031 1.265625 20.257812 Z M 1.265625 20.257812 " fill-opacity="1" fill-rule="nonzero"/><path fill="#000000" d="M 29.332031 28.4375 L 30.078125 28.585938 C 30.25 28.617188 30.410156 28.585938 30.554688 28.488281 C 30.699219 28.390625 30.789062 28.257812 30.824219 28.085938 C 30.855469 27.914062 30.824219 27.753906 30.726562 27.609375 C 30.628906 27.464844 30.492188 27.375 30.320312 27.339844 L 27.535156 26.796875 C 27.433594 26.777344 27.332031 26.78125 27.230469 26.8125 C 27.132812 26.84375 27.042969 26.894531 26.96875 26.96875 C 26.894531 27.042969 26.84375 27.132812 26.8125 27.230469 C 26.78125 27.332031 26.777344 27.433594 26.796875 27.535156 L 27.339844 30.320312 C 27.375 30.492188 27.464844 30.625 27.609375 30.722656 C 27.757812 30.820312 27.914062 30.851562 28.085938 30.816406 C 28.257812 30.78125 28.394531 30.691406 28.492188 30.546875 C 28.585938 30.398438 28.617188 30.242188 28.585938 30.070312 L 28.4375 29.320312 L 31.894531 32.777344 C 32.019531 32.902344 32.167969 32.964844 32.34375 32.964844 C 32.519531 32.964844 32.667969 32.902344 32.792969 32.777344 C 32.914062 32.65625 32.976562 32.503906 32.976562 32.332031 C 32.976562 32.15625 32.914062 32.003906 32.789062 31.882812 Z M 29.332031 28.4375 " fill-opacity="1" fill-rule="nonzero"/><path fill="#000000" d="M 34.578125 33.683594 C 34.703125 33.808594 34.765625 33.957031 34.765625 34.132812 C 34.765625 34.308594 34.703125 34.457031 34.578125 34.582031 C 34.457031 34.703125 34.308594 34.765625 34.132812 34.765625 C 33.957031 34.765625 33.808594 34.703125 33.683594 34.582031 C 33.5625 34.457031 33.5 34.308594 33.5 34.132812 C 33.5 33.957031 33.5625 33.808594 33.683594 33.683594 C 33.808594 33.5625 33.957031 33.5 34.132812 33.5 C 34.308594 33.5 34.457031 33.5625 34.578125 33.683594 Z M 34.578125 33.683594 " fill-opacity="1" fill-rule="nonzero"/><path fill="#000000" d="M 11.183594 12.074219 L 10.445312 11.929688 C 10.273438 11.894531 10.113281 11.925781 9.96875 12.023438 C 9.824219 12.121094 9.734375 12.257812 9.699219 12.429688 C 9.667969 12.601562 9.699219 12.757812 9.796875 12.90625 C 9.894531 13.050781 10.03125 13.140625 10.199219 13.171875 L 12.976562 13.71875 C 13.015625 13.722656 13.058594 13.722656 13.097656 13.71875 C 13.191406 13.71875 13.285156 13.699219 13.371094 13.660156 C 13.457031 13.621094 13.53125 13.566406 13.59375 13.492188 C 13.65625 13.417969 13.699219 13.335938 13.722656 13.242188 C 13.746094 13.152344 13.75 13.058594 13.730469 12.964844 L 13.171875 10.191406 C 13.140625 10.019531 13.050781 9.886719 12.90625 9.789062 C 12.757812 9.691406 12.601562 9.65625 12.429688 9.691406 C 12.257812 9.726562 12.121094 9.816406 12.023438 9.960938 C 11.925781 10.105469 11.894531 10.261719 11.929688 10.433594 L 12.074219 11.183594 L 8.617188 7.722656 C 8.496094 7.597656 8.34375 7.539062 8.171875 7.539062 C 7.996094 7.539062 7.847656 7.597656 7.722656 7.722656 C 7.597656 7.847656 7.539062 7.996094 7.539062 8.171875 C 7.539062 8.34375 7.597656 8.496094 7.722656 8.617188 Z M 11.183594 12.074219 " fill-opacity="1" fill-rule="nonzero"/><path fill="#000000" d="M 6.828125 5.933594 C 6.953125 6.058594 7.015625 6.207031 7.015625 6.382812 C 7.015625 6.554688 6.953125 6.703125 6.828125 6.828125 C 6.703125 6.953125 6.554688 7.015625 6.378906 7.015625 C 6.207031 7.015625 6.058594 6.953125 5.933594 6.828125 C 5.808594 6.703125 5.746094 6.554688 5.746094 6.382812 C 5.746094 6.207031 5.808594 6.058594 5.933594 5.933594 C 6.058594 5.808594 6.207031 5.746094 6.378906 5.746094 C 6.554688 5.746094 6.703125 5.808594 6.828125 5.933594 Z M 6.828125 5.933594 " fill-opacity="1" fill-rule="nonzero"/><path fill="#000000" d="M 12.976562 26.796875 L 10.191406 27.339844 C 10.019531 27.375 9.886719 27.464844 9.789062 27.613281 C 9.691406 27.757812 9.660156 27.917969 9.695312 28.089844 C 9.730469 28.261719 9.820312 28.394531 9.96875 28.492188 C 10.113281 28.589844 10.273438 28.617188 10.445312 28.585938 L 11.191406 28.4375 L 7.722656 31.894531 C 7.597656 32.019531 7.539062 32.167969 7.539062 32.34375 C 7.539062 32.515625 7.597656 32.667969 7.722656 32.789062 C 7.847656 32.914062 7.996094 32.976562 8.171875 32.976562 C 8.34375 32.976562 8.496094 32.914062 8.617188 32.789062 L 12.074219 29.332031 L 11.929688 30.070312 C 11.894531 30.242188 11.925781 30.398438 12.023438 30.542969 C 12.121094 30.691406 12.257812 30.777344 12.429688 30.8125 C 12.601562 30.847656 12.757812 30.8125 12.90625 30.714844 C 13.050781 30.617188 13.140625 30.484375 13.171875 30.3125 L 13.71875 27.535156 C 13.738281 27.433594 13.730469 27.332031 13.699219 27.230469 C 13.671875 27.132812 13.617188 27.042969 13.542969 26.96875 C 13.46875 26.894531 13.382812 26.84375 13.28125 26.8125 C 13.179688 26.78125 13.078125 26.777344 12.976562 26.796875 Z M 12.976562 26.796875 " fill-opacity="1" fill-rule="nonzero"/><path fill="#000000" d="M 6.828125 33.683594 C 6.953125 33.808594 7.015625 33.957031 7.015625 34.132812 C 7.015625 34.308594 6.953125 34.457031 6.828125 34.578125 C 6.703125 34.703125 6.554688 34.765625 6.378906 34.765625 C 6.207031 34.765625 6.058594 34.703125 5.933594 34.578125 C 5.808594 34.457031 5.746094 34.308594 5.746094 34.132812 C 5.746094 33.957031 5.808594 33.808594 5.933594 33.683594 C 6.058594 33.5625 6.207031 33.5 6.378906 33.5 C 6.554688 33.5 6.703125 33.5625 6.828125 33.683594 Z M 6.828125 33.683594 " fill-opacity="1" fill-rule="nonzero"/><path fill="#000000" d="M 27.417969 13.726562 C 27.460938 13.730469 27.5 13.730469 27.539062 13.726562 L 30.320312 13.183594 C 30.496094 13.148438 30.628906 13.058594 30.726562 12.910156 C 30.824219 12.761719 30.855469 12.601562 30.824219 12.429688 C 30.789062 12.257812 30.695312 12.121094 30.550781 12.023438 C 30.402344 11.925781 30.242188 11.894531 30.070312 11.929688 L 29.320312 12.074219 L 32.789062 8.617188 C 32.914062 8.496094 32.976562 8.34375 32.976562 8.171875 C 32.976562 7.996094 32.914062 7.847656 32.789062 7.722656 C 32.667969 7.597656 32.515625 7.539062 32.34375 7.539062 C 32.167969 7.539062 32.019531 7.597656 31.894531 7.722656 L 28.4375 11.183594 L 28.585938 10.445312 C 28.617188 10.273438 28.585938 10.113281 28.488281 9.96875 C 28.390625 9.824219 28.253906 9.734375 28.085938 9.699219 C 27.914062 9.667969 27.753906 9.699219 27.609375 9.796875 C 27.464844 9.894531 27.375 10.03125 27.339844 10.199219 L 26.796875 12.976562 C 26.777344 13.070312 26.78125 13.164062 26.804688 13.257812 C 26.828125 13.347656 26.871094 13.429688 26.933594 13.503906 C 26.992188 13.578125 27.066406 13.632812 27.15625 13.671875 C 27.242188 13.714844 27.332031 13.730469 27.429688 13.730469 Z M 27.417969 13.726562 " fill-opacity="1" fill-rule="nonzero"/><path fill="#000000" d="M 34.582031 5.933594 C 34.703125 6.058594 34.765625 6.207031 34.765625 6.382812 C 34.765625 6.554688 34.703125 6.703125 34.582031 6.828125 C 34.457031 6.953125 34.308594 7.015625 34.132812 7.015625 C 33.957031 7.015625 33.808594 6.953125 33.683594 6.828125 C 33.5625 6.703125 33.5 6.554688 33.5 6.382812 C 33.5 6.207031 33.5625 6.058594 33.683594 5.933594 C 33.808594 5.808594 33.957031 5.746094 34.132812 5.746094 C 34.308594 5.746094 34.457031 5.808594 34.582031 5.933594 Z M 34.582031 5.933594 " fill-opacity="1" fill-rule="nonzero"/></svg>