<svg xmlns="http://www.w3.org/2000/svg" xmlns:xlink="http://www.w3.org/1999/xlink" width="55" zoomAndPan="magnify" viewBox="0 0 41.25 41.250001" height="55" preserveAspectRatio="xMidYMid meet" version="1.0"><defs><clipPath id="cd939be8e7"><path d="M 0 0.378906 L 40.511719 0.378906 L 40.511719 40.15625 L 0 40.15625 Z M 0 0.378906 " clip-rule="nonzero"/></clipPath></defs><path fill="#000000" d="M 19.332031 36.058594 C 19.332031 35.933594 19.234375 35.808594 19.082031 35.808594 L 13.140625 35.808594 C 13.015625 35.808594 12.890625 35.910156 12.890625 36.058594 C 12.890625 36.183594 12.988281 36.308594 13.140625 36.308594 L 19.082031 36.308594 C 19.207031 36.308594 19.332031 36.183594 19.332031 36.058594 Z M 19.332031 36.058594 " fill-opacity="1" fill-rule="nonzero"/><path fill="#000000" d="M 21.253906 36.058594 C 21.253906 35.933594 21.15625 35.808594 21.003906 35.808594 L 20.03125 35.808594 C 19.90625 35.808594 19.78125 35.910156 19.78125 36.058594 C 19.78125 36.183594 19.882812 36.308594 20.03125 36.308594 L 21.003906 36.308594 C 21.15625 36.308594 21.253906 36.183594 21.253906 36.058594 Z M 21.253906 36.058594 " fill-opacity="1" fill-rule="nonzero"/><path fill="#000000" d="M 21.855469 36.308594 L 22.503906 36.308594 C 22.628906 36.308594 22.753906 36.207031 22.753906 36.058594 C 22.753906 35.933594 22.652344 35.808594 22.503906 35.808594 L 21.855469 35.808594 C 21.730469 35.808594 21.605469 35.910156 21.605469 36.058594 C 21.605469 36.183594 21.703125 36.308594 21.855469 36.308594 Z M 21.855469 36.308594 " fill-opacity="1" fill-rule="nonzero"/><path fill="#000000" d="M 26.648438 37.007812 L 20.707031 37.007812 C 20.582031 37.007812 20.457031 37.109375 20.457031 37.257812 C 20.457031 37.382812 20.554688 37.507812 20.707031 37.507812 L 26.648438 37.507812 C 26.773438 37.507812 26.898438 37.410156 26.898438 37.257812 C 26.898438 37.132812 26.773438 37.007812 26.648438 37.007812 Z M 26.648438 37.007812 " fill-opacity="1" fill-rule="nonzero"/><path fill="#000000" d="M 19.757812 37.007812 L 18.785156 37.007812 C 18.660156 37.007812 18.535156 37.109375 18.535156 37.257812 C 18.535156 37.382812 18.632812 37.507812 18.785156 37.507812 L 19.757812 37.507812 C 19.882812 37.507812 20.007812 37.410156 20.007812 37.257812 C 20.007812 37.132812 19.882812 37.007812 19.757812 37.007812 Z M 19.757812 37.007812 " fill-opacity="1" fill-rule="nonzero"/><path fill="#000000" d="M 17.933594 37.007812 L 17.285156 37.007812 C 17.160156 37.007812 17.035156 37.109375 17.035156 37.257812 C 17.035156 37.382812 17.136719 37.507812 17.285156 37.507812 L 17.933594 37.507812 C 18.058594 37.507812 18.183594 37.410156 18.183594 37.257812 C 18.183594 37.132812 18.085938 37.007812 17.933594 37.007812 Z M 17.933594 37.007812 " fill-opacity="1" fill-rule="nonzero"/><path fill="#000000" d="M 10.144531 24.664062 C 10.144531 22.792969 8.621094 21.269531 6.746094 21.269531 C 4.875 21.269531 3.351562 22.765625 3.351562 24.664062 C 3.351562 26.539062 4.875 28.0625 6.746094 28.0625 C 8.621094 28.0625 10.144531 26.539062 10.144531 24.664062 Z M 6.746094 27.5625 C 5.148438 27.5625 3.824219 26.265625 3.824219 24.640625 C 3.824219 23.042969 5.125 21.71875 6.746094 21.71875 C 8.371094 21.71875 9.667969 23.015625 9.667969 24.640625 C 9.644531 26.265625 8.34375 27.5625 6.746094 27.5625 Z M 6.746094 27.5625 " fill-opacity="1" fill-rule="nonzero"/><path fill="#000000" d="M 6.746094 24.066406 C 7.246094 24.066406 7.644531 23.667969 7.644531 23.167969 C 7.644531 22.667969 7.246094 22.265625 6.746094 22.265625 C 6.246094 22.265625 5.847656 22.667969 5.847656 23.167969 C 5.847656 23.667969 6.246094 24.066406 6.746094 24.066406 Z M 6.746094 22.765625 C 6.972656 22.765625 7.148438 22.941406 7.148438 23.167969 C 7.148438 23.390625 6.972656 23.566406 6.746094 23.566406 C 6.523438 23.566406 6.347656 23.390625 6.347656 23.167969 C 6.347656 22.964844 6.523438 22.765625 6.746094 22.765625 Z M 6.746094 22.765625 " fill-opacity="1" fill-rule="nonzero"/><path fill="#000000" d="M 6.746094 25.242188 C 6.246094 25.242188 5.847656 25.640625 5.847656 26.140625 C 5.847656 26.640625 6.246094 27.039062 6.746094 27.039062 C 7.246094 27.039062 7.644531 26.640625 7.644531 26.140625 C 7.644531 25.640625 7.222656 25.242188 6.746094 25.242188 Z M 6.746094 26.539062 C 6.523438 26.539062 6.347656 26.363281 6.347656 26.140625 C 6.347656 25.914062 6.523438 25.738281 6.746094 25.738281 C 6.972656 25.738281 7.148438 25.914062 7.148438 26.140625 C 7.148438 26.339844 6.972656 26.539062 6.746094 26.539062 Z M 6.746094 26.539062 " fill-opacity="1" fill-rule="nonzero"/><path fill="#000000" d="M 8.21875 23.765625 C 7.722656 23.765625 7.320312 24.164062 7.320312 24.664062 C 7.320312 25.164062 7.722656 25.566406 8.21875 25.566406 C 8.71875 25.566406 9.121094 25.164062 9.121094 24.664062 C 9.121094 24.164062 8.695312 23.765625 8.21875 23.765625 Z M 8.21875 25.066406 C 7.996094 25.066406 7.820312 24.890625 7.820312 24.664062 C 7.820312 24.441406 7.996094 24.265625 8.21875 24.265625 C 8.445312 24.265625 8.621094 24.441406 8.621094 24.664062 C 8.621094 24.867188 8.445312 25.066406 8.21875 25.066406 Z M 8.21875 25.066406 " fill-opacity="1" fill-rule="nonzero"/><path fill="#000000" d="M 6.148438 24.664062 C 6.148438 24.164062 5.75 23.765625 5.25 23.765625 C 4.75 23.765625 4.351562 24.164062 4.351562 24.664062 C 4.351562 25.164062 4.75 25.566406 5.25 25.566406 C 5.75 25.566406 6.148438 25.140625 6.148438 24.664062 Z M 5.273438 25.066406 C 5.050781 25.066406 4.875 24.890625 4.875 24.664062 C 4.875 24.441406 5.050781 24.265625 5.273438 24.265625 C 5.5 24.265625 5.671875 24.441406 5.671875 24.664062 C 5.671875 24.867188 5.472656 25.066406 5.273438 25.066406 Z M 5.273438 25.066406 " fill-opacity="1" fill-rule="nonzero"/><path fill="#000000" d="M 19.53125 28.0625 C 21.40625 28.0625 22.929688 26.539062 22.929688 24.664062 C 22.929688 22.792969 21.40625 21.269531 19.53125 21.269531 C 17.660156 21.269531 16.136719 22.792969 16.136719 24.664062 C 16.136719 26.539062 17.660156 28.0625 19.53125 28.0625 Z M 19.53125 21.742188 C 21.128906 21.742188 22.453125 23.042969 22.453125 24.664062 C 22.453125 26.265625 21.15625 27.589844 19.53125 27.589844 C 17.933594 27.589844 16.609375 26.289062 16.609375 24.664062 C 16.609375 23.042969 17.933594 21.742188 19.53125 21.742188 Z M 19.53125 21.742188 " fill-opacity="1" fill-rule="nonzero"/><path fill="#000000" d="M 17.710938 25.464844 L 18.707031 25.464844 L 18.707031 26.464844 C 18.707031 26.589844 18.808594 26.714844 18.957031 26.714844 L 20.105469 26.714844 C 20.230469 26.714844 20.355469 26.613281 20.355469 26.464844 L 20.355469 25.464844 L 21.355469 25.464844 C 21.480469 25.464844 21.605469 25.367188 21.605469 25.214844 L 21.605469 24.066406 C 21.605469 23.941406 21.503906 23.816406 21.355469 23.816406 L 20.355469 23.816406 L 20.355469 22.816406 C 20.355469 22.691406 20.257812 22.566406 20.105469 22.566406 L 18.957031 22.566406 C 18.832031 22.566406 18.707031 22.667969 18.707031 22.816406 L 18.707031 23.816406 L 17.710938 23.816406 C 17.585938 23.816406 17.460938 23.917969 17.460938 24.066406 L 17.460938 25.214844 C 17.460938 25.367188 17.585938 25.464844 17.710938 25.464844 Z M 17.960938 24.316406 L 18.957031 24.316406 C 19.082031 24.316406 19.207031 24.214844 19.207031 24.066406 L 19.207031 23.066406 L 19.855469 23.066406 L 19.855469 24.066406 C 19.855469 24.191406 19.957031 24.316406 20.105469 24.316406 L 21.105469 24.316406 L 21.105469 24.964844 L 20.105469 24.964844 C 19.980469 24.964844 19.855469 25.066406 19.855469 25.214844 L 19.855469 26.214844 L 19.207031 26.214844 L 19.207031 25.214844 C 19.207031 25.089844 19.109375 24.964844 18.957031 24.964844 L 17.960938 24.964844 Z M 17.960938 24.316406 " fill-opacity="1" fill-rule="nonzero"/><path fill="#000000" d="M 14.1875 25.566406 C 14.6875 25.566406 15.085938 25.164062 15.085938 24.664062 C 15.085938 24.164062 14.6875 23.765625 14.1875 23.765625 C 13.6875 23.765625 13.289062 24.164062 13.289062 24.664062 C 13.289062 25.164062 13.6875 25.566406 14.1875 25.566406 Z M 14.1875 24.242188 C 14.414062 24.242188 14.613281 24.414062 14.613281 24.664062 C 14.613281 24.890625 14.4375 25.089844 14.1875 25.089844 C 13.964844 25.089844 13.765625 24.914062 13.765625 24.664062 C 13.765625 24.414062 13.964844 24.242188 14.1875 24.242188 Z M 14.1875 24.242188 " fill-opacity="1" fill-rule="nonzero"/><path fill="#000000" d="M 12.089844 25.566406 C 12.589844 25.566406 12.988281 25.164062 12.988281 24.664062 C 12.988281 24.164062 12.589844 23.765625 12.089844 23.765625 C 11.589844 23.765625 11.191406 24.164062 11.191406 24.664062 C 11.191406 25.164062 11.589844 25.566406 12.089844 25.566406 Z M 12.089844 24.242188 C 12.316406 24.242188 12.515625 24.414062 12.515625 24.664062 C 12.515625 24.890625 12.339844 25.089844 12.089844 25.089844 C 11.867188 25.089844 11.667969 24.914062 11.667969 24.664062 C 11.667969 24.414062 11.867188 24.242188 12.089844 24.242188 Z M 12.089844 24.242188 " fill-opacity="1" fill-rule="nonzero"/><path fill="#000000" d="M 17.535156 1.128906 C 17.136719 1.128906 16.785156 1.453125 16.785156 1.878906 C 16.785156 2.277344 17.109375 2.628906 17.535156 2.628906 C 17.933594 2.628906 18.285156 2.304688 18.285156 1.878906 C 18.285156 1.480469 17.960938 1.128906 17.535156 1.128906 Z M 17.535156 2.128906 C 17.386719 2.128906 17.285156 2.003906 17.285156 1.878906 C 17.285156 1.753906 17.410156 1.628906 17.535156 1.628906 C 17.683594 1.628906 17.785156 1.753906 17.785156 1.878906 C 17.785156 2.003906 17.683594 2.128906 17.535156 2.128906 Z M 17.535156 2.128906 " fill-opacity="1" fill-rule="nonzero"/><path fill="#000000" d="M 19.507812 1.128906 C 19.109375 1.128906 18.757812 1.453125 18.757812 1.878906 C 18.757812 2.277344 19.082031 2.628906 19.507812 2.628906 C 19.90625 2.628906 20.257812 2.304688 20.257812 1.878906 C 20.257812 1.480469 19.90625 1.128906 19.507812 1.128906 Z M 19.507812 2.128906 C 19.359375 2.128906 19.257812 2.003906 19.257812 1.878906 C 19.257812 1.753906 19.382812 1.628906 19.507812 1.628906 C 19.65625 1.628906 19.757812 1.753906 19.757812 1.878906 C 19.757812 2.003906 19.632812 2.128906 19.507812 2.128906 Z M 19.507812 2.128906 " fill-opacity="1" fill-rule="nonzero"/><path fill="#000000" d="M 21.457031 1.128906 C 21.054688 1.128906 20.707031 1.453125 20.707031 1.878906 C 20.707031 2.277344 21.03125 2.628906 21.457031 2.628906 C 21.855469 2.628906 22.203125 2.304688 22.203125 1.878906 C 22.203125 1.480469 21.878906 1.128906 21.457031 1.128906 Z M 21.457031 2.128906 C 21.304688 2.128906 21.207031 2.003906 21.207031 1.878906 C 21.207031 1.753906 21.332031 1.628906 21.457031 1.628906 C 21.605469 1.628906 21.703125 1.753906 21.703125 1.878906 C 21.703125 2.003906 21.605469 2.128906 21.457031 2.128906 Z M 21.457031 2.128906 " fill-opacity="1" fill-rule="nonzero"/><g clip-path="url(#cd939be8e7)"><path fill="#000000" d="M 40.308594 25.738281 L 39.109375 25.390625 C 39.558594 23.742188 39.785156 22.042969 39.785156 20.292969 C 39.785156 15.796875 38.234375 11.398438 35.4375 7.902344 L 35.4375 1.652344 C 35.4375 1.128906 35.113281 0.679688 34.664062 0.480469 C 34.515625 0.40625 34.339844 0.378906 34.164062 0.378906 L 16.910156 0.378906 C 16.535156 0.378906 16.1875 0.554688 15.960938 0.804688 C 6.722656 2.652344 0.03125 10.824219 0.03125 20.292969 C 0.03125 23.367188 0.703125 26.316406 2.054688 29.0625 L 2.054688 31.410156 C 2.054688 33.160156 3.476562 34.585938 5.222656 34.585938 C 5.472656 34.585938 5.75 34.558594 5.972656 34.484375 C 9.71875 38.15625 14.636719 40.15625 19.882812 40.15625 C 25.074219 40.15625 29.96875 38.183594 33.691406 34.558594 C 34.089844 34.535156 34.441406 34.660156 34.515625 34.386719 L 34.816406 33.386719 C 34.988281 33.1875 35.164062 32.984375 35.339844 32.761719 C 35.488281 32.6875 35.664062 32.636719 35.8125 32.5625 L 37.160156 33.285156 C 37.261719 33.335938 37.386719 33.3125 37.460938 33.234375 L 39.160156 31.535156 C 39.234375 31.460938 39.257812 31.335938 39.210938 31.238281 L 38.484375 29.886719 C 38.636719 29.613281 38.734375 29.339844 38.835938 29.039062 L 40.308594 28.589844 C 40.410156 28.5625 40.484375 28.464844 40.484375 28.363281 L 40.484375 25.941406 C 40.484375 25.863281 40.410156 25.765625 40.308594 25.738281 Z M 38.484375 24.441406 L 39.011719 23.441406 C 38.933594 23.941406 38.835938 24.441406 38.710938 24.941406 C 38.636719 24.765625 38.558594 24.617188 38.484375 24.441406 Z M 39.257812 20.292969 C 39.257812 21.117188 39.210938 21.941406 39.109375 22.742188 L 37.460938 21.09375 C 37.386719 21.019531 37.261719 20.992188 37.160156 21.042969 L 35.8125 21.765625 C 35.6875 21.691406 35.539062 21.640625 35.414062 21.59375 L 35.414062 8.675781 C 37.910156 12.023438 39.257812 16.121094 39.257812 20.292969 Z M 26.972656 23.089844 L 27.699219 24.441406 C 27.546875 24.714844 27.449219 24.992188 27.347656 25.289062 L 25.875 25.738281 C 25.773438 25.765625 25.699219 25.863281 25.699219 25.964844 L 25.699219 26.539062 L 24.226562 26.539062 L 24.226562 24.742188 C 24.226562 22.140625 22.15625 19.992188 19.582031 19.96875 C 19.558594 19.96875 19.558594 19.96875 19.53125 19.96875 C 18.332031 19.96875 17.210938 20.417969 16.335938 21.242188 C 16.261719 21.292969 16.210938 21.34375 16.136719 21.390625 L 16.136719 3.378906 L 34.941406 3.378906 L 34.941406 21.269531 L 34.539062 19.917969 C 34.515625 19.820312 34.414062 19.742188 34.316406 19.742188 L 31.894531 19.742188 C 31.792969 19.742188 31.695312 19.820312 31.667969 19.917969 L 31.21875 21.390625 C 30.917969 21.492188 30.644531 21.617188 30.371094 21.742188 L 29.023438 21.019531 C 28.921875 20.96875 28.796875 20.992188 28.722656 21.066406 L 27.023438 22.765625 C 26.925781 22.867188 26.898438 22.992188 26.972656 23.089844 Z M 27 31.5625 L 28.695312 33.261719 C 28.773438 33.335938 28.898438 33.359375 28.996094 33.3125 L 30.34375 32.585938 C 30.621094 32.734375 30.894531 32.835938 31.195312 32.9375 L 31.542969 34.109375 L 22.730469 34.109375 C 23.628906 33.535156 24.226562 32.5625 24.226562 31.4375 L 24.226562 27.015625 L 25.699219 27.015625 L 25.699219 28.363281 C 25.699219 28.464844 25.773438 28.5625 25.875 28.589844 L 27.347656 29.039062 C 27.449219 29.339844 27.574219 29.613281 27.699219 29.886719 L 26.972656 31.238281 C 26.898438 31.363281 26.925781 31.488281 27 31.5625 Z M 11.867188 18.042969 L 5.875 18.042969 C 5.300781 18.042969 4.851562 17.59375 4.851562 17.019531 C 4.851562 16.445312 5.300781 15.996094 5.875 15.996094 L 13.390625 15.996094 C 14.089844 15.996094 14.664062 15.421875 14.664062 14.722656 C 14.664062 14.023438 14.089844 13.445312 13.390625 13.445312 L 10.34375 13.445312 C 9.394531 13.445312 8.644531 12.671875 8.644531 11.75 C 8.644531 10.796875 9.417969 10.050781 10.34375 10.050781 L 15.636719 10.050781 L 15.636719 21.59375 C 15.539062 21.617188 15.414062 21.640625 15.289062 21.640625 L 13.363281 21.640625 L 13.363281 19.570312 C 13.390625 18.71875 12.714844 18.042969 11.867188 18.042969 Z M 34.914062 1.652344 L 34.914062 2.902344 L 16.136719 2.902344 L 16.136719 1.652344 C 16.136719 1.230469 16.484375 0.855469 16.9375 0.855469 L 34.164062 0.855469 C 34.265625 0.855469 34.367188 0.878906 34.464844 0.90625 C 34.714844 1.054688 34.914062 1.328125 34.914062 1.652344 Z M 0.53125 20.292969 C 0.53125 11.199219 6.871094 3.328125 15.6875 1.378906 C 15.660156 1.480469 15.660156 1.554688 15.660156 1.652344 L 15.660156 9.574219 L 10.34375 9.574219 C 9.144531 9.574219 8.144531 10.550781 8.144531 11.773438 C 8.144531 12.996094 9.121094 13.972656 10.34375 13.972656 L 13.390625 13.972656 C 13.8125 13.972656 14.164062 14.320312 14.164062 14.746094 C 14.164062 15.171875 13.8125 15.519531 13.390625 15.519531 L 5.898438 15.519531 C 5.074219 15.519531 4.375 16.195312 4.375 17.046875 C 4.375 17.871094 5.050781 18.570312 5.898438 18.570312 L 11.890625 18.570312 C 12.464844 18.570312 12.914062 19.019531 12.914062 19.59375 L 12.914062 21.667969 L 10.992188 21.667969 C 10.59375 21.667969 10.21875 21.515625 9.945312 21.269531 C 9.070312 20.441406 7.921875 19.992188 6.699219 19.992188 C 4.152344 19.992188 2.054688 22.140625 2.054688 24.742188 L 2.054688 27.863281 C 1.027344 25.464844 0.53125 22.941406 0.53125 20.292969 Z M 2.550781 31.386719 L 2.550781 24.714844 C 2.550781 22.367188 4.425781 20.46875 6.699219 20.441406 C 7.769531 20.441406 8.796875 20.84375 9.59375 21.566406 C 9.96875 21.917969 10.441406 22.09375 10.96875 22.09375 L 15.289062 22.09375 C 15.8125 22.09375 16.285156 21.890625 16.660156 21.566406 C 17.433594 20.84375 18.457031 20.441406 19.53125 20.441406 C 19.558594 20.441406 19.558594 20.441406 19.582031 20.441406 C 21.878906 20.46875 23.726562 22.390625 23.726562 24.714844 L 23.726562 31.363281 C 23.726562 32.835938 22.527344 34.035156 21.03125 34.035156 C 19.882812 34.035156 18.882812 33.3125 18.484375 32.210938 L 16.910156 28.714844 C 16.585938 27.988281 15.863281 27.515625 15.0625 27.515625 L 11.191406 27.515625 C 10.394531 27.515625 9.667969 27.988281 9.34375 28.714844 L 7.769531 32.285156 C 7.398438 33.359375 6.371094 34.085938 5.25 34.085938 C 3.75 34.085938 2.550781 32.886719 2.550781 31.386719 Z M 19.359375 34.085938 L 6.921875 34.085938 C 7.523438 33.710938 7.972656 33.160156 8.21875 32.460938 L 9.792969 28.964844 C 10.042969 28.414062 10.59375 28.039062 11.191406 28.039062 L 15.0625 28.039062 C 15.660156 28.039062 16.238281 28.386719 16.460938 28.964844 L 18.035156 32.4375 C 18.285156 33.136719 18.757812 33.710938 19.359375 34.085938 Z M 6.796875 34.585938 C 9.46875 34.585938 29.570312 34.585938 32.992188 34.585938 C 29.421875 37.882812 24.800781 39.683594 19.90625 39.683594 C 15.011719 39.683594 10.394531 37.859375 6.796875 34.585938 Z M 39.984375 28.1875 L 38.558594 28.613281 C 38.484375 28.636719 38.410156 28.6875 38.386719 28.789062 C 38.285156 29.136719 38.136719 29.460938 37.960938 29.789062 C 37.910156 29.863281 37.910156 29.9375 37.960938 30.011719 L 38.660156 31.3125 L 37.210938 32.761719 L 35.914062 32.0625 C 35.839844 32.011719 35.761719 32.011719 35.6875 32.0625 C 35.363281 32.234375 35.039062 32.359375 34.691406 32.484375 C 34.613281 32.511719 34.539062 32.5625 34.515625 32.660156 L 34.367188 33.210938 L 34.117188 34.085938 C 34.066406 34.085938 31.96875 34.085938 32.066406 34.085938 L 31.644531 32.660156 C 31.617188 32.585938 31.570312 32.511719 31.46875 32.484375 C 31.117188 32.386719 30.769531 32.234375 30.46875 32.0625 C 30.394531 32.011719 30.320312 32.011719 30.246094 32.0625 L 28.945312 32.761719 L 27.5 31.3125 L 28.199219 30.011719 C 28.246094 29.9375 28.246094 29.863281 28.199219 29.789062 C 28.023438 29.460938 27.898438 29.136719 27.773438 28.789062 C 27.746094 28.714844 27.699219 28.636719 27.597656 28.613281 L 26.175781 28.1875 L 26.175781 26.140625 L 27.597656 25.714844 C 27.671875 25.691406 27.746094 25.640625 27.773438 25.539062 C 27.871094 25.191406 28.023438 24.867188 28.199219 24.539062 C 28.246094 24.464844 28.246094 24.390625 28.199219 24.316406 L 27.5 23.015625 L 28.945312 21.566406 L 30.246094 22.265625 C 30.320312 22.316406 30.394531 22.316406 30.46875 22.265625 C 30.792969 22.09375 31.117188 21.96875 31.46875 21.84375 C 31.542969 21.816406 31.617188 21.765625 31.644531 21.667969 L 32.066406 20.242188 L 34.117188 20.242188 L 34.539062 21.667969 C 34.566406 21.742188 34.613281 21.816406 34.714844 21.84375 C 35.066406 21.941406 35.414062 22.09375 35.714844 22.265625 C 35.789062 22.316406 35.863281 22.316406 35.9375 22.265625 L 37.238281 21.566406 L 38.683594 23.015625 L 37.984375 24.316406 C 37.9375 24.390625 37.9375 24.464844 37.984375 24.539062 C 38.160156 24.867188 38.285156 25.191406 38.410156 25.539062 C 38.4375 25.613281 38.484375 25.691406 38.585938 25.714844 L 38.761719 25.765625 L 40.007812 26.140625 L 40.007812 28.1875 Z M 39.984375 28.1875 " fill-opacity="1" fill-rule="nonzero"/></g><path fill="#000000" d="M 20.304688 5.226562 L 18.007812 5.226562 C 17.882812 5.226562 17.757812 5.328125 17.757812 5.476562 C 17.757812 5.601562 17.859375 5.726562 18.007812 5.726562 L 20.304688 5.726562 C 20.429688 5.726562 20.554688 5.625 20.554688 5.476562 C 20.554688 5.351562 20.457031 5.226562 20.304688 5.226562 Z M 20.304688 5.226562 " fill-opacity="1" fill-rule="nonzero"/><path fill="#000000" d="M 21.304688 5.726562 L 22.253906 5.726562 C 22.378906 5.726562 22.503906 5.625 22.503906 5.476562 C 22.503906 5.351562 22.402344 5.226562 22.253906 5.226562 L 21.304688 5.226562 C 21.179688 5.226562 21.054688 5.328125 21.054688 5.476562 C 21.082031 5.625 21.179688 5.726562 21.304688 5.726562 Z M 21.304688 5.726562 " fill-opacity="1" fill-rule="nonzero"/><path fill="#000000" d="M 20.304688 6.226562 L 18.007812 6.226562 C 17.882812 6.226562 17.757812 6.328125 17.757812 6.476562 C 17.757812 6.601562 17.859375 6.726562 18.007812 6.726562 L 20.304688 6.726562 C 20.429688 6.726562 20.554688 6.625 20.554688 6.476562 C 20.554688 6.328125 20.457031 6.226562 20.304688 6.226562 Z M 20.304688 6.226562 " fill-opacity="1" fill-rule="nonzero"/><path fill="#000000" d="M 21.304688 6.726562 L 22.253906 6.726562 C 22.378906 6.726562 22.503906 6.625 22.503906 6.476562 C 22.503906 6.351562 22.402344 6.226562 22.253906 6.226562 L 21.304688 6.226562 C 21.179688 6.226562 21.054688 6.328125 21.054688 6.476562 C 21.082031 6.601562 21.179688 6.726562 21.304688 6.726562 Z M 21.304688 6.726562 " fill-opacity="1" fill-rule="nonzero"/><path fill="#000000" d="M 21.582031 7.875 C 21.582031 8 21.679688 8.125 21.828125 8.125 L 24.128906 8.125 C 24.253906 8.125 24.375 8.023438 24.375 7.875 C 24.375 7.75 24.277344 7.625 24.128906 7.625 L 21.828125 7.625 C 21.703125 7.625 21.582031 7.726562 21.582031 7.875 Z M 21.582031 7.875 " fill-opacity="1" fill-rule="nonzero"/><path fill="#000000" d="M 25.300781 8.101562 L 27.597656 8.101562 C 27.722656 8.101562 27.847656 8 27.847656 7.851562 C 27.847656 7.726562 27.746094 7.601562 27.597656 7.601562 L 25.300781 7.601562 C 25.175781 7.601562 25.050781 7.699219 25.050781 7.851562 C 25.050781 8 25.152344 8.101562 25.300781 8.101562 Z M 25.300781 8.101562 " fill-opacity="1" fill-rule="nonzero"/><path fill="#000000" d="M 28.746094 8.101562 L 33.042969 8.101562 C 33.167969 8.101562 33.292969 8 33.292969 7.851562 C 33.292969 7.726562 33.191406 7.601562 33.042969 7.601562 L 28.746094 7.601562 C 28.621094 7.601562 28.496094 7.699219 28.496094 7.851562 C 28.496094 8 28.621094 8.101562 28.746094 8.101562 Z M 28.746094 8.101562 " fill-opacity="1" fill-rule="nonzero"/><path fill="#000000" d="M 21.582031 9.199219 C 21.582031 9.324219 21.679688 9.449219 21.828125 9.449219 L 27.871094 9.449219 C 27.996094 9.449219 28.121094 9.347656 28.121094 9.199219 C 28.121094 9.074219 28.023438 8.949219 27.871094 8.949219 L 21.828125 8.949219 C 21.703125 8.976562 21.582031 9.074219 21.582031 9.199219 Z M 21.582031 9.199219 " fill-opacity="1" fill-rule="nonzero"/><path fill="#000000" d="M 28.746094 9.449219 L 31.941406 9.449219 C 32.066406 9.449219 32.191406 9.347656 32.191406 9.199219 C 32.191406 9.074219 32.09375 8.949219 31.941406 8.949219 L 28.746094 8.949219 C 28.621094 8.949219 28.496094 9.050781 28.496094 9.199219 C 28.496094 9.347656 28.621094 9.449219 28.746094 9.449219 Z M 28.746094 9.449219 " fill-opacity="1" fill-rule="nonzero"/><path fill="#000000" d="M 25.75 10 L 21.828125 10 C 21.703125 10 21.582031 10.097656 21.582031 10.25 C 21.582031 10.375 21.679688 10.5 21.828125 10.5 L 25.75 10.5 C 25.875 10.5 26 10.398438 26 10.25 C 26 10.097656 25.898438 10 25.75 10 Z M 25.75 10 " fill-opacity="1" fill-rule="nonzero"/><path fill="#000000" d="M 30.945312 10.25 C 30.945312 10.125 30.84375 10 30.695312 10 L 26.773438 10 C 26.648438 10 26.523438 10.097656 26.523438 10.25 C 26.523438 10.375 26.625 10.5 26.773438 10.5 L 30.695312 10.5 C 30.84375 10.5 30.945312 10.375 30.945312 10.25 Z M 30.945312 10.25 " fill-opacity="1" fill-rule="nonzero"/><path fill="#000000" d="M 20.304688 11.921875 L 18.007812 11.921875 C 17.882812 11.921875 17.757812 12.023438 17.757812 12.171875 C 17.757812 12.296875 17.859375 12.421875 18.007812 12.421875 L 20.304688 12.421875 C 20.429688 12.421875 20.554688 12.324219 20.554688 12.171875 C 20.554688 12.023438 20.457031 11.921875 20.304688 11.921875 Z M 20.304688 11.921875 " fill-opacity="1" fill-rule="nonzero"/><path fill="#000000" d="M 21.304688 12.421875 L 22.253906 12.421875 C 22.378906 12.421875 22.503906 12.324219 22.503906 12.171875 C 22.503906 12.046875 22.402344 11.921875 22.253906 11.921875 L 21.304688 11.921875 C 21.179688 11.921875 21.054688 12.023438 21.054688 12.171875 C 21.082031 12.296875 21.179688 12.421875 21.304688 12.421875 Z M 21.304688 12.421875 " fill-opacity="1" fill-rule="nonzero"/><path fill="#000000" d="M 20.304688 12.921875 L 18.007812 12.921875 C 17.882812 12.921875 17.757812 13.023438 17.757812 13.171875 C 17.757812 13.296875 17.859375 13.421875 18.007812 13.421875 L 20.304688 13.421875 C 20.429688 13.421875 20.554688 13.320312 20.554688 13.171875 C 20.554688 13.023438 20.457031 12.921875 20.304688 12.921875 Z M 20.304688 12.921875 " fill-opacity="1" fill-rule="nonzero"/><path fill="#000000" d="M 22.503906 13.171875 C 22.503906 13.046875 22.402344 12.921875 22.253906 12.921875 L 21.304688 12.921875 C 21.179688 12.921875 21.054688 13.023438 21.054688 13.171875 C 21.054688 13.296875 21.15625 13.421875 21.304688 13.421875 L 22.253906 13.421875 C 22.402344 13.398438 22.503906 13.296875 22.503906 13.171875 Z M 22.503906 13.171875 " fill-opacity="1" fill-rule="nonzero"/><path fill="#000000" d="M 21.582031 14.546875 C 21.582031 14.671875 21.679688 14.796875 21.828125 14.796875 L 24.128906 14.796875 C 24.253906 14.796875 24.375 14.695312 24.375 14.546875 C 24.375 14.421875 24.277344 14.296875 24.128906 14.296875 L 21.828125 14.296875 C 21.703125 14.296875 21.582031 14.421875 21.582031 14.546875 Z M 21.582031 14.546875 " fill-opacity="1" fill-rule="nonzero"/><path fill="#000000" d="M 25.050781 14.546875 C 25.050781 14.671875 25.152344 14.796875 25.300781 14.796875 L 27.597656 14.796875 C 27.722656 14.796875 27.847656 14.695312 27.847656 14.546875 C 27.847656 14.421875 27.746094 14.296875 27.597656 14.296875 L 25.300781 14.296875 C 25.152344 14.296875 25.050781 14.421875 25.050781 14.546875 Z M 25.050781 14.546875 " fill-opacity="1" fill-rule="nonzero"/><path fill="#000000" d="M 33.042969 14.296875 L 28.746094 14.296875 C 28.621094 14.296875 28.496094 14.398438 28.496094 14.546875 C 28.496094 14.671875 28.597656 14.796875 28.746094 14.796875 L 33.042969 14.796875 C 33.167969 14.796875 33.292969 14.695312 33.292969 14.546875 C 33.292969 14.421875 33.167969 14.296875 33.042969 14.296875 Z M 33.042969 14.296875 " fill-opacity="1" fill-rule="nonzero"/><path fill="#000000" d="M 21.828125 16.144531 L 27.871094 16.144531 C 27.996094 16.144531 28.121094 16.046875 28.121094 15.894531 C 28.121094 15.769531 28.023438 15.644531 27.871094 15.644531 L 21.828125 15.644531 C 21.703125 15.644531 21.582031 15.746094 21.582031 15.894531 C 21.582031 16.046875 21.703125 16.144531 21.828125 16.144531 Z M 21.828125 16.144531 " fill-opacity="1" fill-rule="nonzero"/><path fill="#000000" d="M 31.96875 15.644531 L 28.746094 15.644531 C 28.621094 15.644531 28.496094 15.746094 28.496094 15.894531 C 28.496094 16.019531 28.597656 16.144531 28.746094 16.144531 L 31.941406 16.144531 C 32.066406 16.144531 32.191406 16.046875 32.191406 15.894531 C 32.191406 15.769531 32.09375 15.644531 31.96875 15.644531 Z M 31.96875 15.644531 " fill-opacity="1" fill-rule="nonzero"/><path fill="#000000" d="M 25.75 16.695312 L 21.828125 16.695312 C 21.703125 16.695312 21.582031 16.796875 21.582031 16.945312 C 21.582031 17.070312 21.679688 17.195312 21.828125 17.195312 L 25.75 17.195312 C 25.875 17.195312 26 17.09375 26 16.945312 C 26 16.796875 25.898438 16.695312 25.75 16.695312 Z M 25.75 16.695312 " fill-opacity="1" fill-rule="nonzero"/><path fill="#000000" d="M 30.945312 16.945312 C 30.945312 16.820312 30.84375 16.695312 30.695312 16.695312 L 26.773438 16.695312 C 26.648438 16.695312 26.523438 16.796875 26.523438 16.945312 C 26.523438 17.070312 26.625 17.195312 26.773438 17.195312 L 30.695312 17.195312 C 30.84375 17.171875 30.945312 17.070312 30.945312 16.945312 Z M 30.945312 16.945312 " fill-opacity="1" fill-rule="nonzero"/><path fill="#000000" d="M 28.746094 27.238281 L 31.167969 28.363281 L 31.167969 27.765625 L 29.371094 26.9375 L 29.371094 26.863281 L 31.167969 26.039062 L 31.167969 25.464844 L 28.746094 26.589844 Z M 28.746094 27.238281 " fill-opacity="1" fill-rule="nonzero"/><path fill="#000000" d="M 31.71875 29.5625 L 32.242188 29.5625 L 34.464844 24.765625 L 33.941406 24.765625 Z M 31.71875 29.5625 " fill-opacity="1" fill-rule="nonzero"/><path fill="#000000" d="M 34.988281 26.039062 L 36.8125 26.863281 L 36.8125 26.9375 L 34.988281 27.765625 L 34.988281 28.363281 L 37.4375 27.238281 L 37.4375 26.589844 L 34.988281 25.464844 Z M 34.988281 26.039062 " fill-opacity="1" fill-rule="nonzero"/></svg>