<svg xmlns="http://www.w3.org/2000/svg" xmlns:xlink="http://www.w3.org/1999/xlink" width="55" zoomAndPan="magnify" viewBox="0 0 41.25 41.250001" height="55" preserveAspectRatio="xMidYMid meet" version="1.0"><defs><clipPath id="b9bf46cc81"><path d="M 10 1.011719 L 12 1.011719 L 12 3 L 10 3 Z M 10 1.011719 " clip-rule="nonzero"/></clipPath><clipPath id="1c7109d1af"><path d="M 39 29 L 40.511719 29 L 40.511719 32 L 39 32 Z M 39 29 " clip-rule="nonzero"/></clipPath><clipPath id="5a962dc1e6"><path d="M 29 1.011719 L 31 1.011719 L 31 3 L 29 3 Z M 29 1.011719 " clip-rule="nonzero"/></clipPath><clipPath id="a3f9c7ebdb"><path d="M 21 37 L 23 37 L 23 39.316406 L 21 39.316406 Z M 21 37 " clip-rule="nonzero"/></clipPath><clipPath id="b432cfdf6b"><path d="M 12 1.011719 L 15 1.011719 L 15 8 L 12 8 Z M 12 1.011719 " clip-rule="nonzero"/></clipPath><clipPath id="bbff29263e"><path d="M 16 34 L 21 34 L 21 39.316406 L 16 39.316406 Z M 16 34 " clip-rule="nonzero"/></clipPath><clipPath id="6cce5769a9"><path d="M 25 1.011719 L 28 1.011719 L 28 8 L 25 8 Z M 25 1.011719 " clip-rule="nonzero"/></clipPath><clipPath id="879757c6a1"><path d="M 33 26 L 40.511719 26 L 40.511719 29 L 33 29 Z M 33 26 " clip-rule="nonzero"/></clipPath></defs><path fill="#000000" d="M 30.429688 9.078125 L 10.085938 9.078125 C 8.992188 9.078125 8.101562 9.960938 8.101562 11.050781 L 8.101562 31.296875 C 8.101562 32.382812 8.992188 33.269531 10.085938 33.269531 L 30.429688 33.269531 C 31.523438 33.269531 32.410156 32.382812 32.410156 31.296875 L 32.410156 11.050781 C 32.410156 9.960938 31.523438 9.078125 30.429688 9.078125 Z M 31.058594 29.664062 C 31.058594 30.910156 30.039062 31.925781 28.789062 31.925781 L 11.726562 31.925781 C 10.472656 31.925781 9.453125 30.910156 9.453125 29.664062 L 9.453125 12.683594 C 9.453125 11.433594 10.472656 10.421875 11.726562 10.421875 L 28.789062 10.421875 C 30.039062 10.421875 31.058594 11.433594 31.058594 12.683594 Z M 31.058594 29.664062 " fill-opacity="1" fill-rule="nonzero"/><path fill="#000000" d="M 28.789062 11.765625 L 11.726562 11.765625 C 11.21875 11.765625 10.804688 12.175781 10.804688 12.683594 L 10.804688 29.664062 C 10.804688 30.167969 11.21875 30.582031 11.726562 30.582031 L 28.789062 30.582031 C 29.296875 30.582031 29.710938 30.167969 29.710938 29.664062 L 29.710938 12.683594 C 29.710938 12.175781 29.296875 11.765625 28.789062 11.765625 Z M 26.925781 21.84375 C 27.296875 21.84375 27.601562 22.144531 27.601562 22.515625 C 27.601562 22.886719 27.296875 23.1875 26.925781 23.1875 L 26.332031 23.1875 L 26.332031 24.53125 L 28.359375 24.53125 C 28.734375 24.53125 29.035156 24.832031 29.035156 25.203125 C 29.035156 25.574219 28.734375 25.875 28.359375 25.875 L 26.332031 25.875 L 26.332031 26.546875 C 26.332031 26.917969 26.03125 27.21875 25.660156 27.21875 L 24.984375 27.21875 L 24.984375 27.808594 C 24.984375 28.179688 24.679688 28.480469 24.308594 28.480469 C 23.933594 28.480469 23.632812 28.179688 23.632812 27.808594 L 23.632812 27.21875 L 22.28125 27.21875 L 22.28125 29.238281 C 22.28125 29.609375 21.980469 29.910156 21.605469 29.910156 C 21.234375 29.910156 20.933594 29.609375 20.933594 29.238281 L 20.933594 27.21875 L 19.582031 27.21875 L 19.582031 27.808594 C 19.582031 28.179688 19.28125 28.480469 18.90625 28.480469 C 18.53125 28.480469 18.230469 28.179688 18.230469 27.808594 L 18.230469 27.21875 L 16.878906 27.21875 L 16.878906 29.238281 C 16.878906 29.609375 16.578125 29.910156 16.207031 29.910156 C 15.832031 29.910156 15.53125 29.609375 15.53125 29.238281 L 15.53125 27.21875 L 14.855469 27.21875 C 14.480469 27.21875 14.179688 26.917969 14.179688 26.546875 L 14.179688 25.875 L 12.152344 25.875 C 11.78125 25.875 11.480469 25.574219 11.480469 25.203125 C 11.480469 24.832031 11.78125 24.53125 12.152344 24.53125 L 14.179688 24.53125 L 14.179688 23.1875 L 13.589844 23.1875 C 13.214844 23.1875 12.914062 22.886719 12.914062 22.515625 C 12.914062 22.144531 13.214844 21.84375 13.589844 21.84375 L 14.179688 21.84375 L 14.179688 20.5 L 12.152344 20.5 C 11.78125 20.5 11.480469 20.199219 11.480469 19.828125 C 11.480469 19.457031 11.78125 19.15625 12.152344 19.15625 L 14.179688 19.15625 L 14.179688 17.8125 L 13.589844 17.8125 C 13.214844 17.8125 12.914062 17.511719 12.914062 17.140625 C 12.914062 16.769531 13.214844 16.46875 13.589844 16.46875 L 14.179688 16.46875 L 14.179688 15.796875 C 14.179688 15.425781 14.480469 15.125 14.855469 15.125 L 15.53125 15.125 L 15.53125 13.109375 C 15.53125 12.738281 15.832031 12.4375 16.207031 12.4375 C 16.578125 12.4375 16.878906 12.738281 16.878906 13.109375 L 16.878906 15.125 L 18.230469 15.125 L 18.230469 14.535156 C 18.230469 14.164062 18.53125 13.863281 18.90625 13.863281 C 19.28125 13.863281 19.582031 14.164062 19.582031 14.535156 L 19.582031 15.125 L 20.933594 15.125 L 20.933594 13.109375 C 20.933594 12.738281 21.234375 12.4375 21.605469 12.4375 C 21.980469 12.4375 22.28125 12.738281 22.28125 13.109375 L 22.28125 15.125 L 23.632812 15.125 L 23.632812 14.535156 C 23.632812 14.164062 23.933594 13.863281 24.308594 13.863281 C 24.679688 13.863281 24.984375 14.164062 24.984375 14.535156 L 24.984375 15.125 L 25.660156 15.125 C 26.03125 15.125 26.332031 15.425781 26.332031 15.796875 L 26.332031 16.46875 L 26.925781 16.46875 C 27.296875 16.46875 27.601562 16.769531 27.601562 17.140625 C 27.601562 17.511719 27.296875 17.8125 26.925781 17.8125 L 26.332031 17.8125 L 26.332031 19.15625 L 28.359375 19.15625 C 28.734375 19.15625 29.035156 19.457031 29.035156 19.828125 C 29.035156 20.199219 28.734375 20.5 28.359375 20.5 L 26.332031 20.5 L 26.332031 21.84375 Z M 26.925781 21.84375 " fill-opacity="1" fill-rule="nonzero"/><g clip-path="url(#b9bf46cc81)"><path fill="#000000" d="M 11.480469 1.683594 C 11.480469 1.871094 11.414062 2.027344 11.28125 2.160156 C 11.148438 2.292969 10.988281 2.355469 10.804688 2.355469 C 10.617188 2.355469 10.457031 2.292969 10.324219 2.160156 C 10.195312 2.027344 10.128906 1.871094 10.128906 1.683594 C 10.128906 1.5 10.195312 1.339844 10.324219 1.210938 C 10.457031 1.078125 10.617188 1.011719 10.804688 1.011719 C 10.988281 1.011719 11.148438 1.078125 11.28125 1.210938 C 11.414062 1.339844 11.480469 1.5 11.480469 1.683594 Z M 11.480469 1.683594 " fill-opacity="1" fill-rule="nonzero"/></g><path fill="#000000" d="M 4.050781 3.699219 C 4.050781 3.886719 3.984375 4.042969 3.855469 4.175781 C 3.722656 4.308594 3.5625 4.371094 3.375 4.371094 C 3.191406 4.371094 3.03125 4.308594 2.898438 4.175781 C 2.765625 4.042969 2.699219 3.886719 2.699219 3.699219 C 2.699219 3.515625 2.765625 3.355469 2.898438 3.226562 C 3.03125 3.09375 3.191406 3.027344 3.375 3.027344 C 3.5625 3.027344 3.722656 3.09375 3.855469 3.226562 C 3.984375 3.355469 4.050781 3.515625 4.050781 3.699219 Z M 4.050781 3.699219 " fill-opacity="1" fill-rule="nonzero"/><g clip-path="url(#1c7109d1af)"><path fill="#000000" d="M 40.511719 30.582031 C 40.511719 30.765625 40.449219 30.925781 40.316406 31.054688 C 40.183594 31.1875 40.023438 31.253906 39.839844 31.253906 C 39.652344 31.253906 39.492188 31.1875 39.359375 31.054688 C 39.230469 30.925781 39.164062 30.765625 39.164062 30.582031 C 39.164062 30.394531 39.230469 30.238281 39.359375 30.105469 C 39.492188 29.972656 39.652344 29.910156 39.839844 29.910156 C 40.023438 29.910156 40.183594 29.972656 40.316406 30.105469 C 40.449219 30.238281 40.511719 30.394531 40.511719 30.582031 Z M 40.511719 30.582031 " fill-opacity="1" fill-rule="nonzero"/></g><path fill="#000000" d="M 38.488281 37.972656 C 38.488281 38.15625 38.421875 38.316406 38.289062 38.449219 C 38.15625 38.578125 38 38.644531 37.8125 38.644531 C 37.625 38.644531 37.46875 38.578125 37.335938 38.449219 C 37.203125 38.316406 37.136719 38.15625 37.136719 37.972656 C 37.136719 37.785156 37.203125 37.628906 37.335938 37.496094 C 37.46875 37.367188 37.625 37.300781 37.8125 37.300781 C 38 37.300781 38.15625 37.367188 38.289062 37.496094 C 38.421875 37.628906 38.488281 37.785156 38.488281 37.972656 Z M 38.488281 37.972656 " fill-opacity="1" fill-rule="nonzero"/><g clip-path="url(#5a962dc1e6)"><path fill="#000000" d="M 30.386719 1.683594 C 30.386719 1.871094 30.320312 2.027344 30.1875 2.160156 C 30.054688 2.292969 29.894531 2.355469 29.710938 2.355469 C 29.523438 2.355469 29.363281 2.292969 29.230469 2.160156 C 29.101562 2.027344 29.035156 1.871094 29.035156 1.683594 C 29.035156 1.5 29.101562 1.339844 29.230469 1.210938 C 29.363281 1.078125 29.523438 1.011719 29.710938 1.011719 C 29.894531 1.011719 30.054688 1.078125 30.1875 1.210938 C 30.320312 1.339844 30.386719 1.5 30.386719 1.683594 Z M 30.386719 1.683594 " fill-opacity="1" fill-rule="nonzero"/></g><path fill="#000000" d="M 37.8125 3.699219 C 37.8125 3.886719 37.746094 4.042969 37.613281 4.175781 C 37.484375 4.308594 37.324219 4.371094 37.136719 4.371094 C 36.949219 4.371094 36.792969 4.308594 36.660156 4.175781 C 36.527344 4.042969 36.460938 3.886719 36.460938 3.699219 C 36.460938 3.515625 36.527344 3.355469 36.660156 3.226562 C 36.792969 3.09375 36.949219 3.027344 37.136719 3.027344 C 37.324219 3.027344 37.484375 3.09375 37.613281 3.226562 C 37.746094 3.355469 37.8125 3.515625 37.8125 3.699219 Z M 37.8125 3.699219 " fill-opacity="1" fill-rule="nonzero"/><path fill="#000000" d="M 1.351562 30.582031 C 1.351562 30.765625 1.285156 30.925781 1.152344 31.054688 C 1.019531 31.1875 0.863281 31.253906 0.675781 31.253906 C 0.488281 31.253906 0.328125 31.1875 0.199219 31.054688 C 0.0664062 30.925781 0 30.765625 0 30.582031 C 0 30.394531 0.0664062 30.238281 0.199219 30.105469 C 0.328125 29.972656 0.488281 29.910156 0.675781 29.910156 C 0.863281 29.910156 1.019531 29.972656 1.152344 30.105469 C 1.285156 30.238281 1.351562 30.394531 1.351562 30.582031 Z M 1.351562 30.582031 " fill-opacity="1" fill-rule="nonzero"/><path fill="#000000" d="M 3.375 37.972656 C 3.375 38.15625 3.308594 38.316406 3.179688 38.449219 C 3.046875 38.578125 2.886719 38.644531 2.699219 38.644531 C 2.515625 38.644531 2.355469 38.578125 2.222656 38.449219 C 2.089844 38.316406 2.027344 38.15625 2.027344 37.972656 C 2.027344 37.785156 2.089844 37.628906 2.222656 37.496094 C 2.355469 37.367188 2.515625 37.300781 2.699219 37.300781 C 2.886719 37.300781 3.046875 37.367188 3.179688 37.496094 C 3.308594 37.628906 3.375 37.785156 3.375 37.972656 Z M 3.375 37.972656 " fill-opacity="1" fill-rule="nonzero"/><path fill="#000000" d="M 15.53125 16.46875 L 15.53125 25.875 L 24.984375 25.875 L 24.984375 16.46875 Z M 20.257812 23.1875 C 19.136719 23.1875 18.230469 22.285156 18.230469 21.171875 C 18.230469 20.058594 19.136719 19.15625 20.257812 19.15625 C 21.375 19.15625 22.28125 20.058594 22.28125 21.171875 C 22.28125 22.285156 21.375 23.1875 20.257812 23.1875 Z M 20.257812 23.1875 " fill-opacity="1" fill-rule="nonzero"/><path fill="#000000" d="M 38.488281 21.171875 C 38.488281 21.359375 38.421875 21.515625 38.289062 21.648438 C 38.15625 21.777344 38 21.84375 37.8125 21.84375 C 37.625 21.84375 37.46875 21.777344 37.335938 21.648438 C 37.203125 21.515625 37.136719 21.359375 37.136719 21.171875 C 37.136719 20.988281 37.203125 20.828125 37.335938 20.699219 C 37.46875 20.566406 37.625 20.5 37.8125 20.5 C 38 20.5 38.15625 20.566406 38.289062 20.699219 C 38.421875 20.828125 38.488281 20.988281 38.488281 21.171875 Z M 38.488281 21.171875 " fill-opacity="1" fill-rule="nonzero"/><path fill="#000000" d="M 3.375 17.140625 C 3.375 17.328125 3.308594 17.484375 3.179688 17.617188 C 3.046875 17.746094 2.886719 17.8125 2.699219 17.8125 C 2.515625 17.8125 2.355469 17.746094 2.222656 17.617188 C 2.089844 17.484375 2.027344 17.328125 2.027344 17.140625 C 2.027344 16.957031 2.089844 16.796875 2.222656 16.664062 C 2.355469 16.535156 2.515625 16.46875 2.699219 16.46875 C 2.886719 16.46875 3.046875 16.535156 3.179688 16.664062 C 3.308594 16.796875 3.375 16.957031 3.375 17.140625 Z M 3.375 17.140625 " fill-opacity="1" fill-rule="nonzero"/><path fill="#000000" d="M 18.90625 3.699219 C 18.90625 3.886719 18.839844 4.042969 18.707031 4.175781 C 18.578125 4.308594 18.417969 4.371094 18.230469 4.371094 C 18.042969 4.371094 17.886719 4.308594 17.753906 4.175781 C 17.621094 4.042969 17.554688 3.886719 17.554688 3.699219 C 17.554688 3.515625 17.621094 3.355469 17.753906 3.226562 C 17.886719 3.09375 18.042969 3.027344 18.230469 3.027344 C 18.417969 3.027344 18.578125 3.09375 18.707031 3.226562 C 18.839844 3.355469 18.90625 3.515625 18.90625 3.699219 Z M 18.90625 3.699219 " fill-opacity="1" fill-rule="nonzero"/><g clip-path="url(#a3f9c7ebdb)"><path fill="#000000" d="M 22.957031 38.644531 C 22.957031 38.828125 22.890625 38.988281 22.761719 39.121094 C 22.628906 39.25 22.46875 39.316406 22.28125 39.316406 C 22.097656 39.316406 21.9375 39.25 21.804688 39.121094 C 21.671875 38.988281 21.605469 38.828125 21.605469 38.644531 C 21.605469 38.457031 21.671875 38.300781 21.804688 38.167969 C 21.9375 38.039062 22.097656 37.972656 22.28125 37.972656 C 22.46875 37.972656 22.628906 38.039062 22.761719 38.167969 C 22.890625 38.300781 22.957031 38.457031 22.957031 38.644531 Z M 22.957031 38.644531 " fill-opacity="1" fill-rule="nonzero"/></g><g clip-path="url(#b432cfdf6b)"><path fill="#000000" d="M 14.855469 1.683594 L 14.855469 7.734375 L 13.503906 7.734375 L 13.503906 2.355469 L 12.710938 2.355469 C 12.789062 2.148438 12.828125 1.921875 12.828125 1.683594 C 12.828125 1.449219 12.789062 1.222656 12.710938 1.011719 L 14.179688 1.011719 C 14.554688 1.011719 14.855469 1.3125 14.855469 1.683594 Z M 14.855469 1.683594 " fill-opacity="1" fill-rule="nonzero"/></g><path fill="#000000" d="M 24.308594 3.699219 L 24.308594 7.734375 L 22.957031 7.734375 L 22.957031 4.371094 L 20.140625 4.371094 C 20.214844 4.164062 20.257812 3.9375 20.257812 3.699219 C 20.257812 3.464844 20.214844 3.238281 20.140625 3.027344 L 23.632812 3.027344 C 24.007812 3.027344 24.308594 3.328125 24.308594 3.699219 Z M 24.308594 3.699219 " fill-opacity="1" fill-rule="nonzero"/><g clip-path="url(#bbff29263e)"><path fill="#000000" d="M 20.375 37.972656 C 20.296875 38.183594 20.257812 38.410156 20.257812 38.644531 C 20.257812 38.878906 20.296875 39.105469 20.375 39.316406 L 16.878906 39.316406 C 16.507812 39.316406 16.207031 39.015625 16.207031 38.644531 L 16.207031 34.613281 L 17.554688 34.613281 L 17.554688 37.972656 Z M 20.375 37.972656 " fill-opacity="1" fill-rule="nonzero"/></g><path fill="#000000" d="M 35.902344 37.300781 C 35.828125 37.511719 35.785156 37.738281 35.785156 37.972656 C 35.785156 38.207031 35.828125 38.433594 35.902344 38.644531 L 30.386719 38.644531 C 30.011719 38.644531 29.710938 38.34375 29.710938 37.972656 L 29.710938 34.613281 L 30.429688 34.613281 C 30.644531 34.613281 30.855469 34.59375 31.058594 34.554688 L 31.058594 37.300781 Z M 35.902344 37.300781 " fill-opacity="1" fill-rule="nonzero"/><path fill="#000000" d="M 33.761719 11.050781 C 33.761719 10.835938 33.742188 10.625 33.703125 10.421875 L 36.460938 10.421875 L 36.460938 5.601562 C 36.671875 5.675781 36.902344 5.714844 37.136719 5.714844 C 37.375 5.714844 37.601562 5.675781 37.8125 5.601562 L 37.8125 11.09375 C 37.8125 11.464844 37.511719 11.765625 37.136719 11.765625 L 33.761719 11.765625 Z M 33.761719 11.050781 " fill-opacity="1" fill-rule="nonzero"/><path fill="#000000" d="M 37.8125 15.125 C 38.1875 15.125 38.488281 15.425781 38.488281 15.796875 L 38.488281 19.273438 C 38.277344 19.195312 38.050781 19.15625 37.8125 19.15625 C 37.578125 19.15625 37.347656 19.195312 37.136719 19.273438 L 37.136719 16.46875 L 33.761719 16.46875 L 33.761719 15.125 Z M 37.8125 15.125 " fill-opacity="1" fill-rule="nonzero"/><g clip-path="url(#6cce5769a9)"><path fill="#000000" d="M 27.800781 1.011719 C 27.726562 1.222656 27.683594 1.449219 27.683594 1.683594 C 27.683594 1.921875 27.726562 2.148438 27.800781 2.355469 L 27.007812 2.355469 L 27.007812 7.734375 L 25.660156 7.734375 L 25.660156 1.683594 C 25.660156 1.3125 25.960938 1.011719 26.332031 1.011719 Z M 27.800781 1.011719 " fill-opacity="1" fill-rule="nonzero"/></g><g clip-path="url(#879757c6a1)"><path fill="#000000" d="M 40.511719 27.21875 L 40.511719 28.679688 C 40.300781 28.605469 40.074219 28.566406 39.839844 28.566406 C 39.601562 28.566406 39.375 28.605469 39.164062 28.679688 L 39.164062 27.890625 L 33.761719 27.890625 L 33.761719 26.546875 L 39.839844 26.546875 C 40.210938 26.546875 40.511719 26.847656 40.511719 27.21875 Z M 40.511719 27.21875 " fill-opacity="1" fill-rule="nonzero"/></g><path fill="#000000" d="M 2.027344 22.515625 L 2.027344 19.039062 C 2.238281 19.117188 2.464844 19.15625 2.699219 19.15625 C 2.9375 19.15625 3.164062 19.117188 3.375 19.039062 L 3.375 21.84375 L 6.753906 21.84375 L 6.753906 23.1875 L 2.699219 23.1875 C 2.328125 23.1875 2.027344 22.886719 2.027344 22.515625 Z M 2.027344 22.515625 " fill-opacity="1" fill-rule="nonzero"/><path fill="#000000" d="M 10.085938 34.613281 L 10.804688 34.613281 L 10.804688 37.972656 C 10.804688 38.34375 10.5 38.644531 10.128906 38.644531 L 4.609375 38.644531 C 4.6875 38.433594 4.726562 38.207031 4.726562 37.972656 C 4.726562 37.738281 4.6875 37.511719 4.609375 37.300781 L 9.453125 37.300781 L 9.453125 34.554688 C 9.65625 34.59375 9.867188 34.613281 10.085938 34.613281 Z M 10.085938 34.613281 " fill-opacity="1" fill-rule="nonzero"/><path fill="#000000" d="M 2.699219 11.09375 L 2.699219 5.601562 C 2.910156 5.675781 3.140625 5.714844 3.375 5.714844 C 3.613281 5.714844 3.839844 5.675781 4.050781 5.601562 L 4.050781 10.421875 L 6.8125 10.421875 C 6.773438 10.625 6.753906 10.835938 6.753906 11.050781 L 6.753906 11.765625 L 3.375 11.765625 C 3.003906 11.765625 2.699219 11.464844 2.699219 11.09375 Z M 2.699219 11.09375 " fill-opacity="1" fill-rule="nonzero"/><path fill="#000000" d="M 6.753906 27.890625 L 1.351562 27.890625 L 1.351562 28.679688 C 1.140625 28.605469 0.910156 28.566406 0.675781 28.566406 C 0.4375 28.566406 0.210938 28.605469 0 28.679688 L 0 27.21875 C 0 26.847656 0.300781 26.546875 0.675781 26.546875 L 6.753906 26.546875 Z M 6.753906 27.890625 " fill-opacity="1" fill-rule="nonzero"/></svg>