<svg xmlns="http://www.w3.org/2000/svg" xmlns:xlink="http://www.w3.org/1999/xlink" width="55" zoomAndPan="magnify" viewBox="0 0 41.25 41.250001" height="55" preserveAspectRatio="xMidYMid meet" version="1.0"><defs><clipPath id="cc75b487ff"><path d="M 26 31 L 40.511719 31 L 40.511719 40.511719 L 26 40.511719 Z M 26 31 " clip-rule="nonzero"/></clipPath><clipPath id="06e08c0840"><path d="M 29 35 L 32 35 L 32 40.511719 L 29 40.511719 Z M 29 35 " clip-rule="nonzero"/></clipPath><clipPath id="4d78b1e348"><path d="M 36 35 L 38 35 L 38 40.511719 L 36 40.511719 Z M 36 35 " clip-rule="nonzero"/></clipPath><clipPath id="cd0ec118a9"><path d="M 0 31 L 14 31 L 14 40.511719 L 0 40.511719 Z M 0 31 " clip-rule="nonzero"/></clipPath><clipPath id="64cb551ff4"><path d="M 3 35 L 5 35 L 5 40.511719 L 3 40.511719 Z M 3 35 " clip-rule="nonzero"/></clipPath><clipPath id="aeba69eebc"><path d="M 9 35 L 11 35 L 11 40.511719 L 9 40.511719 Z M 9 35 " clip-rule="nonzero"/></clipPath></defs><g clip-path="url(#cc75b487ff)"><path fill="#000000" d="M 39.878906 40.511719 L 27.21875 40.511719 C 26.871094 40.511719 26.585938 40.230469 26.585938 39.878906 L 26.585938 35.609375 C 26.585938 33.078125 28.644531 31.019531 31.175781 31.019531 L 35.925781 31.019531 C 38.453125 31.019531 40.511719 33.078125 40.511719 35.609375 L 40.511719 39.878906 C 40.511719 40.230469 40.230469 40.511719 39.878906 40.511719 Z M 27.851562 39.246094 L 39.246094 39.246094 L 39.246094 35.609375 C 39.246094 33.773438 37.757812 32.285156 35.925781 32.285156 L 31.175781 32.285156 C 29.34375 32.285156 27.851562 33.773438 27.851562 35.609375 Z M 27.851562 39.246094 " fill-opacity="1" fill-rule="nonzero"/></g><g clip-path="url(#06e08c0840)"><path fill="#000000" d="M 30.386719 40.511719 C 30.035156 40.511719 29.753906 40.230469 29.753906 39.878906 L 29.753906 36.082031 C 29.753906 35.734375 30.035156 35.449219 30.386719 35.449219 C 30.734375 35.449219 31.019531 35.734375 31.019531 36.082031 L 31.019531 39.878906 C 31.019531 40.230469 30.734375 40.511719 30.386719 40.511719 Z M 30.386719 40.511719 " fill-opacity="1" fill-rule="nonzero"/></g><g clip-path="url(#4d78b1e348)"><path fill="#000000" d="M 36.714844 40.511719 C 36.367188 40.511719 36.082031 40.230469 36.082031 39.878906 L 36.082031 36.082031 C 36.082031 35.734375 36.367188 35.449219 36.714844 35.449219 C 37.066406 35.449219 37.347656 35.734375 37.347656 36.082031 L 37.347656 39.878906 C 37.347656 40.230469 37.066406 40.511719 36.714844 40.511719 Z M 36.714844 40.511719 " fill-opacity="1" fill-rule="nonzero"/></g><path fill="#000000" d="M 33.550781 32.285156 C 31.457031 32.285156 29.753906 30.582031 29.753906 28.484375 C 29.753906 26.390625 31.457031 24.6875 33.550781 24.6875 C 35.644531 24.6875 37.347656 26.390625 37.347656 28.484375 C 37.347656 30.582031 35.644531 32.285156 33.550781 32.285156 Z M 33.550781 25.953125 C 32.152344 25.953125 31.019531 27.089844 31.019531 28.484375 C 31.019531 29.882812 32.152344 31.019531 33.550781 31.019531 C 34.945312 31.019531 36.082031 29.882812 36.082031 28.484375 C 36.082031 27.089844 34.945312 25.953125 33.550781 25.953125 Z M 33.550781 25.953125 " fill-opacity="1" fill-rule="nonzero"/><g clip-path="url(#cd0ec118a9)"><path fill="#000000" d="M 13.292969 40.511719 L 0.632812 40.511719 C 0.285156 40.511719 0 40.230469 0 39.878906 L 0 35.609375 C 0 33.078125 2.058594 31.019531 4.589844 31.019531 L 9.335938 31.019531 C 11.867188 31.019531 13.925781 33.078125 13.925781 35.609375 L 13.925781 39.878906 C 13.925781 40.230469 13.644531 40.511719 13.292969 40.511719 Z M 1.265625 39.246094 L 12.660156 39.246094 L 12.660156 35.609375 C 12.660156 33.773438 11.167969 32.285156 9.335938 32.285156 L 4.589844 32.285156 C 2.757812 32.285156 1.265625 33.773438 1.265625 35.609375 Z M 1.265625 39.246094 " fill-opacity="1" fill-rule="nonzero"/></g><g clip-path="url(#64cb551ff4)"><path fill="#000000" d="M 3.796875 40.511719 C 3.449219 40.511719 3.164062 40.230469 3.164062 39.878906 L 3.164062 36.082031 C 3.164062 35.734375 3.449219 35.449219 3.796875 35.449219 C 4.148438 35.449219 4.429688 35.734375 4.429688 36.082031 L 4.429688 39.878906 C 4.429688 40.230469 4.148438 40.511719 3.796875 40.511719 Z M 3.796875 40.511719 " fill-opacity="1" fill-rule="nonzero"/></g><g clip-path="url(#aeba69eebc)"><path fill="#000000" d="M 10.128906 40.511719 C 9.777344 40.511719 9.496094 40.230469 9.496094 39.878906 L 9.496094 36.082031 C 9.496094 35.734375 9.777344 35.449219 10.128906 35.449219 C 10.476562 35.449219 10.761719 35.734375 10.761719 36.082031 L 10.761719 39.878906 C 10.761719 40.230469 10.476562 40.511719 10.128906 40.511719 Z M 10.128906 40.511719 " fill-opacity="1" fill-rule="nonzero"/></g><path fill="#000000" d="M 6.964844 32.285156 C 4.867188 32.285156 3.164062 30.582031 3.164062 28.484375 C 3.164062 26.390625 4.867188 24.6875 6.964844 24.6875 C 9.058594 24.6875 10.761719 26.390625 10.761719 28.484375 C 10.761719 30.582031 9.058594 32.285156 6.964844 32.285156 Z M 6.964844 25.953125 C 5.566406 25.953125 4.429688 27.089844 4.429688 28.484375 C 4.429688 29.882812 5.566406 31.019531 6.964844 31.019531 C 8.359375 31.019531 9.496094 29.882812 9.496094 28.484375 C 9.496094 27.089844 8.359375 25.953125 6.964844 25.953125 Z M 6.964844 25.953125 " fill-opacity="1" fill-rule="nonzero"/><path fill="#000000" d="M 26.585938 15.824219 L 13.925781 15.824219 C 13.578125 15.824219 13.292969 15.542969 13.292969 15.191406 L 13.292969 10.917969 C 13.292969 8.390625 15.351562 6.332031 17.882812 6.332031 L 22.628906 6.332031 C 25.160156 6.332031 27.21875 8.390625 27.21875 10.917969 L 27.21875 15.191406 C 27.21875 15.542969 26.9375 15.824219 26.585938 15.824219 Z M 14.558594 14.558594 L 25.953125 14.558594 L 25.953125 10.917969 C 25.953125 9.085938 24.464844 7.597656 22.628906 7.597656 L 17.882812 7.597656 C 16.050781 7.597656 14.558594 9.085938 14.558594 10.917969 Z M 14.558594 14.558594 " fill-opacity="1" fill-rule="nonzero"/><path fill="#000000" d="M 17.089844 15.824219 C 16.742188 15.824219 16.457031 15.542969 16.457031 15.191406 L 16.457031 11.394531 C 16.457031 11.042969 16.742188 10.761719 17.089844 10.761719 C 17.441406 10.761719 17.722656 11.042969 17.722656 11.394531 L 17.722656 15.191406 C 17.722656 15.542969 17.441406 15.824219 17.089844 15.824219 Z M 17.089844 15.824219 " fill-opacity="1" fill-rule="nonzero"/><path fill="#000000" d="M 23.421875 15.824219 C 23.070312 15.824219 22.789062 15.542969 22.789062 15.191406 L 22.789062 11.394531 C 22.789062 11.042969 23.070312 10.761719 23.421875 10.761719 C 23.769531 10.761719 24.054688 11.042969 24.054688 11.394531 L 24.054688 15.191406 C 24.054688 15.542969 23.769531 15.824219 23.421875 15.824219 Z M 23.421875 15.824219 " fill-opacity="1" fill-rule="nonzero"/><path fill="#000000" d="M 20.257812 7.597656 C 18.164062 7.597656 16.457031 5.890625 16.457031 3.796875 C 16.457031 1.703125 18.164062 0 20.257812 0 C 22.351562 0 24.054688 1.703125 24.054688 3.796875 C 24.054688 5.890625 22.351562 7.597656 20.257812 7.597656 Z M 20.257812 1.265625 C 18.859375 1.265625 17.722656 2.402344 17.722656 3.796875 C 17.722656 5.195312 18.859375 6.332031 20.257812 6.332031 C 21.652344 6.332031 22.789062 5.195312 22.789062 3.796875 C 22.789062 2.402344 21.652344 1.265625 20.257812 1.265625 Z M 20.257812 1.265625 " fill-opacity="1" fill-rule="nonzero"/><path fill="#000000" d="M 8.863281 23.421875 C 8.730469 23.421875 8.597656 23.378906 8.484375 23.296875 C 8.203125 23.085938 8.144531 22.6875 8.355469 22.410156 L 12.152344 17.34375 C 12.363281 17.066406 12.761719 17.007812 13.039062 17.21875 C 13.320312 17.429688 13.375 17.824219 13.167969 18.105469 L 9.367188 23.167969 C 9.246094 23.335938 9.054688 23.421875 8.863281 23.421875 Z M 8.863281 23.421875 " fill-opacity="1" fill-rule="nonzero"/><path fill="#000000" d="M 31.652344 23.421875 C 31.460938 23.421875 31.269531 23.335938 31.144531 23.167969 L 27.347656 18.105469 C 27.136719 17.824219 27.195312 17.429688 27.472656 17.21875 C 27.753906 17.007812 28.148438 17.066406 28.359375 17.34375 L 32.15625 22.410156 C 32.367188 22.6875 32.3125 23.085938 32.03125 23.296875 C 31.917969 23.378906 31.785156 23.421875 31.652344 23.421875 Z M 31.652344 23.421875 " fill-opacity="1" fill-rule="nonzero"/><path fill="#000000" d="M 24.6875 38.613281 L 15.824219 38.613281 C 15.476562 38.613281 15.191406 38.332031 15.191406 37.980469 C 15.191406 37.632812 15.476562 37.347656 15.824219 37.347656 L 24.6875 37.347656 C 25.039062 37.347656 25.320312 37.632812 25.320312 37.980469 C 25.320312 38.332031 25.039062 38.613281 24.6875 38.613281 Z M 24.6875 38.613281 " fill-opacity="1" fill-rule="nonzero"/><path fill="#000000" d="M 16.457031 27.21875 C 16.109375 27.21875 15.824219 26.9375 15.824219 26.585938 C 15.824219 23.792969 18.097656 21.523438 20.890625 21.523438 C 21.238281 21.523438 21.523438 21.804688 21.523438 22.15625 C 21.523438 22.503906 21.238281 22.789062 20.890625 22.789062 C 18.796875 22.789062 17.089844 24.492188 17.089844 26.585938 C 17.089844 26.9375 16.808594 27.21875 16.457031 27.21875 Z M 16.457031 27.21875 " fill-opacity="1" fill-rule="nonzero"/><path fill="#000000" d="M 20.257812 24.6875 C 20.191406 24.6875 20.121094 24.675781 20.054688 24.65625 C 19.726562 24.542969 19.546875 24.1875 19.65625 23.855469 L 20.164062 22.328125 L 19.175781 21.335938 C 18.929688 21.089844 18.929688 20.6875 19.175781 20.441406 C 19.421875 20.195312 19.824219 20.195312 20.070312 20.441406 L 21.335938 21.707031 C 21.507812 21.878906 21.566406 22.128906 21.488281 22.355469 L 20.855469 24.253906 C 20.769531 24.519531 20.523438 24.6875 20.257812 24.6875 Z M 20.257812 24.6875 " fill-opacity="1" fill-rule="nonzero"/><path fill="#000000" d="M 19.625 30.386719 C 19.273438 30.386719 18.992188 30.101562 18.992188 29.753906 C 18.992188 29.402344 19.273438 29.117188 19.625 29.117188 C 21.71875 29.117188 23.421875 27.414062 23.421875 25.320312 C 23.421875 24.972656 23.707031 24.6875 24.054688 24.6875 C 24.40625 24.6875 24.6875 24.972656 24.6875 25.320312 C 24.6875 28.113281 22.417969 30.386719 19.625 30.386719 Z M 19.625 30.386719 " fill-opacity="1" fill-rule="nonzero"/><path fill="#000000" d="M 20.890625 31.652344 C 20.726562 31.652344 20.566406 31.589844 20.441406 31.464844 L 19.175781 30.199219 C 19.007812 30.03125 18.949219 29.777344 19.023438 29.550781 L 19.65625 27.652344 C 19.765625 27.320312 20.125 27.140625 20.457031 27.253906 C 20.789062 27.363281 20.96875 27.722656 20.855469 28.054688 L 20.347656 29.582031 L 21.335938 30.570312 C 21.585938 30.816406 21.585938 31.21875 21.335938 31.464844 C 21.214844 31.589844 21.050781 31.652344 20.890625 31.652344 Z M 20.890625 31.652344 " fill-opacity="1" fill-rule="nonzero"/><path fill="#000000" d="M 20.257812 34.183594 C 15.71875 34.183594 12.027344 30.492188 12.027344 25.953125 C 12.027344 21.417969 15.71875 17.726562 20.257812 17.726562 C 24.792969 17.726562 28.484375 21.417969 28.484375 25.953125 C 28.484375 30.492188 24.792969 34.183594 20.257812 34.183594 Z M 20.257812 18.992188 C 16.417969 18.992188 13.292969 22.113281 13.292969 25.953125 C 13.292969 29.792969 16.417969 32.917969 20.257812 32.917969 C 24.097656 32.917969 27.21875 29.792969 27.21875 25.953125 C 27.21875 22.113281 24.097656 18.992188 20.257812 18.992188 Z M 20.257812 18.992188 " fill-opacity="1" fill-rule="nonzero"/></svg>