<svg xmlns="http://www.w3.org/2000/svg" xmlns:xlink="http://www.w3.org/1999/xlink" width="55" zoomAndPan="magnify" viewBox="0 0 41.25 41.250001" height="55" preserveAspectRatio="xMidYMid meet" version="1.0"><defs><clipPath id="868f124cb6"><path d="M 0 0 L 40.511719 0 L 40.511719 40.511719 L 0 40.511719 Z M 0 0 " clip-rule="nonzero"/></clipPath></defs><g clip-path="url(#868f124cb6)"><path fill="#000000" d="M 37.8125 29.710938 L 22.957031 29.710938 C 22.214844 29.710938 21.605469 29.101562 21.605469 28.359375 L 21.605469 14.855469 L 39.164062 14.855469 L 39.164062 28.359375 C 39.164062 29.101562 38.554688 29.710938 37.8125 29.710938 Z M 31.058594 33.761719 L 9.453125 33.761719 L 9.453125 29.710938 C 9.726562 29.710938 9.996094 29.699219 10.265625 29.675781 C 10.707031 29.632812 11.082031 29.351562 11.253906 28.929688 L 11.695312 27.828125 C 12.226562 27.671875 12.734375 27.460938 13.21875 27.195312 L 14.3125 27.664062 C 14.726562 27.839844 15.199219 27.773438 15.539062 27.488281 C 15.746094 27.316406 15.945312 27.132812 16.136719 26.941406 C 16.328125 26.746094 16.515625 26.550781 16.6875 26.339844 C 16.96875 26 17.035156 25.53125 16.859375 25.117188 L 16.394531 24.023438 C 16.65625 23.539062 16.867188 23.027344 17.027344 22.5 L 18.125 22.058594 C 18.128906 22.054688 18.128906 22.054688 18.128906 22.054688 C 18.546875 21.886719 18.828125 21.507812 18.871094 21.070312 C 18.894531 20.800781 18.90625 20.527344 18.90625 20.257812 C 18.90625 19.984375 18.894531 19.714844 18.871094 19.445312 C 18.828125 19.003906 18.546875 18.625 18.125 18.457031 L 17.027344 18.015625 C 16.867188 17.484375 16.65625 16.976562 16.394531 16.488281 L 16.859375 15.394531 C 17.035156 14.980469 16.96875 14.511719 16.683594 14.171875 C 16.515625 13.964844 16.328125 13.765625 16.136719 13.574219 C 15.945312 13.378906 15.746094 13.195312 15.539062 13.023438 C 15.199219 12.738281 14.726562 12.671875 14.3125 12.851562 L 13.21875 13.316406 C 12.734375 13.054688 12.226562 12.84375 11.695312 12.683594 L 11.253906 11.582031 C 11.082031 11.164062 10.707031 10.878906 10.265625 10.835938 C 9.996094 10.8125 9.726562 10.800781 9.453125 10.800781 L 9.453125 6.753906 L 31.058594 6.753906 L 31.058594 8.101562 L 22.957031 8.101562 C 21.46875 8.101562 20.257812 9.3125 20.257812 10.804688 L 20.257812 28.359375 C 20.257812 29.851562 21.46875 31.058594 22.957031 31.058594 L 31.058594 31.058594 Z M 29.710938 39.164062 L 10.804688 39.164062 C 10.058594 39.164062 9.453125 38.554688 9.453125 37.8125 L 9.453125 35.113281 L 31.058594 35.113281 L 31.058594 37.8125 C 31.058594 38.554688 30.453125 39.164062 29.710938 39.164062 Z M 6.078125 25.863281 C 5.890625 25.75 5.664062 25.730469 5.460938 25.820312 L 4.152344 26.382812 C 4.003906 26.257812 3.863281 26.125 3.722656 25.984375 C 3.585938 25.847656 3.453125 25.707031 3.324219 25.558594 L 3.890625 24.246094 C 3.976562 24.042969 3.960938 23.816406 3.84375 23.628906 C 3.507812 23.070312 3.257812 22.46875 3.097656 21.832031 C 3.046875 21.621094 2.894531 21.453125 2.695312 21.371094 L 1.371094 20.839844 C 1.359375 20.648438 1.351562 20.453125 1.351562 20.257812 C 1.351562 20.0625 1.359375 19.867188 1.371094 19.671875 L 2.695312 19.144531 C 2.894531 19.0625 3.046875 18.890625 3.097656 18.679688 C 3.257812 18.046875 3.507812 17.441406 3.84375 16.882812 C 3.960938 16.695312 3.976562 16.464844 3.890625 16.265625 L 3.324219 14.957031 C 3.453125 14.808594 3.585938 14.664062 3.722656 14.527344 C 3.863281 14.386719 4.003906 14.257812 4.152344 14.128906 L 5.464844 14.695312 C 5.664062 14.777344 5.890625 14.761719 6.078125 14.648438 C 6.640625 14.3125 7.242188 14.0625 7.875 13.902344 C 8.085938 13.851562 8.257812 13.699219 8.339844 13.5 L 8.871094 12.175781 C 9.253906 12.144531 9.648438 12.144531 10.035156 12.175781 L 10.566406 13.5 C 10.648438 13.699219 10.820312 13.851562 11.03125 13.902344 C 11.664062 14.0625 12.265625 14.3125 12.828125 14.648438 C 13.015625 14.761719 13.242188 14.777344 13.441406 14.695312 L 14.753906 14.128906 C 14.902344 14.257812 15.042969 14.386719 15.183594 14.527344 C 15.320312 14.664062 15.453125 14.808594 15.582031 14.957031 L 15.015625 16.265625 C 14.929688 16.464844 14.945312 16.695312 15.0625 16.882812 C 15.398438 17.441406 15.648438 18.046875 15.808594 18.679688 C 15.859375 18.890625 16.011719 19.0625 16.210938 19.144531 L 17.535156 19.671875 C 17.546875 19.867188 17.554688 20.0625 17.554688 20.257812 C 17.554688 20.453125 17.546875 20.648438 17.535156 20.839844 L 16.210938 21.371094 C 16.011719 21.453125 15.859375 21.621094 15.808594 21.832031 C 15.648438 22.46875 15.398438 23.070312 15.0625 23.628906 C 14.945312 23.816406 14.929688 24.042969 15.015625 24.246094 L 15.582031 25.558594 C 15.453125 25.707031 15.320312 25.847656 15.183594 25.984375 C 15.042969 26.125 14.902344 26.257812 14.753906 26.382812 L 13.445312 25.820312 C 13.242188 25.730469 13.015625 25.75 12.828125 25.863281 C 12.265625 26.203125 11.664062 26.453125 11.03125 26.609375 C 10.820312 26.664062 10.648438 26.8125 10.566406 27.015625 L 10.035156 28.339844 C 9.652344 28.367188 9.257812 28.367188 8.871094 28.339844 L 8.339844 27.015625 C 8.257812 26.8125 8.085938 26.664062 7.875 26.609375 C 7.242188 26.453125 6.640625 26.203125 6.078125 25.863281 Z M 10.804688 1.351562 L 29.710938 1.351562 C 30.453125 1.351562 31.058594 1.957031 31.058594 2.699219 L 31.058594 5.402344 L 9.453125 5.402344 L 9.453125 2.699219 C 9.453125 1.957031 10.058594 1.351562 10.804688 1.351562 Z M 39.164062 10.804688 L 39.164062 13.503906 L 21.605469 13.503906 L 21.605469 10.804688 C 21.605469 10.058594 22.214844 9.453125 22.957031 9.453125 L 37.8125 9.453125 C 38.554688 9.453125 39.164062 10.058594 39.164062 10.804688 Z M 37.8125 8.101562 L 32.410156 8.101562 L 32.410156 2.699219 C 32.410156 1.210938 31.199219 0 29.710938 0 L 10.804688 0 C 9.3125 0 8.101562 1.210938 8.101562 2.699219 L 8.101562 11.035156 C 7.90625 11.167969 7.746094 11.351562 7.652344 11.585938 L 7.210938 12.683594 C 6.679688 12.84375 6.167969 13.054688 5.6875 13.316406 L 4.59375 12.851562 C 4.179688 12.671875 3.707031 12.738281 3.367188 13.023438 C 3.160156 13.195312 2.960938 13.378906 2.769531 13.574219 C 2.578125 13.765625 2.390625 13.964844 2.222656 14.171875 C 1.9375 14.511719 1.871094 14.980469 2.046875 15.394531 L 2.515625 16.488281 C 2.25 16.976562 2.039062 17.484375 1.878906 18.015625 L 0.777344 18.457031 C 0.359375 18.625 0.078125 19.003906 0.0351562 19.445312 C 0.0117188 19.714844 0 19.984375 0 20.257812 C 0 20.527344 0.0117188 20.800781 0.0351562 21.070312 C 0.078125 21.507812 0.359375 21.886719 0.78125 22.058594 L 1.878906 22.5 C 2.039062 23.027344 2.25 23.539062 2.515625 24.023438 L 2.046875 25.117188 C 1.871094 25.53125 1.9375 26 2.222656 26.339844 C 2.390625 26.550781 2.578125 26.746094 2.769531 26.941406 C 2.960938 27.132812 3.160156 27.316406 3.367188 27.492188 C 3.707031 27.773438 4.179688 27.839844 4.59375 27.664062 L 5.6875 27.195312 C 6.167969 27.460938 6.679688 27.671875 7.210938 27.828125 L 7.652344 28.933594 C 7.746094 29.164062 7.90625 29.347656 8.101562 29.476562 L 8.101562 37.8125 C 8.101562 39.304688 9.3125 40.511719 10.804688 40.511719 L 29.710938 40.511719 C 31.199219 40.511719 32.410156 39.304688 32.410156 37.8125 L 32.410156 31.058594 L 37.8125 31.058594 C 39.304688 31.058594 40.511719 29.851562 40.511719 28.359375 L 40.511719 10.804688 C 40.511719 9.3125 39.304688 8.101562 37.8125 8.101562 " fill-opacity="1" fill-rule="nonzero"/></g><path fill="#000000" d="M 5.402344 20.257812 C 5.402344 18.496094 6.535156 17 8.101562 16.441406 L 8.101562 17.929688 C 7.296875 18.398438 6.753906 19.261719 6.753906 20.257812 C 6.753906 21.25 7.296875 22.113281 8.101562 22.582031 L 8.101562 24.074219 C 6.535156 23.515625 5.402344 22.015625 5.402344 20.257812 Z M 9.453125 18.90625 C 10.195312 18.90625 10.804688 19.511719 10.804688 20.257812 C 10.804688 21 10.195312 21.605469 9.453125 21.605469 C 8.710938 21.605469 8.101562 21 8.101562 20.257812 C 8.101562 19.511719 8.710938 18.90625 9.453125 18.90625 Z M 13.503906 20.257812 C 13.503906 22.492188 11.6875 24.308594 9.453125 24.308594 L 9.453125 22.957031 C 10.945312 22.957031 12.152344 21.746094 12.152344 20.257812 C 12.152344 18.765625 10.945312 17.554688 9.453125 17.554688 L 9.453125 16.207031 C 11.6875 16.207031 13.503906 18.023438 13.503906 20.257812 Z M 14.855469 20.257812 C 14.855469 17.277344 12.429688 14.855469 9.453125 14.855469 C 6.476562 14.855469 4.050781 17.277344 4.050781 20.257812 C 4.050781 23.234375 6.476562 25.660156 9.453125 25.660156 C 12.429688 25.660156 14.855469 23.234375 14.855469 20.257812 " fill-opacity="1" fill-rule="nonzero"/><path fill="#000000" d="M 24.308594 20.257812 L 24.308594 17.554688 L 36.460938 17.554688 L 36.464844 20.257812 Z M 36.460938 16.207031 L 24.308594 16.207031 C 23.5625 16.207031 22.957031 16.8125 22.957031 17.554688 L 22.957031 20.257812 C 22.957031 21 23.5625 21.605469 24.308594 21.605469 L 36.460938 21.605469 C 37.207031 21.605469 37.8125 21 37.8125 20.257812 L 37.8125 17.554688 C 37.8125 16.8125 37.207031 16.207031 36.460938 16.207031 " fill-opacity="1" fill-rule="nonzero"/><path fill="#000000" d="M 17.554688 4.050781 L 18.230469 4.050781 C 18.601562 4.050781 18.90625 3.746094 18.90625 3.375 C 18.90625 3.003906 18.601562 2.699219 18.230469 2.699219 L 17.554688 2.699219 C 17.183594 2.699219 16.878906 3.003906 16.878906 3.375 C 16.878906 3.746094 17.183594 4.050781 17.554688 4.050781 " fill-opacity="1" fill-rule="nonzero"/><path fill="#000000" d="M 20.933594 4.050781 L 22.957031 4.050781 C 23.328125 4.050781 23.632812 3.746094 23.632812 3.375 C 23.632812 3.003906 23.328125 2.699219 22.957031 2.699219 L 20.933594 2.699219 C 20.558594 2.699219 20.257812 3.003906 20.257812 3.375 C 20.257812 3.746094 20.558594 4.050781 20.933594 4.050781 " fill-opacity="1" fill-rule="nonzero"/><path fill="#000000" d="M 21.605469 36.460938 L 18.90625 36.460938 C 18.535156 36.460938 18.230469 36.765625 18.230469 37.136719 C 18.230469 37.507812 18.535156 37.8125 18.90625 37.8125 L 21.605469 37.8125 C 21.980469 37.8125 22.28125 37.507812 22.28125 37.136719 C 22.28125 36.765625 21.980469 36.460938 21.605469 36.460938 " fill-opacity="1" fill-rule="nonzero"/><path fill="#000000" d="M 24.308594 10.804688 L 23.632812 10.804688 C 23.261719 10.804688 22.957031 11.105469 22.957031 11.480469 C 22.957031 11.851562 23.261719 12.152344 23.632812 12.152344 L 24.308594 12.152344 C 24.679688 12.152344 24.984375 11.851562 24.984375 11.480469 C 24.984375 11.105469 24.679688 10.804688 24.308594 10.804688 " fill-opacity="1" fill-rule="nonzero"/><path fill="#000000" d="M 27.683594 10.804688 L 27.007812 10.804688 C 26.636719 10.804688 26.332031 11.105469 26.332031 11.480469 C 26.332031 11.851562 26.636719 12.152344 27.007812 12.152344 L 27.683594 12.152344 C 28.054688 12.152344 28.359375 11.851562 28.359375 11.480469 C 28.359375 11.105469 28.054688 10.804688 27.683594 10.804688 " fill-opacity="1" fill-rule="nonzero"/><path fill="#000000" d="M 33.761719 12.152344 L 37.136719 12.152344 C 37.507812 12.152344 37.8125 11.851562 37.8125 11.480469 C 37.8125 11.105469 37.507812 10.804688 37.136719 10.804688 L 33.761719 10.804688 C 33.390625 10.804688 33.085938 11.105469 33.085938 11.480469 C 33.085938 11.851562 33.390625 12.152344 33.761719 12.152344 " fill-opacity="1" fill-rule="nonzero"/><path fill="#000000" d="M 31.058594 22.957031 L 24.984375 22.957031 C 24.613281 22.957031 24.308594 23.261719 24.308594 23.632812 C 24.308594 24.003906 24.613281 24.308594 24.984375 24.308594 L 31.058594 24.308594 C 31.433594 24.308594 31.734375 24.003906 31.734375 23.632812 C 31.734375 23.261719 31.433594 22.957031 31.058594 22.957031 " fill-opacity="1" fill-rule="nonzero"/><path fill="#000000" d="M 29.710938 25.660156 L 24.984375 25.660156 C 24.613281 25.660156 24.308594 25.960938 24.308594 26.332031 C 24.308594 26.707031 24.613281 27.007812 24.984375 27.007812 L 29.710938 27.007812 C 30.082031 27.007812 30.386719 26.707031 30.386719 26.332031 C 30.386719 25.960938 30.082031 25.660156 29.710938 25.660156 " fill-opacity="1" fill-rule="nonzero"/><path fill="#000000" d="M 35.785156 22.957031 L 33.761719 22.957031 C 33.390625 22.957031 33.085938 23.261719 33.085938 23.632812 C 33.085938 24.003906 33.390625 24.308594 33.761719 24.308594 L 35.785156 24.308594 C 36.160156 24.308594 36.460938 24.003906 36.460938 23.632812 C 36.460938 23.261719 36.160156 22.957031 35.785156 22.957031 " fill-opacity="1" fill-rule="nonzero"/><path fill="#000000" d="M 34.4375 25.660156 L 32.410156 25.660156 C 32.039062 25.660156 31.734375 25.960938 31.734375 26.332031 C 31.734375 26.707031 32.039062 27.007812 32.410156 27.007812 L 34.4375 27.007812 C 34.808594 27.007812 35.113281 26.707031 35.113281 26.332031 C 35.113281 25.960938 34.808594 25.660156 34.4375 25.660156 " fill-opacity="1" fill-rule="nonzero"/></svg>