<svg xmlns="http://www.w3.org/2000/svg" xmlns:xlink="http://www.w3.org/1999/xlink" width="55" zoomAndPan="magnify" viewBox="0 0 41.25 41.250001" height="55" preserveAspectRatio="xMidYMid meet" version="1.0"><defs><clipPath id="63d9467449"><path d="M 0 0 L 40.511719 0 L 40.511719 29 L 0 29 Z M 0 0 " clip-rule="nonzero"/></clipPath><clipPath id="3af095c6c2"><path d="M 4 20 L 36 20 L 36 40.511719 L 4 40.511719 Z M 4 20 " clip-rule="nonzero"/></clipPath></defs><g clip-path="url(#63d9467449)"><path fill="#000000" d="M 15.472656 28.824219 C 12.507812 28.824219 9.945312 26.949219 9.019531 24.171875 C 8.308594 24.410156 7.570312 24.550781 6.8125 24.550781 C 3.0625 24.550781 0 21.492188 0 17.742188 C 0 14.941406 1.734375 12.425781 4.296875 11.402344 C 3.488281 10.21875 3.0625 8.792969 3.0625 7.320312 C 3.0625 3.289062 6.335938 0.0117188 10.371094 0.0117188 C 12.957031 0.0117188 15.355469 1.386719 16.660156 3.570312 C 17.941406 2.148438 19.769531 1.339844 21.691406 1.339844 C 24.492188 1.339844 27.03125 3.074219 28.03125 5.660156 C 29.261719 4.996094 30.640625 4.640625 32.0625 4.640625 C 36.714844 4.640625 40.511719 8.4375 40.511719 13.089844 C 40.511719 17.765625 36.714844 21.539062 32.0625 21.539062 C 31.496094 21.539062 30.949219 21.492188 30.402344 21.371094 C 29.238281 23.554688 26.914062 24.957031 24.421875 24.957031 C 23.519531 24.957031 22.664062 24.789062 21.859375 24.457031 C 20.863281 27.042969 18.296875 28.824219 15.472656 28.824219 Z M 9.328125 23.058594 C 9.398438 23.058594 9.46875 23.082031 9.539062 23.105469 C 9.683594 23.175781 9.753906 23.292969 9.800781 23.4375 C 10.441406 26.046875 12.792969 27.875 15.5 27.875 C 18.085938 27.875 20.386719 26.144531 21.121094 23.675781 C 21.148438 23.53125 21.242188 23.414062 21.382812 23.367188 C 21.503906 23.316406 21.667969 23.316406 21.789062 23.390625 C 22.617188 23.792969 23.496094 24.007812 24.421875 24.007812 C 26.675781 24.007812 28.765625 22.675781 29.738281 20.636719 C 29.832031 20.421875 30.046875 20.328125 30.285156 20.375 C 30.855469 20.519531 31.472656 20.589844 32.0625 20.589844 C 36.21875 20.589844 39.5625 17.21875 39.5625 13.089844 C 39.5625 8.960938 36.21875 5.589844 32.0625 5.589844 C 30.640625 5.589844 29.238281 5.992188 28.054688 6.753906 C 27.910156 6.847656 27.769531 6.847656 27.625 6.800781 C 27.484375 6.753906 27.386719 6.632812 27.339844 6.492188 C 26.605469 4.023438 24.304688 2.289062 21.714844 2.289062 C 19.839844 2.289062 18.0625 3.191406 16.96875 4.710938 C 16.875 4.828125 16.707031 4.902344 16.542969 4.902344 C 16.375 4.878906 16.234375 4.78125 16.164062 4.617188 C 15.09375 2.410156 12.839844 0.960938 10.371094 0.960938 C 6.859375 0.960938 4.011719 3.808594 4.011719 7.320312 C 4.011719 8.792969 4.507812 10.21875 5.433594 11.355469 C 5.554688 11.476562 5.578125 11.640625 5.53125 11.785156 C 5.484375 11.925781 5.363281 12.070312 5.199219 12.117188 C 2.707031 12.828125 0.949219 15.128906 0.949219 17.742188 C 0.949219 20.96875 3.582031 23.578125 6.8125 23.578125 C 7.617188 23.578125 8.402344 23.414062 9.136719 23.105469 C 9.207031 23.082031 9.257812 23.058594 9.328125 23.058594 Z M 9.328125 23.058594 " fill-opacity="1" fill-rule="evenodd"/></g><path fill="#000000" d="M 32.0625 18.808594 C 31.589844 18.808594 31.136719 18.761719 30.6875 18.644531 C 30.425781 18.59375 30.285156 18.335938 30.332031 18.074219 C 30.402344 17.8125 30.664062 17.644531 30.925781 17.71875 C 31.28125 17.8125 31.683594 17.859375 32.0625 17.859375 C 34.699219 17.859375 36.835938 15.699219 36.835938 13.066406 C 36.835938 10.429688 34.699219 8.296875 32.0625 8.296875 C 31.136719 8.296875 30.261719 8.554688 29.5 9.03125 C 29.289062 9.171875 28.980469 9.125 28.835938 8.886719 C 28.695312 8.675781 28.765625 8.390625 28.980469 8.246094 C 29.90625 7.652344 30.972656 7.34375 32.0625 7.34375 C 35.222656 7.34375 37.785156 9.933594 37.785156 13.066406 C 37.785156 16.222656 35.222656 18.808594 32.0625 18.808594 Z M 7.167969 10.40625 C 7.023438 10.40625 6.882812 10.359375 6.789062 10.242188 C 6.125 9.410156 5.765625 8.390625 5.765625 7.320312 C 5.765625 4.78125 7.832031 2.71875 10.371094 2.71875 C 10.632812 2.71875 10.847656 2.929688 10.847656 3.191406 C 10.847656 3.453125 10.632812 3.667969 10.371094 3.667969 C 8.355469 3.691406 6.714844 5.328125 6.714844 7.320312 C 6.714844 8.175781 7 8.984375 7.523438 9.625 C 7.691406 9.835938 7.664062 10.121094 7.453125 10.289062 C 7.382812 10.382812 7.261719 10.40625 7.167969 10.40625 Z M 7.167969 10.40625 " fill-opacity="1" fill-rule="evenodd"/><g clip-path="url(#3af095c6c2)"><path fill="#000000" d="M 22.238281 40.5 L 17.492188 40.5 C 17.039062 40.5 16.683594 40.144531 16.683594 39.695312 L 16.683594 37.675781 C 15.546875 37.390625 14.453125 36.917969 13.433594 36.324219 L 12.03125 37.726562 C 11.867188 37.867188 11.675781 37.960938 11.441406 37.960938 C 11.226562 37.960938 11.035156 37.867188 10.871094 37.726562 L 7.523438 34.378906 C 7.214844 34.070312 7.214844 33.546875 7.523438 33.238281 L 8.949219 31.816406 C 8.355469 30.792969 7.878906 29.703125 7.59375 28.539062 L 5.625 28.539062 C 5.175781 28.539062 4.816406 28.183594 4.816406 27.734375 L 4.816406 23.886719 C 4.816406 23.746094 4.890625 23.601562 5.007812 23.507812 C 5.125 23.4375 5.269531 23.390625 5.410156 23.4375 C 5.863281 23.53125 6.3125 23.601562 6.789062 23.601562 C 7.59375 23.601562 8.402344 23.4375 9.136719 23.105469 C 9.257812 23.058594 9.421875 23.058594 9.539062 23.128906 C 9.660156 23.175781 9.753906 23.292969 9.800781 23.4375 C 10.441406 26.070312 12.769531 27.898438 15.472656 27.898438 C 18.0625 27.898438 20.386719 26.167969 21.097656 23.675781 C 21.148438 23.53125 21.242188 23.4375 21.382812 23.367188 C 21.503906 23.316406 21.644531 23.316406 21.789062 23.390625 C 22.59375 23.792969 23.496094 24.007812 24.421875 24.007812 C 26.675781 24.007812 28.765625 22.675781 29.714844 20.636719 C 29.808594 20.421875 30.046875 20.328125 30.261719 20.375 C 30.6875 20.46875 31.113281 20.542969 31.566406 20.566406 C 31.753906 20.589844 31.898438 20.707031 31.96875 20.875 C 32.136719 21.347656 32.277344 21.824219 32.394531 22.296875 L 34.199219 22.296875 C 34.652344 22.296875 35.03125 22.652344 35.03125 23.105469 L 35.03125 27.851562 C 35.03125 28.300781 34.652344 28.660156 34.199219 28.660156 L 32.324219 28.660156 C 32.015625 29.820312 31.542969 30.960938 30.902344 31.980469 L 32.230469 33.308594 C 32.371094 33.476562 32.46875 33.667969 32.46875 33.902344 C 32.46875 34.117188 32.371094 34.308594 32.230469 34.472656 L 28.882812 37.820312 C 28.574219 38.128906 28.054688 38.128906 27.746094 37.820312 L 26.34375 36.417969 C 25.324219 37.011719 24.207031 37.464844 23.046875 37.75 L 23.046875 39.71875 C 23.046875 40.144531 22.664062 40.5 22.238281 40.5 Z M 17.632812 39.550781 L 22.097656 39.550781 L 22.097656 37.367188 C 22.097656 37.132812 22.238281 36.941406 22.453125 36.894531 C 23.78125 36.609375 25.015625 36.109375 26.15625 35.398438 C 26.34375 35.28125 26.582031 35.328125 26.746094 35.46875 L 28.289062 37.035156 L 31.445312 33.878906 L 29.953125 32.382812 C 29.785156 32.21875 29.761719 31.980469 29.878906 31.792969 C 30.617188 30.628906 31.164062 29.394531 31.472656 28.066406 C 31.519531 27.851562 31.730469 27.683594 31.945312 27.683594 L 34.035156 27.683594 L 34.035156 23.246094 L 31.992188 23.246094 C 31.78125 23.246094 31.589844 23.082031 31.542969 22.867188 C 31.445312 22.394531 31.304688 21.917969 31.164062 21.46875 C 30.902344 21.445312 30.640625 21.417969 30.378906 21.347656 C 29.191406 23.53125 26.890625 24.933594 24.375 24.933594 C 23.496094 24.933594 22.640625 24.765625 21.8125 24.433594 C 20.8125 27.042969 18.273438 28.824219 15.449219 28.824219 C 12.484375 28.824219 9.921875 26.925781 8.996094 24.171875 C 8.28125 24.410156 7.546875 24.527344 6.789062 24.527344 C 6.433594 24.527344 6.097656 24.503906 5.765625 24.457031 L 5.765625 27.566406 L 7.949219 27.566406 C 8.164062 27.566406 8.355469 27.734375 8.402344 27.945312 C 8.710938 29.25 9.207031 30.484375 9.945312 31.625 C 10.0625 31.816406 10.015625 32.050781 9.875 32.195312 L 8.308594 33.785156 L 11.441406 36.941406 L 13.03125 35.351562 C 13.171875 35.207031 13.433594 35.183594 13.625 35.304688 C 14.738281 36.015625 15.972656 36.539062 17.253906 36.847656 C 17.46875 36.894531 17.632812 37.082031 17.632812 37.296875 L 17.609375 39.550781 Z M 11.558594 37.058594 Z M 11.558594 37.058594 " fill-opacity="1" fill-rule="evenodd"/></g><path fill="#000000" d="M 19.914062 35.421875 C 17.324219 35.421875 14.855469 34.425781 12.980469 32.621094 C 11.105469 30.816406 10.015625 28.398438 9.921875 25.808594 C 9.921875 25.621094 10.039062 25.429688 10.253906 25.359375 C 10.441406 25.289062 10.65625 25.359375 10.773438 25.527344 C 11.890625 26.996094 13.648438 27.898438 15.5 27.898438 C 18.085938 27.898438 20.386719 26.167969 21.097656 23.675781 C 21.148438 23.53125 21.242188 23.4375 21.382812 23.367188 C 21.503906 23.316406 21.644531 23.316406 21.789062 23.390625 C 22.59375 23.792969 23.496094 24.007812 24.421875 24.007812 C 26.035156 24.007812 27.53125 23.367188 28.671875 22.203125 C 28.789062 22.085938 28.957031 22.011719 29.121094 22.058594 C 29.289062 22.109375 29.40625 22.226562 29.453125 22.367188 C 29.785156 23.367188 29.929688 24.386719 29.929688 25.429688 C 29.929688 30.9375 25.441406 35.421875 19.914062 35.421875 Z M 11.035156 27.164062 C 11.84375 31.363281 15.523438 34.472656 19.914062 34.472656 C 24.921875 34.472656 28.980469 30.414062 28.980469 25.429688 C 28.980469 24.742188 28.90625 24.054688 28.742188 23.390625 C 27.53125 24.410156 26.011719 24.957031 24.398438 24.957031 C 23.519531 24.957031 22.664062 24.789062 21.835938 24.457031 C 20.839844 27.066406 18.296875 28.847656 15.472656 28.847656 C 13.835938 28.824219 12.246094 28.230469 11.035156 27.164062 Z M 11.035156 27.164062 " fill-opacity="1" fill-rule="evenodd"/></svg>