<svg xmlns="http://www.w3.org/2000/svg" xmlns:xlink="http://www.w3.org/1999/xlink" width="40" zoomAndPan="magnify" viewBox="0 0 30 30.000001" height="40" preserveAspectRatio="xMidYMid meet" version="1.0"><defs><clipPath id="1804d7fca7"><path d="M 0.484375 0 L 29.515625 0 L 29.515625 29.03125 L 0.484375 29.03125 Z M 0.484375 0 " clip-rule="nonzero"/></clipPath></defs><g clip-path="url(#1804d7fca7)"><path fill="#31ac7d" d="M 26.128906 23.84375 L 26.128906 21.089844 L 28.546875 19.703125 L 28.546875 22.460938 Z M 22.742188 19.703125 L 25.160156 21.089844 L 25.160156 23.84375 L 22.742188 22.460938 Z M 18.628906 22.324219 L 15.484375 20.523438 L 15.484375 18.667969 L 18.628906 16.871094 C 18.777344 16.785156 18.871094 16.625 18.871094 16.453125 L 18.871094 12.582031 C 18.871094 12.40625 18.777344 12.246094 18.628906 12.160156 L 15.484375 10.363281 L 15.484375 8.507812 L 18.402344 6.839844 L 21.773438 8.523438 L 21.773438 10.160156 C 21.773438 10.335938 21.867188 10.496094 22.019531 10.582031 L 25.160156 12.378906 L 25.160156 16.652344 L 22.019531 18.453125 C 21.867188 18.535156 21.773438 18.695312 21.773438 18.871094 L 21.773438 22.472656 L 18.871094 24.289062 L 18.871094 22.742188 C 18.871094 22.566406 18.777344 22.40625 18.628906 22.324219 Z M 15.484375 27.714844 L 15.484375 24.960938 L 17.902344 23.574219 L 17.902344 26.332031 Z M 12.097656 23.574219 L 14.515625 24.960938 L 14.515625 27.714844 L 12.097656 26.332031 Z M 8.226562 22.472656 L 8.226562 18.871094 C 8.226562 18.695312 8.132812 18.535156 7.980469 18.453125 L 4.839844 16.652344 L 4.839844 12.378906 L 7.980469 10.582031 C 8.132812 10.496094 8.226562 10.335938 8.226562 10.160156 L 8.226562 8.523438 L 11.597656 6.839844 L 14.515625 8.507812 L 14.515625 10.363281 L 11.371094 12.160156 C 11.222656 12.246094 11.128906 12.40625 11.128906 12.582031 L 11.128906 16.453125 C 11.128906 16.625 11.222656 16.785156 11.371094 16.871094 L 14.515625 18.667969 L 14.515625 20.523438 L 11.371094 22.324219 C 11.222656 22.40625 11.128906 22.566406 11.128906 22.742188 L 11.128906 24.289062 Z M 4.839844 23.84375 L 4.839844 21.089844 L 7.257812 19.703125 L 7.257812 22.460938 Z M 1.453125 19.703125 L 3.871094 21.089844 L 3.871094 23.84375 L 1.453125 22.460938 Z M 4.355469 20.25 L 1.941406 18.871094 L 4.355469 17.492188 L 6.765625 18.871094 Z M 1.453125 7.125 L 3.871094 8.507812 L 3.871094 11.261719 L 1.453125 9.878906 Z M 4.355469 4.914062 L 6.765625 6.289062 L 4.355469 7.667969 L 1.941406 6.289062 Z M 4.839844 8.507812 L 7.257812 7.125 L 7.257812 9.878906 L 4.839844 11.261719 Z M 15 1.042969 L 17.410156 2.417969 L 15 3.796875 L 12.589844 2.417969 Z M 15.484375 4.636719 L 17.902344 3.253906 L 17.902344 6.007812 L 15.484375 7.390625 Z M 12.097656 3.253906 L 14.515625 4.636719 L 14.515625 7.390625 L 12.097656 6.007812 Z M 15 13.957031 L 12.589844 12.582031 L 15 11.203125 L 17.410156 12.582031 Z M 15.484375 14.796875 L 17.902344 13.414062 L 17.902344 16.171875 L 15.484375 17.554688 Z M 12.097656 13.414062 L 14.515625 14.796875 L 14.515625 17.554688 L 12.097656 16.171875 Z M 15 24.121094 L 12.589844 22.742188 L 15 21.363281 L 17.410156 22.742188 Z M 25.644531 4.914062 L 28.058594 6.289062 L 25.644531 7.667969 L 23.234375 6.289062 Z M 22.742188 7.125 L 25.160156 8.507812 L 25.160156 11.261719 L 22.742188 9.878906 Z M 25.644531 20.25 L 23.234375 18.871094 L 25.644531 17.492188 L 28.058594 18.871094 Z M 26.128906 11.261719 L 26.128906 8.507812 L 28.546875 7.125 L 28.546875 9.878906 Z M 29.273438 10.582031 C 29.421875 10.496094 29.515625 10.335938 29.515625 10.160156 L 29.515625 6.289062 C 29.515625 6.117188 29.421875 5.957031 29.273438 5.871094 L 25.886719 3.933594 C 25.738281 3.851562 25.550781 3.851562 25.40625 3.933594 L 22.019531 5.871094 C 21.867188 5.957031 21.773438 6.117188 21.773438 6.289062 L 21.773438 7.441406 L 18.871094 5.992188 L 18.871094 2.417969 C 18.871094 2.246094 18.777344 2.085938 18.628906 2 L 15.238281 0.0625 C 15.09375 -0.0195312 14.90625 -0.0195312 14.761719 0.0625 L 11.371094 2 C 11.222656 2.085938 11.128906 2.246094 11.128906 2.417969 L 11.128906 5.992188 L 8.226562 7.441406 L 8.226562 6.289062 C 8.226562 6.117188 8.132812 5.957031 7.980469 5.871094 L 4.59375 3.933594 C 4.449219 3.851562 4.265625 3.851562 4.113281 3.933594 L 0.726562 5.871094 C 0.578125 5.957031 0.484375 6.117188 0.484375 6.289062 L 0.484375 10.160156 C 0.484375 10.335938 0.578125 10.496094 0.726562 10.582031 L 3.871094 12.378906 L 3.871094 16.652344 L 0.726562 18.453125 C 0.578125 18.535156 0.484375 18.695312 0.484375 18.871094 L 0.484375 22.742188 C 0.484375 22.914062 0.578125 23.078125 0.726562 23.160156 L 4.113281 25.097656 C 4.1875 25.140625 4.273438 25.160156 4.355469 25.160156 C 4.4375 25.160156 4.519531 25.140625 4.59375 25.097656 L 7.730469 23.304688 L 11.128906 25.429688 L 11.128906 26.613281 C 11.128906 26.785156 11.222656 26.949219 11.371094 27.03125 L 14.761719 28.96875 C 14.832031 29.011719 14.917969 29.03125 15 29.03125 C 15.082031 29.03125 15.167969 29.011719 15.238281 28.96875 L 18.628906 27.03125 C 18.777344 26.949219 18.871094 26.785156 18.871094 26.613281 L 18.871094 25.429688 L 22.269531 23.304688 L 25.40625 25.097656 C 25.480469 25.140625 25.5625 25.160156 25.644531 25.160156 C 25.726562 25.160156 25.8125 25.140625 25.886719 25.097656 L 29.273438 23.160156 C 29.421875 23.078125 29.515625 22.914062 29.515625 22.742188 L 29.515625 18.871094 C 29.515625 18.695312 29.421875 18.535156 29.273438 18.453125 L 26.128906 16.652344 L 26.128906 12.378906 L 29.273438 10.582031 " fill-opacity="1" fill-rule="nonzero"/></g></svg>