<svg xmlns="http://www.w3.org/2000/svg" xmlns:xlink="http://www.w3.org/1999/xlink" width="40" zoomAndPan="magnify" viewBox="0 0 30 30.000001" height="40" preserveAspectRatio="xMidYMid meet" version="1.0"><defs><clipPath id="837145ee15"><path d="M 0.484375 0.5625 L 29.515625 0.5625 L 29.515625 28.144531 L 0.484375 28.144531 Z M 0.484375 0.5625 " clip-rule="nonzero"/></clipPath></defs><g clip-path="url(#837145ee15)"><path fill="#31ac7d" d="M 24.671875 8.070312 L 23.457031 3.941406 C 23.351562 3.589844 23.117188 3.296875 22.792969 3.121094 C 22.46875 2.945312 22.097656 2.90625 21.742188 3.007812 L 21.507812 3.078125 L 20.765625 1.507812 C 20.453125 0.847656 19.660156 0.5625 18.996094 0.875 L 4.171875 7.878906 C 4.078125 7.878906 3.984375 7.882812 3.886719 7.890625 C 1.980469 8.042969 0.488281 9.660156 0.488281 11.574219 L 0.488281 24.765625 C 0.488281 26.804688 2.144531 28.460938 4.183594 28.460938 L 23.5 28.460938 C 25.539062 28.460938 27.195312 26.804688 27.195312 24.765625 L 27.195312 21.707031 C 28.511719 21.476562 29.511719 20.324219 29.511719 18.945312 L 29.511719 17.394531 C 29.511719 16.015625 28.507812 14.863281 27.195312 14.632812 L 27.195312 11.574219 C 27.195312 9.96875 26.1875 8.574219 24.671875 8.070312 Z M 21.957031 3.734375 C 22.117188 3.6875 22.285156 3.707031 22.429688 3.785156 C 22.578125 3.863281 22.683594 3.996094 22.730469 4.15625 L 23.832031 7.894531 C 23.757812 7.886719 23.6875 7.882812 23.613281 7.882812 C 23.574219 7.878906 23.535156 7.878906 23.5 7.878906 L 7.898438 7.878906 L 21.410156 3.898438 Z M 19.320312 1.558594 C 19.398438 1.523438 19.480469 1.503906 19.5625 1.503906 C 19.777344 1.503906 19.984375 1.625 20.082031 1.832031 L 20.773438 3.296875 L 7.136719 7.3125 Z M 23.5 27.414062 L 4.183594 27.414062 C 2.722656 27.414062 1.535156 26.226562 1.535156 24.765625 L 1.535156 11.574219 C 1.535156 10.203125 2.605469 9.042969 3.96875 8.933594 C 4.042969 8.929688 4.113281 8.925781 4.183594 8.925781 L 23.5 8.925781 C 23.527344 8.925781 23.554688 8.925781 23.589844 8.929688 C 23.816406 8.933594 24.042969 8.972656 24.265625 9.039062 C 25.375 9.371094 26.148438 10.414062 26.148438 11.574219 L 26.148438 14.589844 L 21.183594 14.589844 C 19.636719 14.589844 18.378906 15.847656 18.378906 17.394531 L 18.378906 18.945312 C 18.378906 20.492188 19.636719 21.753906 21.183594 21.753906 L 26.148438 21.753906 L 26.148438 24.765625 C 26.148438 26.226562 24.960938 27.414062 23.5 27.414062 Z M 28.464844 17.394531 L 28.464844 18.945312 C 28.464844 19.746094 27.925781 20.421875 27.195312 20.636719 C 27.039062 20.679688 26.875 20.707031 26.703125 20.707031 L 21.183594 20.707031 C 20.214844 20.707031 19.421875 19.914062 19.421875 18.945312 L 19.421875 17.394531 C 19.421875 16.425781 20.214844 15.636719 21.183594 15.636719 L 26.703125 15.636719 C 26.875 15.636719 27.039062 15.660156 27.195312 15.707031 C 27.925781 15.917969 28.464844 16.59375 28.464844 17.394531 Z M 28.464844 17.394531 " fill-opacity="1" fill-rule="nonzero"/></g><path fill="#31ac7d" d="M 15.601562 18.949219 C 15.417969 18.691406 15.175781 18.5 14.894531 18.355469 C 14.632812 18.222656 14.359375 18.136719 14.074219 18.078125 C 14.042969 18.074219 14.015625 18.066406 13.988281 18.058594 C 13.988281 18.054688 13.988281 18.046875 13.984375 18.042969 C 14.011719 18.035156 14.039062 18.023438 14.066406 18.015625 C 14.339844 17.929688 14.597656 17.8125 14.832031 17.648438 C 15.210938 17.390625 15.453125 17.039062 15.554688 16.589844 C 15.617188 16.308594 15.613281 16.023438 15.574219 15.738281 C 15.546875 15.558594 15.5 15.386719 15.425781 15.222656 C 15.257812 14.863281 14.976562 14.621094 14.621094 14.460938 C 14.367188 14.347656 14.101562 14.273438 13.828125 14.230469 C 13.625 14.195312 13.421875 14.175781 13.214844 14.148438 C 13.140625 14.140625 13.140625 14.140625 13.136719 14.0625 C 13.136719 14.027344 13.136719 13.992188 13.136719 13.953125 C 13.136719 13.574219 13.136719 13.195312 13.136719 12.816406 C 13.136719 12.730469 13.128906 12.722656 13.046875 12.722656 C 12.738281 12.722656 12.425781 12.722656 12.113281 12.722656 C 12.035156 12.722656 12.027344 12.730469 12.027344 12.808594 C 12.027344 12.828125 12.027344 12.847656 12.027344 12.863281 C 12.027344 13.238281 12.027344 13.613281 12.027344 13.988281 C 12.027344 14.015625 12.027344 14.039062 12.027344 14.0625 C 12.023438 14.117188 12.015625 14.121094 11.960938 14.125 C 11.9375 14.128906 11.917969 14.125 11.894531 14.125 C 11.621094 14.125 11.347656 14.125 11.074219 14.125 C 10.925781 14.125 10.9375 14.132812 10.9375 13.988281 C 10.9375 13.597656 10.9375 13.203125 10.9375 12.8125 C 10.9375 12.734375 10.929688 12.722656 10.855469 12.722656 C 10.539062 12.722656 10.222656 12.722656 9.90625 12.722656 C 9.835938 12.722656 9.828125 12.734375 9.824219 12.808594 C 9.824219 12.878906 9.824219 12.949219 9.824219 13.023438 C 9.824219 13.359375 9.824219 13.695312 9.824219 14.03125 C 9.824219 14.121094 9.820312 14.125 9.730469 14.125 C 9.703125 14.128906 9.675781 14.125 9.648438 14.125 C 9.003906 14.125 8.359375 14.125 7.714844 14.125 C 7.621094 14.125 7.617188 14.132812 7.617188 14.222656 C 7.617188 14.5 7.617188 14.773438 7.617188 15.050781 C 7.617188 15.148438 7.621094 15.15625 7.726562 15.15625 C 7.875 15.15625 8.023438 15.152344 8.171875 15.15625 C 8.289062 15.160156 8.410156 15.171875 8.523438 15.1875 C 8.734375 15.222656 8.8125 15.300781 8.851562 15.503906 C 8.871094 15.617188 8.882812 15.734375 8.882812 15.847656 C 8.886719 17.484375 8.886719 19.117188 8.882812 20.75 C 8.882812 20.84375 8.878906 20.9375 8.863281 21.03125 C 8.851562 21.105469 8.828125 21.179688 8.804688 21.25 C 8.785156 21.308594 8.742188 21.351562 8.683594 21.371094 C 8.605469 21.394531 8.527344 21.425781 8.445312 21.429688 C 8.285156 21.445312 8.121094 21.445312 7.957031 21.453125 C 7.871094 21.453125 7.78125 21.449219 7.695312 21.453125 C 7.628906 21.453125 7.621094 21.464844 7.617188 21.53125 C 7.613281 21.546875 7.617188 21.5625 7.617188 21.582031 C 7.617188 21.835938 7.617188 22.09375 7.617188 22.347656 C 7.617188 22.480469 7.617188 22.480469 7.746094 22.480469 C 8.40625 22.480469 9.0625 22.480469 9.722656 22.480469 C 9.820312 22.480469 9.824219 22.484375 9.824219 22.582031 C 9.824219 22.601562 9.824219 22.621094 9.824219 22.640625 C 9.824219 23.011719 9.824219 23.382812 9.824219 23.757812 C 9.824219 23.785156 9.824219 23.8125 9.824219 23.839844 C 9.824219 23.878906 9.847656 23.898438 9.886719 23.898438 C 9.90625 23.898438 9.925781 23.898438 9.945312 23.898438 C 10.234375 23.898438 10.523438 23.898438 10.8125 23.898438 C 10.933594 23.898438 10.933594 23.898438 10.933594 23.773438 C 10.933594 23.375 10.933594 22.976562 10.933594 22.578125 C 10.933594 22.488281 10.941406 22.480469 11.027344 22.480469 C 11.332031 22.480469 11.632812 22.480469 11.9375 22.480469 C 12.015625 22.480469 12.023438 22.488281 12.023438 22.566406 C 12.027344 22.585938 12.023438 22.609375 12.023438 22.632812 C 12.023438 23.011719 12.023438 23.390625 12.023438 23.769531 C 12.023438 23.796875 12.027344 23.820312 12.027344 23.847656 C 12.027344 23.878906 12.042969 23.894531 12.078125 23.898438 C 12.101562 23.898438 12.128906 23.898438 12.152344 23.898438 C 12.4375 23.898438 12.71875 23.898438 13.003906 23.898438 C 13.136719 23.898438 13.136719 23.898438 13.136719 23.765625 C 13.136719 23.363281 13.136719 22.957031 13.136719 22.550781 C 13.136719 22.464844 13.136719 22.464844 13.222656 22.457031 C 13.414062 22.4375 13.605469 22.417969 13.796875 22.390625 C 14.148438 22.34375 14.488281 22.265625 14.816406 22.125 C 15.339844 21.902344 15.699219 21.523438 15.859375 20.972656 C 15.980469 20.554688 15.992188 20.128906 15.914062 19.703125 C 15.867188 19.429688 15.765625 19.175781 15.601562 18.949219 Z M 10.9375 16.386719 C 10.9375 16.023438 10.9375 15.660156 10.9375 15.296875 C 10.9375 15.273438 10.9375 15.25 10.9375 15.230469 C 10.941406 15.164062 10.949219 15.15625 11.011719 15.15625 C 11.089844 15.15625 11.164062 15.15625 11.242188 15.15625 C 11.523438 15.160156 11.804688 15.160156 12.082031 15.171875 C 12.328125 15.183594 12.570312 15.230469 12.804688 15.3125 C 13.125 15.429688 13.316406 15.652344 13.386719 15.984375 C 13.453125 16.28125 13.445312 16.578125 13.355469 16.875 C 13.261719 17.195312 13.035156 17.390625 12.722656 17.492188 C 12.496094 17.566406 12.261719 17.609375 12.023438 17.617188 C 11.695312 17.628906 11.363281 17.628906 11.035156 17.632812 C 11.019531 17.632812 11 17.632812 10.984375 17.632812 C 10.957031 17.628906 10.941406 17.613281 10.941406 17.582031 C 10.9375 17.558594 10.9375 17.535156 10.9375 17.507812 C 10.9375 17.132812 10.9375 16.761719 10.9375 16.386719 Z M 13.695312 20.664062 C 13.582031 20.996094 13.335938 21.199219 13.007812 21.308594 C 12.808594 21.375 12.605469 21.410156 12.394531 21.433594 C 11.9375 21.484375 11.476562 21.464844 11.015625 21.46875 C 10.945312 21.46875 10.9375 21.460938 10.9375 21.375 C 10.9375 20.9375 10.9375 20.5 10.9375 20.0625 C 10.9375 19.632812 10.9375 19.203125 10.9375 18.773438 C 10.9375 18.664062 10.9375 18.664062 11.046875 18.664062 C 11.296875 18.664062 11.550781 18.65625 11.800781 18.664062 C 12.152344 18.671875 12.503906 18.6875 12.847656 18.777344 C 12.980469 18.8125 13.109375 18.855469 13.230469 18.914062 C 13.457031 19.023438 13.617188 19.203125 13.703125 19.441406 C 13.84375 19.847656 13.839844 20.261719 13.695312 20.664062 Z M 13.695312 20.664062 " fill-opacity="1" fill-rule="nonzero"/></svg>