<svg xmlns="http://www.w3.org/2000/svg" xmlns:xlink="http://www.w3.org/1999/xlink" width="40" zoomAndPan="magnify" viewBox="0 0 30 30.000001" height="40" preserveAspectRatio="xMidYMid meet" version="1.0"><defs><clipPath id="4758b804c7"><path d="M 0.484375 0 L 29.515625 0 L 29.515625 29.03125 L 0.484375 29.03125 Z M 0.484375 0 " clip-rule="nonzero"/></clipPath></defs><g clip-path="url(#4758b804c7)"><path fill="#31ac7d" d="M 8.832031 6.394531 L 8.832031 1.902344 L 5.039062 3.355469 L 5.039062 7.847656 Z M 24.964844 8.664062 L 24.964844 21.640625 L 22.003906 21.640625 L 22.003906 22.402344 L 25.347656 22.402344 C 25.554688 22.402344 25.726562 22.230469 25.726562 22.019531 L 25.726562 8.664062 Z M 5.039062 8.664062 L 4.28125 8.664062 L 4.28125 22.019531 C 4.28125 22.230469 4.449219 22.402344 4.660156 22.402344 L 8 22.402344 L 8 21.640625 L 5.039062 21.640625 Z M 22.316406 27.25 L 7.691406 27.25 L 7.691406 28.132812 C 7.691406 28.621094 8.085938 29.019531 8.574219 29.019531 L 21.433594 29.019531 C 21.917969 29.019531 22.316406 28.621094 22.316406 28.132812 Z M 20.792969 18.359375 L 9.214844 18.359375 C 8.964844 18.359375 8.761719 18.5625 8.761719 18.8125 L 8.761719 26.492188 L 21.242188 26.492188 L 21.242188 18.8125 C 21.242188 18.5625 21.042969 18.359375 20.792969 18.359375 Z M 18.671875 22.15625 C 18.820312 22.304688 18.820312 22.546875 18.671875 22.695312 L 16.847656 24.519531 C 16.773438 24.59375 16.675781 24.632812 16.578125 24.632812 C 16.480469 24.632812 16.382812 24.59375 16.308594 24.519531 C 16.160156 24.371094 16.160156 24.128906 16.308594 23.980469 L 17.867188 22.425781 L 16.308594 20.867188 C 16.160156 20.71875 16.160156 20.480469 16.308594 20.332031 C 16.457031 20.183594 16.699219 20.183594 16.847656 20.332031 Z M 15.78125 20.238281 L 14.914062 24.757812 C 14.878906 24.9375 14.71875 25.066406 14.542969 25.066406 C 14.515625 25.066406 14.492188 25.0625 14.46875 25.058594 C 14.261719 25.019531 14.128906 24.820312 14.167969 24.613281 L 15.035156 20.09375 C 15.074219 19.886719 15.273438 19.753906 15.480469 19.792969 C 15.6875 19.832031 15.820312 20.03125 15.78125 20.238281 Z M 13.695312 20.867188 L 12.136719 22.425781 L 13.695312 23.980469 C 13.84375 24.128906 13.84375 24.371094 13.695312 24.519531 C 13.621094 24.59375 13.523438 24.632812 13.425781 24.632812 C 13.328125 24.632812 13.230469 24.59375 13.15625 24.519531 L 11.332031 22.695312 C 11.183594 22.546875 11.183594 22.304688 11.332031 22.15625 L 13.15625 20.332031 C 13.304688 20.183594 13.546875 20.183594 13.695312 20.332031 C 13.84375 20.480469 13.84375 20.71875 13.695312 20.867188 Z M 15.003906 13.332031 C 16.277344 13.332031 17.316406 12.292969 17.316406 11.019531 C 17.316406 9.742188 16.277344 8.707031 15.003906 8.707031 C 13.726562 8.707031 12.691406 9.742188 12.691406 11.019531 C 12.6875 12.292969 13.726562 13.332031 15.003906 13.332031 Z M 18.933594 17.597656 C 18.390625 16.183594 16.960938 15.351562 15.003906 15.351562 C 13.046875 15.351562 11.613281 16.183594 11.074219 17.597656 Z M 21.855469 1.347656 L 25.347656 2.6875 L 28.835938 1.347656 L 25.347656 0.0117188 Z M 24.964844 7.847656 L 21.171875 6.394531 L 21.171875 1.902344 L 24.964844 3.355469 Z M 25.726562 3.355469 L 29.519531 1.902344 L 29.519531 6.394531 L 25.726562 7.847656 Z M 1.167969 1.347656 L 4.660156 0.0117188 L 8.148438 1.347656 L 4.660156 2.6875 Z M 4.28125 7.847656 L 4.28125 3.355469 L 0.488281 1.902344 L 0.488281 6.394531 Z M 4.28125 7.847656 " fill-opacity="1" fill-rule="evenodd"/></g></svg>