<svg xmlns="http://www.w3.org/2000/svg" xmlns:xlink="http://www.w3.org/1999/xlink" width="40" zoomAndPan="magnify" viewBox="0 0 30 30.000001" height="40" preserveAspectRatio="xMidYMid meet" version="1.0"><defs><clipPath id="05ae7aeb76"><path d="M 0.484375 1.269531 L 29.515625 1.269531 L 29.515625 28 L 0.484375 28 Z M 0.484375 1.269531 " clip-rule="nonzero"/></clipPath></defs><path fill="#31ac7d" d="M 12.175781 15.511719 C 12.050781 15.511719 11.945312 15.613281 11.945312 15.742188 L 11.945312 21.390625 L 8.460938 15.625 C 8.40625 15.535156 8.300781 15.492188 8.203125 15.519531 C 8.105469 15.546875 8.035156 15.640625 8.035156 15.742188 L 8.035156 22.222656 C 8.035156 22.351562 8.136719 22.453125 8.265625 22.453125 C 8.390625 22.453125 8.496094 22.351562 8.496094 22.222656 L 8.496094 16.566406 L 11.980469 22.332031 C 12.03125 22.421875 12.136719 22.460938 12.238281 22.433594 C 12.335938 22.40625 12.40625 22.316406 12.40625 22.214844 L 12.40625 15.742188 C 12.40625 15.613281 12.300781 15.511719 12.175781 15.511719 Z M 12.175781 15.511719 " fill-opacity="1" fill-rule="nonzero"/><path fill="#31ac7d" d="M 17.246094 15.511719 L 13.875 15.511719 C 13.75 15.511719 13.648438 15.613281 13.648438 15.742188 L 13.648438 22.222656 C 13.648438 22.351562 13.75 22.453125 13.875 22.453125 C 14.003906 22.453125 14.105469 22.351562 14.105469 22.222656 L 14.105469 19.210938 L 16.101562 19.210938 C 16.226562 19.210938 16.332031 19.109375 16.332031 18.980469 C 16.332031 18.855469 16.226562 18.753906 16.101562 18.753906 L 14.105469 18.753906 L 14.105469 15.972656 L 17.246094 15.972656 C 17.371094 15.972656 17.476562 15.867188 17.476562 15.742188 C 17.476562 15.613281 17.371094 15.511719 17.246094 15.511719 Z M 17.246094 15.511719 " fill-opacity="1" fill-rule="nonzero"/><path fill="#31ac7d" d="M 18.160156 15.742188 C 18.160156 15.867188 18.261719 15.972656 18.390625 15.972656 L 20.117188 15.972656 L 20.117188 22.214844 C 20.117188 22.339844 20.21875 22.445312 20.34375 22.445312 C 20.472656 22.445312 20.574219 22.339844 20.574219 22.214844 L 20.574219 15.972656 L 22.300781 15.972656 C 22.429688 15.972656 22.53125 15.867188 22.53125 15.742188 C 22.53125 15.613281 22.429688 15.511719 22.300781 15.511719 L 18.390625 15.511719 C 18.261719 15.511719 18.160156 15.613281 18.160156 15.742188 Z M 18.160156 15.742188 " fill-opacity="1" fill-rule="nonzero"/><g clip-path="url(#05ae7aeb76)"><path fill="#31ac7d" d="M 3.058594 23.085938 L 3.921875 23.085938 C 4.046875 23.085938 4.152344 22.984375 4.152344 22.855469 L 4.152344 21.820312 L 5.734375 21.820312 L 5.734375 26.921875 C 5.734375 27.386719 6.113281 27.761719 6.578125 27.761719 L 23.421875 27.761719 C 23.886719 27.761719 24.265625 27.386719 24.265625 26.921875 L 24.265625 21.820312 L 25.847656 21.820312 L 25.847656 22.855469 C 25.847656 22.984375 25.953125 23.085938 26.078125 23.085938 L 26.941406 23.085938 C 27.050781 23.691406 27.578125 24.152344 28.214844 24.152344 C 28.929688 24.152344 29.507812 23.570312 29.507812 22.855469 C 29.507812 22.140625 28.929688 21.5625 28.214844 21.5625 C 27.578125 21.5625 27.050781 22.023438 26.941406 22.628906 L 26.308594 22.628906 L 26.308594 21.589844 C 26.308594 21.460938 26.207031 21.359375 26.078125 21.359375 L 24.265625 21.359375 L 24.265625 19.226562 L 26.941406 19.226562 C 27.050781 19.832031 27.578125 20.292969 28.214844 20.292969 C 28.929688 20.292969 29.507812 19.710938 29.507812 19 C 29.507812 18.285156 28.929688 17.703125 28.214844 17.703125 C 27.578125 17.703125 27.050781 18.164062 26.941406 18.769531 L 24.265625 18.769531 L 24.265625 16.636719 L 26.078125 16.636719 C 26.207031 16.636719 26.308594 16.535156 26.308594 16.40625 L 26.308594 15.371094 L 26.941406 15.371094 C 27.050781 15.976562 27.578125 16.4375 28.214844 16.4375 C 28.929688 16.4375 29.507812 15.855469 29.507812 15.140625 C 29.507812 14.425781 28.929688 13.84375 28.214844 13.84375 C 27.578125 13.84375 27.050781 14.304688 26.941406 14.910156 L 26.078125 14.910156 C 25.953125 14.910156 25.847656 15.011719 25.847656 15.140625 L 25.847656 16.179688 L 24.265625 16.179688 L 24.265625 12.25 C 24.425781 12.273438 24.589844 12.285156 24.761719 12.285156 C 26.679688 12.285156 28.242188 10.722656 28.242188 8.800781 L 28.242188 7.078125 C 28.242188 7.074219 28.242188 7.070312 28.242188 7.066406 C 28.242188 7.058594 28.242188 7.050781 28.238281 7.042969 C 28.238281 7.035156 28.238281 7.03125 28.234375 7.023438 C 28.234375 7.015625 28.230469 7.007812 28.230469 7 C 28.226562 6.992188 28.222656 6.988281 28.21875 6.980469 C 28.214844 6.972656 28.214844 6.96875 28.210938 6.960938 C 28.207031 6.953125 28.199219 6.949219 28.195312 6.941406 C 28.191406 6.9375 28.191406 6.933594 28.1875 6.929688 L 25.238281 3.429688 L 25.238281 2.175781 C 25.238281 1.675781 24.832031 1.269531 24.332031 1.269531 L 5.667969 1.269531 C 5.167969 1.269531 4.761719 1.675781 4.761719 2.175781 L 4.761719 3.429688 L 1.8125 6.929688 C 1.808594 6.933594 1.808594 6.9375 1.804688 6.941406 C 1.800781 6.949219 1.792969 6.953125 1.789062 6.960938 C 1.785156 6.96875 1.785156 6.972656 1.78125 6.980469 C 1.777344 6.988281 1.773438 6.992188 1.769531 7 C 1.769531 7.007812 1.765625 7.015625 1.765625 7.023438 C 1.761719 7.03125 1.761719 7.035156 1.761719 7.042969 C 1.757812 7.050781 1.757812 7.058594 1.757812 7.066406 C 1.757812 7.070312 1.757812 7.074219 1.757812 7.078125 L 1.757812 8.800781 C 1.757812 10.722656 3.320312 12.285156 5.238281 12.285156 C 5.410156 12.285156 5.574219 12.273438 5.734375 12.25 L 5.734375 16.179688 L 4.152344 16.179688 L 4.152344 15.140625 C 4.152344 15.011719 4.046875 14.910156 3.921875 14.910156 L 3.058594 14.910156 C 2.949219 14.304688 2.421875 13.84375 1.785156 13.84375 C 1.070312 13.84375 0.492188 14.425781 0.492188 15.140625 C 0.492188 15.855469 1.070312 16.4375 1.785156 16.4375 C 2.421875 16.4375 2.949219 15.976562 3.058594 15.371094 L 3.691406 15.371094 L 3.691406 16.40625 C 3.691406 16.535156 3.792969 16.636719 3.921875 16.636719 L 5.734375 16.636719 L 5.734375 18.769531 L 3.058594 18.769531 C 2.949219 18.164062 2.421875 17.703125 1.785156 17.703125 C 1.070312 17.703125 0.492188 18.285156 0.492188 19 C 0.492188 19.710938 1.070312 20.292969 1.785156 20.292969 C 2.421875 20.292969 2.949219 19.832031 3.058594 19.226562 L 5.734375 19.226562 L 5.734375 21.359375 L 3.921875 21.359375 C 3.792969 21.359375 3.691406 21.460938 3.691406 21.589844 L 3.691406 22.625 L 3.058594 22.625 C 2.949219 22.023438 2.421875 21.5625 1.785156 21.5625 C 1.070312 21.5625 0.492188 22.140625 0.492188 22.855469 C 0.492188 23.570312 1.070312 24.152344 1.785156 24.152344 C 2.421875 24.152344 2.949219 23.691406 3.058594 23.085938 Z M 28.214844 22.019531 C 28.675781 22.019531 29.050781 22.394531 29.050781 22.855469 C 29.050781 23.316406 28.675781 23.691406 28.214844 23.691406 C 27.753906 23.691406 27.378906 23.316406 27.378906 22.855469 C 27.378906 22.394531 27.753906 22.019531 28.214844 22.019531 Z M 28.214844 18.164062 C 28.675781 18.164062 29.050781 18.539062 29.050781 19 C 29.050781 19.460938 28.675781 19.835938 28.214844 19.835938 C 27.753906 19.835938 27.378906 19.460938 27.378906 19 C 27.378906 18.539062 27.753906 18.164062 28.214844 18.164062 Z M 28.214844 14.304688 C 28.675781 14.304688 29.050781 14.679688 29.050781 15.140625 C 29.050781 15.601562 28.675781 15.976562 28.214844 15.976562 C 27.753906 15.976562 27.378906 15.601562 27.378906 15.140625 C 27.378906 14.679688 27.753906 14.304688 28.214844 14.304688 Z M 23.804688 26.921875 C 23.804688 27.132812 23.632812 27.300781 23.421875 27.300781 L 6.578125 27.300781 C 6.367188 27.300781 6.195312 27.132812 6.195312 26.921875 L 6.195312 25.738281 L 23.804688 25.738281 Z M 23.804688 25.28125 L 6.195312 25.28125 L 6.195312 12.152344 C 7.25 11.847656 8.105469 11.058594 8.492188 10.042969 C 8.996094 11.351562 10.261719 12.285156 11.746094 12.285156 C 13.230469 12.285156 14.5 11.351562 15 10.042969 C 15.5 11.351562 16.769531 12.285156 18.253906 12.285156 C 19.738281 12.285156 21.003906 11.351562 21.507812 10.042969 C 21.894531 11.058594 22.75 11.847656 23.804688 12.152344 Z M 14.769531 7.308594 L 14.769531 8.800781 C 14.769531 10.46875 13.414062 11.824219 11.746094 11.824219 C 10.078125 11.824219 8.722656 10.46875 8.722656 8.800781 L 8.722656 7.308594 Z M 8.839844 6.851562 L 10.148438 3.746094 L 14.769531 3.746094 L 14.769531 6.851562 Z M 21.277344 7.308594 L 21.277344 8.800781 C 21.277344 10.46875 19.921875 11.824219 18.253906 11.824219 C 16.585938 11.824219 15.230469 10.46875 15.230469 8.800781 L 15.230469 7.308594 Z M 15.230469 6.851562 L 15.230469 3.746094 L 19.851562 3.746094 L 21.160156 6.851562 Z M 27.785156 8.800781 C 27.785156 10.46875 26.425781 11.824219 24.761719 11.824219 C 23.09375 11.824219 21.738281 10.46875 21.738281 8.800781 L 21.738281 7.308594 L 27.785156 7.308594 Z M 27.519531 6.851562 L 21.660156 6.851562 L 20.351562 3.746094 L 24.902344 3.746094 Z M 5.222656 2.175781 C 5.222656 1.929688 5.421875 1.730469 5.667969 1.730469 L 24.332031 1.730469 C 24.578125 1.730469 24.777344 1.929688 24.777344 2.175781 L 24.777344 3.285156 L 5.222656 3.285156 Z M 5.097656 3.746094 L 9.648438 3.746094 L 8.339844 6.851562 L 2.480469 6.851562 Z M 5.238281 11.824219 C 3.574219 11.824219 2.214844 10.46875 2.214844 8.800781 L 2.214844 7.308594 L 8.261719 7.308594 L 8.261719 8.800781 C 8.261719 10.46875 6.90625 11.824219 5.238281 11.824219 Z M 1.785156 15.976562 C 1.324219 15.976562 0.949219 15.601562 0.949219 15.140625 C 0.949219 14.679688 1.324219 14.304688 1.785156 14.304688 C 2.246094 14.304688 2.621094 14.679688 2.621094 15.140625 C 2.621094 15.601562 2.246094 15.976562 1.785156 15.976562 Z M 1.785156 19.835938 C 1.324219 19.835938 0.949219 19.460938 0.949219 19 C 0.949219 18.539062 1.324219 18.164062 1.785156 18.164062 C 2.246094 18.164062 2.621094 18.539062 2.621094 19 C 2.621094 19.460938 2.246094 19.835938 1.785156 19.835938 Z M 0.949219 22.855469 C 0.949219 22.394531 1.324219 22.019531 1.785156 22.019531 C 2.246094 22.019531 2.621094 22.394531 2.621094 22.855469 C 2.621094 23.316406 2.246094 23.691406 1.785156 23.691406 C 1.324219 23.691406 0.949219 23.316406 0.949219 22.855469 Z M 0.949219 22.855469 " fill-opacity="1" fill-rule="nonzero"/></g></svg>