<svg xmlns="http://www.w3.org/2000/svg" xmlns:xlink="http://www.w3.org/1999/xlink" width="40" zoomAndPan="magnify" viewBox="0 0 30 30.000001" height="40" preserveAspectRatio="xMidYMid meet" version="1.0"><defs><clipPath id="03e32adbb8"><path d="M 4 3 L 29.136719 3 L 29.136719 29 L 4 29 Z M 4 3 " clip-rule="nonzero"/></clipPath><clipPath id="2dc9938c9c"><path d="M 0.828125 11 L 9 11 L 9 20 L 0.828125 20 Z M 0.828125 11 " clip-rule="nonzero"/></clipPath></defs><g clip-path="url(#03e32adbb8)"><path fill="#74ba9c" d="M 9.109375 25.542969 L 8.664062 26.195312 C 7.382812 24.933594 6.820312 23.714844 6.453125 21.953125 C 6.425781 21.832031 6.414062 21.714844 6.417969 21.59375 C 5.933594 21.609375 5.167969 21.601562 4.851562 21.449219 C 4.480469 21.265625 4.203125 20.8125 4.363281 20.429688 C 4.394531 20.328125 4.460938 20.269531 4.566406 20.253906 C 4.617188 20.257812 4.667969 20.269531 4.714844 20.296875 L 5.640625 20.753906 C 5.710938 20.796875 5.785156 20.8125 5.863281 20.800781 C 5.992188 20.769531 6.027344 20.609375 6.058594 20.484375 C 6.085938 20.359375 6.160156 20.203125 6.289062 20.214844 C 6.351562 20.226562 6.40625 20.257812 6.445312 20.308594 C 6.667969 20.554688 6.773438 20.84375 6.761719 21.179688 C 6.945312 21.164062 7.101562 21.324219 7.21875 21.476562 C 8.160156 22.683594 8.789062 24.039062 9.109375 25.542969 Z M 28.640625 19.988281 C 28.816406 19.878906 28.941406 19.726562 29.007812 19.527344 C 29.125 19.207031 29.171875 18.875 29.144531 18.535156 C 29.132812 18.355469 29.054688 18.210938 28.910156 18.105469 C 28.714844 17.984375 28.34375 17.925781 27.921875 18.097656 C 27.902344 17.808594 27.851562 17.53125 27.773438 17.253906 C 27.746094 17.160156 27.675781 17.046875 27.574219 17.054688 C 27.46875 17.066406 27.417969 17.257812 27.394531 17.355469 C 27.230469 18.15625 27.355469 19.671875 27.871094 19.960938 C 27.835938 20.050781 27.8125 20.144531 27.796875 20.242188 C 27.734375 20.667969 27.777344 21.101562 27.820312 21.53125 C 27.898438 22.304688 27.976562 23.074219 28.050781 23.847656 L 28.082031 23.957031 C 26.515625 23.289062 24.886719 22.8125 23.207031 22.535156 C 23.140625 22.277344 23.007812 22.0625 22.800781 21.894531 C 22.617188 21.785156 22.417969 21.714844 22.207031 21.6875 C 21.289062 21.511719 20.367188 21.402344 19.4375 21.355469 C 19.078125 21.335938 18.707031 21.25 18.347656 21.25 C 17.988281 21.25 17.660156 21.339844 17.3125 21.359375 C 16.679688 21.390625 16.050781 21.457031 15.421875 21.550781 C 15.089844 21.601562 14.738281 21.667969 14.480469 21.886719 C 14.265625 22.066406 14.144531 22.355469 14.0625 22.621094 C 14 22.832031 13.945312 23.042969 13.910156 23.261719 L 13.734375 22.523438 C 12.351562 23.132812 11.046875 23.878906 9.816406 24.757812 C 9.441406 25.03125 9.136719 25.363281 9.023438 25.8125 C 8.910156 26.265625 9.253906 26.769531 9.71875 26.765625 C 9.898438 26.75 10.0625 26.699219 10.21875 26.609375 C 11.394531 26.03125 12.628906 25.421875 13.785156 24.785156 C 13.785156 25.933594 13.980469 27.175781 14.355469 28.179688 C 14.558594 28.714844 15.386719 28.832031 15.960938 28.847656 C 17.304688 28.964844 20.214844 29.027344 22.222656 28.75 C 22.375 28.742188 22.511719 28.699219 22.644531 28.625 C 22.804688 28.515625 22.886719 28.328125 22.957031 28.140625 C 23.363281 27.019531 23.546875 25.863281 23.5 24.667969 C 24.625 24.941406 26.242188 25.285156 27.140625 25.390625 C 27.351562 25.414062 27.570312 25.433594 27.765625 25.351562 C 28.035156 25.242188 28.183594 24.980469 28.28125 24.695312 C 28.441406 24.785156 28.582031 24.761719 28.703125 24.625 C 28.804688 24.503906 28.871094 24.367188 28.894531 24.210938 C 29.089844 23.4375 29.046875 22.636719 29.011719 21.847656 C 28.984375 21.21875 28.945312 20.550781 28.640625 19.988281 Z M 17.40625 4.917969 C 17.582031 4.917969 17.804688 4.914062 18.039062 4.90625 C 18.121094 4.90625 18.191406 4.96875 18.273438 4.96875 C 18.359375 4.964844 18.433594 4.894531 18.503906 4.890625 C 18.738281 4.882812 18.964844 4.871094 19.164062 4.859375 C 19.320312 4.855469 19.480469 4.835938 19.636719 4.800781 C 19.847656 4.742188 19.925781 4.519531 19.933594 4.296875 C 19.945312 4.125 19.914062 3.832031 19.734375 3.773438 C 19.316406 3.65625 17.976562 3.664062 17.15625 3.867188 C 17.015625 3.902344 16.886719 3.964844 16.769531 4.050781 C 16.625 4.164062 16.625 4.40625 16.671875 4.582031 C 16.757812 4.886719 17.066406 4.917969 17.40625 4.917969 Z M 13.367188 18.46875 C 14.199219 18.628906 15.605469 18.757812 17.15625 18.800781 C 17.519531 18.8125 17.902344 18.929688 18.273438 18.933594 C 18.648438 18.933594 19.015625 18.820312 19.386719 18.8125 C 21.171875 18.769531 22.890625 18.605469 23.941406 18.253906 C 24.734375 17.988281 25.1875 17.519531 25.402344 16.59375 C 25.515625 16.078125 25.59375 15.554688 25.636719 15.027344 C 25.683594 14.511719 25.90625 13.933594 25.925781 13.351562 C 25.949219 12.699219 25.761719 12.035156 25.75 11.367188 C 25.75 11.046875 25.738281 10.730469 25.726562 10.417969 C 25.699219 9.515625 25.601562 8.539062 24.992188 7.871094 C 24.363281 7.175781 23.359375 7 22.429688 6.898438 C 21.152344 6.757812 19.875 6.683594 18.589844 6.679688 C 18.492188 6.679688 18.390625 6.46875 18.289062 6.472656 C 18.191406 6.472656 18.117188 6.679688 18.03125 6.683594 C 17.230469 6.691406 16.425781 6.726562 15.625 6.789062 C 14.855469 6.851562 13.269531 7.117188 12.484375 7.445312 C 11.253906 7.960938 11 9.035156 10.867188 10.941406 C 10.859375 11.046875 10.855469 11.160156 10.847656 11.28125 C 10.824219 11.832031 10.601562 12.402344 10.621094 13.144531 C 10.640625 13.71875 10.886719 14.457031 10.941406 15.007812 C 11.027344 15.855469 11.164062 16.609375 11.367188 17.054688 C 11.632812 17.839844 12.53125 18.308594 13.367188 18.46875 Z M 13.367188 18.46875 " fill-opacity="1" fill-rule="nonzero"/></g><g clip-path="url(#2dc9938c9c)"><path fill="#74ba9c" d="M 7.144531 17.726562 C 6.9375 17.21875 6.683594 15.960938 6.644531 15.425781 C 6.539062 13.992188 6.546875 13.179688 6.546875 11.847656 C 4.933594 11.917969 2.761719 12.117188 1.144531 12.078125 C 0.832031 13.75 1.007812 16.664062 1.59375 18.09375 C 1.765625 18.535156 2.113281 19.039062 2.503906 19.46875 C 4.65625 19.234375 6.132812 19.007812 8.285156 18.773438 C 7.757812 18.667969 7.347656 18.226562 7.144531 17.726562 Z M 7.144531 17.726562 " fill-opacity="1" fill-rule="nonzero"/></g><path fill="#31ac7d" d="M 10.941406 15.007812 C 10.433594 15.023438 9.84375 14.683594 9.65625 14.207031 C 9.453125 13.6875 9.488281 13.105469 9.523438 12.542969 C 9.542969 12.300781 9.59375 12.066406 9.679688 11.835938 C 9.816406 11.53125 10.132812 11.335938 10.847656 11.28125 C 10.796875 12.527344 10.828125 13.769531 10.941406 15.007812 Z M 18.585938 6.679688 L 18.507812 4.953125 C 18.507812 4.933594 18.507812 4.910156 18.503906 4.890625 C 18.347656 4.898438 18.191406 4.902344 18.039062 4.90625 C 17.957031 5.367188 17.984375 6.136719 18.03125 6.683594 C 18.21875 6.679688 18.402344 6.679688 18.585938 6.679688 Z M 26.910156 11.738281 C 26.769531 11.574219 26.59375 11.472656 26.382812 11.433594 C 26.171875 11.390625 25.960938 11.371094 25.75 11.367188 C 25.773438 12.589844 25.738281 13.808594 25.636719 15.027344 C 25.78125 15.007812 25.941406 14.984375 26.046875 14.964844 C 26.40625 14.90625 26.675781 14.621094 26.820312 14.324219 C 26.964844 14.03125 27.011719 13.703125 27.039062 13.382812 C 27.085938 12.980469 27.089844 12.578125 27.050781 12.175781 C 27.042969 12.015625 26.996094 11.871094 26.910156 11.738281 Z M 13.492188 22.578125 C 13.320312 22.808594 13.265625 23.105469 13.242188 23.390625 C 13.21875 23.65625 13.222656 23.921875 13.25 24.1875 C 13.253906 24.386719 13.3125 24.570312 13.425781 24.734375 C 13.523438 24.847656 13.640625 24.910156 13.789062 24.925781 C 13.777344 24.058594 13.867188 23.246094 14.0625 22.613281 C 14.097656 22.496094 14.140625 22.382812 14.191406 22.277344 C 13.933594 22.21875 13.652344 22.363281 13.492188 22.578125 Z M 23.757812 22.578125 C 23.597656 22.351562 23.382812 22.25 23.105469 22.269531 C 23.175781 22.417969 23.226562 22.574219 23.261719 22.734375 C 23.421875 23.453125 23.503906 24.183594 23.503906 24.921875 C 23.632812 24.894531 23.738281 24.832031 23.824219 24.734375 C 23.9375 24.570312 23.996094 24.386719 24.003906 24.1875 C 24.027344 23.921875 24.03125 23.65625 24.007812 23.390625 C 23.984375 23.105469 23.929688 22.808594 23.757812 22.578125 Z M 19.265625 20.875 C 19.417969 20.796875 19.488281 20.671875 19.476562 20.503906 C 19.453125 20.34375 19.363281 20.238281 19.207031 20.191406 C 19.410156 20.128906 19.507812 19.992188 19.496094 19.78125 C 19.480469 19.617188 19.34375 19.449219 19.175781 19.453125 C 19.390625 19.382812 19.492188 19.238281 19.492188 19.015625 C 19.480469 18.855469 19.335938 18.703125 19.074219 18.675781 L 17.300781 18.691406 C 17.152344 18.757812 16.972656 19 17.070312 19.199219 C 17.152344 19.34375 17.273438 19.429688 17.4375 19.453125 C 17.261719 19.519531 17.148438 19.636719 17.144531 19.816406 C 17.15625 20 17.253906 20.113281 17.433594 20.160156 C 17.253906 20.203125 17.15625 20.3125 17.144531 20.496094 C 17.132812 20.589844 17.15625 20.671875 17.214844 20.746094 C 17.269531 20.820312 17.347656 20.867188 17.4375 20.882812 C 17.351562 20.964844 17.261719 21.027344 17.234375 21.195312 C 17.214844 21.386719 17.296875 21.511719 17.472656 21.570312 C 17.472656 21.570312 17.78125 21.707031 18.414062 21.707031 C 18.738281 21.699219 19.046875 21.636719 19.339844 21.511719 C 19.4375 21.421875 19.558594 21.3125 19.535156 21.15625 C 19.507812 21.003906 19.417969 20.910156 19.265625 20.875 Z M 28.5 23.875 C 28.304688 23.761719 28.105469 23.757812 27.90625 23.863281 C 27.699219 24.011719 27.617188 24.207031 27.652344 24.457031 C 27.664062 24.585938 27.714844 24.691406 27.804688 24.78125 C 27.890625 24.871094 28 24.925781 28.125 24.941406 C 28.300781 24.960938 28.457031 24.914062 28.59375 24.796875 C 28.703125 24.683594 28.757812 24.542969 28.757812 24.382812 C 28.78125 24.160156 28.695312 23.988281 28.5 23.875 Z M 9.386719 25.613281 C 9.1875 25.5 8.992188 25.496094 8.789062 25.601562 C 8.585938 25.75 8.5 25.949219 8.535156 26.199219 C 8.550781 26.324219 8.601562 26.433594 8.691406 26.523438 C 8.777344 26.613281 8.886719 26.664062 9.011719 26.679688 C 9.1875 26.703125 9.34375 26.65625 9.480469 26.539062 C 9.589844 26.421875 9.644531 26.285156 9.644531 26.125 C 9.667969 25.898438 9.582031 25.726562 9.386719 25.613281 Z M 9.386719 25.613281 " fill-opacity="1" fill-rule="nonzero"/><path fill="#31ac7d" d="M 22.335938 10.902344 C 22.472656 11.117188 22.527344 11.351562 22.488281 11.605469 C 22.453125 11.859375 22.335938 12.070312 22.140625 12.234375 C 21.785156 12.53125 21.191406 12.4375 20.871094 12.101562 C 20.757812 11.988281 20.699219 11.851562 20.691406 11.691406 C 20.664062 11.195312 20.855469 10.726562 21.332031 10.582031 C 21.511719 10.546875 21.6875 10.550781 21.863281 10.59375 C 22.058594 10.636719 22.21875 10.742188 22.335938 10.902344 Z M 19.601562 14.191406 C 19.492188 14.164062 19.417969 14.203125 19.386719 14.3125 C 19.347656 14.585938 19.226562 14.8125 19.019531 14.992188 C 18.8125 15.175781 18.574219 15.265625 18.296875 15.269531 C 18.023438 15.273438 17.78125 15.183594 17.570312 15.007812 C 17.359375 14.832031 17.234375 14.605469 17.191406 14.335938 C 17.160156 14.226562 17.089844 14.183594 16.976562 14.214844 C 16.871094 14.246094 16.828125 14.316406 16.859375 14.425781 C 16.914062 14.691406 17.03125 14.921875 17.210938 15.121094 C 17.390625 15.320312 17.609375 15.460938 17.863281 15.542969 C 18.0625 15.601562 18.265625 15.617188 18.472656 15.585938 C 18.679688 15.558594 18.871094 15.492188 19.046875 15.382812 C 19.222656 15.273438 19.371094 15.132812 19.488281 14.960938 C 19.605469 14.792969 19.683594 14.605469 19.722656 14.398438 C 19.746094 14.292969 19.703125 14.226562 19.601562 14.191406 Z M 15.253906 10.59375 C 15.078125 10.550781 14.902344 10.546875 14.722656 10.582031 C 14.246094 10.726562 14.046875 11.195312 14.082031 11.691406 C 14.089844 11.851562 14.148438 11.988281 14.265625 12.101562 C 14.582031 12.4375 15.175781 12.53125 15.53125 12.234375 C 15.726562 12.070312 15.84375 11.859375 15.878906 11.605469 C 15.917969 11.351562 15.863281 11.117188 15.726562 10.902344 C 15.605469 10.742188 15.449219 10.636719 15.253906 10.59375 Z M 4.859375 14.867188 C 5.035156 14.851562 5.039062 14.578125 4.859375 14.589844 C 4.039062 14.660156 3.21875 14.675781 2.398438 14.636719 C 2.222656 14.628906 2.222656 14.90625 2.398438 14.914062 C 3.21875 14.953125 4.039062 14.9375 4.859375 14.867188 Z M 20.808594 2.808594 L 20.824219 2.808594 L 20.871094 2.832031 C 20.894531 2.84375 20.921875 2.859375 20.945312 2.878906 L 20.960938 2.886719 C 20.972656 2.898438 20.984375 2.910156 20.996094 2.921875 C 21.019531 2.941406 21.039062 2.964844 21.058594 2.988281 L 21.0625 2.996094 C 21.074219 3.011719 21.082031 3.027344 21.089844 3.039062 C 21.097656 3.054688 21.105469 3.070312 21.113281 3.082031 L 21.125 3.109375 C 21.136719 3.136719 21.144531 3.167969 21.152344 3.199219 C 21.15625 3.214844 21.160156 3.230469 21.164062 3.246094 C 21.164062 3.25 21.164062 3.253906 21.164062 3.257812 C 21.164062 3.257812 21.164062 3.261719 21.164062 3.265625 C 21.167969 3.296875 21.167969 3.332031 21.164062 3.363281 C 21.164062 3.378906 21.164062 3.394531 21.164062 3.410156 L 21.164062 3.421875 C 21.164062 3.425781 21.164062 3.425781 21.164062 3.429688 C 21.15625 3.460938 21.152344 3.492188 21.140625 3.519531 C 21.132812 3.546875 21.132812 3.550781 21.125 3.5625 C 21.121094 3.578125 21.117188 3.582031 21.113281 3.59375 C 21.054688 3.691406 21.074219 3.769531 21.175781 3.828125 C 21.273438 3.886719 21.351562 3.867188 21.410156 3.765625 C 21.59375 3.417969 21.566406 3.089844 21.332031 2.777344 C 21.09375 2.464844 20.78125 2.347656 20.398438 2.429688 C 20.285156 2.46875 20.25 2.539062 20.285156 2.652344 C 20.316406 2.757812 20.390625 2.800781 20.5 2.773438 L 20.527344 2.769531 L 20.5625 2.769531 C 20.59375 2.769531 20.625 2.769531 20.660156 2.769531 L 20.675781 2.769531 L 20.722656 2.777344 C 20.75 2.785156 20.777344 2.796875 20.808594 2.808594 Z M 2.367188 13.792969 C 3.273438 13.761719 4.183594 13.738281 5.089844 13.722656 C 5.175781 13.714844 5.21875 13.671875 5.21875 13.585938 C 5.21875 13.5 5.175781 13.453125 5.089844 13.445312 C 4.183594 13.460938 3.273438 13.484375 2.367188 13.515625 C 2.191406 13.523438 2.191406 13.800781 2.367188 13.792969 Z M 5.371094 15.722656 C 4.40625 15.78125 3.441406 15.820312 2.476562 15.84375 C 2.300781 15.84375 2.296875 16.125 2.476562 16.121094 C 3.441406 16.097656 4.40625 16.058594 5.371094 16 C 5.546875 15.992188 5.550781 15.71875 5.371094 15.726562 Z M 22.148438 1.636719 C 21.949219 1.472656 21.726562 1.367188 21.472656 1.320312 C 21.175781 1.269531 20.875 1.269531 20.578125 1.320312 C 20.464844 1.351562 20.425781 1.421875 20.457031 1.53125 C 20.488281 1.640625 20.558594 1.683594 20.671875 1.652344 C 21.210938 1.570312 21.804688 1.652344 22.136719 2.136719 C 22.304688 2.378906 22.402344 2.648438 22.429688 2.941406 C 22.464844 3.21875 22.453125 3.496094 22.398438 3.769531 C 22.351562 3.988281 22.6875 4.078125 22.730469 3.867188 C 22.851562 3.355469 22.820312 2.851562 22.640625 2.359375 C 22.539062 2.078125 22.375 1.835938 22.148438 1.636719 Z M 5.339844 16.859375 C 4.46875 16.984375 3.589844 17.03125 2.707031 16.996094 C 2.527344 16.988281 2.527344 17.265625 2.707031 17.273438 C 3.613281 17.308594 4.515625 17.257812 5.414062 17.125 C 5.503906 17.101562 5.535156 17.042969 5.511719 16.957031 C 5.484375 16.867188 5.429688 16.835938 5.339844 16.859375 Z M 23.722656 1.535156 C 23.433594 0.882812 22.828125 0.398438 22.164062 0.175781 C 21.761719 0.0546875 21.351562 0 20.933594 0.0117188 C 20.710938 0.0117188 20.710938 0.359375 20.933594 0.359375 C 21.265625 0.351562 21.589844 0.382812 21.910156 0.460938 C 22.226562 0.542969 22.507812 0.683594 22.765625 0.882812 C 23.011719 1.066406 23.207031 1.292969 23.355469 1.566406 C 23.507812 1.867188 23.597656 2.183594 23.621094 2.519531 C 23.648438 2.945312 23.632812 3.363281 23.566406 3.78125 C 23.539062 3.890625 23.578125 3.960938 23.683594 3.996094 C 23.796875 4.023438 23.867188 3.984375 23.894531 3.871094 C 24.007812 3.089844 24.046875 2.277344 23.722656 1.535156 Z M 23.722656 1.535156 " fill-opacity="1" fill-rule="nonzero"/><path fill="#74ba9c" d="M 23.539062 14.675781 C 23.433594 14.773438 23.3125 14.835938 23.171875 14.867188 C 22.976562 14.929688 22.78125 14.957031 22.578125 14.949219 C 22.4375 14.953125 22.3125 14.910156 22.199219 14.824219 C 22.175781 14.796875 22.160156 14.761719 22.15625 14.726562 C 22.144531 14.488281 22.246094 14.3125 22.453125 14.195312 C 22.644531 14.09375 22.851562 14.042969 23.070312 14.046875 C 23.292969 14.039062 23.558594 14.082031 23.640625 14.289062 C 23.6875 14.4375 23.652344 14.566406 23.539062 14.675781 Z M 14.125 14.191406 C 13.933594 14.089844 13.726562 14.042969 13.507812 14.046875 C 13.289062 14.039062 13.023438 14.082031 12.9375 14.285156 C 12.890625 14.433594 12.925781 14.5625 13.035156 14.671875 C 13.140625 14.769531 13.265625 14.832031 13.40625 14.867188 C 13.597656 14.925781 13.796875 14.953125 13.996094 14.945312 C 14.136719 14.949219 14.265625 14.90625 14.375 14.820312 C 14.398438 14.792969 14.414062 14.761719 14.417969 14.722656 C 14.433594 14.484375 14.335938 14.308594 14.125 14.191406 Z M 14.125 14.191406 " fill-opacity="1" fill-rule="nonzero"/></svg>