<svg xmlns="http://www.w3.org/2000/svg" xmlns:xlink="http://www.w3.org/1999/xlink" width="40" zoomAndPan="magnify" viewBox="0 0 30 30.000001" height="40" preserveAspectRatio="xMidYMid meet" version="1.0"><defs><clipPath id="4179fdf2f9"><path d="M 0.484375 2.902344 L 29.515625 2.902344 L 29.515625 26.128906 L 0.484375 26.128906 Z M 0.484375 2.902344 " clip-rule="nonzero"/></clipPath></defs><g clip-path="url(#4179fdf2f9)"><path fill="#31ac7d" d="M 13.207031 12.582031 C 12.71875 12.597656 12.199219 12.621094 11.726562 12.769531 C 11.269531 12.917969 10.910156 13.195312 10.648438 13.601562 C 10.410156 13.949219 10.234375 14.328125 10.117188 14.734375 C 9.949219 14.710938 9.78125 14.699219 9.609375 14.703125 C 9.402344 14.695312 9.195312 14.722656 8.996094 14.785156 C 8.804688 14.859375 8.769531 15.054688 8.726562 15.234375 C 8.671875 15.449219 8.625 15.664062 8.585938 15.878906 C 8.550781 16.09375 8.519531 16.3125 8.5 16.527344 C 8.480469 16.707031 8.429688 16.9375 8.53125 17.105469 C 8.632812 17.273438 8.867188 17.289062 9.050781 17.316406 C 9.285156 17.34375 9.523438 17.355469 9.761719 17.347656 C 9.820312 17.347656 9.863281 17.320312 9.890625 17.269531 C 9.898438 17.394531 9.90625 17.519531 9.917969 17.644531 C 9.945312 18.042969 10.039062 18.421875 10.191406 18.789062 C 10.320312 19.128906 10.527344 19.410156 10.8125 19.636719 C 11.128906 19.878906 11.484375 20.050781 11.871094 20.152344 C 12.257812 20.253906 12.648438 20.261719 13.039062 20.28125 L 13.09375 20.28125 C 13.089844 20.289062 13.085938 20.292969 13.082031 20.300781 C 12.933594 20.542969 13.046875 20.851562 13.265625 21.011719 C 13.53125 21.207031 13.886719 21.160156 14.191406 21.128906 L 14.734375 21.078125 C 14.898438 21.0625 15.09375 21.070312 15.25 21.003906 C 15.511719 20.894531 15.554688 20.597656 15.550781 20.34375 C 15.546875 20.324219 15.542969 20.304688 15.539062 20.289062 C 15.65625 20.273438 15.777344 20.257812 15.898438 20.238281 C 16.359375 20.148438 16.800781 19.992188 17.222656 19.773438 C 17.804688 19.492188 18.238281 18.988281 18.527344 18.414062 C 18.542969 18.460938 18.578125 18.484375 18.628906 18.492188 C 18.90625 18.542969 19.203125 18.582031 19.484375 18.507812 C 19.753906 18.429688 19.945312 18.265625 20.066406 18.007812 C 20.183594 17.75 20.257812 17.476562 20.292969 17.195312 C 20.332031 16.929688 20.355469 16.613281 20.191406 16.382812 C 20.074219 16.222656 19.886719 16.167969 19.707031 16.109375 L 19.070312 15.90625 C 19.054688 15.902344 19.039062 15.902344 19.019531 15.902344 C 19.03125 15.546875 18.992188 15.199219 18.90625 14.855469 C 18.847656 14.640625 18.757812 14.441406 18.636719 14.257812 C 18.367188 13.894531 18.027344 13.625 17.617188 13.441406 C 17.171875 13.234375 16.714844 13.066406 16.238281 12.941406 C 16.003906 12.875 15.765625 12.820312 15.527344 12.773438 C 15.558594 12.621094 15.574219 12.46875 15.574219 12.3125 C 15.574219 12.210938 15.582031 12.074219 15.503906 11.992188 C 15.414062 11.925781 15.320312 11.894531 15.210938 11.890625 L 15.140625 11.878906 C 15.140625 11.878906 15.140625 11.878906 15.140625 11.871094 C 15.1875 11.453125 15.253906 11.039062 15.339844 10.625 C 15.371094 10.628906 15.402344 10.621094 15.429688 10.605469 C 15.578125 10.515625 15.667969 10.386719 15.707031 10.214844 C 15.746094 10.042969 15.695312 9.898438 15.558594 9.78125 C 15.414062 9.660156 15.261719 9.640625 15.097656 9.730469 C 14.929688 9.839844 14.855469 9.992188 14.878906 10.191406 C 14.890625 10.304688 14.933594 10.398438 15.015625 10.472656 C 15.027344 10.484375 15.039062 10.492188 15.050781 10.5 C 14.953125 10.9375 14.882812 11.378906 14.835938 11.824219 C 14.753906 11.800781 14.667969 11.796875 14.582031 11.808594 C 14.40625 11.855469 14.339844 12.058594 14.292969 12.210938 C 14.25 12.335938 14.230469 12.46875 14.238281 12.601562 C 13.894531 12.578125 13.550781 12.570312 13.207031 12.582031 Z M 9.882812 16.21875 C 9.867188 16.511719 9.871094 16.804688 9.882812 17.097656 C 9.855469 17.054688 9.8125 17.035156 9.761719 17.039062 C 9.582031 17.042969 9.40625 17.039062 9.230469 17.023438 C 9.140625 17.015625 9.050781 17.003906 8.960938 16.988281 C 8.90625 16.980469 8.8125 16.980469 8.789062 16.917969 C 8.773438 16.84375 8.773438 16.769531 8.789062 16.699219 C 8.792969 16.609375 8.800781 16.523438 8.8125 16.4375 C 8.832031 16.261719 8.859375 16.085938 8.890625 15.914062 C 8.917969 15.738281 8.957031 15.566406 8.996094 15.402344 C 9.015625 15.316406 9.039062 15.230469 9.0625 15.148438 C 9.085938 15.066406 9.101562 15.066406 9.179688 15.046875 C 9.464844 14.992188 9.746094 14.984375 10.03125 15.027344 C 9.945312 15.417969 9.894531 15.816406 9.882812 16.21875 Z M 15.0625 20.742188 C 14.804688 20.785156 14.535156 20.789062 14.273438 20.816406 C 14.050781 20.835938 13.796875 20.886719 13.574219 20.824219 C 13.429688 20.78125 13.246094 20.621094 13.347656 20.453125 C 13.382812 20.402344 13.382812 20.347656 13.347656 20.296875 C 13.707031 20.320312 14.066406 20.339844 14.425781 20.34375 C 14.703125 20.34375 14.976562 20.335938 15.25 20.3125 C 15.25 20.324219 15.25 20.332031 15.25 20.34375 C 15.246094 20.5 15.253906 20.707031 15.0625 20.742188 Z M 19.007812 16.253906 C 19.007812 16.238281 19.007812 16.222656 19.007812 16.210938 L 19.578125 16.390625 C 19.738281 16.441406 19.921875 16.46875 19.984375 16.648438 C 20.070312 16.90625 19.984375 17.230469 19.925781 17.484375 C 19.863281 17.734375 19.777344 18.019531 19.535156 18.15625 C 19.296875 18.289062 18.96875 18.242188 18.707031 18.195312 C 18.675781 18.191406 18.648438 18.191406 18.621094 18.203125 C 18.683594 18.054688 18.738281 17.90625 18.785156 17.753906 C 18.917969 17.261719 18.992188 16.761719 19.007812 16.253906 Z M 16.796875 13.433594 C 17.207031 13.5625 17.589844 13.746094 17.949219 13.988281 C 18.113281 14.105469 18.253906 14.246094 18.371094 14.410156 C 18.609375 14.773438 18.691406 15.199219 18.707031 15.625 C 18.726562 16.085938 18.703125 16.542969 18.632812 16.996094 C 18.507812 17.832031 18.183594 18.667969 17.515625 19.21875 C 17.191406 19.488281 16.785156 19.644531 16.394531 19.789062 C 15.953125 19.933594 15.496094 20.011719 15.03125 20.023438 C 14.179688 20.070312 13.316406 20.003906 12.46875 19.945312 C 11.816406 19.898438 11.042969 19.597656 10.660156 19.042969 C 10.242188 18.429688 10.203125 17.644531 10.179688 16.929688 C 10.148438 16.277344 10.207031 15.632812 10.359375 14.996094 C 10.390625 14.957031 10.402344 14.914062 10.394531 14.863281 C 10.441406 14.699219 10.5 14.535156 10.566406 14.378906 C 10.730469 13.992188 10.960938 13.597656 11.289062 13.328125 C 11.648438 13.03125 12.128906 12.964844 12.578125 12.921875 C 14.019531 12.777344 15.425781 12.949219 16.796875 13.429688 Z M 15.199219 10.0625 Z M 15.199219 10.050781 C 15.199219 10.054688 15.199219 10.058594 15.199219 10.058594 C 15.199219 10.058594 15.199219 10.050781 15.199219 10.050781 Z M 15.179688 10.121094 C 15.179688 10.117188 15.179688 10.117188 15.179688 10.113281 C 15.179688 10.101562 15.183594 10.085938 15.1875 10.074219 L 15.1875 10.0625 C 15.195312 10.050781 15.203125 10.039062 15.207031 10.027344 L 15.207031 10.019531 L 15.222656 10.003906 C 15.226562 10 15.230469 9.996094 15.234375 9.996094 L 15.242188 9.988281 L 15.277344 9.988281 L 15.304688 9.996094 C 15.316406 10.003906 15.328125 10.007812 15.335938 10.015625 C 15.347656 10.023438 15.355469 10.03125 15.363281 10.039062 C 15.363281 10.050781 15.375 10.058594 15.378906 10.070312 C 15.378906 10.078125 15.378906 10.09375 15.386719 10.101562 C 15.394531 10.109375 15.386719 10.101562 15.386719 10.109375 C 15.386719 10.117188 15.386719 10.136719 15.386719 10.148438 L 15.386719 10.164062 C 15.386719 10.175781 15.378906 10.1875 15.375 10.203125 L 15.367188 10.214844 C 15.363281 10.230469 15.351562 10.242188 15.34375 10.253906 C 15.339844 10.257812 15.339844 10.265625 15.335938 10.269531 L 15.320312 10.285156 C 15.3125 10.28125 15.300781 10.28125 15.292969 10.285156 L 15.273438 10.285156 L 15.253906 10.277344 L 15.238281 10.273438 L 15.222656 10.261719 L 15.203125 10.242188 C 15.203125 10.242188 15.199219 10.238281 15.199219 10.234375 C 15.199219 10.234375 15.191406 10.234375 15.191406 10.230469 C 15.191406 10.222656 15.191406 10.21875 15.183594 10.210938 C 15.175781 10.207031 15.183594 10.210938 15.179688 10.207031 L 15.179688 10.199219 C 15.179688 10.191406 15.175781 10.183594 15.171875 10.175781 C 15.171875 10.171875 15.171875 10.167969 15.171875 10.160156 C 15.171875 10.148438 15.171875 10.136719 15.171875 10.125 C 15.171875 10.125 15.171875 10.121094 15.171875 10.121094 C 15.179688 10.128906 15.179688 10.136719 15.179688 10.121094 Z M 14.660156 12.105469 Z M 14.546875 12.582031 C 14.546875 12.574219 14.546875 12.5625 14.546875 12.554688 L 14.546875 12.449219 C 14.546875 12.421875 14.554688 12.394531 14.5625 12.367188 C 14.574219 12.308594 14.59375 12.253906 14.613281 12.199219 C 14.613281 12.183594 14.625 12.175781 14.628906 12.164062 L 14.628906 12.15625 L 14.640625 12.125 C 14.648438 12.117188 14.652344 12.109375 14.652344 12.105469 L 14.667969 12.105469 L 14.769531 12.125 L 15.023438 12.167969 C 15.097656 12.179688 15.171875 12.199219 15.246094 12.207031 C 15.246094 12.238281 15.246094 12.269531 15.246094 12.300781 C 15.246094 12.4375 15.234375 12.578125 15.203125 12.710938 C 14.984375 12.675781 14.765625 12.648438 14.542969 12.625 C 14.542969 12.609375 14.542969 12.59375 14.546875 12.582031 Z M 12.929688 15.726562 C 13.058594 15.855469 13.074219 15.996094 12.972656 16.148438 C 12.957031 16.179688 12.933594 16.207031 12.90625 16.230469 C 12.871094 16.261719 12.832031 16.289062 12.789062 16.304688 C 12.714844 16.332031 12.640625 16.332031 12.566406 16.304688 C 12.480469 16.273438 12.410156 16.21875 12.363281 16.140625 C 12.34375 16.105469 12.339844 16.070312 12.347656 16.03125 C 12.339844 16.019531 12.335938 16.003906 12.332031 15.988281 C 12.320312 15.921875 12.328125 15.859375 12.359375 15.796875 C 12.375 15.761719 12.398438 15.730469 12.425781 15.703125 C 12.523438 15.621094 12.632812 15.601562 12.753906 15.636719 C 12.820312 15.652344 12.878906 15.683594 12.929688 15.730469 Z M 16.039062 16.613281 C 16.058594 16.640625 16.082031 16.65625 16.113281 16.660156 C 16.144531 16.667969 16.175781 16.671875 16.207031 16.667969 C 16.25 16.664062 16.289062 16.652344 16.328125 16.636719 C 16.386719 16.609375 16.429688 16.570312 16.464844 16.519531 C 16.5 16.464844 16.515625 16.40625 16.515625 16.339844 C 16.515625 16.242188 16.476562 16.160156 16.402344 16.09375 C 16.371094 16.070312 16.335938 16.046875 16.296875 16.03125 C 16.246094 16.015625 16.195312 16.007812 16.144531 16.011719 C 16.015625 16.019531 15.851562 16.078125 15.820312 16.214844 C 15.8125 16.25 15.808594 16.285156 15.8125 16.324219 C 15.8125 16.363281 15.816406 16.398438 15.828125 16.433594 C 15.859375 16.542969 15.929688 16.601562 16.039062 16.617188 Z M 16.179688 16.320312 L 16.203125 16.320312 C 16.203125 16.320312 16.203125 16.320312 16.203125 16.328125 L 16.203125 16.339844 L 16.167969 16.339844 C 16.152344 16.324219 16.136719 16.3125 16.117188 16.300781 L 16.144531 16.296875 Z M 14.652344 17.308594 C 14.742188 17.265625 14.824219 17.207031 14.894531 17.132812 C 14.96875 17.066406 15.039062 17.066406 15.109375 17.136719 C 15.179688 17.207031 15.179688 17.277344 15.113281 17.347656 C 15 17.460938 14.871094 17.550781 14.722656 17.609375 C 14.570312 17.648438 14.417969 17.660156 14.261719 17.632812 C 14.097656 17.628906 13.9375 17.589844 13.789062 17.519531 C 13.636719 17.433594 13.566406 17.304688 13.574219 17.132812 C 13.574219 17.03125 13.625 16.980469 13.726562 16.976562 C 13.828125 16.980469 13.878906 17.03125 13.878906 17.132812 C 13.871094 17.207031 13.925781 17.257812 14.007812 17.28125 C 14.113281 17.3125 14.21875 17.328125 14.328125 17.335938 C 14.4375 17.351562 14.546875 17.34375 14.652344 17.3125 Z M 12.277344 13.707031 C 11.851562 13.851562 11.527344 14.117188 11.300781 14.503906 C 11.121094 14.84375 10.988281 15.199219 10.90625 15.574219 C 10.722656 16.285156 10.644531 17.113281 10.914062 17.816406 C 11.167969 18.46875 11.71875 18.882812 12.367188 19.105469 C 12.824219 19.25 13.292969 19.335938 13.773438 19.367188 C 14.6875 19.453125 15.582031 19.371094 16.464844 19.117188 C 17.140625 18.90625 17.613281 18.390625 17.898438 17.753906 C 18.179688 17.167969 18.261719 16.554688 18.136719 15.914062 C 18.09375 15.703125 18.027344 15.5 17.941406 15.300781 C 17.675781 14.714844 17.105469 14.320312 16.535156 14.0625 C 16.117188 13.863281 15.679688 13.730469 15.222656 13.652344 C 14.269531 13.496094 13.210938 13.359375 12.277344 13.707031 Z M 17.464844 15.089844 C 17.550781 15.203125 17.625 15.320312 17.683594 15.449219 C 17.945312 16.050781 17.96875 16.660156 17.757812 17.28125 C 17.582031 17.832031 17.25 18.394531 16.734375 18.683594 C 16.390625 18.875 15.964844 18.949219 15.578125 19.007812 C 15.164062 19.070312 14.746094 19.097656 14.324219 19.085938 C 13.835938 19.085938 13.347656 19.035156 12.867188 18.9375 C 12.328125 18.816406 11.769531 18.585938 11.429688 18.132812 C 10.988281 17.558594 10.996094 16.742188 11.113281 16.058594 C 11.164062 15.769531 11.238281 15.488281 11.335938 15.207031 C 11.460938 14.824219 11.628906 14.4375 11.976562 14.203125 C 12.324219 13.964844 12.769531 13.863281 13.1875 13.824219 C 13.664062 13.785156 14.136719 13.800781 14.613281 13.867188 C 15.097656 13.914062 15.574219 14.019531 16.039062 14.179688 C 16.5625 14.371094 17.105469 14.648438 17.464844 15.09375 Z M 23.28125 18.386719 C 23.179688 18.324219 23.042969 18.351562 22.9375 18.371094 C 22.828125 18.390625 22.71875 18.425781 22.617188 18.480469 C 22.574219 18.503906 22.53125 18.53125 22.492188 18.558594 C 22.488281 18.558594 22.488281 18.558594 22.484375 18.558594 C 22.484375 18.515625 22.496094 18.472656 22.496094 18.441406 C 22.5 18.34375 22.476562 18.25 22.425781 18.167969 C 22.375 18.074219 22.296875 18.019531 22.191406 18.011719 C 22.082031 18 21.996094 18.035156 21.925781 18.117188 C 21.863281 18.203125 21.820312 18.296875 21.785156 18.394531 C 21.75 18.492188 21.722656 18.589844 21.703125 18.691406 C 21.660156 18.910156 21.652344 19.125 21.679688 19.34375 C 21.542969 19.40625 21.417969 19.484375 21.308594 19.582031 C 20.855469 19.933594 20.507812 20.371094 20.273438 20.894531 C 20.117188 20.914062 19.988281 20.984375 19.882812 21.097656 C 19.773438 21.214844 19.703125 21.355469 19.679688 21.515625 C 19.609375 21.484375 19.539062 21.464844 19.476562 21.441406 C 19.109375 21.320312 18.738281 21.242188 18.355469 21.203125 C 17.917969 21.152344 17.472656 21.140625 17.03125 21.128906 C 16.929688 20.964844 16.816406 20.808594 16.691406 20.660156 C 16.554688 20.484375 16.386719 20.335938 16.191406 20.226562 C 16.015625 20.140625 15.863281 20.402344 16.039062 20.492188 C 16.367188 20.65625 16.609375 21.019531 16.796875 21.328125 C 16.898438 21.488281 16.980469 21.660156 17.046875 21.835938 C 17.117188 22.070312 17.164062 22.308594 17.1875 22.550781 C 17.253906 23.066406 17.253906 23.585938 17.1875 24.101562 C 17.152344 24.378906 17.101562 24.65625 17.039062 24.929688 C 16.996094 25.132812 16.964844 25.441406 16.789062 25.578125 C 16.695312 25.652344 16.558594 25.644531 16.445312 25.652344 L 15.96875 25.683594 C 15.664062 25.703125 15.351562 25.722656 15.042969 25.738281 C 14.429688 25.769531 13.820312 25.792969 13.207031 25.8125 C 12.902344 25.820312 12.597656 25.835938 12.289062 25.824219 C 12.152344 25.828125 12.019531 25.8125 11.886719 25.777344 C 11.75 25.730469 11.75 25.535156 11.726562 25.414062 C 11.628906 24.824219 11.589844 24.230469 11.613281 23.632812 C 11.628906 23.03125 11.640625 22.417969 11.808594 21.835938 C 11.941406 21.371094 12.171875 20.882812 12.601562 20.628906 C 12.691406 20.574219 12.707031 20.503906 12.65625 20.417969 C 12.605469 20.328125 12.535156 20.3125 12.449219 20.363281 C 12.160156 20.539062 11.9375 20.773438 11.777344 21.066406 C 11.753906 21.058594 11.726562 21.058594 11.699219 21.066406 C 11.28125 21.214844 10.886719 21.414062 10.515625 21.664062 C 10.171875 21.882812 9.859375 22.140625 9.578125 22.4375 C 9.445312 22.582031 9.324219 22.738281 9.21875 22.90625 C 9.199219 22.882812 9.175781 22.863281 9.152344 22.847656 C 9.070312 22.46875 8.992188 22.085938 8.902344 21.710938 C 8.824219 21.390625 8.707031 21.054688 8.472656 20.8125 C 8.605469 20.496094 8.632812 20.144531 8.664062 19.804688 C 8.6875 19.695312 8.667969 19.59375 8.601562 19.507812 C 8.511719 19.402344 8.402344 19.378906 8.28125 19.4375 C 8.199219 19.488281 8.132812 19.554688 8.078125 19.632812 C 8.042969 19.671875 8.015625 19.710938 7.988281 19.753906 C 7.851562 19.644531 7.710938 19.535156 7.570312 19.433594 C 7.472656 19.355469 7.367188 19.34375 7.257812 19.40625 C 7.148438 19.46875 7.101562 19.5625 7.117188 19.6875 C 7.132812 19.785156 7.167969 19.875 7.21875 19.957031 C 7.257812 20.027344 7.292969 20.097656 7.335938 20.160156 C 7.421875 20.3125 7.511719 20.464844 7.609375 20.609375 C 7.691406 20.734375 7.785156 20.859375 7.882812 20.976562 C 7.875 21.011719 7.867188 21.050781 7.863281 21.085938 C 7.839844 21.363281 7.855469 21.636719 7.910156 21.90625 C 7.980469 22.332031 8.113281 22.734375 8.300781 23.117188 L 8.300781 23.125 C 8.183594 23.296875 8.292969 23.546875 8.378906 23.707031 C 8.425781 23.792969 8.480469 23.871094 8.546875 23.945312 C 8.609375 24.027344 8.691406 24.078125 8.789062 24.105469 C 8.929688 24.136719 9.050781 24.097656 9.148438 23.988281 C 9.21875 23.90625 9.265625 23.8125 9.292969 23.707031 C 9.339844 23.714844 9.390625 23.71875 9.441406 23.722656 C 9.671875 23.714844 9.890625 23.671875 10.105469 23.585938 C 10.535156 23.441406 10.945312 23.261719 11.34375 23.050781 L 11.339844 23.164062 C 11.296875 23.828125 11.3125 24.492188 11.390625 25.152344 C 11.414062 25.3125 11.4375 25.472656 11.472656 25.632812 C 11.488281 25.769531 11.546875 25.886719 11.648438 25.980469 C 11.761719 26.058594 11.890625 26.097656 12.03125 26.105469 C 12.203125 26.121094 12.375 26.128906 12.550781 26.125 C 13.226562 26.117188 13.902344 26.085938 14.578125 26.058594 C 15.253906 26.027344 15.925781 26 16.597656 25.941406 C 16.882812 25.929688 17.082031 25.796875 17.199219 25.53125 C 17.300781 25.265625 17.371094 24.988281 17.410156 24.703125 C 17.527344 24.128906 17.570312 23.550781 17.539062 22.96875 C 17.53125 22.796875 17.515625 22.625 17.492188 22.453125 L 17.507812 22.453125 C 17.90625 22.488281 18.308594 22.476562 18.707031 22.417969 C 18.902344 22.390625 19.097656 22.351562 19.289062 22.304688 C 19.445312 22.273438 19.589844 22.21875 19.726562 22.136719 C 19.855469 22.28125 20.019531 22.351562 20.210938 22.339844 C 20.34375 22.332031 20.460938 22.285156 20.558594 22.199219 C 20.660156 22.113281 20.722656 22.007812 20.75 21.878906 C 20.769531 21.785156 20.777344 21.695312 20.769531 21.601562 C 20.8125 21.605469 20.851562 21.589844 20.878906 21.554688 C 21.125 21.300781 21.375 21.046875 21.609375 20.78125 C 21.84375 20.539062 22.03125 20.261719 22.167969 19.953125 C 22.183594 19.910156 22.199219 19.863281 22.207031 19.816406 C 22.277344 19.867188 22.339844 19.863281 22.398438 19.800781 L 22.957031 19.246094 C 23.042969 19.15625 23.136719 19.070312 23.226562 18.976562 C 23.304688 18.898438 23.359375 18.808594 23.386719 18.699219 C 23.421875 18.570312 23.386719 18.464844 23.28125 18.386719 Z M 8.425781 19.710938 L 8.433594 19.703125 C 8.4375 19.710938 8.433594 19.714844 8.425781 19.710938 Z M 8.378906 19.6875 Z M 7.429688 19.65625 Z M 7.390625 19.664062 Z M 7.59375 19.972656 C 7.554688 19.902344 7.515625 19.832031 7.480469 19.761719 L 7.460938 19.722656 L 7.53125 19.773438 L 7.664062 19.875 L 7.96875 20.109375 C 8.054688 20.15625 8.121094 20.136719 8.171875 20.054688 C 8.207031 19.988281 8.246094 19.925781 8.289062 19.863281 C 8.296875 19.855469 8.335938 19.808594 8.371094 19.773438 C 8.371094 19.835938 8.359375 19.898438 8.351562 19.960938 C 8.339844 20.203125 8.292969 20.441406 8.207031 20.671875 C 8.15625 20.671875 8.109375 20.683594 8.066406 20.707031 C 7.886719 20.476562 7.730469 20.230469 7.597656 19.972656 Z M 8.222656 21.847656 C 8.199219 21.699219 8.183594 21.546875 8.175781 21.394531 C 8.160156 21.265625 8.171875 21.136719 8.207031 21.011719 L 8.21875 20.992188 C 8.230469 21.003906 8.257812 21.019531 8.273438 21.03125 C 8.332031 21.09375 8.378906 21.160156 8.421875 21.234375 C 8.503906 21.390625 8.566406 21.550781 8.605469 21.722656 C 8.695312 22.070312 8.765625 22.425781 8.839844 22.777344 C 8.824219 22.78125 8.808594 22.78125 8.789062 22.785156 C 8.707031 22.8125 8.628906 22.851562 8.558594 22.90625 C 8.398438 22.570312 8.285156 22.214844 8.222656 21.847656 Z M 8.578125 23.296875 Z M 8.976562 23.703125 C 8.964844 23.730469 8.949219 23.757812 8.925781 23.78125 L 8.917969 23.785156 L 8.902344 23.796875 L 8.886719 23.804688 L 8.871094 23.804688 L 8.859375 23.796875 L 8.851562 23.789062 C 8.738281 23.6875 8.65625 23.558594 8.609375 23.410156 C 8.59375 23.375 8.585938 23.335938 8.582031 23.296875 C 8.582031 23.304688 8.582031 23.296875 8.582031 23.296875 L 8.597656 23.277344 C 8.652344 23.222656 8.707031 23.175781 8.769531 23.132812 L 8.8125 23.109375 L 8.835938 23.09375 L 8.851562 23.089844 L 8.890625 23.082031 C 8.90625 23.078125 8.921875 23.078125 8.9375 23.082031 L 8.949219 23.082031 L 8.984375 23.09375 C 8.996094 23.101562 9.015625 23.117188 9 23.097656 L 9.011719 23.113281 C 9.011719 23.113281 9.011719 23.113281 9.015625 23.121094 C 9.03125 23.144531 9.050781 23.160156 9.074219 23.175781 C 9.011719 23.269531 8.984375 23.371094 8.992188 23.480469 C 8.996094 23.511719 9.007812 23.539062 9.023438 23.566406 C 9.019531 23.574219 9.015625 23.582031 9.011719 23.59375 C 9 23.628906 8.980469 23.6875 8.972656 23.707031 Z M 10.035156 23.289062 C 9.917969 23.332031 9.800781 23.363281 9.679688 23.390625 C 9.617188 23.402344 9.554688 23.410156 9.492188 23.414062 C 9.4375 23.414062 9.367188 23.390625 9.316406 23.394531 C 9.316406 23.382812 9.324219 23.375 9.328125 23.363281 C 9.355469 23.3125 9.378906 23.261719 9.40625 23.214844 C 9.460938 23.117188 9.519531 23.019531 9.585938 22.929688 C 9.855469 22.570312 10.179688 22.265625 10.550781 22.019531 C 10.890625 21.777344 11.25 21.578125 11.632812 21.421875 C 11.492188 21.832031 11.40625 22.257812 11.378906 22.691406 C 10.945312 22.933594 10.496094 23.132812 10.03125 23.292969 Z M 22.175781 18.300781 C 22.175781 18.304688 22.175781 18.308594 22.167969 18.304688 C 22.160156 18.304688 22.171875 18.300781 22.171875 18.300781 Z M 20.367188 21.207031 C 20.363281 21.199219 20.367188 21.207031 20.367188 21.207031 Z M 20.34375 21.199219 Z M 19.597656 21.851562 C 19.542969 21.90625 19.472656 21.9375 19.394531 21.953125 C 19.199219 22.011719 19 22.058594 18.796875 22.09375 C 18.371094 22.167969 17.941406 22.183594 17.511719 22.144531 C 17.488281 22.140625 17.46875 22.144531 17.445312 22.152344 C 17.398438 21.902344 17.320312 21.664062 17.214844 21.4375 C 17.964844 21.457031 18.730469 21.492188 19.445312 21.75 C 19.484375 21.765625 19.53125 21.789062 19.570312 21.800781 C 19.613281 21.8125 19.628906 21.8125 19.597656 21.847656 Z M 20.46875 21.738281 C 20.46875 21.742188 20.46875 21.746094 20.46875 21.746094 C 20.46875 21.761719 20.464844 21.777344 20.460938 21.792969 C 20.457031 21.8125 20.449219 21.832031 20.441406 21.855469 L 20.441406 21.867188 C 20.4375 21.878906 20.429688 21.890625 20.425781 21.902344 L 20.410156 21.929688 C 20.40625 21.929688 20.402344 21.933594 20.402344 21.9375 L 20.390625 21.949219 C 20.386719 21.957031 20.378906 21.964844 20.371094 21.972656 L 20.355469 21.984375 C 20.351562 21.988281 20.347656 21.988281 20.34375 21.992188 L 20.324219 22.007812 L 20.300781 22.019531 C 20.28125 22.023438 20.261719 22.027344 20.242188 22.035156 L 20.214844 22.035156 C 20.195312 22.035156 20.175781 22.035156 20.15625 22.035156 L 20.113281 22.023438 L 20.089844 22.019531 L 20.074219 22.019531 C 20.058594 22.011719 20.039062 22 20.023438 21.992188 C 20.019531 21.988281 20.011719 21.984375 20.007812 21.980469 C 20.003906 21.976562 20 21.972656 19.992188 21.96875 C 19.984375 21.960938 19.972656 21.949219 19.964844 21.9375 C 20.019531 21.898438 20.039062 21.84375 20.019531 21.78125 C 20.011719 21.757812 20.003906 21.738281 20 21.714844 C 19.992188 21.695312 19.992188 21.6875 19.992188 21.683594 C 19.988281 21.644531 19.988281 21.605469 19.992188 21.566406 C 19.992188 21.5625 19.992188 21.558594 19.992188 21.554688 C 19.992188 21.542969 19.996094 21.535156 20 21.523438 C 20.003906 21.507812 20.007812 21.488281 20.015625 21.472656 L 20.023438 21.453125 C 20.023438 21.445312 20.03125 21.433594 20.03125 21.4375 C 20.039062 21.414062 20.050781 21.394531 20.0625 21.378906 C 20.070312 21.367188 20.078125 21.359375 20.082031 21.351562 L 20.117188 21.3125 C 20.125 21.304688 20.136719 21.296875 20.140625 21.289062 L 20.152344 21.28125 C 20.167969 21.269531 20.1875 21.257812 20.203125 21.25 L 20.234375 21.234375 L 20.238281 21.234375 C 20.257812 21.226562 20.277344 21.222656 20.292969 21.21875 L 20.339844 21.21875 L 20.359375 21.222656 C 20.359375 21.222656 20.371094 21.234375 20.367188 21.222656 L 20.375 21.234375 C 20.375 21.234375 20.375 21.238281 20.378906 21.246094 L 20.378906 21.253906 C 20.398438 21.3125 20.414062 21.371094 20.429688 21.429688 C 20.460938 21.53125 20.472656 21.632812 20.46875 21.738281 Z M 21.855469 19.914062 C 21.726562 20.160156 21.566406 20.382812 21.378906 20.582031 C 21.167969 20.820312 20.941406 21.046875 20.722656 21.277344 C 20.703125 21.167969 20.660156 21.074219 20.589844 20.992188 L 20.570312 20.976562 C 20.8125 20.46875 21.160156 20.050781 21.617188 19.726562 C 21.679688 19.6875 21.824219 19.558594 21.902344 19.636719 C 21.964844 19.699219 21.882812 19.855469 21.855469 19.914062 Z M 22.957031 18.808594 C 22.707031 19.058594 22.457031 19.308594 22.203125 19.558594 C 22.195312 19.53125 22.183594 19.507812 22.167969 19.480469 C 22.125 19.410156 22.0625 19.363281 21.984375 19.335938 C 21.945312 19.054688 21.976562 18.78125 22.066406 18.511719 C 22.085938 18.453125 22.113281 18.390625 22.144531 18.335938 C 22.148438 18.328125 22.152344 18.320312 22.15625 18.316406 C 22.164062 18.328125 22.179688 18.34375 22.179688 18.347656 C 22.183594 18.359375 22.1875 18.371094 22.191406 18.386719 C 22.191406 18.457031 22.191406 18.53125 22.183594 18.601562 C 22.183594 18.746094 22.230469 18.945312 22.414062 18.945312 C 22.488281 18.9375 22.554688 18.902344 22.609375 18.847656 C 22.660156 18.804688 22.714844 18.769531 22.773438 18.738281 C 22.824219 18.710938 22.878906 18.691406 22.933594 18.675781 C 22.984375 18.667969 23.035156 18.660156 23.085938 18.65625 C 23.050781 18.714844 23.007812 18.769531 22.957031 18.816406 Z M 14.433594 22.621094 C 14.375 22.675781 14.324219 22.734375 14.28125 22.800781 C 14.210938 22.703125 14.125 22.625 14.027344 22.566406 C 13.917969 22.5 13.8125 22.5 13.703125 22.566406 C 13.597656 22.640625 13.554688 22.742188 13.574219 22.871094 C 13.617188 23.074219 13.71875 23.242188 13.878906 23.371094 C 14.039062 23.519531 14.222656 23.578125 14.4375 23.542969 C 14.449219 23.539062 14.460938 23.535156 14.46875 23.53125 C 14.539062 23.570312 14.601562 23.5625 14.660156 23.507812 C 14.796875 23.394531 14.910156 23.257812 15 23.101562 C 15.085938 22.9375 15.101562 22.726562 14.964844 22.585938 C 14.824219 22.445312 14.585938 22.5 14.433594 22.625 Z M 13.875 22.820312 C 13.875 22.820312 13.886719 22.816406 13.875 22.820312 Z M 13.859375 22.828125 C 13.855469 22.828125 13.851562 22.816406 13.859375 22.828125 Z M 13.890625 22.878906 C 13.882812 22.871094 13.878906 22.855469 13.878906 22.84375 C 13.894531 22.855469 13.910156 22.863281 13.921875 22.871094 C 14.019531 22.957031 14.09375 23.0625 14.152344 23.179688 C 14.15625 23.1875 14.160156 23.195312 14.167969 23.203125 C 14.148438 23.191406 14.128906 23.179688 14.113281 23.167969 C 14.015625 23.089844 13.941406 22.996094 13.890625 22.878906 Z M 14.769531 22.84375 L 14.769531 22.847656 C 14.769531 22.847656 14.769531 22.875 14.769531 22.871094 C 14.753906 22.925781 14.730469 22.972656 14.699219 23.019531 C 14.636719 23.109375 14.5625 23.191406 14.476562 23.265625 C 14.441406 23.246094 14.402344 23.238281 14.359375 23.25 C 14.347656 23.25 14.335938 23.25 14.320312 23.25 C 14.363281 23.238281 14.394531 23.214844 14.414062 23.179688 C 14.460938 23.078125 14.519531 22.984375 14.589844 22.898438 C 14.621094 22.863281 14.65625 22.835938 14.699219 22.8125 C 14.714844 22.804688 14.730469 22.800781 14.75 22.800781 C 14.75 22.800781 14.730469 22.792969 14.75 22.800781 C 14.765625 22.804688 14.75 22.789062 14.761719 22.808594 C 14.753906 22.800781 14.761719 22.808594 14.761719 22.808594 C 14.761719 22.808594 14.765625 22.828125 14.765625 22.832031 Z M 15.214844 10.238281 C 15.214844 10.238281 15.214844 10.238281 15.214844 10.234375 C 15.214844 10.234375 15.210938 10.230469 15.214844 10.238281 Z M 15.265625 9.984375 Z M 15.183594 10.121094 L 15.183594 10.109375 C 15.183594 10.113281 15.183594 10.117188 15.183594 10.125 Z M 15.191406 10.203125 C 15.195312 10.203125 15.195312 10.207031 15.199219 10.210938 Z M 29.335938 14.972656 C 29.085938 14.558594 28.570312 14.355469 28.144531 14.175781 C 27.636719 13.960938 27.109375 13.792969 26.570312 13.679688 C 26.300781 13.617188 26.023438 13.578125 25.75 13.542969 C 25.503906 13.503906 25.257812 13.503906 25.011719 13.542969 C 24.402344 13.65625 24.191406 14.246094 23.980469 14.753906 C 23.734375 15.355469 23.542969 15.972656 23.40625 16.605469 C 23.390625 16.667969 23.410156 16.714844 23.457031 16.753906 C 23.355469 17.195312 23.828125 17.492188 24.207031 17.550781 C 24.324219 17.570312 24.441406 17.578125 24.554688 17.597656 C 24.621094 17.605469 24.683594 17.621094 24.746094 17.640625 C 24.804688 17.65625 24.824219 17.65625 24.832031 17.710938 C 24.828125 17.851562 24.8125 17.992188 24.785156 18.128906 C 24.769531 18.273438 24.75 18.421875 24.734375 18.570312 C 24.734375 18.621094 24.753906 18.660156 24.796875 18.691406 C 24.835938 18.71875 24.878906 18.730469 24.925781 18.714844 C 25.113281 18.632812 25.273438 18.515625 25.40625 18.359375 C 25.546875 18.210938 25.6875 18.054688 25.914062 18.070312 C 26.066406 18.089844 26.21875 18.121094 26.367188 18.164062 L 26.8125 18.265625 C 27.085938 18.324219 27.355469 18.394531 27.632812 18.441406 C 28.109375 18.523438 28.609375 18.488281 28.921875 18.074219 C 29.238281 17.660156 29.339844 17.0625 29.40625 16.546875 C 29.441406 16.273438 29.464844 16 29.484375 15.730469 C 29.511719 15.464844 29.464844 15.210938 29.335938 14.972656 Z M 29.125 16.289062 C 29.078125 16.78125 29 17.324219 28.753906 17.761719 C 28.648438 17.972656 28.484375 18.101562 28.257812 18.152344 C 28.046875 18.1875 27.835938 18.179688 27.628906 18.128906 C 27.339844 18.074219 27.054688 18.003906 26.765625 17.9375 L 26.316406 17.835938 C 26.167969 17.792969 26.015625 17.769531 25.859375 17.761719 C 25.640625 17.773438 25.457031 17.863281 25.304688 18.023438 C 25.226562 18.097656 25.15625 18.183594 25.074219 18.261719 C 25.09375 18.09375 25.113281 17.925781 25.132812 17.753906 C 25.160156 17.492188 25 17.378906 24.765625 17.324219 C 24.53125 17.265625 24.296875 17.277344 24.078125 17.203125 C 23.902344 17.144531 23.699219 16.976562 23.765625 16.777344 C 23.789062 16.714844 23.773438 16.660156 23.714844 16.621094 C 23.824219 16.132812 23.964844 15.652344 24.136719 15.183594 C 24.226562 14.941406 24.324219 14.707031 24.433594 14.476562 C 24.523438 14.273438 24.625 14.046875 24.820312 13.925781 C 25.019531 13.824219 25.230469 13.789062 25.453125 13.816406 C 25.703125 13.832031 25.949219 13.863281 26.191406 13.910156 C 26.691406 14 27.179688 14.132812 27.652344 14.3125 C 27.898438 14.402344 28.132812 14.503906 28.367188 14.617188 C 28.566406 14.703125 28.75 14.8125 28.917969 14.953125 C 29.292969 15.289062 29.171875 15.839844 29.125 16.289062 Z M 25.511719 15.578125 C 25.542969 15.550781 25.578125 15.523438 25.613281 15.503906 C 25.652344 15.476562 25.695312 15.453125 25.742188 15.429688 C 25.828125 15.378906 25.84375 15.308594 25.796875 15.222656 C 25.742188 15.136719 25.671875 15.121094 25.585938 15.167969 C 25.480469 15.222656 25.378906 15.289062 25.289062 15.367188 C 25.195312 15.445312 25.085938 15.546875 25.085938 15.679688 C 25.085938 15.816406 25.203125 15.925781 25.277344 16.023438 L 25.515625 16.339844 C 25.566406 16.417969 25.632812 16.4375 25.71875 16.390625 C 25.800781 16.339844 25.820312 16.273438 25.773438 16.1875 L 25.585938 15.921875 C 25.554688 15.878906 25.523438 15.835938 25.488281 15.792969 C 25.484375 15.785156 25.429688 15.703125 25.40625 15.675781 L 25.40625 15.667969 C 25.4375 15.636719 25.472656 15.605469 25.511719 15.574219 Z M 25.394531 15.679688 C 25.394531 15.6875 25.394531 15.683594 25.394531 15.679688 Z M 27.226562 15.601562 C 27.300781 15.671875 27.300781 15.746094 27.226562 15.816406 C 26.96875 16.050781 26.707031 16.28125 26.449219 16.515625 C 26.378906 16.582031 26.304688 16.582031 26.234375 16.515625 C 26.164062 16.441406 26.164062 16.371094 26.234375 16.300781 C 26.492188 16.066406 26.753906 15.832031 27.011719 15.601562 C 27.085938 15.53125 27.15625 15.535156 27.230469 15.605469 Z M 27.976562 16.332031 C 27.976562 16.328125 27.976562 16.324219 27.976562 16.320312 Z M 28.148438 15.917969 C 28.25 16.113281 28.367188 16.363281 28.191406 16.550781 C 28.113281 16.628906 28.019531 16.6875 27.917969 16.726562 C 27.816406 16.773438 27.714844 16.8125 27.609375 16.839844 C 27.511719 16.863281 27.449219 16.828125 27.421875 16.730469 C 27.398438 16.632812 27.433594 16.570312 27.53125 16.542969 C 27.578125 16.53125 27.628906 16.515625 27.679688 16.496094 L 27.726562 16.476562 L 27.730469 16.476562 L 27.746094 16.472656 L 27.828125 16.433594 C 27.855469 16.421875 27.878906 16.40625 27.90625 16.390625 L 27.929688 16.375 C 27.929688 16.375 27.945312 16.363281 27.949219 16.363281 C 27.949219 16.359375 27.96875 16.339844 27.972656 16.339844 C 27.972656 16.339844 27.972656 16.347656 27.972656 16.347656 L 27.972656 16.34375 C 27.972656 16.34375 27.972656 16.335938 27.972656 16.335938 L 27.972656 16.320312 C 27.972656 16.3125 27.96875 16.300781 27.964844 16.289062 C 27.960938 16.277344 27.949219 16.238281 27.941406 16.214844 L 27.933594 16.203125 L 27.921875 16.171875 C 27.910156 16.144531 27.894531 16.117188 27.878906 16.09375 C 27.839844 16.019531 27.796875 15.945312 27.753906 15.871094 C 27.703125 15.785156 27.71875 15.714844 27.808594 15.660156 C 27.894531 15.609375 27.964844 15.628906 28.015625 15.714844 C 28.0625 15.777344 28.109375 15.847656 28.148438 15.921875 Z M 6.089844 9.730469 C 5.96875 9.527344 5.835938 9.332031 5.691406 9.144531 C 5.597656 9.023438 5.488281 9.058594 5.347656 9.070312 C 5.203125 9.082031 5.039062 9.097656 4.894531 9.109375 C 4.226562 9.15625 3.558594 9.171875 2.890625 9.15625 C 2.789062 9.15625 2.738281 9.207031 2.738281 9.308594 C 2.765625 9.753906 2.679688 10.175781 2.480469 10.570312 C 2.382812 10.769531 2.257812 10.945312 2.109375 11.109375 C 1.972656 11.253906 1.816406 11.394531 1.882812 11.617188 C 1.925781 11.726562 1.980469 11.828125 2.042969 11.921875 L 2.261719 12.296875 C 2.382812 12.507812 2.5 12.71875 2.628906 12.925781 C 2.84375 13.28125 3.109375 13.652344 3.5 13.828125 C 3.605469 13.875 3.714844 13.910156 3.824219 13.929688 C 4.050781 14.21875 4.472656 14.234375 4.824219 14.222656 C 5.414062 14.210938 5.992188 14.136719 6.5625 14.007812 C 6.617188 13.992188 6.648438 13.957031 6.664062 13.902344 C 6.914062 12.953125 6.90625 12.003906 6.644531 11.054688 C 6.519531 10.589844 6.332031 10.148438 6.089844 9.730469 Z M 6.394531 13.714844 C 5.945312 13.816406 5.484375 13.875 5.023438 13.898438 C 4.816406 13.914062 4.613281 13.914062 4.40625 13.890625 L 4.347656 13.882812 C 4.480469 13.839844 4.597656 13.765625 4.695312 13.667969 C 4.761719 13.59375 4.761719 13.523438 4.691406 13.453125 C 4.621094 13.386719 4.550781 13.382812 4.480469 13.449219 C 4.34375 13.582031 4.1875 13.640625 4 13.628906 C 3.960938 13.582031 3.910156 13.5625 3.847656 13.582031 C 3.832031 13.585938 3.816406 13.59375 3.800781 13.605469 C 3.726562 13.585938 3.65625 13.558594 3.589844 13.523438 C 3.25 13.34375 3.03125 12.996094 2.839844 12.675781 C 2.722656 12.480469 2.613281 12.285156 2.5 12.089844 L 2.320312 11.785156 C 2.292969 11.734375 2.261719 11.683594 2.230469 11.628906 C 2.214844 11.597656 2.167969 11.542969 2.175781 11.503906 C 2.183594 11.4375 2.296875 11.355469 2.339844 11.3125 C 2.40625 11.238281 2.472656 11.160156 2.53125 11.078125 C 2.644531 10.921875 2.738281 10.757812 2.816406 10.582031 C 2.972656 10.226562 3.050781 9.851562 3.046875 9.460938 C 3.859375 9.472656 4.667969 9.4375 5.476562 9.359375 C 5.945312 9.980469 6.261719 10.671875 6.421875 11.433594 C 6.582031 12.195312 6.574219 12.957031 6.394531 13.710938 Z M 4.898438 11.144531 C 4.808594 11.476562 4.886719 11.824219 4.847656 12.164062 C 4.835938 12.277344 4.800781 12.394531 4.664062 12.402344 C 4.566406 12.394531 4.472656 12.371094 4.382812 12.328125 L 3.859375 12.160156 C 3.761719 12.128906 3.730469 12.066406 3.753906 11.972656 C 3.78125 11.875 3.84375 11.839844 3.9375 11.863281 L 4.3125 11.984375 L 4.507812 12.046875 C 4.523438 12.054688 4.535156 12.058594 4.550781 12.066406 C 4.550781 12.019531 4.550781 11.976562 4.554688 11.929688 C 4.554688 11.839844 4.554688 11.746094 4.550781 11.652344 C 4.542969 11.453125 4.558594 11.257812 4.609375 11.0625 C 4.632812 10.960938 4.695312 10.925781 4.796875 10.953125 C 4.898438 10.980469 4.933594 11.046875 4.902344 11.144531 Z M 19.84375 8.425781 Z M 19.816406 8.425781 Z M 21.570312 10.664062 Z M 21.539062 10.648438 L 21.527344 10.640625 C 21.539062 10.648438 21.539062 10.648438 21.539062 10.648438 Z M 21.457031 10.515625 C 21.457031 10.519531 21.457031 10.519531 21.457031 10.523438 C 21.453125 10.519531 21.453125 10.515625 21.457031 10.511719 Z M 23.179688 7.589844 C 23.183594 7.597656 23.179688 7.609375 23.179688 7.589844 Z M 23.316406 7.714844 L 23.304688 7.714844 C 23.304688 7.714844 23.304688 7.703125 23.316406 7.710938 Z M 23.359375 7.707031 C 23.363281 7.695312 23.375 7.695312 23.359375 7.699219 Z M 23.707031 7.488281 L 23.707031 7.496094 C 23.707031 7.496094 23.707031 7.492188 23.707031 7.488281 Z M 23.359375 7.703125 Z M 23.359375 7.703125 L 23.351562 7.703125 C 23.351562 7.703125 23.351562 7.703125 23.355469 7.699219 Z M 18.757812 9.332031 C 18.738281 9.320312 18.714844 9.308594 18.695312 9.296875 C 18.585938 9.246094 18.476562 9.242188 18.363281 9.28125 C 18.109375 9.371094 17.996094 9.550781 18.019531 9.816406 C 18.027344 9.957031 18.078125 10.078125 18.175781 10.179688 C 18.226562 10.230469 18.285156 10.265625 18.355469 10.28125 C 18.367188 10.292969 18.378906 10.304688 18.390625 10.316406 C 18.574219 10.449219 18.835938 10.351562 18.953125 10.175781 C 19.082031 9.984375 19.035156 9.707031 18.925781 9.515625 L 18.925781 9.507812 C 18.976562 9.503906 19.015625 9.480469 19.042969 9.4375 C 19.234375 9.164062 19.425781 8.914062 19.632812 8.664062 C 19.707031 8.710938 19.785156 8.734375 19.875 8.726562 C 19.988281 8.789062 20.109375 8.796875 20.230469 8.75 C 20.34375 8.699219 20.4375 8.625 20.515625 8.523438 L 20.542969 8.488281 L 21.367188 8.929688 C 21.402344 8.949219 21.441406 8.96875 21.476562 8.992188 L 21.496094 9.003906 C 21.496094 9.003906 21.503906 9.023438 21.507812 9.03125 C 21.523438 9.113281 21.53125 9.199219 21.542969 9.277344 C 21.570312 9.453125 21.597656 9.628906 21.625 9.804688 C 21.65625 9.898438 21.71875 9.933594 21.8125 9.90625 C 21.894531 9.875 21.929688 9.816406 21.914062 9.730469 C 21.882812 9.539062 21.851562 9.351562 21.824219 9.160156 C 21.816406 9.082031 21.804688 9 21.78125 8.921875 C 21.796875 8.917969 21.816406 8.914062 21.828125 8.910156 C 22.277344 8.691406 22.722656 8.464844 23.160156 8.226562 C 23.203125 8.203125 23.226562 8.167969 23.230469 8.121094 C 23.238281 8.074219 23.226562 8.03125 23.191406 8 C 23.199219 8 23.203125 8.003906 23.210938 8.003906 C 23.316406 8.035156 23.417969 8.019531 23.515625 7.960938 C 23.550781 7.988281 23.59375 7.996094 23.636719 7.984375 C 23.871094 7.902344 23.996094 7.742188 24.015625 7.496094 C 24.019531 7.382812 23.988281 7.285156 23.921875 7.195312 C 23.855469 7.105469 23.765625 7.050781 23.660156 7.019531 C 23.476562 6.96875 23.308594 6.996094 23.152344 7.101562 C 22.824219 6.804688 22.507812 6.496094 22.210938 6.175781 C 22.222656 6.136719 22.234375 6.09375 22.234375 6.050781 C 22.238281 5.929688 22.199219 5.828125 22.117188 5.742188 C 21.929688 5.558594 21.722656 5.527344 21.492188 5.644531 C 21.277344 5.746094 21.175781 5.917969 21.195312 6.15625 C 21.203125 6.371094 21.308594 6.515625 21.515625 6.585938 C 21.722656 6.65625 21.894531 6.605469 22.03125 6.433594 C 22.320312 6.742188 22.621094 7.035156 22.933594 7.316406 L 22.941406 7.316406 C 22.847656 7.472656 22.84375 7.632812 22.929688 7.792969 C 22.96875 7.855469 23.019531 7.902344 23.082031 7.941406 C 23.054688 7.941406 23.027344 7.949219 23.007812 7.960938 C 22.566406 8.199219 22.125 8.429688 21.675781 8.644531 C 21.640625 8.664062 21.617188 8.691406 21.609375 8.726562 C 21.601562 8.722656 21.59375 8.71875 21.589844 8.714844 C 21.273438 8.542969 20.960938 8.375 20.648438 8.207031 C 20.644531 8.1875 20.640625 8.171875 20.636719 8.152344 C 20.589844 8.039062 20.523438 7.9375 20.433594 7.855469 C 20.351562 7.765625 20.253906 7.707031 20.140625 7.671875 C 20.117188 7.664062 20.089844 7.660156 20.066406 7.65625 C 20.066406 7.636719 20.058594 7.613281 20.042969 7.59375 C 19.703125 7.140625 19.375 6.683594 19.0625 6.21875 C 19.140625 6.167969 19.191406 6.101562 19.210938 6.011719 C 19.238281 5.898438 19.214844 5.792969 19.144531 5.695312 C 19.007812 5.507812 18.820312 5.40625 18.589844 5.390625 C 18.472656 5.386719 18.371094 5.417969 18.28125 5.492188 C 18.199219 5.570312 18.140625 5.664062 18.109375 5.773438 C 18.046875 5.960938 18.058594 6.195312 18.226562 6.324219 C 18.394531 6.453125 18.585938 6.394531 18.75 6.292969 C 19.078125 6.773438 19.417969 7.25 19.765625 7.71875 C 19.53125 7.839844 19.410156 8.03125 19.410156 8.300781 C 19.414062 8.34375 19.421875 8.382812 19.4375 8.425781 C 19.207031 8.703125 18.988281 8.988281 18.78125 9.285156 C 18.765625 9.300781 18.757812 9.316406 18.753906 9.335938 Z M 21.914062 5.960938 L 21.90625 5.949219 C 21.910156 5.953125 21.910156 5.957031 21.910156 5.960938 Z M 21.890625 5.933594 L 21.878906 5.925781 Z M 21.777344 5.882812 C 21.769531 5.882812 21.765625 5.882812 21.765625 5.882812 C 21.765625 5.882812 21.769531 5.886719 21.773438 5.886719 Z M 21.65625 5.898438 L 21.648438 5.898438 C 21.648438 5.898438 21.652344 5.902344 21.652344 5.902344 Z M 21.5 6.082031 L 21.5 6.070312 C 21.5 6.054688 21.503906 6.070312 21.496094 6.082031 Z M 21.519531 6.1875 Z M 21.542969 6.230469 Z M 21.808594 6.214844 C 21.808594 6.214844 21.808594 6.210938 21.808594 6.207031 L 21.800781 6.222656 L 21.792969 6.234375 L 21.777344 6.25 L 21.742188 6.269531 L 21.730469 6.269531 L 21.695312 6.28125 L 21.6875 6.28125 C 21.683594 6.28125 21.679688 6.28125 21.679688 6.28125 L 21.65625 6.28125 C 21.644531 6.28125 21.628906 6.273438 21.617188 6.273438 L 21.605469 6.265625 L 21.574219 6.269531 L 21.542969 6.238281 C 21.539062 6.230469 21.535156 6.226562 21.53125 6.222656 C 21.527344 6.207031 21.519531 6.195312 21.511719 6.183594 C 21.507812 6.175781 21.507812 6.167969 21.503906 6.160156 C 21.503906 6.148438 21.503906 6.136719 21.496094 6.125 C 21.496094 6.117188 21.496094 6.113281 21.496094 6.105469 C 21.496094 6.101562 21.496094 6.09375 21.496094 6.089844 C 21.503906 6.070312 21.507812 6.054688 21.511719 6.039062 C 21.511719 6.03125 21.519531 6.023438 21.523438 6.015625 L 21.53125 6 C 21.535156 5.996094 21.535156 5.996094 21.539062 5.996094 L 21.53125 5.996094 C 21.542969 5.984375 21.554688 5.96875 21.566406 5.957031 C 21.570312 5.953125 21.574219 5.949219 21.582031 5.945312 L 21.617188 5.921875 L 21.636719 5.910156 L 21.683594 5.898438 L 21.699219 5.898438 C 21.699219 5.898438 21.691406 5.898438 21.707031 5.898438 L 21.710938 5.898438 C 21.730469 5.894531 21.746094 5.894531 21.765625 5.898438 L 21.78125 5.898438 L 21.816406 5.90625 L 21.824219 5.910156 L 21.855469 5.929688 L 21.863281 5.929688 C 21.863281 5.929688 21.863281 5.929688 21.871094 5.933594 L 21.875 5.941406 L 21.890625 5.953125 L 21.898438 5.96875 C 21.898438 5.96875 21.90625 5.980469 21.910156 5.988281 C 21.910156 5.992188 21.910156 6 21.914062 6.003906 C 21.914062 6.019531 21.914062 6.035156 21.914062 6.046875 C 21.910156 6.054688 21.910156 6.058594 21.910156 6.066406 C 21.855469 6.082031 21.820312 6.113281 21.808594 6.167969 C 21.808594 6.175781 21.800781 6.183594 21.800781 6.195312 C 21.800781 6.203125 21.800781 6.210938 21.808594 6.21875 Z M 23.652344 7.617188 L 23.660156 7.605469 C 23.660156 7.609375 23.65625 7.613281 23.652344 7.617188 Z M 23.609375 7.320312 L 23.601562 7.320312 C 23.601562 7.320312 23.605469 7.320312 23.609375 7.320312 Z M 23.230469 7.429688 C 23.234375 7.417969 23.242188 7.410156 23.253906 7.402344 C 23.265625 7.390625 23.277344 7.378906 23.292969 7.367188 L 23.316406 7.347656 C 23.332031 7.339844 23.347656 7.332031 23.363281 7.324219 L 23.390625 7.316406 L 23.441406 7.300781 L 23.53125 7.300781 C 23.542969 7.300781 23.5625 7.308594 23.574219 7.3125 L 23.605469 7.324219 L 23.636719 7.34375 L 23.640625 7.34375 L 23.652344 7.351562 C 23.660156 7.351562 23.664062 7.363281 23.671875 7.367188 L 23.675781 7.375 C 23.683594 7.386719 23.6875 7.398438 23.691406 7.402344 C 23.695312 7.410156 23.695312 7.414062 23.695312 7.417969 C 23.695312 7.425781 23.695312 7.433594 23.695312 7.441406 L 23.695312 7.445312 C 23.695312 7.445312 23.695312 7.472656 23.695312 7.484375 C 23.695312 7.476562 23.703125 7.472656 23.695312 7.488281 C 23.695312 7.488281 23.695312 7.511719 23.6875 7.519531 L 23.683594 7.539062 C 23.675781 7.554688 23.667969 7.570312 23.65625 7.585938 C 23.65625 7.589844 23.652344 7.589844 23.652344 7.59375 C 23.648438 7.597656 23.644531 7.601562 23.640625 7.605469 C 23.628906 7.617188 23.617188 7.628906 23.605469 7.640625 L 23.578125 7.660156 L 23.5625 7.667969 L 23.546875 7.667969 L 23.535156 7.671875 C 23.472656 7.632812 23.410156 7.636719 23.351562 7.683594 L 23.34375 7.691406 L 23.351562 7.683594 C 23.339844 7.691406 23.339844 7.683594 23.351562 7.683594 C 23.34375 7.683594 23.335938 7.6875 23.328125 7.691406 L 23.316406 7.691406 C 23.316406 7.691406 23.316406 7.691406 23.308594 7.691406 C 23.304688 7.691406 23.304688 7.691406 23.300781 7.691406 L 23.289062 7.691406 L 23.273438 7.683594 C 23.261719 7.679688 23.25 7.671875 23.238281 7.667969 C 23.230469 7.660156 23.222656 7.648438 23.230469 7.667969 C 23.242188 7.6875 23.230469 7.667969 23.226562 7.660156 C 23.214844 7.648438 23.207031 7.640625 23.195312 7.628906 C 23.195312 7.628906 23.191406 7.621094 23.1875 7.613281 C 23.183594 7.609375 23.1875 7.601562 23.183594 7.59375 C 23.183594 7.589844 23.183594 7.582031 23.183594 7.574219 C 23.183594 7.566406 23.183594 7.554688 23.183594 7.546875 L 23.183594 7.539062 C 23.1875 7.523438 23.191406 7.503906 23.195312 7.488281 C 23.199219 7.484375 23.199219 7.480469 23.203125 7.476562 C 23.210938 7.460938 23.21875 7.445312 23.230469 7.429688 Z M 20.34375 8.242188 C 20.34375 8.238281 20.34375 8.242188 20.34375 8.242188 Z M 20.03125 7.960938 Z M 18.898438 5.960938 Z M 18.890625 5.867188 Z M 18.546875 5.695312 L 18.539062 5.695312 C 18.539062 5.695312 18.542969 5.695312 18.546875 5.695312 Z M 18.554688 5.695312 Z M 18.472656 5.730469 Z M 18.371094 6.027344 C 18.371094 6 18.375 6.011719 18.375 6.019531 Z M 18.386719 6.070312 C 18.386719 6.070312 18.386719 6.070312 18.394531 6.082031 C 18.398438 6.089844 18.390625 6.070312 18.390625 6.0625 Z M 18.417969 6.097656 Z M 18.457031 6.097656 C 18.457031 6.097656 18.464844 6.097656 18.464844 6.097656 Z M 18.632812 6.007812 Z M 18.640625 6 L 18.621094 6.015625 C 18.589844 6.035156 18.558594 6.054688 18.523438 6.074219 L 18.5 6.082031 C 18.484375 6.089844 18.46875 6.089844 18.453125 6.097656 L 18.410156 6.097656 C 18.40625 6.097656 18.402344 6.097656 18.402344 6.097656 C 18.398438 6.09375 18.394531 6.09375 18.390625 6.089844 C 18.390625 6.085938 18.382812 6.078125 18.378906 6.074219 C 18.378906 6.070312 18.375 6.066406 18.375 6.058594 C 18.375 6.054688 18.375 6.050781 18.375 6.042969 C 18.375 6.03125 18.375 6.015625 18.375 6.003906 C 18.375 6.003906 18.375 5.964844 18.375 5.957031 C 18.375 5.953125 18.367188 5.988281 18.375 5.957031 C 18.375 5.949219 18.375 5.941406 18.375 5.933594 C 18.382812 5.902344 18.394531 5.875 18.402344 5.84375 C 18.40625 5.839844 18.40625 5.832031 18.410156 5.828125 C 18.417969 5.808594 18.429688 5.789062 18.441406 5.773438 L 18.472656 5.742188 C 18.472656 5.742188 18.492188 5.730469 18.496094 5.726562 L 18.507812 5.726562 L 18.535156 5.71875 L 18.601562 5.71875 C 18.5625 5.71875 18.613281 5.71875 18.621094 5.722656 L 18.675781 5.742188 L 18.6875 5.742188 L 18.699219 5.746094 C 18.714844 5.753906 18.730469 5.761719 18.746094 5.769531 C 18.757812 5.777344 18.769531 5.785156 18.78125 5.792969 L 18.804688 5.808594 L 18.808594 5.8125 L 18.851562 5.851562 L 18.871094 5.871094 L 18.875 5.878906 L 18.890625 5.898438 L 18.898438 5.917969 L 18.898438 5.925781 C 18.898438 5.929688 18.898438 5.933594 18.898438 5.9375 L 18.898438 5.949219 C 18.898438 5.953125 18.898438 5.957031 18.898438 5.960938 C 18.898438 5.960938 18.898438 5.960938 18.898438 5.964844 L 18.878906 5.964844 C 18.8125 5.902344 18.742188 5.902344 18.671875 5.964844 L 18.632812 6 Z M 19.703125 8.253906 C 19.703125 8.234375 19.714844 8.21875 19.71875 8.199219 C 19.722656 8.183594 19.71875 8.195312 19.71875 8.1875 C 19.722656 8.179688 19.726562 8.171875 19.730469 8.164062 C 19.738281 8.148438 19.746094 8.136719 19.753906 8.121094 L 19.769531 8.105469 L 19.777344 8.09375 C 19.789062 8.082031 19.800781 8.066406 19.816406 8.050781 L 19.832031 8.039062 L 19.847656 8.023438 C 19.863281 8.015625 19.878906 8.003906 19.898438 7.992188 L 19.925781 7.976562 C 19.917969 7.976562 19.902344 7.984375 19.933594 7.976562 L 19.957031 7.972656 L 20.023438 7.972656 L 20.050781 7.976562 L 20.070312 7.984375 L 20.113281 8.007812 L 20.136719 8.019531 L 20.15625 8.035156 L 20.167969 8.046875 L 20.191406 8.066406 C 20.203125 8.078125 20.214844 8.089844 20.226562 8.101562 C 20.238281 8.113281 20.253906 8.132812 20.265625 8.148438 C 20.265625 8.140625 20.25 8.128906 20.265625 8.148438 L 20.285156 8.179688 C 20.296875 8.191406 20.304688 8.207031 20.316406 8.222656 L 20.328125 8.25 C 20.324219 8.261719 20.316406 8.273438 20.304688 8.285156 L 20.296875 8.296875 L 20.273438 8.324219 C 20.257812 8.34375 20.242188 8.359375 20.226562 8.375 C 20.210938 8.394531 20.195312 8.410156 20.179688 8.425781 L 20.164062 8.4375 L 20.144531 8.453125 C 20.136719 8.457031 20.125 8.460938 20.117188 8.46875 L 20.109375 8.472656 L 20.085938 8.480469 L 20.0625 8.484375 L 20.019531 8.484375 L 20.007812 8.476562 C 19.964844 8.425781 19.914062 8.410156 19.855469 8.429688 L 19.832031 8.4375 C 19.824219 8.4375 19.820312 8.4375 19.820312 8.4375 L 19.804688 8.4375 L 19.816406 8.4375 C 19.804688 8.4375 19.800781 8.4375 19.808594 8.4375 L 19.78125 8.4375 L 19.78125 8.40625 C 19.777344 8.375 19.761719 8.34375 19.738281 8.324219 C 19.730469 8.316406 19.722656 8.308594 19.710938 8.304688 C 19.710938 8.292969 19.710938 8.285156 19.710938 8.277344 C 19.710938 8.265625 19.707031 8.253906 19.707031 8.246094 Z M 18.6875 9.730469 Z M 18.371094 9.953125 L 18.378906 9.960938 C 18.378906 9.960938 18.371094 9.957031 18.371094 9.953125 Z M 18.425781 9.996094 C 18.425781 9.996094 18.425781 9.992188 18.425781 9.992188 Z M 18.421875 9.996094 Z M 18.597656 10.078125 C 18.601562 10.078125 18.605469 10.078125 18.609375 10.078125 Z M 18.65625 10.058594 Z M 18.664062 10.050781 L 18.644531 10.0625 L 18.628906 10.0625 C 18.625 10.054688 18.621094 10.046875 18.617188 10.039062 C 18.566406 9.957031 18.5 9.9375 18.414062 9.980469 L 18.417969 9.980469 L 18.402344 9.972656 C 18.402344 9.972656 18.394531 9.964844 18.386719 9.957031 C 18.382812 9.953125 18.378906 9.945312 18.375 9.941406 C 18.371094 9.929688 18.367188 9.921875 18.363281 9.914062 L 18.355469 9.902344 C 18.355469 9.894531 18.355469 9.886719 18.355469 9.886719 C 18.355469 9.878906 18.351562 9.871094 18.351562 9.863281 C 18.347656 9.855469 18.347656 9.847656 18.34375 9.839844 L 18.34375 9.824219 C 18.34375 9.808594 18.34375 9.789062 18.34375 9.769531 C 18.34375 9.761719 18.34375 9.753906 18.34375 9.746094 C 18.34375 9.738281 18.34375 9.738281 18.34375 9.738281 C 18.34375 9.734375 18.355469 9.703125 18.355469 9.699219 L 18.363281 9.675781 L 18.371094 9.660156 L 18.382812 9.644531 C 18.394531 9.636719 18.402344 9.621094 18.410156 9.613281 L 18.417969 9.605469 L 18.425781 9.605469 C 18.433594 9.597656 18.445312 9.589844 18.457031 9.582031 L 18.46875 9.582031 L 18.488281 9.578125 L 18.511719 9.578125 C 18.523438 9.578125 18.523438 9.578125 18.519531 9.578125 L 18.550781 9.578125 L 18.585938 9.589844 C 18.59375 9.589844 18.597656 9.597656 18.605469 9.601562 C 18.617188 9.613281 18.628906 9.625 18.640625 9.636719 L 18.648438 9.640625 L 18.648438 9.648438 L 18.65625 9.65625 C 18.664062 9.671875 18.671875 9.6875 18.679688 9.703125 C 18.6875 9.714844 18.695312 9.722656 18.699219 9.734375 C 18.699219 9.734375 18.699219 9.734375 18.699219 9.746094 L 18.710938 9.773438 C 18.714844 9.792969 18.722656 9.8125 18.726562 9.832031 C 18.726562 9.839844 18.726562 9.851562 18.726562 9.859375 C 18.726562 9.875 18.726562 9.894531 18.726562 9.914062 C 18.726562 9.933594 18.726562 9.933594 18.726562 9.945312 C 18.726562 9.957031 18.726562 9.957031 18.726562 9.953125 C 18.722656 9.96875 18.71875 9.984375 18.710938 10 L 18.695312 10.023438 L 18.695312 10.03125 L 18.6875 10.042969 Z M 18.414062 9.992188 Z M 18.414062 9.992188 Z M 18.480469 9.566406 Z M 18.40625 6.085938 L 18.414062 6.085938 Z M 18.371094 5.941406 Z M 18.445312 5.75 L 18.453125 5.746094 C 18.453125 5.746094 18.457031 5.746094 18.449219 5.75 Z M 21.804688 6.203125 L 21.804688 6.207031 C 21.808594 6.199219 21.816406 6.199219 21.816406 6.203125 Z M 21.714844 5.886719 L 21.703125 5.886719 Z M 21.53125 5.988281 C 21.539062 5.980469 21.542969 5.976562 21.53125 5.988281 Z M 21.679688 6.292969 L 21.664062 6.292969 C 21.664062 6.292969 21.675781 6.296875 21.6875 6.296875 Z M 23.597656 9.894531 C 23.125 10.050781 22.644531 10.191406 22.164062 10.320312 C 22.128906 10.25 22.085938 10.183594 22.035156 10.128906 C 21.957031 10.042969 21.859375 9.984375 21.75 9.949219 C 21.613281 9.914062 21.492188 9.941406 21.386719 10.035156 C 21.1875 10.179688 21.113281 10.375 21.164062 10.613281 C 21.222656 10.820312 21.355469 10.9375 21.566406 10.96875 C 21.589844 11.035156 21.636719 11.070312 21.707031 11.070312 C 21.730469 11.070312 21.75 11.070312 21.769531 11.070312 C 21.9375 11.511719 22.132812 11.9375 22.363281 12.347656 C 22.308594 12.394531 22.261719 12.445312 22.21875 12.5 C 22.160156 12.585938 22.128906 12.679688 22.128906 12.785156 C 22.136719 12.90625 22.1875 13 22.285156 13.066406 C 22.371094 13.125 22.46875 13.148438 22.570312 13.140625 C 22.695312 13.121094 22.808594 13.082031 22.917969 13.023438 C 22.949219 13.007812 22.96875 12.980469 22.980469 12.949219 C 23.054688 12.964844 23.109375 12.941406 23.152344 12.878906 C 23.25 12.722656 23.246094 12.570312 23.140625 12.417969 C 23.035156 12.253906 22.886719 12.1875 22.695312 12.210938 C 22.675781 12.210938 22.65625 12.214844 22.640625 12.21875 C 22.410156 11.808594 22.210938 11.382812 22.046875 10.941406 C 22.117188 10.875 22.164062 10.800781 22.195312 10.710938 C 22.203125 10.679688 22.210938 10.652344 22.214844 10.621094 C 22.730469 10.484375 23.246094 10.332031 23.753906 10.164062 C 23.820312 10.21875 23.894531 10.261719 23.976562 10.285156 C 23.980469 10.296875 23.984375 10.304688 23.988281 10.3125 C 24.042969 10.398438 24.109375 10.414062 24.199219 10.367188 C 24.367188 10.265625 24.484375 10.121094 24.539062 9.933594 C 24.601562 9.730469 24.566406 9.488281 24.351562 9.402344 C 24.25 9.371094 24.144531 9.375 24.042969 9.414062 C 23.960938 9.433594 23.886719 9.464844 23.816406 9.507812 C 23.667969 9.59375 23.59375 9.722656 23.597656 9.894531 Z M 22.640625 12.53125 C 22.632812 12.53125 22.617188 12.542969 22.640625 12.53125 Z M 22.449219 12.808594 Z M 22.707031 12.515625 L 22.710938 12.515625 C 22.695312 12.523438 22.710938 12.515625 22.71875 12.515625 L 22.777344 12.515625 L 22.796875 12.519531 L 22.8125 12.519531 C 22.820312 12.519531 22.828125 12.527344 22.835938 12.53125 C 22.84375 12.535156 22.835938 12.53125 22.84375 12.53125 C 22.855469 12.539062 22.863281 12.546875 22.871094 12.558594 C 22.871094 12.558594 22.878906 12.566406 22.882812 12.570312 C 22.882812 12.570312 22.894531 12.59375 22.898438 12.601562 C 22.898438 12.605469 22.898438 12.609375 22.898438 12.613281 C 22.898438 12.625 22.898438 12.636719 22.90625 12.648438 L 22.90625 12.683594 C 22.90625 12.6875 22.90625 12.691406 22.90625 12.699219 C 22.898438 12.707031 22.894531 12.722656 22.886719 12.730469 C 22.882812 12.734375 22.878906 12.742188 22.875 12.75 C 22.835938 12.742188 22.800781 12.746094 22.761719 12.765625 L 22.679688 12.804688 L 22.644531 12.820312 C 22.625 12.824219 22.601562 12.832031 22.582031 12.835938 L 22.476562 12.835938 L 22.457031 12.828125 C 22.457031 12.828125 22.457031 12.820312 22.457031 12.820312 L 22.457031 12.789062 C 22.457031 12.785156 22.457031 12.78125 22.457031 12.777344 C 22.460938 12.769531 22.460938 12.761719 22.464844 12.753906 L 22.464844 12.738281 L 22.480469 12.710938 C 22.484375 12.699219 22.492188 12.691406 22.5 12.679688 C 22.503906 12.675781 22.507812 12.667969 22.511719 12.664062 C 22.523438 12.652344 22.53125 12.640625 22.542969 12.632812 L 22.570312 12.605469 L 22.5625 12.613281 C 22.585938 12.59375 22.609375 12.578125 22.636719 12.566406 C 22.636719 12.566406 22.648438 12.566406 22.652344 12.558594 C 22.667969 12.554688 22.683594 12.550781 22.695312 12.546875 Z M 21.613281 10.671875 L 21.609375 10.671875 C 21.578125 10.671875 21.601562 10.671875 21.613281 10.671875 Z M 21.652344 10.671875 Z M 21.480469 10.398438 C 21.480469 10.390625 21.488281 10.382812 21.480469 10.398438 Z M 21.460938 10.453125 C 21.460938 10.453125 21.460938 10.464844 21.460938 10.46875 C 21.460938 10.472656 21.457031 10.457031 21.457031 10.453125 Z M 21.535156 10.636719 L 21.503906 10.609375 L 21.496094 10.59375 C 21.492188 10.589844 21.488281 10.582031 21.484375 10.578125 C 21.480469 10.570312 21.476562 10.566406 21.476562 10.5625 C 21.46875 10.550781 21.476562 10.554688 21.476562 10.570312 C 21.46875 10.5625 21.464844 10.539062 21.460938 10.527344 C 21.460938 10.523438 21.460938 10.523438 21.460938 10.519531 L 21.460938 10.511719 C 21.460938 10.503906 21.460938 10.492188 21.460938 10.480469 C 21.460938 10.476562 21.460938 10.472656 21.460938 10.46875 C 21.460938 10.460938 21.460938 10.449219 21.46875 10.441406 L 21.480469 10.410156 L 21.5 10.371094 L 21.519531 10.34375 C 21.527344 10.332031 21.539062 10.320312 21.546875 10.308594 L 21.566406 10.292969 L 21.578125 10.285156 L 21.585938 10.277344 L 21.609375 10.265625 L 21.621094 10.257812 L 21.636719 10.253906 L 21.65625 10.253906 L 21.679688 10.257812 L 21.710938 10.273438 L 21.730469 10.285156 C 21.746094 10.292969 21.757812 10.300781 21.773438 10.308594 L 21.796875 10.332031 C 21.808594 10.34375 21.820312 10.351562 21.832031 10.367188 C 21.84375 10.378906 21.855469 10.398438 21.851562 10.390625 C 21.859375 10.402344 21.867188 10.414062 21.871094 10.421875 L 21.886719 10.445312 C 21.886719 10.445312 21.902344 10.488281 21.886719 10.453125 C 21.894531 10.472656 21.902344 10.496094 21.90625 10.515625 C 21.90625 10.523438 21.90625 10.53125 21.90625 10.539062 C 21.90625 10.546875 21.90625 10.554688 21.90625 10.5625 C 21.90625 10.570312 21.90625 10.578125 21.90625 10.585938 C 21.90625 10.589844 21.90625 10.589844 21.90625 10.59375 C 21.902344 10.609375 21.898438 10.625 21.894531 10.644531 C 21.894531 10.648438 21.894531 10.652344 21.894531 10.65625 L 21.886719 10.664062 C 21.882812 10.671875 21.878906 10.679688 21.875 10.6875 C 21.875 10.6875 21.863281 10.703125 21.863281 10.703125 L 21.835938 10.730469 L 21.824219 10.746094 L 21.8125 10.75 C 21.773438 10.6875 21.71875 10.664062 21.644531 10.679688 L 21.613281 10.679688 C 21.601562 10.675781 21.585938 10.671875 21.574219 10.667969 C 21.574219 10.667969 21.578125 10.667969 21.574219 10.667969 L 21.566406 10.667969 L 21.542969 10.65625 L 21.539062 10.65625 Z M 24.171875 10.003906 C 24.171875 10 24.175781 9.992188 24.179688 9.988281 C 24.179688 9.988281 24.171875 9.996094 24.164062 10 Z M 24.234375 9.902344 L 24.234375 9.890625 C 24.234375 9.890625 24.230469 9.894531 24.230469 9.894531 Z M 24.265625 9.785156 C 24.265625 9.78125 24.265625 9.777344 24.265625 9.773438 C 24.265625 9.773438 24.261719 9.773438 24.261719 9.78125 Z M 24.042969 9.992188 L 24.039062 9.992188 C 24.015625 9.976562 24.03125 9.980469 24.039062 9.984375 Z M 24.257812 9.683594 Z M 24.257812 9.683594 Z M 24.257812 9.683594 Z M 24.257812 9.683594 C 24.261719 9.6875 24.261719 9.6875 24.253906 9.683594 Z M 23.949219 9.785156 C 23.972656 9.777344 23.992188 9.757812 24.015625 9.746094 C 24.035156 9.734375 24.042969 9.734375 24.054688 9.730469 L 24.074219 9.722656 C 24.101562 9.710938 24.128906 9.703125 24.152344 9.699219 C 24.171875 9.699219 24.191406 9.6875 24.207031 9.683594 L 24.246094 9.683594 C 24.230469 9.683594 24.246094 9.683594 24.25 9.683594 L 24.257812 9.683594 C 24.257812 9.6875 24.257812 9.691406 24.257812 9.695312 C 24.257812 9.695312 24.257812 9.695312 24.257812 9.703125 C 24.257812 9.707031 24.257812 9.710938 24.257812 9.714844 L 24.257812 9.722656 C 24.257812 9.730469 24.257812 9.734375 24.257812 9.730469 C 24.257812 9.738281 24.257812 9.746094 24.257812 9.753906 C 24.257812 9.761719 24.257812 9.769531 24.257812 9.777344 C 24.257812 9.792969 24.25 9.816406 24.246094 9.816406 C 24.242188 9.835938 24.238281 9.855469 24.230469 9.871094 C 24.230469 9.871094 24.230469 9.871094 24.230469 9.878906 L 24.226562 9.890625 C 24.210938 9.925781 24.191406 9.960938 24.171875 9.992188 L 24.164062 10 C 24.160156 10.003906 24.15625 10.007812 24.152344 10.011719 C 24.125 10.007812 24.101562 10 24.074219 9.992188 L 24.042969 9.980469 C 24.035156 9.976562 24.023438 9.972656 24.015625 9.96875 L 23.980469 9.949219 L 23.964844 9.9375 L 23.941406 9.917969 L 23.925781 9.902344 L 23.910156 9.878906 C 23.910156 9.878906 23.910156 9.878906 23.910156 9.871094 C 23.910156 9.867188 23.910156 9.871094 23.910156 9.863281 C 23.910156 9.859375 23.910156 9.855469 23.910156 9.851562 C 23.910156 9.855469 23.910156 9.855469 23.910156 9.859375 L 23.910156 9.832031 L 23.921875 9.808594 L 23.933594 9.800781 Z M 24.269531 9.714844 L 24.269531 9.730469 C 24.265625 9.726562 24.261719 9.722656 24.261719 9.714844 Z M 23.914062 9.875 C 23.914062 9.875 23.914062 9.871094 23.914062 9.867188 L 23.914062 9.859375 C 23.90625 9.871094 23.90625 9.875 23.90625 9.875 Z M 22.835938 12.535156 L 22.847656 12.542969 C 22.835938 12.539062 22.835938 12.535156 22.835938 12.535156 Z M 22.523438 12.839844 Z M 22.878906 12.582031 C 22.867188 12.570312 22.871094 12.566406 22.878906 12.582031 Z M 1.113281 19.054688 C 1.109375 19.058594 1.105469 19.058594 1.105469 19.0625 C 1.105469 19.0625 1.113281 19.054688 1.113281 19.054688 Z M 3.566406 17.242188 C 3.566406 17.246094 3.566406 17.246094 3.566406 17.25 C 3.566406 17.246094 3.566406 17.246094 3.566406 17.242188 Z M 3.566406 17.179688 C 3.566406 17.179688 3.566406 17.179688 3.566406 17.1875 C 3.566406 17.1875 3.566406 17.183594 3.566406 17.179688 Z M 3.546875 17.136719 L 3.554688 17.144531 C 3.550781 17.144531 3.546875 17.140625 3.546875 17.136719 Z M 3.195312 17.34375 Z M 3.515625 17.121094 L 3.523438 17.121094 C 3.523438 17.121094 3.527344 17.125 3.519531 17.117188 Z M 3.210938 17.355469 L 3.21875 17.355469 Z M 3.421875 17.113281 C 3.414062 17.113281 3.410156 17.113281 3.40625 17.113281 Z M 3.183594 17.277344 C 3.183594 17.273438 3.183594 17.269531 3.183594 17.265625 C 3.191406 17.273438 3.191406 17.277344 3.1875 17.277344 Z M 3.183594 17.300781 C 3.183594 17.296875 3.183594 17.292969 3.183594 17.289062 C 3.183594 17.289062 3.183594 17.292969 3.183594 17.300781 Z M 3.550781 17.308594 L 3.550781 17.320312 C 3.550781 17.316406 3.550781 17.3125 3.550781 17.308594 Z M 1.222656 21.050781 Z M 1.089844 20.917969 Z M 5.097656 19.339844 L 4.890625 18.296875 C 4.976562 18.265625 5.042969 18.214844 5.097656 18.144531 C 5.160156 18.050781 5.195312 17.949219 5.199219 17.835938 C 5.195312 17.710938 5.160156 17.59375 5.097656 17.484375 C 5.039062 17.378906 4.972656 17.28125 4.890625 17.191406 C 4.796875 17.082031 4.683594 17.050781 4.546875 17.097656 C 4.4375 17.148438 4.355469 17.226562 4.300781 17.332031 C 4.242188 17.4375 4.203125 17.542969 4.179688 17.660156 C 4.144531 17.792969 4.160156 17.921875 4.230469 18.042969 C 4.308594 18.148438 4.410156 18.199219 4.539062 18.203125 C 4.546875 18.203125 4.558594 18.203125 4.566406 18.203125 L 4.808594 19.417969 C 4.695312 19.488281 4.617188 19.589844 4.578125 19.71875 C 4.570312 19.714844 4.558594 19.710938 4.546875 19.710938 C 3.945312 19.667969 3.34375 19.644531 2.742188 19.648438 C 2.738281 19.628906 2.730469 19.613281 2.722656 19.59375 C 2.714844 19.582031 2.703125 19.574219 2.695312 19.5625 C 2.878906 18.960938 3.085938 18.367188 3.320312 17.785156 C 3.34375 17.792969 3.371094 17.792969 3.398438 17.789062 C 3.585938 17.753906 3.71875 17.652344 3.808594 17.484375 C 3.902344 17.308594 3.917969 17.070312 3.769531 16.917969 C 3.625 16.792969 3.464844 16.761719 3.285156 16.828125 C 3.089844 16.886719 2.957031 17.011719 2.894531 17.203125 C 2.863281 17.332031 2.890625 17.445312 2.976562 17.546875 C 3.003906 17.574219 3.03125 17.597656 3.066406 17.617188 C 3.050781 17.636719 3.035156 17.65625 3.027344 17.679688 C 2.808594 18.238281 2.605469 18.800781 2.429688 19.371094 L 2.328125 19.296875 L 2.226562 19.226562 L 2.203125 19.207031 L 2.191406 19.199219 L 2.175781 19.1875 L 2.148438 19.164062 C 2.046875 19.085938 1.949219 19.003906 1.851562 18.917969 C 1.859375 18.886719 1.863281 18.859375 1.863281 18.828125 C 1.867188 18.675781 1.839844 18.53125 1.777344 18.394531 C 1.726562 18.246094 1.636719 18.132812 1.503906 18.054688 C 1.375 17.988281 1.238281 17.964844 1.097656 17.992188 C 0.957031 18.015625 0.835938 18.082031 0.738281 18.1875 C 0.539062 18.417969 0.480469 18.675781 0.5625 18.96875 C 0.601562 19.136719 0.699219 19.257812 0.847656 19.335938 C 0.957031 19.390625 1.070312 19.394531 1.1875 19.355469 C 1.21875 19.386719 1.257812 19.402344 1.300781 19.40625 C 1.457031 19.417969 1.589844 19.367188 1.695312 19.25 C 1.703125 19.238281 1.714844 19.226562 1.722656 19.214844 C 1.917969 19.378906 2.121094 19.535156 2.332031 19.679688 C 2.082031 19.890625 1.863281 20.132812 1.679688 20.40625 L 1.671875 20.40625 C 1.457031 20.3125 1.253906 20.332031 1.0625 20.460938 C 0.84375 20.585938 0.757812 20.773438 0.800781 21.019531 C 0.835938 21.144531 0.90625 21.238281 1.015625 21.304688 C 1.09375 21.351562 1.175781 21.367188 1.265625 21.355469 C 1.304688 21.417969 1.359375 21.4375 1.429688 21.421875 C 1.65625 21.363281 1.808594 21.226562 1.886719 21.007812 C 1.929688 20.878906 1.929688 20.75 1.878906 20.625 C 1.90625 20.613281 1.929688 20.59375 1.945312 20.566406 C 1.96875 20.527344 1.996094 20.488281 2.023438 20.449219 L 2.066406 20.394531 L 2.066406 20.390625 C 2.074219 20.378906 2.082031 20.371094 2.089844 20.359375 C 2.144531 20.289062 2.203125 20.222656 2.265625 20.15625 C 2.328125 20.09375 2.394531 20.027344 2.460938 19.96875 L 2.5625 19.878906 C 2.589844 19.933594 2.632812 19.957031 2.695312 19.953125 C 3.308594 19.953125 3.925781 19.976562 4.539062 20.019531 L 4.566406 20.019531 C 4.589844 20.105469 4.628906 20.183594 4.683594 20.25 C 4.671875 20.269531 4.667969 20.292969 4.667969 20.316406 C 4.667969 20.371094 4.691406 20.410156 4.738281 20.4375 C 4.601562 20.742188 4.507812 21.058594 4.445312 21.382812 C 4.441406 21.40625 4.441406 21.429688 4.445312 21.453125 C 4.417969 21.449219 4.390625 21.449219 4.363281 21.449219 C 4.167969 21.457031 4.023438 21.546875 3.9375 21.722656 C 3.886719 21.820312 3.878906 21.925781 3.914062 22.03125 C 3.953125 22.148438 4.023438 22.230469 4.132812 22.285156 C 4.21875 22.339844 4.289062 22.320312 4.339844 22.230469 C 4.390625 22.144531 4.375 22.074219 4.285156 22.023438 C 4.273438 22.015625 4.261719 22.011719 4.25 22.003906 L 4.222656 21.976562 L 4.214844 21.960938 C 4.214844 21.960938 4.214844 21.949219 4.207031 21.945312 C 4.199219 21.9375 4.199219 21.917969 4.199219 21.917969 C 4.199219 21.914062 4.199219 21.914062 4.199219 21.910156 C 4.199219 21.90625 4.199219 21.902344 4.199219 21.898438 C 4.199219 21.886719 4.207031 21.875 4.207031 21.863281 C 4.210938 21.859375 4.214844 21.855469 4.214844 21.847656 L 4.226562 21.835938 C 4.234375 21.824219 4.242188 21.816406 4.25 21.808594 L 4.261719 21.796875 L 4.296875 21.777344 L 4.304688 21.773438 L 4.339844 21.761719 L 4.40625 21.761719 L 4.429688 21.769531 L 4.453125 21.78125 L 4.46875 21.792969 C 4.476562 21.800781 4.488281 21.808594 4.496094 21.820312 C 4.503906 21.824219 4.507812 21.832031 4.511719 21.839844 L 4.53125 21.871094 L 4.546875 21.894531 C 4.546875 21.902344 4.546875 21.910156 4.554688 21.917969 L 4.5625 21.953125 L 4.5625 21.96875 C 4.566406 21.984375 4.566406 22 4.5625 22.011719 C 4.566406 22.019531 4.566406 22.027344 4.5625 22.035156 C 4.558594 22.0625 4.550781 22.089844 4.542969 22.113281 L 4.53125 22.140625 C 4.523438 22.15625 4.511719 22.167969 4.503906 22.183594 L 4.492188 22.199219 C 4.507812 22.175781 4.492188 22.199219 4.492188 22.203125 C 4.492188 22.207031 4.46875 22.230469 4.457031 22.242188 L 4.421875 22.273438 L 4.398438 22.289062 C 4.367188 22.308594 4.335938 22.328125 4.300781 22.34375 C 4.21875 22.390625 4.203125 22.460938 4.246094 22.546875 C 4.296875 22.625 4.367188 22.644531 4.453125 22.601562 C 4.621094 22.523438 4.746094 22.402344 4.820312 22.230469 C 4.898438 22.050781 4.890625 21.875 4.792969 21.703125 C 4.757812 21.640625 4.710938 21.589844 4.65625 21.542969 C 4.695312 21.527344 4.71875 21.496094 4.726562 21.453125 C 4.792969 21.09375 4.910156 20.75 5.070312 20.421875 C 5.191406 20.367188 5.296875 20.285156 5.386719 20.183594 C 5.460938 20.105469 5.511719 20.007812 5.535156 19.902344 C 5.558594 19.785156 5.539062 19.679688 5.476562 19.578125 C 5.390625 19.433594 5.261719 19.355469 5.097656 19.339844 Z M 3.207031 17.355469 C 3.207031 17.351562 3.207031 17.351562 3.207031 17.347656 Z M 3.230469 17.367188 Z M 3.207031 17.367188 L 3.199219 17.367188 C 3.199219 17.367188 3.203125 17.359375 3.207031 17.359375 Z M 3.183594 17.292969 C 3.1875 17.289062 3.1875 17.285156 3.183594 17.28125 C 3.183594 17.28125 3.183594 17.28125 3.183594 17.273438 C 3.183594 17.273438 3.183594 17.269531 3.183594 17.269531 C 3.191406 17.257812 3.199219 17.246094 3.207031 17.234375 L 3.210938 17.230469 C 3.222656 17.214844 3.234375 17.203125 3.25 17.191406 L 3.253906 17.191406 L 3.261719 17.1875 L 3.296875 17.164062 L 3.332031 17.144531 C 3.3125 17.15625 3.339844 17.144531 3.34375 17.144531 L 3.402344 17.132812 C 3.394531 17.132812 3.402344 17.132812 3.40625 17.132812 L 3.488281 17.132812 L 3.519531 17.140625 L 3.511719 17.140625 L 3.523438 17.140625 C 3.527344 17.140625 3.53125 17.140625 3.53125 17.140625 L 3.535156 17.140625 L 3.546875 17.148438 C 3.546875 17.144531 3.546875 17.144531 3.550781 17.15625 L 3.554688 17.15625 L 3.5625 17.167969 C 3.5625 17.175781 3.5625 17.179688 3.566406 17.1875 C 3.566406 17.1875 3.566406 17.1875 3.566406 17.191406 C 3.566406 17.199219 3.566406 17.203125 3.566406 17.199219 C 3.570312 17.203125 3.570312 17.210938 3.566406 17.21875 C 3.566406 17.226562 3.566406 17.238281 3.566406 17.25 C 3.566406 17.242188 3.574219 17.234375 3.566406 17.25 C 3.566406 17.253906 3.566406 17.257812 3.566406 17.257812 L 3.566406 17.273438 C 3.566406 17.285156 3.5625 17.300781 3.558594 17.3125 L 3.558594 17.320312 C 3.558594 17.320312 3.558594 17.320312 3.558594 17.328125 C 3.558594 17.335938 3.558594 17.332031 3.558594 17.332031 C 3.558594 17.335938 3.558594 17.332031 3.558594 17.332031 C 3.550781 17.347656 3.542969 17.363281 3.535156 17.375 C 3.53125 17.378906 3.527344 17.386719 3.523438 17.390625 L 3.488281 17.425781 L 3.472656 17.445312 L 3.460938 17.449219 L 3.441406 17.464844 L 3.421875 17.472656 C 3.394531 17.382812 3.332031 17.351562 3.238281 17.371094 L 3.214844 17.371094 C 3.210938 17.371094 3.207031 17.367188 3.207031 17.367188 L 3.214844 17.367188 L 3.203125 17.367188 L 3.195312 17.355469 L 3.199219 17.363281 C 3.199219 17.355469 3.191406 17.347656 3.183594 17.339844 L 3.183594 17.316406 C 3.183594 17.316406 3.183594 17.316406 3.183594 17.320312 C 3.183594 17.320312 3.183594 17.316406 3.183594 17.316406 C 3.183594 17.289062 3.183594 17.285156 3.183594 17.285156 Z M 1.402344 19.09375 Z M 1.445312 19.066406 L 1.40625 19.089844 L 1.402344 19.089844 L 1.363281 19.101562 C 1.355469 19.082031 1.34375 19.066406 1.332031 19.050781 C 1.257812 18.984375 1.1875 18.984375 1.113281 19.050781 L 1.105469 19.058594 C 1.097656 19.058594 1.085938 19.0625 1.078125 19.066406 L 1.007812 19.066406 L 0.984375 19.058594 L 0.964844 19.042969 L 0.957031 19.042969 C 0.945312 19.03125 0.933594 19.019531 0.921875 19.003906 L 0.910156 18.988281 C 0.902344 18.976562 0.898438 18.964844 0.890625 18.953125 C 0.882812 18.941406 0.890625 18.945312 0.886719 18.941406 C 0.878906 18.9375 0.875 18.917969 0.871094 18.902344 C 0.867188 18.890625 0.859375 18.859375 0.855469 18.835938 C 0.855469 18.835938 0.855469 18.816406 0.855469 18.816406 C 0.851562 18.808594 0.84375 18.800781 0.839844 18.792969 C 0.839844 18.769531 0.839844 18.746094 0.839844 18.722656 C 0.839844 18.699219 0.839844 18.699219 0.839844 18.683594 C 0.839844 18.671875 0.839844 18.660156 0.839844 18.65625 C 0.851562 18.566406 0.886719 18.488281 0.941406 18.417969 C 0.929688 18.4375 0.960938 18.398438 0.964844 18.390625 L 0.996094 18.367188 L 1.007812 18.355469 C 1.023438 18.34375 1.039062 18.335938 1.054688 18.328125 L 1.078125 18.316406 L 1.105469 18.304688 C 1.125 18.300781 1.144531 18.292969 1.164062 18.292969 L 1.253906 18.292969 C 1.277344 18.296875 1.300781 18.300781 1.324219 18.308594 L 1.332031 18.308594 L 1.355469 18.324219 L 1.371094 18.332031 L 1.390625 18.347656 C 1.421875 18.375 1.445312 18.410156 1.464844 18.449219 C 1.484375 18.488281 1.503906 18.53125 1.511719 18.570312 C 1.523438 18.597656 1.527344 18.625 1.535156 18.652344 C 1.539062 18.675781 1.535156 18.675781 1.542969 18.6875 C 1.542969 18.6875 1.542969 18.722656 1.542969 18.722656 C 1.546875 18.765625 1.546875 18.808594 1.542969 18.847656 C 1.511719 18.886719 1.5 18.929688 1.503906 18.976562 L 1.484375 19.007812 L 1.46875 19.027344 C 1.457031 19.039062 1.449219 19.050781 1.4375 19.058594 C 1.4375 19.058594 1.46875 19.050781 1.445312 19.066406 Z M 1.582031 20.710938 L 1.578125 20.703125 C 1.582031 20.707031 1.582031 20.707031 1.582031 20.710938 Z M 1.53125 20.671875 L 1.523438 20.671875 Z M 1.460938 20.652344 C 1.488281 20.65625 1.472656 20.65625 1.460938 20.652344 Z M 1.089844 20.894531 C 1.089844 20.902344 1.082031 20.921875 1.089844 20.894531 Z M 1.117188 20.992188 L 1.125 21 C 1.121094 21 1.117188 20.996094 1.117188 20.992188 Z M 1.191406 21.050781 Z M 1.214844 21.054688 Z M 1.195312 21.054688 C 1.195312 21.054688 1.195312 21.054688 1.203125 21.054688 Z M 1.589844 20.914062 C 1.589844 20.917969 1.589844 20.917969 1.589844 20.921875 C 1.582031 20.941406 1.574219 20.957031 1.5625 20.96875 C 1.5625 20.976562 1.554688 20.988281 1.550781 20.996094 L 1.550781 21 C 1.539062 21.015625 1.527344 21.027344 1.515625 21.039062 L 1.492188 21.058594 L 1.484375 21.066406 C 1.46875 21.074219 1.457031 21.085938 1.4375 21.09375 L 1.433594 21.09375 C 1.378906 21.027344 1.316406 21.011719 1.238281 21.050781 C 1.269531 21.039062 1.246094 21.046875 1.238281 21.050781 L 1.207031 21.050781 L 1.1875 21.046875 L 1.179688 21.046875 L 1.167969 21.035156 C 1.167969 21.035156 1.132812 21.015625 1.15625 21.027344 C 1.175781 21.039062 1.15625 21.027344 1.15625 21.023438 L 1.128906 21 L 1.128906 20.992188 L 1.117188 20.972656 C 1.113281 20.96875 1.109375 20.960938 1.105469 20.957031 L 1.089844 20.929688 C 1.089844 20.925781 1.089844 20.921875 1.089844 20.917969 C 1.089844 20.921875 1.089844 20.921875 1.089844 20.925781 C 1.089844 20.953125 1.089844 20.902344 1.089844 20.894531 C 1.089844 20.886719 1.089844 20.882812 1.089844 20.875 C 1.089844 20.867188 1.09375 20.859375 1.097656 20.851562 C 1.105469 20.835938 1.113281 20.824219 1.121094 20.808594 C 1.125 20.804688 1.128906 20.800781 1.132812 20.796875 L 1.136719 20.789062 L 1.167969 20.753906 L 1.1875 20.738281 C 1.214844 20.722656 1.242188 20.707031 1.273438 20.691406 L 1.300781 20.683594 C 1.316406 20.675781 1.335938 20.671875 1.355469 20.667969 L 1.445312 20.667969 C 1.464844 20.675781 1.480469 20.679688 1.5 20.679688 L 1.515625 20.679688 C 1.527344 20.6875 1.539062 20.691406 1.550781 20.699219 C 1.550781 20.703125 1.558594 20.710938 1.566406 20.714844 C 1.566406 20.722656 1.574219 20.734375 1.578125 20.738281 C 1.566406 20.71875 1.578125 20.738281 1.578125 20.738281 L 1.585938 20.773438 L 1.585938 20.808594 C 1.585938 20.820312 1.585938 20.832031 1.585938 20.847656 C 1.585938 20.855469 1.585938 20.867188 1.578125 20.878906 Z M 4.199219 21.882812 L 4.199219 21.878906 C 4.199219 21.878906 4.199219 21.882812 4.199219 21.882812 Z M 4.578125 21.964844 C 4.578125 21.964844 4.578125 21.960938 4.578125 21.964844 Z M 4.527344 17.921875 C 4.527344 17.917969 4.527344 17.914062 4.527344 17.910156 C 4.527344 17.914062 4.527344 17.917969 4.527344 17.921875 Z M 4.527344 17.902344 Z M 4.527344 17.902344 Z M 4.832031 17.972656 C 4.832031 17.976562 4.828125 17.980469 4.832031 17.972656 Z M 4.859375 17.925781 Z M 4.640625 17.386719 Z M 4.640625 17.386719 Z M 4.640625 17.386719 C 4.640625 17.386719 4.636719 17.375 4.644531 17.382812 Z M 4.640625 17.386719 C 4.636719 17.378906 4.632812 17.378906 4.644531 17.382812 Z M 4.640625 17.386719 C 4.640625 17.386719 4.632812 17.386719 4.632812 17.386719 Z M 4.625 17.398438 Z M 4.523438 17.550781 Z M 4.492188 17.890625 L 4.5 17.890625 Z M 4.503906 17.890625 L 4.492188 17.882812 L 4.484375 17.875 C 4.484375 17.871094 4.484375 17.867188 4.480469 17.863281 C 4.480469 17.855469 4.480469 17.847656 4.472656 17.835938 C 4.464844 17.828125 4.472656 17.832031 4.472656 17.828125 C 4.472656 17.808594 4.472656 17.789062 4.472656 17.769531 C 4.472656 17.769531 4.472656 17.761719 4.472656 17.757812 L 4.480469 17.730469 C 4.488281 17.6875 4.503906 17.644531 4.515625 17.601562 C 4.523438 17.585938 4.53125 17.566406 4.539062 17.546875 C 4.542969 17.539062 4.546875 17.527344 4.550781 17.519531 C 4.566406 17.492188 4.582031 17.464844 4.601562 17.441406 C 4.605469 17.433594 4.613281 17.425781 4.621094 17.417969 L 4.632812 17.402344 L 4.640625 17.398438 L 4.667969 17.425781 L 4.675781 17.441406 L 4.714844 17.492188 C 4.742188 17.527344 4.765625 17.566406 4.789062 17.605469 C 4.808594 17.636719 4.828125 17.671875 4.84375 17.707031 C 4.839844 17.707031 4.839844 17.710938 4.84375 17.714844 L 4.851562 17.746094 C 4.859375 17.765625 4.863281 17.789062 4.867188 17.8125 C 4.867188 17.820312 4.867188 17.832031 4.867188 17.84375 C 4.867188 17.851562 4.867188 17.859375 4.867188 17.867188 C 4.863281 17.882812 4.859375 17.902344 4.855469 17.921875 L 4.855469 17.925781 L 4.832031 17.964844 L 4.832031 17.972656 L 4.820312 17.988281 C 4.828125 17.902344 4.789062 17.84375 4.707031 17.820312 C 4.628906 17.800781 4.574219 17.824219 4.535156 17.894531 L 4.511719 17.894531 Z M 5.226562 19.871094 L 5.203125 19.917969 L 5.191406 19.9375 L 5.183594 19.949219 C 5.152344 19.980469 5.128906 20.011719 5.097656 20.039062 C 5.082031 20.050781 5.066406 20.066406 5.050781 20.078125 L 5.011719 20.101562 L 4.996094 20.113281 L 4.976562 20.097656 L 4.964844 20.09375 L 4.910156 20.039062 C 4.90625 20.03125 4.902344 20.023438 4.898438 20.015625 C 4.890625 20.003906 4.882812 19.992188 4.875 19.976562 L 4.867188 19.953125 C 4.863281 19.941406 4.859375 19.925781 4.855469 19.910156 C 4.855469 19.910156 4.855469 19.90625 4.855469 19.902344 C 4.855469 19.898438 4.855469 19.890625 4.855469 19.886719 C 4.855469 19.871094 4.855469 19.855469 4.855469 19.839844 C 4.855469 19.832031 4.855469 19.824219 4.859375 19.816406 C 4.863281 19.808594 4.863281 19.800781 4.867188 19.792969 C 4.867188 19.792969 4.867188 19.789062 4.867188 19.785156 C 4.867188 19.78125 4.867188 19.78125 4.867188 19.777344 C 4.867188 19.769531 4.875 19.761719 4.882812 19.753906 C 4.886719 19.742188 4.890625 19.734375 4.898438 19.726562 C 4.90625 19.714844 4.917969 19.707031 4.925781 19.699219 L 4.941406 19.6875 L 4.984375 19.660156 L 5.003906 19.660156 L 5.03125 19.652344 L 5.085938 19.652344 L 5.113281 19.660156 L 5.125 19.664062 L 5.144531 19.679688 L 5.152344 19.679688 L 5.160156 19.6875 C 5.171875 19.695312 5.179688 19.703125 5.1875 19.714844 C 5.1875 19.714844 5.207031 19.738281 5.210938 19.746094 L 5.21875 19.761719 C 5.21875 19.773438 5.226562 19.789062 5.230469 19.800781 C 5.230469 19.808594 5.230469 19.820312 5.230469 19.832031 L 5.230469 19.851562 C 5.234375 19.859375 5.230469 19.867188 5.230469 19.875 Z M 4.972656 20.101562 L 4.960938 20.09375 Z M 4.480469 17.875 Z M 4.488281 17.882812 Z M 4.53125 17.898438 Z M 4.539062 17.898438 Z M 9.703125 4.695312 C 9.460938 5.039062 9.3125 5.421875 9.261719 5.84375 C 9.195312 6.332031 9.210938 6.863281 9.421875 7.320312 C 9.515625 7.527344 9.65625 7.703125 9.84375 7.839844 C 10.023438 7.949219 10.21875 8.03125 10.421875 8.082031 C 10.617188 8.148438 10.785156 8.222656 10.851562 8.425781 C 10.886719 8.566406 10.953125 8.691406 11.054688 8.792969 C 10.957031 8.882812 10.921875 8.996094 10.945312 9.125 C 10.957031 9.1875 10.984375 9.242188 11.027344 9.292969 C 11.003906 9.316406 10.984375 9.339844 10.96875 9.371094 C 10.90625 9.488281 10.902344 9.609375 10.953125 9.734375 C 10.976562 9.792969 11.007812 9.84375 11.054688 9.890625 C 11.078125 9.910156 11.101562 9.929688 11.128906 9.941406 C 11.050781 10.101562 11.074219 10.238281 11.203125 10.355469 C 11.332031 10.460938 11.476562 10.5 11.640625 10.476562 C 11.953125 10.457031 12.285156 10.410156 12.527344 10.1875 C 12.660156 10.070312 12.726562 9.917969 12.730469 9.738281 C 12.726562 9.652344 12.695312 9.574219 12.640625 9.511719 C 12.707031 9.410156 12.71875 9.300781 12.683594 9.1875 C 12.648438 9.085938 12.578125 9.015625 12.480469 8.972656 C 12.484375 8.890625 12.460938 8.808594 12.414062 8.738281 C 12.367188 8.660156 12.300781 8.601562 12.21875 8.558594 C 12.246094 8.492188 12.261719 8.425781 12.292969 8.363281 C 12.496094 7.910156 12.976562 7.648438 13.195312 7.203125 C 13.453125 6.675781 13.414062 6.046875 13.253906 5.5 C 13.113281 5.003906 12.839844 4.597656 12.429688 4.28125 C 12.015625 3.984375 11.46875 3.996094 10.984375 4.035156 C 10.714844 4.042969 10.460938 4.101562 10.222656 4.210938 C 10.011719 4.332031 9.839844 4.492188 9.703125 4.695312 Z M 11.148438 9.949219 C 11.160156 9.957031 11.167969 9.960938 11.179688 9.964844 C 11.160156 9.96875 11.152344 9.960938 11.148438 9.949219 Z M 12.433594 9.789062 C 12.421875 9.84375 12.398438 9.890625 12.359375 9.933594 C 12.28125 10.019531 12.1875 10.078125 12.074219 10.109375 C 11.925781 10.152344 11.773438 10.171875 11.617188 10.175781 C 11.558594 10.1875 11.5 10.179688 11.445312 10.15625 C 11.421875 10.148438 11.40625 10.132812 11.398438 10.109375 C 11.398438 10.101562 11.402344 10.089844 11.40625 10.082031 C 11.472656 9.941406 11.480469 9.789062 11.335938 9.703125 C 11.269531 9.664062 11.210938 9.628906 11.230469 9.542969 C 11.242188 9.496094 11.285156 9.46875 11.3125 9.425781 C 11.355469 9.363281 11.363281 9.296875 11.339844 9.222656 C 11.324219 9.171875 11.195312 9.058594 11.269531 9.011719 C 11.304688 8.988281 11.328125 8.957031 11.335938 8.914062 C 11.519531 8.933594 11.695312 8.917969 11.867188 8.863281 C 11.925781 8.847656 11.980469 8.828125 12.035156 8.800781 C 12.070312 8.816406 12.105469 8.839844 12.136719 8.867188 C 12.160156 8.890625 12.210938 8.96875 12.183594 9 C 12.167969 9.023438 12.15625 9.046875 12.148438 9.070312 C 12.132812 9.054688 12.113281 9.046875 12.089844 9.039062 C 12.050781 9.03125 12.011719 9.035156 11.972656 9.054688 L 11.929688 9.074219 C 11.882812 9.09375 11.835938 9.113281 11.789062 9.128906 C 11.742188 9.144531 11.714844 9.152344 11.675781 9.164062 C 11.613281 9.128906 11.554688 9.140625 11.503906 9.191406 C 11.433594 9.261719 11.433594 9.335938 11.503906 9.40625 C 11.5625 9.460938 11.628906 9.480469 11.707031 9.46875 C 11.753906 9.460938 11.800781 9.449219 11.84375 9.433594 C 11.941406 9.398438 12.039062 9.363281 12.128906 9.320312 C 12.164062 9.300781 12.1875 9.269531 12.199219 9.230469 C 12.238281 9.269531 12.285156 9.277344 12.335938 9.257812 C 12.371094 9.242188 12.394531 9.253906 12.40625 9.292969 C 12.421875 9.34375 12.367188 9.386719 12.324219 9.410156 C 12.304688 9.417969 12.285156 9.4375 12.269531 9.457031 C 12.203125 9.417969 12.140625 9.421875 12.085938 9.476562 L 12.070312 9.488281 C 12.039062 9.511719 12.003906 9.53125 11.96875 9.550781 C 11.929688 9.566406 11.890625 9.578125 11.847656 9.582031 C 11.816406 9.585938 11.789062 9.585938 11.757812 9.582031 C 11.65625 9.582031 11.605469 9.632812 11.605469 9.734375 C 11.605469 9.839844 11.65625 9.890625 11.757812 9.890625 C 11.96875 9.894531 12.148438 9.828125 12.304688 9.683594 C 12.316406 9.675781 12.324219 9.664062 12.328125 9.652344 C 12.351562 9.671875 12.378906 9.683594 12.410156 9.6875 C 12.4375 9.695312 12.4375 9.773438 12.433594 9.789062 Z M 10.640625 4.390625 C 10.890625 4.339844 11.140625 4.320312 11.394531 4.324219 C 11.636719 4.3125 11.871094 4.347656 12.097656 4.433594 C 12.546875 4.636719 12.832031 5.128906 12.96875 5.582031 C 13.109375 6.03125 13.148438 6.496094 12.992188 6.9375 C 12.863281 7.300781 12.546875 7.539062 12.300781 7.824219 C 12.171875 7.96875 12.070312 8.128906 11.996094 8.308594 C 11.980469 8.355469 11.96875 8.40625 11.949219 8.445312 C 11.875 8.453125 11.828125 8.488281 11.804688 8.558594 C 11.722656 8.582031 11.640625 8.601562 11.554688 8.609375 C 11.363281 8.628906 11.222656 8.59375 11.164062 8.398438 C 11.121094 8.207031 11.019531 8.054688 10.859375 7.941406 C 10.554688 7.738281 10.15625 7.75 9.894531 7.476562 C 9.605469 7.171875 9.539062 6.726562 9.535156 6.328125 C 9.527344 5.589844 9.816406 4.585938 10.640625 4.390625 Z M 10.863281 3.519531 C 10.839844 3.367188 10.824219 3.214844 10.820312 3.058594 C 10.820312 2.960938 10.871094 2.910156 10.972656 2.90625 C 11.015625 2.90625 11.050781 2.921875 11.082031 2.953125 C 11.109375 2.980469 11.125 3.019531 11.125 3.058594 C 11.132812 3.160156 11.136719 3.269531 11.152344 3.375 L 11.160156 3.433594 C 11.171875 3.472656 11.164062 3.511719 11.144531 3.550781 C 11.113281 3.609375 11.0625 3.636719 10.992188 3.628906 C 10.925781 3.621094 10.882812 3.585938 10.863281 3.519531 Z M 9.671875 3.445312 C 9.660156 3.421875 9.652344 3.394531 9.652344 3.367188 C 9.652344 3.355469 9.652344 3.339844 9.652344 3.328125 C 9.683594 3.234375 9.746094 3.199219 9.839844 3.226562 C 9.878906 3.238281 9.910156 3.261719 9.933594 3.296875 L 10.078125 3.601562 C 10.089844 3.625 10.097656 3.652344 10.097656 3.679688 L 10.097656 3.71875 C 10.070312 3.816406 10.007812 3.847656 9.910156 3.820312 C 9.871094 3.8125 9.839844 3.789062 9.820312 3.75 C 9.769531 3.652344 9.722656 3.546875 9.671875 3.445312 Z M 8.722656 4.011719 C 8.699219 3.976562 8.695312 3.9375 8.707031 3.894531 C 8.734375 3.800781 8.800781 3.765625 8.894531 3.792969 C 8.914062 3.796875 8.933594 3.808594 8.945312 3.820312 C 8.964844 3.832031 8.976562 3.847656 8.984375 3.863281 L 8.964844 3.839844 C 9.054688 3.949219 9.152344 4.042969 9.261719 4.128906 L 9.300781 4.160156 C 9.335938 4.179688 9.359375 4.210938 9.371094 4.25 C 9.390625 4.316406 9.371094 4.371094 9.316406 4.410156 C 9.261719 4.453125 9.207031 4.457031 9.148438 4.421875 C 9.066406 4.363281 8.988281 4.300781 8.917969 4.230469 C 8.847656 4.164062 8.78125 4.089844 8.722656 4.011719 Z M 8.28125 5.109375 C 8.292969 5.070312 8.316406 5.042969 8.351562 5.019531 C 8.390625 5 8.429688 4.992188 8.46875 5.003906 L 8.847656 5.101562 C 8.941406 5.132812 8.976562 5.195312 8.949219 5.289062 C 8.921875 5.386719 8.859375 5.421875 8.761719 5.394531 L 8.382812 5.300781 C 8.289062 5.269531 8.257812 5.207031 8.28125 5.109375 Z M 8.191406 6.355469 C 8.164062 6.257812 8.199219 6.195312 8.292969 6.164062 L 8.65625 6.082031 C 8.753906 6.054688 8.816406 6.089844 8.84375 6.1875 C 8.871094 6.285156 8.832031 6.347656 8.738281 6.375 L 8.375 6.460938 C 8.28125 6.484375 8.21875 6.449219 8.191406 6.355469 Z M 11.957031 3.632812 C 11.9375 3.597656 11.933594 3.558594 11.945312 3.519531 C 11.972656 3.410156 12 3.300781 12.027344 3.1875 C 12.039062 3.148438 12.0625 3.117188 12.097656 3.097656 C 12.132812 3.074219 12.171875 3.070312 12.214844 3.082031 C 12.253906 3.09375 12.285156 3.117188 12.304688 3.152344 C 12.328125 3.191406 12.332031 3.230469 12.320312 3.269531 C 12.292969 3.378906 12.265625 3.488281 12.242188 3.601562 C 12.230469 3.640625 12.207031 3.667969 12.171875 3.691406 C 12.082031 3.742188 12.011719 3.722656 11.960938 3.636719 Z M 12.765625 4.058594 C 12.753906 4.015625 12.757812 3.976562 12.78125 3.9375 L 12.890625 3.734375 C 12.941406 3.652344 13.007812 3.632812 13.09375 3.679688 C 13.113281 3.6875 13.125 3.703125 13.136719 3.71875 C 13.148438 3.734375 13.160156 3.753906 13.164062 3.773438 C 13.179688 3.8125 13.179688 3.851562 13.160156 3.890625 L 13.050781 4.09375 C 13.03125 4.128906 13 4.152344 12.960938 4.164062 C 12.917969 4.175781 12.878906 4.171875 12.84375 4.148438 C 12.824219 4.140625 12.8125 4.125 12.800781 4.109375 C 12.785156 4.09375 12.773438 4.078125 12.769531 4.058594 Z M 13.25 4.871094 C 13.238281 4.832031 13.246094 4.792969 13.265625 4.753906 C 13.285156 4.71875 13.316406 4.695312 13.355469 4.683594 L 13.828125 4.511719 C 13.898438 4.488281 13.953125 4.503906 14 4.5625 C 14.042969 4.621094 14.042969 4.679688 14.003906 4.742188 C 13.980469 4.773438 13.953125 4.796875 13.914062 4.808594 L 13.441406 4.984375 C 13.339844 5.007812 13.277344 4.972656 13.253906 4.871094 Z M 10.804688 6.910156 C 10.902344 6.878906 10.976562 6.828125 11.035156 6.746094 C 11.0625 6.789062 11.097656 6.808594 11.148438 6.808594 L 11.160156 6.824219 C 11.175781 6.859375 11.191406 6.898438 11.203125 6.9375 C 11.234375 7.027344 11.265625 7.117188 11.289062 7.210938 C 11.296875 7.242188 11.300781 7.269531 11.308594 7.300781 C 11.324219 7.472656 11.347656 7.644531 11.382812 7.816406 C 11.410156 7.902344 11.464844 7.9375 11.550781 7.925781 C 11.636719 7.914062 11.683594 7.863281 11.683594 7.777344 C 11.671875 7.601562 11.648438 7.425781 11.609375 7.253906 C 11.605469 7.171875 11.601562 7.09375 11.601562 7.011719 C 11.601562 6.890625 11.601562 6.769531 11.613281 6.648438 C 11.613281 6.601562 11.621094 6.546875 11.628906 6.5 C 11.675781 6.507812 11.722656 6.507812 11.765625 6.5 C 11.921875 6.476562 12.042969 6.398438 12.132812 6.269531 C 12.183594 6.179688 12.164062 6.109375 12.078125 6.058594 C 11.988281 6.011719 11.917969 6.027344 11.867188 6.113281 C 11.832031 6.160156 11.789062 6.1875 11.730469 6.195312 C 11.714844 6.175781 11.691406 6.160156 11.664062 6.152344 C 11.585938 6.125 11.519531 6.140625 11.460938 6.195312 C 11.433594 6.195312 11.40625 6.203125 11.382812 6.21875 C 11.332031 6.246094 11.292969 6.289062 11.269531 6.34375 C 11.269531 6.351562 11.253906 6.390625 11.246094 6.414062 C 11.214844 6.378906 11.191406 6.339844 11.175781 6.296875 C 11.140625 6.238281 11.089844 6.214844 11.023438 6.226562 C 10.957031 6.234375 10.914062 6.269531 10.894531 6.332031 C 10.882812 6.433594 10.839844 6.523438 10.769531 6.59375 L 10.753906 6.609375 C 10.734375 6.585938 10.730469 6.558594 10.734375 6.527344 C 10.757812 6.433594 10.726562 6.371094 10.632812 6.339844 C 10.539062 6.3125 10.476562 6.347656 10.445312 6.441406 C 10.414062 6.570312 10.433594 6.691406 10.515625 6.800781 C 10.59375 6.898438 10.691406 6.933594 10.8125 6.910156 Z M 11.144531 6.796875 C 11.144531 6.796875 11.148438 6.800781 11.148438 6.800781 Z M 11.25 6.421875 Z M 10.746094 6.609375 Z M 10.746094 6.609375 " fill-opacity="1" fill-rule="nonzero"/></g></svg>