<svg xmlns="http://www.w3.org/2000/svg" xmlns:xlink="http://www.w3.org/1999/xlink" width="40" zoomAndPan="magnify" viewBox="0 0 30 30.000001" height="40" preserveAspectRatio="xMidYMid meet" version="1.0"><defs><clipPath id="c5c94a12bc"><path d="M 0.972656 0 L 16 0 L 16 29.03125 L 0.972656 29.03125 Z M 0.972656 0 " clip-rule="nonzero"/></clipPath><clipPath id="2bc41e6da4"><path d="M 9 6 L 29.28125 6 L 29.28125 23 L 9 23 Z M 9 6 " clip-rule="nonzero"/></clipPath></defs><path fill="#31ac7d" d="M 14.96875 12.414062 C 14.894531 12.222656 14.714844 12.097656 14.511719 12.097656 C 14.308594 12.097656 14.132812 12.222656 14.058594 12.414062 L 12.609375 16.28125 C 12.515625 16.53125 12.640625 16.808594 12.894531 16.90625 C 13.144531 16.996094 13.421875 16.871094 13.515625 16.621094 L 13.761719 15.964844 L 15.265625 15.964844 L 15.515625 16.621094 C 15.585938 16.8125 15.769531 16.933594 15.96875 16.933594 C 16.027344 16.933594 16.085938 16.925781 16.136719 16.90625 C 16.390625 16.8125 16.515625 16.53125 16.417969 16.28125 Z M 14.125 15 L 14.519531 13.960938 L 14.910156 15 Z M 14.125 15 " fill-opacity="1" fill-rule="nonzero"/><path fill="#31ac7d" d="M 17.414062 12.097656 C 17.148438 12.097656 16.929688 12.316406 16.929688 12.582031 L 16.929688 16.449219 C 16.929688 16.714844 17.148438 16.933594 17.414062 16.933594 C 17.679688 16.933594 17.898438 16.714844 17.898438 16.449219 L 17.898438 12.582031 C 17.898438 12.316406 17.679688 12.097656 17.414062 12.097656 Z M 17.414062 12.097656 " fill-opacity="1" fill-rule="nonzero"/><g clip-path="url(#c5c94a12bc)"><path fill="#31ac7d" d="M 15.480469 22.738281 C 10.949219 22.738281 7.261719 19.046875 7.261719 14.515625 C 7.261719 9.984375 10.949219 6.296875 15.480469 6.296875 C 15.746094 6.296875 15.964844 6.078125 15.964844 5.8125 L 15.964844 0.492188 C 15.964844 0.226562 15.746094 0.0117188 15.480469 0.0117188 L 12.933594 0.0117188 C 12.710938 0.0117188 12.515625 0.160156 12.460938 0.378906 L 11.769531 3.152344 C 11.179688 3.347656 10.609375 3.578125 10.070312 3.855469 L 7.617188 2.382812 C 7.429688 2.269531 7.183594 2.300781 7.027344 2.457031 L 3.425781 6.058594 C 3.269531 6.214844 3.238281 6.460938 3.351562 6.648438 L 4.824219 9.101562 C 4.546875 9.640625 4.308594 10.210938 4.121094 10.800781 L 1.347656 11.492188 C 1.128906 11.546875 0.980469 11.742188 0.980469 11.964844 L 0.980469 17.058594 C 0.980469 17.28125 1.128906 17.476562 1.347656 17.527344 L 4.121094 18.21875 C 4.316406 18.808594 4.546875 19.378906 4.824219 19.921875 L 3.351562 22.375 C 3.238281 22.5625 3.269531 22.808594 3.425781 22.964844 L 7.027344 26.566406 C 7.183594 26.722656 7.429688 26.753906 7.617188 26.636719 L 10.070312 25.167969 C 10.609375 25.445312 11.179688 25.679688 11.769531 25.871094 L 12.460938 28.644531 C 12.515625 28.863281 12.710938 29.011719 12.933594 29.011719 L 15.480469 29.011719 C 15.746094 29.011719 15.964844 28.796875 15.964844 28.527344 L 15.964844 23.210938 C 15.964844 22.945312 15.746094 22.726562 15.480469 22.726562 Z M 14.996094 28.054688 L 13.308594 28.054688 L 12.640625 25.382812 C 12.597656 25.21875 12.472656 25.085938 12.3125 25.035156 C 11.601562 24.820312 10.914062 24.539062 10.28125 24.195312 C 10.132812 24.113281 9.949219 24.121094 9.804688 24.207031 L 7.445312 25.625 L 4.375 22.550781 L 5.789062 20.191406 C 5.875 20.046875 5.882812 19.863281 5.800781 19.714844 C 5.457031 19.082031 5.175781 18.394531 4.964844 17.683594 C 4.914062 17.519531 4.785156 17.394531 4.613281 17.355469 L 1.941406 16.6875 L 1.941406 12.34375 L 4.613281 11.675781 C 4.777344 11.632812 4.910156 11.507812 4.964844 11.347656 C 5.175781 10.636719 5.457031 9.953125 5.800781 9.316406 C 5.882812 9.167969 5.875 8.984375 5.789062 8.839844 L 4.375 6.480469 L 7.445312 3.410156 L 9.804688 4.824219 C 9.949219 4.914062 10.132812 4.917969 10.28125 4.835938 C 10.914062 4.492188 11.601562 4.210938 12.3125 4 C 12.476562 3.949219 12.601562 3.820312 12.640625 3.652344 L 13.308594 0.976562 L 14.996094 0.976562 L 14.996094 5.34375 C 10.15625 5.59375 6.292969 9.613281 6.292969 14.515625 C 6.292969 19.417969 10.15625 23.4375 14.996094 23.6875 Z M 14.996094 28.054688 " fill-opacity="1" fill-rule="nonzero"/></g><g clip-path="url(#2bc41e6da4)"><path fill="#31ac7d" d="M 27.085938 12.582031 C 26.1875 12.582031 25.4375 13.199219 25.21875 14.03125 L 20.316406 14.03125 L 20.316406 12.097656 L 22.25 12.097656 C 22.386719 12.097656 22.515625 12.039062 22.609375 11.9375 L 24.378906 10 C 24.613281 10.101562 24.875 10.164062 25.152344 10.164062 C 26.21875 10.164062 27.085938 9.296875 27.085938 8.230469 C 27.085938 7.160156 26.21875 6.296875 25.152344 6.296875 C 24.082031 6.296875 23.21875 7.160156 23.21875 8.230469 C 23.21875 8.671875 23.371094 9.070312 23.617188 9.394531 L 22.035156 11.132812 L 20.316406 11.132812 L 20.316406 10.164062 C 20.316406 9.898438 20.097656 9.679688 19.832031 9.679688 L 18.863281 9.679688 L 18.863281 8.714844 C 18.863281 8.449219 18.648438 8.230469 18.382812 8.230469 C 18.117188 8.230469 17.898438 8.449219 17.898438 8.714844 L 17.898438 9.679688 L 15.964844 9.679688 L 15.964844 8.714844 C 15.964844 8.449219 15.746094 8.230469 15.480469 8.230469 C 15.214844 8.230469 14.996094 8.449219 14.996094 8.714844 L 14.996094 9.679688 L 13.0625 9.679688 L 13.0625 8.714844 C 13.0625 8.449219 12.84375 8.230469 12.578125 8.230469 C 12.3125 8.230469 12.09375 8.449219 12.09375 8.714844 L 12.09375 9.679688 L 11.128906 9.679688 C 10.863281 9.679688 10.644531 9.898438 10.644531 10.164062 L 10.644531 11.132812 L 9.675781 11.132812 C 9.410156 11.132812 9.195312 11.347656 9.195312 11.613281 C 9.195312 11.878906 9.410156 12.097656 9.675781 12.097656 L 10.644531 12.097656 L 10.644531 14.03125 L 9.675781 14.03125 C 9.410156 14.03125 9.195312 14.25 9.195312 14.515625 C 9.195312 14.78125 9.410156 15 9.675781 15 L 10.644531 15 L 10.644531 16.933594 L 9.675781 16.933594 C 9.410156 16.933594 9.195312 17.152344 9.195312 17.417969 C 9.195312 17.683594 9.410156 17.902344 9.675781 17.902344 L 10.644531 17.902344 L 10.644531 18.867188 C 10.644531 19.132812 10.863281 19.351562 11.128906 19.351562 L 12.09375 19.351562 L 12.09375 20.320312 C 12.09375 20.585938 12.3125 20.800781 12.578125 20.800781 C 12.84375 20.800781 13.0625 20.585938 13.0625 20.320312 L 13.0625 19.351562 L 14.996094 19.351562 L 14.996094 20.320312 C 14.996094 20.585938 15.214844 20.800781 15.480469 20.800781 C 15.746094 20.800781 15.964844 20.585938 15.964844 20.320312 L 15.964844 19.351562 L 17.898438 19.351562 L 17.898438 20.320312 C 17.898438 20.585938 18.117188 20.800781 18.382812 20.800781 C 18.648438 20.800781 18.863281 20.585938 18.863281 20.320312 L 18.863281 19.351562 L 19.832031 19.351562 C 20.097656 19.351562 20.316406 19.132812 20.316406 18.867188 L 20.316406 17.902344 L 22.035156 17.902344 L 23.617188 19.636719 C 23.371094 19.960938 23.21875 20.363281 23.21875 20.800781 C 23.21875 21.871094 24.082031 22.738281 25.152344 22.738281 C 26.21875 22.738281 27.085938 21.871094 27.085938 20.800781 C 27.085938 19.734375 26.21875 18.867188 25.152344 18.867188 C 24.875 18.867188 24.613281 18.925781 24.378906 19.03125 L 22.609375 17.09375 C 22.515625 16.992188 22.386719 16.933594 22.25 16.933594 L 20.316406 16.933594 L 20.316406 15 L 25.21875 15 C 25.4375 15.832031 26.1875 16.449219 27.085938 16.449219 C 28.152344 16.449219 29.019531 15.585938 29.019531 14.515625 C 29.019531 13.449219 28.152344 12.582031 27.085938 12.582031 Z M 25.152344 7.261719 C 25.683594 7.261719 26.117188 7.699219 26.117188 8.230469 C 26.117188 8.761719 25.683594 9.195312 25.152344 9.195312 C 24.621094 9.195312 24.183594 8.761719 24.183594 8.230469 C 24.183594 7.699219 24.621094 7.261719 25.152344 7.261719 Z M 26.117188 20.800781 C 26.117188 21.335938 25.683594 21.769531 25.152344 21.769531 C 24.621094 21.769531 24.183594 21.335938 24.183594 20.800781 C 24.183594 20.269531 24.621094 19.835938 25.152344 19.835938 C 25.683594 19.835938 26.117188 20.269531 26.117188 20.800781 Z M 19.347656 18.382812 L 11.613281 18.382812 L 11.613281 10.648438 L 19.347656 10.648438 Z M 27.085938 15.484375 C 26.554688 15.484375 26.117188 15.046875 26.117188 14.515625 C 26.117188 13.984375 26.554688 13.550781 27.085938 13.550781 C 27.617188 13.550781 28.050781 13.984375 28.050781 14.515625 C 28.050781 15.046875 27.617188 15.484375 27.085938 15.484375 Z M 27.085938 15.484375 " fill-opacity="1" fill-rule="nonzero"/></g></svg>