<svg xmlns="http://www.w3.org/2000/svg" xmlns:xlink="http://www.w3.org/1999/xlink" width="40" zoomAndPan="magnify" viewBox="0 0 30 30.000001" height="40" preserveAspectRatio="xMidYMid meet" version="1.0"><defs><clipPath id="0c94b84afa"><path d="M 0.484375 0 L 29 0 L 29 28.304688 L 0.484375 28.304688 Z M 0.484375 0 " clip-rule="nonzero"/></clipPath></defs><path fill="#31ac7d" d="M 12.445312 9.5625 L 12.015625 9.734375 C 11.878906 9.789062 11.777344 9.90625 11.742188 10.050781 C 11.695312 10.21875 11.628906 10.386719 11.535156 10.546875 C 11.460938 10.671875 11.453125 10.824219 11.507812 10.960938 L 11.691406 11.390625 C 11.617188 11.472656 11.53125 11.554688 11.449219 11.632812 L 11.019531 11.449219 C 10.886719 11.394531 10.734375 11.402344 10.609375 11.472656 C 10.445312 11.566406 10.273438 11.636719 10.09375 11.6875 C 9.957031 11.726562 9.839844 11.828125 9.789062 11.964844 L 9.617188 12.390625 C 9.511719 12.394531 9.398438 12.394531 9.273438 12.386719 L 9.101562 11.964844 C 9.050781 11.828125 8.9375 11.726562 8.796875 11.6875 C 8.621094 11.636719 8.445312 11.566406 8.28125 11.472656 C 8.160156 11.402344 8.003906 11.394531 7.871094 11.449219 L 7.445312 11.632812 C 7.363281 11.558594 7.277344 11.472656 7.199219 11.390625 L 7.382812 10.960938 C 7.441406 10.824219 7.433594 10.671875 7.359375 10.546875 C 7.265625 10.386719 7.195312 10.21875 7.152344 10.050781 C 7.117188 9.90625 7.011719 9.789062 6.878906 9.734375 L 6.445312 9.5625 C 6.4375 9.453125 6.4375 9.339844 6.445312 9.214844 L 6.878906 9.039062 C 7.011719 8.984375 7.117188 8.867188 7.152344 8.722656 C 7.195312 8.554688 7.265625 8.386719 7.359375 8.230469 C 7.433594 8.101562 7.441406 7.949219 7.382812 7.8125 L 7.199219 7.386719 C 7.273438 7.304688 7.359375 7.21875 7.445312 7.140625 L 7.871094 7.324219 C 8.007812 7.382812 8.160156 7.375 8.289062 7.300781 C 8.445312 7.207031 8.613281 7.136719 8.785156 7.09375 C 8.925781 7.058594 9.042969 6.953125 9.097656 6.820312 L 9.273438 6.386719 C 9.378906 6.378906 9.496094 6.378906 9.621094 6.386719 L 9.792969 6.820312 C 9.847656 6.953125 9.964844 7.058594 10.109375 7.09375 C 10.277344 7.136719 10.445312 7.207031 10.605469 7.300781 C 10.730469 7.375 10.882812 7.382812 11.019531 7.324219 L 11.449219 7.140625 C 11.53125 7.214844 11.613281 7.300781 11.691406 7.386719 L 11.507812 7.8125 C 11.453125 7.949219 11.460938 8.101562 11.535156 8.230469 C 11.628906 8.386719 11.695312 8.554688 11.742188 8.722656 C 11.777344 8.867188 11.878906 8.984375 12.015625 9.039062 L 12.449219 9.214844 C 12.453125 9.324219 12.453125 9.441406 12.445312 9.5625 Z M 13.359375 9.007812 C 13.34375 8.742188 13.171875 8.507812 12.921875 8.410156 L 12.566406 8.265625 C 12.53125 8.167969 12.492188 8.070312 12.445312 7.976562 L 12.589844 7.632812 C 12.699219 7.390625 12.664062 7.113281 12.492188 6.898438 C 12.320312 6.691406 12.121094 6.492188 11.925781 6.335938 C 11.71875 6.167969 11.441406 6.132812 11.207031 6.238281 L 10.859375 6.386719 C 10.765625 6.34375 10.667969 6.300781 10.566406 6.269531 L 10.425781 5.917969 C 10.328125 5.664062 10.09375 5.488281 9.847656 5.476562 C 9.566406 5.449219 9.285156 5.449219 9.066406 5.476562 C 8.800781 5.488281 8.566406 5.664062 8.46875 5.910156 L 8.324219 6.269531 C 8.226562 6.300781 8.128906 6.34375 8.035156 6.386719 L 7.691406 6.242188 C 7.449219 6.132812 7.171875 6.167969 6.957031 6.34375 C 6.75 6.511719 6.550781 6.714844 6.394531 6.90625 C 6.226562 7.113281 6.191406 7.390625 6.296875 7.628906 L 6.445312 7.976562 C 6.402344 8.070312 6.359375 8.167969 6.328125 8.265625 L 5.976562 8.40625 C 5.722656 8.507812 5.546875 8.742188 5.535156 8.984375 C 5.507812 9.265625 5.507812 9.546875 5.535156 9.765625 C 5.546875 10.035156 5.722656 10.269531 5.96875 10.367188 L 6.328125 10.507812 C 6.359375 10.609375 6.402344 10.707031 6.445312 10.800781 L 6.300781 11.140625 C 6.191406 11.382812 6.226562 11.660156 6.402344 11.875 C 6.570312 12.082031 6.773438 12.28125 6.964844 12.441406 C 7.171875 12.605469 7.449219 12.640625 7.6875 12.535156 L 8.035156 12.386719 C 8.128906 12.433594 8.226562 12.472656 8.328125 12.507812 L 8.464844 12.859375 C 8.566406 13.113281 8.800781 13.285156 9.042969 13.296875 C 9.1875 13.3125 9.328125 13.320312 9.460938 13.320312 C 9.59375 13.320312 9.71875 13.3125 9.824219 13.300781 C 10.09375 13.285156 10.328125 13.113281 10.425781 12.859375 L 10.566406 12.507812 C 10.664062 12.472656 10.761719 12.433594 10.855469 12.386719 L 11.199219 12.53125 C 11.441406 12.640625 11.71875 12.605469 11.933594 12.433594 C 12.140625 12.261719 12.339844 12.0625 12.5 11.867188 C 12.664062 11.660156 12.699219 11.382812 12.59375 11.148438 L 12.445312 10.800781 C 12.492188 10.707031 12.53125 10.609375 12.566406 10.507812 L 12.917969 10.367188 C 13.164062 10.269531 13.335938 10.042969 13.355469 9.78125 C 13.382812 9.503906 13.382812 9.226562 13.359375 9.007812 " fill-opacity="1" fill-rule="nonzero"/><path fill="#31ac7d" d="M 23.082031 20.195312 L 22.652344 20.371094 C 22.515625 20.425781 22.414062 20.542969 22.375 20.6875 C 22.332031 20.855469 22.265625 21.023438 22.171875 21.179688 C 22.097656 21.308594 22.085938 21.460938 22.144531 21.597656 L 22.328125 22.023438 C 22.253906 22.109375 22.167969 22.191406 22.082031 22.269531 L 21.65625 22.085938 C 21.523438 22.027344 21.371094 22.039062 21.246094 22.109375 C 21.082031 22.203125 20.90625 22.273438 20.730469 22.324219 C 20.589844 22.363281 20.476562 22.464844 20.425781 22.597656 L 20.253906 23.027344 C 20.148438 23.03125 20.035156 23.03125 19.910156 23.023438 L 19.738281 22.597656 C 19.6875 22.464844 19.574219 22.363281 19.433594 22.324219 C 19.257812 22.273438 19.082031 22.203125 18.917969 22.109375 C 18.792969 22.039062 18.640625 22.027344 18.507812 22.085938 L 18.082031 22.269531 C 17.996094 22.195312 17.914062 22.109375 17.835938 22.023438 L 18.019531 21.597656 C 18.078125 21.460938 18.066406 21.308594 17.992188 21.179688 C 17.898438 21.023438 17.832031 20.855469 17.789062 20.6875 C 17.753906 20.542969 17.648438 20.425781 17.511719 20.371094 L 17.078125 20.195312 C 17.074219 20.089844 17.074219 19.976562 17.082031 19.851562 L 17.511719 19.675781 C 17.648438 19.621094 17.753906 19.503906 17.789062 19.359375 C 17.832031 19.191406 17.898438 19.023438 17.992188 18.867188 C 18.066406 18.738281 18.078125 18.585938 18.019531 18.449219 L 17.835938 18.023438 C 17.910156 17.9375 17.996094 17.855469 18.082031 17.777344 L 18.507812 17.960938 C 18.640625 18.019531 18.796875 18.007812 18.925781 17.933594 C 19.082031 17.839844 19.25 17.773438 19.417969 17.730469 C 19.5625 17.691406 19.679688 17.589844 19.734375 17.453125 L 19.910156 17.019531 C 20.015625 17.015625 20.132812 17.015625 20.253906 17.023438 L 20.429688 17.453125 C 20.484375 17.589844 20.601562 17.691406 20.746094 17.730469 C 20.914062 17.773438 21.082031 17.839844 21.238281 17.933594 C 21.367188 18.007812 21.523438 18.019531 21.65625 17.960938 L 22.082031 17.777344 C 22.167969 17.851562 22.25 17.9375 22.328125 18.023438 L 22.144531 18.449219 C 22.085938 18.585938 22.097656 18.738281 22.171875 18.867188 C 22.265625 19.023438 22.332031 19.191406 22.375 19.359375 C 22.414062 19.503906 22.515625 19.621094 22.652344 19.675781 L 23.085938 19.851562 C 23.089844 19.960938 23.089844 20.078125 23.082031 20.195312 Z M 23.550781 21.003906 C 23.800781 20.90625 23.972656 20.675781 23.992188 20.417969 C 24.019531 20.140625 24.019531 19.859375 23.996094 19.644531 C 23.980469 19.375 23.808594 19.140625 23.558594 19.042969 L 23.203125 18.902344 C 23.167969 18.800781 23.128906 18.703125 23.082031 18.609375 L 23.226562 18.269531 C 23.335938 18.027344 23.300781 17.75 23.128906 17.535156 C 22.957031 17.328125 22.753906 17.128906 22.5625 16.972656 C 22.355469 16.804688 22.078125 16.769531 21.839844 16.875 L 21.496094 17.023438 C 21.402344 16.976562 21.304688 16.9375 21.203125 16.902344 L 21.0625 16.554688 C 20.964844 16.296875 20.730469 16.125 20.484375 16.113281 C 20.203125 16.082031 19.921875 16.085938 19.703125 16.109375 C 19.4375 16.125 19.199219 16.296875 19.101562 16.546875 L 18.960938 16.902344 C 18.859375 16.9375 18.761719 16.976562 18.667969 17.023438 L 18.328125 16.878906 C 18.085938 16.769531 17.808594 16.804688 17.59375 16.976562 C 17.386719 17.148438 17.1875 17.351562 17.03125 17.542969 C 16.863281 17.75 16.828125 18.027344 16.933594 18.265625 L 17.082031 18.609375 C 17.035156 18.703125 16.996094 18.800781 16.960938 18.902344 L 16.613281 19.042969 C 16.359375 19.140625 16.183594 19.375 16.171875 19.621094 C 16.144531 19.902344 16.144531 20.183594 16.167969 20.402344 C 16.183594 20.671875 16.359375 20.90625 16.605469 21.003906 L 16.960938 21.144531 C 16.996094 21.246094 17.035156 21.34375 17.082031 21.4375 L 16.9375 21.777344 C 16.828125 22.019531 16.863281 22.296875 17.035156 22.511719 C 17.207031 22.71875 17.410156 22.917969 17.601562 23.078125 C 17.808594 23.242188 18.085938 23.277344 18.324219 23.171875 L 18.671875 23.023438 C 18.765625 23.070312 18.863281 23.109375 18.960938 23.144531 L 19.101562 23.492188 C 19.199219 23.75 19.4375 23.921875 19.679688 23.933594 C 19.820312 23.945312 19.964844 23.953125 20.097656 23.953125 C 20.230469 23.953125 20.351562 23.949219 20.460938 23.9375 C 20.730469 23.921875 20.964844 23.75 21.0625 23.496094 L 21.203125 23.144531 C 21.300781 23.109375 21.398438 23.070312 21.492188 23.023438 L 21.835938 23.167969 C 22.078125 23.277344 22.355469 23.242188 22.570312 23.070312 C 22.777344 22.898438 22.976562 22.695312 23.136719 22.503906 C 23.300781 22.296875 23.335938 22.019531 23.230469 21.78125 L 23.082031 21.4375 C 23.128906 21.34375 23.167969 21.246094 23.203125 21.144531 L 23.550781 21.003906 " fill-opacity="1" fill-rule="nonzero"/><g clip-path="url(#0c94b84afa)"><path fill="#31ac7d" d="M 25.496094 14.71875 C 28.449219 17.671875 28.449219 22.480469 25.496094 25.433594 C 24.660156 26.265625 22.585938 26.847656 20.140625 25.894531 C 21.628906 25.894531 23.117188 25.328125 24.253906 24.195312 C 26.523438 21.921875 26.523438 18.226562 24.253906 15.960938 C 22.136719 13.84375 19.566406 14.246094 16.679688 15.160156 C 16.9375 14.394531 17.199219 13.609375 17.414062 12.8125 C 19.902344 12.195312 22.777344 12.003906 25.496094 14.71875 Z M 16.671875 23.539062 C 14.761719 21.628906 15.320312 19.207031 16.308594 16.25 C 19.265625 15.261719 21.6875 14.703125 23.597656 16.613281 C 25.507812 18.523438 25.507812 21.628906 23.597656 23.539062 C 21.6875 25.449219 18.582031 25.449219 16.671875 23.539062 Z M 14.777344 25.433594 C 11.230469 21.886719 12.550781 18.003906 13.832031 14.25 L 14.023438 13.679688 C 14.914062 11.027344 16.023438 7.730469 13.511719 5.21875 C 13.511719 5.21875 13.511719 5.21875 13.511719 5.214844 C 13.511719 5.214844 13.507812 5.214844 13.507812 5.214844 C 11.140625 2.847656 8.882812 2.226562 7.414062 2.121094 C 7.308594 2.117188 7.210938 2.121094 7.105469 2.117188 C 9.71875 1.292969 12.6875 1.910156 14.753906 3.976562 C 18.296875 7.523438 16.980469 11.398438 15.707031 15.148438 L 15.503906 15.738281 C 14.410156 18.988281 13.6875 21.863281 16.019531 24.191406 C 18.304688 26.476562 20.542969 27.261719 22.371094 27.3125 C 19.773438 28.109375 16.828125 27.484375 14.777344 25.433594 Z M 13.21875 13.167969 C 10.265625 14.152344 7.84375 14.710938 5.929688 12.796875 C 4.019531 10.886719 4.019531 7.78125 5.929688 5.871094 C 6.882812 4.917969 8.136719 4.4375 9.394531 4.4375 C 10.648438 4.4375 11.902344 4.917969 12.855469 5.871094 C 12.855469 5.871094 12.855469 5.871094 12.859375 5.871094 C 14.765625 7.773438 14.207031 10.203125 13.21875 13.167969 Z M 4.035156 14.695312 C 1.082031 11.742188 1.082031 6.933594 4.035156 3.976562 C 4.578125 3.4375 5.8125 2.9375 7.347656 3.046875 C 7.914062 3.085938 8.609375 3.214844 9.386719 3.515625 C 7.898438 3.515625 6.410156 4.082031 5.273438 5.214844 C 3.007812 7.488281 3.007812 11.179688 5.273438 13.453125 C 6.40625 14.585938 7.667969 15 9.039062 15 C 10.230469 15 11.507812 14.683594 12.847656 14.257812 C 12.589844 15.019531 12.332031 15.804688 12.113281 16.597656 C 9.628906 17.214844 6.753906 17.410156 4.035156 14.695312 Z M 15.410156 3.324219 C 12.09375 0.0078125 6.695312 0.0078125 3.382812 3.324219 C 0.0664062 6.636719 0.0664062 12.035156 3.382812 15.351562 C 5.351562 17.316406 7.421875 17.90625 9.339844 17.90625 C 10.222656 17.90625 11.070312 17.78125 11.863281 17.605469 C 11.253906 20.421875 11.382812 23.347656 14.121094 26.085938 C 15.78125 27.746094 17.957031 28.574219 20.132812 28.574219 C 22.3125 28.574219 24.488281 27.746094 26.144531 26.085938 C 29.460938 22.773438 29.460938 17.378906 26.144531 14.0625 C 23.277344 11.195312 20.183594 11.253906 17.664062 11.804688 C 18.277344 8.992188 18.148438 6.0625 15.410156 3.324219 " fill-opacity="1" fill-rule="nonzero"/></g></svg>