<svg xmlns="http://www.w3.org/2000/svg" xmlns:xlink="http://www.w3.org/1999/xlink" width="40" zoomAndPan="magnify" viewBox="0 0 30 30.000001" height="40" preserveAspectRatio="xMidYMid meet" version="1.0"><defs><clipPath id="c9211a490a"><path d="M 10 0 L 29.40625 0 L 29.40625 29 L 10 29 Z M 10 0 " clip-rule="nonzero"/></clipPath><clipPath id="37a4c2ea1e"><path d="M 0.484375 0 L 16 0 L 16 29 L 0.484375 29 Z M 0.484375 0 " clip-rule="nonzero"/></clipPath></defs><path fill="#31ac7d" d="M 23.378906 5.390625 C 24.027344 5.390625 24.652344 5.539062 25.230469 5.824219 L 25.449219 5.386719 C 24.800781 5.066406 24.105469 4.902344 23.378906 4.902344 C 21.820312 4.902344 20.375 5.675781 19.503906 6.972656 L 19.914062 7.242188 C 20.6875 6.085938 21.984375 5.390625 23.378906 5.390625 Z M 23.378906 5.390625 " fill-opacity="1" fill-rule="nonzero"/><path fill="#31ac7d" d="M 23.378906 13.726562 C 21.082031 13.726562 19.210938 11.855469 19.210938 9.558594 C 19.210938 9.082031 19.292969 8.613281 19.449219 8.167969 L 18.988281 8.007812 C 18.8125 8.503906 18.722656 9.027344 18.722656 9.558594 C 18.722656 12.125 20.808594 14.214844 23.378906 14.214844 C 24.105469 14.214844 24.800781 14.050781 25.449219 13.730469 L 25.230469 13.292969 C 24.652344 13.578125 24.027344 13.726562 23.378906 13.726562 Z M 23.378906 13.726562 " fill-opacity="1" fill-rule="nonzero"/><path fill="#31ac7d" d="M 26.304688 5.9375 L 25.996094 6.316406 C 26.980469 7.113281 27.542969 8.296875 27.542969 9.558594 C 27.542969 10.742188 27.039062 11.875 26.15625 12.664062 L 26.480469 13.027344 C 27.46875 12.144531 28.035156 10.882812 28.035156 9.558594 C 28.035156 8.144531 27.402344 6.828125 26.304688 5.9375 Z M 26.304688 5.9375 " fill-opacity="1" fill-rule="nonzero"/><path fill="#31ac7d" d="M 23.378906 5.882812 L 23.378906 6.371094 C 25.132812 6.371094 26.5625 7.800781 26.5625 9.558594 C 26.5625 11.316406 25.132812 12.746094 23.378906 12.746094 C 22.722656 12.746094 22.09375 12.546875 21.558594 12.171875 L 21.277344 12.574219 C 21.894531 13.007812 22.621094 13.234375 23.378906 13.234375 C 25.40625 13.234375 27.054688 11.585938 27.054688 9.558594 C 27.054688 7.53125 25.40625 5.882812 23.378906 5.882812 Z M 23.378906 5.882812 " fill-opacity="1" fill-rule="nonzero"/><path fill="#31ac7d" d="M 22.46875 6.503906 L 22.328125 6.035156 C 20.78125 6.496094 19.703125 7.945312 19.703125 9.558594 C 19.703125 10.316406 19.929688 11.042969 20.359375 11.660156 L 20.761719 11.378906 C 20.390625 10.84375 20.191406 10.214844 20.191406 9.558594 C 20.191406 8.160156 21.128906 6.902344 22.46875 6.503906 Z M 22.46875 6.503906 " fill-opacity="1" fill-rule="nonzero"/><path fill="#31ac7d" d="M 23.378906 12.253906 C 24.449219 12.253906 25.421875 11.621094 25.847656 10.636719 L 25.398438 10.441406 C 25.050781 11.246094 24.253906 11.765625 23.378906 11.765625 C 22.160156 11.765625 21.171875 10.773438 21.171875 9.558594 L 20.683594 9.558594 C 20.683594 11.046875 21.890625 12.253906 23.378906 12.253906 Z M 23.378906 12.253906 " fill-opacity="1" fill-rule="nonzero"/><path fill="#31ac7d" d="M 23.378906 6.863281 C 22.304688 6.863281 21.335938 7.496094 20.90625 8.480469 L 21.355469 8.675781 C 21.707031 7.871094 22.5 7.351562 23.378906 7.351562 C 24.59375 7.351562 25.582031 8.34375 25.582031 9.558594 L 26.074219 9.558594 C 26.074219 8.070312 24.863281 6.863281 23.378906 6.863281 Z M 23.378906 6.863281 " fill-opacity="1" fill-rule="nonzero"/><path fill="#31ac7d" d="M 24.601562 9.558594 C 24.601562 9.722656 24.570312 9.878906 24.511719 10.027344 C 24.449219 10.175781 24.359375 10.308594 24.246094 10.425781 C 24.128906 10.539062 23.996094 10.628906 23.847656 10.691406 C 23.695312 10.753906 23.539062 10.785156 23.378906 10.785156 C 23.214844 10.785156 23.058594 10.753906 22.910156 10.691406 C 22.757812 10.628906 22.625 10.539062 22.511719 10.425781 C 22.398438 10.308594 22.308594 10.175781 22.246094 10.027344 C 22.183594 9.878906 22.152344 9.722656 22.152344 9.558594 C 22.152344 9.394531 22.183594 9.238281 22.246094 9.089844 C 22.308594 8.941406 22.398438 8.808594 22.511719 8.691406 C 22.625 8.578125 22.757812 8.488281 22.910156 8.425781 C 23.058594 8.363281 23.214844 8.332031 23.378906 8.332031 C 23.539062 8.332031 23.695312 8.363281 23.847656 8.425781 C 23.996094 8.488281 24.128906 8.578125 24.246094 8.691406 C 24.359375 8.808594 24.449219 8.941406 24.511719 9.089844 C 24.570312 9.238281 24.601562 9.394531 24.601562 9.558594 Z M 24.601562 9.558594 " fill-opacity="1" fill-rule="nonzero"/><g clip-path="url(#c9211a490a)"><path fill="#31ac7d" d="M 28.058594 4.511719 L 28 4.410156 C 26.449219 1.691406 23.539062 0 20.40625 0 L 20.140625 0 C 17.167969 0 14.433594 1.492188 12.828125 3.996094 L 12.6875 4.21875 C 11.515625 6.046875 11.015625 8.242188 11.289062 10.398438 L 11.363281 11.003906 L 10.246094 14.359375 C 10.136719 14.679688 10.171875 15.039062 10.335938 15.335938 C 10.5 15.632812 10.78125 15.851562 11.113281 15.933594 L 11.859375 16.121094 C 11.882812 18.363281 12.28125 20.5625 13.046875 22.667969 L 13.074219 22.746094 C 13.273438 23.289062 13.726562 23.695312 14.285156 23.828125 C 14.847656 23.964844 15.4375 23.808594 15.859375 23.414062 L 16.359375 22.945312 L 15.292969 28.628906 L 15.777344 28.71875 L 16.617188 24.226562 L 22.660156 28.132812 L 22.925781 27.71875 L 16.714844 23.707031 L 16.964844 22.382812 L 18.542969 20.910156 L 24.648438 24.851562 C 24.476562 26.121094 24.460938 27.414062 24.605469 28.703125 L 25.09375 28.648438 C 24.777344 25.808594 25.257812 22.941406 26.488281 20.359375 L 28.125 16.921875 C 29.027344 15.027344 29.503906 12.914062 29.503906 10.816406 L 29.503906 9.960938 C 29.503906 8.050781 29.003906 6.167969 28.058594 4.511719 Z M 29.015625 10.816406 C 29.015625 11.601562 28.945312 12.390625 28.808594 13.167969 L 21.324219 16.179688 C 21.234375 16.21875 21.171875 16.308594 21.171875 16.410156 L 21.171875 17.785156 L 15.523438 23.058594 C 15.21875 23.34375 14.808594 23.449219 14.402344 23.351562 C 13.996094 23.253906 13.679688 22.972656 13.535156 22.578125 L 13.507812 22.503906 C 13.160156 21.550781 12.894531 20.582031 12.703125 19.597656 L 15.148438 18.472656 L 14.941406 18.027344 L 12.613281 19.097656 C 12.4375 18.054688 12.347656 16.996094 12.347656 15.929688 C 12.347656 15.816406 12.273438 15.71875 12.164062 15.691406 L 11.230469 15.460938 C 11.03125 15.410156 10.863281 15.28125 10.765625 15.101562 C 10.664062 14.917969 10.644531 14.710938 10.710938 14.511719 L 11.792969 11.261719 L 15.808594 11.015625 C 16.640625 10.960938 17.3125 10.324219 17.40625 9.496094 L 17.664062 7.210938 C 17.765625 6.316406 17.152344 5.492188 16.265625 5.332031 L 12.949219 4.730469 C 12.996094 4.644531 13.046875 4.5625 13.101562 4.480469 L 13.242188 4.261719 C 14.757812 1.898438 17.335938 0.488281 20.140625 0.488281 L 20.144531 0.488281 L 20.40625 0.492188 C 23.363281 0.492188 26.109375 2.085938 27.574219 4.65625 L 27.632812 4.753906 C 28.535156 6.335938 29.015625 8.136719 29.015625 9.960938 Z M 13.898438 6.363281 L 14.246094 6.019531 L 15.703125 7.476562 L 15.355469 7.820312 Z M 15.796875 8.261719 L 16.144531 7.914062 L 16.632812 8.40625 L 16.289062 8.753906 Z M 15.796875 8.261719 " fill-opacity="1" fill-rule="nonzero"/></g><path fill="#31ac7d" d="M 3.078125 1.46875 L 13.859375 1.46875 L 13.859375 1.960938 L 3.078125 1.960938 Z M 3.078125 1.46875 " fill-opacity="1" fill-rule="nonzero"/><path fill="#31ac7d" d="M 1.605469 1.46875 L 2.585938 1.46875 L 2.585938 1.960938 L 1.605469 1.960938 Z M 1.605469 1.46875 " fill-opacity="1" fill-rule="nonzero"/><path fill="#31ac7d" d="M 1.433594 4.828125 L 2.902344 6.300781 L 3.25 5.953125 L 1.953125 4.65625 L 3.25 3.359375 L 2.902344 3.011719 L 1.433594 4.484375 C 1.335938 4.578125 1.335938 4.734375 1.433594 4.828125 Z M 1.433594 4.828125 " fill-opacity="1" fill-rule="nonzero"/><path fill="#31ac7d" d="M 4.582031 5.953125 L 4.929688 6.300781 L 6.402344 4.828125 C 6.496094 4.734375 6.496094 4.578125 6.402344 4.484375 L 4.929688 3.011719 L 4.582031 3.359375 L 5.882812 4.65625 Z M 4.582031 5.953125 " fill-opacity="1" fill-rule="nonzero"/><path fill="#31ac7d" d="M 3.15625 5.710938 L 4.335938 3.652344 L 4.761719 3.894531 L 3.582031 5.953125 Z M 3.15625 5.710938 " fill-opacity="1" fill-rule="nonzero"/><path fill="#31ac7d" d="M 1.605469 7.351562 L 10.429688 7.351562 L 10.429688 7.84375 L 1.605469 7.84375 Z M 1.605469 7.351562 " fill-opacity="1" fill-rule="nonzero"/><path fill="#31ac7d" d="M 6.507812 5.882812 L 10.917969 5.882812 L 10.917969 6.371094 L 6.507812 6.371094 Z M 6.507812 5.882812 " fill-opacity="1" fill-rule="nonzero"/><path fill="#31ac7d" d="M 1.605469 9.3125 L 10.429688 9.3125 L 10.429688 9.804688 L 1.605469 9.804688 Z M 1.605469 9.3125 " fill-opacity="1" fill-rule="nonzero"/><path fill="#31ac7d" d="M 4.863281 13.796875 C 4.769531 13.890625 4.769531 14.046875 4.863281 14.140625 L 6.335938 15.613281 L 6.679688 15.265625 L 5.382812 13.96875 L 6.679688 12.671875 L 6.335938 12.324219 Z M 4.863281 13.796875 " fill-opacity="1" fill-rule="nonzero"/><path fill="#31ac7d" d="M 8.363281 12.324219 L 8.015625 12.671875 L 9.3125 13.96875 L 8.015625 15.265625 L 8.363281 15.613281 L 9.832031 14.140625 C 9.925781 14.046875 9.925781 13.890625 9.832031 13.796875 Z M 8.363281 12.324219 " fill-opacity="1" fill-rule="nonzero"/><path fill="#31ac7d" d="M 6.589844 15.023438 L 7.765625 12.964844 L 8.191406 13.207031 L 7.015625 15.265625 Z M 6.589844 15.023438 " fill-opacity="1" fill-rule="nonzero"/><path fill="#31ac7d" d="M 1.605469 11.273438 L 10.429688 11.273438 L 10.429688 11.761719 L 1.605469 11.761719 Z M 1.605469 11.273438 " fill-opacity="1" fill-rule="nonzero"/><path fill="#31ac7d" d="M 9.359375 17.507812 C 9.6875 17.632812 10 17.796875 10.296875 17.988281 L 10.5625 17.578125 C 10.238281 17.367188 9.894531 17.1875 9.539062 17.050781 Z M 9.359375 17.507812 " fill-opacity="1" fill-rule="nonzero"/><path fill="#31ac7d" d="M 2.464844 24.863281 C 2.652344 25.226562 2.878906 25.574219 3.140625 25.890625 L 3.519531 25.578125 C 3.277344 25.289062 3.074219 24.972656 2.902344 24.640625 Z M 2.464844 24.863281 " fill-opacity="1" fill-rule="nonzero"/><path fill="#31ac7d" d="M 7.488281 27.449219 C 6.292969 27.449219 5.132812 27.03125 4.214844 26.273438 L 3.902344 26.648438 C 4.90625 27.480469 6.179688 27.9375 7.488281 27.9375 C 9.320312 27.9375 11.042969 27.042969 12.101562 25.542969 L 11.699219 25.261719 C 10.734375 26.628906 9.160156 27.449219 7.488281 27.449219 Z M 7.488281 27.449219 " fill-opacity="1" fill-rule="nonzero"/><path fill="#31ac7d" d="M 1.605469 13.234375 L 4.058594 13.234375 L 4.058594 13.722656 L 1.605469 13.722656 Z M 1.605469 13.234375 " fill-opacity="1" fill-rule="nonzero"/><g clip-path="url(#37a4c2ea1e)"><path fill="#31ac7d" d="M 0.871094 27.203125 L 0.871094 1.714844 C 0.871094 1.039062 1.421875 0.488281 2.097656 0.488281 L 15.820312 0.488281 L 15.820312 0 L 2.097656 0 C 1.148438 0 0.378906 0.769531 0.378906 1.714844 L 0.378906 27.203125 C 0.378906 28.148438 1.148438 28.917969 2.097656 28.917969 L 14.351562 28.917969 L 14.351562 28.429688 L 2.097656 28.429688 C 1.421875 28.429688 0.871094 27.878906 0.871094 27.203125 Z M 0.871094 27.203125 " fill-opacity="1" fill-rule="nonzero"/></g><path fill="#31ac7d" d="M 7.488281 17.15625 C 7.800781 17.15625 8.117188 17.183594 8.425781 17.238281 L 8.511719 16.757812 C 8.175781 16.695312 7.832031 16.664062 7.488281 16.664062 C 4.378906 16.664062 1.851562 19.195312 1.851562 22.300781 L 2.339844 22.300781 C 2.339844 19.464844 4.648438 17.15625 7.488281 17.15625 Z M 7.488281 17.15625 " fill-opacity="1" fill-rule="nonzero"/><path fill="#31ac7d" d="M 11.230469 19.71875 C 11.289062 19.621094 11.273438 19.496094 11.191406 19.417969 L 10.375 18.597656 C 10.292969 18.515625 10.167969 18.503906 10.070312 18.5625 L 9.507812 18.90625 C 9.316406 19.023438 9.078125 19.042969 8.871094 18.957031 C 8.667969 18.871094 8.511719 18.691406 8.460938 18.472656 L 8.304688 17.832031 C 8.28125 17.722656 8.179688 17.644531 8.066406 17.644531 L 6.910156 17.644531 C 6.792969 17.644531 6.695312 17.722656 6.667969 17.832031 L 6.515625 18.472656 C 6.464844 18.691406 6.308594 18.871094 6.101562 18.957031 C 5.894531 19.042969 5.660156 19.023438 5.46875 18.90625 L 4.90625 18.5625 C 4.808594 18.503906 4.683594 18.515625 4.601562 18.597656 L 3.78125 19.417969 C 3.703125 19.496094 3.6875 19.621094 3.746094 19.71875 L 4.09375 20.28125 C 4.210938 20.472656 4.226562 20.710938 4.144531 20.917969 C 4.058594 21.125 3.875 21.277344 3.660156 21.332031 L 3.019531 21.484375 C 2.910156 21.511719 2.832031 21.609375 2.832031 21.722656 L 2.832031 22.882812 C 2.832031 22.996094 2.910156 23.09375 3.019531 23.121094 L 3.660156 23.273438 C 3.875 23.324219 4.058594 23.480469 4.144531 23.6875 C 4.226562 23.894531 4.210938 24.132812 4.09375 24.320312 L 3.746094 24.886719 C 3.6875 24.980469 3.703125 25.105469 3.78125 25.1875 L 4.601562 26.007812 C 4.683594 26.085938 4.808594 26.101562 4.902344 26.042969 L 5.46875 25.695312 C 5.660156 25.582031 5.894531 25.5625 6.101562 25.648438 C 6.308594 25.734375 6.464844 25.914062 6.515625 26.132812 L 6.667969 26.769531 C 6.695312 26.878906 6.792969 26.957031 6.910156 26.957031 L 8.066406 26.957031 C 8.179688 26.957031 8.28125 26.878906 8.304688 26.769531 L 8.460938 26.132812 C 8.511719 25.914062 8.667969 25.734375 8.871094 25.648438 C 9.078125 25.5625 9.316406 25.578125 9.507812 25.695312 L 10.070312 26.042969 C 10.167969 26.101562 10.292969 26.085938 10.371094 26.007812 L 11.191406 25.1875 C 11.273438 25.105469 11.289062 24.980469 11.230469 24.886719 L 10.882812 24.320312 C 10.765625 24.132812 10.746094 23.894531 10.832031 23.6875 C 10.917969 23.480469 11.101562 23.324219 11.316406 23.273438 L 11.957031 23.121094 C 12.066406 23.09375 12.144531 22.996094 12.144531 22.882812 L 12.144531 21.722656 C 12.144531 21.609375 12.066406 21.511719 11.957031 21.484375 L 11.316406 21.332031 C 11.101562 21.277344 10.917969 21.125 10.832031 20.917969 C 10.746094 20.710938 10.765625 20.472656 10.882812 20.28125 Z M 7.488281 24.261719 C 6.40625 24.261719 5.527344 23.382812 5.527344 22.300781 C 5.527344 21.21875 6.40625 20.339844 7.488281 20.339844 C 8.570312 20.339844 9.449219 21.21875 9.449219 22.300781 C 9.449219 23.382812 8.570312 24.261719 7.488281 24.261719 Z M 7.488281 24.261719 " fill-opacity="1" fill-rule="nonzero"/></svg>