<svg xmlns="http://www.w3.org/2000/svg" xmlns:xlink="http://www.w3.org/1999/xlink" width="40" zoomAndPan="magnify" viewBox="0 0 30 30.000001" height="40" preserveAspectRatio="xMidYMid meet" version="1.0"><defs><clipPath id="66e8909602"><path d="M 0.484375 0 L 29.515625 0 L 29.515625 28 L 0.484375 28 Z M 0.484375 0 " clip-rule="nonzero"/></clipPath><clipPath id="4bd83ebfea"><path d="M 6 28 L 8 28 L 8 29.03125 L 6 29.03125 Z M 6 28 " clip-rule="nonzero"/></clipPath><clipPath id="b874008df7"><path d="M 8 28 L 10 28 L 10 29.03125 L 8 29.03125 Z M 8 28 " clip-rule="nonzero"/></clipPath><clipPath id="872581e111"><path d="M 10 28 L 12 28 L 12 29.03125 L 10 29.03125 Z M 10 28 " clip-rule="nonzero"/></clipPath><clipPath id="3bf92e654f"><path d="M 12 26 L 18 26 L 18 29.03125 L 12 29.03125 Z M 12 26 " clip-rule="nonzero"/></clipPath><clipPath id="cb6755a8a5"><path d="M 0.484375 21 L 5 21 L 5 25 L 0.484375 25 Z M 0.484375 21 " clip-rule="nonzero"/></clipPath><clipPath id="28484e345f"><path d="M 24 21 L 29.515625 21 L 29.515625 25 L 24 25 Z M 24 21 " clip-rule="nonzero"/></clipPath></defs><g clip-path="url(#66e8909602)"><path fill="#31ac7d" d="M 23.710938 19.839844 C 26.910156 19.839844 29.515625 17.234375 29.515625 14.03125 C 29.515625 10.832031 26.910156 8.226562 23.710938 8.226562 C 23.019531 8.226562 22.347656 8.347656 21.710938 8.582031 C 21.429688 7.273438 20.261719 6.289062 18.871094 6.289062 C 18.871094 6.289062 18.867188 6.289062 18.867188 6.289062 C 18.738281 2.800781 15.859375 0 12.339844 0 C 8.738281 0 5.804688 2.929688 5.804688 6.53125 C 5.804688 6.800781 5.824219 7.066406 5.855469 7.332031 C 2.804688 7.78125 0.484375 10.414062 0.484375 13.546875 C 0.484375 17.015625 3.304688 19.839844 6.773438 19.839844 L 10.644531 19.839844 L 10.644531 22.257812 L 8.226562 22.257812 L 8.226562 23.226562 L 11.128906 23.226562 C 11.394531 23.226562 11.613281 23.007812 11.613281 22.742188 L 11.613281 19.839844 L 12.582031 19.839844 L 12.582031 20.804688 L 13.546875 20.804688 L 13.546875 19.839844 L 14.515625 19.839844 L 14.515625 26.128906 L 13.546875 26.128906 L 13.546875 27.097656 L 15 27.097656 C 15.265625 27.097656 15.484375 26.878906 15.484375 26.613281 L 15.484375 19.839844 L 16.453125 19.839844 L 16.453125 21.773438 L 17.417969 21.773438 L 17.417969 19.839844 L 18.386719 19.839844 L 18.386719 24.675781 C 18.386719 24.945312 18.605469 25.160156 18.871094 25.160156 L 21.289062 25.160156 L 21.289062 24.195312 L 19.355469 24.195312 L 19.355469 19.839844 L 20.324219 19.839844 L 20.324219 22.742188 C 20.324219 23.007812 20.539062 23.226562 20.804688 23.226562 L 23.710938 23.226562 L 23.710938 22.257812 L 21.289062 22.257812 L 21.289062 19.839844 Z M 1.453125 13.546875 C 1.453125 10.746094 3.644531 8.414062 6.445312 8.242188 C 6.585938 8.234375 6.714844 8.164062 6.800781 8.054688 C 6.886719 7.941406 6.917969 7.800781 6.890625 7.664062 C 6.8125 7.292969 6.773438 6.910156 6.773438 6.53125 C 6.773438 3.464844 9.269531 0.96875 12.339844 0.96875 C 15.40625 0.96875 17.902344 3.464844 17.902344 6.53125 C 17.902344 6.585938 17.898438 6.640625 17.894531 6.691406 L 17.890625 6.804688 C 17.882812 6.953125 17.945312 7.097656 18.058594 7.195312 C 18.171875 7.292969 18.324219 7.332031 18.472656 7.300781 C 19.699219 7.042969 20.804688 7.996094 20.804688 9.183594 C 20.804688 9.199219 20.796875 9.261719 20.796875 9.277344 C 20.789062 9.449219 20.871094 9.613281 21.019531 9.707031 C 21.164062 9.800781 21.347656 9.808594 21.5 9.730469 C 22.195312 9.375 22.9375 9.195312 23.710938 9.195312 C 26.378906 9.195312 28.546875 11.363281 28.546875 14.03125 C 28.546875 16.699219 26.378906 18.871094 23.710938 18.871094 L 6.773438 18.871094 C 3.839844 18.871094 1.453125 16.484375 1.453125 13.546875 Z M 1.453125 13.546875 " fill-opacity="1" fill-rule="nonzero"/></g><path fill="#31ac7d" d="M 13.710938 2.65625 C 13.269531 2.5 12.808594 2.417969 12.339844 2.417969 L 12.339844 3.386719 C 12.699219 3.386719 13.050781 3.449219 13.386719 3.566406 Z M 13.710938 2.65625 " fill-opacity="1" fill-rule="nonzero"/><path fill="#31ac7d" d="M 11.289062 3.566406 L 10.96875 2.65625 C 9.328125 3.234375 8.226562 4.792969 8.226562 6.53125 L 9.195312 6.53125 C 9.195312 5.203125 10.035156 4.011719 11.289062 3.566406 Z M 11.289062 3.566406 " fill-opacity="1" fill-rule="nonzero"/><path fill="#31ac7d" d="M 17.078125 11.519531 L 16.214844 11.164062 C 16.15625 10.996094 16.085938 10.828125 16.007812 10.671875 L 16.367188 9.8125 C 16.4375 9.648438 16.410156 9.464844 16.304688 9.328125 C 16.027344 8.972656 15.707031 8.652344 15.351562 8.375 C 15.210938 8.265625 15.027344 8.242188 14.867188 8.308594 L 14.007812 8.667969 C 13.847656 8.589844 13.683594 8.523438 13.511719 8.464844 L 13.15625 7.601562 C 13.089844 7.441406 12.945312 7.328125 12.769531 7.304688 C 12.265625 7.242188 11.929688 7.242188 11.421875 7.304688 C 11.25 7.328125 11.101562 7.441406 11.035156 7.601562 L 10.683594 8.464844 C 10.511719 8.523438 10.347656 8.589844 10.1875 8.667969 L 9.328125 8.308594 C 9.167969 8.242188 8.980469 8.265625 8.84375 8.375 C 8.488281 8.648438 8.167969 8.96875 7.890625 9.328125 C 7.78125 9.464844 7.757812 9.648438 7.824219 9.8125 L 8.1875 10.671875 C 8.109375 10.828125 8.039062 10.996094 7.980469 11.164062 L 7.117188 11.519531 C 6.957031 11.585938 6.84375 11.734375 6.820312 11.90625 C 6.789062 12.160156 6.773438 12.375 6.773438 12.582031 C 6.773438 12.789062 6.789062 13.003906 6.820312 13.253906 C 6.84375 13.425781 6.957031 13.574219 7.117188 13.640625 L 7.980469 13.996094 C 8.039062 14.164062 8.109375 14.332031 8.183594 14.492188 L 7.824219 15.351562 C 7.757812 15.511719 7.78125 15.695312 7.890625 15.832031 C 8.164062 16.1875 8.484375 16.511719 8.84375 16.789062 C 8.980469 16.894531 9.167969 16.917969 9.328125 16.851562 L 10.1875 16.492188 C 10.347656 16.570312 10.511719 16.636719 10.683594 16.695312 L 11.035156 17.558594 C 11.101562 17.722656 11.25 17.835938 11.421875 17.855469 C 11.675781 17.886719 11.890625 17.902344 12.097656 17.902344 C 12.304688 17.902344 12.519531 17.886719 12.769531 17.855469 C 12.945312 17.835938 13.089844 17.722656 13.15625 17.558594 L 13.511719 16.695312 C 13.683594 16.636719 13.847656 16.570312 14.007812 16.492188 L 14.867188 16.851562 C 15.027344 16.917969 15.210938 16.894531 15.347656 16.789062 C 15.707031 16.511719 16.027344 16.191406 16.304688 15.832031 C 16.410156 15.695312 16.433594 15.511719 16.367188 15.351562 L 16.007812 14.492188 C 16.085938 14.332031 16.152344 14.164062 16.210938 13.996094 L 17.074219 13.640625 C 17.238281 13.574219 17.351562 13.425781 17.371094 13.253906 C 17.40625 13.003906 17.417969 12.789062 17.417969 12.582031 C 17.417969 12.375 17.40625 12.160156 17.371094 11.90625 C 17.351562 11.734375 17.238281 11.585938 17.078125 11.519531 Z M 16.441406 12.855469 L 15.636719 13.1875 C 15.496094 13.242188 15.394531 13.359375 15.351562 13.503906 C 15.28125 13.761719 15.179688 14.007812 15.050781 14.230469 C 14.980469 14.363281 14.972656 14.519531 15.027344 14.65625 L 15.363281 15.453125 C 15.238281 15.59375 15.109375 15.722656 14.96875 15.847656 L 14.171875 15.511719 C 14.035156 15.453125 13.878906 15.464844 13.746094 15.535156 C 13.523438 15.664062 13.277344 15.765625 13.019531 15.835938 C 12.875 15.878906 12.757812 15.980469 12.703125 16.121094 L 12.371094 16.925781 C 12.179688 16.9375 12.015625 16.9375 11.820312 16.925781 L 11.492188 16.121094 C 11.433594 15.980469 11.316406 15.878906 11.175781 15.835938 C 10.917969 15.765625 10.671875 15.664062 10.445312 15.535156 C 10.316406 15.464844 10.160156 15.453125 10.023438 15.511719 L 9.222656 15.847656 C 9.082031 15.722656 8.953125 15.59375 8.832031 15.453125 L 9.164062 14.65625 C 9.222656 14.519531 9.214844 14.363281 9.140625 14.230469 C 9.011719 14.007812 8.914062 13.761719 8.839844 13.503906 C 8.796875 13.359375 8.695312 13.242188 8.558594 13.1875 L 7.75 12.855469 C 7.746094 12.757812 7.742188 12.667969 7.742188 12.582031 C 7.742188 12.492188 7.746094 12.402344 7.753906 12.304688 L 8.558594 11.976562 C 8.695312 11.917969 8.800781 11.800781 8.839844 11.660156 C 8.914062 11.402344 9.015625 11.15625 9.140625 10.929688 C 9.214844 10.800781 9.222656 10.644531 9.164062 10.507812 L 8.832031 9.707031 C 8.953125 9.566406 9.085938 9.4375 9.222656 9.316406 L 10.023438 9.648438 C 10.160156 9.707031 10.316406 9.695312 10.445312 9.625 C 10.671875 9.496094 10.917969 9.398438 11.175781 9.324219 C 11.316406 9.28125 11.433594 9.179688 11.492188 9.042969 L 11.820312 8.234375 C 12.015625 8.222656 12.179688 8.222656 12.371094 8.234375 L 12.703125 9.042969 C 12.757812 9.179688 12.875 9.28125 13.019531 9.324219 C 13.277344 9.398438 13.523438 9.496094 13.75 9.625 C 13.878906 9.695312 14.035156 9.707031 14.171875 9.648438 L 14.96875 9.316406 C 15.109375 9.4375 15.242188 9.566406 15.363281 9.707031 L 15.027344 10.507812 C 14.972656 10.644531 14.980469 10.800781 15.054688 10.929688 C 15.179688 11.15625 15.28125 11.398438 15.351562 11.660156 C 15.394531 11.800781 15.496094 11.917969 15.636719 11.976562 L 16.441406 12.304688 C 16.449219 12.402344 16.453125 12.492188 16.453125 12.582031 C 16.453125 12.667969 16.449219 12.757812 16.441406 12.855469 Z M 16.441406 12.855469 " fill-opacity="1" fill-rule="nonzero"/><path fill="#31ac7d" d="M 23.089844 16.597656 L 23.5625 16.871094 L 24.046875 16.03125 L 23.574219 15.761719 C 23.605469 15.667969 23.640625 15.582031 23.660156 15.484375 L 24.195312 15.484375 L 24.195312 14.515625 L 23.660156 14.515625 C 23.640625 14.421875 23.605469 14.332031 23.574219 14.238281 L 24.046875 13.96875 L 23.5625 13.128906 L 23.089844 13.402344 C 23.027344 13.332031 22.960938 13.261719 22.890625 13.199219 L 23.160156 12.726562 L 22.324219 12.246094 L 22.050781 12.714844 C 21.960938 12.683594 21.871094 12.648438 21.773438 12.628906 L 21.773438 12.097656 L 20.804688 12.097656 L 20.804688 12.628906 C 20.710938 12.648438 20.621094 12.683594 20.53125 12.714844 L 20.257812 12.242188 L 19.417969 12.726562 L 19.691406 13.199219 C 19.621094 13.261719 19.554688 13.328125 19.488281 13.402344 L 19.019531 13.128906 L 18.535156 13.96875 L 19.003906 14.238281 C 18.976562 14.332031 18.941406 14.421875 18.917969 14.515625 L 18.386719 14.515625 L 18.386719 15.484375 L 18.917969 15.484375 C 18.9375 15.578125 18.972656 15.667969 19.003906 15.761719 L 18.535156 16.03125 L 19.019531 16.871094 L 19.488281 16.597656 C 19.554688 16.671875 19.621094 16.738281 19.691406 16.800781 L 19.417969 17.273438 L 20.257812 17.757812 L 20.53125 17.285156 C 20.621094 17.316406 20.710938 17.351562 20.804688 17.371094 L 20.804688 17.902344 L 21.773438 17.902344 L 21.773438 17.371094 C 21.871094 17.351562 21.960938 17.316406 22.050781 17.285156 L 22.324219 17.757812 L 23.160156 17.273438 L 22.890625 16.800781 C 22.960938 16.738281 23.027344 16.671875 23.089844 16.597656 Z M 21.289062 16.453125 C 20.488281 16.453125 19.839844 15.800781 19.839844 15 C 19.839844 14.199219 20.488281 13.546875 21.289062 13.546875 C 22.089844 13.546875 22.742188 14.199219 22.742188 15 C 22.742188 15.800781 22.089844 16.453125 21.289062 16.453125 Z M 21.289062 16.453125 " fill-opacity="1" fill-rule="nonzero"/><path fill="#31ac7d" d="M 12.097656 10.160156 C 10.761719 10.160156 9.675781 11.246094 9.675781 12.582031 C 9.675781 13.914062 10.761719 15 12.097656 15 C 13.429688 15 14.515625 13.914062 14.515625 12.582031 C 14.515625 11.246094 13.429688 10.160156 12.097656 10.160156 Z M 12.097656 14.03125 C 11.296875 14.03125 10.644531 13.382812 10.644531 12.582031 C 10.644531 11.78125 11.296875 11.128906 12.097656 11.128906 C 12.898438 11.128906 13.546875 11.78125 13.546875 12.582031 C 13.546875 13.382812 12.898438 14.03125 12.097656 14.03125 Z M 12.097656 14.03125 " fill-opacity="1" fill-rule="nonzero"/><path fill="#31ac7d" d="M 5.804688 22.257812 L 7.257812 22.257812 L 7.257812 23.226562 L 5.804688 23.226562 Z M 5.804688 22.257812 " fill-opacity="1" fill-rule="nonzero"/><path fill="#31ac7d" d="M 13.546875 24.675781 L 13.546875 21.773438 L 12.582031 21.773438 L 12.582031 24.195312 L 10.644531 24.195312 L 10.644531 25.160156 L 13.066406 25.160156 C 13.332031 25.160156 13.546875 24.945312 13.546875 24.675781 Z M 13.546875 24.675781 " fill-opacity="1" fill-rule="nonzero"/><path fill="#31ac7d" d="M 8.226562 24.195312 L 9.675781 24.195312 L 9.675781 25.160156 L 8.226562 25.160156 Z M 8.226562 24.195312 " fill-opacity="1" fill-rule="nonzero"/><path fill="#31ac7d" d="M 5.804688 24.195312 L 7.257812 24.195312 L 7.257812 25.160156 L 5.804688 25.160156 Z M 5.804688 24.195312 " fill-opacity="1" fill-rule="nonzero"/><path fill="#31ac7d" d="M 8.710938 26.128906 L 12.582031 26.128906 L 12.582031 27.097656 L 8.710938 27.097656 Z M 8.710938 26.128906 " fill-opacity="1" fill-rule="nonzero"/><g clip-path="url(#4bd83ebfea)"><path fill="#31ac7d" d="M 6.773438 28.066406 L 7.742188 28.066406 L 7.742188 29.03125 L 6.773438 29.03125 Z M 6.773438 28.066406 " fill-opacity="1" fill-rule="nonzero"/></g><g clip-path="url(#b874008df7)"><path fill="#31ac7d" d="M 8.710938 28.066406 L 9.675781 28.066406 L 9.675781 29.03125 L 8.710938 29.03125 Z M 8.710938 28.066406 " fill-opacity="1" fill-rule="nonzero"/></g><g clip-path="url(#872581e111)"><path fill="#31ac7d" d="M 10.644531 28.066406 L 11.613281 28.066406 L 11.613281 29.03125 L 10.644531 29.03125 Z M 10.644531 28.066406 " fill-opacity="1" fill-rule="nonzero"/></g><g clip-path="url(#3bf92e654f)"><path fill="#31ac7d" d="M 16.453125 28.066406 L 12.582031 28.066406 L 12.582031 29.03125 L 16.933594 29.03125 C 17.203125 29.03125 17.417969 28.816406 17.417969 28.546875 L 17.417969 26.128906 L 16.453125 26.128906 Z M 16.453125 28.066406 " fill-opacity="1" fill-rule="nonzero"/></g><path fill="#31ac7d" d="M 16.453125 22.742188 L 17.417969 22.742188 L 17.417969 25.160156 L 16.453125 25.160156 Z M 16.453125 22.742188 " fill-opacity="1" fill-rule="nonzero"/><g clip-path="url(#cb6755a8a5)"><path fill="#31ac7d" d="M 3.296875 23.226562 L 4.839844 23.226562 L 4.839844 22.257812 L 3.296875 22.257812 C 3.097656 21.695312 2.566406 21.289062 1.933594 21.289062 C 1.136719 21.289062 0.484375 21.941406 0.484375 22.742188 C 0.484375 23.542969 1.136719 24.195312 1.933594 24.195312 C 2.566406 24.195312 3.097656 23.789062 3.296875 23.226562 Z M 1.453125 22.742188 C 1.453125 22.476562 1.667969 22.257812 1.933594 22.257812 C 2.203125 22.257812 2.417969 22.476562 2.417969 22.742188 C 2.417969 23.007812 2.203125 23.226562 1.933594 23.226562 C 1.667969 23.226562 1.453125 23.007812 1.453125 22.742188 Z M 1.453125 22.742188 " fill-opacity="1" fill-rule="nonzero"/></g><path fill="#31ac7d" d="M 22.257812 24.195312 L 23.710938 24.195312 L 23.710938 25.160156 L 22.257812 25.160156 Z M 22.257812 24.195312 " fill-opacity="1" fill-rule="nonzero"/><path fill="#31ac7d" d="M 24.675781 24.195312 L 26.128906 24.195312 L 26.128906 25.160156 L 24.675781 25.160156 Z M 24.675781 24.195312 " fill-opacity="1" fill-rule="nonzero"/><g clip-path="url(#28484e345f)"><path fill="#31ac7d" d="M 28.066406 21.289062 C 27.433594 21.289062 26.902344 21.695312 26.703125 22.257812 L 24.675781 22.257812 L 24.675781 23.226562 L 26.703125 23.226562 C 26.902344 23.789062 27.433594 24.195312 28.066406 24.195312 C 28.863281 24.195312 29.515625 23.542969 29.515625 22.742188 C 29.515625 21.941406 28.863281 21.289062 28.066406 21.289062 Z M 28.066406 23.226562 C 27.796875 23.226562 27.582031 23.007812 27.582031 22.742188 C 27.582031 22.476562 27.796875 22.257812 28.066406 22.257812 C 28.332031 22.257812 28.546875 22.476562 28.546875 22.742188 C 28.546875 23.007812 28.332031 23.226562 28.066406 23.226562 Z M 28.066406 23.226562 " fill-opacity="1" fill-rule="nonzero"/></g><path fill="#31ac7d" d="M 3.386719 25.160156 C 2.585938 25.160156 1.933594 25.8125 1.933594 26.613281 C 1.933594 27.414062 2.585938 28.066406 3.386719 28.066406 C 4.015625 28.066406 4.550781 27.660156 4.75 27.097656 L 7.742188 27.097656 L 7.742188 26.128906 L 4.75 26.128906 C 4.550781 25.566406 4.015625 25.160156 3.386719 25.160156 Z M 3.386719 27.097656 C 3.121094 27.097656 2.902344 26.878906 2.902344 26.613281 C 2.902344 26.347656 3.121094 26.128906 3.386719 26.128906 C 3.652344 26.128906 3.871094 26.347656 3.871094 26.613281 C 3.871094 26.878906 3.652344 27.097656 3.386719 27.097656 Z M 3.386719 27.097656 " fill-opacity="1" fill-rule="nonzero"/></svg>