<svg xmlns="http://www.w3.org/2000/svg" xmlns:xlink="http://www.w3.org/1999/xlink" width="40" zoomAndPan="magnify" viewBox="0 0 30 30.000001" height="40" preserveAspectRatio="xMidYMid meet" version="1.0"><defs><clipPath id="f279c4e378"><path d="M 14 21 L 17 21 L 17 28.304688 L 14 28.304688 Z M 14 21 " clip-rule="nonzero"/></clipPath><clipPath id="b06e5e2bc8"><path d="M 20 27 L 22 27 L 22 28.304688 L 20 28.304688 Z M 20 27 " clip-rule="nonzero"/></clipPath><clipPath id="9409e0171d"><path d="M 9 27 L 12 27 L 12 28.304688 L 9 28.304688 Z M 9 27 " clip-rule="nonzero"/></clipPath><clipPath id="735283e28b"><path d="M 28 10 L 29.515625 10 L 29.515625 12 L 28 12 Z M 28 10 " clip-rule="nonzero"/></clipPath><clipPath id="b93de40bc5"><path d="M 28 20 L 29.515625 20 L 29.515625 22 L 28 22 Z M 28 20 " clip-rule="nonzero"/></clipPath><clipPath id="97d39158e4"><path d="M 22 14 L 29.515625 14 L 29.515625 18 L 22 18 Z M 22 14 " clip-rule="nonzero"/></clipPath><clipPath id="cb7b926a82"><path d="M 0.484375 10 L 2 10 L 2 12 L 0.484375 12 Z M 0.484375 10 " clip-rule="nonzero"/></clipPath><clipPath id="b527eeee44"><path d="M 0.484375 20 L 2 20 L 2 22 L 0.484375 22 Z M 0.484375 20 " clip-rule="nonzero"/></clipPath><clipPath id="093d7b4f8c"><path d="M 0.484375 14 L 7 14 L 7 18 L 0.484375 18 Z M 0.484375 14 " clip-rule="nonzero"/></clipPath></defs><path fill="#31ac7d" d="M 14.859375 0.121094 C 11.722656 0.121094 9.175781 2.636719 9.175781 5.734375 L 9.175781 7.191406 C 9.175781 7.382812 9.328125 7.539062 9.519531 7.539062 C 9.710938 7.539062 9.863281 7.382812 9.863281 7.191406 L 9.863281 5.734375 C 9.863281 3.019531 12.105469 0.8125 14.859375 0.8125 C 17.613281 0.8125 19.851562 3.019531 19.851562 5.734375 L 19.851562 7.191406 C 19.851562 7.382812 20.007812 7.539062 20.199219 7.539062 C 20.386719 7.539062 20.542969 7.382812 20.542969 7.191406 L 20.542969 5.734375 C 20.542969 2.636719 17.992188 0.121094 14.859375 0.121094 Z M 14.859375 0.121094 " fill-opacity="1" fill-rule="nonzero"/><path fill="#31ac7d" d="M 18.214844 7.539062 C 18.40625 7.539062 18.5625 7.382812 18.5625 7.195312 L 18.5625 5.734375 C 18.5625 3.648438 16.898438 1.953125 14.859375 1.953125 C 12.816406 1.953125 11.15625 3.648438 11.15625 5.734375 L 11.15625 7.195312 C 11.15625 7.382812 11.308594 7.539062 11.5 7.539062 C 11.691406 7.539062 11.847656 7.382812 11.847656 7.195312 L 11.847656 5.734375 C 11.847656 4.03125 13.195312 2.644531 14.859375 2.644531 C 16.519531 2.644531 17.871094 4.03125 17.871094 5.734375 L 17.871094 7.195312 C 17.871094 7.382812 18.027344 7.539062 18.214844 7.539062 Z M 18.214844 7.539062 " fill-opacity="1" fill-rule="nonzero"/><path fill="#31ac7d" d="M 19.332031 13.039062 C 19.523438 13.039062 19.675781 12.886719 19.675781 12.695312 C 19.675781 12.503906 19.523438 12.351562 19.332031 12.351562 L 18.59375 12.351562 L 18.59375 12.011719 C 18.59375 11.566406 18.230469 11.207031 17.785156 11.207031 L 17.371094 11.207031 L 17.371094 10.46875 C 17.371094 10.277344 17.21875 10.121094 17.027344 10.121094 C 16.835938 10.121094 16.683594 10.277344 16.683594 10.46875 L 16.683594 11.207031 L 15.015625 11.207031 L 15.015625 10.46875 C 15.015625 10.277344 14.863281 10.121094 14.671875 10.121094 C 14.480469 10.121094 14.328125 10.277344 14.328125 10.46875 L 14.328125 11.207031 L 12.769531 11.207031 L 12.769531 10.46875 C 12.769531 10.277344 12.613281 10.121094 12.425781 10.121094 C 12.234375 10.121094 12.078125 10.277344 12.078125 10.46875 L 12.078125 11.207031 L 11.664062 11.207031 C 11.222656 11.207031 10.859375 11.566406 10.859375 12.011719 L 10.859375 12.351562 L 10.121094 12.351562 C 9.929688 12.351562 9.777344 12.503906 9.777344 12.695312 C 9.777344 12.886719 9.929688 13.039062 10.121094 13.039062 L 10.859375 13.039062 L 10.859375 14.597656 L 10.121094 14.597656 C 9.929688 14.597656 9.777344 14.753906 9.777344 14.941406 C 9.777344 15.132812 9.929688 15.289062 10.121094 15.289062 L 10.859375 15.289062 L 10.859375 16.953125 L 10.121094 16.953125 C 9.929688 16.953125 9.777344 17.109375 9.777344 17.296875 C 9.777344 17.488281 9.929688 17.644531 10.121094 17.644531 L 10.859375 17.644531 L 10.859375 17.980469 C 10.859375 18.425781 11.222656 18.789062 11.664062 18.789062 L 12.078125 18.789062 L 12.078125 19.527344 C 12.078125 19.71875 12.234375 19.871094 12.425781 19.871094 C 12.613281 19.871094 12.769531 19.71875 12.769531 19.527344 L 12.769531 18.789062 L 14.328125 18.789062 L 14.328125 19.527344 C 14.328125 19.71875 14.480469 19.871094 14.671875 19.871094 C 14.863281 19.871094 15.015625 19.71875 15.015625 19.527344 L 15.015625 18.789062 L 16.683594 18.789062 L 16.683594 19.527344 C 16.683594 19.71875 16.835938 19.871094 17.027344 19.871094 C 17.21875 19.871094 17.371094 19.71875 17.371094 19.527344 L 17.371094 18.789062 L 17.785156 18.789062 C 18.230469 18.789062 18.59375 18.425781 18.59375 17.980469 L 18.59375 17.644531 L 19.332031 17.644531 C 19.523438 17.644531 19.675781 17.488281 19.675781 17.296875 C 19.675781 17.109375 19.523438 16.953125 19.332031 16.953125 L 18.59375 16.953125 L 18.59375 15.289062 L 19.332031 15.289062 C 19.523438 15.289062 19.675781 15.132812 19.675781 14.941406 C 19.675781 14.753906 19.523438 14.597656 19.332031 14.597656 L 18.59375 14.597656 L 18.59375 13.039062 Z M 17.902344 17.980469 C 17.902344 18.046875 17.851562 18.097656 17.785156 18.097656 L 11.664062 18.097656 C 11.601562 18.097656 11.550781 18.046875 11.550781 17.980469 L 11.550781 12.011719 C 11.550781 11.949219 11.601562 11.898438 11.664062 11.898438 L 17.785156 11.898438 C 17.851562 11.898438 17.902344 11.949219 17.902344 12.011719 Z M 17.902344 17.980469 " fill-opacity="1" fill-rule="nonzero"/><path fill="#31ac7d" d="M 14.320312 13.664062 C 14.113281 13.546875 13.828125 13.605469 13.722656 13.828125 L 12.679688 15.96875 C 12.492188 16.367188 13.109375 16.625 13.285156 16.238281 L 13.464844 15.839844 L 14.746094 15.839844 L 14.925781 16.238281 C 15.101562 16.625 15.703125 16.363281 15.519531 15.96875 C 14.40625 13.734375 14.5 13.761719 14.320312 13.664062 Z M 13.710938 15.292969 L 14.105469 14.414062 L 14.5 15.292969 Z M 13.710938 15.292969 " fill-opacity="1" fill-rule="nonzero"/><path fill="#31ac7d" d="M 15.878906 13.570312 C 15.738281 13.691406 15.738281 13.9375 15.878906 14.0625 C 16.019531 14.1875 16.304688 14.1875 16.445312 14.0625 C 16.585938 13.9375 16.589844 13.691406 16.445312 13.570312 C 16.296875 13.445312 16.019531 13.449219 15.878906 13.570312 Z M 15.878906 13.570312 " fill-opacity="1" fill-rule="nonzero"/><path fill="#31ac7d" d="M 15.8125 14.757812 L 15.8125 16.117188 C 15.8125 16.457031 16.21875 16.515625 16.414062 16.359375 C 16.480469 16.304688 16.515625 16.226562 16.515625 16.117188 L 16.515625 14.757812 C 16.515625 14.648438 16.480469 14.566406 16.414062 14.511719 C 16.222656 14.359375 15.8125 14.40625 15.8125 14.757812 Z M 15.8125 14.757812 " fill-opacity="1" fill-rule="nonzero"/><path fill="#31ac7d" d="M 8.691406 8.355469 C 7.992188 8.355469 7.425781 8.921875 7.425781 9.621094 L 7.425781 20.339844 C 7.425781 21.035156 7.992188 21.605469 8.691406 21.605469 L 21.027344 21.605469 C 21.726562 21.605469 22.292969 21.035156 22.292969 20.339844 L 22.292969 9.621094 C 22.292969 8.921875 21.726562 8.355469 21.027344 8.355469 Z M 21.601562 9.621094 L 21.601562 20.339844 C 21.601562 20.65625 21.34375 20.914062 21.027344 20.914062 L 8.691406 20.914062 C 8.371094 20.914062 8.113281 20.65625 8.113281 20.339844 L 8.113281 9.621094 C 8.113281 9.300781 8.371094 9.042969 8.691406 9.042969 L 21.027344 9.042969 C 21.34375 9.042969 21.601562 9.300781 21.601562 9.621094 Z M 21.601562 9.621094 " fill-opacity="1" fill-rule="nonzero"/><g clip-path="url(#f279c4e378)"><path fill="#31ac7d" d="M 15.515625 21.898438 C 15.324219 21.898438 15.167969 22.050781 15.167969 22.242188 L 15.167969 25.757812 C 14.578125 25.910156 14.140625 26.445312 14.140625 27.082031 C 14.140625 27.839844 14.757812 28.457031 15.515625 28.457031 C 16.273438 28.457031 16.890625 27.839844 16.890625 27.082031 C 16.890625 26.445312 16.453125 25.910156 15.859375 25.753906 L 15.859375 22.242188 C 15.859375 22.050781 15.707031 21.898438 15.515625 21.898438 Z M 16.203125 27.082031 C 16.203125 27.460938 15.894531 27.765625 15.515625 27.765625 C 15.136719 27.765625 14.832031 27.460938 14.832031 27.082031 C 14.832031 26.703125 15.136719 26.398438 15.515625 26.398438 C 15.894531 26.398438 16.203125 26.703125 16.203125 27.082031 Z M 16.203125 27.082031 " fill-opacity="1" fill-rule="nonzero"/></g><path fill="#31ac7d" d="M 20.296875 25.832031 C 20.296875 26.023438 20.453125 26.179688 20.644531 26.179688 C 20.832031 26.179688 20.988281 26.023438 20.988281 25.832031 L 20.988281 24.347656 C 20.988281 24.15625 20.832031 24 20.644531 24 L 18.796875 24 L 18.796875 22.679688 C 18.796875 22.492188 18.640625 22.335938 18.449219 22.335938 C 18.261719 22.335938 18.105469 22.492188 18.105469 22.679688 L 18.105469 24.347656 C 18.105469 24.535156 18.261719 24.691406 18.449219 24.691406 L 20.296875 24.691406 Z M 20.296875 25.832031 " fill-opacity="1" fill-rule="nonzero"/><path fill="#31ac7d" d="M 12.496094 22.335938 C 12.308594 22.335938 12.152344 22.492188 12.152344 22.679688 L 12.152344 24 L 10.304688 24 C 10.117188 24 9.960938 24.15625 9.960938 24.347656 L 9.960938 25.832031 C 9.960938 26.023438 10.117188 26.179688 10.304688 26.179688 C 10.496094 26.179688 10.652344 26.023438 10.652344 25.832031 L 10.652344 24.691406 L 12.496094 24.691406 C 12.6875 24.691406 12.84375 24.535156 12.84375 24.347656 L 12.84375 22.679688 C 12.84375 22.492188 12.6875 22.335938 12.496094 22.335938 Z M 12.496094 22.335938 " fill-opacity="1" fill-rule="nonzero"/><g clip-path="url(#b06e5e2bc8)"><path fill="#31ac7d" d="M 20.691406 28.4375 C 21.054688 28.4375 21.351562 28.140625 21.351562 27.777344 C 21.351562 27.410156 21.054688 27.117188 20.691406 27.117188 C 20.324219 27.117188 20.027344 27.410156 20.027344 27.777344 C 20.027344 28.140625 20.324219 28.4375 20.691406 28.4375 Z M 20.691406 28.4375 " fill-opacity="1" fill-rule="nonzero"/></g><g clip-path="url(#9409e0171d)"><path fill="#31ac7d" d="M 9.679688 27.777344 C 9.679688 28.140625 9.976562 28.4375 10.34375 28.4375 C 10.707031 28.4375 11.003906 28.140625 11.003906 27.777344 C 11.003906 27.410156 10.707031 27.117188 10.34375 27.117188 C 9.976562 27.117188 9.679688 27.410156 9.679688 27.777344 Z M 9.679688 27.777344 " fill-opacity="1" fill-rule="nonzero"/></g><path fill="#31ac7d" d="M 25.375 10.613281 C 25.183594 10.613281 25.027344 10.769531 25.027344 10.957031 L 25.027344 12.804688 L 23.710938 12.804688 C 23.519531 12.804688 23.363281 12.960938 23.363281 13.152344 C 23.363281 13.339844 23.519531 13.496094 23.710938 13.496094 L 25.375 13.496094 C 25.5625 13.496094 25.71875 13.339844 25.71875 13.152344 L 25.71875 11.304688 L 26.859375 11.304688 C 27.050781 11.304688 27.207031 11.148438 27.207031 10.957031 C 27.207031 10.769531 27.050781 10.613281 26.859375 10.613281 Z M 25.375 10.613281 " fill-opacity="1" fill-rule="nonzero"/><path fill="#31ac7d" d="M 25.375 18.757812 L 23.710938 18.757812 C 23.519531 18.757812 23.363281 18.914062 23.363281 19.101562 C 23.363281 19.292969 23.519531 19.449219 23.710938 19.449219 L 25.027344 19.449219 L 25.027344 21.296875 C 25.027344 21.484375 25.183594 21.640625 25.375 21.640625 L 26.859375 21.640625 C 27.050781 21.640625 27.207031 21.484375 27.207031 21.296875 C 27.207031 21.105469 27.050781 20.949219 26.859375 20.949219 L 25.71875 20.949219 L 25.71875 19.101562 C 25.71875 18.914062 25.5625 18.757812 25.375 18.757812 Z M 25.375 18.757812 " fill-opacity="1" fill-rule="nonzero"/><g clip-path="url(#735283e28b)"><path fill="#31ac7d" d="M 29.464844 10.910156 C 29.464844 10.546875 29.171875 10.25 28.804688 10.25 C 28.441406 10.25 28.144531 10.546875 28.144531 10.910156 C 28.144531 11.277344 28.441406 11.574219 28.804688 11.574219 C 29.171875 11.574219 29.464844 11.277344 29.464844 10.910156 Z M 29.464844 10.910156 " fill-opacity="1" fill-rule="nonzero"/></g><g clip-path="url(#b93de40bc5)"><path fill="#31ac7d" d="M 28.804688 20.597656 C 28.441406 20.597656 28.144531 20.894531 28.144531 21.257812 C 28.144531 21.625 28.441406 21.921875 28.804688 21.921875 C 29.171875 21.921875 29.464844 21.625 29.464844 21.257812 C 29.464844 20.894531 29.171875 20.597656 28.804688 20.597656 Z M 28.804688 20.597656 " fill-opacity="1" fill-rule="nonzero"/></g><g clip-path="url(#97d39158e4)"><path fill="#31ac7d" d="M 28.109375 14.710938 C 27.472656 14.710938 26.9375 15.148438 26.785156 15.742188 L 23.269531 15.742188 C 23.082031 15.742188 22.925781 15.894531 22.925781 16.085938 C 22.925781 16.277344 23.082031 16.429688 23.269531 16.429688 L 26.785156 16.429688 C 26.941406 17.023438 27.472656 17.460938 28.109375 17.460938 C 28.871094 17.460938 29.484375 16.84375 29.484375 16.085938 C 29.484375 15.328125 28.871094 14.710938 28.109375 14.710938 Z M 28.109375 16.769531 C 27.734375 16.769531 27.425781 16.464844 27.425781 16.085938 C 27.425781 15.707031 27.734375 15.398438 28.109375 15.398438 C 28.488281 15.398438 28.796875 15.707031 28.796875 16.085938 C 28.796875 16.464844 28.488281 16.769531 28.109375 16.769531 Z M 28.109375 16.769531 " fill-opacity="1" fill-rule="nonzero"/></g><path fill="#31ac7d" d="M 4.109375 13.496094 L 5.773438 13.496094 C 5.964844 13.496094 6.117188 13.339844 6.117188 13.152344 C 6.117188 12.960938 5.964844 12.804688 5.773438 12.804688 L 4.453125 12.804688 L 4.453125 10.957031 C 4.453125 10.769531 4.300781 10.613281 4.109375 10.613281 L 2.621094 10.613281 C 2.429688 10.613281 2.277344 10.769531 2.277344 10.957031 C 2.277344 11.148438 2.429688 11.304688 2.621094 11.304688 L 3.761719 11.304688 L 3.761719 13.152344 C 3.761719 13.339844 3.917969 13.496094 4.109375 13.496094 Z M 4.109375 13.496094 " fill-opacity="1" fill-rule="nonzero"/><path fill="#31ac7d" d="M 4.453125 19.449219 L 5.773438 19.449219 C 5.964844 19.449219 6.117188 19.292969 6.117188 19.101562 C 6.117188 18.914062 5.964844 18.757812 5.773438 18.757812 L 4.109375 18.757812 C 3.917969 18.757812 3.761719 18.914062 3.761719 19.101562 L 3.761719 20.949219 L 2.621094 20.949219 C 2.429688 20.949219 2.277344 21.105469 2.277344 21.296875 C 2.277344 21.484375 2.429688 21.640625 2.621094 21.640625 L 4.109375 21.640625 C 4.300781 21.640625 4.453125 21.484375 4.453125 21.296875 Z M 4.453125 19.449219 " fill-opacity="1" fill-rule="nonzero"/><g clip-path="url(#cb7b926a82)"><path fill="#31ac7d" d="M 0.015625 10.910156 C 0.015625 11.277344 0.3125 11.574219 0.675781 11.574219 C 1.042969 11.574219 1.339844 11.277344 1.339844 10.910156 C 1.339844 10.546875 1.042969 10.25 0.675781 10.25 C 0.3125 10.25 0.015625 10.546875 0.015625 10.910156 Z M 0.015625 10.910156 " fill-opacity="1" fill-rule="nonzero"/></g><g clip-path="url(#b527eeee44)"><path fill="#31ac7d" d="M 0.675781 20.597656 C 0.3125 20.597656 0.015625 20.894531 0.015625 21.257812 C 0.015625 21.625 0.3125 21.921875 0.675781 21.921875 C 1.042969 21.921875 1.339844 21.625 1.339844 21.257812 C 1.339844 20.894531 1.042969 20.597656 0.675781 20.597656 Z M 0.675781 20.597656 " fill-opacity="1" fill-rule="nonzero"/></g><g clip-path="url(#093d7b4f8c)"><path fill="#31ac7d" d="M 2.695312 16.429688 L 6.210938 16.429688 C 6.402344 16.429688 6.554688 16.277344 6.554688 16.085938 C 6.554688 15.894531 6.402344 15.742188 6.210938 15.742188 L 2.699219 15.742188 C 2.542969 15.148438 2.011719 14.710938 1.371094 14.710938 C 0.613281 14.710938 -0.00390625 15.328125 -0.00390625 16.085938 C -0.00390625 16.84375 0.613281 17.460938 1.371094 17.460938 C 2.007812 17.460938 2.542969 17.023438 2.695312 16.429688 Z M 1.371094 16.769531 C 0.992188 16.769531 0.6875 16.464844 0.6875 16.085938 C 0.6875 15.707031 0.992188 15.398438 1.371094 15.398438 C 1.75 15.398438 2.054688 15.707031 2.054688 16.085938 C 2.054688 16.464844 1.75 16.769531 1.371094 16.769531 Z M 1.371094 16.769531 " fill-opacity="1" fill-rule="nonzero"/></g></svg>