<svg xmlns="http://www.w3.org/2000/svg" xmlns:xlink="http://www.w3.org/1999/xlink" width="40" zoomAndPan="magnify" viewBox="0 0 30 30.000001" height="40" preserveAspectRatio="xMidYMid meet" version="1.0"><defs><clipPath id="a795865be3"><path d="M 0.484375 6 L 29.515625 6 L 29.515625 25 L 0.484375 25 Z M 0.484375 6 " clip-rule="nonzero"/></clipPath><clipPath id="0d34a59db9"><path d="M 7 22 L 23 22 L 23 27.582031 L 7 27.582031 Z M 7 22 " clip-rule="nonzero"/></clipPath><clipPath id="d518e34760"><path d="M 11 25 L 19 25 L 19 27.582031 L 11 27.582031 Z M 11 25 " clip-rule="nonzero"/></clipPath><clipPath id="7f2da3c909"><path d="M 0.484375 0 L 29.515625 0 L 29.515625 6 L 0.484375 6 Z M 0.484375 0 " clip-rule="nonzero"/></clipPath></defs><g clip-path="url(#a795865be3)"><path fill="#31ac7d" d="M 0.492188 22.578125 C 0.492188 23.484375 1.1875 24.214844 2.039062 24.214844 L 6.78125 24.214844 C 7.40625 22.628906 8.9375 21.585938 10.632812 21.574219 L 11.574219 21.574219 L 11.574219 20.722656 L 8.601562 20.722656 C 8.300781 20.722656 8.074219 20.457031 8.074219 20.160156 L 8.074219 17.25 C 7.230469 17.027344 6.640625 16.253906 6.640625 15.382812 C 6.640625 14.511719 7.230469 13.738281 8.074219 13.519531 L 8.074219 11.171875 C 8.074219 10.871094 8.300781 10.632812 8.601562 10.632812 L 14.40625 10.632812 L 14.40625 10.054688 C 13.632812 9.753906 13.203125 8.953125 13.359375 8.152344 C 13.527344 7.355469 14.246094 6.792969 15.066406 6.828125 C 15.894531 6.863281 16.550781 7.476562 16.648438 8.296875 C 16.746094 9.105469 16.234375 9.871094 15.453125 10.097656 L 15.453125 10.625 L 21.398438 10.625 C 21.699219 10.632812 21.925781 10.871094 21.925781 11.164062 L 21.925781 13.5 C 22.769531 13.722656 23.359375 14.496094 23.359375 15.367188 C 23.359375 16.246094 22.769531 17.011719 21.925781 17.230469 L 21.925781 20.152344 C 21.925781 20.449219 21.699219 20.714844 21.398438 20.714844 L 18.425781 20.714844 L 18.425781 21.566406 L 19.367188 21.566406 C 21.0625 21.574219 22.59375 22.621094 23.21875 24.207031 L 27.960938 24.207031 C 28.8125 24.207031 29.507812 23.476562 29.507812 22.570312 L 29.507812 6.472656 L 0.484375 6.472656 L 0.484375 22.578125 Z M 0.492188 22.578125 " fill-opacity="1" fill-rule="nonzero"/></g><path fill="#31ac7d" d="M 12.628906 20.722656 L 17.378906 20.722656 L 17.378906 21.574219 L 12.628906 21.574219 Z M 12.628906 20.722656 " fill-opacity="1" fill-rule="nonzero"/><path fill="#31ac7d" d="M 12.039062 13.722656 L 12.832031 13.722656 L 12.832031 14.453125 L 12.039062 14.453125 Z M 12.039062 13.722656 " fill-opacity="1" fill-rule="nonzero"/><path fill="#31ac7d" d="M 9.136719 19.667969 L 20.871094 19.667969 L 20.871094 11.691406 L 9.136719 11.691406 Z M 18.699219 18.53125 C 18.699219 18.832031 18.46875 19.058594 18.171875 19.058594 L 11.839844 19.058594 C 11.539062 19.058594 11.308594 18.832031 11.308594 18.53125 L 11.308594 16.824219 C 11.308594 16.527344 11.539062 16.296875 11.839844 16.296875 L 18.171875 16.296875 C 18.46875 16.296875 18.699219 16.527344 18.699219 16.824219 Z M 16.121094 13.195312 C 16.121094 12.894531 16.351562 12.667969 16.648438 12.667969 L 18.433594 12.667969 C 18.734375 12.667969 18.960938 12.894531 18.960938 13.195312 L 18.960938 14.980469 C 18.960938 15.277344 18.734375 15.507812 18.433594 15.507812 L 16.648438 15.507812 C 16.351562 15.507812 16.121094 15.277344 16.121094 14.980469 Z M 10.984375 13.195312 C 10.984375 12.894531 11.214844 12.667969 11.511719 12.667969 L 13.296875 12.667969 C 13.597656 12.667969 13.824219 12.894531 13.824219 13.195312 L 13.824219 14.980469 C 13.824219 15.277344 13.597656 15.507812 13.296875 15.507812 L 11.511719 15.507812 C 11.214844 15.507812 10.984375 15.277344 10.984375 14.980469 Z M 10.984375 13.195312 " fill-opacity="1" fill-rule="nonzero"/><g clip-path="url(#0d34a59db9)"><path fill="#31ac7d" d="M 22.332031 24.875 C 21.960938 23.546875 20.757812 22.621094 19.375 22.621094 L 10.625 22.621094 C 8.9375 22.621094 7.546875 23.992188 7.546875 25.683594 L 7.546875 27.308594 L 10.449219 27.308594 L 10.449219 24.980469 C 10.449219 24.839844 10.5 24.714844 10.597656 24.617188 C 10.695312 24.523438 10.828125 24.46875 10.96875 24.46875 L 19.050781 24.46875 C 19.191406 24.46875 19.3125 24.511719 19.417969 24.617188 C 19.515625 24.714844 19.570312 24.839844 19.570312 24.980469 L 19.570312 27.308594 L 22.472656 27.308594 L 22.472656 25.683594 C 22.472656 25.417969 22.425781 25.164062 22.367188 24.910156 C 22.347656 24.910156 22.339844 24.890625 22.332031 24.875 Z M 22.332031 24.875 " fill-opacity="1" fill-rule="nonzero"/></g><g clip-path="url(#d518e34760)"><path fill="#31ac7d" d="M 11.511719 25.53125 L 18.496094 25.53125 L 18.496094 27.320312 L 11.511719 27.320312 Z M 11.511719 25.53125 " fill-opacity="1" fill-rule="nonzero"/></g><path fill="#31ac7d" d="M 17.175781 13.722656 L 17.96875 13.722656 L 17.96875 14.453125 L 17.175781 14.453125 Z M 17.175781 13.722656 " fill-opacity="1" fill-rule="nonzero"/><path fill="#31ac7d" d="M 12.367188 17.355469 L 17.644531 17.355469 L 17.644531 18.003906 L 12.367188 18.003906 Z M 12.367188 17.355469 " fill-opacity="1" fill-rule="nonzero"/><path fill="#31ac7d" d="M 15.621094 8.488281 C 15.621094 8.152344 15.347656 7.871094 15.003906 7.871094 C 14.660156 7.871094 14.390625 8.144531 14.390625 8.488281 C 14.390625 8.832031 14.660156 9.105469 15.003906 9.105469 C 15.347656 9.105469 15.621094 8.824219 15.621094 8.488281 Z M 15.621094 8.488281 " fill-opacity="1" fill-rule="nonzero"/><path fill="#31ac7d" d="M 21.925781 14.652344 L 21.925781 16.097656 C 22.191406 15.9375 22.304688 15.675781 22.304688 15.367188 C 22.304688 15.058594 22.191406 14.8125 21.925781 14.652344 Z M 21.925781 14.652344 " fill-opacity="1" fill-rule="nonzero"/><path fill="#31ac7d" d="M 12.074219 1.839844 C 11.601562 1.839844 11.222656 2.253906 11.222656 2.753906 C 11.222656 3.253906 11.601562 3.667969 12.074219 3.667969 C 12.550781 3.667969 12.929688 3.253906 12.929688 2.753906 C 12.929688 2.253906 12.53125 1.839844 12.074219 1.839844 Z M 12.074219 1.839844 " fill-opacity="1" fill-rule="nonzero"/><path fill="#31ac7d" d="M 7.574219 1.839844 C 7.097656 1.839844 6.71875 2.253906 6.71875 2.753906 C 6.71875 3.253906 7.097656 3.667969 7.574219 3.667969 C 8.046875 3.667969 8.425781 3.253906 8.425781 2.753906 C 8.433594 2.253906 8.039062 1.839844 7.574219 1.839844 Z M 7.574219 1.839844 " fill-opacity="1" fill-rule="nonzero"/><g clip-path="url(#7f2da3c909)"><path fill="#31ac7d" d="M 27.96875 0 L 2.050781 0 C 1.1875 0 0.492188 0.757812 0.492188 1.671875 L 0.492188 5.417969 L 29.515625 5.417969 L 29.515625 1.671875 C 29.515625 0.757812 28.820312 0 27.96875 0 Z M 3.078125 4.742188 C 2.023438 4.742188 1.167969 3.851562 1.167969 2.773438 C 1.167969 1.691406 2.023438 0.785156 3.078125 0.785156 C 4.132812 0.785156 4.988281 1.671875 4.988281 2.753906 C 4.988281 3.835938 4.132812 4.742188 3.078125 4.742188 Z M 7.574219 4.742188 C 6.515625 4.742188 5.664062 3.851562 5.664062 2.773438 C 5.664062 1.691406 6.515625 0.792969 7.574219 0.792969 C 8.628906 0.792969 9.480469 1.679688 9.480469 2.761719 C 9.480469 3.84375 8.628906 4.742188 7.574219 4.742188 Z M 12.074219 4.742188 C 11.019531 4.742188 10.167969 3.851562 10.167969 2.773438 C 10.167969 1.691406 11.019531 0.792969 12.074219 0.792969 C 13.132812 0.792969 13.984375 1.679688 13.984375 2.761719 C 13.984375 3.84375 13.113281 4.742188 12.074219 4.742188 Z M 12.074219 4.742188 " fill-opacity="1" fill-rule="nonzero"/></g><path fill="#31ac7d" d="M 8.082031 16.097656 L 8.082031 14.652344 C 7.820312 14.8125 7.703125 15.074219 7.703125 15.382812 C 7.703125 15.683594 7.820312 15.9375 8.082031 16.097656 Z M 8.082031 16.097656 " fill-opacity="1" fill-rule="nonzero"/><path fill="#31ac7d" d="M 3.078125 1.839844 C 2.601562 1.839844 2.226562 2.253906 2.226562 2.753906 C 2.226562 3.253906 2.601562 3.667969 3.078125 3.667969 C 3.554688 3.667969 3.929688 3.253906 3.929688 2.753906 C 3.929688 2.253906 3.554688 1.839844 3.078125 1.839844 Z M 3.078125 1.839844 " fill-opacity="1" fill-rule="nonzero"/></svg>