<svg xmlns="http://www.w3.org/2000/svg" xmlns:xlink="http://www.w3.org/1999/xlink" width="40" zoomAndPan="magnify" viewBox="0 0 30 30.000001" height="40" preserveAspectRatio="xMidYMid meet" version="1.0"><defs><clipPath id="609e7bb435"><path d="M 0.484375 2 L 28 2 L 28 28 L 0.484375 28 Z M 0.484375 2 " clip-rule="nonzero"/></clipPath><clipPath id="5fe723cb8a"><path d="M 7 27 L 29.515625 27 L 29.515625 29.03125 L 7 29.03125 Z M 7 27 " clip-rule="nonzero"/></clipPath></defs><path fill="#31ac7d" d="M 17.242188 20.261719 C 17.140625 20.566406 17.371094 20.652344 18.003906 21.066406 C 18.003906 21.195312 18.011719 21.328125 18.027344 21.460938 C 17.453125 21.960938 17.234375 22.082031 17.386719 22.359375 C 17.917969 23.445312 17.695312 23.351562 18.847656 23.113281 C 18.941406 23.207031 19.039062 23.292969 19.144531 23.375 C 19.066406 24.53125 18.925781 24.328125 20.089844 24.722656 C 20.414062 24.847656 20.554688 24.488281 20.894531 23.960938 C 21.042969 23.964844 21.15625 23.957031 21.289062 23.9375 C 21.777344 24.492188 21.894531 24.734375 22.191406 24.582031 C 23.273438 24.046875 23.179688 24.273438 22.945312 23.113281 C 23.035156 23.023438 23.121094 22.925781 23.203125 22.820312 C 24.363281 22.898438 24.15625 23.039062 24.554688 21.875 C 24.65625 21.566406 24.414062 21.472656 23.789062 21.070312 C 23.789062 20.9375 23.78125 20.804688 23.765625 20.675781 C 24.3125 20.203125 24.5625 20.070312 24.40625 19.773438 C 23.875 18.691406 24.097656 18.785156 22.945312 19.019531 C 22.851562 18.929688 22.753906 18.84375 22.648438 18.761719 C 22.699219 18.042969 22.78125 17.777344 22.46875 17.671875 C 21.320312 17.285156 21.542969 17.1875 20.898438 18.175781 C 20.765625 18.175781 20.636719 18.183594 20.503906 18.203125 C 20.035156 17.660156 19.902344 17.40625 19.605469 17.554688 C 18.507812 18.09375 18.617188 17.878906 18.847656 19.019531 C 18.757812 19.109375 18.671875 19.210938 18.589844 19.316406 C 17.425781 19.238281 17.632812 19.101562 17.242188 20.261719 Z M 22.347656 21.554688 C 21.699219 23.457031 18.800781 22.5 19.445312 20.578125 C 19.71875 19.777344 20.585938 19.347656 21.386719 19.621094 C 22.183594 19.882812 22.613281 20.757812 22.347656 21.554688 Z M 22.347656 21.554688 " fill-opacity="1" fill-rule="nonzero"/><path fill="#31ac7d" d="M 7.277344 11.558594 C 7.375 11.65625 7.476562 11.75 7.59375 11.832031 C 7.511719 13.023438 7.371094 12.816406 8.554688 13.214844 C 8.867188 13.335938 8.988281 13.015625 9.375 12.433594 C 9.523438 12.4375 9.65625 12.425781 9.792969 12.40625 C 10.574219 13.300781 10.324219 13.261719 11.449219 12.703125 C 11.746094 12.5625 11.628906 12.316406 11.476562 11.566406 C 11.578125 11.472656 11.667969 11.367188 11.75 11.253906 C 12.945312 11.339844 12.738281 11.480469 13.136719 10.289062 C 13.242188 9.980469 12.996094 9.894531 12.351562 9.472656 C 12.351562 9.332031 12.339844 9.191406 12.324219 9.054688 C 13.226562 8.265625 13.183594 8.523438 12.625 7.394531 C 12.464844 7.082031 12.160156 7.230469 11.488281 7.367188 C 11.390625 7.273438 11.28125 7.175781 11.171875 7.09375 C 11.21875 6.449219 11.328125 6.085938 10.996094 5.972656 C 9.800781 5.570312 10.050781 5.484375 9.386719 6.496094 C 9.253906 6.496094 9.125 6.503906 8.972656 6.523438 C 8.183594 5.609375 8.441406 5.664062 7.308594 6.222656 C 7.015625 6.371094 7.132812 6.621094 7.289062 7.359375 C 7.1875 7.453125 7.097656 7.558594 7.015625 7.671875 C 6.34375 7.625 6.003906 7.515625 5.890625 7.847656 C 5.492188 9.042969 5.40625 8.792969 6.410156 9.457031 C 6.410156 9.59375 6.417969 9.734375 6.4375 9.871094 C 5.539062 10.65625 5.582031 10.40625 6.140625 11.535156 C 6.289062 11.832031 6.53125 11.710938 7.277344 11.558594 Z M 7.898438 8.960938 C 8.171875 8.144531 9.066406 7.703125 9.882812 7.980469 C 10.699219 8.253906 11.140625 9.144531 10.863281 9.960938 C 10.597656 10.765625 9.714844 11.226562 8.882812 10.949219 C 8.066406 10.671875 7.625 9.78125 7.898438 8.960938 Z M 7.898438 8.960938 " fill-opacity="1" fill-rule="nonzero"/><g clip-path="url(#609e7bb435)"><path fill="#31ac7d" d="M 4.164062 19.09375 C 3.515625 19.09375 2.972656 18.605469 2.90625 17.960938 L 2.617188 15.160156 C 2.5625 14.628906 0.964844 14.648438 1.347656 14.101562 L 3.304688 11.269531 C 3.359375 11.195312 3.378906 11.09375 3.355469 11 C 3.351562 10.972656 2.714844 8.183594 4.125 6.082031 C 5.929688 3.386719 11.292969 2.753906 13.863281 5.097656 C 15.492188 6.582031 15.949219 8.863281 15.851562 10.367188 C 15.699219 12.542969 13.636719 14.269531 13.65625 14.835938 L 10.320312 14.835938 C 9.75 14.835938 9.289062 15.296875 9.289062 15.867188 L 9.289062 17.738281 C 9.289062 18.1875 9.96875 18.1875 9.96875 17.738281 L 9.96875 15.859375 C 9.96875 15.671875 10.125 15.511719 10.320312 15.511719 L 26.425781 15.511719 C 26.617188 15.511719 26.777344 15.664062 26.777344 15.859375 L 26.777344 26.109375 C 26.777344 26.300781 26.617188 26.460938 26.425781 26.460938 L 10.320312 26.460938 C 9.847656 26.460938 9.96875 26.089844 9.96875 23.84375 C 9.96875 23.390625 9.289062 23.390625 9.289062 23.84375 L 9.289062 26.109375 C 9.289062 26.679688 9.75 27.140625 10.320312 27.140625 L 26.425781 27.140625 C 26.992188 27.140625 27.457031 26.679688 27.457031 26.109375 L 27.457031 15.859375 C 27.457031 15.292969 26.992188 14.828125 26.425781 14.828125 L 14.390625 14.828125 C 15.238281 13.515625 16.40625 12.308594 16.53125 10.40625 C 17.222656 0 0.683594 0.726562 2.660156 11.003906 C 0.664062 13.890625 0.492188 13.9375 0.65625 14.507812 C 0.800781 15.007812 1.117188 15.074219 1.957031 15.429688 L 2.222656 18.027344 C 2.328125 19.023438 3.160156 19.773438 4.160156 19.773438 L 4.980469 19.773438 L 4.992188 22.183594 C 4.992188 22.636719 5.675781 22.632812 5.675781 22.179688 L 5.660156 19.433594 C 5.660156 19.007812 5.269531 19.09375 4.164062 19.09375 Z M 4.164062 19.09375 " fill-opacity="1" fill-rule="nonzero"/></g><g clip-path="url(#5fe723cb8a)"><path fill="#31ac7d" d="M 29.140625 27.785156 L 7.605469 27.785156 C 7.414062 27.785156 7.265625 27.941406 7.265625 28.128906 L 7.265625 28.714844 C 7.265625 29.605469 7.988281 30.328125 8.878906 30.328125 L 27.871094 30.328125 C 28.757812 30.328125 29.480469 29.605469 29.480469 28.714844 L 29.480469 28.128906 C 29.480469 27.941406 29.328125 27.785156 29.140625 27.785156 Z M 29.140625 27.785156 " fill-opacity="1" fill-rule="nonzero"/></g><path fill="#31ac7d" d="M 24.359375 14.03125 L 24.359375 11.03125 L 25.242188 11.03125 C 25.640625 12.449219 27.738281 12.167969 27.738281 10.6875 C 27.738281 9.21875 25.644531 8.917969 25.242188 10.347656 L 24.015625 10.347656 C 23.824219 10.347656 23.675781 10.5 23.675781 10.6875 L 23.675781 14.03125 C 23.675781 14.484375 24.359375 14.480469 24.359375 14.03125 Z M 24.359375 14.03125 " fill-opacity="1" fill-rule="nonzero"/><path fill="#31ac7d" d="M 14.558594 19.398438 C 15.007812 19.398438 15.007812 18.714844 14.558594 18.714844 L 10.992188 18.714844 C 10.804688 18.714844 10.652344 18.871094 10.652344 19.054688 C 10.652344 19.242188 10.804688 19.398438 10.992188 19.398438 Z M 14.558594 19.398438 " fill-opacity="1" fill-rule="nonzero"/><path fill="#31ac7d" d="M 7.476562 21.046875 L 14.558594 21.046875 C 15.011719 21.046875 15.007812 20.363281 14.558594 20.363281 L 7.820312 20.363281 L 7.820312 17.785156 C 9.164062 17.378906 8.855469 15.421875 7.476562 15.421875 C 6.101562 15.421875 5.792969 17.378906 7.136719 17.785156 L 7.136719 20.707031 C 7.136719 20.898438 7.289062 21.046875 7.476562 21.046875 Z M 7.476562 21.046875 " fill-opacity="1" fill-rule="nonzero"/><path fill="#31ac7d" d="M 8.6875 25.15625 C 8.6875 24.609375 8.320312 24.152344 7.820312 24 L 7.820312 22.597656 L 12.8125 22.597656 C 13.269531 22.597656 13.265625 21.914062 12.8125 21.914062 L 7.476562 21.914062 C 7.289062 21.914062 7.136719 22.070312 7.136719 22.253906 L 7.136719 24 C 6.636719 24.152344 6.269531 24.609375 6.269531 25.15625 C 6.269531 25.824219 6.808594 26.363281 7.476562 26.363281 C 8.144531 26.363281 8.6875 25.824219 8.6875 25.15625 Z M 8.6875 25.15625 " fill-opacity="1" fill-rule="nonzero"/><path fill="#31ac7d" d="M 22.042969 8.191406 L 22.042969 13.808594 C 22.042969 14.257812 22.726562 14.261719 22.726562 13.808594 L 22.726562 8.191406 C 24.164062 7.789062 23.851562 5.691406 22.386719 5.691406 C 20.917969 5.691406 20.617188 7.789062 22.042969 8.191406 Z M 22.042969 8.191406 " fill-opacity="1" fill-rule="nonzero"/><path fill="#31ac7d" d="M 19.53125 11.03125 L 20.238281 11.03125 L 20.238281 14.03125 C 20.238281 14.484375 20.921875 14.480469 20.921875 14.03125 L 20.921875 10.6875 C 20.921875 10.5 20.765625 10.347656 20.582031 10.347656 L 19.53125 10.347656 C 19.136719 8.945312 17.0625 9.234375 17.0625 10.6875 C 17.0625 12.140625 19.132812 12.4375 19.53125 11.03125 Z M 19.53125 11.03125 " fill-opacity="1" fill-rule="nonzero"/></svg>