<svg xmlns="http://www.w3.org/2000/svg" xmlns:xlink="http://www.w3.org/1999/xlink" width="40" zoomAndPan="magnify" viewBox="0 0 30 30.000001" height="40" preserveAspectRatio="xMidYMid meet" version="1.0"><defs><clipPath id="9384d504b0"><path d="M 1 2 L 22 2 L 22 27.925781 L 1 27.925781 Z M 1 2 " clip-rule="nonzero"/></clipPath><clipPath id="86f64333cf"><path d="M 3 1.070312 L 5 1.070312 L 5 4 L 3 4 Z M 3 1.070312 " clip-rule="nonzero"/></clipPath><clipPath id="818c9c53db"><path d="M 5 1.070312 L 6 1.070312 L 6 3 L 5 3 Z M 5 1.070312 " clip-rule="nonzero"/></clipPath><clipPath id="1ff393a363"><path d="M 19 1.070312 L 29.515625 1.070312 L 29.515625 11 L 19 11 Z M 19 1.070312 " clip-rule="nonzero"/></clipPath></defs><g clip-path="url(#9384d504b0)"><path fill="#31ac7d" d="M 4.84375 20.710938 C 5.085938 22.15625 5.648438 24.097656 6.445312 25.433594 C 7.003906 26.378906 7.699219 27.082031 8.449219 27.46875 C 9.421875 27.96875 10.476562 27.957031 11.570312 27.910156 C 12.679688 27.953125 13.726562 27.976562 14.71875 27.464844 C 16.449219 26.574219 17.363281 24.417969 17.898438 22.554688 C 18.367188 20.914062 18.558594 19.480469 18.476562 18.175781 C 18.371094 16.574219 17.835938 15.148438 17.015625 14.25 C 17.683594 13.558594 20.136719 10.953125 21.015625 11.238281 C 22 11.546875 20.628906 15.839844 19.203125 16.808594 C 19.132812 16.855469 19.113281 16.957031 19.160156 17.027344 C 19.210938 17.101562 19.3125 17.121094 19.382812 17.070312 C 20.667969 16.199219 21.84375 13.082031 21.644531 11.707031 C 21.566406 11.183594 21.3125 11 21.113281 10.9375 C 20.207031 10.648438 18.503906 12.246094 16.792969 14.019531 C 16.097656 13.367188 15.660156 13.644531 14.363281 13.800781 C 16.671875 12.949219 18.355469 11.164062 18.648438 8.996094 C 18.660156 8.910156 18.601562 8.828125 18.511719 8.816406 C 18.429688 8.804688 18.347656 8.867188 18.335938 8.953125 C 17.945312 11.84375 14.925781 14.023438 11.3125 14.023438 C 7.414062 14.023438 4.246094 11.46875 4.246094 8.332031 C 4.246094 5.191406 7.414062 2.640625 11.3125 2.640625 C 14.300781 2.640625 16.980469 4.167969 17.976562 6.4375 C 18.011719 6.519531 18.105469 6.554688 18.183594 6.519531 C 18.265625 6.484375 18.304688 6.390625 18.265625 6.3125 C 17.222656 3.925781 14.425781 2.320312 11.3125 2.320312 C 7.238281 2.320312 3.929688 5.015625 3.929688 8.332031 C 3.929688 10.6875 5.605469 12.722656 8.035156 13.710938 C 7.285156 13.589844 6.929688 13.417969 6.195312 14.199219 C 5.34375 15.101562 4.796875 16.550781 4.695312 18.175781 C 4.652344 18.847656 4.679688 19.550781 4.78125 20.292969 C 3.5 21.839844 2.894531 22.003906 2.644531 21.96875 C 1.53125 21.792969 2.335938 17.035156 3.667969 15.804688 C 4.171875 15.339844 4.730469 15.097656 4.734375 15.097656 C 4.816406 15.0625 4.855469 14.96875 4.820312 14.890625 C 4.785156 14.808594 4.691406 14.769531 4.613281 14.804688 C 4.585938 14.8125 3.996094 15.066406 3.453125 15.570312 C 1.5 17.375 0.542969 25.722656 4.84375 20.710938 Z M 5.011719 18.195312 C 5.109375 16.644531 5.625 15.265625 6.425781 14.417969 C 7.058594 13.75 7.304688 13.914062 7.910156 14.011719 C 10.566406 14.445312 11.96875 14.375 13.816406 14.179688 C 15.914062 13.976562 15.992188 13.625 16.742188 14.421875 C 17.539062 15.265625 18.054688 16.640625 18.15625 18.195312 C 18.238281 19.464844 18.054688 20.863281 17.59375 22.464844 C 17.085938 24.242188 16.207031 26.34375 14.574219 27.183594 C 13.667969 27.648438 12.660156 27.640625 11.578125 27.59375 C 10.472656 27.640625 9.484375 27.640625 8.59375 27.183594 C 7.898438 26.824219 7.25 26.164062 6.71875 25.269531 C 5.75 23.648438 4.863281 20.566406 5.011719 18.195312 Z M 5.011719 18.195312 " fill-opacity="1" fill-rule="nonzero"/></g><path fill="#31ac7d" d="M 19.226562 26.320312 C 19.28125 25.957031 19.496094 25.617188 19.800781 25.40625 C 19.949219 25.304688 20.121094 25.230469 20.289062 25.160156 C 19.964844 25.023438 19.453125 25.335938 19.316406 24.53125 C 19.300781 24.460938 19.28125 24.394531 19.277344 24.324219 C 19.222656 24.441406 19.25 24.523438 19.097656 24.742188 C 18.925781 24.996094 18.5 25.335938 18.21875 25.40625 C 18.433594 25.386719 18.667969 25.414062 18.84375 25.542969 C 19.082031 25.71875 19.167969 26.03125 19.226562 26.320312 Z M 19.226562 26.320312 " fill-opacity="1" fill-rule="nonzero"/><g clip-path="url(#86f64333cf)"><path fill="#31ac7d" d="M 4.359375 3.390625 C 4.457031 3.472656 4.5625 3.558594 4.6875 3.5625 C 4.78125 3.5625 4.910156 3.484375 4.929688 3.367188 C 4.949219 3.246094 4.839844 3.128906 4.769531 3.0625 C 4.320312 2.605469 3.867188 2.144531 3.328125 1.84375 C 3.269531 1.8125 3.207031 1.78125 3.144531 1.785156 C 3.082031 1.789062 3.015625 1.835938 3.003906 1.910156 C 2.996094 1.980469 3.039062 2.042969 3.082031 2.09375 C 3.46875 2.570312 3.898438 3.007812 4.359375 3.390625 Z M 4.359375 3.390625 " fill-opacity="1" fill-rule="nonzero"/></g><path fill="#31ac7d" d="M 2.632812 3.839844 C 2.59375 3.871094 2.566406 3.929688 2.585938 3.980469 C 2.601562 4.027344 2.652344 4.050781 2.695312 4.0625 C 3.101562 4.199219 3.519531 4.289062 3.941406 4.335938 C 4.03125 4.34375 4.125 4.351562 4.207031 4.300781 C 4.265625 4.261719 4.324219 4.152344 4.296875 4.074219 C 4.269531 3.988281 4.160156 3.960938 4.09375 3.949219 C 3.65625 3.851562 3.214844 3.757812 2.769531 3.800781 C 2.722656 3.804688 2.675781 3.8125 2.632812 3.839844 Z M 2.632812 3.839844 " fill-opacity="1" fill-rule="nonzero"/><g clip-path="url(#818c9c53db)"><path fill="#31ac7d" d="M 5.417969 2.890625 C 5.472656 2.9375 5.574219 2.957031 5.628906 2.898438 C 5.683594 2.839844 5.664062 2.71875 5.652344 2.644531 C 5.570312 2.164062 5.484375 1.679688 5.289062 1.246094 C 5.269531 1.199219 5.246094 1.152344 5.210938 1.121094 C 5.171875 1.09375 5.117188 1.089844 5.082031 1.125 C 5.050781 1.160156 5.054688 1.21875 5.058594 1.269531 C 5.101562 1.730469 5.179688 2.1875 5.296875 2.632812 C 5.320312 2.730469 5.351562 2.828125 5.417969 2.890625 Z M 5.417969 2.890625 " fill-opacity="1" fill-rule="nonzero"/></g><path fill="#31ac7d" d="M 22.027344 5.535156 C 22.449219 5.984375 22.890625 6.429688 23.328125 6.851562 C 23.359375 6.882812 23.402344 6.894531 23.441406 6.894531 C 23.582031 6.894531 23.652344 6.722656 23.550781 6.621094 C 22.839844 5.941406 22.363281 5.425781 22.222656 5.277344 C 22.222656 5.277344 22.230469 5.246094 22.300781 5.191406 C 22.746094 4.871094 23.328125 4.742188 23.84375 4.628906 C 23.929688 4.613281 23.984375 4.527344 23.964844 4.441406 C 23.945312 4.355469 23.863281 4.300781 23.777344 4.320312 C 23.230469 4.4375 22.613281 4.574219 22.117188 4.933594 C 21.882812 5.101562 21.824219 5.316406 22.027344 5.535156 Z M 22.027344 5.535156 " fill-opacity="1" fill-rule="nonzero"/><path fill="#31ac7d" d="M 25.628906 5.011719 C 26.296875 5.808594 26.757812 6.433594 26.804688 6.496094 C 26.804688 6.496094 26.792969 6.523438 26.714844 6.570312 C 26.238281 6.839844 25.644531 6.90625 25.121094 6.960938 C 25.035156 6.96875 24.972656 7.046875 24.980469 7.136719 C 24.988281 7.222656 25.070312 7.285156 25.15625 7.277344 C 25.710938 7.21875 26.339844 7.148438 26.871094 6.84375 C 27.125 6.703125 27.203125 6.496094 27.023438 6.257812 C 26.65625 5.765625 26.269531 5.277344 25.875 4.808594 C 25.816406 4.742188 25.71875 4.730469 25.648438 4.789062 C 25.582031 4.84375 25.574219 4.945312 25.628906 5.011719 Z M 25.628906 5.011719 " fill-opacity="1" fill-rule="nonzero"/><path fill="#31ac7d" d="M 23.597656 7.777344 C 23.652344 7.777344 23.707031 7.75 23.738281 7.699219 L 25.660156 4.253906 C 25.703125 4.179688 25.671875 4.082031 25.597656 4.039062 C 25.523438 3.996094 25.421875 4.023438 25.382812 4.101562 L 23.460938 7.542969 C 23.398438 7.648438 23.476562 7.777344 23.597656 7.777344 Z M 23.597656 7.777344 " fill-opacity="1" fill-rule="nonzero"/><g clip-path="url(#1ff393a363)"><path fill="#31ac7d" d="M 20.839844 2.835938 L 19.636719 6.703125 C 19.53125 7.042969 19.5625 7.40625 19.726562 7.726562 C 19.726562 7.726562 19.726562 7.730469 19.730469 7.730469 C 20 8.238281 20.429688 8.363281 20.804688 8.476562 C 20.304688 9.308594 20.015625 9.355469 20.027344 9.566406 C 20.03125 9.617188 20.058594 9.667969 20.085938 9.6875 C 20.105469 9.707031 20.1875 9.742188 20.214844 9.75 C 20.78125 9.804688 21.328125 9.667969 21.738281 9.542969 C 22.085938 9.441406 22.398438 9.308594 22.65625 9.046875 C 26.699219 10.324219 26.492188 10.25 26.710938 10.25 C 26.925781 10.25 27.140625 10.195312 27.335938 10.09375 C 27.652344 9.925781 27.886719 9.644531 27.992188 9.304688 L 29.199219 5.433594 C 29.417969 4.726562 29.023438 3.96875 28.316406 3.753906 L 22.523438 1.949219 C 21.8125 1.730469 21.058594 2.125 20.839844 2.835938 Z M 22.429688 2.253906 L 28.222656 4.054688 C 28.761719 4.222656 29.0625 4.796875 28.894531 5.339844 L 27.6875 9.210938 C 27.523438 9.746094 26.953125 10.054688 26.398438 9.882812 C 26.183594 9.820312 22.628906 8.707031 22.609375 8.707031 C 22.46875 8.707031 22.480469 8.839844 22.1875 9.015625 C 21.910156 9.191406 21.113281 9.433594 20.484375 9.445312 C 20.75 9.148438 20.984375 8.816406 21.183594 8.457031 C 21.234375 8.367188 21.1875 8.253906 21.085938 8.226562 C 20.605469 8.089844 20.238281 8.003906 20.011719 7.582031 C 19.886719 7.335938 19.859375 7.058594 19.941406 6.800781 L 21.144531 2.929688 C 21.3125 2.382812 21.894531 2.089844 22.429688 2.253906 Z M 22.429688 2.253906 " fill-opacity="1" fill-rule="nonzero"/></g><path fill="#31ac7d" d="M 8.132812 18.15625 L 14.707031 18.15625 C 15.082031 18.15625 15.382812 17.855469 15.382812 17.480469 L 15.382812 16.621094 C 15.382812 16.242188 15.082031 15.941406 14.707031 15.941406 L 8.132812 15.941406 C 7.761719 15.941406 7.453125 16.242188 7.453125 16.621094 L 7.453125 17.480469 C 7.453125 17.855469 7.761719 18.15625 8.132812 18.15625 Z M 13.535156 17.0625 C 13.535156 16.867188 13.691406 16.714844 13.878906 16.714844 L 13.917969 16.714844 C 14.109375 16.714844 14.261719 16.867188 14.261719 17.0625 L 14.261719 17.097656 C 14.261719 17.285156 14.109375 17.441406 13.917969 17.441406 L 13.878906 17.441406 C 13.691406 17.441406 13.535156 17.285156 13.535156 17.097656 Z M 11.0625 17.136719 C 11.0625 16.949219 11.222656 16.792969 11.410156 16.792969 L 11.445312 16.792969 C 11.636719 16.792969 11.789062 16.949219 11.789062 17.136719 L 11.789062 17.175781 C 11.789062 17.363281 11.636719 17.523438 11.445312 17.523438 L 11.410156 17.523438 C 11.222656 17.523438 11.0625 17.363281 11.0625 17.175781 Z M 8.714844 17.136719 C 8.714844 16.949219 8.871094 16.792969 9.0625 16.792969 L 9.097656 16.792969 C 9.289062 16.792969 9.441406 16.949219 9.441406 17.136719 L 9.441406 17.175781 C 9.441406 17.363281 9.289062 17.523438 9.097656 17.523438 L 9.0625 17.523438 C 8.871094 17.523438 8.714844 17.363281 8.714844 17.175781 Z M 8.714844 17.136719 " fill-opacity="1" fill-rule="nonzero"/><path fill="#31ac7d" d="M 6.148438 8.488281 C 6.148438 10.539062 8.515625 12.199219 11.4375 12.199219 C 14.359375 12.199219 16.726562 10.539062 16.726562 8.488281 C 16.726562 6.441406 14.359375 4.78125 11.4375 4.78125 C 8.515625 4.78125 6.148438 6.441406 6.148438 8.488281 Z M 10.308594 8.914062 C 9.921875 8.914062 9.613281 8.371094 9.613281 7.707031 C 9.613281 7.039062 9.921875 6.5 10.308594 6.5 C 10.691406 6.5 11.003906 7.039062 11.003906 7.707031 C 11.003906 8.371094 10.691406 8.914062 10.308594 8.914062 Z M 14.285156 6.304688 C 14.671875 6.304688 14.980469 6.84375 14.980469 7.511719 C 14.980469 8.179688 14.671875 8.71875 14.285156 8.71875 C 13.902344 8.71875 13.589844 8.179688 13.589844 7.511719 C 13.589844 6.84375 13.902344 6.304688 14.285156 6.304688 Z M 13.929688 9.675781 C 13.941406 9.65625 14.003906 9.59375 14.113281 9.65625 C 14.226562 9.71875 14.191406 9.816406 14.175781 9.835938 C 13.628906 10.730469 12.554688 11.035156 11.875 10.71875 C 11.28125 10.445312 11.089844 9.949219 11.15625 9.914062 C 11.210938 9.882812 11.417969 10.089844 11.667969 10.199219 C 12.597656 10.636719 13.46875 10.328125 13.929688 9.675781 Z M 13.929688 9.675781 " fill-opacity="1" fill-rule="nonzero"/><path fill="#31ac7d" d="M 23.253906 17.699219 C 22.425781 18.113281 21.535156 18.183594 21.136719 18.078125 C 21.050781 18.054688 20.964844 18.105469 20.941406 18.191406 C 20.921875 18.277344 20.972656 18.363281 21.054688 18.386719 C 21.257812 18.4375 21.554688 18.441406 21.761719 18.429688 C 22.878906 18.378906 24.050781 17.757812 24.8125 16.902344 C 25.089844 16.625 25.28125 16.289062 25.347656 16.140625 C 26.242188 15.785156 26.863281 14.804688 27.15625 13.878906 C 27.410156 13.003906 27.339844 12.105469 27.238281 11.183594 C 27.230469 11.117188 27.195312 10.894531 27.128906 10.734375 C 27.089844 10.652344 26.996094 10.617188 26.917969 10.652344 C 26.835938 10.6875 26.800781 10.78125 26.835938 10.863281 C 26.886719 10.976562 26.917969 11.160156 26.921875 11.21875 C 27.023438 12.140625 27.089844 12.96875 26.851562 13.785156 C 26.601562 14.578125 26.132812 15.34375 25.457031 15.734375 C 25.617188 14.714844 24.855469 13.929688 24.1875 14.117188 C 23.878906 14.199219 23.640625 14.4375 23.535156 14.769531 C 23.332031 15.378906 23.753906 16.125 24.421875 16.25 C 24.585938 16.277344 24.753906 16.28125 24.921875 16.253906 C 24.839844 16.382812 24.726562 16.539062 24.582031 16.683594 C 24.230469 17.078125 23.734375 17.457031 23.253906 17.699219 Z M 24.476562 15.9375 C 24.011719 15.847656 23.695312 15.300781 23.835938 14.867188 C 23.933594 14.566406 24.175781 14.40625 24.386719 14.40625 C 24.855469 14.40625 25.335938 15.09375 25.09375 15.890625 C 24.886719 15.953125 24.675781 15.96875 24.476562 15.9375 Z M 24.476562 15.9375 " fill-opacity="1" fill-rule="nonzero"/></svg>