<svg xmlns="http://www.w3.org/2000/svg" xmlns:xlink="http://www.w3.org/1999/xlink" width="40" zoomAndPan="magnify" viewBox="0 0 30 30.000001" height="40" preserveAspectRatio="xMidYMid meet" version="1.0"><defs><clipPath id="9c8986362f"><path d="M 0.484375 3.160156 L 29.515625 3.160156 L 29.515625 23.480469 L 0.484375 23.480469 Z M 0.484375 3.160156 " clip-rule="nonzero"/></clipPath></defs><g clip-path="url(#9c8986362f)"><path fill="#31ac7d" d="M 9.992188 16.574219 C 10.097656 16.746094 10.042969 16.964844 9.871094 17.070312 C 9.8125 17.105469 9.75 17.121094 9.683594 17.121094 C 9.5625 17.121094 9.445312 17.058594 9.375 16.945312 C 8.78125 15.964844 7.742188 15.378906 6.597656 15.378906 C 5.449219 15.378906 4.410156 15.964844 3.816406 16.945312 C 3.714844 17.117188 3.492188 17.171875 3.320312 17.070312 C 3.152344 16.964844 3.097656 16.746094 3.199219 16.574219 C 3.925781 15.371094 5.195312 14.65625 6.597656 14.65625 C 7.996094 14.65625 9.269531 15.371094 9.992188 16.574219 Z M 6.597656 16.058594 C 5.691406 16.058594 4.871094 16.519531 4.402344 17.296875 C 4.296875 17.46875 4.351562 17.691406 4.523438 17.792969 C 4.695312 17.898438 4.914062 17.839844 5.019531 17.671875 C 5.355469 17.113281 5.945312 16.78125 6.597656 16.78125 C 7.246094 16.78125 7.835938 17.113281 8.175781 17.671875 C 8.242188 17.785156 8.363281 17.84375 8.484375 17.84375 C 8.546875 17.84375 8.613281 17.828125 8.671875 17.792969 C 8.839844 17.691406 8.894531 17.46875 8.792969 17.296875 C 8.324219 16.519531 7.503906 16.058594 6.597656 16.058594 Z M 6.597656 17.460938 C 6.191406 17.460938 5.8125 17.675781 5.601562 18.019531 C 5.5 18.191406 5.554688 18.414062 5.722656 18.515625 C 5.78125 18.550781 5.847656 18.570312 5.910156 18.570312 C 6.03125 18.570312 6.152344 18.507812 6.21875 18.394531 C 6.300781 18.261719 6.441406 18.183594 6.597656 18.183594 C 6.75 18.183594 6.894531 18.261719 6.972656 18.394531 C 7.074219 18.566406 7.296875 18.621094 7.46875 18.515625 C 7.640625 18.414062 7.695312 18.191406 7.589844 18.019531 C 7.382812 17.675781 7 17.460938 6.597656 17.460938 Z M 29.503906 4.160156 L 29.503906 18.742188 C 29.503906 19.296875 29.054688 19.742188 28.5 19.742188 L 20.5625 19.742188 L 20.5625 21.191406 L 21.640625 21.753906 C 21.675781 21.769531 21.707031 21.785156 21.738281 21.800781 C 22.070312 21.96875 22.519531 22.195312 22.519531 22.753906 C 22.519531 23.332031 22.050781 23.800781 21.476562 23.800781 L 14.261719 23.800781 C 13.6875 23.800781 13.21875 23.332031 13.21875 22.753906 C 13.21875 22.195312 13.667969 21.96875 14 21.800781 C 14.03125 21.785156 14.0625 21.769531 14.097656 21.753906 L 15.175781 21.191406 L 15.175781 19.742188 L 9.078125 19.742188 L 9.078125 21.867188 L 9.722656 21.867188 C 9.882812 21.367188 10.351562 21.003906 10.902344 21.003906 C 11.585938 21.003906 12.140625 21.558594 12.140625 22.238281 C 12.140625 22.921875 11.585938 23.476562 10.902344 23.476562 C 10.34375 23.476562 9.867188 23.101562 9.714844 22.585938 L 8.714844 22.585938 C 8.515625 22.585938 8.355469 22.425781 8.355469 22.226562 L 8.355469 19.742188 L 6.941406 19.742188 L 6.941406 21.054688 C 7.449219 21.210938 7.816406 21.683594 7.816406 22.238281 C 7.816406 22.921875 7.261719 23.476562 6.582031 23.476562 C 5.898438 23.476562 5.34375 22.921875 5.34375 22.238281 C 5.34375 21.683594 5.714844 21.210938 6.21875 21.054688 L 6.21875 19.742188 L 4.808594 19.742188 L 4.808594 22.226562 C 4.808594 22.425781 4.644531 22.585938 4.445312 22.585938 L 3.445312 22.585938 C 3.292969 23.101562 2.820312 23.476562 2.257812 23.476562 C 1.578125 23.476562 1.023438 22.921875 1.023438 22.238281 C 1.023438 21.558594 1.578125 21.003906 2.257812 21.003906 C 2.8125 21.003906 3.28125 21.367188 3.4375 21.867188 L 4.085938 21.867188 L 4.085938 19.742188 L 2.898438 19.742188 C 1.574219 19.746094 0.496094 18.667969 0.496094 17.34375 C 0.496094 16.371094 1.085938 15.503906 1.964844 15.132812 C 1.964844 15.105469 1.964844 15.078125 1.964844 15.050781 C 1.964844 14.144531 2.699219 13.410156 3.601562 13.410156 C 3.632812 13.410156 3.660156 13.410156 3.6875 13.414062 C 4.1875 12.363281 5.132812 11.59375 6.234375 11.292969 L 6.234375 4.160156 C 6.234375 3.605469 6.683594 3.15625 7.238281 3.15625 L 28.5 3.15625 C 29.054688 3.15625 29.503906 3.605469 29.503906 4.160156 Z M 2.773438 22.238281 C 2.773438 21.957031 2.542969 21.726562 2.257812 21.726562 C 1.976562 21.726562 1.742188 21.957031 1.742188 22.238281 C 1.742188 22.523438 1.976562 22.753906 2.257812 22.753906 C 2.542969 22.753906 2.773438 22.523438 2.773438 22.238281 Z M 6.582031 21.726562 C 6.296875 21.726562 6.066406 21.957031 6.066406 22.238281 C 6.066406 22.523438 6.296875 22.753906 6.582031 22.753906 C 6.863281 22.753906 7.097656 22.523438 7.097656 22.238281 C 7.097656 21.957031 6.863281 21.726562 6.582031 21.726562 Z M 10.386719 22.238281 C 10.386719 22.523438 10.617188 22.753906 10.902344 22.753906 C 11.1875 22.753906 11.417969 22.523438 11.417969 22.238281 C 11.417969 21.957031 11.1875 21.726562 10.902344 21.726562 C 10.617188 21.726562 10.386719 21.957031 10.386719 22.238281 Z M 6.957031 11.167969 C 7.058594 11.160156 7.15625 11.15625 7.257812 11.15625 C 9.4375 11.15625 11.207031 12.925781 11.207031 15.105469 C 11.207031 15.117188 11.207031 15.125 11.207031 15.136719 C 11.644531 15.324219 12.011719 15.640625 12.265625 16.027344 L 28.78125 16.027344 L 28.78125 4.160156 C 28.78125 4.003906 28.65625 3.878906 28.5 3.878906 L 7.238281 3.878906 C 7.082031 3.878906 6.957031 4.003906 6.957031 4.160156 Z M 2.898438 19.023438 L 10.261719 19.023438 C 11.1875 19.023438 11.941406 18.269531 11.941406 17.34375 C 11.941406 16.605469 11.445312 15.941406 10.734375 15.730469 C 10.570312 15.683594 10.464844 15.527344 10.476562 15.359375 C 10.484375 15.273438 10.488281 15.191406 10.488281 15.105469 C 10.488281 13.328125 9.039062 11.878906 7.257812 11.878906 C 5.933594 11.878906 4.726562 12.707031 4.246094 13.941406 C 4.183594 14.109375 4 14.203125 3.824219 14.160156 C 3.75 14.140625 3.675781 14.132812 3.601562 14.132812 C 3.097656 14.132812 2.683594 14.542969 2.683594 15.050781 C 2.683594 15.128906 2.695312 15.207031 2.714844 15.28125 C 2.765625 15.472656 2.652344 15.671875 2.460938 15.722656 C 1.730469 15.921875 1.21875 16.585938 1.21875 17.34375 C 1.21875 18.269531 1.972656 19.023438 2.898438 19.023438 Z M 19.839844 21.410156 L 19.839844 19.746094 L 15.898438 19.746094 L 15.898438 21.410156 C 15.898438 21.546875 15.824219 21.667969 15.703125 21.730469 L 14.429688 22.394531 C 14.394531 22.410156 14.359375 22.429688 14.324219 22.445312 C 14.011719 22.605469 13.941406 22.660156 13.941406 22.753906 C 13.941406 22.933594 14.085938 23.078125 14.261719 23.078125 L 21.476562 23.078125 C 21.652344 23.078125 21.796875 22.933594 21.796875 22.753906 C 21.796875 22.660156 21.726562 22.605469 21.414062 22.445312 C 21.378906 22.429688 21.34375 22.410156 21.308594 22.394531 L 20.035156 21.730469 C 19.914062 21.667969 19.839844 21.546875 19.839844 21.410156 Z M 28.78125 18.742188 L 28.78125 16.75 L 12.589844 16.75 C 12.636719 16.941406 12.664062 17.140625 12.664062 17.34375 C 12.664062 17.996094 12.402344 18.589844 11.976562 19.023438 L 28.5 19.023438 C 28.65625 19.023438 28.78125 18.898438 28.78125 18.742188 Z M 14.9375 12.902344 C 15.007812 12.972656 15.101562 13.007812 15.191406 13.007812 C 15.285156 13.007812 15.378906 12.972656 15.449219 12.902344 C 15.589844 12.761719 15.589844 12.535156 15.449219 12.394531 L 13.015625 9.953125 L 15.449219 7.515625 C 15.589844 7.371094 15.589844 7.144531 15.449219 7.003906 C 15.304688 6.863281 15.078125 6.863281 14.9375 7.003906 L 12.25 9.699219 C 12.109375 9.839844 12.109375 10.066406 12.25 10.207031 Z M 20.289062 12.902344 C 20.359375 12.972656 20.453125 13.007812 20.546875 13.007812 C 20.636719 13.007812 20.730469 12.972656 20.800781 12.902344 L 23.488281 10.210938 C 23.628906 10.070312 23.628906 9.839844 23.488281 9.699219 L 20.800781 7.003906 C 20.660156 6.863281 20.429688 6.863281 20.289062 7.003906 C 20.148438 7.144531 20.148438 7.375 20.289062 7.515625 L 22.722656 9.957031 L 20.289062 12.394531 C 20.148438 12.535156 20.148438 12.761719 20.289062 12.902344 Z M 16.898438 13.65625 C 16.929688 13.664062 16.960938 13.667969 16.992188 13.667969 C 17.152344 13.667969 17.296875 13.558594 17.339844 13.398438 L 19.097656 6.695312 C 19.148438 6.5 19.03125 6.304688 18.839844 6.253906 C 18.644531 6.203125 18.449219 6.320312 18.398438 6.511719 L 16.640625 13.214844 C 16.589844 13.40625 16.707031 13.605469 16.898438 13.65625 Z M 18.578125 17.523438 L 17.160156 17.523438 C 16.960938 17.523438 16.796875 17.6875 16.796875 17.886719 C 16.796875 18.085938 16.960938 18.246094 17.160156 18.246094 L 18.578125 18.246094 C 18.777344 18.246094 18.941406 18.085938 18.941406 17.886719 C 18.941406 17.6875 18.777344 17.523438 18.578125 17.523438 Z M 18.578125 17.523438 " fill-opacity="1" fill-rule="nonzero"/></g></svg>