<svg xmlns="http://www.w3.org/2000/svg" xmlns:xlink="http://www.w3.org/1999/xlink" width="40" zoomAndPan="magnify" viewBox="0 0 30 30.000001" height="40" preserveAspectRatio="xMidYMid meet" version="1.0"><defs><clipPath id="e15099d3ea"><path d="M 19 14 L 26.46875 14 L 26.46875 22 L 19 22 Z M 19 14 " clip-rule="nonzero"/></clipPath><clipPath id="f66f691bd7"><path d="M 3.242188 14 L 11 14 L 11 22 L 3.242188 22 Z M 3.242188 14 " clip-rule="nonzero"/></clipPath></defs><path fill="#31ac7d" d="M 10.605469 11.285156 L 19.265625 11.285156 C 19.433594 11.289062 19.578125 11.140625 19.574219 10.972656 C 19.558594 9.960938 19.4375 8.15625 18.78125 7.460938 C 17.660156 6.269531 15.910156 6.257812 15.839844 6.257812 L 14.03125 6.257812 C 13.957031 6.257812 12.210938 6.269531 11.089844 7.460938 C 10.433594 8.15625 10.3125 9.960938 10.296875 10.972656 C 10.292969 11.140625 10.4375 11.289062 10.605469 11.285156 Z M 11.535156 7.886719 C 12.472656 6.890625 14.015625 6.871094 14.03125 6.871094 L 15.835938 6.871094 C 15.851562 6.871094 17.394531 6.890625 18.335938 7.886719 C 18.671875 8.242188 18.902344 9.296875 18.949219 10.667969 L 10.917969 10.667969 C 10.96875 9.296875 11.195312 8.242188 11.535156 7.886719 Z M 11.535156 7.886719 " fill-opacity="1" fill-rule="nonzero"/><path fill="#31ac7d" d="M 20.472656 10.363281 L 22.9375 10.363281 L 22.9375 12.386719 L 22.375 11.824219 C 22.089844 11.542969 21.652344 11.976562 21.9375 12.261719 C 21.9375 12.261719 23.027344 13.347656 23.027344 13.347656 C 23.082031 13.40625 23.160156 13.4375 23.242188 13.4375 C 23.324219 13.4375 23.402344 13.40625 23.460938 13.347656 C 23.460938 13.347656 24.546875 12.261719 24.546875 12.261719 C 24.832031 11.976562 24.398438 11.542969 24.113281 11.824219 C 24.113281 11.824219 23.550781 12.386719 23.550781 12.386719 L 23.550781 10.054688 C 23.550781 9.882812 23.414062 9.746094 23.242188 9.746094 L 20.472656 9.746094 C 20.070312 9.753906 20.070312 10.355469 20.472656 10.363281 Z M 20.472656 10.363281 " fill-opacity="1" fill-rule="nonzero"/><path fill="#31ac7d" d="M 22.9375 22.363281 C 22.765625 22.363281 22.628906 22.5 22.628906 22.671875 L 22.628906 24.210938 L 20.292969 24.210938 L 20.855469 23.644531 C 21.140625 23.363281 20.707031 22.925781 20.421875 23.210938 C 20.421875 23.210938 19.332031 24.300781 19.332031 24.300781 C 19.246094 24.382812 19.21875 24.523438 19.265625 24.632812 C 19.28125 24.671875 19.304688 24.707031 19.332031 24.734375 L 20.421875 25.824219 C 20.707031 26.105469 21.140625 25.671875 20.855469 25.386719 C 20.855469 25.386719 20.292969 24.824219 20.292969 24.824219 L 22.9375 24.824219 C 23.105469 24.824219 23.242188 24.6875 23.242188 24.515625 L 23.242188 22.671875 C 23.242188 22.5 23.105469 22.363281 22.9375 22.363281 Z M 22.9375 22.363281 " fill-opacity="1" fill-rule="nonzero"/><path fill="#31ac7d" d="M 10.601562 24.398438 C 10.585938 24.363281 10.566406 24.328125 10.535156 24.300781 L 9.449219 23.210938 C 9.164062 22.929688 8.730469 23.359375 9.015625 23.648438 C 9.015625 23.648438 9.578125 24.210938 9.578125 24.210938 L 7.242188 24.210938 L 7.242188 22.671875 C 7.234375 22.265625 6.632812 22.265625 6.628906 22.671875 C 6.628906 22.671875 6.628906 24.515625 6.628906 24.515625 C 6.628906 24.6875 6.765625 24.824219 6.933594 24.824219 L 9.578125 24.824219 L 9.015625 25.386719 C 8.730469 25.671875 9.164062 26.105469 9.449219 25.824219 C 9.449219 25.824219 10.535156 24.734375 10.535156 24.734375 C 10.625 24.648438 10.652344 24.511719 10.601562 24.398438 Z M 10.601562 24.398438 " fill-opacity="1" fill-rule="nonzero"/><path fill="#31ac7d" d="M 18.910156 17.015625 C 18.894531 16.976562 18.875 16.941406 18.84375 16.914062 L 17.757812 15.824219 C 17.472656 15.542969 17.039062 15.976562 17.324219 16.261719 C 17.324219 16.261719 17.886719 16.824219 17.886719 16.824219 L 11.984375 16.824219 L 12.546875 16.261719 C 12.832031 15.976562 12.398438 15.542969 12.113281 15.824219 C 12.113281 15.824219 11.023438 16.914062 11.023438 16.914062 C 10.9375 17 10.910156 17.136719 10.957031 17.25 C 10.972656 17.285156 10.996094 17.320312 11.023438 17.347656 L 12.113281 18.4375 C 12.398438 18.71875 12.832031 18.289062 12.546875 18 C 12.546875 18 11.984375 17.4375 11.984375 17.4375 L 17.886719 17.4375 L 17.324219 18 C 17.039062 18.289062 17.472656 18.71875 17.757812 18.4375 C 17.757812 18.4375 18.84375 17.347656 18.84375 17.347656 C 18.929688 17.265625 18.960938 17.125 18.910156 17.011719 Z M 18.910156 17.015625 " fill-opacity="1" fill-rule="nonzero"/><path fill="#31ac7d" d="M 6.410156 13.347656 C 6.523438 13.46875 6.730469 13.46875 6.84375 13.347656 C 6.84375 13.347656 7.933594 12.261719 7.933594 12.261719 C 8.214844 11.976562 7.78125 11.542969 7.496094 11.824219 C 7.496094 11.824219 6.933594 12.390625 6.933594 12.390625 L 6.933594 10.363281 L 9.394531 10.363281 C 9.800781 10.355469 9.800781 9.753906 9.394531 9.746094 C 9.394531 9.746094 6.625 9.746094 6.625 9.746094 C 6.457031 9.746094 6.320312 9.882812 6.320312 10.054688 L 6.320312 12.390625 L 5.757812 11.824219 C 5.472656 11.542969 5.039062 11.976562 5.320312 12.261719 C 5.320312 12.261719 6.410156 13.347656 6.410156 13.347656 Z M 6.410156 13.347656 " fill-opacity="1" fill-rule="nonzero"/><g clip-path="url(#e15099d3ea)"><path fill="#31ac7d" d="M 26.546875 18.683594 L 26.011719 18.371094 C 26.0625 18.058594 26.0625 17.734375 26.011719 17.417969 L 26.546875 17.109375 C 26.695312 17.023438 26.746094 16.835938 26.660156 16.6875 L 25.925781 15.414062 C 25.886719 15.34375 25.816406 15.292969 25.738281 15.269531 C 25.5625 15.199219 25.21875 15.488281 24.96875 15.613281 C 24.84375 15.507812 24.710938 15.414062 24.578125 15.335938 C 24.441406 15.257812 24.296875 15.191406 24.144531 15.132812 L 24.144531 14.515625 C 24.144531 14.34375 24.003906 14.207031 23.835938 14.207031 L 22.363281 14.207031 C 22.195312 14.207031 22.058594 14.34375 22.058594 14.515625 L 22.058594 15.132812 C 21.757812 15.246094 21.476562 15.410156 21.230469 15.609375 L 20.695312 15.300781 C 20.546875 15.214844 20.359375 15.265625 20.273438 15.414062 L 19.539062 16.6875 C 19.453125 16.835938 19.503906 17.023438 19.652344 17.105469 L 20.1875 17.417969 C 20.136719 17.730469 20.136719 18.054688 20.1875 18.371094 L 19.652344 18.679688 C 19.503906 18.765625 19.453125 18.953125 19.539062 19.101562 L 20.273438 20.375 C 20.359375 20.523438 20.546875 20.570312 20.695312 20.488281 L 21.230469 20.175781 C 21.484375 20.386719 21.75 20.539062 22.058594 20.65625 L 22.058594 21.273438 C 22.058594 21.445312 22.195312 21.582031 22.363281 21.582031 L 23.835938 21.582031 C 24.003906 21.582031 24.140625 21.445312 24.140625 21.273438 L 24.140625 20.65625 C 24.441406 20.542969 24.722656 20.378906 24.96875 20.179688 L 25.507812 20.488281 C 25.652344 20.570312 25.839844 20.523438 25.925781 20.375 L 26.660156 19.101562 C 26.746094 18.953125 26.695312 18.765625 26.546875 18.683594 Z M 25.367188 17.335938 C 25.457031 17.703125 25.457031 18.089844 25.367188 18.453125 C 25.335938 18.585938 25.394531 18.726562 25.511719 18.792969 L 25.972656 19.0625 L 25.546875 19.800781 L 25.085938 19.535156 C 24.96875 19.464844 24.816406 19.484375 24.71875 19.578125 C 24.449219 19.839844 24.113281 20.035156 23.75 20.140625 C 23.617188 20.175781 23.527344 20.296875 23.527344 20.433594 L 23.527344 20.96875 L 22.671875 20.96875 L 22.671875 20.433594 C 22.660156 20.0625 22.152344 20.101562 21.929688 19.917969 C 21.660156 19.820312 21.441406 19.359375 21.113281 19.535156 C 21.113281 19.535156 20.652344 19.800781 20.652344 19.800781 L 20.226562 19.0625 L 20.6875 18.792969 C 20.804688 18.726562 20.863281 18.585938 20.832031 18.453125 C 20.742188 18.085938 20.742188 17.699219 20.832031 17.335938 C 20.863281 17.203125 20.804688 17.0625 20.6875 16.996094 L 20.226562 16.726562 L 20.652344 15.988281 L 21.113281 16.253906 C 21.234375 16.324219 21.382812 16.304688 21.480469 16.210938 C 21.753906 15.949219 22.085938 15.757812 22.449219 15.652344 C 22.582031 15.613281 22.671875 15.492188 22.671875 15.355469 L 22.671875 14.824219 L 23.527344 14.824219 L 23.527344 15.355469 C 23.542969 15.726562 24.046875 15.6875 24.269531 15.871094 C 24.539062 15.96875 24.757812 16.429688 25.085938 16.257812 C 25.085938 16.257812 25.546875 15.988281 25.546875 15.988281 L 25.972656 16.730469 L 25.511719 16.996094 C 25.394531 17.0625 25.335938 17.203125 25.367188 17.335938 Z M 25.367188 17.335938 " fill-opacity="1" fill-rule="nonzero"/></g><path fill="#31ac7d" d="M 14.933594 21.132812 C 13.070312 21.132812 11.550781 22.652344 11.550781 24.515625 C 11.734375 29.007812 18.132812 29.007812 18.320312 24.515625 C 18.320312 22.652344 16.800781 21.132812 14.933594 21.132812 Z M 14.933594 27.285156 C 13.40625 27.285156 12.164062 26.042969 12.164062 24.515625 C 12.316406 20.84375 17.554688 20.84375 17.703125 24.515625 C 17.703125 26.042969 16.460938 27.285156 14.933594 27.285156 Z M 14.933594 27.285156 " fill-opacity="1" fill-rule="nonzero"/><path fill="#31ac7d" d="M 16.027344 23.425781 L 14.460938 24.992188 L 13.730469 24.261719 C 13.445312 23.980469 13.011719 24.410156 13.296875 24.695312 C 13.296875 24.695312 14.242188 25.644531 14.242188 25.644531 C 14.304688 25.703125 14.382812 25.734375 14.460938 25.734375 C 14.539062 25.734375 14.617188 25.703125 14.679688 25.644531 L 16.460938 23.863281 C 16.742188 23.578125 16.3125 23.144531 16.027344 23.425781 Z M 16.027344 23.425781 " fill-opacity="1" fill-rule="nonzero"/><g clip-path="url(#f66f691bd7)"><path fill="#31ac7d" d="M 8.78125 21.132812 L 8.78125 20.207031 L 9.703125 20.207031 C 9.875 20.207031 10.011719 20.070312 10.011719 19.902344 L 10.011719 14.363281 C 10.011719 14.191406 9.875 14.054688 9.703125 14.054688 L 4.78125 14.054688 C 4.609375 14.054688 4.472656 14.191406 4.472656 14.363281 L 4.472656 15.285156 L 3.550781 15.285156 C 3.378906 15.285156 3.242188 15.421875 3.242188 15.59375 L 3.242188 21.132812 C 3.242188 21.300781 3.378906 21.441406 3.550781 21.441406 L 8.472656 21.441406 C 8.644531 21.441406 8.78125 21.300781 8.78125 21.132812 Z M 5.089844 14.671875 L 9.394531 14.671875 L 9.394531 19.59375 L 5.089844 19.59375 Z M 3.855469 20.824219 L 3.855469 15.902344 L 4.472656 15.902344 L 4.472656 19.902344 C 4.472656 20.070312 4.609375 20.207031 4.78125 20.207031 L 8.164062 20.207031 L 8.164062 20.824219 Z M 3.855469 20.824219 " fill-opacity="1" fill-rule="nonzero"/></g><path fill="#31ac7d" d="M 6.011719 16.207031 L 8.472656 16.207031 C 8.875 16.203125 8.878906 15.601562 8.472656 15.59375 C 8.472656 15.59375 6.011719 15.59375 6.011719 15.59375 C 5.609375 15.601562 5.605469 16.203125 6.011719 16.207031 Z M 6.011719 16.207031 " fill-opacity="1" fill-rule="nonzero"/><path fill="#31ac7d" d="M 6.011719 17.4375 L 8.472656 17.4375 C 8.875 17.433594 8.878906 16.832031 8.472656 16.824219 C 8.472656 16.824219 6.011719 16.824219 6.011719 16.824219 C 5.609375 16.832031 5.605469 17.433594 6.011719 17.4375 Z M 6.011719 17.4375 " fill-opacity="1" fill-rule="nonzero"/><path fill="#31ac7d" d="M 6.011719 18.671875 L 7.550781 18.671875 C 7.953125 18.664062 7.953125 18.0625 7.550781 18.054688 C 7.550781 18.054688 6.011719 18.054688 6.011719 18.054688 C 5.605469 18.0625 5.605469 18.664062 6.011719 18.671875 Z M 6.011719 18.671875 " fill-opacity="1" fill-rule="nonzero"/><path fill="#31ac7d" d="M 14.933594 5.746094 C 16.292969 5.746094 17.398438 4.640625 17.398438 3.285156 C 17.261719 0.0195312 12.609375 0.0195312 12.472656 3.285156 C 12.472656 4.640625 13.578125 5.746094 14.933594 5.746094 Z M 14.933594 1.4375 C 15.953125 1.4375 16.78125 2.265625 16.78125 3.285156 C 16.695312 5.726562 13.175781 5.726562 13.089844 3.285156 C 13.089844 2.265625 13.917969 1.4375 14.933594 1.4375 Z M 14.933594 1.4375 " fill-opacity="1" fill-rule="nonzero"/><path fill="#31ac7d" d="M 23.101562 16.519531 C 21.28125 16.578125 21.285156 19.210938 23.101562 19.269531 C 24.917969 19.210938 24.914062 16.578125 23.101562 16.519531 Z M 23.101562 18.652344 C 22.097656 18.628906 22.097656 17.160156 23.101562 17.136719 C 24.101562 17.160156 24.101562 18.628906 23.101562 18.652344 Z M 23.101562 18.652344 " fill-opacity="1" fill-rule="nonzero"/></svg>