<svg xmlns="http://www.w3.org/2000/svg" xmlns:xlink="http://www.w3.org/1999/xlink" width="40" zoomAndPan="magnify" viewBox="0 0 30 30.000001" height="40" preserveAspectRatio="xMidYMid meet" version="1.0"><defs><clipPath id="0f0335d41c"><path d="M 24 0.273438 L 26 0.273438 L 26 2 L 24 2 Z M 24 0.273438 " clip-rule="nonzero"/></clipPath><clipPath id="e4b8aa5ea4"><path d="M 0.484375 5 L 5 5 L 5 8 L 0.484375 8 Z M 0.484375 5 " clip-rule="nonzero"/></clipPath><clipPath id="6f63e520c4"><path d="M 18 17 L 29.515625 17 L 29.515625 28.578125 L 18 28.578125 Z M 18 17 " clip-rule="nonzero"/></clipPath><clipPath id="123dcd7f41"><path d="M 0.484375 27 L 21 27 L 21 28.578125 L 0.484375 28.578125 Z M 0.484375 27 " clip-rule="nonzero"/></clipPath><clipPath id="8f720239e8"><path d="M 0.484375 7 L 14 7 L 14 16 L 0.484375 16 Z M 0.484375 7 " clip-rule="nonzero"/></clipPath></defs><path fill="#31ac7d" d="M 24.917969 2.816406 C 25.761719 2.816406 26.445312 3.5 26.445312 4.34375 C 26.445312 5.183594 25.761719 5.867188 24.917969 5.867188 C 24.078125 5.867188 23.394531 5.183594 23.394531 4.34375 C 23.394531 3.5 24.078125 2.816406 24.917969 2.816406 " fill-opacity="1" fill-rule="nonzero"/><g clip-path="url(#0f0335d41c)"><path fill="#31ac7d" d="M 25.429688 0.273438 L 24.410156 0.273438 L 24.410156 1.289062 L 25.429688 1.289062 L 25.429688 0.273438 " fill-opacity="1" fill-rule="nonzero"/></g><path fill="#31ac7d" d="M 23.121094 1.824219 L 22.402344 1.105469 L 21.683594 1.824219 L 22.402344 2.542969 L 23.121094 1.824219 " fill-opacity="1" fill-rule="nonzero"/><path fill="#31ac7d" d="M 26.71875 6.859375 L 27.4375 7.578125 L 28.15625 6.859375 L 27.4375 6.140625 L 26.71875 6.859375 " fill-opacity="1" fill-rule="nonzero"/><path fill="#31ac7d" d="M 28.15625 1.824219 L 27.4375 1.105469 L 26.71875 1.824219 L 27.4375 2.542969 L 28.15625 1.824219 " fill-opacity="1" fill-rule="nonzero"/><path fill="#31ac7d" d="M 22.402344 7.578125 L 23.121094 6.859375 L 22.402344 6.140625 L 21.683594 6.859375 L 22.402344 7.578125 " fill-opacity="1" fill-rule="nonzero"/><path fill="#31ac7d" d="M 21.867188 3.832031 L 20.851562 3.832031 L 20.851562 4.851562 L 21.867188 4.851562 L 21.867188 3.832031 " fill-opacity="1" fill-rule="nonzero"/><path fill="#31ac7d" d="M 28.988281 3.832031 L 27.972656 3.832031 L 27.972656 4.851562 L 28.988281 4.851562 L 28.988281 3.832031 " fill-opacity="1" fill-rule="nonzero"/><g clip-path="url(#e4b8aa5ea4)"><path fill="#31ac7d" d="M 1.265625 6.886719 L 2.027344 6.886719 C 2.308594 6.886719 2.535156 6.65625 2.535156 6.375 C 2.535156 6.09375 2.652344 5.828125 2.859375 5.636719 C 3.0625 5.441406 3.335938 5.34375 3.621094 5.359375 C 4.121094 5.394531 4.539062 5.808594 4.570312 6.3125 C 4.585938 6.597656 4.488281 6.867188 4.296875 7.074219 C 4.101562 7.28125 3.835938 7.394531 3.554688 7.394531 L 0.546875 7.394531 C 0.648438 7.097656 0.933594 6.886719 1.265625 6.886719 " fill-opacity="1" fill-rule="nonzero"/></g><path fill="#31ac7d" d="M 14.492188 3.832031 L 15.253906 3.832031 C 15.535156 3.832031 15.761719 3.605469 15.761719 3.324219 C 15.761719 3.039062 15.878906 2.777344 16.085938 2.582031 C 16.289062 2.386719 16.5625 2.292969 16.847656 2.308594 C 17.347656 2.339844 17.765625 2.757812 17.796875 3.257812 C 17.8125 3.542969 17.714844 3.8125 17.523438 4.019531 C 17.328125 4.226562 17.0625 4.34375 16.78125 4.34375 L 13.773438 4.34375 C 13.875 4.046875 14.160156 3.832031 14.492188 3.832031 " fill-opacity="1" fill-rule="nonzero"/><path fill="#31ac7d" d="M 25.429688 7.394531 L 24.410156 7.394531 L 24.410156 8.410156 L 25.429688 8.410156 L 25.429688 7.394531 " fill-opacity="1" fill-rule="nonzero"/><path fill="#31ac7d" d="M 15.761719 9.9375 L 14.746094 9.9375 L 14.746094 11.464844 L 15.761719 11.464844 L 15.761719 9.9375 " fill-opacity="1" fill-rule="nonzero"/><path fill="#31ac7d" d="M 17.796875 9.9375 L 16.78125 9.9375 L 16.78125 11.464844 L 17.796875 11.464844 L 17.796875 9.9375 " fill-opacity="1" fill-rule="nonzero"/><path fill="#31ac7d" d="M 14.746094 14.515625 L 14.746094 15.023438 L 23.902344 15.023438 L 23.902344 14.609375 L 21.519531 8.410156 L 20.851562 8.410156 L 20.851562 11.972656 C 20.851562 12.253906 20.621094 12.480469 20.339844 12.480469 L 14.238281 12.480469 C 13.957031 12.480469 13.726562 12.253906 13.726562 11.972656 L 13.726562 8.410156 L 9.570312 8.410156 L 14.621094 14.179688 C 14.699219 14.273438 14.746094 14.394531 14.746094 14.515625 " fill-opacity="1" fill-rule="nonzero"/><path fill="#31ac7d" d="M 7.113281 17.570312 L 5.082031 17.570312 L 5.082031 16.550781 L 7.113281 16.550781 Z M 22.886719 16.628906 L 22.886719 16.042969 L 1.519531 16.042969 L 1.519531 26.726562 L 2.535156 26.726562 L 2.535156 18.585938 C 2.535156 18.304688 2.765625 18.078125 3.046875 18.078125 L 9.148438 18.078125 C 9.429688 18.078125 9.660156 18.304688 9.660156 18.585938 L 9.660156 26.726562 L 18.332031 26.726562 C 18.125 26.402344 17.945312 26.0625 17.796875 25.707031 L 11.183594 25.707031 C 10.902344 25.707031 10.675781 25.480469 10.675781 25.199219 L 10.675781 18.585938 C 10.675781 18.304688 10.902344 18.078125 11.183594 18.078125 L 18.304688 18.078125 C 18.585938 18.078125 18.816406 18.304688 18.816406 18.585938 L 18.816406 18.941406 C 19.824219 17.730469 21.257812 16.882812 22.886719 16.628906 " fill-opacity="1" fill-rule="nonzero"/><path fill="#31ac7d" d="M 17.796875 7.394531 L 16.78125 7.394531 L 16.78125 8.921875 L 17.796875 8.921875 L 17.796875 7.394531 " fill-opacity="1" fill-rule="nonzero"/><g clip-path="url(#6f63e520c4)"><path fill="#31ac7d" d="M 26.871094 22.429688 L 23.816406 27.007812 C 23.722656 27.152344 23.5625 27.234375 23.394531 27.234375 C 23.34375 27.234375 23.296875 27.226562 23.246094 27.210938 C 23.03125 27.148438 22.886719 26.949219 22.886719 26.726562 L 22.886719 24.183594 L 20.851562 24.183594 C 20.652344 24.183594 20.46875 24.066406 20.386719 23.882812 C 20.304688 23.703125 20.335938 23.488281 20.46875 23.335938 L 24.027344 19.269531 C 24.167969 19.109375 24.390625 19.050781 24.589844 19.128906 C 24.789062 19.203125 24.917969 19.390625 24.917969 19.601562 L 24.917969 21.636719 L 26.445312 21.636719 C 26.632812 21.636719 26.804688 21.742188 26.894531 21.90625 C 26.984375 22.070312 26.972656 22.273438 26.871094 22.429688 Z M 23.902344 17.570312 C 20.816406 17.570312 18.304688 20.078125 18.304688 23.164062 C 18.304688 26.25 20.816406 28.761719 23.902344 28.761719 C 26.988281 28.761719 29.5 26.25 29.5 23.164062 C 29.5 20.078125 26.988281 17.570312 23.902344 17.570312 " fill-opacity="1" fill-rule="nonzero"/></g><path fill="#31ac7d" d="M 19.832031 7.394531 L 18.816406 7.394531 L 18.816406 8.921875 L 19.832031 8.921875 L 19.832031 7.394531 " fill-opacity="1" fill-rule="nonzero"/><path fill="#31ac7d" d="M 17.796875 19.09375 L 15.253906 19.09375 L 15.253906 24.691406 L 17.46875 24.691406 C 17.351562 24.199219 17.289062 23.6875 17.289062 23.164062 C 17.289062 22.261719 17.46875 21.402344 17.796875 20.621094 L 17.796875 19.09375 " fill-opacity="1" fill-rule="nonzero"/><path fill="#31ac7d" d="M 19.832031 9.9375 L 18.816406 9.9375 L 18.816406 11.464844 L 19.832031 11.464844 L 19.832031 9.9375 " fill-opacity="1" fill-rule="nonzero"/><path fill="#31ac7d" d="M 15.761719 7.394531 L 14.746094 7.394531 L 14.746094 8.921875 L 15.761719 8.921875 L 15.761719 7.394531 " fill-opacity="1" fill-rule="nonzero"/><g clip-path="url(#123dcd7f41)"><path fill="#31ac7d" d="M 19.132812 27.742188 L 0.5 27.742188 L 0.5 28.761719 L 20.382812 28.761719 C 19.925781 28.472656 19.507812 28.128906 19.132812 27.742188 " fill-opacity="1" fill-rule="nonzero"/></g><path fill="#31ac7d" d="M 7.113281 10.957031 C 6.835938 10.957031 6.605469 11.183594 6.605469 11.464844 L 6.605469 12.988281 L 7.625 12.988281 L 7.625 11.464844 C 7.625 11.183594 7.394531 10.957031 7.113281 10.957031 " fill-opacity="1" fill-rule="nonzero"/><g clip-path="url(#8f720239e8)"><path fill="#31ac7d" d="M 9.660156 14.007812 L 4.570312 14.007812 L 4.570312 12.988281 L 5.589844 12.988281 L 5.589844 11.464844 C 5.589844 10.621094 6.273438 9.9375 7.113281 9.9375 C 7.957031 9.9375 8.640625 10.621094 8.640625 11.464844 L 8.640625 12.988281 L 9.660156 12.988281 Z M 13.726562 14.707031 L 8.21875 8.410156 L 8.132812 8.410156 L 8.132812 8.3125 L 7.113281 7.148438 L 0.5 14.707031 L 0.5 15.023438 L 13.726562 15.023438 L 13.726562 14.707031 " fill-opacity="1" fill-rule="nonzero"/></g><path fill="#31ac7d" d="M 23.902344 22.148438 L 23.902344 20.957031 L 21.972656 23.164062 L 23.394531 23.164062 C 23.675781 23.164062 23.902344 23.390625 23.902344 23.671875 L 23.902344 25.046875 L 25.496094 22.65625 L 24.410156 22.65625 C 24.128906 22.65625 23.902344 22.429688 23.902344 22.148438 " fill-opacity="1" fill-rule="nonzero"/><path fill="#31ac7d" d="M 8.640625 26.726562 L 8.640625 19.09375 L 6.605469 19.09375 L 6.605469 26.726562 L 8.640625 26.726562 " fill-opacity="1" fill-rule="nonzero"/><path fill="#31ac7d" d="M 5.589844 26.726562 L 5.589844 19.09375 L 3.554688 19.09375 L 3.554688 26.726562 L 5.589844 26.726562 " fill-opacity="1" fill-rule="nonzero"/><path fill="#31ac7d" d="M 14.238281 24.691406 L 14.238281 19.09375 L 11.695312 19.09375 L 11.695312 24.691406 L 14.238281 24.691406 " fill-opacity="1" fill-rule="nonzero"/></svg>