<svg xmlns="http://www.w3.org/2000/svg" xmlns:xlink="http://www.w3.org/1999/xlink" width="40" zoomAndPan="magnify" viewBox="0 0 30 30.000001" height="40" preserveAspectRatio="xMidYMid meet" version="1.0"><defs><clipPath id="6e48000018"><path d="M 0.738281 0 L 29.515625 0 L 29.515625 29 L 0.738281 29 Z M 0.738281 0 " clip-rule="nonzero"/></clipPath></defs><g clip-path="url(#6e48000018)"><path fill="#31ac7d" d="M 14.453125 3.269531 C 14.214844 3.269531 14.023438 3.078125 14.023438 2.835938 C 14.023438 2.601562 14.214844 2.40625 14.453125 2.40625 L 15.582031 2.40625 C 15.824219 2.40625 16.015625 2.601562 16.015625 2.835938 C 16.015625 3.078125 15.824219 3.269531 15.582031 3.269531 Z M 14.453125 12.480469 C 14.214844 12.480469 14.023438 12.289062 14.023438 12.050781 C 14.023438 11.8125 14.214844 11.617188 14.453125 11.617188 L 19.097656 11.617188 C 19.332031 11.617188 19.527344 11.8125 19.527344 12.050781 C 19.527344 12.289062 19.332031 12.480469 19.097656 12.480469 Z M 20.722656 12.480469 C 20.484375 12.480469 20.292969 12.289062 20.292969 12.050781 C 20.292969 11.8125 20.484375 11.617188 20.722656 11.617188 L 21.664062 11.617188 C 21.902344 11.617188 22.09375 11.8125 22.09375 12.050781 C 22.09375 12.289062 21.902344 12.480469 21.664062 12.480469 Z M 14.453125 10.640625 C 14.214844 10.640625 14.023438 10.445312 14.023438 10.207031 C 14.023438 9.96875 14.214844 9.773438 14.453125 9.773438 L 15.347656 9.773438 C 15.585938 9.773438 15.78125 9.96875 15.78125 10.207031 C 15.78125 10.445312 15.585938 10.640625 15.347656 10.640625 Z M 16.976562 10.640625 C 16.738281 10.640625 16.542969 10.445312 16.542969 10.207031 C 16.542969 9.96875 16.738281 9.773438 16.976562 9.773438 L 21.664062 9.773438 C 21.902344 9.773438 22.09375 9.96875 22.09375 10.207031 C 22.09375 10.445312 21.902344 10.640625 21.664062 10.640625 Z M 14.453125 8.796875 C 14.214844 8.796875 14.023438 8.601562 14.023438 8.367188 C 14.023438 8.128906 14.214844 7.933594 14.453125 7.933594 L 19.097656 7.933594 C 19.332031 7.933594 19.527344 8.128906 19.527344 8.367188 C 19.527344 8.605469 19.332031 8.796875 19.097656 8.796875 Z M 20.636719 8.796875 C 20.398438 8.796875 20.207031 8.601562 20.207031 8.367188 C 20.207031 8.128906 20.398438 7.933594 20.636719 7.933594 L 21.664062 7.933594 C 21.902344 7.933594 22.09375 8.128906 22.09375 8.367188 C 22.09375 8.605469 21.902344 8.796875 21.664062 8.796875 Z M 14.453125 6.957031 C 14.214844 6.957031 14.023438 6.761719 14.023438 6.523438 C 14.023438 6.285156 14.214844 6.089844 14.453125 6.089844 L 15.582031 6.089844 C 15.824219 6.089844 16.015625 6.285156 16.015625 6.523438 C 16.015625 6.761719 15.824219 6.957031 15.582031 6.957031 Z M 16.976562 6.957031 C 16.738281 6.957031 16.542969 6.761719 16.542969 6.523438 C 16.542969 6.285156 16.738281 6.089844 16.976562 6.089844 L 21.664062 6.089844 C 21.902344 6.089844 22.09375 6.285156 22.09375 6.523438 C 22.09375 6.761719 21.902344 6.957031 21.664062 6.957031 Z M 14.453125 5.113281 C 14.214844 5.113281 14.023438 4.917969 14.023438 4.679688 C 14.023438 4.441406 14.214844 4.25 14.453125 4.25 L 19.074219 4.25 C 19.3125 4.25 19.507812 4.441406 19.507812 4.679688 C 19.507812 4.917969 19.3125 5.113281 19.074219 5.113281 Z M 20.636719 5.113281 C 20.398438 5.113281 20.207031 4.917969 20.207031 4.679688 C 20.207031 4.441406 20.398438 4.25 20.636719 4.25 L 21.664062 4.25 C 21.902344 4.25 22.09375 4.441406 22.09375 4.679688 C 22.09375 4.917969 21.902344 5.113281 21.664062 5.113281 Z M 16.867188 3.269531 C 16.628906 3.269531 16.4375 3.078125 16.4375 2.835938 C 16.4375 2.601562 16.628906 2.40625 16.867188 2.40625 L 21.664062 2.40625 C 21.902344 2.40625 22.09375 2.601562 22.09375 2.835938 C 22.09375 3.078125 21.902344 3.269531 21.664062 3.269531 Z M 5.574219 23.820312 C 5.4375 24.015625 5.167969 24.058594 4.972656 23.917969 C 4.78125 23.777344 4.738281 23.507812 4.878906 23.3125 C 5.382812 22.621094 6.417969 22.621094 6.925781 23.3125 C 7.0625 23.507812 7.019531 23.777344 6.828125 23.917969 C 6.636719 24.058594 6.363281 24.015625 6.226562 23.820312 C 6.066406 23.601562 5.734375 23.601562 5.574219 23.820312 Z M 5.125 22.949219 C 4.984375 23.144531 4.714844 23.183594 4.519531 23.042969 C 4.328125 22.902344 4.285156 22.636719 4.425781 22.441406 C 5.152344 21.4375 6.648438 21.4375 7.375 22.441406 C 7.515625 22.636719 7.472656 22.902344 7.277344 23.042969 C 7.085938 23.183594 6.816406 23.144531 6.675781 22.949219 C 6.296875 22.421875 5.503906 22.421875 5.125 22.949219 Z M 4.621094 21.90625 C 4.480469 22.097656 4.210938 22.140625 4.015625 22 C 3.824219 21.859375 3.78125 21.589844 3.921875 21.398438 C 4.894531 20.050781 6.902344 20.050781 7.878906 21.398438 C 8.019531 21.589844 7.976562 21.859375 7.78125 22 C 7.589844 22.140625 7.320312 22.097656 7.179688 21.90625 C 6.550781 21.035156 5.25 21.035156 4.621094 21.90625 Z M 3.300781 19.234375 L 3.917969 19.234375 L 3.917969 18.8125 L 1.601562 18.8125 L 1.601562 25.636719 L 3.917969 25.617188 L 3.917969 25.15625 L 3.300781 25.15625 C 2.925781 25.15625 2.617188 24.847656 2.617188 24.46875 L 2.617188 19.917969 C 2.617188 19.539062 2.925781 19.234375 3.300781 19.234375 Z M 4.785156 19.234375 L 6.925781 19.234375 L 6.925781 18.8125 L 4.785156 18.8125 Z M 7.792969 19.234375 L 8.496094 19.234375 C 8.875 19.234375 9.183594 19.539062 9.183594 19.917969 L 9.183594 24.46875 C 9.183594 24.84375 8.875 25.152344 8.496094 25.152344 L 7.792969 25.152344 L 7.792969 25.585938 L 12.804688 25.546875 C 12.867188 25.546875 12.925781 25.558594 12.976562 25.582031 C 13.550781 25.808594 14.148438 26.097656 14.757812 26.390625 C 16.679688 27.3125 18.75 28.308594 20.289062 27.519531 C 20.972656 27.167969 21.414062 26.1875 22.636719 25.921875 C 22.8125 25.882812 22.910156 25.707031 22.882812 25.578125 L 22.878906 25.578125 C 21.601562 25.515625 21.367188 25.652344 20.199219 26.28125 C 20.078125 26.347656 19.9375 26.347656 19.820312 26.296875 L 18.230469 25.660156 C 17.902344 25.527344 17.867188 25.09375 18.148438 24.902344 L 18.144531 24.902344 L 20.128906 23.554688 C 20.210938 23.496094 20.304688 23.472656 20.398438 23.480469 L 26.828125 23.484375 C 26.984375 23.484375 27.082031 23.019531 27.015625 22.746094 C 26.988281 22.636719 26.945312 22.550781 26.894531 22.550781 L 20.71875 22.550781 C 20.480469 22.550781 20.285156 22.355469 20.285156 22.117188 C 20.285156 21.878906 20.480469 21.683594 20.71875 21.683594 L 26.957031 21.683594 C 26.980469 21.683594 27.003906 21.6875 27.027344 21.6875 L 27.929688 21.6875 C 28.113281 21.648438 28.238281 21.542969 28.308594 21.414062 C 28.398438 21.234375 28.398438 20.996094 28.308594 20.820312 C 28.238281 20.6875 28.113281 20.585938 27.929688 20.542969 L 20.578125 20.542969 C 20.339844 20.542969 20.144531 20.347656 20.144531 20.113281 C 20.144531 19.875 20.339844 19.679688 20.578125 19.679688 L 26.757812 19.679688 C 26.890625 19.644531 26.980469 19.566406 27.035156 19.46875 C 27.109375 19.328125 27.109375 19.136719 27.035156 18.996094 C 26.980469 18.898438 26.890625 18.820312 26.757812 18.785156 L 24.914062 18.785156 C 24.882812 18.785156 24.855469 18.78125 24.824219 18.777344 L 20.550781 18.777344 C 20.3125 18.777344 20.117188 18.582031 20.117188 18.34375 C 20.117188 18.105469 20.3125 17.910156 20.550781 17.910156 L 25.019531 17.910156 C 25.234375 17.875 25.375 17.742188 25.4375 17.582031 L 25.441406 17.582031 L 25.4375 17.582031 C 25.585938 17.230469 25.4375 16.714844 24.914062 16.699219 L 17.890625 16.699219 C 17.613281 16.699219 17.386719 16.746094 17.136719 16.855469 L 12.714844 18.773438 C 12.660156 18.800781 12.601562 18.8125 12.542969 18.8125 L 7.792969 18.8125 Z M 6.925781 25.15625 L 4.785156 25.15625 L 4.785156 25.613281 L 6.925781 25.59375 Z M 8.320312 20.097656 L 3.480469 20.097656 L 3.480469 24.289062 C 5.09375 24.289062 6.707031 24.289062 8.320312 24.289062 Z M 7.429688 26.453125 L 1.210938 26.5 C 0.9375 26.515625 0.734375 26.320312 0.734375 26.070312 L 0.734375 18.378906 C 0.734375 18.140625 0.929688 17.949219 1.167969 17.949219 L 12.460938 17.949219 L 16.796875 16.0625 C 17.15625 15.90625 17.503906 15.835938 17.894531 15.835938 L 24.914062 15.835938 C 26.070312 15.84375 26.617188 17 26.238281 17.914062 L 26.234375 17.910156 L 26.230469 17.917969 L 26.800781 17.917969 L 26.800781 17.921875 C 26.824219 17.921875 26.851562 17.921875 26.878906 17.929688 C 27.730469 18.085938 28.136719 18.941406 27.878906 19.679688 L 27.96875 19.679688 C 27.992188 19.679688 28.015625 19.679688 28.039062 19.6875 C 29.085938 19.863281 29.507812 20.980469 29.070312 21.8125 C 28.882812 22.167969 28.546875 22.449219 28.070312 22.542969 L 27.851562 22.554688 C 28.03125 23.296875 27.699219 24.351562 26.820312 24.34375 L 20.503906 24.339844 L 19.300781 25.160156 L 19.96875 25.425781 C 21.195312 24.769531 21.53125 24.660156 22.917969 24.714844 C 24.046875 24.746094 24.035156 26.5 22.816406 26.765625 C 21.902344 26.964844 21.53125 27.847656 20.679688 28.285156 C 18.761719 29.269531 16.492188 28.175781 14.386719 27.164062 C 13.8125 26.890625 13.253906 26.621094 12.726562 26.410156 Z M 3.929688 6.699219 L 5.9375 6.699219 L 6.339844 5.207031 C 6.453125 4.78125 7.0625 4.78125 7.175781 5.210938 L 7.710938 7.207031 L 8.375 6.058594 C 8.566406 5.722656 9.066406 5.792969 9.164062 6.160156 L 9.511719 7.460938 L 11.226562 7.460938 C 12.007812 6.238281 12.65625 4.539062 11.570312 3.449219 C 11.214844 3.097656 10.726562 2.875 10.183594 2.875 C 9.117188 2.875 8.664062 3.453125 8.179688 4.429688 C 8.023438 4.746094 7.566406 4.75 7.410156 4.429688 C 6.921875 3.457031 6.472656 2.875 5.402344 2.875 C 4.324219 2.875 3.441406 3.753906 3.441406 4.835938 C 3.441406 5.449219 3.621094 6.070312 3.929688 6.699219 Z M 12.234375 7.460938 L 13.0625 7.460938 C 13.300781 7.460938 13.496094 7.65625 13.496094 7.890625 C 13.496094 8.132812 13.300781 8.324219 13.0625 8.324219 L 11.6875 8.324219 C 10.75 9.667969 9.425781 10.992188 8.101562 12.320312 C 7.929688 12.488281 7.65625 12.488281 7.488281 12.320312 C 5.035156 9.863281 2.578125 7.410156 2.578125 4.835938 C 2.578125 3.277344 3.84375 2.011719 5.402344 2.011719 C 6.523438 2.011719 7.226562 2.488281 7.792969 3.363281 C 8.363281 2.488281 9.066406 2.011719 10.183594 2.011719 C 11.742188 2.011719 13.007812 3.277344 13.007812 4.835938 C 13.011719 5.726562 12.71875 6.597656 12.234375 7.460938 Z M 10.617188 8.324219 L 9.183594 8.324219 C 8.992188 8.324219 8.816406 8.195312 8.765625 8.003906 L 8.601562 7.390625 L 7.945312 8.523438 C 7.75 8.886719 7.242188 8.804688 7.144531 8.4375 L 6.757812 6.988281 L 6.695312 7.21875 C 6.652344 7.414062 6.480469 7.5625 6.269531 7.5625 L 4.425781 7.5625 C 5.253906 8.828125 6.507812 10.113281 7.792969 11.402344 C 8.820312 10.371094 9.832031 9.34375 10.617188 8.324219 Z M 2.179688 0.0117188 L 22.902344 0.0117188 C 23.46875 0.0117188 23.933594 0.476562 23.933594 1.042969 L 23.933594 13.707031 C 23.933594 14.277344 23.46875 14.742188 22.902344 14.742188 L 14.761719 14.742188 C 14.15625 15.683594 13.324219 16.449219 12.359375 16.972656 C 11.335938 17.527344 10.15625 17.8125 8.933594 17.753906 C 8.515625 17.734375 8.359375 17.195312 8.71875 16.960938 C 9.496094 16.449219 10.082031 15.628906 10.34375 14.742188 L 2.179688 14.742188 C 1.609375 14.742188 1.144531 14.277344 1.144531 13.707031 L 1.144531 1.042969 C 1.144531 0.476562 1.609375 0.0117188 2.179688 0.0117188 Z M 22.902344 0.875 L 2.179688 0.875 C 2.085938 0.875 2.007812 0.953125 2.007812 1.042969 L 2.007812 13.707031 C 2.007812 13.800781 2.085938 13.875 2.179688 13.875 L 10.882812 13.875 L 10.882812 13.878906 C 11.148438 13.878906 11.355469 14.117188 11.308594 14.378906 C 11.164062 15.285156 10.765625 16.132812 10.164062 16.824219 C 10.796875 16.71875 11.398438 16.511719 11.949219 16.210938 C 12.84375 15.730469 13.601562 15.011719 14.132812 14.125 C 14.203125 13.980469 14.351562 13.875 14.523438 13.875 L 22.902344 13.875 C 22.992188 13.875 23.070312 13.800781 23.070312 13.707031 L 23.070312 1.042969 C 23.070312 0.953125 22.992188 0.875 22.902344 0.875 Z M 22.902344 0.875 " fill-opacity="1" fill-rule="nonzero"/></g></svg>