<svg xmlns="http://www.w3.org/2000/svg" xmlns:xlink="http://www.w3.org/1999/xlink" width="40" zoomAndPan="magnify" viewBox="0 0 30 30.000001" height="40" preserveAspectRatio="xMidYMid meet" version="1.0"><defs><clipPath id="6cbd86b092"><path d="M 23 12 L 29.515625 12 L 29.515625 19 L 23 19 Z M 23 12 " clip-rule="nonzero"/></clipPath><clipPath id="c6c4544ca7"><path d="M 0.484375 19 L 6 19 L 6 29.03125 L 0.484375 29.03125 Z M 0.484375 19 " clip-rule="nonzero"/></clipPath><clipPath id="a029244c3a"><path d="M 0.484375 4 L 9 4 L 9 6 L 0.484375 6 Z M 0.484375 4 " clip-rule="nonzero"/></clipPath><clipPath id="a2f1692861"><path d="M 24 22 L 29 22 L 29 29.03125 L 24 29.03125 Z M 24 22 " clip-rule="nonzero"/></clipPath><clipPath id="1a327735ce"><path d="M 28 22 L 29.515625 22 L 29.515625 25 L 28 25 Z M 28 22 " clip-rule="nonzero"/></clipPath></defs><path fill="#31ac7d" d="M 10.691406 2.269531 L 8.421875 2.269531 C 8.171875 2.269531 7.96875 2.472656 7.96875 2.722656 C 7.96875 2.972656 8.171875 3.175781 8.421875 3.175781 L 10.238281 3.175781 L 10.238281 8.574219 C 10.53125 8.347656 10.828125 8.121094 11.144531 7.9375 L 11.144531 2.722656 C 11.144531 2.472656 10.941406 2.269531 10.691406 2.269531 Z M 10.691406 2.269531 " fill-opacity="1" fill-rule="nonzero"/><path fill="#31ac7d" d="M 26.113281 21.773438 C 26.363281 21.773438 26.566406 21.570312 26.566406 21.320312 L 26.566406 20.1875 C 26.566406 19.9375 26.363281 19.734375 26.113281 19.734375 L 21.394531 19.734375 C 21.125 20.050781 20.851562 20.367188 20.535156 20.640625 L 25.660156 20.640625 L 25.660156 21.320312 C 25.660156 21.570312 25.863281 21.773438 26.113281 21.773438 Z M 26.113281 21.773438 " fill-opacity="1" fill-rule="nonzero"/><path fill="#31ac7d" d="M 12.503906 24.042969 L 12.503906 22.207031 C 12.1875 22.089844 11.894531 21.957031 11.597656 21.796875 L 11.597656 23.589844 L 6.835938 23.589844 C 6.585938 23.589844 6.382812 23.792969 6.382812 24.042969 C 6.382812 24.292969 6.585938 24.496094 6.835938 24.496094 L 12.050781 24.496094 C 12.300781 24.496094 12.503906 24.292969 12.503906 24.042969 Z M 12.503906 24.042969 " fill-opacity="1" fill-rule="nonzero"/><path fill="#31ac7d" d="M 9.625 11.75 C 9.785156 11.75 9.917969 11.679688 10.011719 11.523438 C 10.144531 11.316406 10.078125 11.023438 9.851562 10.886719 C 9.648438 10.75 9.351562 10.820312 9.214844 11.046875 C 9.082031 11.25 9.148438 11.542969 9.375 11.679688 C 9.441406 11.726562 9.535156 11.75 9.625 11.75 Z M 9.625 11.75 " fill-opacity="1" fill-rule="nonzero"/><path fill="#31ac7d" d="M 12.597656 20.800781 C 12.710938 20.570312 12.617188 20.300781 12.390625 20.1875 C 12.164062 20.074219 11.894531 20.164062 11.777344 20.367188 C 11.664062 20.59375 11.757812 20.867188 11.984375 20.980469 C 12.050781 21.027344 12.121094 21.027344 12.1875 21.027344 C 12.367188 21.027344 12.503906 20.933594 12.597656 20.800781 Z M 12.597656 20.800781 " fill-opacity="1" fill-rule="nonzero"/><path fill="#31ac7d" d="M 10.441406 9.59375 C 10.257812 9.777344 10.238281 10.046875 10.417969 10.230469 C 10.507812 10.320312 10.621094 10.367188 10.757812 10.367188 C 10.871094 10.367188 10.984375 10.320312 11.074219 10.253906 C 11.257812 10.070312 11.28125 9.796875 11.097656 9.617188 C 10.917969 9.433594 10.621094 9.414062 10.441406 9.59375 Z M 10.441406 9.59375 " fill-opacity="1" fill-rule="nonzero"/><path fill="#31ac7d" d="M 9.011719 12.496094 C 8.761719 12.429688 8.511719 12.566406 8.445312 12.816406 C 8.378906 13.066406 8.511719 13.3125 8.761719 13.382812 C 8.808594 13.382812 8.851562 13.40625 8.875 13.40625 C 9.082031 13.40625 9.261719 13.269531 9.308594 13.066406 C 9.398438 12.816406 9.261719 12.566406 9.011719 12.496094 Z M 9.011719 12.496094 " fill-opacity="1" fill-rule="nonzero"/><path fill="#31ac7d" d="M 17.289062 8.980469 C 17.335938 9.003906 17.382812 9.003906 17.449219 9.003906 C 17.632812 9.003906 17.8125 8.890625 17.878906 8.710938 C 17.972656 8.484375 17.835938 8.210938 17.609375 8.121094 C 17.382812 8.027344 17.109375 8.164062 17.019531 8.390625 C 16.929688 8.617188 17.0625 8.890625 17.289062 8.980469 Z M 17.289062 8.980469 " fill-opacity="1" fill-rule="nonzero"/><path fill="#31ac7d" d="M 12.234375 9.34375 C 12.300781 9.34375 12.367188 9.320312 12.4375 9.300781 C 12.664062 9.1875 12.753906 8.914062 12.640625 8.6875 C 12.527344 8.460938 12.253906 8.371094 12.027344 8.484375 C 11.800781 8.597656 11.710938 8.867188 11.824219 9.09375 C 11.894531 9.253906 12.050781 9.34375 12.234375 9.34375 Z M 12.234375 9.34375 " fill-opacity="1" fill-rule="nonzero"/><path fill="#31ac7d" d="M 17.5625 21.367188 C 17.789062 21.273438 17.925781 21.027344 17.835938 20.800781 C 17.746094 20.570312 17.496094 20.4375 17.269531 20.527344 C 17.042969 20.617188 16.90625 20.867188 16.996094 21.09375 C 17.0625 21.273438 17.246094 21.386719 17.425781 21.386719 C 17.472656 21.386719 17.519531 21.386719 17.5625 21.367188 Z M 17.5625 21.367188 " fill-opacity="1" fill-rule="nonzero"/><path fill="#31ac7d" d="M 13.796875 21.617188 C 13.820312 21.617188 13.867188 21.617188 13.886719 21.617188 C 14.09375 21.617188 14.296875 21.480469 14.34375 21.253906 C 14.386719 21.003906 14.230469 20.777344 13.980469 20.707031 C 13.730469 20.664062 13.503906 20.820312 13.433594 21.070312 C 13.390625 21.34375 13.546875 21.570312 13.796875 21.617188 Z M 13.796875 21.617188 " fill-opacity="1" fill-rule="nonzero"/><path fill="#31ac7d" d="M 20.851562 17.191406 C 20.761719 17.417969 20.851562 17.691406 21.078125 17.78125 C 21.148438 17.804688 21.191406 17.828125 21.261719 17.828125 C 21.441406 17.828125 21.601562 17.738281 21.667969 17.554688 C 21.757812 17.328125 21.667969 17.054688 21.441406 16.964844 C 21.214844 16.851562 20.941406 16.964844 20.851562 17.191406 Z M 20.851562 17.191406 " fill-opacity="1" fill-rule="nonzero"/><path fill="#31ac7d" d="M 20.671875 19.1875 C 20.828125 19.007812 20.804688 18.710938 20.601562 18.554688 C 20.421875 18.394531 20.125 18.417969 19.96875 18.621094 C 19.808594 18.824219 19.832031 19.097656 20.035156 19.257812 C 20.125 19.324219 20.214844 19.371094 20.332031 19.371094 C 20.445312 19.347656 20.578125 19.300781 20.671875 19.1875 Z M 20.671875 19.1875 " fill-opacity="1" fill-rule="nonzero"/><path fill="#31ac7d" d="M 21.691406 13.40625 C 21.441406 13.449219 21.261719 13.675781 21.304688 13.925781 C 21.328125 14.152344 21.53125 14.3125 21.757812 14.3125 C 21.78125 14.3125 21.804688 14.3125 21.828125 14.3125 C 22.078125 14.289062 22.257812 14.039062 22.210938 13.789062 C 22.167969 13.5625 21.941406 13.382812 21.691406 13.40625 Z M 21.691406 13.40625 " fill-opacity="1" fill-rule="nonzero"/><path fill="#31ac7d" d="M 21.691406 16.105469 C 21.714844 16.105469 21.738281 16.105469 21.757812 16.105469 C 21.984375 16.105469 22.167969 15.945312 22.210938 15.71875 C 22.234375 15.46875 22.078125 15.242188 21.828125 15.195312 C 21.578125 15.152344 21.351562 15.332031 21.304688 15.582031 C 21.261719 15.832031 21.441406 16.058594 21.691406 16.105469 Z M 21.691406 16.105469 " fill-opacity="1" fill-rule="nonzero"/><path fill="#31ac7d" d="M 16.113281 21.273438 C 16.089844 21.027344 15.882812 20.84375 15.636719 20.84375 C 15.386719 20.867188 15.203125 21.070312 15.203125 21.320312 C 15.226562 21.570312 15.410156 21.75 15.65625 21.75 C 15.679688 21.75 15.679688 21.75 15.679688 21.75 C 15.953125 21.75 16.132812 21.523438 16.113281 21.273438 Z M 16.113281 21.273438 " fill-opacity="1" fill-rule="nonzero"/><path fill="#31ac7d" d="M 13.910156 8.753906 C 13.933594 8.753906 13.980469 8.753906 14.003906 8.753906 C 14.25 8.710938 14.410156 8.460938 14.363281 8.210938 C 14.320312 7.960938 14.070312 7.800781 13.820312 7.847656 C 13.570312 7.894531 13.414062 8.144531 13.457031 8.390625 C 13.503906 8.597656 13.707031 8.753906 13.910156 8.753906 Z M 13.910156 8.753906 " fill-opacity="1" fill-rule="nonzero"/><path fill="#31ac7d" d="M 19.015625 20.570312 C 19.105469 20.570312 19.195312 20.550781 19.285156 20.480469 C 19.492188 20.34375 19.535156 20.050781 19.398438 19.847656 C 19.265625 19.640625 18.96875 19.597656 18.765625 19.734375 C 18.5625 19.867188 18.515625 20.164062 18.652344 20.367188 C 18.71875 20.503906 18.878906 20.570312 19.015625 20.570312 Z M 19.015625 20.570312 " fill-opacity="1" fill-rule="nonzero"/><path fill="#31ac7d" d="M 15.703125 8.640625 C 15.929688 8.640625 16.132812 8.460938 16.15625 8.210938 C 16.179688 7.960938 15.976562 7.734375 15.75 7.734375 C 15.5 7.710938 15.273438 7.914062 15.273438 8.144531 C 15.226562 8.390625 15.410156 8.617188 15.65625 8.640625 C 15.679688 8.640625 15.679688 8.640625 15.703125 8.640625 Z M 15.703125 8.640625 " fill-opacity="1" fill-rule="nonzero"/><path fill="#31ac7d" d="M 25.886719 7.710938 L 25.886719 5.898438 C 25.886719 5.648438 25.683594 5.445312 25.433594 5.445312 C 25.183594 5.445312 24.980469 5.648438 24.980469 5.898438 L 24.980469 7.257812 L 23.371094 7.257812 C 23.597656 7.53125 23.800781 7.824219 23.914062 8.164062 L 25.433594 8.164062 C 25.683594 8.164062 25.886719 7.960938 25.886719 7.710938 Z M 25.886719 7.710938 " fill-opacity="1" fill-rule="nonzero"/><path fill="#31ac7d" d="M 24.300781 11.773438 C 24.59375 11.476562 24.753906 11.070312 24.753906 10.660156 C 24.753906 9.777344 24.050781 9.074219 23.164062 9.074219 C 23.164062 8.074219 22.347656 7.257812 21.351562 7.257812 C 20.351562 7.257812 19.535156 8.074219 19.535156 9.074219 C 19.105469 9.074219 18.71875 9.230469 18.402344 9.550781 C 18.105469 9.84375 17.949219 10.253906 17.949219 10.660156 C 17.949219 11.542969 18.652344 12.246094 19.535156 12.246094 L 23.164062 12.246094 C 23.597656 12.246094 23.980469 12.089844 24.300781 11.773438 Z M 18.855469 10.660156 C 18.855469 10.480469 18.925781 10.296875 19.058594 10.183594 C 19.195312 10.046875 19.355469 9.980469 19.535156 9.980469 L 20.058594 9.980469 C 20.214844 9.980469 20.351562 9.910156 20.421875 9.777344 C 20.511719 9.664062 20.535156 9.503906 20.464844 9.367188 C 20.464844 9.277344 20.445312 9.1875 20.445312 9.074219 C 20.445312 8.574219 20.851562 8.164062 21.351562 8.164062 C 21.851562 8.164062 22.257812 8.574219 22.257812 9.074219 C 22.257812 9.1875 22.234375 9.277344 22.210938 9.367188 C 22.167969 9.503906 22.191406 9.664062 22.257812 9.777344 C 22.347656 9.890625 22.484375 9.980469 22.621094 9.980469 L 23.144531 9.980469 C 23.527344 9.980469 23.824219 10.273438 23.824219 10.660156 C 23.824219 10.839844 23.753906 11.023438 23.617188 11.136719 C 23.484375 11.273438 23.324219 11.339844 23.144531 11.339844 L 19.535156 11.339844 C 19.152344 11.339844 18.855469 11.046875 18.855469 10.660156 Z M 18.855469 10.660156 " fill-opacity="1" fill-rule="nonzero"/><path fill="#31ac7d" d="M 20.214844 14.742188 C 20.214844 14.199219 20.125 13.652344 19.96875 13.15625 L 19.535156 13.15625 C 19.332031 13.15625 19.152344 13.132812 18.945312 13.085938 C 19.105469 13.472656 19.21875 13.859375 19.285156 14.289062 L 17.269531 14.289062 C 17.246094 13.699219 17.175781 13.109375 17.085938 12.566406 C 17.269531 12.476562 17.449219 12.382812 17.632812 12.269531 C 17.425781 12.042969 17.289062 11.773438 17.175781 11.476562 C 17.085938 11.542969 16.972656 11.589844 16.859375 11.660156 C 16.769531 11.386719 16.679688 11.113281 16.566406 10.886719 C 16.746094 10.957031 16.90625 11.023438 17.0625 11.113281 C 17.042969 10.976562 17.019531 10.820312 17.019531 10.660156 C 17.019531 10.480469 17.042969 10.296875 17.085938 10.117188 C 16.496094 9.890625 15.882812 9.753906 15.203125 9.753906 C 12.664062 9.753906 10.554688 11.679688 10.257812 14.152344 C 10.351562 14.222656 10.417969 14.289062 10.488281 14.355469 C 10.554688 14.402344 10.601562 14.472656 10.667969 14.539062 C 10.734375 14.605469 10.78125 14.675781 10.828125 14.742188 C 10.828125 14.742188 10.847656 14.765625 10.847656 14.765625 C 10.894531 14.832031 10.941406 14.878906 10.960938 14.945312 C 10.960938 14.96875 10.984375 14.96875 10.984375 14.992188 C 11.03125 15.058594 11.074219 15.128906 11.097656 15.21875 C 11.121094 15.289062 11.144531 15.332031 11.167969 15.402344 C 11.167969 15.332031 11.144531 15.289062 11.144531 15.21875 L 13.183594 15.21875 C 13.207031 15.761719 13.253906 16.285156 13.34375 16.785156 C 13.164062 16.875 12.980469 16.964844 12.800781 17.078125 C 12.914062 17.351562 12.957031 17.644531 12.957031 17.941406 C 12.957031 17.988281 12.957031 18.03125 12.957031 18.078125 C 13.140625 17.917969 13.34375 17.804688 13.546875 17.691406 C 13.640625 18.03125 13.753906 18.347656 13.886719 18.621094 C 13.546875 18.507812 13.253906 18.347656 12.957031 18.167969 C 12.9375 18.484375 12.84375 18.804688 12.710938 19.074219 C 13.433594 19.484375 14.296875 19.734375 15.226562 19.734375 C 17.972656 19.734375 20.214844 17.488281 20.214844 14.742188 Z M 18.242188 17.488281 C 17.902344 17.191406 17.519531 16.941406 17.132812 16.761719 C 17.222656 16.261719 17.269531 15.742188 17.289062 15.195312 L 19.308594 15.195312 C 19.195312 16.082031 18.808594 16.875 18.242188 17.488281 Z M 17.5625 18.101562 C 17.269531 18.304688 16.929688 18.460938 16.585938 18.597656 C 16.722656 18.328125 16.835938 18.007812 16.929688 17.667969 C 17.132812 17.78125 17.359375 17.917969 17.5625 18.101562 Z M 16.359375 14.289062 L 14.09375 14.289062 C 14.117188 13.769531 14.160156 13.269531 14.230469 12.859375 C 14.546875 12.929688 14.886719 12.972656 15.226562 12.972656 C 15.566406 12.972656 15.882812 12.929688 16.226562 12.859375 C 16.292969 13.292969 16.339844 13.769531 16.359375 14.289062 Z M 16.019531 11.976562 C 15.5 12.089844 14.953125 12.089844 14.433594 11.976562 C 14.683594 11.136719 15 10.660156 15.226562 10.660156 C 15.453125 10.660156 15.769531 11.136719 16.019531 11.976562 Z M 13.570312 11.660156 C 13.367188 11.566406 13.183594 11.429688 13.003906 11.316406 C 13.277344 11.136719 13.546875 11 13.84375 10.910156 C 13.753906 11.136719 13.660156 11.386719 13.570312 11.660156 Z M 12.300781 11.90625 C 12.617188 12.179688 12.980469 12.40625 13.367188 12.566406 C 13.277344 13.109375 13.207031 13.699219 13.183594 14.289062 L 11.167969 14.289062 C 11.28125 13.359375 11.6875 12.542969 12.300781 11.90625 Z M 14.09375 15.195312 L 16.359375 15.195312 C 16.339844 15.648438 16.292969 16.082031 16.246094 16.464844 C 15.566406 16.308594 14.863281 16.308594 14.207031 16.464844 C 14.136719 16.082031 14.117188 15.648438 14.09375 15.195312 Z M 14.386719 17.351562 C 14.933594 17.214844 15.523438 17.214844 16.066406 17.351562 C 15.816406 18.28125 15.453125 18.824219 15.226562 18.824219 C 15 18.824219 14.636719 18.304688 14.386719 17.351562 Z M 14.386719 17.351562 " fill-opacity="1" fill-rule="nonzero"/><path fill="#31ac7d" d="M 6.835938 19.507812 L 10.464844 19.507812 C 10.894531 19.507812 11.28125 19.347656 11.597656 19.03125 C 11.894531 18.734375 12.050781 18.328125 12.050781 17.917969 C 12.050781 17.035156 11.347656 16.332031 10.464844 16.332031 C 10.464844 15.332031 9.648438 14.515625 8.648438 14.515625 C 7.652344 14.515625 6.835938 15.332031 6.835938 16.332031 C 6.402344 16.332031 6.019531 16.488281 5.699219 16.808594 C 5.40625 17.101562 5.246094 17.511719 5.246094 17.917969 C 5.246094 18.804688 5.949219 19.507812 6.835938 19.507812 Z M 6.359375 17.441406 C 6.496094 17.304688 6.652344 17.238281 6.835938 17.238281 L 7.355469 17.238281 C 7.515625 17.238281 7.652344 17.167969 7.71875 17.035156 C 7.808594 16.921875 7.832031 16.761719 7.765625 16.625 C 7.765625 16.535156 7.742188 16.445312 7.742188 16.332031 C 7.742188 15.832031 8.148438 15.421875 8.648438 15.421875 C 9.148438 15.421875 9.554688 15.832031 9.554688 16.332031 C 9.554688 16.445312 9.535156 16.535156 9.511719 16.625 C 9.464844 16.761719 9.488281 16.921875 9.554688 17.035156 C 9.648438 17.148438 9.785156 17.238281 9.917969 17.238281 L 10.464844 17.238281 C 10.847656 17.238281 11.144531 17.53125 11.144531 17.917969 C 11.144531 18.101562 11.074219 18.28125 10.941406 18.394531 C 10.828125 18.53125 10.644531 18.597656 10.464844 18.597656 L 6.835938 18.597656 C 6.449219 18.597656 6.152344 18.304688 6.152344 17.917969 C 6.152344 17.738281 6.222656 17.554688 6.359375 17.441406 Z M 6.359375 17.441406 " fill-opacity="1" fill-rule="nonzero"/><g clip-path="url(#6cbd86b092)"><path fill="#31ac7d" d="M 27.703125 12.929688 C 26.636719 12.929688 25.886719 13.789062 25.886719 15.039062 C 25.886719 15.082031 25.886719 15.152344 25.886719 15.195312 L 23.144531 15.195312 C 23.121094 15.515625 23.097656 15.808594 23.027344 16.105469 L 26.113281 16.105469 C 26.113281 16.105469 26.136719 16.105469 26.136719 16.105469 C 26.523438 17.078125 27.226562 18.054688 27.339844 18.191406 C 27.429688 18.304688 27.566406 18.371094 27.703125 18.371094 C 27.835938 18.371094 27.972656 18.304688 28.066406 18.191406 C 28.222656 17.988281 29.515625 16.21875 29.515625 15.039062 C 29.515625 13.789062 28.769531 12.929688 27.703125 12.929688 Z M 27.703125 17.125 C 27.269531 16.445312 26.792969 15.558594 26.792969 15.039062 C 26.792969 14.3125 27.15625 13.835938 27.703125 13.835938 C 28.246094 13.835938 28.609375 14.3125 28.609375 15.039062 C 28.609375 15.558594 28.132812 16.445312 27.703125 17.125 Z M 27.703125 17.125 " fill-opacity="1" fill-rule="nonzero"/></g><path fill="#31ac7d" d="M 28.15625 14.742188 C 28.15625 14.867188 28.109375 14.976562 28.023438 15.0625 C 27.933594 15.152344 27.828125 15.195312 27.703125 15.195312 C 27.578125 15.195312 27.46875 15.152344 27.378906 15.0625 C 27.292969 14.976562 27.246094 14.867188 27.246094 14.742188 C 27.246094 14.617188 27.292969 14.511719 27.378906 14.421875 C 27.46875 14.332031 27.578125 14.289062 27.703125 14.289062 C 27.828125 14.289062 27.933594 14.332031 28.023438 14.421875 C 28.109375 14.511719 28.15625 14.617188 28.15625 14.742188 Z M 28.15625 14.742188 " fill-opacity="1" fill-rule="nonzero"/><g clip-path="url(#c6c4544ca7)"><path fill="#31ac7d" d="M 5.019531 19.960938 L 1.390625 19.960938 C 0.890625 19.960938 0.484375 20.367188 0.484375 20.867188 L 0.484375 28.125 C 0.484375 28.625 0.890625 29.03125 1.390625 29.03125 L 5.019531 29.03125 C 5.519531 29.03125 5.925781 28.625 5.925781 28.125 L 5.925781 20.867188 C 5.925781 20.367188 5.519531 19.960938 5.019531 19.960938 Z M 1.390625 28.125 L 1.390625 20.867188 L 5.019531 20.867188 L 5.019531 28.125 Z M 1.390625 28.125 " fill-opacity="1" fill-rule="nonzero"/></g><path fill="#31ac7d" d="M 3.660156 26.765625 L 2.753906 26.765625 C 2.503906 26.765625 2.296875 26.96875 2.296875 27.21875 C 2.296875 27.46875 2.503906 27.671875 2.753906 27.671875 L 3.660156 27.671875 C 3.910156 27.671875 4.113281 27.46875 4.113281 27.21875 C 4.113281 26.96875 3.910156 26.765625 3.660156 26.765625 Z M 3.660156 26.765625 " fill-opacity="1" fill-rule="nonzero"/><path fill="#31ac7d" d="M 3.433594 21.546875 C 3.433594 21.699219 3.355469 21.773438 3.207031 21.773438 C 3.054688 21.773438 2.980469 21.699219 2.980469 21.546875 C 2.980469 21.394531 3.054688 21.320312 3.207031 21.320312 C 3.355469 21.320312 3.433594 21.394531 3.433594 21.546875 Z M 3.433594 21.546875 " fill-opacity="1" fill-rule="nonzero"/><path fill="#31ac7d" d="M 25.886719 4.535156 C 25.886719 4.660156 25.84375 4.769531 25.753906 4.855469 C 25.664062 4.945312 25.558594 4.988281 25.433594 4.988281 C 25.308594 4.988281 25.203125 4.945312 25.113281 4.855469 C 25.023438 4.769531 24.980469 4.660156 24.980469 4.535156 C 24.980469 4.410156 25.023438 4.304688 25.113281 4.214844 C 25.203125 4.125 25.308594 4.082031 25.433594 4.082031 C 25.558594 4.082031 25.664062 4.125 25.753906 4.214844 C 25.84375 4.304688 25.886719 4.410156 25.886719 4.535156 Z M 25.886719 4.535156 " fill-opacity="1" fill-rule="nonzero"/><path fill="#31ac7d" d="M 26.386719 3.71875 C 26.566406 3.539062 26.566406 3.265625 26.386719 3.085938 C 25.863281 2.5625 25.003906 2.5625 24.457031 3.085938 C 24.277344 3.265625 24.277344 3.539062 24.457031 3.71875 C 24.640625 3.902344 24.910156 3.902344 25.09375 3.71875 C 25.273438 3.539062 25.570312 3.539062 25.726562 3.71875 C 25.820312 3.808594 25.933594 3.855469 26.046875 3.855469 C 26.160156 3.855469 26.316406 3.808594 26.386719 3.71875 Z M 26.386719 3.71875 " fill-opacity="1" fill-rule="nonzero"/><path fill="#31ac7d" d="M 27.246094 2.835938 C 27.363281 2.835938 27.496094 2.789062 27.589844 2.675781 C 27.746094 2.496094 27.746094 2.199219 27.566406 2.042969 C 26.386719 0.976562 24.503906 0.976562 23.324219 2.042969 C 23.144531 2.199219 23.121094 2.496094 23.300781 2.675781 C 23.460938 2.859375 23.753906 2.878906 23.9375 2.699219 C 24.777344 1.949219 26.113281 1.949219 26.953125 2.699219 C 27.019531 2.789062 27.132812 2.835938 27.246094 2.835938 Z M 27.246094 2.835938 " fill-opacity="1" fill-rule="nonzero"/><path fill="#31ac7d" d="M 6.835938 4.535156 C 7.085938 4.535156 7.289062 4.332031 7.289062 4.082031 L 7.289062 0.453125 C 7.289062 0.203125 7.085938 0 6.835938 0 L 1.84375 0 C 1.59375 0 1.390625 0.203125 1.390625 0.453125 L 1.390625 4.082031 C 1.390625 4.332031 1.59375 4.535156 1.84375 4.535156 Z M 2.296875 0.90625 L 6.382812 0.90625 L 6.382812 3.628906 L 2.296875 3.628906 Z M 2.296875 0.90625 " fill-opacity="1" fill-rule="nonzero"/><g clip-path="url(#a029244c3a)"><path fill="#31ac7d" d="M 0.484375 5.445312 C 0.484375 5.691406 0.6875 5.898438 0.9375 5.898438 L 7.742188 5.898438 C 7.992188 5.898438 8.195312 5.691406 8.195312 5.445312 C 8.195312 5.195312 7.992188 4.988281 7.742188 4.988281 L 0.9375 4.988281 C 0.6875 4.988281 0.484375 5.195312 0.484375 5.445312 Z M 0.484375 5.445312 " fill-opacity="1" fill-rule="nonzero"/></g><g clip-path="url(#a2f1692861)"><path fill="#31ac7d" d="M 28.15625 28.578125 L 28.15625 27.21875 C 28.15625 26.96875 27.949219 26.765625 27.703125 26.765625 L 26.566406 26.765625 L 26.566406 25.335938 C 27.226562 25.132812 27.703125 24.542969 27.703125 23.816406 C 27.703125 22.929688 27 22.226562 26.113281 22.226562 C 25.230469 22.226562 24.527344 22.929688 24.527344 23.816406 C 24.527344 24.542969 25.003906 25.132812 25.660156 25.335938 L 25.660156 26.765625 L 24.527344 26.765625 C 24.277344 26.765625 24.074219 26.96875 24.074219 27.21875 L 24.074219 28.578125 C 24.074219 28.828125 24.277344 29.03125 24.527344 29.03125 L 27.703125 29.03125 C 27.949219 29.03125 28.15625 28.828125 28.15625 28.578125 Z M 25.433594 23.816406 C 25.433594 23.429688 25.726562 23.136719 26.113281 23.136719 C 26.5 23.136719 26.792969 23.429688 26.792969 23.816406 C 26.792969 24.199219 26.5 24.496094 26.113281 24.496094 C 25.726562 24.496094 25.433594 24.199219 25.433594 23.816406 Z M 27.246094 28.125 L 24.980469 28.125 L 24.980469 27.671875 L 27.246094 27.671875 Z M 27.246094 28.125 " fill-opacity="1" fill-rule="nonzero"/></g><g clip-path="url(#1a327735ce)"><path fill="#31ac7d" d="M 28.902344 22.339844 C 28.722656 22.183594 28.425781 22.207031 28.269531 22.410156 C 28.109375 22.613281 28.132812 22.886719 28.335938 23.042969 C 28.519531 23.203125 28.632812 23.40625 28.632812 23.613281 C 28.632812 23.816406 28.519531 24.019531 28.335938 24.179688 C 28.132812 24.335938 28.109375 24.632812 28.269531 24.8125 C 28.359375 24.925781 28.496094 24.972656 28.609375 24.972656 C 28.722656 24.972656 28.8125 24.925781 28.902344 24.859375 C 29.3125 24.519531 29.515625 24.085938 29.515625 23.613281 C 29.515625 23.136719 29.289062 22.660156 28.902344 22.339844 Z M 28.902344 22.339844 " fill-opacity="1" fill-rule="nonzero"/></g><path fill="#31ac7d" d="M 23.800781 24.996094 C 23.914062 24.996094 24.027344 24.949219 24.117188 24.859375 C 24.300781 24.675781 24.300781 24.40625 24.117188 24.222656 C 23.753906 23.859375 23.753906 23.292969 24.117188 22.929688 C 24.300781 22.75 24.300781 22.476562 24.117188 22.296875 C 23.9375 22.113281 23.664062 22.113281 23.484375 22.296875 C 22.78125 23 22.78125 24.15625 23.484375 24.859375 C 23.550781 24.949219 23.664062 24.996094 23.800781 24.996094 Z M 23.800781 24.996094 " fill-opacity="1" fill-rule="nonzero"/></svg>