<svg xmlns="http://www.w3.org/2000/svg" xmlns:xlink="http://www.w3.org/1999/xlink" width="40" zoomAndPan="magnify" viewBox="0 0 30 30.000001" height="40" preserveAspectRatio="xMidYMid meet" version="1.0"><defs><clipPath id="8636ea067c"><path d="M 0.484375 0 L 29.515625 0 L 29.515625 29.03125 L 0.484375 29.03125 Z M 0.484375 0 " clip-rule="nonzero"/></clipPath></defs><g clip-path="url(#8636ea067c)"><path fill="#31ac7d" d="M 29.214844 12.179688 L 27.117188 11.371094 C 26.984375 10.855469 26.816406 10.347656 26.617188 9.855469 C 26.953125 9.648438 27.269531 9.402344 27.558594 9.113281 C 28.914062 7.757812 29.386719 5.78125 28.789062 3.957031 C 28.738281 3.804688 28.613281 3.6875 28.453125 3.648438 C 28.296875 3.609375 28.128906 3.65625 28.011719 3.773438 L 26.398438 5.386719 L 24.128906 3.117188 L 25.742188 1.503906 C 25.859375 1.386719 25.90625 1.222656 25.867188 1.0625 C 25.828125 0.902344 25.710938 0.777344 25.558594 0.726562 C 23.734375 0.128906 21.757812 0.601562 20.402344 1.957031 C 20.117188 2.246094 19.867188 2.5625 19.660156 2.898438 C 19.167969 2.703125 18.660156 2.535156 18.148438 2.402344 L 17.339844 0.300781 C 17.269531 0.121094 17.09375 0 16.902344 0 L 13.097656 0 C 12.90625 0 12.730469 0.121094 12.660156 0.300781 L 11.851562 2.402344 C 10.730469 2.691406 9.660156 3.136719 8.660156 3.726562 L 6.601562 2.808594 C 6.425781 2.730469 6.21875 2.769531 6.078125 2.90625 L 3.390625 5.597656 C 3.253906 5.734375 3.214844 5.941406 3.292969 6.117188 L 4.207031 8.175781 C 3.621094 9.175781 3.175781 10.246094 2.882812 11.371094 L 0.785156 12.179688 C 0.601562 12.246094 0.484375 12.421875 0.484375 12.613281 L 0.484375 16.417969 C 0.484375 16.609375 0.601562 16.785156 0.785156 16.855469 L 2.882812 17.664062 C 3.015625 18.175781 3.183594 18.683594 3.382812 19.179688 C 3.046875 19.382812 2.730469 19.632812 2.441406 19.921875 C 1.085938 21.277344 0.613281 23.25 1.210938 25.074219 C 1.261719 25.230469 1.386719 25.347656 1.546875 25.382812 C 1.703125 25.421875 1.871094 25.375 1.988281 25.257812 L 3.601562 23.644531 L 5.871094 25.914062 L 4.257812 27.53125 C 4.140625 27.644531 4.09375 27.8125 4.132812 27.96875 C 4.171875 28.128906 4.289062 28.253906 4.441406 28.304688 C 4.964844 28.476562 5.5 28.558594 6.027344 28.558594 C 7.34375 28.558594 8.628906 28.042969 9.597656 27.074219 C 9.882812 26.785156 10.132812 26.46875 10.339844 26.132812 C 10.832031 26.332031 11.339844 26.5 11.851562 26.632812 L 12.660156 28.730469 C 12.730469 28.914062 12.90625 29.03125 13.097656 29.03125 L 16.902344 29.03125 C 17.09375 29.03125 17.269531 28.914062 17.339844 28.730469 L 18.148438 26.632812 C 19.269531 26.339844 20.339844 25.898438 21.339844 25.308594 L 23.398438 26.222656 C 23.574219 26.300781 23.78125 26.261719 23.921875 26.125 L 26.609375 23.4375 C 26.746094 23.300781 26.785156 23.09375 26.707031 22.914062 L 25.792969 20.855469 C 26.378906 19.855469 26.824219 18.785156 27.117188 17.664062 L 29.214844 16.855469 C 29.398438 16.785156 29.515625 16.609375 29.515625 16.417969 L 29.515625 12.613281 C 29.515625 12.421875 29.398438 12.246094 29.214844 12.179688 Z M 23.484375 3.796875 L 25.71875 6.03125 L 25.691406 6.097656 L 24.941406 6.84375 L 23.148438 6.367188 L 22.671875 4.574219 L 23.421875 3.824219 Z M 3.734375 17.203125 C 3.699219 17.054688 3.59375 16.929688 3.449219 16.875 L 1.421875 16.097656 L 1.421875 12.9375 L 3.449219 12.15625 C 3.59375 12.101562 3.699219 11.976562 3.734375 11.828125 C 4.019531 10.636719 4.488281 9.5 5.132812 8.453125 C 5.214844 8.320312 5.226562 8.160156 5.164062 8.019531 L 4.28125 6.03125 L 6.515625 3.796875 L 8.503906 4.679688 C 8.644531 4.742188 8.804688 4.730469 8.9375 4.648438 C 9.984375 4.007812 11.121094 3.535156 12.3125 3.25 C 12.460938 3.214844 12.585938 3.109375 12.640625 2.964844 L 13.421875 0.9375 L 16.578125 0.9375 L 17.359375 2.964844 C 17.414062 3.109375 17.539062 3.214844 17.6875 3.25 C 18.21875 3.378906 18.742188 3.542969 19.246094 3.742188 C 18.839844 4.820312 18.804688 6.023438 19.1875 7.152344 L 18.03125 8.308594 C 17.09375 7.851562 16.050781 7.609375 15 7.609375 C 11.191406 7.609375 8.09375 10.707031 8.09375 14.515625 C 8.09375 15.566406 8.335938 16.609375 8.792969 17.546875 L 7.636719 18.703125 C 6.507812 18.320312 5.304688 18.355469 4.226562 18.765625 C 4.027344 18.257812 3.859375 17.734375 3.734375 17.203125 Z M 9.5 16.839844 C 9.191406 16.109375 9.03125 15.316406 9.03125 14.515625 C 9.03125 11.222656 11.707031 8.546875 15 8.546875 C 15.800781 8.546875 16.59375 8.707031 17.324219 9.015625 Z M 6.515625 25.234375 L 4.28125 23 L 4.308594 22.9375 L 5.058594 22.1875 L 6.851562 22.667969 L 7.328125 24.457031 L 6.578125 25.207031 Z M 8.933594 26.414062 C 8.023438 27.324219 6.765625 27.746094 5.519531 27.589844 L 8.183594 24.929688 C 8.300781 24.808594 8.347656 24.636719 8.304688 24.476562 L 7.683594 22.164062 C 7.640625 22 7.515625 21.875 7.351562 21.832031 L 5.039062 21.210938 C 4.878906 21.167969 4.707031 21.214844 4.589844 21.332031 L 1.925781 23.996094 C 1.769531 22.75 2.191406 21.492188 3.101562 20.582031 C 4.28125 19.40625 6.039062 19.050781 7.578125 19.679688 C 7.753906 19.75 7.953125 19.710938 8.085938 19.578125 L 18.445312 9.222656 L 20.0625 7.601562 C 20.195312 7.46875 20.234375 7.269531 20.164062 7.09375 C 19.535156 5.554688 19.890625 3.796875 21.066406 2.621094 C 21.976562 1.707031 23.234375 1.285156 24.480469 1.441406 L 21.816406 4.105469 C 21.699219 4.222656 21.652344 4.394531 21.695312 4.554688 L 22.316406 6.871094 C 22.359375 7.03125 22.484375 7.15625 22.648438 7.199219 L 24.960938 7.820312 C 25.121094 7.863281 25.292969 7.816406 25.410156 7.699219 L 28.074219 5.035156 C 28.230469 6.28125 27.808594 7.539062 26.898438 8.449219 C 25.71875 9.628906 23.960938 9.980469 22.421875 9.351562 C 22.246094 9.28125 22.046875 9.320312 21.914062 9.453125 L 9.9375 21.429688 C 9.804688 21.5625 9.765625 21.761719 9.835938 21.9375 C 10.464844 23.480469 10.113281 25.234375 8.933594 26.414062 Z M 20.96875 14.515625 C 20.96875 17.808594 18.292969 20.488281 15 20.488281 C 14.199219 20.488281 13.40625 20.324219 12.675781 20.015625 L 20.5 12.191406 C 20.808594 12.921875 20.96875 13.714844 20.96875 14.515625 Z M 28.578125 16.09375 L 26.550781 16.875 C 26.40625 16.933594 26.300781 17.054688 26.265625 17.203125 C 25.980469 18.398438 25.511719 19.53125 24.867188 20.578125 C 24.785156 20.710938 24.773438 20.871094 24.835938 21.015625 L 25.71875 23 L 23.484375 25.234375 L 21.5 24.351562 C 21.359375 24.289062 21.195312 24.300781 21.0625 24.382812 C 20.015625 25.027344 18.882812 25.496094 17.6875 25.78125 C 17.539062 25.816406 17.414062 25.925781 17.359375 26.066406 L 16.578125 28.097656 L 13.421875 28.097656 L 12.640625 26.066406 C 12.585938 25.921875 12.460938 25.816406 12.3125 25.78125 C 11.78125 25.65625 11.257812 25.488281 10.753906 25.289062 C 11.160156 24.210938 11.195312 23.007812 10.8125 21.878906 L 11.96875 20.722656 C 12.90625 21.179688 13.949219 21.421875 15 21.421875 C 18.808594 21.421875 21.90625 18.324219 21.90625 14.515625 C 21.90625 13.464844 21.664062 12.421875 21.207031 11.484375 L 22.363281 10.328125 C 23.492188 10.710938 24.695312 10.675781 25.773438 10.269531 C 25.972656 10.777344 26.140625 11.296875 26.265625 11.828125 C 26.300781 11.976562 26.40625 12.101562 26.550781 12.15625 L 28.578125 12.9375 Z M 28.578125 16.09375 " fill-opacity="1" fill-rule="nonzero"/></g></svg>