<svg xmlns="http://www.w3.org/2000/svg" xmlns:xlink="http://www.w3.org/1999/xlink" width="40" zoomAndPan="magnify" viewBox="0 0 30 30.000001" height="40" preserveAspectRatio="xMidYMid meet" version="1.0"><defs><clipPath id="3e90039c3b"><path d="M 0.484375 2.902344 L 29.515625 2.902344 L 29.515625 26.128906 L 0.484375 26.128906 Z M 0.484375 2.902344 " clip-rule="nonzero"/></clipPath></defs><g clip-path="url(#3e90039c3b)"><path fill="#31ac7d" d="M 29.03125 2.902344 L 0.96875 2.902344 C 0.835938 2.902344 0.71875 2.949219 0.625 3.046875 C 0.53125 3.140625 0.484375 3.253906 0.484375 3.386719 L 0.484375 25.644531 C 0.484375 25.777344 0.53125 25.894531 0.625 25.988281 C 0.71875 26.082031 0.835938 26.128906 0.96875 26.128906 L 29.03125 26.128906 C 29.164062 26.128906 29.28125 26.082031 29.375 25.988281 C 29.46875 25.894531 29.515625 25.777344 29.515625 25.644531 L 29.515625 3.386719 C 29.515625 3.253906 29.46875 3.140625 29.375 3.046875 C 29.28125 2.949219 29.164062 2.902344 29.03125 2.902344 Z M 28.546875 3.871094 L 28.546875 6.773438 L 1.453125 6.773438 L 1.453125 3.871094 Z M 1.453125 25.160156 L 1.453125 7.742188 L 28.546875 7.742188 L 28.546875 25.160156 Z M 1.453125 25.160156 " fill-opacity="1" fill-rule="nonzero"/></g><path fill="#31ac7d" d="M 17.953125 14.570312 L 15.664062 14.570312 L 17.277344 12.953125 C 17.441406 12.792969 17.519531 12.601562 17.519531 12.375 C 17.519531 12.148438 17.441406 11.957031 17.277344 11.796875 L 15.542969 10.058594 C 15.378906 9.90625 15.1875 9.828125 14.964844 9.828125 C 14.738281 9.828125 14.546875 9.90625 14.386719 10.058594 L 12.769531 11.675781 L 12.769531 9.386719 C 12.769531 9.160156 12.6875 8.96875 12.527344 8.808594 C 12.367188 8.648438 12.171875 8.570312 11.945312 8.570312 L 9.484375 8.570312 C 9.257812 8.570312 9.0625 8.648438 8.902344 8.808594 C 8.742188 8.96875 8.664062 9.160156 8.660156 9.386719 L 8.660156 11.675781 L 7.046875 10.058594 C 6.882812 9.90625 6.691406 9.828125 6.46875 9.828125 C 6.242188 9.828125 6.050781 9.90625 5.890625 10.058594 L 4.152344 11.796875 C 3.992188 11.957031 3.910156 12.148438 3.910156 12.375 C 3.910156 12.601562 3.992188 12.792969 4.152344 12.953125 L 5.769531 14.570312 L 3.480469 14.570312 C 3.253906 14.570312 3.058594 14.652344 2.902344 14.8125 C 2.742188 14.972656 2.660156 15.164062 2.660156 15.390625 L 2.660156 17.855469 C 2.660156 18.082031 2.742188 18.273438 2.902344 18.433594 C 3.058594 18.59375 3.253906 18.675781 3.480469 18.675781 L 5.769531 18.675781 L 4.152344 20.292969 C 3.992188 20.453125 3.910156 20.644531 3.910156 20.871094 C 3.910156 21.097656 3.992188 21.289062 4.152344 21.449219 L 5.890625 23.191406 C 6.050781 23.351562 6.242188 23.429688 6.46875 23.429688 C 6.691406 23.429688 6.886719 23.351562 7.046875 23.191406 L 8.660156 21.574219 L 8.660156 23.863281 C 8.664062 24.089844 8.746094 24.28125 8.90625 24.441406 C 9.066406 24.597656 9.257812 24.675781 9.484375 24.675781 L 11.945312 24.675781 C 12.171875 24.675781 12.367188 24.597656 12.527344 24.4375 C 12.6875 24.277344 12.769531 24.085938 12.769531 23.859375 L 12.769531 21.570312 L 14.386719 23.191406 C 14.546875 23.351562 14.738281 23.429688 14.964844 23.429688 C 15.1875 23.429688 15.382812 23.351562 15.542969 23.191406 L 17.285156 21.453125 C 17.441406 21.292969 17.519531 21.101562 17.519531 20.875 C 17.519531 20.652344 17.441406 20.457031 17.285156 20.296875 L 15.664062 18.675781 L 17.953125 18.675781 C 18.179688 18.675781 18.371094 18.59375 18.53125 18.433594 C 18.691406 18.273438 18.769531 18.082031 18.769531 17.855469 L 18.769531 15.390625 C 18.769531 15.164062 18.691406 14.972656 18.53125 14.8125 C 18.371094 14.652344 18.179688 14.570312 17.953125 14.570312 Z M 17.800781 17.710938 L 15.300781 17.710938 C 14.941406 17.707031 14.691406 17.867188 14.550781 18.195312 C 14.40625 18.53125 14.464844 18.828125 14.71875 19.089844 L 16.492188 20.855469 L 14.960938 22.382812 L 13.191406 20.609375 C 12.929688 20.355469 12.632812 20.300781 12.300781 20.445312 C 11.972656 20.585938 11.8125 20.835938 11.816406 21.195312 L 11.816406 23.710938 L 9.628906 23.710938 L 9.628906 21.207031 C 9.632812 20.851562 9.472656 20.601562 9.144531 20.457031 C 8.808594 20.316406 8.511719 20.371094 8.25 20.628906 L 6.484375 22.398438 L 4.953125 20.871094 L 6.730469 19.097656 C 6.984375 18.839844 7.039062 18.542969 6.894531 18.207031 C 6.753906 17.882812 6.503906 17.71875 6.144531 17.722656 L 3.628906 17.722656 L 3.628906 15.535156 L 6.128906 15.535156 C 6.296875 15.539062 6.449219 15.496094 6.589844 15.402344 C 6.726562 15.3125 6.828125 15.191406 6.894531 15.035156 C 6.957031 14.882812 6.972656 14.726562 6.9375 14.5625 C 6.90625 14.398438 6.828125 14.261719 6.710938 14.144531 L 4.941406 12.378906 L 6.46875 10.847656 L 8.226562 12.625 C 8.484375 12.875 8.78125 12.929688 9.117188 12.789062 C 9.441406 12.644531 9.605469 12.394531 9.601562 12.039062 L 9.601562 9.535156 L 11.773438 9.535156 L 11.773438 12.039062 C 11.769531 12.394531 11.929688 12.644531 12.257812 12.789062 C 12.59375 12.929688 12.890625 12.875 13.152344 12.621094 L 14.917969 10.847656 L 16.445312 12.378906 L 14.671875 14.148438 C 14.417969 14.410156 14.363281 14.707031 14.507812 15.039062 C 14.648438 15.367188 14.898438 15.527344 15.257812 15.523438 L 17.757812 15.523438 Z M 17.800781 17.710938 " fill-opacity="1" fill-rule="nonzero"/><path fill="#31ac7d" d="M 10.71875 14.3125 C 10.410156 14.3125 10.117188 14.371094 9.832031 14.488281 C 9.546875 14.605469 9.296875 14.769531 9.078125 14.988281 C 8.863281 15.203125 8.695312 15.453125 8.578125 15.738281 C 8.460938 16.023438 8.398438 16.316406 8.398438 16.625 C 8.398438 16.929688 8.457031 17.226562 8.574219 17.511719 C 8.691406 17.792969 8.859375 18.042969 9.078125 18.261719 C 9.292969 18.476562 9.542969 18.644531 9.828125 18.761719 C 10.113281 18.878906 10.40625 18.9375 10.714844 18.9375 C 11.023438 18.9375 11.316406 18.878906 11.601562 18.761719 C 11.882812 18.644531 12.132812 18.476562 12.351562 18.257812 C 12.566406 18.042969 12.734375 17.792969 12.851562 17.507812 C 12.96875 17.222656 13.027344 16.929688 13.027344 16.621094 C 13.023438 16.316406 12.964844 16.019531 12.847656 15.738281 C 12.730469 15.457031 12.566406 15.207031 12.347656 14.992188 C 12.132812 14.773438 11.882812 14.605469 11.601562 14.488281 C 11.316406 14.371094 11.023438 14.3125 10.71875 14.3125 Z M 10.71875 17.964844 C 10.539062 17.964844 10.367188 17.933594 10.203125 17.867188 C 10.035156 17.796875 9.890625 17.699219 9.765625 17.574219 C 9.636719 17.449219 9.539062 17.304688 9.472656 17.140625 C 9.402344 16.972656 9.367188 16.800781 9.367188 16.625 C 9.367188 16.445312 9.402344 16.273438 9.46875 16.109375 C 9.535156 15.945312 9.632812 15.796875 9.761719 15.671875 C 9.886719 15.546875 10.03125 15.449219 10.195312 15.378906 C 10.359375 15.308594 10.53125 15.277344 10.710938 15.277344 C 10.890625 15.277344 11.0625 15.308594 11.226562 15.378906 C 11.390625 15.445312 11.539062 15.542969 11.664062 15.667969 C 11.789062 15.796875 11.886719 15.941406 11.957031 16.105469 C 12.023438 16.269531 12.058594 16.441406 12.058594 16.621094 C 12.058594 16.800781 12.023438 16.96875 11.957031 17.136719 C 11.890625 17.300781 11.792969 17.445312 11.667969 17.570312 C 11.542969 17.699219 11.394531 17.796875 11.230469 17.863281 C 11.066406 17.933594 10.894531 17.964844 10.71875 17.964844 Z M 10.71875 17.964844 " fill-opacity="1" fill-rule="nonzero"/><path fill="#31ac7d" d="M 24.460938 8.742188 C 24.363281 8.628906 24.238281 8.570312 24.089844 8.570312 C 23.9375 8.570312 23.816406 8.628906 23.71875 8.742188 L 21.195312 11.773438 C 21.0625 11.929688 21.039062 12.101562 21.125 12.285156 C 21.210938 12.472656 21.359375 12.566406 21.566406 12.566406 L 22.09375 12.566406 L 22.09375 19.148438 L 23.0625 19.148438 L 23.0625 12.097656 C 23.0625 11.964844 23.015625 11.847656 22.917969 11.753906 C 22.824219 11.660156 22.710938 11.613281 22.578125 11.613281 L 24.074219 9.824219 L 25.582031 11.613281 C 25.449219 11.613281 25.335938 11.660156 25.238281 11.753906 C 25.144531 11.847656 25.097656 11.964844 25.097656 12.097656 L 25.097656 15.125 L 26.066406 15.125 L 26.066406 12.582031 L 26.613281 12.582031 C 26.820312 12.582031 26.964844 12.488281 27.054688 12.300781 C 27.140625 12.113281 27.117188 11.945312 26.984375 11.785156 Z M 24.460938 8.742188 " fill-opacity="1" fill-rule="nonzero"/><path fill="#31ac7d" d="M 22.09375 20.15625 L 23.0625 20.15625 L 23.0625 21.167969 L 22.09375 21.167969 Z M 22.09375 20.15625 " fill-opacity="1" fill-rule="nonzero"/><path fill="#31ac7d" d="M 22.09375 22.175781 L 23.0625 22.175781 L 23.0625 23.1875 L 22.09375 23.1875 Z M 22.09375 22.175781 " fill-opacity="1" fill-rule="nonzero"/><path fill="#31ac7d" d="M 25.117188 16.117188 L 26.085938 16.117188 L 26.085938 17.128906 L 25.117188 17.128906 Z M 25.117188 16.117188 " fill-opacity="1" fill-rule="nonzero"/><path fill="#31ac7d" d="M 25.117188 18.136719 L 26.085938 18.136719 L 26.085938 19.148438 L 25.117188 19.148438 Z M 25.117188 18.136719 " fill-opacity="1" fill-rule="nonzero"/><path fill="#31ac7d" d="M 25.117188 20.15625 L 26.085938 20.15625 L 26.085938 21.167969 L 25.117188 21.167969 Z M 25.117188 20.15625 " fill-opacity="1" fill-rule="nonzero"/><path fill="#31ac7d" d="M 25.117188 22.175781 L 26.085938 22.175781 L 26.085938 23.1875 L 25.117188 23.1875 Z M 25.117188 22.175781 " fill-opacity="1" fill-rule="nonzero"/><path fill="#31ac7d" d="M 2.417969 4.839844 L 3.386719 4.839844 L 3.386719 5.804688 L 2.417969 5.804688 Z M 2.417969 4.839844 " fill-opacity="1" fill-rule="nonzero"/><path fill="#31ac7d" d="M 4.355469 4.839844 L 5.324219 4.839844 L 5.324219 5.804688 L 4.355469 5.804688 Z M 4.355469 4.839844 " fill-opacity="1" fill-rule="nonzero"/><path fill="#31ac7d" d="M 6.289062 4.839844 L 7.257812 4.839844 L 7.257812 5.804688 L 6.289062 5.804688 Z M 6.289062 4.839844 " fill-opacity="1" fill-rule="nonzero"/></svg>