<svg xmlns="http://www.w3.org/2000/svg" xmlns:xlink="http://www.w3.org/1999/xlink" width="40" zoomAndPan="magnify" viewBox="0 0 30 30.000001" height="40" preserveAspectRatio="xMidYMid meet" version="1.0"><defs><clipPath id="4c9c502962"><path d="M 0.484375 5.015625 L 29.515625 5.015625 L 29.515625 23.886719 L 0.484375 23.886719 Z M 0.484375 5.015625 " clip-rule="nonzero"/></clipPath></defs><g clip-path="url(#4c9c502962)"><path fill="#31ac7d" d="M 29.324219 12.179688 C 29.324219 15.609375 26.84375 18.457031 23.582031 19.035156 L 23.582031 23.808594 L 18.917969 19.144531 L 7.644531 19.144531 C 3.796875 19.144531 0.675781 16.027344 0.675781 12.179688 C 0.675781 8.332031 3.796875 5.210938 7.644531 5.210938 L 22.355469 5.210938 C 26.203125 5.210938 29.324219 8.332031 29.324219 12.179688 Z M 29.324219 12.179688 " fill-opacity="1" fill-rule="nonzero"/><path fill="#ffffff" d="M 22.355469 5.019531 L 7.644531 5.019531 C 3.695312 5.019531 0.484375 8.230469 0.484375 12.179688 C 0.484375 16.128906 3.695312 19.339844 7.644531 19.339844 L 18.839844 19.339844 L 23.445312 23.945312 C 23.480469 23.980469 23.53125 24 23.582031 24 C 23.605469 24 23.628906 23.996094 23.65625 23.988281 C 23.726562 23.957031 23.773438 23.886719 23.773438 23.808594 L 23.773438 19.195312 C 27.109375 18.527344 29.515625 15.601562 29.515625 12.179688 C 29.515625 8.230469 26.304688 5.019531 22.355469 5.019531 Z M 23.546875 18.847656 C 23.453125 18.863281 23.386719 18.941406 23.386719 19.035156 L 23.386719 23.339844 L 19.054688 19.007812 C 19.019531 18.972656 18.96875 18.953125 18.917969 18.953125 L 7.644531 18.953125 C 3.910156 18.953125 0.871094 15.914062 0.871094 12.179688 C 0.871094 8.445312 3.910156 5.40625 7.644531 5.40625 L 22.355469 5.40625 C 26.089844 5.40625 29.128906 8.445312 29.128906 12.179688 C 29.128906 15.46875 26.78125 18.273438 23.546875 18.847656 Z M 15.007812 9.445312 L 15.515625 9.445312 L 15.515625 15.09375 L 15.007812 15.09375 Z M 19.414062 11.230469 C 19.113281 11.046875 18.78125 10.957031 18.410156 10.957031 C 18.039062 10.957031 17.707031 11.046875 17.410156 11.230469 C 17.113281 11.414062 16.882812 11.660156 16.714844 11.976562 C 16.546875 12.292969 16.464844 12.648438 16.464844 13.042969 C 16.464844 13.445312 16.546875 13.8125 16.714844 14.132812 C 16.882812 14.457031 17.113281 14.710938 17.410156 14.890625 C 17.707031 15.074219 18.039062 15.167969 18.410156 15.167969 C 18.785156 15.167969 19.121094 15.074219 19.417969 14.890625 C 19.71875 14.703125 19.949219 14.449219 20.117188 14.125 C 20.285156 13.804688 20.371094 13.441406 20.371094 13.042969 C 20.371094 12.648438 20.285156 12.292969 20.113281 11.976562 C 19.945312 11.660156 19.710938 11.414062 19.414062 11.230469 Z M 19.695312 13.910156 C 19.570312 14.164062 19.390625 14.367188 19.164062 14.515625 C 18.9375 14.664062 18.6875 14.738281 18.410156 14.738281 C 18.132812 14.738281 17.882812 14.664062 17.664062 14.519531 C 17.441406 14.375 17.265625 14.171875 17.136719 13.914062 C 17.007812 13.652344 16.945312 13.363281 16.945312 13.042969 C 16.945312 12.730469 17.007812 12.449219 17.132812 12.195312 C 17.257812 11.941406 17.433594 11.742188 17.660156 11.601562 C 17.882812 11.457031 18.132812 11.386719 18.410156 11.386719 C 18.691406 11.386719 18.945312 11.457031 19.167969 11.601562 C 19.390625 11.75 19.570312 11.949219 19.695312 12.199219 C 19.824219 12.449219 19.890625 12.730469 19.890625 13.042969 C 19.890625 13.363281 19.824219 13.652344 19.695312 13.910156 Z M 20.132812 9.445312 L 24.617188 9.445312 L 24.617188 9.90625 L 22.628906 9.90625 L 22.628906 15.09375 L 22.117188 15.09375 L 22.117188 9.90625 L 20.132812 9.90625 Z M 8.09375 8.46875 C 6.050781 8.46875 4.382812 10.132812 4.382812 12.179688 C 4.382812 14.226562 6.050781 15.890625 8.09375 15.890625 C 10.140625 15.890625 11.804688 14.226562 11.804688 12.179688 C 11.804688 10.132812 10.140625 8.46875 8.09375 8.46875 Z M 6.855469 9.097656 C 6.519531 9.480469 6.253906 10.019531 6.089844 10.65625 L 5.144531 10.65625 C 5.511719 9.953125 6.117188 9.394531 6.855469 9.097656 Z M 4.769531 12.179688 C 4.769531 11.777344 4.847656 11.398438 4.976562 11.039062 L 6 11.039062 C 5.9375 11.398438 5.898438 11.78125 5.898438 12.179688 C 5.898438 12.578125 5.9375 12.960938 6 13.316406 L 4.976562 13.316406 C 4.847656 12.960938 4.769531 12.578125 4.769531 12.179688 Z M 5.144531 13.703125 L 6.089844 13.703125 C 6.253906 14.339844 6.519531 14.878906 6.855469 15.261719 C 6.117188 14.964844 5.507812 14.40625 5.144531 13.703125 Z M 7.902344 15.480469 C 7.296875 15.359375 6.773438 14.660156 6.496094 13.703125 L 7.902344 13.703125 Z M 7.902344 13.316406 L 6.402344 13.316406 C 6.328125 12.960938 6.285156 12.578125 6.285156 12.179688 C 6.285156 11.78125 6.328125 11.398438 6.402344 11.039062 L 7.902344 11.039062 Z M 7.902344 10.65625 L 6.496094 10.65625 C 6.773438 9.695312 7.296875 9 7.902344 8.875 Z M 8.289062 8.875 C 8.890625 9 9.417969 9.695312 9.695312 10.65625 L 8.289062 10.65625 Z M 8.289062 11.039062 L 9.789062 11.039062 C 9.863281 11.398438 9.902344 11.78125 9.902344 12.179688 C 9.902344 12.578125 9.863281 12.960938 9.789062 13.316406 L 8.289062 13.316406 Z M 8.289062 15.480469 L 8.289062 13.703125 L 9.695312 13.703125 C 9.417969 14.660156 8.890625 15.359375 8.289062 15.480469 Z M 9.332031 15.261719 C 9.667969 14.878906 9.9375 14.339844 10.101562 13.703125 L 11.046875 13.703125 C 10.679688 14.40625 10.074219 14.964844 9.332031 15.261719 Z M 11.417969 12.179688 C 11.417969 12.578125 11.34375 12.960938 11.214844 13.316406 L 10.1875 13.316406 C 10.253906 12.960938 10.289062 12.578125 10.289062 12.179688 C 10.289062 11.78125 10.253906 11.398438 10.1875 11.039062 L 11.214844 11.039062 C 11.34375 11.398438 11.417969 11.777344 11.417969 12.179688 Z M 10.101562 10.65625 C 9.9375 10.019531 9.667969 9.480469 9.332031 9.097656 C 10.074219 9.394531 10.679688 9.953125 11.046875 10.65625 Z M 10.101562 10.65625 " fill-opacity="1" fill-rule="nonzero"/></g></svg>