<svg xmlns="http://www.w3.org/2000/svg" xmlns:xlink="http://www.w3.org/1999/xlink" width="40" zoomAndPan="magnify" viewBox="0 0 30 30.000001" height="40" preserveAspectRatio="xMidYMid meet" version="1.0"><defs><clipPath id="a4029e651a"><path d="M 12 0.273438 L 14 0.273438 L 14 2 L 12 2 Z M 12 0.273438 " clip-rule="nonzero"/></clipPath><clipPath id="49f41be1f2"><path d="M 13 0.273438 L 15 0.273438 L 15 2 L 13 2 Z M 13 0.273438 " clip-rule="nonzero"/></clipPath><clipPath id="9273230b04"><path d="M 15 0.273438 L 17 0.273438 L 17 2 L 15 2 Z M 15 0.273438 " clip-rule="nonzero"/></clipPath><clipPath id="8e31f2a0f8"><path d="M 0.484375 0.273438 L 29.515625 0.273438 L 29.515625 28.578125 L 0.484375 28.578125 Z M 0.484375 0.273438 " clip-rule="nonzero"/></clipPath></defs><path fill="#31ac7d" d="M 14.339844 25.824219 C 14.339844 25.734375 14.265625 25.644531 14.160156 25.644531 L 9.898438 25.644531 C 9.8125 25.644531 9.722656 25.71875 9.722656 25.824219 C 9.722656 25.914062 9.792969 26.003906 9.898438 26.003906 L 14.160156 26.003906 C 14.25 26.003906 14.339844 25.914062 14.339844 25.824219 Z M 14.339844 25.824219 " fill-opacity="1" fill-rule="nonzero"/><path fill="#31ac7d" d="M 15.714844 25.824219 C 15.714844 25.734375 15.644531 25.644531 15.535156 25.644531 L 14.839844 25.644531 C 14.75 25.644531 14.660156 25.71875 14.660156 25.824219 C 14.660156 25.914062 14.730469 26.003906 14.839844 26.003906 L 15.535156 26.003906 C 15.644531 26.003906 15.714844 25.914062 15.714844 25.824219 Z M 15.714844 25.824219 " fill-opacity="1" fill-rule="nonzero"/><path fill="#31ac7d" d="M 16.144531 26.003906 L 16.609375 26.003906 C 16.699219 26.003906 16.789062 25.933594 16.789062 25.824219 C 16.789062 25.734375 16.71875 25.644531 16.609375 25.644531 L 16.144531 25.644531 C 16.054688 25.644531 15.964844 25.71875 15.964844 25.824219 C 15.964844 25.914062 16.039062 26.003906 16.144531 26.003906 Z M 16.144531 26.003906 " fill-opacity="1" fill-rule="nonzero"/><path fill="#31ac7d" d="M 19.582031 26.503906 L 15.320312 26.503906 C 15.234375 26.503906 15.144531 26.578125 15.144531 26.683594 C 15.144531 26.773438 15.214844 26.863281 15.320312 26.863281 L 19.582031 26.863281 C 19.671875 26.863281 19.761719 26.792969 19.761719 26.683594 C 19.761719 26.59375 19.671875 26.503906 19.582031 26.503906 Z M 19.582031 26.503906 " fill-opacity="1" fill-rule="nonzero"/><path fill="#31ac7d" d="M 14.640625 26.503906 L 13.945312 26.503906 C 13.855469 26.503906 13.765625 26.578125 13.765625 26.683594 C 13.765625 26.773438 13.835938 26.863281 13.945312 26.863281 L 14.640625 26.863281 C 14.730469 26.863281 14.820312 26.792969 14.820312 26.683594 C 14.820312 26.59375 14.730469 26.503906 14.640625 26.503906 Z M 14.640625 26.503906 " fill-opacity="1" fill-rule="nonzero"/><path fill="#31ac7d" d="M 13.335938 26.503906 L 12.871094 26.503906 C 12.78125 26.503906 12.691406 26.578125 12.691406 26.683594 C 12.691406 26.773438 12.761719 26.863281 12.871094 26.863281 L 13.335938 26.863281 C 13.425781 26.863281 13.515625 26.792969 13.515625 26.683594 C 13.515625 26.59375 13.441406 26.503906 13.335938 26.503906 Z M 13.335938 26.503906 " fill-opacity="1" fill-rule="nonzero"/><path fill="#31ac7d" d="M 7.753906 17.664062 C 7.753906 16.324219 6.660156 15.230469 5.320312 15.230469 C 3.976562 15.230469 2.886719 16.304688 2.886719 17.664062 C 2.886719 19.007812 3.976562 20.097656 5.320312 20.097656 C 6.660156 20.097656 7.753906 19.007812 7.753906 17.664062 Z M 5.320312 19.742188 C 4.175781 19.742188 3.226562 18.8125 3.226562 17.648438 C 3.226562 16.503906 4.15625 15.554688 5.320312 15.554688 C 6.480469 15.554688 7.414062 16.484375 7.414062 17.648438 C 7.394531 18.8125 6.464844 19.742188 5.320312 19.742188 Z M 5.320312 19.742188 " fill-opacity="1" fill-rule="nonzero"/><path fill="#31ac7d" d="M 5.320312 17.234375 C 5.675781 17.234375 5.964844 16.949219 5.964844 16.59375 C 5.964844 16.234375 5.675781 15.949219 5.320312 15.949219 C 4.960938 15.949219 4.675781 16.234375 4.675781 16.59375 C 4.675781 16.949219 4.960938 17.234375 5.320312 17.234375 Z M 5.320312 16.304688 C 5.480469 16.304688 5.605469 16.429688 5.605469 16.59375 C 5.605469 16.753906 5.480469 16.878906 5.320312 16.878906 C 5.15625 16.878906 5.03125 16.753906 5.03125 16.59375 C 5.03125 16.449219 5.15625 16.304688 5.320312 16.304688 Z M 5.320312 16.304688 " fill-opacity="1" fill-rule="nonzero"/><path fill="#31ac7d" d="M 5.320312 18.078125 C 4.960938 18.078125 4.675781 18.363281 4.675781 18.722656 C 4.675781 19.078125 4.960938 19.367188 5.320312 19.367188 C 5.675781 19.367188 5.964844 19.078125 5.964844 18.722656 C 5.964844 18.363281 5.660156 18.078125 5.320312 18.078125 Z M 5.320312 19.007812 C 5.15625 19.007812 5.03125 18.882812 5.03125 18.722656 C 5.03125 18.558594 5.15625 18.433594 5.320312 18.433594 C 5.480469 18.433594 5.605469 18.558594 5.605469 18.722656 C 5.605469 18.863281 5.480469 19.007812 5.320312 19.007812 Z M 5.320312 19.007812 " fill-opacity="1" fill-rule="nonzero"/><path fill="#31ac7d" d="M 6.375 17.019531 C 6.015625 17.019531 5.730469 17.308594 5.730469 17.664062 C 5.730469 18.023438 6.015625 18.308594 6.375 18.308594 C 6.734375 18.308594 7.019531 18.023438 7.019531 17.664062 C 7.019531 17.308594 6.714844 17.019531 6.375 17.019531 Z M 6.375 17.953125 C 6.214844 17.953125 6.089844 17.828125 6.089844 17.664062 C 6.089844 17.503906 6.214844 17.378906 6.375 17.378906 C 6.535156 17.378906 6.660156 17.503906 6.660156 17.664062 C 6.660156 17.808594 6.535156 17.953125 6.375 17.953125 Z M 6.375 17.953125 " fill-opacity="1" fill-rule="nonzero"/><path fill="#31ac7d" d="M 4.890625 17.664062 C 4.890625 17.308594 4.601562 17.019531 4.246094 17.019531 C 3.886719 17.019531 3.601562 17.308594 3.601562 17.664062 C 3.601562 18.023438 3.886719 18.308594 4.246094 18.308594 C 4.601562 18.308594 4.890625 18.003906 4.890625 17.664062 Z M 4.261719 17.953125 C 4.101562 17.953125 3.976562 17.828125 3.976562 17.664062 C 3.976562 17.503906 4.101562 17.378906 4.261719 17.378906 C 4.425781 17.378906 4.550781 17.503906 4.550781 17.664062 C 4.550781 17.808594 4.40625 17.953125 4.261719 17.953125 Z M 4.261719 17.953125 " fill-opacity="1" fill-rule="nonzero"/><path fill="#31ac7d" d="M 14.480469 20.097656 C 15.824219 20.097656 16.914062 19.007812 16.914062 17.664062 C 16.914062 16.324219 15.824219 15.230469 14.480469 15.230469 C 13.140625 15.230469 12.046875 16.324219 12.046875 17.664062 C 12.046875 19.007812 13.140625 20.097656 14.480469 20.097656 Z M 14.480469 15.570312 C 15.625 15.570312 16.574219 16.503906 16.574219 17.664062 C 16.574219 18.8125 15.644531 19.757812 14.480469 19.757812 C 13.335938 19.757812 12.386719 18.828125 12.386719 17.664062 C 12.386719 16.503906 13.335938 15.570312 14.480469 15.570312 Z M 14.480469 15.570312 " fill-opacity="1" fill-rule="nonzero"/><path fill="#31ac7d" d="M 13.175781 18.238281 L 13.890625 18.238281 L 13.890625 18.953125 C 13.890625 19.042969 13.960938 19.132812 14.070312 19.132812 L 14.894531 19.132812 C 14.980469 19.132812 15.070312 19.0625 15.070312 18.953125 L 15.070312 18.238281 L 15.789062 18.238281 C 15.875 18.238281 15.964844 18.167969 15.964844 18.058594 L 15.964844 17.234375 C 15.964844 17.148438 15.894531 17.058594 15.789062 17.058594 L 15.070312 17.058594 L 15.070312 16.339844 C 15.070312 16.25 15 16.164062 14.894531 16.164062 L 14.070312 16.164062 C 13.980469 16.164062 13.890625 16.234375 13.890625 16.339844 L 13.890625 17.058594 L 13.175781 17.058594 C 13.085938 17.058594 12.996094 17.128906 12.996094 17.234375 L 12.996094 18.058594 C 12.996094 18.167969 13.085938 18.238281 13.175781 18.238281 Z M 13.355469 17.414062 L 14.070312 17.414062 C 14.160156 17.414062 14.25 17.34375 14.25 17.234375 L 14.25 16.519531 L 14.714844 16.519531 L 14.714844 17.234375 C 14.714844 17.324219 14.785156 17.414062 14.894531 17.414062 L 15.609375 17.414062 L 15.609375 17.878906 L 14.894531 17.878906 C 14.804688 17.878906 14.714844 17.953125 14.714844 18.058594 L 14.714844 18.773438 L 14.25 18.773438 L 14.25 18.058594 C 14.25 17.96875 14.175781 17.878906 14.070312 17.878906 L 13.355469 17.878906 Z M 13.355469 17.414062 " fill-opacity="1" fill-rule="nonzero"/><path fill="#31ac7d" d="M 10.652344 18.308594 C 11.007812 18.308594 11.296875 18.023438 11.296875 17.664062 C 11.296875 17.308594 11.007812 17.019531 10.652344 17.019531 C 10.292969 17.019531 10.007812 17.308594 10.007812 17.664062 C 10.007812 18.023438 10.292969 18.308594 10.652344 18.308594 Z M 10.652344 17.363281 C 10.8125 17.363281 10.957031 17.488281 10.957031 17.664062 C 10.957031 17.828125 10.832031 17.96875 10.652344 17.96875 C 10.492188 17.96875 10.347656 17.84375 10.347656 17.664062 C 10.347656 17.488281 10.492188 17.363281 10.652344 17.363281 Z M 10.652344 17.363281 " fill-opacity="1" fill-rule="nonzero"/><path fill="#31ac7d" d="M 9.148438 18.308594 C 9.507812 18.308594 9.792969 18.023438 9.792969 17.664062 C 9.792969 17.308594 9.507812 17.019531 9.148438 17.019531 C 8.789062 17.019531 8.503906 17.308594 8.503906 17.664062 C 8.503906 18.023438 8.789062 18.308594 9.148438 18.308594 Z M 9.148438 17.363281 C 9.308594 17.363281 9.453125 17.488281 9.453125 17.664062 C 9.453125 17.828125 9.328125 17.96875 9.148438 17.96875 C 8.988281 17.96875 8.84375 17.84375 8.84375 17.664062 C 8.84375 17.488281 8.988281 17.363281 9.148438 17.363281 Z M 9.148438 17.363281 " fill-opacity="1" fill-rule="nonzero"/><g clip-path="url(#a4029e651a)"><path fill="#31ac7d" d="M 13.050781 0.808594 C 12.761719 0.808594 12.511719 1.042969 12.511719 1.347656 C 12.511719 1.632812 12.746094 1.882812 13.050781 1.882812 C 13.335938 1.882812 13.585938 1.648438 13.585938 1.347656 C 13.585938 1.058594 13.355469 0.808594 13.050781 0.808594 Z M 13.050781 1.523438 C 12.941406 1.523438 12.871094 1.433594 12.871094 1.347656 C 12.871094 1.257812 12.960938 1.167969 13.050781 1.167969 C 13.15625 1.167969 13.226562 1.257812 13.226562 1.347656 C 13.226562 1.433594 13.15625 1.523438 13.050781 1.523438 Z M 13.050781 1.523438 " fill-opacity="1" fill-rule="nonzero"/></g><g clip-path="url(#49f41be1f2)"><path fill="#31ac7d" d="M 14.464844 0.808594 C 14.175781 0.808594 13.925781 1.042969 13.925781 1.347656 C 13.925781 1.632812 14.160156 1.882812 14.464844 1.882812 C 14.75 1.882812 15 1.648438 15 1.347656 C 15 1.058594 14.75 0.808594 14.464844 0.808594 Z M 14.464844 1.523438 C 14.355469 1.523438 14.285156 1.433594 14.285156 1.347656 C 14.285156 1.257812 14.375 1.167969 14.464844 1.167969 C 14.570312 1.167969 14.640625 1.257812 14.640625 1.347656 C 14.640625 1.433594 14.550781 1.523438 14.464844 1.523438 Z M 14.464844 1.523438 " fill-opacity="1" fill-rule="nonzero"/></g><g clip-path="url(#9273230b04)"><path fill="#31ac7d" d="M 15.859375 0.808594 C 15.574219 0.808594 15.320312 1.042969 15.320312 1.347656 C 15.320312 1.632812 15.554688 1.882812 15.859375 1.882812 C 16.144531 1.882812 16.394531 1.648438 16.394531 1.347656 C 16.394531 1.058594 16.164062 0.808594 15.859375 0.808594 Z M 15.859375 1.523438 C 15.75 1.523438 15.679688 1.433594 15.679688 1.347656 C 15.679688 1.257812 15.769531 1.167969 15.859375 1.167969 C 15.964844 1.167969 16.039062 1.257812 16.039062 1.347656 C 16.039062 1.433594 15.964844 1.523438 15.859375 1.523438 Z M 15.859375 1.523438 " fill-opacity="1" fill-rule="nonzero"/></g><g clip-path="url(#8e31f2a0f8)"><path fill="#31ac7d" d="M 29.371094 18.433594 L 28.511719 18.183594 C 28.832031 17.003906 28.992188 15.785156 28.992188 14.535156 C 28.992188 11.3125 27.882812 8.164062 25.878906 5.660156 L 25.878906 1.183594 C 25.878906 0.808594 25.648438 0.488281 25.324219 0.34375 C 25.21875 0.289062 25.09375 0.273438 24.96875 0.273438 L 12.601562 0.273438 C 12.332031 0.273438 12.082031 0.398438 11.921875 0.578125 C 5.300781 1.902344 0.503906 7.753906 0.503906 14.535156 C 0.503906 16.734375 0.988281 18.847656 1.953125 20.816406 L 1.953125 22.496094 C 1.953125 23.75 2.976562 24.769531 4.226562 24.769531 C 4.40625 24.769531 4.601562 24.75 4.765625 24.699219 C 7.449219 27.328125 10.972656 28.761719 14.730469 28.761719 C 18.453125 28.761719 21.960938 27.347656 24.628906 24.75 C 24.914062 24.734375 25.164062 24.824219 25.21875 24.625 L 25.433594 23.910156 C 25.558594 23.765625 25.683594 23.625 25.808594 23.464844 C 25.914062 23.410156 26.039062 23.375 26.148438 23.320312 L 27.113281 23.839844 C 27.1875 23.875 27.277344 23.855469 27.328125 23.804688 L 28.546875 22.585938 C 28.601562 22.53125 28.617188 22.441406 28.582031 22.371094 L 28.0625 21.40625 C 28.171875 21.207031 28.242188 21.011719 28.3125 20.796875 L 29.371094 20.476562 C 29.441406 20.457031 29.496094 20.386719 29.496094 20.3125 L 29.496094 18.578125 C 29.496094 18.523438 29.441406 18.453125 29.371094 18.433594 Z M 28.0625 17.503906 L 28.4375 16.789062 C 28.386719 17.148438 28.3125 17.503906 28.222656 17.863281 C 28.171875 17.738281 28.117188 17.628906 28.0625 17.503906 Z M 28.617188 14.535156 C 28.617188 15.125 28.582031 15.714844 28.511719 16.289062 L 27.328125 15.105469 C 27.277344 15.054688 27.1875 15.035156 27.113281 15.070312 L 26.148438 15.589844 C 26.058594 15.535156 25.953125 15.5 25.863281 15.464844 L 25.863281 6.214844 C 27.652344 8.609375 28.617188 11.546875 28.617188 14.535156 Z M 19.8125 16.539062 L 20.332031 17.503906 C 20.226562 17.703125 20.152344 17.898438 20.082031 18.113281 L 19.027344 18.433594 C 18.953125 18.453125 18.902344 18.523438 18.902344 18.597656 L 18.902344 19.007812 L 17.84375 19.007812 L 17.84375 17.71875 C 17.84375 15.859375 16.359375 14.320312 14.515625 14.300781 C 14.5 14.300781 14.5 14.300781 14.480469 14.300781 C 13.621094 14.300781 12.816406 14.625 12.191406 15.214844 C 12.136719 15.25 12.101562 15.285156 12.046875 15.320312 L 12.046875 2.417969 L 25.523438 2.417969 L 25.523438 15.230469 L 25.234375 14.265625 C 25.21875 14.195312 25.144531 14.140625 25.074219 14.140625 L 23.339844 14.140625 C 23.265625 14.140625 23.195312 14.195312 23.179688 14.265625 L 22.855469 15.320312 C 22.640625 15.394531 22.445312 15.484375 22.246094 15.570312 L 21.28125 15.054688 C 21.210938 15.015625 21.121094 15.035156 21.066406 15.089844 L 19.847656 16.304688 C 19.777344 16.378906 19.761719 16.464844 19.8125 16.539062 Z M 19.832031 22.605469 L 21.046875 23.820312 C 21.101562 23.875 21.191406 23.894531 21.261719 23.855469 L 22.230469 23.339844 C 22.425781 23.445312 22.621094 23.515625 22.835938 23.589844 L 23.089844 24.429688 L 16.773438 24.429688 C 17.414062 24.019531 17.84375 23.320312 17.84375 22.515625 L 17.84375 19.347656 L 18.902344 19.347656 L 18.902344 20.3125 C 18.902344 20.386719 18.953125 20.457031 19.027344 20.476562 L 20.082031 20.796875 C 20.152344 21.011719 20.242188 21.207031 20.332031 21.40625 L 19.8125 22.371094 C 19.761719 22.460938 19.777344 22.550781 19.832031 22.605469 Z M 8.988281 12.921875 L 4.691406 12.921875 C 4.28125 12.921875 3.960938 12.601562 3.960938 12.191406 C 3.960938 11.777344 4.28125 11.457031 4.691406 11.457031 L 10.078125 11.457031 C 10.582031 11.457031 10.992188 11.042969 10.992188 10.542969 C 10.992188 10.042969 10.582031 9.632812 10.078125 9.632812 L 7.894531 9.632812 C 7.214844 9.632812 6.679688 9.078125 6.679688 8.414062 C 6.679688 7.734375 7.234375 7.199219 7.894531 7.199219 L 11.691406 7.199219 L 11.691406 15.464844 C 11.617188 15.484375 11.527344 15.5 11.4375 15.5 L 10.0625 15.5 L 10.0625 14.015625 C 10.078125 13.40625 9.597656 12.921875 8.988281 12.921875 Z M 25.503906 1.183594 L 25.503906 2.078125 L 12.046875 2.078125 L 12.046875 1.183594 C 12.046875 0.878906 12.296875 0.613281 12.621094 0.613281 L 24.96875 0.613281 C 25.039062 0.613281 25.109375 0.628906 25.183594 0.648438 C 25.359375 0.753906 25.503906 0.953125 25.503906 1.183594 Z M 0.863281 14.535156 C 0.863281 8.019531 5.410156 2.382812 11.726562 0.988281 C 11.707031 1.058594 11.707031 1.113281 11.707031 1.183594 L 11.707031 6.855469 L 7.894531 6.855469 C 7.035156 6.855469 6.320312 7.554688 6.320312 8.433594 C 6.320312 9.308594 7.019531 10.007812 7.894531 10.007812 L 10.078125 10.007812 C 10.382812 10.007812 10.632812 10.257812 10.632812 10.5625 C 10.632812 10.867188 10.382812 11.117188 10.078125 11.117188 L 4.710938 11.117188 C 4.121094 11.117188 3.621094 11.597656 3.621094 12.207031 C 3.621094 12.796875 4.101562 13.300781 4.710938 13.300781 L 9.003906 13.300781 C 9.417969 13.300781 9.738281 13.621094 9.738281 14.03125 L 9.738281 15.519531 L 8.359375 15.519531 C 8.074219 15.519531 7.804688 15.410156 7.609375 15.230469 C 6.984375 14.640625 6.160156 14.320312 5.285156 14.320312 C 3.457031 14.320312 1.953125 15.859375 1.953125 17.71875 L 1.953125 19.957031 C 1.222656 18.238281 0.863281 16.429688 0.863281 14.535156 Z M 2.3125 22.480469 L 2.3125 17.703125 C 2.3125 16.019531 3.65625 14.660156 5.285156 14.640625 C 6.054688 14.640625 6.785156 14.925781 7.359375 15.445312 C 7.628906 15.695312 7.96875 15.824219 8.34375 15.824219 L 11.4375 15.824219 C 11.816406 15.824219 12.15625 15.679688 12.421875 15.445312 C 12.976562 14.925781 13.710938 14.640625 14.480469 14.640625 C 14.5 14.640625 14.5 14.640625 14.515625 14.640625 C 16.164062 14.660156 17.488281 16.039062 17.488281 17.703125 L 17.488281 22.460938 C 17.488281 23.515625 16.628906 24.375 15.554688 24.375 C 14.730469 24.375 14.015625 23.855469 13.730469 23.070312 L 12.601562 20.5625 C 12.371094 20.046875 11.851562 19.707031 11.277344 19.707031 L 8.503906 19.707031 C 7.933594 19.707031 7.414062 20.046875 7.179688 20.5625 L 6.054688 23.125 C 5.785156 23.894531 5.050781 24.410156 4.246094 24.410156 C 3.171875 24.410156 2.3125 23.554688 2.3125 22.480469 Z M 14.355469 24.410156 L 5.445312 24.410156 C 5.875 24.144531 6.195312 23.75 6.375 23.25 L 7.503906 20.742188 C 7.679688 20.351562 8.074219 20.082031 8.503906 20.082031 L 11.277344 20.082031 C 11.707031 20.082031 12.117188 20.332031 12.28125 20.742188 L 13.40625 23.230469 C 13.585938 23.730469 13.925781 24.144531 14.355469 24.410156 Z M 5.355469 24.769531 C 7.269531 24.769531 21.675781 24.769531 24.125 24.769531 C 21.566406 27.132812 18.257812 28.421875 14.75 28.421875 C 11.242188 28.421875 7.933594 27.113281 5.355469 24.769531 Z M 29.136719 20.1875 L 28.117188 20.492188 C 28.0625 20.511719 28.007812 20.546875 27.992188 20.617188 C 27.917969 20.867188 27.8125 21.101562 27.6875 21.332031 C 27.652344 21.386719 27.652344 21.441406 27.6875 21.496094 L 28.1875 22.425781 L 27.148438 23.464844 L 26.21875 22.960938 C 26.167969 22.925781 26.113281 22.925781 26.058594 22.960938 C 25.824219 23.085938 25.59375 23.175781 25.34375 23.265625 C 25.289062 23.285156 25.234375 23.320312 25.21875 23.390625 L 25.109375 23.785156 L 24.929688 24.410156 C 24.894531 24.410156 23.390625 24.410156 23.464844 24.410156 L 23.160156 23.390625 C 23.140625 23.339844 23.105469 23.285156 23.035156 23.265625 C 22.785156 23.195312 22.535156 23.085938 22.320312 22.960938 C 22.265625 22.925781 22.210938 22.925781 22.15625 22.960938 L 21.226562 23.464844 L 20.1875 22.425781 L 20.691406 21.496094 C 20.726562 21.441406 20.726562 21.386719 20.691406 21.332031 C 20.566406 21.101562 20.476562 20.867188 20.386719 20.617188 C 20.367188 20.5625 20.332031 20.511719 20.261719 20.492188 L 19.242188 20.1875 L 19.242188 18.722656 L 20.261719 18.417969 C 20.316406 18.398438 20.367188 18.363281 20.386719 18.292969 C 20.457031 18.042969 20.566406 17.808594 20.691406 17.574219 C 20.726562 17.523438 20.726562 17.46875 20.691406 17.414062 L 20.1875 16.484375 L 21.226562 15.445312 L 22.15625 15.949219 C 22.210938 15.984375 22.265625 15.984375 22.320312 15.949219 C 22.550781 15.824219 22.785156 15.734375 23.035156 15.644531 C 23.089844 15.625 23.140625 15.589844 23.160156 15.519531 L 23.464844 14.5 L 24.929688 14.5 L 25.234375 15.519531 C 25.253906 15.570312 25.289062 15.625 25.359375 15.644531 C 25.613281 15.714844 25.863281 15.824219 26.078125 15.949219 C 26.128906 15.984375 26.183594 15.984375 26.238281 15.949219 L 27.167969 15.445312 L 28.207031 16.484375 L 27.703125 17.414062 C 27.667969 17.46875 27.667969 17.523438 27.703125 17.574219 C 27.832031 17.808594 27.917969 18.042969 28.007812 18.292969 C 28.027344 18.34375 28.0625 18.398438 28.132812 18.417969 L 28.257812 18.453125 L 29.15625 18.722656 L 29.15625 20.1875 Z M 29.136719 20.1875 " fill-opacity="1" fill-rule="nonzero"/></g><path fill="#31ac7d" d="M 15.035156 3.742188 L 13.390625 3.742188 C 13.300781 3.742188 13.210938 3.816406 13.210938 3.921875 C 13.210938 4.011719 13.28125 4.101562 13.390625 4.101562 L 15.035156 4.101562 C 15.125 4.101562 15.214844 4.03125 15.214844 3.921875 C 15.214844 3.832031 15.144531 3.742188 15.035156 3.742188 Z M 15.035156 3.742188 " fill-opacity="1" fill-rule="nonzero"/><path fill="#31ac7d" d="M 15.75 4.101562 L 16.429688 4.101562 C 16.519531 4.101562 16.609375 4.03125 16.609375 3.921875 C 16.609375 3.832031 16.539062 3.742188 16.429688 3.742188 L 15.75 3.742188 C 15.660156 3.742188 15.574219 3.816406 15.574219 3.921875 C 15.589844 4.03125 15.660156 4.101562 15.75 4.101562 Z M 15.75 4.101562 " fill-opacity="1" fill-rule="nonzero"/><path fill="#31ac7d" d="M 15.035156 4.460938 L 13.390625 4.460938 C 13.300781 4.460938 13.210938 4.53125 13.210938 4.636719 C 13.210938 4.726562 13.28125 4.816406 13.390625 4.816406 L 15.035156 4.816406 C 15.125 4.816406 15.214844 4.746094 15.214844 4.636719 C 15.214844 4.53125 15.144531 4.460938 15.035156 4.460938 Z M 15.035156 4.460938 " fill-opacity="1" fill-rule="nonzero"/><path fill="#31ac7d" d="M 15.75 4.816406 L 16.429688 4.816406 C 16.519531 4.816406 16.609375 4.746094 16.609375 4.636719 C 16.609375 4.550781 16.539062 4.460938 16.429688 4.460938 L 15.75 4.460938 C 15.660156 4.460938 15.574219 4.53125 15.574219 4.636719 C 15.589844 4.726562 15.660156 4.816406 15.75 4.816406 Z M 15.75 4.816406 " fill-opacity="1" fill-rule="nonzero"/><path fill="#31ac7d" d="M 15.949219 5.640625 C 15.949219 5.730469 16.019531 5.820312 16.128906 5.820312 L 17.773438 5.820312 C 17.863281 5.820312 17.953125 5.746094 17.953125 5.640625 C 17.953125 5.550781 17.882812 5.460938 17.773438 5.460938 L 16.128906 5.460938 C 16.039062 5.460938 15.949219 5.53125 15.949219 5.640625 Z M 15.949219 5.640625 " fill-opacity="1" fill-rule="nonzero"/><path fill="#31ac7d" d="M 18.613281 5.800781 L 20.261719 5.800781 C 20.351562 5.800781 20.441406 5.730469 20.441406 5.621094 C 20.441406 5.53125 20.367188 5.445312 20.261719 5.445312 L 18.613281 5.445312 C 18.523438 5.445312 18.4375 5.515625 18.4375 5.621094 C 18.4375 5.730469 18.507812 5.800781 18.613281 5.800781 Z M 18.613281 5.800781 " fill-opacity="1" fill-rule="nonzero"/><path fill="#31ac7d" d="M 21.085938 5.800781 L 24.160156 5.800781 C 24.25 5.800781 24.339844 5.730469 24.339844 5.621094 C 24.339844 5.53125 24.269531 5.445312 24.160156 5.445312 L 21.085938 5.445312 C 20.996094 5.445312 20.90625 5.515625 20.90625 5.621094 C 20.90625 5.730469 20.996094 5.800781 21.085938 5.800781 Z M 21.085938 5.800781 " fill-opacity="1" fill-rule="nonzero"/><path fill="#31ac7d" d="M 15.949219 6.589844 C 15.949219 6.679688 16.019531 6.769531 16.128906 6.769531 L 20.457031 6.769531 C 20.546875 6.769531 20.636719 6.695312 20.636719 6.589844 C 20.636719 6.5 20.566406 6.410156 20.457031 6.410156 L 16.128906 6.410156 C 16.039062 6.429688 15.949219 6.5 15.949219 6.589844 Z M 15.949219 6.589844 " fill-opacity="1" fill-rule="nonzero"/><path fill="#31ac7d" d="M 21.085938 6.769531 L 23.375 6.769531 C 23.464844 6.769531 23.554688 6.695312 23.554688 6.589844 C 23.554688 6.5 23.480469 6.410156 23.375 6.410156 L 21.085938 6.410156 C 20.996094 6.410156 20.90625 6.480469 20.90625 6.589844 C 20.90625 6.695312 20.996094 6.769531 21.085938 6.769531 Z M 21.085938 6.769531 " fill-opacity="1" fill-rule="nonzero"/><path fill="#31ac7d" d="M 18.9375 7.160156 L 16.128906 7.160156 C 16.039062 7.160156 15.949219 7.234375 15.949219 7.339844 C 15.949219 7.429688 16.019531 7.519531 16.128906 7.519531 L 18.9375 7.519531 C 19.027344 7.519531 19.117188 7.449219 19.117188 7.339844 C 19.117188 7.234375 19.042969 7.160156 18.9375 7.160156 Z M 18.9375 7.160156 " fill-opacity="1" fill-rule="nonzero"/><path fill="#31ac7d" d="M 22.660156 7.339844 C 22.660156 7.25 22.585938 7.160156 22.480469 7.160156 L 19.671875 7.160156 C 19.582031 7.160156 19.492188 7.234375 19.492188 7.339844 C 19.492188 7.429688 19.5625 7.519531 19.671875 7.519531 L 22.480469 7.519531 C 22.585938 7.519531 22.660156 7.429688 22.660156 7.339844 Z M 22.660156 7.339844 " fill-opacity="1" fill-rule="nonzero"/><path fill="#31ac7d" d="M 15.035156 8.539062 L 13.390625 8.539062 C 13.300781 8.539062 13.210938 8.609375 13.210938 8.71875 C 13.210938 8.808594 13.28125 8.898438 13.390625 8.898438 L 15.035156 8.898438 C 15.125 8.898438 15.214844 8.824219 15.214844 8.71875 C 15.214844 8.609375 15.144531 8.539062 15.035156 8.539062 Z M 15.035156 8.539062 " fill-opacity="1" fill-rule="nonzero"/><path fill="#31ac7d" d="M 15.75 8.898438 L 16.429688 8.898438 C 16.519531 8.898438 16.609375 8.824219 16.609375 8.71875 C 16.609375 8.628906 16.539062 8.539062 16.429688 8.539062 L 15.75 8.539062 C 15.660156 8.539062 15.574219 8.609375 15.574219 8.71875 C 15.589844 8.808594 15.660156 8.898438 15.75 8.898438 Z M 15.75 8.898438 " fill-opacity="1" fill-rule="nonzero"/><path fill="#31ac7d" d="M 15.035156 9.253906 L 13.390625 9.253906 C 13.300781 9.253906 13.210938 9.328125 13.210938 9.433594 C 13.210938 9.523438 13.28125 9.613281 13.390625 9.613281 L 15.035156 9.613281 C 15.125 9.613281 15.214844 9.542969 15.214844 9.433594 C 15.214844 9.328125 15.144531 9.253906 15.035156 9.253906 Z M 15.035156 9.253906 " fill-opacity="1" fill-rule="nonzero"/><path fill="#31ac7d" d="M 16.609375 9.433594 C 16.609375 9.34375 16.539062 9.253906 16.429688 9.253906 L 15.75 9.253906 C 15.660156 9.253906 15.574219 9.328125 15.574219 9.433594 C 15.574219 9.523438 15.644531 9.613281 15.75 9.613281 L 16.429688 9.613281 C 16.539062 9.59375 16.609375 9.523438 16.609375 9.433594 Z M 16.609375 9.433594 " fill-opacity="1" fill-rule="nonzero"/><path fill="#31ac7d" d="M 15.949219 10.417969 C 15.949219 10.507812 16.019531 10.597656 16.128906 10.597656 L 17.773438 10.597656 C 17.863281 10.597656 17.953125 10.527344 17.953125 10.417969 C 17.953125 10.328125 17.882812 10.238281 17.773438 10.238281 L 16.128906 10.238281 C 16.039062 10.238281 15.949219 10.328125 15.949219 10.417969 Z M 15.949219 10.417969 " fill-opacity="1" fill-rule="nonzero"/><path fill="#31ac7d" d="M 18.4375 10.417969 C 18.4375 10.507812 18.507812 10.597656 18.613281 10.597656 L 20.261719 10.597656 C 20.351562 10.597656 20.441406 10.527344 20.441406 10.417969 C 20.441406 10.328125 20.367188 10.238281 20.261719 10.238281 L 18.613281 10.238281 C 18.507812 10.238281 18.4375 10.328125 18.4375 10.417969 Z M 18.4375 10.417969 " fill-opacity="1" fill-rule="nonzero"/><path fill="#31ac7d" d="M 24.160156 10.238281 L 21.085938 10.238281 C 20.996094 10.238281 20.90625 10.3125 20.90625 10.417969 C 20.90625 10.507812 20.976562 10.597656 21.085938 10.597656 L 24.160156 10.597656 C 24.25 10.597656 24.339844 10.527344 24.339844 10.417969 C 24.339844 10.328125 24.25 10.238281 24.160156 10.238281 Z M 24.160156 10.238281 " fill-opacity="1" fill-rule="nonzero"/><path fill="#31ac7d" d="M 16.128906 11.5625 L 20.457031 11.5625 C 20.546875 11.5625 20.636719 11.492188 20.636719 11.382812 C 20.636719 11.296875 20.566406 11.207031 20.457031 11.207031 L 16.128906 11.207031 C 16.039062 11.207031 15.949219 11.277344 15.949219 11.382812 C 15.949219 11.492188 16.039062 11.5625 16.128906 11.5625 Z M 16.128906 11.5625 " fill-opacity="1" fill-rule="nonzero"/><path fill="#31ac7d" d="M 23.390625 11.207031 L 21.085938 11.207031 C 20.996094 11.207031 20.90625 11.277344 20.90625 11.382812 C 20.90625 11.472656 20.976562 11.5625 21.085938 11.5625 L 23.375 11.5625 C 23.464844 11.5625 23.554688 11.492188 23.554688 11.382812 C 23.554688 11.296875 23.480469 11.207031 23.390625 11.207031 Z M 23.390625 11.207031 " fill-opacity="1" fill-rule="nonzero"/><path fill="#31ac7d" d="M 18.9375 11.957031 L 16.128906 11.957031 C 16.039062 11.957031 15.949219 12.027344 15.949219 12.136719 C 15.949219 12.226562 16.019531 12.316406 16.128906 12.316406 L 18.9375 12.316406 C 19.027344 12.316406 19.117188 12.242188 19.117188 12.136719 C 19.117188 12.027344 19.042969 11.957031 18.9375 11.957031 Z M 18.9375 11.957031 " fill-opacity="1" fill-rule="nonzero"/><path fill="#31ac7d" d="M 22.660156 12.136719 C 22.660156 12.046875 22.585938 11.957031 22.480469 11.957031 L 19.671875 11.957031 C 19.582031 11.957031 19.492188 12.027344 19.492188 12.136719 C 19.492188 12.226562 19.5625 12.316406 19.671875 12.316406 L 22.480469 12.316406 C 22.585938 12.296875 22.660156 12.226562 22.660156 12.136719 Z M 22.660156 12.136719 " fill-opacity="1" fill-rule="nonzero"/><path fill="#31ac7d" d="M 21.085938 19.507812 L 22.820312 20.3125 L 22.820312 19.882812 L 21.53125 19.292969 L 21.53125 19.242188 L 22.820312 18.648438 L 22.820312 18.238281 L 21.085938 19.042969 Z M 21.085938 19.507812 " fill-opacity="1" fill-rule="nonzero"/><path fill="#31ac7d" d="M 23.214844 21.171875 L 23.589844 21.171875 L 25.183594 17.738281 L 24.804688 17.738281 Z M 23.214844 21.171875 " fill-opacity="1" fill-rule="nonzero"/><path fill="#31ac7d" d="M 25.558594 18.648438 L 26.863281 19.242188 L 26.863281 19.292969 L 25.558594 19.882812 L 25.558594 20.3125 L 27.3125 19.507812 L 27.3125 19.042969 L 25.558594 18.238281 Z M 25.558594 18.648438 " fill-opacity="1" fill-rule="nonzero"/></svg>