<svg xmlns="http://www.w3.org/2000/svg" xmlns:xlink="http://www.w3.org/1999/xlink" width="40" zoomAndPan="magnify" viewBox="0 0 30 30.000001" height="40" preserveAspectRatio="xMidYMid meet" version="1.0"><defs><clipPath id="d72e6919de"><path d="M 0.484375 0 L 29.515625 0 L 29.515625 29.03125 L 0.484375 29.03125 Z M 0.484375 0 " clip-rule="nonzero"/></clipPath></defs><g clip-path="url(#d72e6919de)"><path fill="#31ac7d" d="M 12.375 11.875 L 8.492188 14.160156 C 8.382812 14.226562 8.3125 14.34375 8.3125 14.472656 L 8.3125 18.949219 C 8.3125 19.074219 8.382812 19.195312 8.492188 19.257812 L 12.375 21.546875 C 12.375 21.546875 12.378906 21.546875 12.378906 21.546875 C 12.433594 21.582031 12.496094 21.597656 12.558594 21.597656 C 12.621094 21.597656 12.6875 21.578125 12.742188 21.546875 L 16.625 19.257812 C 16.734375 19.195312 16.804688 19.078125 16.804688 18.949219 L 16.804688 14.472656 C 16.804688 14.34375 16.734375 14.226562 16.625 14.164062 L 12.742188 11.875 C 12.628906 11.808594 12.488281 11.808594 12.375 11.875 Z M 12.558594 12.605469 L 15.730469 14.472656 L 12.558594 16.339844 L 9.386719 14.472656 Z M 9.035156 15.105469 L 12.199219 16.96875 L 12.199219 20.601562 L 9.035156 18.742188 Z M 16.082031 18.742188 L 12.921875 20.601562 L 12.921875 16.96875 L 16.082031 15.105469 Z M 28.925781 6.097656 L 27.570312 5.804688 C 27.558594 5.804688 27.558594 5.800781 27.554688 5.792969 C 27.480469 5.574219 27.390625 5.359375 27.289062 5.148438 C 27.285156 5.136719 27.285156 5.136719 27.289062 5.128906 L 28.042969 3.960938 C 28.234375 3.664062 28.195312 3.28125 27.945312 3.03125 L 26.484375 1.570312 C 26.234375 1.320312 25.851562 1.28125 25.554688 1.472656 L 24.386719 2.222656 C 24.378906 2.230469 24.375 2.230469 24.367188 2.226562 C 24.15625 2.125 23.941406 2.035156 23.722656 1.957031 C 23.710938 1.957031 23.710938 1.953125 23.710938 1.941406 L 23.417969 0.585938 C 23.34375 0.242188 23.042969 0 22.6875 0 L 20.625 0 C 20.273438 0 19.972656 0.242188 19.898438 0.585938 L 19.605469 1.941406 C 19.605469 1.953125 19.601562 1.957031 19.589844 1.957031 C 19.375 2.035156 19.15625 2.125 18.949219 2.226562 C 18.9375 2.230469 18.9375 2.230469 18.925781 2.222656 L 17.761719 1.472656 C 17.464844 1.28125 17.082031 1.320312 16.832031 1.570312 L 15.371094 3.03125 C 15.121094 3.28125 15.078125 3.664062 15.273438 3.960938 L 15.546875 4.390625 L 6.28125 4.390625 C 5.535156 4.390625 4.929688 4.992188 4.929688 5.738281 L 4.929688 13.992188 L 0.667969 16.394531 C 0.554688 16.460938 0.484375 16.578125 0.484375 16.710938 C 0.484375 16.839844 0.554688 16.960938 0.667969 17.027344 L 4.929688 19.425781 L 4.929688 27.683594 C 4.929688 28.425781 5.535156 29.03125 6.28125 29.03125 L 18.839844 29.03125 C 19.582031 29.03125 20.1875 28.425781 20.1875 27.683594 L 20.1875 19.425781 L 24.449219 17.027344 C 24.5625 16.960938 24.632812 16.839844 24.632812 16.710938 C 24.632812 16.582031 24.5625 16.460938 24.449219 16.394531 L 23.066406 15.617188 C 23.242188 15.515625 23.371094 15.339844 23.417969 15.128906 L 23.710938 13.773438 C 23.710938 13.761719 23.714844 13.757812 23.726562 13.753906 C 23.941406 13.679688 24.160156 13.589844 24.367188 13.488281 C 24.378906 13.484375 24.378906 13.484375 24.390625 13.488281 L 25.554688 14.242188 C 25.851562 14.433594 26.234375 14.394531 26.484375 14.144531 L 27.945312 12.683594 C 28.195312 12.433594 28.238281 12.050781 28.042969 11.753906 L 27.292969 10.585938 C 27.285156 10.578125 27.285156 10.578125 27.289062 10.566406 C 27.390625 10.355469 27.480469 10.140625 27.558594 9.921875 C 27.5625 9.910156 27.5625 9.910156 27.574219 9.910156 L 28.929688 9.617188 C 29.277344 9.542969 29.519531 9.242188 29.519531 8.886719 L 29.519531 6.824219 C 29.515625 6.472656 29.273438 6.171875 28.925781 6.097656 Z M 6.28125 5.113281 L 16.015625 5.113281 L 16.027344 5.128906 C 16.03125 5.136719 16.03125 5.140625 16.027344 5.148438 C 15.925781 5.359375 15.835938 5.574219 15.761719 5.792969 C 15.757812 5.804688 15.757812 5.804688 15.746094 5.804688 L 14.386719 6.097656 C 14.042969 6.171875 13.800781 6.472656 13.800781 6.828125 L 13.800781 7.511719 L 10.65625 7.511719 C 10.390625 7.511719 10.171875 7.347656 10.09375 7.09375 L 9.898438 6.460938 C 9.851562 6.308594 9.710938 6.203125 9.550781 6.203125 L 5.652344 6.203125 L 5.652344 5.738281 C 5.652344 5.394531 5.933594 5.113281 6.28125 5.113281 Z M 15.371094 12.683594 L 16.832031 14.144531 C 17.082031 14.394531 17.464844 14.433594 17.761719 14.242188 L 18.929688 13.492188 C 18.9375 13.484375 18.9375 13.484375 18.949219 13.488281 C 19.117188 13.570312 19.289062 13.644531 19.464844 13.710938 L 19.464844 19.007812 L 12.558594 22.898438 L 5.652344 19.007812 L 5.652344 6.925781 L 9.285156 6.925781 L 9.402344 7.304688 C 9.574219 7.859375 10.078125 8.234375 10.660156 8.234375 L 13.800781 8.234375 L 13.800781 8.890625 C 13.800781 9.242188 14.042969 9.542969 14.390625 9.617188 L 15.746094 9.910156 C 15.757812 9.910156 15.757812 9.914062 15.761719 9.925781 C 15.839844 10.140625 15.929688 10.359375 16.027344 10.566406 C 16.035156 10.578125 16.035156 10.578125 16.027344 10.589844 L 15.273438 11.753906 C 15.082031 12.050781 15.121094 12.433594 15.371094 12.683594 Z M 1.582031 16.710938 L 4.929688 14.824219 L 4.929688 18.597656 Z M 18.839844 28.308594 L 6.28125 28.308594 C 5.933594 28.308594 5.652344 28.027344 5.652344 27.683594 L 5.652344 27.058594 L 19.464844 27.058594 L 19.464844 27.683594 C 19.464844 28.027344 19.183594 28.308594 18.839844 28.308594 Z M 19.464844 26.335938 L 5.652344 26.335938 L 5.652344 19.835938 L 12.382812 23.625 C 12.4375 23.65625 12.496094 23.671875 12.558594 23.671875 C 12.621094 23.671875 12.679688 23.65625 12.738281 23.625 L 19.464844 19.835938 Z M 20.1875 18.597656 L 20.1875 15.574219 C 20.3125 15.664062 20.460938 15.714844 20.625 15.714844 L 21.769531 15.714844 L 23.535156 16.710938 Z M 28.792969 8.890625 C 28.792969 8.902344 28.789062 8.910156 28.777344 8.910156 L 27.421875 9.203125 C 27.164062 9.257812 26.960938 9.4375 26.875 9.683594 C 26.804688 9.878906 26.726562 10.070312 26.636719 10.253906 C 26.523438 10.488281 26.542969 10.761719 26.683594 10.980469 L 27.4375 12.144531 C 27.441406 12.15625 27.441406 12.164062 27.433594 12.171875 L 25.972656 13.632812 C 25.964844 13.640625 25.957031 13.644531 25.945312 13.636719 L 24.78125 12.882812 C 24.5625 12.742188 24.289062 12.726562 24.054688 12.839844 C 23.867188 12.929688 23.675781 13.007812 23.484375 13.074219 C 23.238281 13.160156 23.058594 13.363281 23.003906 13.621094 L 22.710938 14.976562 C 22.710938 14.988281 22.703125 14.992188 22.691406 14.992188 L 20.625 14.992188 C 20.613281 14.992188 20.605469 14.988281 20.605469 14.976562 L 20.3125 13.621094 C 20.257812 13.363281 20.078125 13.160156 19.832031 13.074219 C 19.636719 13.007812 19.449219 12.929688 19.261719 12.839844 C 19.160156 12.789062 19.046875 12.765625 18.9375 12.765625 C 18.796875 12.765625 18.660156 12.804688 18.535156 12.882812 L 17.371094 13.636719 C 17.359375 13.644531 17.351562 13.644531 17.34375 13.632812 L 15.882812 12.171875 C 15.875 12.164062 15.871094 12.15625 15.878906 12.144531 L 16.632812 10.980469 C 16.773438 10.761719 16.792969 10.488281 16.675781 10.253906 C 16.589844 10.070312 16.507812 9.878906 16.441406 9.683594 C 16.355469 9.4375 16.152344 9.257812 15.894531 9.203125 L 14.539062 8.910156 C 14.527344 8.910156 14.523438 8.902344 14.523438 8.890625 L 14.523438 6.824219 C 14.523438 6.8125 14.527344 6.808594 14.539062 6.804688 L 15.894531 6.511719 C 16.152344 6.457031 16.355469 6.277344 16.441406 6.03125 C 16.507812 5.839844 16.589844 5.648438 16.675781 5.460938 C 16.792969 5.226562 16.773438 4.953125 16.632812 4.734375 L 15.878906 3.570312 C 15.871094 3.558594 15.875 3.550781 15.882812 3.542969 L 17.34375 2.082031 C 17.351562 2.074219 17.359375 2.074219 17.371094 2.078125 L 18.535156 2.832031 C 18.753906 2.972656 19.027344 2.992188 19.261719 2.878906 C 19.445312 2.789062 19.636719 2.710938 19.832031 2.640625 C 20.078125 2.554688 20.257812 2.351562 20.3125 2.09375 L 20.605469 0.738281 C 20.605469 0.726562 20.613281 0.722656 20.625 0.722656 L 22.691406 0.722656 C 22.703125 0.722656 22.710938 0.726562 22.710938 0.738281 L 23.003906 2.09375 C 23.058594 2.351562 23.238281 2.554688 23.484375 2.640625 C 23.679688 2.710938 23.871094 2.789062 24.054688 2.878906 C 24.289062 2.992188 24.5625 2.972656 24.78125 2.832031 L 25.945312 2.078125 C 25.957031 2.074219 25.964844 2.074219 25.972656 2.082031 L 27.433594 3.542969 C 27.441406 3.550781 27.445312 3.558594 27.4375 3.570312 L 26.683594 4.734375 C 26.542969 4.953125 26.523438 5.226562 26.640625 5.460938 C 26.726562 5.648438 26.808594 5.835938 26.875 6.03125 C 26.960938 6.277344 27.164062 6.457031 27.421875 6.511719 L 28.777344 6.804688 C 28.789062 6.804688 28.792969 6.8125 28.792969 6.824219 Z M 21.65625 3.585938 C 19.300781 3.585938 17.386719 5.5 17.386719 7.855469 C 17.386719 10.214844 19.300781 12.128906 21.65625 12.128906 C 24.015625 12.128906 25.929688 10.214844 25.929688 7.855469 C 25.929688 5.5 24.015625 3.585938 21.65625 3.585938 Z M 21.65625 11.40625 C 19.699219 11.40625 18.109375 9.816406 18.109375 7.859375 C 18.109375 5.902344 19.703125 4.308594 21.65625 4.308594 C 23.613281 4.308594 25.207031 5.902344 25.207031 7.859375 C 25.207031 9.816406 23.617188 11.40625 21.65625 11.40625 Z M 24.433594 7.289062 C 24.433594 6.777344 24.015625 6.359375 23.5 6.359375 L 22.710938 6.359375 C 22.511719 6.359375 22.351562 6.519531 22.351562 6.71875 L 22.351562 8.996094 C 22.351562 9.195312 22.511719 9.355469 22.710938 9.355469 C 22.914062 9.355469 23.074219 9.195312 23.074219 8.996094 L 23.074219 8.21875 L 23.1875 8.21875 L 23.757812 9.179688 C 23.828125 9.292969 23.949219 9.359375 24.070312 9.359375 C 24.132812 9.359375 24.195312 9.339844 24.253906 9.304688 C 24.425781 9.203125 24.484375 8.984375 24.378906 8.8125 L 23.957031 8.097656 C 24.238281 7.941406 24.433594 7.636719 24.433594 7.289062 Z M 23.710938 7.289062 C 23.710938 7.402344 23.613281 7.496094 23.5 7.496094 L 23.074219 7.496094 L 23.074219 7.082031 L 23.5 7.082031 C 23.613281 7.082031 23.710938 7.175781 23.710938 7.289062 Z M 20.707031 6.558594 C 20.644531 6.4375 20.519531 6.359375 20.382812 6.359375 C 20.246094 6.359375 20.121094 6.433594 20.058594 6.558594 L 18.921875 8.835938 C 18.832031 9.011719 18.90625 9.230469 19.082031 9.320312 C 19.261719 9.410156 19.480469 9.335938 19.570312 9.15625 L 19.753906 8.785156 L 21.011719 8.785156 L 21.199219 9.15625 C 21.261719 9.285156 21.390625 9.359375 21.523438 9.359375 C 21.578125 9.359375 21.632812 9.347656 21.683594 9.320312 C 21.863281 9.230469 21.933594 9.011719 21.84375 8.835938 Z M 20.117188 8.0625 L 20.382812 7.527344 L 20.652344 8.0625 Z M 20.117188 8.0625 " fill-opacity="1" fill-rule="nonzero"/></g></svg>