<svg xmlns="http://www.w3.org/2000/svg" xmlns:xlink="http://www.w3.org/1999/xlink" width="40" zoomAndPan="magnify" viewBox="0 0 30 30.000001" height="40" preserveAspectRatio="xMidYMid meet" version="1.0"><defs><clipPath id="f90b03f8cd"><path d="M 0.484375 0 L 29.515625 0 L 29.515625 29.03125 L 0.484375 29.03125 Z M 0.484375 0 " clip-rule="nonzero"/></clipPath></defs><g clip-path="url(#f90b03f8cd)"><path fill="#31ac7d" d="M 29.371094 9.332031 C 29.457031 9.289062 29.507812 9.203125 29.507812 9.109375 L 29.507812 3.207031 C 29.507812 3.117188 29.453125 3.03125 29.371094 2.988281 L 23.46875 0.0351562 C 23.402344 0 23.316406 0 23.25 0.0351562 L 17.347656 2.988281 C 17.261719 3.03125 17.214844 3.117188 17.214844 3.207031 L 17.214844 5.914062 L 12.785156 5.914062 L 12.785156 3.207031 C 12.785156 3.117188 12.730469 3.03125 12.652344 2.988281 L 6.75 0.0351562 C 6.683594 0 6.597656 0 6.53125 0.0351562 L 0.628906 2.988281 C 0.546875 3.03125 0.492188 3.117188 0.492188 3.207031 L 0.492188 9.109375 C 0.492188 9.203125 0.546875 9.289062 0.628906 9.332031 L 3.933594 10.984375 L 3.933594 18.058594 L 0.628906 19.714844 C 0.542969 19.757812 0.492188 19.84375 0.492188 19.933594 L 0.492188 25.835938 C 0.492188 25.929688 0.546875 26.015625 0.628906 26.058594 L 6.53125 29.007812 C 6.566406 29.027344 6.601562 29.03125 6.640625 29.03125 C 6.675781 29.03125 6.714844 29.027344 6.75 29.007812 L 12.652344 26.058594 C 12.738281 26.015625 12.785156 25.929688 12.785156 25.835938 L 12.785156 23.132812 L 17.214844 23.132812 L 17.214844 25.835938 C 17.214844 25.929688 17.269531 26.015625 17.347656 26.058594 L 23.25 29.007812 C 23.285156 29.027344 23.324219 29.03125 23.359375 29.03125 C 23.398438 29.03125 23.433594 29.027344 23.46875 29.007812 L 29.371094 26.058594 C 29.457031 26.015625 29.507812 25.929688 29.507812 25.835938 L 29.507812 19.933594 C 29.507812 19.84375 29.453125 19.757812 29.371094 19.714844 L 26.066406 18.054688 L 26.066406 10.984375 Z M 26.066406 10.429688 L 26.066406 7.632812 L 25.574219 7.632812 L 25.574219 10.675781 L 23.605469 11.660156 L 23.605469 6.308594 L 29.015625 3.601562 L 29.015625 8.957031 Z M 23.359375 0.535156 L 28.714844 3.207031 L 23.359375 5.882812 L 18.007812 3.207031 Z M 17.703125 3.609375 L 23.113281 6.3125 L 23.113281 11.667969 L 20.746094 10.488281 C 20.195312 9.835938 19.390625 9.421875 18.515625 9.367188 L 17.703125 8.960938 L 17.703125 6.40625 L 19.917969 6.40625 L 19.917969 5.914062 L 17.703125 5.914062 Z M 19.535156 18.367188 L 18.972656 17.457031 C 18.109375 16.082031 16.621094 15.257812 15 15.257812 C 13.378906 15.257812 11.890625 16.082031 11.027344 17.457031 L 10.464844 18.367188 C 10.136719 18.882812 9.585938 19.191406 8.976562 19.191406 C 8.398438 19.191406 7.875 18.921875 7.542969 18.453125 C 7.210938 17.980469 7.125 17.402344 7.316406 16.855469 L 9.136719 11.660156 C 9.515625 10.578125 10.542969 9.847656 11.6875 9.847656 L 18.320312 9.847656 C 19.46875 9.847656 20.496094 10.574219 20.871094 11.660156 L 22.683594 16.855469 C 22.875 17.402344 22.792969 17.980469 22.457031 18.453125 C 22.125 18.925781 21.601562 19.191406 21.023438 19.191406 C 20.414062 19.191406 19.863281 18.882812 19.535156 18.367188 Z M 17.214844 6.40625 L 17.214844 9.109375 C 17.214844 9.203125 17.269531 9.289062 17.347656 9.332031 L 17.398438 9.355469 L 12.597656 9.355469 L 12.644531 9.332031 C 12.730469 9.289062 12.78125 9.203125 12.78125 9.109375 L 12.78125 6.40625 Z M 12.296875 6.40625 L 12.296875 8.957031 L 11.484375 9.363281 C 10.605469 9.417969 9.804688 9.828125 9.253906 10.480469 L 6.886719 11.660156 L 6.886719 6.308594 L 12.296875 3.601562 L 12.296875 5.914062 L 10.082031 5.914062 L 10.082031 6.40625 Z M 6.640625 0.535156 L 11.992188 3.207031 L 6.640625 5.882812 L 1.285156 3.207031 Z M 0.984375 8.957031 L 0.984375 3.609375 L 6.394531 6.3125 L 6.394531 11.667969 L 4.425781 10.683594 L 4.425781 7.632812 L 3.933594 7.632812 L 3.933594 10.429688 Z M 4.425781 11.230469 L 6.53125 12.28125 C 6.566406 12.300781 6.601562 12.304688 6.640625 12.304688 C 6.675781 12.304688 6.714844 12.300781 6.75 12.28125 L 8.753906 11.28125 C 8.722656 11.351562 8.691406 11.421875 8.667969 11.496094 L 6.847656 16.6875 C 6.835938 16.71875 6.824219 16.757812 6.816406 16.789062 L 6.75 16.757812 C 6.683594 16.71875 6.597656 16.71875 6.53125 16.757812 L 4.425781 17.808594 Z M 4.425781 19.929688 L 4.425781 18.359375 L 6.640625 17.253906 L 6.726562 17.296875 C 6.695312 17.800781 6.832031 18.304688 7.136719 18.734375 C 7.566406 19.339844 8.230469 19.683594 8.96875 19.683594 C 9.515625 19.683594 10.027344 19.492188 10.425781 19.148438 L 11.988281 19.929688 L 6.640625 22.601562 L 1.285156 19.929688 L 3.933594 18.605469 L 3.933594 19.929688 Z M 0.984375 20.328125 L 6.394531 23.03125 L 6.394531 28.386719 L 0.984375 25.683594 Z M 12.296875 25.675781 L 6.886719 28.378906 L 6.886719 23.027344 L 12.296875 20.320312 L 12.296875 22.632812 L 10.082031 22.632812 L 10.082031 23.125 L 12.296875 23.125 Z M 12.785156 22.632812 L 12.785156 19.929688 C 12.785156 19.835938 12.730469 19.75 12.652344 19.707031 L 10.777344 18.773438 C 10.8125 18.722656 10.84375 18.675781 10.875 18.625 L 11.441406 17.714844 C 12.210938 16.480469 13.542969 15.75 14.992188 15.75 C 16.445312 15.75 17.777344 16.484375 18.546875 17.714844 L 19.113281 18.625 C 19.144531 18.675781 19.179688 18.722656 19.210938 18.773438 L 17.335938 19.707031 C 17.25 19.75 17.199219 19.835938 17.199219 19.929688 L 17.199219 22.632812 Z M 17.703125 23.125 L 19.917969 23.125 L 19.917969 22.632812 L 17.703125 22.632812 L 17.703125 20.328125 L 23.113281 23.03125 L 23.113281 28.386719 L 17.703125 25.683594 Z M 23.605469 28.378906 L 23.605469 23.027344 L 29.015625 20.320312 L 29.015625 25.675781 Z M 28.714844 19.929688 L 23.359375 22.601562 L 18.007812 19.929688 L 19.566406 19.148438 C 19.964844 19.492188 20.476562 19.683594 21.023438 19.683594 C 21.761719 19.683594 22.433594 19.339844 22.855469 18.734375 C 23.164062 18.304688 23.296875 17.800781 23.269531 17.296875 L 23.355469 17.253906 L 25.566406 18.359375 L 25.566406 19.929688 L 26.058594 19.929688 L 26.058594 18.605469 Z M 25.574219 17.808594 L 23.46875 16.757812 C 23.402344 16.71875 23.316406 16.71875 23.25 16.757812 L 23.183594 16.789062 C 23.167969 16.757812 23.164062 16.71875 23.152344 16.6875 L 21.332031 11.496094 C 21.308594 11.421875 21.277344 11.347656 21.246094 11.28125 L 23.25 12.28125 C 23.285156 12.300781 23.324219 12.304688 23.359375 12.304688 C 23.398438 12.304688 23.433594 12.300781 23.46875 12.28125 L 25.574219 11.230469 Z M 25.574219 17.808594 " fill-opacity="1" fill-rule="nonzero"/></g><path fill="#31ac7d" d="M 12.296875 11.570312 L 11.804688 11.570312 L 11.804688 12.796875 L 10.574219 12.796875 L 10.574219 13.289062 L 11.804688 13.289062 L 11.804688 14.519531 L 12.296875 14.519531 L 12.296875 13.289062 L 13.523438 13.289062 L 13.523438 12.796875 L 12.296875 12.796875 Z M 12.296875 11.570312 " fill-opacity="1" fill-rule="nonzero"/><path fill="#31ac7d" d="M 17.457031 11.324219 L 18.441406 11.324219 L 18.441406 11.816406 L 17.457031 11.816406 Z M 17.457031 11.324219 " fill-opacity="1" fill-rule="nonzero"/><path fill="#31ac7d" d="M 15.984375 12.796875 L 16.96875 12.796875 L 16.96875 13.289062 L 15.984375 13.289062 Z M 15.984375 12.796875 " fill-opacity="1" fill-rule="nonzero"/><path fill="#31ac7d" d="M 17.457031 14.273438 L 18.441406 14.273438 L 18.441406 14.765625 L 17.457031 14.765625 Z M 17.457031 14.273438 " fill-opacity="1" fill-rule="nonzero"/><path fill="#31ac7d" d="M 18.933594 12.796875 L 19.917969 12.796875 L 19.917969 13.289062 L 18.933594 13.289062 Z M 18.933594 12.796875 " fill-opacity="1" fill-rule="nonzero"/></svg>