<svg xmlns="http://www.w3.org/2000/svg" xmlns:xlink="http://www.w3.org/1999/xlink" width="40" zoomAndPan="magnify" viewBox="0 0 30 30.000001" height="40" preserveAspectRatio="xMidYMid meet" version="1.0"><defs><clipPath id="50e61f5fb8"><path d="M 0.484375 1.214844 L 29.515625 1.214844 L 29.515625 21 L 0.484375 21 Z M 0.484375 1.214844 " clip-rule="nonzero"/></clipPath></defs><g clip-path="url(#50e61f5fb8)"><path fill="#31ac7d" d="M 25.667969 20.558594 C 24.464844 20.558594 23.355469 19.957031 22.695312 18.949219 L 18.203125 12.09375 L 11.8125 12.09375 L 7.320312 18.953125 C 6.664062 19.957031 5.550781 20.558594 4.347656 20.558594 C 3.351562 20.558594 2.394531 20.132812 1.722656 19.394531 C 1.050781 18.65625 0.71875 17.660156 0.8125 16.667969 L 1.714844 7.203125 C 1.710938 3.925781 4.421875 1.214844 7.753906 1.214844 C 9.664062 1.214844 11.449219 2.113281 12.589844 3.632812 L 17.429688 3.632812 C 18.570312 2.113281 20.351562 1.214844 22.261719 1.214844 C 25.585938 1.214844 28.289062 3.910156 28.308594 7.230469 L 29.203125 16.667969 C 29.300781 17.660156 28.96875 18.65625 28.296875 19.394531 C 27.628906 20.132812 26.667969 20.558594 25.667969 20.558594 Z M 11.484375 10.886719 L 18.53125 10.886719 C 18.734375 10.886719 18.921875 10.988281 19.035156 11.160156 L 23.707031 18.289062 C 24.503906 19.511719 26.417969 19.664062 27.398438 18.582031 C 27.851562 18.085938 28.0625 17.445312 28 16.78125 L 27.097656 7.316406 C 27.097656 7.296875 27.097656 7.277344 27.097656 7.261719 C 27.097656 4.59375 24.929688 2.425781 22.261719 2.425781 C 20.644531 2.425781 19.144531 3.226562 18.242188 4.574219 C 18.128906 4.742188 17.941406 4.84375 17.742188 4.84375 L 12.277344 4.84375 C 12.074219 4.84375 11.886719 4.742188 11.773438 4.574219 C 10.875 3.226562 9.371094 2.425781 7.753906 2.425781 C 5.089844 2.425781 2.921875 4.59375 2.921875 7.261719 L 2.015625 16.78125 C 1.953125 17.449219 2.164062 18.085938 2.617188 18.582031 C 3.597656 19.664062 5.507812 19.511719 6.308594 18.289062 L 10.980469 11.160156 C 11.09375 10.988281 11.28125 10.886719 11.484375 10.886719 Z M 28.304688 7.261719 L 28.316406 7.261719 Z M 28.304688 7.261719 " fill-opacity="1" fill-rule="nonzero"/></g><path fill="#31ac7d" d="M 7.152344 10.886719 C 6.816406 10.886719 6.546875 10.617188 6.546875 10.28125 L 6.546875 5.445312 C 6.546875 5.113281 6.816406 4.84375 7.152344 4.84375 C 7.484375 4.84375 7.753906 5.113281 7.753906 5.445312 L 7.753906 10.28125 C 7.753906 10.617188 7.484375 10.886719 7.152344 10.886719 Z M 7.152344 10.886719 " fill-opacity="1" fill-rule="nonzero"/><path fill="#31ac7d" d="M 9.570312 8.46875 L 4.734375 8.46875 C 4.398438 8.46875 4.128906 8.199219 4.128906 7.863281 C 4.128906 7.53125 4.398438 7.261719 4.734375 7.261719 L 9.570312 7.261719 C 9.902344 7.261719 10.171875 7.53125 10.171875 7.863281 C 10.171875 8.199219 9.902344 8.46875 9.570312 8.46875 Z M 9.570312 8.46875 " fill-opacity="1" fill-rule="nonzero"/><path fill="#31ac7d" d="M 20.109375 8.503906 C 19.757812 8.152344 19.757812 7.578125 20.109375 7.222656 C 20.464844 6.867188 21.039062 6.867188 21.390625 7.222656 C 21.746094 7.574219 21.746094 8.152344 21.390625 8.503906 C 21.042969 8.855469 20.464844 8.863281 20.109375 8.503906 Z M 20.109375 8.503906 " fill-opacity="1" fill-rule="nonzero"/><path fill="#31ac7d" d="M 22.226562 6.390625 C 21.871094 6.035156 21.871094 5.460938 22.226562 5.105469 C 22.578125 4.753906 23.152344 4.753906 23.507812 5.105469 C 23.859375 5.460938 23.859375 6.035156 23.507812 6.390625 C 23.15625 6.738281 22.582031 6.746094 22.226562 6.390625 Z M 22.226562 6.390625 " fill-opacity="1" fill-rule="nonzero"/><path fill="#31ac7d" d="M 22.226562 10.621094 C 21.871094 10.265625 21.871094 9.691406 22.226562 9.335938 C 22.578125 8.984375 23.152344 8.984375 23.507812 9.335938 C 23.859375 9.691406 23.859375 10.265625 23.507812 10.621094 C 23.15625 10.96875 22.582031 10.976562 22.226562 10.621094 Z M 22.226562 10.621094 " fill-opacity="1" fill-rule="nonzero"/><path fill="#31ac7d" d="M 24.339844 8.503906 C 23.988281 8.152344 23.988281 7.578125 24.339844 7.222656 C 24.695312 6.867188 25.269531 6.867188 25.625 7.222656 C 25.976562 7.574219 25.976562 8.152344 25.625 8.503906 C 25.273438 8.855469 24.695312 8.863281 24.339844 8.503906 Z M 24.339844 8.503906 " fill-opacity="1" fill-rule="nonzero"/><path fill="#31ac7d" d="M 11.375 26.601562 C 11.238281 26.601562 11.101562 26.554688 10.988281 26.460938 L 7.359375 23.4375 C 7.222656 23.324219 7.144531 23.152344 7.144531 22.972656 C 7.144531 22.796875 7.222656 22.625 7.359375 22.511719 L 10.988281 19.488281 C 11.242188 19.273438 11.625 19.308594 11.839844 19.5625 C 12.054688 19.820312 12.019531 20.203125 11.761719 20.414062 L 8.691406 22.972656 L 11.761719 25.53125 C 12.015625 25.746094 12.050781 26.128906 11.835938 26.382812 C 11.71875 26.527344 11.546875 26.601562 11.375 26.601562 Z M 11.375 26.601562 " fill-opacity="1" fill-rule="nonzero"/><path fill="#31ac7d" d="M 18.625 26.601562 C 18.453125 26.601562 18.28125 26.527344 18.160156 26.382812 C 17.945312 26.128906 17.980469 25.746094 18.238281 25.53125 L 21.308594 22.972656 L 18.238281 20.417969 C 17.984375 20.203125 17.949219 19.820312 18.164062 19.566406 C 18.378906 19.308594 18.753906 19.273438 19.015625 19.488281 L 22.640625 22.511719 C 22.777344 22.625 22.859375 22.796875 22.859375 22.976562 C 22.859375 23.15625 22.777344 23.324219 22.640625 23.441406 L 19.015625 26.460938 C 18.902344 26.554688 18.761719 26.601562 18.625 26.601562 Z M 18.625 26.601562 " fill-opacity="1" fill-rule="nonzero"/><path fill="#31ac7d" d="M 13.792969 27.808594 C 13.734375 27.808594 13.679688 27.800781 13.625 27.785156 C 13.304688 27.695312 13.117188 27.359375 13.207031 27.039062 L 15.625 18.578125 C 15.71875 18.253906 16.054688 18.066406 16.375 18.164062 C 16.695312 18.253906 16.878906 18.589844 16.789062 18.910156 L 14.371094 27.371094 C 14.296875 27.636719 14.054688 27.808594 13.792969 27.808594 Z M 13.792969 27.808594 " fill-opacity="1" fill-rule="nonzero"/></svg>