<svg xmlns="http://www.w3.org/2000/svg" xmlns:xlink="http://www.w3.org/1999/xlink" width="40" zoomAndPan="magnify" viewBox="0 0 30 30.000001" height="40" preserveAspectRatio="xMidYMid meet" version="1.0"><defs><clipPath id="460777b89e"><path d="M 0.484375 0 L 28.789062 0 L 28.789062 29 L 0.484375 29 Z M 0.484375 0 " clip-rule="nonzero"/></clipPath></defs><path fill="#31ac7d" d="M 16.800781 1.839844 C 16.730469 1.773438 16.648438 1.742188 16.550781 1.742188 C 16.457031 1.746094 16.375 1.78125 16.308594 1.847656 L 14.5625 3.652344 C 14.496094 3.71875 14.464844 3.800781 14.464844 3.894531 C 14.464844 3.988281 14.496094 4.066406 14.5625 4.136719 L 16.308594 5.9375 C 16.375 6.007812 16.457031 6.042969 16.550781 6.042969 C 16.648438 6.046875 16.730469 6.011719 16.800781 5.945312 C 16.871094 5.878906 16.90625 5.796875 16.90625 5.699219 C 16.90625 5.605469 16.875 5.523438 16.808594 5.453125 L 15.296875 3.894531 L 16.808594 2.332031 C 16.875 2.265625 16.90625 2.183594 16.90625 2.085938 C 16.90625 1.988281 16.871094 1.90625 16.800781 1.839844 Z M 16.800781 1.839844 " fill-opacity="1" fill-rule="nonzero"/><path fill="#31ac7d" d="M 19.398438 5.945312 C 19.46875 6.011719 19.550781 6.046875 19.648438 6.042969 C 19.742188 6.042969 19.824219 6.007812 19.890625 5.9375 L 21.636719 4.136719 C 21.703125 4.066406 21.734375 3.988281 21.734375 3.894531 C 21.734375 3.800781 21.703125 3.71875 21.636719 3.652344 L 19.890625 1.847656 C 19.824219 1.78125 19.742188 1.746094 19.648438 1.742188 C 19.550781 1.742188 19.46875 1.773438 19.398438 1.839844 C 19.332031 1.90625 19.296875 1.988281 19.292969 2.085938 C 19.292969 2.183594 19.324219 2.265625 19.390625 2.332031 L 20.902344 3.894531 L 19.390625 5.453125 C 19.324219 5.523438 19.292969 5.605469 19.292969 5.699219 C 19.296875 5.796875 19.332031 5.878906 19.398438 5.945312 Z M 19.398438 5.945312 " fill-opacity="1" fill-rule="nonzero"/><path fill="#31ac7d" d="M 18.828125 1.019531 C 18.734375 0.996094 18.644531 1.007812 18.5625 1.058594 C 18.480469 1.105469 18.425781 1.175781 18.402344 1.269531 L 17.121094 6.34375 C 17.097656 6.4375 17.109375 6.527344 17.160156 6.609375 C 17.207031 6.691406 17.277344 6.746094 17.371094 6.769531 C 17.464844 6.792969 17.554688 6.78125 17.636719 6.730469 C 17.71875 6.679688 17.773438 6.609375 17.796875 6.515625 L 19.078125 1.441406 C 19.101562 1.347656 19.089844 1.261719 19.039062 1.175781 C 18.992188 1.09375 18.917969 1.042969 18.828125 1.019531 Z M 18.828125 1.019531 " fill-opacity="1" fill-rule="nonzero"/><path fill="#31ac7d" d="M 16.511719 10.738281 L 13.667969 10.738281 C 13.519531 10.738281 13.375 10.765625 13.234375 10.824219 C 13.097656 10.878906 12.972656 10.960938 12.867188 11.070312 C 12.761719 11.175781 12.679688 11.296875 12.621094 11.4375 C 12.566406 11.574219 12.535156 11.71875 12.535156 11.867188 C 12.535156 12.019531 12.566406 12.164062 12.621094 12.300781 C 12.679688 12.441406 12.761719 12.5625 12.867188 12.667969 C 12.972656 12.773438 13.097656 12.855469 13.234375 12.914062 C 13.375 12.972656 13.519531 13 13.667969 13 L 16.511719 13 C 16.664062 13 16.808594 12.972656 16.945312 12.914062 C 17.085938 12.855469 17.207031 12.773438 17.3125 12.667969 C 17.421875 12.5625 17.5 12.441406 17.558594 12.300781 C 17.617188 12.164062 17.644531 12.019531 17.644531 11.867188 C 17.644531 11.71875 17.617188 11.574219 17.558594 11.4375 C 17.5 11.296875 17.421875 11.175781 17.3125 11.070312 C 17.207031 10.960938 17.085938 10.878906 16.945312 10.824219 C 16.808594 10.765625 16.664062 10.738281 16.511719 10.738281 Z M 14.726562 12.304688 L 13.667969 12.304688 C 13.546875 12.304688 13.445312 12.261719 13.359375 12.175781 C 13.273438 12.089844 13.234375 11.988281 13.234375 11.867188 C 13.234375 11.75 13.273438 11.644531 13.359375 11.5625 C 13.445312 11.476562 13.546875 11.433594 13.667969 11.433594 L 14.726562 11.433594 Z M 16.511719 12.304688 L 15.421875 12.304688 L 15.421875 11.433594 L 16.511719 11.433594 C 16.632812 11.433594 16.738281 11.476562 16.820312 11.5625 C 16.90625 11.644531 16.949219 11.75 16.949219 11.867188 C 16.949219 11.988281 16.90625 12.089844 16.820312 12.175781 C 16.738281 12.261719 16.632812 12.304688 16.511719 12.304688 Z M 16.511719 12.304688 " fill-opacity="1" fill-rule="nonzero"/><path fill="#31ac7d" d="M 24.863281 16.519531 C 25.046875 16.519531 25.226562 16.484375 25.394531 16.414062 C 25.566406 16.34375 25.714844 16.242188 25.84375 16.113281 C 25.976562 15.984375 26.074219 15.832031 26.144531 15.664062 C 26.214844 15.492188 26.25 15.316406 26.25 15.132812 C 26.25 14.949219 26.214844 14.773438 26.144531 14.601562 C 26.074219 14.433594 25.976562 14.28125 25.84375 14.152344 C 25.714844 14.023438 25.566406 13.921875 25.394531 13.851562 C 25.226562 13.78125 25.046875 13.746094 24.863281 13.746094 C 24.679688 13.746094 24.503906 13.78125 24.335938 13.851562 C 24.164062 13.921875 24.015625 14.023438 23.882812 14.152344 C 23.753906 14.28125 23.65625 14.433594 23.585938 14.601562 C 23.511719 14.773438 23.476562 14.949219 23.476562 15.132812 C 23.480469 15.316406 23.515625 15.492188 23.585938 15.664062 C 23.65625 15.832031 23.753906 15.984375 23.886719 16.113281 C 24.015625 16.242188 24.164062 16.34375 24.335938 16.414062 C 24.503906 16.484375 24.679688 16.519531 24.863281 16.519531 Z M 24.863281 14.445312 C 25.054688 14.445312 25.21875 14.511719 25.351562 14.644531 C 25.488281 14.78125 25.554688 14.941406 25.554688 15.132812 C 25.554688 15.324219 25.488281 15.488281 25.351562 15.621094 C 25.21875 15.753906 25.054688 15.824219 24.863281 15.824219 C 24.675781 15.824219 24.511719 15.753906 24.378906 15.621094 C 24.242188 15.488281 24.175781 15.324219 24.175781 15.132812 C 24.175781 14.941406 24.242188 14.78125 24.378906 14.644531 C 24.511719 14.511719 24.675781 14.445312 24.863281 14.445312 Z M 24.863281 14.445312 " fill-opacity="1" fill-rule="nonzero"/><path fill="#31ac7d" d="M 19.15625 13.746094 C 18.972656 13.746094 18.792969 13.78125 18.625 13.851562 C 18.453125 13.921875 18.304688 14.023438 18.175781 14.152344 C 18.046875 14.28125 17.945312 14.433594 17.875 14.601562 C 17.804688 14.773438 17.769531 14.949219 17.769531 15.132812 C 17.769531 15.316406 17.804688 15.492188 17.875 15.664062 C 17.945312 15.832031 18.046875 15.984375 18.175781 16.113281 C 18.304688 16.242188 18.453125 16.34375 18.625 16.414062 C 18.792969 16.484375 18.972656 16.519531 19.15625 16.519531 C 19.339844 16.519531 19.515625 16.484375 19.6875 16.414062 C 19.855469 16.34375 20.003906 16.242188 20.136719 16.113281 C 20.265625 15.984375 20.367188 15.832031 20.4375 15.664062 C 20.507812 15.492188 20.542969 15.316406 20.542969 15.132812 C 20.542969 14.949219 20.507812 14.773438 20.433594 14.601562 C 20.363281 14.433594 20.265625 14.285156 20.136719 14.152344 C 20.003906 14.023438 19.855469 13.921875 19.683594 13.851562 C 19.515625 13.78125 19.339844 13.746094 19.15625 13.746094 Z M 19.15625 15.824219 C 18.964844 15.824219 18.800781 15.753906 18.667969 15.621094 C 18.53125 15.488281 18.464844 15.324219 18.464844 15.132812 C 18.464844 14.941406 18.53125 14.78125 18.667969 14.644531 C 18.800781 14.511719 18.964844 14.445312 19.15625 14.445312 C 19.34375 14.445312 19.507812 14.511719 19.644531 14.644531 C 19.777344 14.78125 19.84375 14.941406 19.84375 15.132812 C 19.84375 15.324219 19.777344 15.484375 19.644531 15.621094 C 19.507812 15.753906 19.34375 15.824219 19.15625 15.824219 Z M 19.15625 15.824219 " fill-opacity="1" fill-rule="nonzero"/><path fill="#31ac7d" d="M 23.394531 17.988281 C 23.394531 17.804688 23.359375 17.628906 23.289062 17.457031 C 23.21875 17.289062 23.121094 17.136719 22.992188 17.007812 C 22.859375 16.878906 22.710938 16.777344 22.539062 16.707031 C 22.371094 16.636719 22.195312 16.601562 22.011719 16.601562 C 21.828125 16.601562 21.648438 16.636719 21.480469 16.707031 C 21.308594 16.777344 21.160156 16.878906 21.03125 17.007812 C 20.898438 17.136719 20.800781 17.289062 20.730469 17.457031 C 20.660156 17.628906 20.625 17.804688 20.625 17.988281 C 20.625 18.171875 20.660156 18.347656 20.730469 18.519531 C 20.800781 18.6875 20.898438 18.839844 21.03125 18.96875 C 21.160156 19.097656 21.308594 19.199219 21.480469 19.269531 C 21.648438 19.339844 21.828125 19.375 22.011719 19.375 C 22.195312 19.375 22.371094 19.339844 22.539062 19.269531 C 22.710938 19.199219 22.859375 19.097656 22.988281 18.96875 C 23.121094 18.835938 23.21875 18.6875 23.289062 18.519531 C 23.359375 18.347656 23.394531 18.171875 23.394531 17.988281 Z M 21.320312 17.988281 C 21.320312 17.796875 21.386719 17.636719 21.523438 17.5 C 21.65625 17.367188 21.820312 17.296875 22.011719 17.296875 C 22.199219 17.296875 22.363281 17.367188 22.496094 17.5 C 22.632812 17.636719 22.699219 17.796875 22.699219 17.988281 C 22.699219 18.179688 22.632812 18.339844 22.496094 18.476562 C 22.363281 18.609375 22.199219 18.679688 22.011719 18.679688 C 21.820312 18.675781 21.65625 18.609375 21.523438 18.476562 C 21.386719 18.339844 21.320312 18.179688 21.320312 17.988281 Z M 21.320312 17.988281 " fill-opacity="1" fill-rule="nonzero"/><path fill="#31ac7d" d="M 22.011719 13.664062 C 22.195312 13.664062 22.371094 13.628906 22.539062 13.558594 C 22.710938 13.488281 22.859375 13.390625 22.988281 13.257812 C 23.121094 13.128906 23.21875 12.980469 23.289062 12.808594 C 23.359375 12.640625 23.394531 12.460938 23.394531 12.277344 C 23.394531 12.09375 23.359375 11.917969 23.289062 11.75 C 23.21875 11.578125 23.121094 11.429688 22.988281 11.296875 C 22.859375 11.167969 22.710938 11.066406 22.539062 10.996094 C 22.371094 10.925781 22.195312 10.890625 22.007812 10.890625 C 21.824219 10.890625 21.648438 10.925781 21.480469 10.996094 C 21.308594 11.066406 21.160156 11.167969 21.03125 11.296875 C 20.898438 11.429688 20.800781 11.578125 20.730469 11.75 C 20.660156 11.917969 20.625 12.09375 20.625 12.277344 C 20.625 12.460938 20.660156 12.640625 20.730469 12.808594 C 20.800781 12.980469 20.898438 13.128906 21.03125 13.257812 C 21.160156 13.386719 21.308594 13.488281 21.480469 13.558594 C 21.648438 13.628906 21.828125 13.664062 22.011719 13.664062 Z M 22.011719 11.589844 C 22.199219 11.589844 22.363281 11.65625 22.496094 11.792969 C 22.632812 11.925781 22.699219 12.089844 22.699219 12.277344 C 22.699219 12.46875 22.632812 12.632812 22.496094 12.765625 C 22.363281 12.902344 22.199219 12.96875 22.007812 12.96875 C 21.820312 12.96875 21.65625 12.902344 21.523438 12.765625 C 21.386719 12.632812 21.320312 12.46875 21.320312 12.277344 C 21.320312 12.089844 21.386719 11.925781 21.523438 11.792969 C 21.65625 11.65625 21.820312 11.589844 22.011719 11.589844 Z M 22.011719 11.589844 " fill-opacity="1" fill-rule="nonzero"/><path fill="#31ac7d" d="M 21.382812 15.132812 C 21.382812 15.304688 21.445312 15.453125 21.566406 15.574219 C 21.691406 15.699219 21.835938 15.757812 22.011719 15.757812 C 22.183594 15.757812 22.332031 15.699219 22.453125 15.574219 C 22.574219 15.453125 22.636719 15.304688 22.636719 15.132812 C 22.636719 14.960938 22.574219 14.8125 22.453125 14.691406 C 22.332031 14.570312 22.183594 14.507812 22.011719 14.507812 C 21.835938 14.507812 21.691406 14.570312 21.566406 14.691406 C 21.445312 14.8125 21.382812 14.960938 21.382812 15.132812 Z M 22.082031 15.132812 C 22.082031 15.179688 22.058594 15.203125 22.011719 15.203125 C 21.960938 15.203125 21.9375 15.179688 21.9375 15.132812 C 21.9375 15.085938 21.960938 15.0625 22.011719 15.0625 C 22.058594 15.0625 22.082031 15.085938 22.082031 15.132812 Z M 22.082031 15.132812 " fill-opacity="1" fill-rule="nonzero"/><path fill="#31ac7d" d="M 9.601562 14.101562 L 8.632812 14.101562 L 8.632812 13.132812 C 8.628906 13.03125 8.59375 12.949219 8.523438 12.878906 C 8.453125 12.808594 8.367188 12.773438 8.269531 12.769531 L 6.933594 12.769531 C 6.742188 12.769531 6.601562 12.941406 6.601562 13.132812 L 6.601562 14.101562 L 5.601562 14.101562 C 5.503906 14.105469 5.421875 14.144531 5.359375 14.214844 C 5.292969 14.285156 5.261719 14.371094 5.265625 14.464844 L 5.265625 15.800781 C 5.261719 15.894531 5.296875 15.972656 5.359375 16.039062 C 5.425781 16.105469 5.507812 16.136719 5.601562 16.132812 L 6.601562 16.132812 L 6.601562 17.132812 C 6.597656 17.226562 6.628906 17.308594 6.695312 17.375 C 6.761719 17.441406 6.839844 17.472656 6.933594 17.46875 L 8.269531 17.46875 C 8.363281 17.472656 8.449219 17.441406 8.519531 17.375 C 8.589844 17.3125 8.628906 17.230469 8.632812 17.132812 L 8.632812 16.132812 L 9.601562 16.132812 C 9.792969 16.132812 9.96875 15.992188 9.96875 15.800781 L 9.96875 14.464844 C 9.964844 14.367188 9.925781 14.28125 9.855469 14.210938 C 9.785156 14.140625 9.699219 14.105469 9.601562 14.101562 Z M 9.269531 15.4375 L 8.269531 15.4375 C 8.171875 15.441406 8.09375 15.480469 8.027344 15.550781 C 7.960938 15.621094 7.933594 15.703125 7.9375 15.800781 L 7.9375 16.773438 L 7.296875 16.773438 L 7.296875 15.800781 C 7.292969 15.703125 7.257812 15.617188 7.1875 15.546875 C 7.117188 15.476562 7.03125 15.441406 6.933594 15.4375 L 5.960938 15.4375 L 5.960938 14.800781 L 6.933594 14.800781 C 7.125 14.800781 7.296875 14.65625 7.296875 14.464844 L 7.296875 13.464844 L 7.9375 13.464844 L 7.9375 14.464844 C 7.933594 14.558594 7.964844 14.636719 8.03125 14.703125 C 8.097656 14.769531 8.175781 14.800781 8.269531 14.800781 L 9.269531 14.800781 Z M 9.269531 15.4375 " fill-opacity="1" fill-rule="nonzero"/><path fill="#31ac7d" d="M 7.601562 11.011719 C 7.332031 11.011719 7.0625 11.039062 6.796875 11.089844 C 6.53125 11.144531 6.273438 11.222656 6.023438 11.328125 C 5.773438 11.429688 5.535156 11.558594 5.3125 11.707031 C 5.085938 11.855469 4.878906 12.027344 4.6875 12.21875 C 4.496094 12.410156 4.324219 12.617188 4.175781 12.84375 C 4.023438 13.070312 3.898438 13.304688 3.792969 13.554688 C 3.691406 13.804688 3.613281 14.0625 3.558594 14.328125 C 3.507812 14.59375 3.480469 14.863281 3.480469 15.132812 C 3.480469 15.402344 3.507812 15.671875 3.558594 15.9375 C 3.613281 16.203125 3.691406 16.460938 3.792969 16.710938 C 3.898438 16.960938 4.023438 17.199219 4.175781 17.421875 C 4.324219 17.648438 4.496094 17.855469 4.6875 18.046875 C 4.878906 18.238281 5.085938 18.410156 5.3125 18.558594 C 5.535156 18.710938 5.773438 18.835938 6.023438 18.941406 C 6.273438 19.042969 6.53125 19.121094 6.796875 19.175781 C 7.0625 19.226562 7.332031 19.253906 7.601562 19.253906 C 7.871094 19.253906 8.140625 19.226562 8.40625 19.175781 C 8.671875 19.121094 8.929688 19.042969 9.179688 18.941406 C 9.429688 18.835938 9.664062 18.710938 9.890625 18.558594 C 10.117188 18.410156 10.324219 18.238281 10.515625 18.046875 C 10.707031 17.855469 10.875 17.648438 11.027344 17.421875 C 11.175781 17.199219 11.304688 16.960938 11.40625 16.710938 C 11.511719 16.460938 11.589844 16.203125 11.640625 15.9375 C 11.695312 15.671875 11.722656 15.402344 11.722656 15.132812 C 11.722656 14.863281 11.695312 14.59375 11.640625 14.328125 C 11.589844 14.066406 11.511719 13.808594 11.40625 13.558594 C 11.304688 13.308594 11.175781 13.070312 11.027344 12.84375 C 10.875 12.621094 10.703125 12.414062 10.511719 12.222656 C 10.320312 12.03125 10.113281 11.859375 9.890625 11.707031 C 9.664062 11.558594 9.425781 11.429688 9.175781 11.328125 C 8.925781 11.222656 8.667969 11.144531 8.40625 11.09375 C 8.140625 11.039062 7.871094 11.011719 7.601562 11.011719 Z M 7.601562 18.558594 C 7.148438 18.558594 6.710938 18.472656 6.289062 18.296875 C 5.871094 18.125 5.5 17.875 5.179688 17.554688 C 4.859375 17.234375 4.609375 16.863281 4.4375 16.445312 C 4.261719 16.023438 4.175781 15.585938 4.175781 15.132812 C 4.175781 14.679688 4.261719 14.242188 4.4375 13.824219 C 4.609375 13.402344 4.859375 13.03125 5.179688 12.710938 C 5.5 12.390625 5.871094 12.144531 6.289062 11.96875 C 6.710938 11.796875 7.148438 11.710938 7.601562 11.710938 C 8.054688 11.710938 8.492188 11.796875 8.910156 11.96875 C 9.332031 12.144531 9.703125 12.390625 10.023438 12.710938 C 10.34375 13.03125 10.589844 13.402344 10.765625 13.824219 C 10.9375 14.242188 11.023438 14.679688 11.023438 15.132812 C 11.023438 15.585938 10.9375 16.023438 10.761719 16.441406 C 10.589844 16.863281 10.34375 17.234375 10.019531 17.554688 C 9.699219 17.875 9.328125 18.121094 8.910156 18.296875 C 8.492188 18.46875 8.054688 18.558594 7.601562 18.558594 Z M 7.601562 18.558594 " fill-opacity="1" fill-rule="nonzero"/><g clip-path="url(#460777b89e)"><path fill="#31ac7d" d="M 28.816406 23.96875 L 27.886719 17.6875 C 27.992188 17.441406 28.082031 17.195312 28.15625 16.941406 C 28.234375 16.683594 28.292969 16.425781 28.335938 16.164062 C 28.378906 15.902344 28.40625 15.640625 28.414062 15.375 C 28.425781 15.109375 28.417969 14.847656 28.398438 14.582031 C 28.375 14.320312 28.335938 14.058594 28.28125 13.796875 C 28.226562 13.539062 28.15625 13.28125 28.070312 13.03125 C 27.984375 12.78125 27.882812 12.539062 27.765625 12.300781 C 27.648438 12.0625 27.515625 11.832031 27.371094 11.609375 C 27.226562 11.386719 27.070312 11.175781 26.898438 10.972656 C 26.726562 10.769531 26.542969 10.582031 26.347656 10.402344 C 26.152344 10.222656 25.945312 10.054688 25.730469 9.902344 C 25.515625 9.746094 25.289062 9.605469 25.058594 9.480469 C 24.824219 9.355469 24.585938 9.242188 24.335938 9.144531 C 24.089844 9.050781 23.839844 8.96875 23.582031 8.902344 C 23.324219 8.839844 23.066406 8.789062 22.800781 8.757812 C 22.539062 8.722656 22.273438 8.707031 22.011719 8.707031 L 20.265625 8.707031 C 20.308594 8.535156 20.382812 8.378906 20.484375 8.238281 C 20.664062 8.007812 20.929688 7.894531 21.296875 7.894531 L 22.320312 7.894531 C 22.523438 7.894531 22.71875 7.855469 22.90625 7.777344 C 23.089844 7.699219 23.257812 7.589844 23.398438 7.445312 C 23.542969 7.300781 23.652344 7.136719 23.726562 6.949219 C 23.804688 6.761719 23.839844 6.566406 23.839844 6.363281 L 23.839844 1.070312 C 23.839844 0.871094 23.804688 0.675781 23.726562 0.484375 C 23.652344 0.296875 23.542969 0.132812 23.398438 -0.0117188 C 23.257812 -0.15625 23.09375 -0.265625 22.90625 -0.347656 C 22.71875 -0.425781 22.523438 -0.464844 22.320312 -0.464844 L 13.878906 -0.464844 C 13.675781 -0.464844 13.480469 -0.425781 13.292969 -0.347656 C 13.105469 -0.269531 12.9375 -0.15625 12.796875 -0.0117188 C 12.652344 0.128906 12.539062 0.296875 12.464844 0.484375 C 12.386719 0.671875 12.347656 0.867188 12.347656 1.070312 L 12.347656 6.367188 C 12.347656 6.570312 12.386719 6.765625 12.464844 6.953125 C 12.539062 7.140625 12.652344 7.304688 12.796875 7.449219 C 12.9375 7.589844 13.105469 7.703125 13.292969 7.777344 C 13.480469 7.855469 13.675781 7.894531 13.878906 7.894531 L 17.726562 7.894531 C 17.726562 8.167969 17.753906 8.445312 17.808594 8.714844 L 7.558594 8.714844 C 7.289062 8.714844 7.027344 8.734375 6.761719 8.765625 C 6.496094 8.800781 6.238281 8.851562 5.980469 8.917969 C 5.722656 8.984375 5.46875 9.066406 5.222656 9.164062 C 4.972656 9.257812 4.734375 9.371094 4.5 9.5 C 4.265625 9.628906 4.039062 9.769531 3.824219 9.921875 C 3.609375 10.078125 3.402344 10.246094 3.207031 10.429688 C 3.011719 10.609375 2.828125 10.800781 2.65625 11.003906 C 2.484375 11.210938 2.328125 11.421875 2.183594 11.644531 C 2.039062 11.871094 1.910156 12.101562 1.792969 12.339844 C 1.675781 12.578125 1.574219 12.824219 1.488281 13.078125 C 1.40625 13.328125 1.335938 13.585938 1.28125 13.847656 C 1.226562 14.109375 1.191406 14.371094 1.171875 14.636719 C 1.148438 14.902344 1.144531 15.167969 1.15625 15.433594 C 1.167969 15.699219 1.199219 15.964844 1.242188 16.226562 C 1.289062 16.488281 1.347656 16.746094 1.425781 17 C 1.503906 17.257812 1.597656 17.503906 1.703125 17.75 L 0.761719 24.117188 C 0.695312 24.574219 0.707031 25.027344 0.796875 25.480469 C 0.890625 25.929688 1.058594 26.351562 1.296875 26.746094 C 1.539062 27.140625 1.839844 27.480469 2.203125 27.769531 C 2.5625 28.054688 2.960938 28.273438 3.398438 28.417969 C 3.835938 28.566406 4.285156 28.632812 4.746094 28.621094 C 5.207031 28.609375 5.652344 28.523438 6.082031 28.355469 C 6.511719 28.1875 6.902344 27.949219 7.25 27.644531 C 7.59375 27.339844 7.878906 26.984375 8.101562 26.582031 L 11.664062 20.074219 C 12.097656 19.707031 12.480469 19.292969 12.804688 18.828125 C 13.027344 18.511719 13.304688 18.265625 13.644531 18.089844 C 13.984375 17.910156 14.347656 17.820312 14.730469 17.816406 L 14.859375 17.816406 C 15.238281 17.820312 15.601562 17.910156 15.9375 18.085938 C 16.277344 18.261719 16.554688 18.507812 16.777344 18.820312 C 17.101562 19.285156 17.484375 19.699219 17.921875 20.0625 L 21.441406 26.625 C 21.789062 27.253906 22.273438 27.753906 22.890625 28.117188 C 23.511719 28.484375 24.179688 28.667969 24.902344 28.667969 C 25.292969 28.667969 25.671875 28.613281 26.046875 28.496094 C 27.917969 27.921875 29.058594 26.066406 28.820312 23.980469 C 28.820312 23.976562 28.820312 23.972656 28.816406 23.96875 Z M 13.878906 7.195312 C 13.648438 7.199219 13.449219 7.117188 13.285156 6.953125 C 13.125 6.792969 13.042969 6.59375 13.042969 6.363281 L 13.042969 1.074219 C 13.042969 0.839844 13.125 0.644531 13.289062 0.480469 C 13.449219 0.316406 13.648438 0.230469 13.878906 0.230469 L 22.320312 0.230469 C 22.550781 0.234375 22.746094 0.316406 22.90625 0.480469 C 23.066406 0.644531 23.148438 0.84375 23.140625 1.070312 L 23.140625 6.363281 C 23.144531 6.59375 23.066406 6.789062 22.90625 6.953125 C 22.746094 7.117188 22.550781 7.199219 22.320312 7.195312 L 21.296875 7.195312 C 20.710938 7.195312 20.253906 7.40625 19.9375 7.808594 C 19.449219 8.433594 19.449219 9.398438 19.519531 10.046875 C 19.414062 9.980469 19.3125 9.90625 19.21875 9.820312 C 18.65625 9.328125 18.390625 8.636719 18.425781 7.773438 C 18.433594 7.625 18.390625 7.496094 18.289062 7.382812 C 18.191406 7.273438 18.066406 7.210938 17.921875 7.203125 C 17.910156 7.199219 17.902344 7.195312 17.890625 7.195312 Z M 7.488281 26.246094 C 7.308594 26.578125 7.074219 26.871094 6.789062 27.121094 C 6.503906 27.375 6.183594 27.566406 5.832031 27.707031 C 5.476562 27.84375 5.109375 27.917969 4.730469 27.925781 C 4.351562 27.9375 3.980469 27.882812 3.621094 27.761719 C 3.261719 27.640625 2.933594 27.460938 2.636719 27.222656 C 2.339844 26.988281 2.089844 26.707031 1.890625 26.382812 C 1.695312 26.058594 1.554688 25.710938 1.480469 25.339844 C 1.40625 24.96875 1.394531 24.59375 1.449219 24.21875 L 2.261719 18.746094 C 2.859375 19.621094 3.625 20.304688 4.558594 20.800781 C 5.496094 21.296875 6.492188 21.546875 7.550781 21.550781 C 8.5625 21.550781 9.523438 21.328125 10.429688 20.878906 Z M 17.34375 18.414062 C 17.058594 18.011719 16.699219 17.695312 16.257812 17.464844 C 15.820312 17.238281 15.351562 17.125 14.859375 17.121094 L 14.730469 17.121094 C 14.230469 17.125 13.765625 17.238281 13.324219 17.46875 C 12.882812 17.699219 12.523438 18.019531 12.238281 18.425781 C 12.097656 18.625 11.941406 18.816406 11.777344 18.996094 C 11.613281 19.175781 11.4375 19.34375 11.25 19.5 C 11.0625 19.65625 10.867188 19.800781 10.660156 19.933594 C 10.453125 20.066406 10.242188 20.183594 10.019531 20.289062 C 9.800781 20.394531 9.574219 20.484375 9.339844 20.558594 C 9.109375 20.632812 8.871094 20.695312 8.632812 20.742188 C 8.394531 20.785156 8.152344 20.816406 7.90625 20.832031 C 7.664062 20.84375 7.417969 20.84375 7.175781 20.828125 C 6.933594 20.808594 6.691406 20.777344 6.449219 20.730469 C 6.210938 20.683594 5.976562 20.621094 5.746094 20.542969 C 5.511719 20.464844 5.289062 20.371094 5.066406 20.265625 C 4.847656 20.15625 4.636719 20.035156 4.429688 19.902344 C 4.226562 19.769531 4.03125 19.621094 3.847656 19.464844 C 3.660156 19.304688 3.488281 19.132812 3.324219 18.953125 C 3.160156 18.769531 3.007812 18.582031 2.871094 18.378906 C 2.730469 18.179688 2.605469 17.96875 2.492188 17.753906 C 2.378906 17.535156 2.28125 17.3125 2.199219 17.082031 C 2.113281 16.855469 2.042969 16.621094 1.992188 16.382812 C 1.9375 16.144531 1.898438 15.902344 1.875 15.660156 C 1.851562 15.417969 1.84375 15.171875 1.851562 14.929688 C 1.863281 14.683594 1.886719 14.441406 1.925781 14.203125 C 1.964844 13.960938 2.019531 13.722656 2.089844 13.488281 C 2.15625 13.253906 2.242188 13.027344 2.339844 12.800781 C 2.441406 12.578125 2.554688 12.363281 2.679688 12.152344 C 2.808594 11.945312 2.945312 11.746094 3.097656 11.554688 C 3.25 11.363281 3.414062 11.183594 3.589844 11.011719 C 3.765625 10.84375 3.953125 10.683594 4.148438 10.539062 C 4.34375 10.394531 4.546875 10.257812 4.761719 10.140625 C 4.972656 10.019531 5.191406 9.914062 5.417969 9.820312 C 5.644531 9.730469 5.875 9.652344 6.113281 9.589844 C 6.347656 9.527344 6.585938 9.480469 6.828125 9.449219 C 7.074219 9.417969 7.316406 9.402344 7.558594 9.402344 L 18.042969 9.402344 C 18.21875 9.761719 18.457031 10.078125 18.757812 10.339844 C 19.085938 10.632812 19.460938 10.847656 19.878906 10.980469 C 19.9375 10.996094 20 10.996094 20.058594 10.980469 C 20.117188 10.96875 20.167969 10.9375 20.214844 10.894531 C 20.257812 10.851562 20.289062 10.800781 20.304688 10.742188 C 20.320312 10.683594 20.324219 10.621094 20.308594 10.5625 C 20.21875 10.179688 20.175781 9.792969 20.179688 9.402344 L 22.011719 9.402344 C 22.386719 9.402344 22.757812 9.4375 23.125 9.511719 C 23.492188 9.585938 23.851562 9.695312 24.199219 9.839844 C 24.542969 9.980469 24.875 10.15625 25.183594 10.367188 C 25.496094 10.574219 25.785156 10.8125 26.050781 11.078125 C 26.316406 11.34375 26.554688 11.632812 26.761719 11.945312 C 26.96875 12.253906 27.148438 12.585938 27.289062 12.933594 C 27.433594 13.277344 27.542969 13.636719 27.617188 14.003906 C 27.6875 14.371094 27.726562 14.742188 27.726562 15.121094 C 27.726562 15.496094 27.6875 15.867188 27.617188 16.234375 C 27.542969 16.601562 27.433594 16.960938 27.289062 17.304688 C 27.144531 17.652344 26.96875 17.984375 26.761719 18.292969 C 26.554688 18.605469 26.316406 18.894531 26.050781 19.160156 C 25.785156 19.425781 25.496094 19.664062 25.183594 19.871094 C 24.875 20.082031 24.542969 20.257812 24.195312 20.398438 C 23.851562 20.542969 23.492188 20.652344 23.125 20.726562 C 22.757812 20.800781 22.386719 20.835938 22.011719 20.835938 L 22.003906 20.835938 C 21.078125 20.835938 20.203125 20.621094 19.382812 20.191406 C 18.558594 19.765625 17.878906 19.171875 17.34375 18.414062 Z M 25.839844 27.832031 C 25.484375 27.941406 25.121094 27.984375 24.75 27.96875 C 24.378906 27.953125 24.019531 27.875 23.675781 27.734375 C 23.332031 27.59375 23.019531 27.402344 22.742188 27.152344 C 22.464844 26.90625 22.234375 26.621094 22.054688 26.296875 L 19.136719 20.859375 C 20.039062 21.308594 20.996094 21.535156 22.003906 21.539062 C 22.007812 21.539062 22.007812 21.539062 22.011719 21.539062 C 22.863281 21.539062 23.683594 21.375 24.472656 21.046875 C 25.261719 20.714844 25.953125 20.246094 26.554688 19.640625 C 26.84375 19.347656 27.101562 19.03125 27.332031 18.691406 L 28.128906 24.066406 C 28.324219 25.808594 27.386719 27.359375 25.839844 27.832031 Z M 25.839844 27.832031 " fill-opacity="1" fill-rule="nonzero"/></g><path fill="#31ac7d" d="M 7.238281 10.738281 L 7.53125 10.738281 C 7.625 10.738281 7.707031 10.703125 7.777344 10.636719 C 7.84375 10.566406 7.878906 10.484375 7.878906 10.390625 C 7.878906 10.292969 7.84375 10.210938 7.777344 10.140625 C 7.707031 10.074219 7.625 10.039062 7.53125 10.039062 L 7.238281 10.039062 C 7.144531 10.039062 7.0625 10.074219 6.992188 10.140625 C 6.925781 10.210938 6.890625 10.292969 6.890625 10.390625 C 6.890625 10.484375 6.925781 10.566406 6.992188 10.636719 C 7.0625 10.703125 7.144531 10.738281 7.238281 10.738281 Z M 7.238281 10.738281 " fill-opacity="1" fill-rule="nonzero"/><path fill="#31ac7d" d="M 12.8125 10.390625 C 12.8125 10.292969 12.777344 10.210938 12.710938 10.140625 C 12.640625 10.074219 12.558594 10.039062 12.464844 10.039062 L 8.632812 10.039062 C 8.535156 10.039062 8.453125 10.074219 8.386719 10.140625 C 8.320312 10.210938 8.285156 10.292969 8.285156 10.390625 C 8.285156 10.484375 8.320312 10.566406 8.386719 10.636719 C 8.453125 10.703125 8.535156 10.738281 8.632812 10.738281 L 12.464844 10.738281 C 12.558594 10.738281 12.640625 10.703125 12.710938 10.636719 C 12.777344 10.566406 12.8125 10.484375 12.8125 10.390625 Z M 12.8125 10.390625 " fill-opacity="1" fill-rule="nonzero"/></svg>