<svg xmlns="http://www.w3.org/2000/svg" xmlns:xlink="http://www.w3.org/1999/xlink" width="40" zoomAndPan="magnify" viewBox="0 0 30 30.000001" height="40" preserveAspectRatio="xMidYMid meet" version="1.0"><defs><clipPath id="a757332b13"><path d="M 0.484375 7 L 16 7 L 16 29 L 0.484375 29 Z M 0.484375 7 " clip-rule="nonzero"/></clipPath><clipPath id="605d57970a"><path d="M 26 5 L 29.515625 5 L 29.515625 10 L 26 10 Z M 26 5 " clip-rule="nonzero"/></clipPath><clipPath id="f0948464bc"><path d="M 23 20 L 29.515625 20 L 29.515625 26 L 23 26 Z M 23 20 " clip-rule="nonzero"/></clipPath></defs><g clip-path="url(#a757332b13)"><path fill="#31ac7d" d="M 12.546875 21.507812 L 9.167969 21.074219 C 9.035156 21.058594 8.914062 21.089844 8.804688 21.171875 C 8.699219 21.253906 8.636719 21.363281 8.621094 21.496094 C 8.605469 21.632812 8.636719 21.75 8.71875 21.859375 C 8.800781 21.964844 8.910156 22.027344 9.042969 22.042969 L 12.460938 22.484375 C 12.484375 22.488281 12.507812 22.488281 12.53125 22.488281 C 12.78125 22.488281 13.007812 22.414062 13.203125 22.257812 C 13.402344 22.105469 13.53125 21.90625 13.589844 21.664062 L 14.503906 18.082031 C 14.546875 17.910156 14.507812 17.757812 14.390625 17.628906 L 14.3125 17.546875 L 14.636719 17.328125 C 14.761719 17.238281 14.832031 17.117188 14.847656 16.964844 C 14.859375 16.8125 14.808594 16.679688 14.699219 16.574219 L 14.609375 16.484375 L 14.769531 16.4375 C 14.957031 16.382812 15.125 16.296875 15.277344 16.171875 C 15.429688 16.050781 15.554688 15.90625 15.648438 15.738281 C 15.742188 15.566406 15.800781 15.382812 15.820312 15.191406 C 15.84375 15 15.828125 14.808594 15.773438 14.621094 L 14.960938 11.804688 C 14.90625 11.617188 14.820312 11.449219 14.699219 11.296875 C 14.578125 11.144531 14.429688 11.019531 14.261719 10.925781 C 14.089844 10.832031 13.910156 10.773438 13.714844 10.753906 C 13.523438 10.730469 13.332031 10.746094 13.144531 10.800781 L 13.097656 10.816406 C 13.523438 9.800781 13.585938 8.765625 13.273438 7.710938 C 13.234375 7.574219 13.152344 7.476562 13.023438 7.410156 C 12.898438 7.347656 12.765625 7.339844 12.632812 7.390625 L 7.074219 9.464844 C 6.828125 9.554688 6.570312 9.621094 6.3125 9.664062 C 3.574219 10.160156 0.5 11.96875 0.839844 15.429688 C 0.855469 15.574219 0.878906 15.714844 0.902344 15.855469 L 0.871094 15.863281 C 0.800781 15.886719 0.734375 15.921875 0.679688 15.972656 C 0.625 16.023438 0.582031 16.082031 0.554688 16.152344 C 0.527344 16.222656 0.515625 16.292969 0.519531 16.371094 C 0.523438 16.445312 0.546875 16.515625 0.585938 16.578125 L 1.597656 18.324219 C 1.691406 18.484375 1.832031 18.566406 2.019531 18.566406 C 2.066406 18.566406 2.109375 18.5625 2.152344 18.546875 L 2.3125 18.503906 C 2.457031 18.699219 2.625 18.921875 2.78125 19.140625 C 3.042969 19.519531 3.320312 19.882812 3.621094 20.230469 C 4.15625 20.886719 4.535156 21.621094 4.757812 22.4375 L 4.1875 24.539062 C 4.074219 24.5625 3.980469 24.617188 3.90625 24.707031 L 3.296875 25.457031 C 2.585938 26.335938 2.230469 27.339844 2.230469 28.46875 C 2.230469 28.605469 2.277344 28.71875 2.371094 28.816406 C 2.46875 28.910156 2.582031 28.957031 2.71875 28.957031 C 2.851562 28.957031 2.96875 28.910156 3.0625 28.816406 C 3.160156 28.71875 3.207031 28.605469 3.207031 28.46875 C 3.207031 27.570312 3.492188 26.773438 4.058594 26.074219 L 4.398438 25.652344 L 6.503906 26.90625 C 8.195312 27.867188 9.996094 28.550781 11.898438 28.949219 C 11.933594 28.957031 11.96875 28.960938 12.003906 28.960938 C 12.222656 28.960938 12.371094 28.863281 12.457031 28.664062 C 12.539062 28.464844 12.507812 28.285156 12.355469 28.128906 L 10.496094 26.21875 L 11.128906 23.847656 C 11.164062 23.71875 11.148438 23.59375 11.078125 23.476562 C 11.011719 23.359375 10.914062 23.285156 10.78125 23.25 C 10.652344 23.214844 10.527344 23.234375 10.410156 23.300781 C 10.292969 23.367188 10.21875 23.46875 10.183594 23.597656 L 9.480469 26.234375 C 9.433594 26.410156 9.476562 26.566406 9.601562 26.699219 L 10.425781 27.546875 C 9.226562 27.183594 8.085938 26.691406 7.003906 26.066406 L 5.097656 24.925781 L 5.691406 22.734375 C 5.824219 22.640625 5.949219 22.535156 6.066406 22.421875 C 6.503906 21.976562 6.792969 21.453125 6.9375 20.84375 C 7.082031 20.238281 7.0625 19.640625 6.875 19.042969 L 6.792969 18.769531 C 6.945312 18.621094 7.039062 18.441406 7.066406 18.230469 C 7.089844 18.097656 7.058594 17.976562 6.980469 17.863281 C 6.902344 17.753906 6.792969 17.6875 6.660156 17.667969 C 6.53125 17.644531 6.410156 17.675781 6.304688 17.753906 C 6.199219 17.835938 6.136719 17.941406 6.121094 18.070312 C 5.976562 18.101562 5.839844 18.078125 5.710938 18.003906 C 5.585938 17.925781 5.5 17.816406 5.460938 17.671875 C 5.417969 17.53125 5.433594 17.390625 5.5 17.257812 C 5.566406 17.125 5.671875 17.035156 5.8125 16.984375 L 5.808594 16.984375 L 6.246094 16.859375 L 6.707031 16.6875 C 6.636719 16.4375 6.484375 16.25 6.257812 16.125 C 6.03125 16 5.792969 15.972656 5.542969 16.042969 C 5.132812 16.160156 4.824219 16.40625 4.617188 16.78125 C 4.609375 16.796875 4.605469 16.808594 4.601562 16.824219 L 2.253906 17.5 L 1.746094 16.628906 L 11.003906 13.960938 L 11.277344 14.898438 L 7.988281 15.847656 C 7.859375 15.882812 7.761719 15.960938 7.695312 16.078125 C 7.632812 16.199219 7.617188 16.320312 7.65625 16.453125 C 7.691406 16.582031 7.769531 16.679688 7.886719 16.742188 C 8.003906 16.808594 8.128906 16.824219 8.257812 16.785156 L 9.855469 16.324219 C 10.394531 16.875 11.042969 17.167969 11.8125 17.207031 C 12.007812 17.207031 12.203125 17.179688 12.390625 17.125 L 13.566406 16.785156 C 13.582031 16.804688 13.597656 16.824219 13.613281 16.84375 L 13.296875 17.0625 C 13.175781 17.144531 13.105469 17.261719 13.089844 17.410156 C 13.074219 17.554688 13.113281 17.683594 13.214844 17.792969 L 13.492188 18.097656 L 13.351562 18.65625 C 13.277344 18.632812 13.210938 18.597656 13.152344 18.550781 C 13.046875 18.46875 12.925781 18.433594 12.792969 18.449219 C 12.65625 18.464844 12.546875 18.523438 12.464844 18.628906 C 12.382812 18.734375 12.347656 18.855469 12.363281 18.992188 C 12.378906 19.125 12.4375 19.234375 12.542969 19.316406 C 12.714844 19.449219 12.902344 19.546875 13.109375 19.605469 L 12.644531 21.425781 C 12.632812 21.476562 12.597656 21.503906 12.546875 21.507812 Z M 5.859375 19.058594 L 5.933594 19.316406 C 6.058594 19.707031 6.082031 20.105469 6.007812 20.507812 C 5.933594 20.910156 5.765625 21.269531 5.507812 21.589844 C 5.246094 20.839844 4.859375 20.167969 4.339844 19.566406 C 4.066406 19.25 3.8125 18.917969 3.578125 18.570312 C 3.488281 18.445312 3.402344 18.328125 3.316406 18.210938 L 4.46875 17.878906 C 4.476562 17.902344 4.476562 17.925781 4.484375 17.953125 C 4.570312 18.269531 4.742188 18.527344 4.996094 18.730469 C 5.246094 18.933594 5.535156 19.042969 5.859375 19.058594 Z M 1.8125 15.332031 C 1.539062 12.539062 4.046875 11.070312 6.484375 10.625 C 6.804688 10.570312 7.113281 10.488281 7.414062 10.378906 L 12.445312 8.503906 C 12.542969 8.996094 12.515625 9.488281 12.371094 9.972656 C 12.226562 10.457031 11.976562 10.878906 11.625 11.238281 L 10.761719 11.488281 C 10.316406 11.648438 9.941406 11.910156 9.632812 12.269531 C 9.328125 12.628906 9.128906 13.042969 9.042969 13.507812 L 1.851562 15.582031 C 1.835938 15.5 1.820312 15.417969 1.8125 15.332031 Z M 12.117188 16.183594 C 11.726562 16.269531 11.363281 16.207031 11.027344 15.984375 L 12.015625 15.703125 C 12.144531 15.664062 12.242188 15.585938 12.308594 15.46875 C 12.371094 15.351562 12.386719 15.226562 12.347656 15.097656 L 11.808594 13.222656 C 11.773438 13.089844 11.695312 12.992188 11.574219 12.929688 C 11.457031 12.863281 11.332031 12.847656 11.203125 12.886719 L 10.214844 13.171875 C 10.382812 12.808594 10.65625 12.558594 11.035156 12.425781 L 13.417969 11.738281 C 13.546875 11.703125 13.671875 11.714844 13.789062 11.78125 C 13.90625 11.847656 13.984375 11.945312 14.023438 12.074219 L 14.832031 14.890625 C 14.871094 15.023438 14.855469 15.144531 14.792969 15.265625 C 14.726562 15.382812 14.628906 15.460938 14.5 15.496094 Z M 12.117188 16.183594 " fill-opacity="1" fill-rule="nonzero"/></g><g clip-path="url(#605d57970a)"><path fill="#31ac7d" d="M 28.472656 5.253906 C 28.425781 5.183594 28.367188 5.128906 28.289062 5.085938 C 28.214844 5.046875 28.136719 5.027344 28.050781 5.027344 C 27.964844 5.027344 27.882812 5.046875 27.808594 5.085938 C 27.734375 5.128906 27.671875 5.183594 27.625 5.253906 L 26.648438 6.964844 C 26.554688 7.125 26.554688 7.289062 26.648438 7.449219 L 27.625 9.160156 C 27.71875 9.324219 27.859375 9.40625 28.050781 9.40625 C 28.238281 9.40625 28.378906 9.324219 28.472656 9.160156 L 29.453125 7.449219 C 29.542969 7.289062 29.542969 7.125 29.453125 6.964844 Z M 28.050781 7.933594 L 27.636719 7.210938 L 28.050781 6.484375 L 28.464844 7.210938 Z M 28.050781 7.933594 " fill-opacity="1" fill-rule="nonzero"/></g><path fill="#31ac7d" d="M 16.808594 5.011719 C 16.808594 5.332031 16.871094 5.644531 16.996094 5.945312 C 17.117188 6.246094 17.296875 6.507812 17.523438 6.738281 C 17.753906 6.96875 18.019531 7.144531 18.316406 7.265625 C 18.617188 7.390625 18.929688 7.453125 19.253906 7.453125 C 19.578125 7.453125 19.886719 7.390625 20.1875 7.265625 C 20.488281 7.144531 20.75 6.96875 20.980469 6.738281 C 21.210938 6.507812 21.386719 6.246094 21.511719 5.945312 C 21.632812 5.644531 21.695312 5.332031 21.695312 5.011719 C 21.695312 4.6875 21.632812 4.375 21.511719 4.074219 C 21.386719 3.773438 21.210938 3.511719 20.980469 3.28125 C 20.75 3.050781 20.488281 2.875 20.1875 2.753906 C 19.886719 2.628906 19.578125 2.566406 19.253906 2.566406 C 18.929688 2.566406 18.617188 2.628906 18.316406 2.753906 C 18.019531 2.875 17.753906 3.054688 17.523438 3.28125 C 17.296875 3.511719 17.121094 3.777344 16.996094 4.074219 C 16.871094 4.375 16.808594 4.6875 16.808594 5.011719 Z M 20.71875 5.011719 C 20.71875 5.203125 20.679688 5.390625 20.605469 5.570312 C 20.53125 5.75 20.425781 5.910156 20.289062 6.046875 C 20.152344 6.183594 19.992188 6.289062 19.8125 6.363281 C 19.632812 6.4375 19.445312 6.476562 19.253906 6.476562 C 19.058594 6.476562 18.871094 6.4375 18.691406 6.363281 C 18.511719 6.289062 18.351562 6.183594 18.214844 6.046875 C 18.078125 5.910156 17.972656 5.75 17.898438 5.570312 C 17.824219 5.390625 17.785156 5.203125 17.785156 5.011719 C 17.785156 4.816406 17.824219 4.628906 17.898438 4.449219 C 17.972656 4.269531 18.078125 4.109375 18.214844 3.972656 C 18.351562 3.835938 18.511719 3.730469 18.691406 3.65625 C 18.871094 3.582031 19.058594 3.542969 19.253906 3.542969 C 19.445312 3.542969 19.632812 3.582031 19.8125 3.65625 C 19.992188 3.730469 20.152344 3.835938 20.289062 3.972656 C 20.425781 4.109375 20.53125 4.269531 20.605469 4.449219 C 20.679688 4.628906 20.71875 4.816406 20.71875 5.011719 Z M 20.71875 5.011719 " fill-opacity="1" fill-rule="nonzero"/><path fill="#31ac7d" d="M 27.074219 1.589844 C 27.074219 1.394531 27.035156 1.207031 26.960938 1.027344 C 26.886719 0.847656 26.78125 0.6875 26.644531 0.550781 C 26.503906 0.414062 26.347656 0.308594 26.167969 0.234375 C 25.988281 0.160156 25.800781 0.121094 25.605469 0.121094 C 25.410156 0.121094 25.222656 0.160156 25.046875 0.234375 C 24.867188 0.308594 24.707031 0.414062 24.570312 0.550781 C 24.433594 0.6875 24.324219 0.847656 24.25 1.027344 C 24.175781 1.207031 24.140625 1.394531 24.140625 1.589844 C 24.140625 1.78125 24.175781 1.96875 24.25 2.148438 C 24.324219 2.328125 24.433594 2.488281 24.570312 2.625 C 24.707031 2.761719 24.867188 2.867188 25.046875 2.941406 C 25.222656 3.015625 25.410156 3.054688 25.605469 3.054688 C 25.800781 3.054688 25.988281 3.015625 26.167969 2.941406 C 26.347656 2.867188 26.503906 2.761719 26.644531 2.625 C 26.78125 2.488281 26.886719 2.328125 26.960938 2.148438 C 27.035156 1.96875 27.074219 1.78125 27.074219 1.589844 Z M 25.605469 2.078125 C 25.472656 2.078125 25.355469 2.03125 25.261719 1.933594 C 25.164062 1.839844 25.117188 1.722656 25.117188 1.589844 C 25.117188 1.453125 25.164062 1.339844 25.261719 1.242188 C 25.355469 1.148438 25.472656 1.101562 25.605469 1.101562 C 25.742188 1.101562 25.855469 1.148438 25.953125 1.242188 C 26.046875 1.339844 26.09375 1.453125 26.09375 1.589844 C 26.09375 1.722656 26.046875 1.839844 25.953125 1.933594 C 25.855469 2.03125 25.742188 2.078125 25.605469 2.078125 Z M 25.605469 2.078125 " fill-opacity="1" fill-rule="nonzero"/><path fill="#31ac7d" d="M 21.695312 11.363281 C 21.695312 11.230469 21.648438 11.113281 21.554688 11.019531 C 21.457031 10.921875 21.34375 10.875 21.207031 10.875 L 18.273438 10.875 C 18.140625 10.875 18.023438 10.921875 17.929688 11.019531 C 17.832031 11.113281 17.785156 11.230469 17.785156 11.363281 L 17.785156 14.296875 C 17.785156 14.429688 17.832031 14.546875 17.929688 14.640625 C 18.023438 14.738281 18.140625 14.785156 18.273438 14.785156 L 21.207031 14.785156 C 21.34375 14.785156 21.457031 14.738281 21.554688 14.640625 C 21.648438 14.546875 21.695312 14.429688 21.695312 14.296875 Z M 20.71875 13.808594 L 18.761719 13.808594 L 18.761719 11.851562 L 20.71875 11.851562 Z M 20.71875 13.808594 " fill-opacity="1" fill-rule="nonzero"/><path fill="#31ac7d" d="M 26.988281 12.558594 C 26.941406 12.496094 26.882812 12.445312 26.8125 12.410156 C 26.738281 12.371094 26.664062 12.355469 26.582031 12.355469 C 26.503906 12.355469 26.429688 12.371094 26.355469 12.410156 C 26.285156 12.445312 26.226562 12.496094 26.175781 12.558594 L 24.710938 14.757812 C 24.589844 14.9375 24.589844 15.121094 24.710938 15.300781 L 26.175781 17.5 C 26.222656 17.566406 26.28125 17.621094 26.351562 17.660156 C 26.425781 17.699219 26.5 17.71875 26.582031 17.71875 C 26.664062 17.71875 26.742188 17.699219 26.8125 17.660156 C 26.886719 17.621094 26.945312 17.566406 26.988281 17.5 L 28.457031 15.300781 C 28.578125 15.121094 28.578125 14.9375 28.457031 14.757812 Z M 26.582031 16.347656 L 25.703125 15.03125 L 26.582031 13.710938 L 27.464844 15.03125 Z M 26.582031 16.347656 " fill-opacity="1" fill-rule="nonzero"/><path fill="#31ac7d" d="M 23.652344 6.476562 C 23.515625 6.476562 23.402344 6.523438 23.304688 6.621094 C 23.210938 6.714844 23.164062 6.828125 23.164062 6.964844 L 23.164062 7.453125 C 23.164062 7.589844 23.210938 7.703125 23.304688 7.800781 C 23.402344 7.894531 23.515625 7.941406 23.652344 7.941406 C 23.785156 7.941406 23.902344 7.894531 23.996094 7.800781 C 24.09375 7.703125 24.140625 7.589844 24.140625 7.453125 L 24.140625 6.964844 C 24.140625 6.828125 24.09375 6.714844 23.996094 6.621094 C 23.902344 6.523438 23.785156 6.476562 23.652344 6.476562 Z M 23.652344 6.476562 " fill-opacity="1" fill-rule="nonzero"/><path fill="#31ac7d" d="M 24.140625 9.898438 L 24.140625 9.410156 C 24.140625 9.273438 24.09375 9.160156 23.996094 9.0625 C 23.902344 8.96875 23.785156 8.917969 23.652344 8.917969 C 23.515625 8.917969 23.402344 8.96875 23.304688 9.0625 C 23.210938 9.160156 23.164062 9.273438 23.164062 9.410156 L 23.164062 9.898438 C 23.164062 10.03125 23.210938 10.148438 23.304688 10.242188 C 23.402344 10.339844 23.515625 10.386719 23.652344 10.386719 C 23.785156 10.386719 23.902344 10.339844 23.996094 10.242188 C 24.09375 10.148438 24.140625 10.03125 24.140625 9.898438 Z M 24.140625 9.898438 " fill-opacity="1" fill-rule="nonzero"/><path fill="#31ac7d" d="M 22.183594 8.917969 L 22.671875 8.917969 C 22.808594 8.917969 22.921875 8.871094 23.019531 8.777344 C 23.113281 8.679688 23.164062 8.566406 23.164062 8.429688 C 23.164062 8.296875 23.113281 8.179688 23.019531 8.085938 C 22.921875 7.988281 22.808594 7.941406 22.671875 7.941406 L 22.183594 7.941406 C 22.050781 7.941406 21.933594 7.988281 21.839844 8.085938 C 21.742188 8.179688 21.695312 8.296875 21.695312 8.429688 C 21.695312 8.566406 21.742188 8.679688 21.839844 8.777344 C 21.933594 8.871094 22.050781 8.917969 22.183594 8.917969 Z M 22.183594 8.917969 " fill-opacity="1" fill-rule="nonzero"/><path fill="#31ac7d" d="M 24.628906 8.917969 L 25.117188 8.917969 C 25.253906 8.917969 25.367188 8.871094 25.464844 8.777344 C 25.558594 8.679688 25.605469 8.566406 25.605469 8.429688 C 25.605469 8.296875 25.558594 8.179688 25.464844 8.085938 C 25.367188 7.988281 25.253906 7.941406 25.117188 7.941406 L 24.628906 7.941406 C 24.492188 7.941406 24.378906 7.988281 24.28125 8.085938 C 24.1875 8.179688 24.140625 8.296875 24.140625 8.429688 C 24.140625 8.566406 24.1875 8.679688 24.28125 8.777344 C 24.378906 8.871094 24.492188 8.917969 24.628906 8.917969 Z M 24.628906 8.917969 " fill-opacity="1" fill-rule="nonzero"/><path fill="#31ac7d" d="M 21.695312 17.71875 C 21.695312 17.582031 21.648438 17.46875 21.554688 17.371094 C 21.457031 17.277344 21.34375 17.230469 21.207031 17.230469 C 21.070312 17.230469 20.957031 17.277344 20.863281 17.371094 C 20.765625 17.46875 20.71875 17.582031 20.71875 17.71875 L 20.71875 18.207031 C 20.71875 18.339844 20.765625 18.457031 20.863281 18.550781 C 20.957031 18.648438 21.070312 18.695312 21.207031 18.695312 C 21.34375 18.695312 21.457031 18.648438 21.554688 18.550781 C 21.648438 18.457031 21.695312 18.339844 21.695312 18.207031 Z M 21.695312 17.71875 " fill-opacity="1" fill-rule="nonzero"/><path fill="#31ac7d" d="M 21.207031 21.140625 C 21.34375 21.140625 21.457031 21.089844 21.554688 20.996094 C 21.648438 20.898438 21.695312 20.785156 21.695312 20.648438 L 21.695312 20.160156 C 21.695312 20.027344 21.648438 19.910156 21.554688 19.816406 C 21.457031 19.71875 21.34375 19.671875 21.207031 19.671875 C 21.070312 19.671875 20.957031 19.71875 20.863281 19.816406 C 20.765625 19.910156 20.71875 20.027344 20.71875 20.160156 L 20.71875 20.648438 C 20.71875 20.785156 20.765625 20.898438 20.863281 20.996094 C 20.957031 21.089844 21.070312 21.140625 21.207031 21.140625 Z M 21.207031 21.140625 " fill-opacity="1" fill-rule="nonzero"/><path fill="#31ac7d" d="M 20.230469 18.695312 L 19.742188 18.695312 C 19.605469 18.695312 19.492188 18.742188 19.394531 18.839844 C 19.300781 18.933594 19.253906 19.046875 19.253906 19.183594 C 19.253906 19.320312 19.300781 19.433594 19.394531 19.53125 C 19.492188 19.625 19.605469 19.671875 19.742188 19.671875 L 20.230469 19.671875 C 20.363281 19.671875 20.480469 19.625 20.574219 19.53125 C 20.671875 19.433594 20.71875 19.320312 20.71875 19.183594 C 20.71875 19.046875 20.671875 18.933594 20.574219 18.839844 C 20.480469 18.742188 20.363281 18.695312 20.230469 18.695312 Z M 20.230469 18.695312 " fill-opacity="1" fill-rule="nonzero"/><path fill="#31ac7d" d="M 23.164062 19.183594 C 23.164062 19.046875 23.113281 18.933594 23.019531 18.839844 C 22.921875 18.742188 22.808594 18.695312 22.671875 18.695312 L 22.183594 18.695312 C 22.050781 18.695312 21.933594 18.742188 21.839844 18.839844 C 21.742188 18.933594 21.695312 19.046875 21.695312 19.183594 C 21.695312 19.320312 21.742188 19.433594 21.839844 19.53125 C 21.933594 19.625 22.050781 19.671875 22.183594 19.671875 L 22.671875 19.671875 C 22.808594 19.671875 22.921875 19.625 23.019531 19.53125 C 23.113281 19.433594 23.164062 19.320312 23.164062 19.183594 Z M 23.164062 19.183594 " fill-opacity="1" fill-rule="nonzero"/><g clip-path="url(#f0948464bc)"><path fill="#31ac7d" d="M 28.734375 25.441406 C 28.84375 25.519531 28.964844 25.550781 29.097656 25.53125 C 29.230469 25.515625 29.335938 25.449219 29.417969 25.34375 C 29.5 25.234375 29.53125 25.113281 29.511719 24.980469 C 29.492188 24.847656 29.429688 24.738281 29.320312 24.65625 L 24.433594 20.992188 C 24.324219 20.910156 24.203125 20.878906 24.070312 20.898438 C 23.9375 20.917969 23.828125 20.980469 23.75 21.089844 C 23.667969 21.199219 23.636719 21.320312 23.65625 21.453125 C 23.675781 21.585938 23.738281 21.691406 23.847656 21.773438 Z M 28.734375 25.441406 " fill-opacity="1" fill-rule="nonzero"/></g><path fill="#31ac7d" d="M 16.90625 15.957031 C 16.824219 16.066406 16.792969 16.1875 16.8125 16.320312 C 16.832031 16.453125 16.894531 16.5625 17.003906 16.640625 L 18.308594 17.621094 C 18.414062 17.699219 18.535156 17.730469 18.667969 17.710938 C 18.800781 17.691406 18.910156 17.628906 18.992188 17.523438 C 19.070312 17.414062 19.101562 17.292969 19.082031 17.160156 C 19.066406 17.027344 19 16.917969 18.894531 16.835938 L 17.589844 15.859375 C 17.480469 15.78125 17.359375 15.75 17.226562 15.769531 C 17.09375 15.785156 16.988281 15.851562 16.90625 15.957031 Z M 16.90625 15.957031 " fill-opacity="1" fill-rule="nonzero"/><path fill="#31ac7d" d="M 14.050781 6.371094 L 13.832031 7.347656 C 13.804688 7.480469 13.824219 7.601562 13.898438 7.714844 C 13.96875 7.828125 14.070312 7.902344 14.203125 7.929688 C 14.238281 7.9375 14.273438 7.941406 14.3125 7.941406 C 14.425781 7.941406 14.527344 7.90625 14.617188 7.835938 C 14.707031 7.761719 14.761719 7.671875 14.789062 7.558594 L 15.003906 6.582031 C 15.035156 6.449219 15.011719 6.328125 14.941406 6.214844 C 14.867188 6.101562 14.765625 6.027344 14.632812 6 C 14.5 5.96875 14.378906 5.992188 14.265625 6.0625 C 14.152344 6.136719 14.078125 6.238281 14.050781 6.371094 Z M 14.050781 6.371094 " fill-opacity="1" fill-rule="nonzero"/><path fill="#31ac7d" d="M 14.855469 5 C 14.890625 5.003906 14.925781 5.007812 14.960938 5.011719 C 15.078125 5.007812 15.179688 4.972656 15.269531 4.902344 C 15.355469 4.832031 15.414062 4.738281 15.4375 4.628906 L 16.308594 0.71875 C 16.339844 0.585938 16.320312 0.460938 16.246094 0.34375 C 16.175781 0.226562 16.074219 0.15625 15.9375 0.125 C 15.804688 0.09375 15.679688 0.117188 15.566406 0.191406 C 15.453125 0.265625 15.382812 0.371094 15.355469 0.503906 L 14.484375 4.414062 C 14.457031 4.546875 14.476562 4.667969 14.550781 4.785156 C 14.621094 4.898438 14.722656 4.96875 14.855469 5 Z M 14.855469 5 " fill-opacity="1" fill-rule="nonzero"/></svg>