<svg xmlns="http://www.w3.org/2000/svg" xmlns:xlink="http://www.w3.org/1999/xlink" width="40" zoomAndPan="magnify" viewBox="0 0 30 30.000001" height="40" preserveAspectRatio="xMidYMid meet" version="1.0"><defs><clipPath id="eb4fb83886"><path d="M 0.484375 0 L 29.515625 0 L 29.515625 29.03125 L 0.484375 29.03125 Z M 0.484375 0 " clip-rule="nonzero"/></clipPath></defs><g clip-path="url(#eb4fb83886)"><path fill="#31ac7d" d="M 3.742188 14.5 C 4.601562 12.25 6.800781 10.738281 9.21875 10.738281 L 20.78125 10.738281 C 23.199219 10.738281 25.398438 12.25 26.257812 14.5 C 27.148438 16.832031 28.253906 20.660156 28.480469 25.648438 C 28.507812 26.292969 28.28125 26.902344 27.835938 27.363281 C 27.402344 27.820312 26.816406 28.070312 26.1875 28.070312 C 25.289062 28.070312 24.46875 27.542969 24.097656 26.726562 L 22.019531 22.167969 C 21.785156 21.65625 21.269531 21.328125 20.707031 21.328125 L 9.292969 21.328125 C 8.730469 21.328125 8.214844 21.65625 7.980469 22.167969 L 5.902344 26.726562 C 5.53125 27.542969 4.710938 28.070312 3.816406 28.070312 C 3.183594 28.070312 2.597656 27.820312 2.164062 27.363281 C 1.71875 26.902344 1.492188 26.292969 1.519531 25.648438 C 1.746094 20.660156 2.851562 16.832031 3.742188 14.5 Z M 18.222656 8.835938 L 15.65625 5.300781 C 15.355469 4.875 14.640625 4.882812 14.351562 5.292969 L 11.769531 8.847656 C 11.582031 9.128906 11.59375 9.5 11.789062 9.773438 L 9.703125 9.773438 L 9.703125 6.28125 C 9.703125 6.121094 9.785156 5.972656 9.914062 5.898438 L 14.824219 3.078125 C 14.921875 3.023438 15.078125 3.019531 15.179688 3.082031 L 20.078125 5.894531 C 20.214844 5.972656 20.296875 6.121094 20.296875 6.28125 L 20.296875 9.773438 L 18.210938 9.773438 C 18.410156 9.503906 18.421875 9.128906 18.222656 8.835938 Z M 13.035156 9.773438 L 12.632812 9.296875 L 15 6.035156 L 17.367188 9.296875 L 16.964844 9.773438 Z M 7.777344 6.28125 C 7.777344 5.433594 8.230469 4.644531 8.957031 4.226562 L 13.859375 1.414062 C 14.5625 1.007812 15.4375 1.007812 16.140625 1.414062 L 21.042969 4.226562 C 21.769531 4.644531 22.222656 5.433594 22.222656 6.28125 L 22.222656 9.933594 C 21.90625 9.863281 21.585938 9.816406 21.257812 9.792969 L 21.257812 6.28125 C 21.257812 5.777344 20.992188 5.3125 20.558594 5.0625 L 15.660156 2.246094 C 15.269531 2.019531 14.730469 2.019531 14.339844 2.246094 L 9.429688 5.0625 C 9.007812 5.3125 8.742188 5.78125 8.742188 6.28125 L 8.742188 9.792969 C 8.414062 9.816406 8.09375 9.863281 7.777344 9.933594 Z M 1.464844 28.03125 C 2.085938 28.675781 2.921875 29.03125 3.816406 29.03125 C 5.085938 29.03125 6.25 28.285156 6.777344 27.128906 L 8.855469 22.570312 C 8.933594 22.402344 9.105469 22.292969 9.292969 22.292969 L 20.707031 22.292969 C 20.894531 22.292969 21.066406 22.402344 21.144531 22.570312 L 23.222656 27.128906 C 23.75 28.285156 24.914062 29.03125 26.1875 29.03125 C 27.082031 29.03125 27.914062 28.675781 28.535156 28.03125 C 29.15625 27.375 29.480469 26.515625 29.441406 25.605469 C 29.210938 20.488281 28.074219 16.558594 27.160156 14.15625 C 26.457031 12.316406 24.976562 10.898438 23.183594 10.21875 L 23.183594 6.28125 C 23.183594 5.089844 22.546875 3.984375 21.523438 3.390625 L 16.625 0.582031 C 15.621094 0 14.378906 0 13.378906 0.582031 L 8.476562 3.390625 C 7.453125 3.984375 6.816406 5.089844 6.816406 6.28125 L 6.816406 10.21875 C 5.019531 10.898438 3.542969 12.316406 2.839844 14.15625 C 1.925781 16.558594 0.789062 20.488281 0.558594 25.605469 C 0.519531 26.515625 0.84375 27.375 1.464844 28.03125 " fill-opacity="1" fill-rule="nonzero"/></g><path fill="#31ac7d" d="M 14.035156 12.664062 L 15.964844 12.664062 C 16.226562 12.664062 16.445312 12.878906 16.445312 13.144531 C 16.445312 13.410156 16.226562 13.625 15.964844 13.625 L 14.035156 13.625 C 13.773438 13.625 13.554688 13.410156 13.554688 13.144531 C 13.554688 12.878906 13.773438 12.664062 14.035156 12.664062 Z M 14.035156 14.589844 L 15.964844 14.589844 C 16.761719 14.589844 17.40625 13.941406 17.40625 13.144531 C 17.40625 12.347656 16.761719 11.699219 15.964844 11.699219 L 14.035156 11.699219 C 13.238281 11.699219 12.59375 12.347656 12.59375 13.144531 C 12.59375 13.941406 13.238281 14.589844 14.035156 14.589844 " fill-opacity="1" fill-rule="nonzero"/><path fill="#31ac7d" d="M 5.371094 16.515625 L 6.816406 16.515625 L 6.816406 17.957031 C 6.816406 18.222656 7.03125 18.441406 7.296875 18.441406 C 7.5625 18.441406 7.777344 18.222656 7.777344 17.957031 L 7.777344 16.515625 L 9.222656 16.515625 C 9.488281 16.515625 9.703125 16.296875 9.703125 16.03125 C 9.703125 15.765625 9.488281 15.550781 9.222656 15.550781 L 7.777344 15.550781 L 7.777344 14.105469 C 7.777344 13.839844 7.5625 13.625 7.296875 13.625 C 7.03125 13.625 6.816406 13.839844 6.816406 14.105469 L 6.816406 15.550781 L 5.371094 15.550781 C 5.105469 15.550781 4.890625 15.765625 4.890625 16.03125 C 4.890625 16.296875 5.105469 16.515625 5.371094 16.515625 " fill-opacity="1" fill-rule="nonzero"/><path fill="#31ac7d" d="M 24.148438 16.515625 L 24.628906 16.515625 C 24.894531 16.515625 25.109375 16.296875 25.109375 16.03125 C 25.109375 15.765625 24.894531 15.550781 24.628906 15.550781 L 24.148438 15.550781 C 23.882812 15.550781 23.667969 15.765625 23.667969 16.03125 C 23.667969 16.296875 23.882812 16.515625 24.148438 16.515625 " fill-opacity="1" fill-rule="nonzero"/><path fill="#31ac7d" d="M 20.777344 16.515625 L 21.257812 16.515625 C 21.523438 16.515625 21.742188 16.296875 21.742188 16.03125 C 21.742188 15.765625 21.523438 15.550781 21.257812 15.550781 L 20.777344 15.550781 C 20.511719 15.550781 20.296875 15.765625 20.296875 16.03125 C 20.296875 16.296875 20.511719 16.515625 20.777344 16.515625 " fill-opacity="1" fill-rule="nonzero"/><path fill="#31ac7d" d="M 12.59375 19.882812 L 13.554688 19.882812 C 13.820312 19.882812 14.035156 19.667969 14.035156 19.402344 C 14.035156 19.136719 13.820312 18.921875 13.554688 18.921875 L 12.59375 18.921875 C 12.328125 18.921875 12.109375 19.136719 12.109375 19.402344 C 12.109375 19.667969 12.328125 19.882812 12.59375 19.882812 " fill-opacity="1" fill-rule="nonzero"/><path fill="#31ac7d" d="M 16.445312 18.921875 C 16.179688 18.921875 15.964844 19.136719 15.964844 19.402344 C 15.964844 19.667969 16.179688 19.882812 16.445312 19.882812 L 17.40625 19.882812 C 17.671875 19.882812 17.890625 19.667969 17.890625 19.402344 C 17.890625 19.136719 17.671875 18.921875 17.40625 18.921875 L 16.445312 18.921875 " fill-opacity="1" fill-rule="nonzero"/><path fill="#31ac7d" d="M 22.703125 15.070312 C 22.96875 15.070312 23.183594 14.855469 23.183594 14.589844 L 23.183594 14.105469 C 23.183594 13.839844 22.96875 13.625 22.703125 13.625 C 22.4375 13.625 22.222656 13.839844 22.222656 14.105469 L 22.222656 14.589844 C 22.222656 14.855469 22.4375 15.070312 22.703125 15.070312 " fill-opacity="1" fill-rule="nonzero"/><path fill="#31ac7d" d="M 22.703125 18.441406 C 22.96875 18.441406 23.183594 18.222656 23.183594 17.957031 L 23.183594 17.476562 C 23.183594 17.210938 22.96875 16.996094 22.703125 16.996094 C 22.4375 16.996094 22.222656 17.210938 22.222656 17.476562 L 22.222656 17.957031 C 22.222656 18.222656 22.4375 18.441406 22.703125 18.441406 " fill-opacity="1" fill-rule="nonzero"/></svg>