<svg xmlns="http://www.w3.org/2000/svg" xmlns:xlink="http://www.w3.org/1999/xlink" width="40" zoomAndPan="magnify" viewBox="0 0 30 30.000001" height="40" preserveAspectRatio="xMidYMid meet" version="1.0"><defs><clipPath id="2bca2bcfb2"><path d="M 0.484375 9.289062 L 29.515625 9.289062 L 29.515625 19.453125 L 0.484375 19.453125 Z M 0.484375 9.289062 " clip-rule="nonzero"/></clipPath></defs><g clip-path="url(#2bca2bcfb2)"><path fill="#31ac7d" d="M 16.679688 12.449219 L 15.675781 12.449219 L 15.675781 14.769531 C 15.675781 15.367188 15.429688 15.84375 14.710938 15.84375 C 14 15.847656 13.792969 15.359375 13.792969 14.738281 L 13.792969 12.453125 L 12.789062 12.453125 L 12.789062 14.992188 C 12.789062 15.726562 13.050781 16.773438 14.425781 16.78125 C 15.183594 16.789062 15.558594 16.421875 15.734375 16.09375 L 15.734375 16.652344 L 16.675781 16.652344 Z M 17.074219 16.648438 L 18.078125 16.648438 L 18.078125 14.332031 C 18.078125 13.742188 18.324219 13.269531 19.035156 13.261719 C 19.738281 13.261719 19.945312 13.742188 19.945312 14.371094 L 19.945312 16.648438 L 20.945312 16.648438 L 20.945312 14.117188 C 20.945312 13.375 20.6875 12.328125 19.316406 12.320312 C 18.566406 12.3125 18.191406 12.679688 18.007812 13.007812 L 18.015625 12.449219 L 17.074219 12.449219 Z M 21.328125 11.882812 L 22.332031 11.882812 L 22.332031 10.988281 L 21.328125 10.988281 Z M 21.328125 16.648438 L 22.332031 16.648438 L 22.332031 12.449219 L 21.328125 12.449219 Z M 23.378906 16.648438 L 24.378906 16.648438 L 24.378906 13.222656 L 25.097656 13.222656 L 24.800781 12.449219 L 24.382812 12.449219 L 24.382812 10.988281 L 23.378906 10.988281 L 23.378906 12.453125 L 22.683594 12.453125 L 22.683594 13.222656 L 23.378906 13.222656 Z M 26.066406 18.117188 L 27.136719 18.117188 L 29.347656 12.449219 L 28.273438 12.449219 L 27.265625 15.242188 L 26.242188 12.449219 L 25.167969 12.449219 L 26.753906 16.488281 Z M 10.847656 13.4375 L 9.730469 9.289062 L 5.558594 10.402344 L 4.941406 11.484375 L 3.695312 11.476562 L 0.652344 14.511719 L 3.699219 17.550781 L 4.949219 17.542969 L 5.566406 18.625 L 9.730469 19.738281 L 10.84375 15.585938 L 10.214844 14.511719 Z M 8.238281 10.84375 L 6.410156 14 L 2.753906 14 L 5.054688 11.660156 Z M 6.410156 15.03125 L 8.238281 18.1875 L 5.050781 17.371094 L 2.75 15.03125 Z M 7.296875 14.519531 L 9.128906 11.355469 L 10.011719 14.515625 L 9.128906 17.671875 Z M 7.296875 14.519531 " fill-opacity="1" fill-rule="nonzero"/></g></svg>