<svg xmlns="http://www.w3.org/2000/svg" xmlns:xlink="http://www.w3.org/1999/xlink" width="40" zoomAndPan="magnify" viewBox="0 0 30 30.000001" height="40" preserveAspectRatio="xMidYMid meet" version="1.0"><defs><clipPath id="81390d925b"><path d="M 0.484375 0.933594 L 29.515625 0.933594 L 29.515625 27.789062 L 0.484375 27.789062 Z M 0.484375 0.933594 " clip-rule="nonzero"/></clipPath></defs><g clip-path="url(#81390d925b)"><path fill="#31ac7d" d="M 29.566406 24.066406 C 29.566406 24.058594 29.566406 24.050781 29.5625 24.042969 C 29.558594 24.035156 29.558594 24.03125 29.554688 24.023438 C 29.550781 24.019531 29.550781 24.015625 29.550781 24.015625 L 25.171875 16.429688 L 27.339844 12.679688 C 27.339844 12.675781 27.339844 12.675781 27.339844 12.671875 C 27.34375 12.664062 27.347656 12.65625 27.347656 12.652344 C 27.351562 12.644531 27.355469 12.636719 27.355469 12.628906 C 27.355469 12.621094 27.359375 12.617188 27.359375 12.609375 C 27.359375 12.605469 27.359375 12.601562 27.359375 12.597656 C 27.359375 12.59375 27.359375 12.59375 27.359375 12.589844 C 27.359375 12.582031 27.355469 12.574219 27.355469 12.566406 C 27.355469 12.558594 27.351562 12.554688 27.347656 12.546875 C 27.347656 12.539062 27.34375 12.53125 27.339844 12.527344 C 27.339844 12.523438 27.339844 12.519531 27.339844 12.515625 L 20.699219 1.019531 C 20.695312 1.011719 20.691406 1.007812 20.6875 1.003906 C 20.679688 0.996094 20.671875 0.988281 20.664062 0.980469 C 20.65625 0.972656 20.648438 0.96875 20.640625 0.960938 C 20.628906 0.957031 20.621094 0.953125 20.613281 0.949219 C 20.601562 0.945312 20.589844 0.941406 20.578125 0.941406 C 20.570312 0.941406 20.566406 0.9375 20.558594 0.9375 L 16.132812 0.9375 C 16.128906 0.9375 16.128906 0.9375 16.125 0.941406 C 16.117188 0.941406 16.109375 0.941406 16.101562 0.941406 C 16.09375 0.945312 16.085938 0.945312 16.082031 0.949219 C 16.074219 0.949219 16.066406 0.953125 16.0625 0.957031 C 16.058594 0.957031 16.054688 0.957031 16.050781 0.960938 C 16.046875 0.960938 16.046875 0.964844 16.042969 0.964844 C 16.039062 0.96875 16.03125 0.972656 16.027344 0.980469 C 16.019531 0.984375 16.015625 0.988281 16.011719 0.996094 C 16.007812 1 16.003906 1.007812 16 1.011719 C 15.996094 1.015625 15.992188 1.015625 15.992188 1.019531 L 11.613281 8.601562 L 7.28125 8.601562 C 7.28125 8.601562 7.277344 8.605469 7.273438 8.605469 C 7.265625 8.605469 7.257812 8.605469 7.253906 8.609375 C 7.246094 8.609375 7.238281 8.609375 7.230469 8.613281 C 7.222656 8.617188 7.214844 8.617188 7.210938 8.621094 C 7.207031 8.625 7.203125 8.625 7.199219 8.625 C 7.199219 8.625 7.195312 8.628906 7.195312 8.632812 C 7.1875 8.636719 7.183594 8.640625 7.175781 8.644531 C 7.171875 8.648438 7.164062 8.65625 7.160156 8.660156 C 7.15625 8.664062 7.152344 8.671875 7.148438 8.675781 C 7.144531 8.679688 7.144531 8.683594 7.140625 8.683594 L 0.503906 20.183594 C 0.5 20.1875 0.5 20.195312 0.496094 20.203125 C 0.492188 20.210938 0.488281 20.222656 0.484375 20.234375 C 0.484375 20.242188 0.484375 20.253906 0.484375 20.265625 C 0.484375 20.273438 0.484375 20.285156 0.484375 20.292969 C 0.488281 20.304688 0.492188 20.316406 0.496094 20.328125 C 0.5 20.332031 0.5 20.339844 0.503906 20.34375 L 2.714844 24.175781 C 2.71875 24.179688 2.71875 24.179688 2.722656 24.183594 C 2.726562 24.191406 2.730469 24.195312 2.734375 24.203125 C 2.742188 24.210938 2.75 24.21875 2.761719 24.222656 C 2.765625 24.226562 2.769531 24.234375 2.777344 24.238281 C 2.777344 24.238281 2.78125 24.238281 2.785156 24.238281 C 2.804688 24.25 2.832031 24.257812 2.855469 24.257812 C 2.855469 24.257812 2.855469 24.257812 2.859375 24.257812 L 11.613281 24.257812 L 13.777344 28.011719 C 13.78125 28.011719 13.785156 28.011719 13.785156 28.015625 C 13.789062 28.023438 13.792969 28.027344 13.796875 28.035156 C 13.804688 28.042969 13.816406 28.050781 13.824219 28.058594 C 13.828125 28.0625 13.832031 28.066406 13.839844 28.070312 C 13.84375 28.070312 13.84375 28.070312 13.847656 28.074219 C 13.871094 28.082031 13.894531 28.089844 13.917969 28.089844 C 13.921875 28.089844 13.921875 28.09375 13.921875 28.09375 L 27.195312 28.09375 C 27.222656 28.09375 27.246094 28.085938 27.269531 28.074219 C 27.277344 28.070312 27.28125 28.066406 27.285156 28.0625 C 27.304688 28.050781 27.316406 28.035156 27.328125 28.019531 C 27.332031 28.015625 27.335938 28.015625 27.339844 28.011719 L 29.550781 24.175781 C 29.550781 24.175781 29.550781 24.171875 29.554688 24.167969 C 29.558594 24.160156 29.558594 24.15625 29.5625 24.148438 C 29.566406 24.140625 29.566406 24.132812 29.566406 24.125 C 29.570312 24.121094 29.570312 24.113281 29.570312 24.105469 C 29.570312 24.101562 29.574219 24.097656 29.574219 24.097656 C 29.574219 24.09375 29.570312 24.089844 29.570312 24.085938 C 29.570312 24.078125 29.570312 24.070312 29.566406 24.066406 Z M 29.125 23.933594 L 16.226562 23.933594 L 11.992188 16.59375 L 16.039062 16.59375 L 18.203125 20.34375 C 18.207031 20.347656 18.207031 20.347656 18.210938 20.351562 C 18.214844 20.359375 18.21875 20.363281 18.222656 20.371094 C 18.230469 20.378906 18.238281 20.386719 18.25 20.390625 C 18.253906 20.394531 18.257812 20.402344 18.265625 20.40625 C 18.265625 20.40625 18.269531 20.40625 18.273438 20.40625 C 18.292969 20.417969 18.320312 20.425781 18.34375 20.425781 C 18.34375 20.425781 18.34375 20.425781 18.347656 20.425781 L 22.773438 20.425781 C 22.796875 20.425781 22.824219 20.417969 22.84375 20.40625 C 22.851562 20.40625 22.855469 20.402344 22.863281 20.394531 C 22.878906 20.386719 22.890625 20.371094 22.902344 20.355469 C 22.90625 20.351562 22.910156 20.351562 22.914062 20.34375 L 24.984375 16.757812 Z M 22.675781 20.101562 L 18.628906 20.101562 L 22.867188 12.761719 L 26.914062 12.761719 Z M 20.464844 1.265625 L 26.914062 12.433594 L 22.867188 12.433594 L 16.417969 1.265625 Z M 16.132812 1.429688 L 22.582031 12.597656 L 18.347656 19.9375 L 16.320312 16.429688 L 18.488281 12.679688 C 18.488281 12.675781 18.488281 12.675781 18.492188 12.671875 C 18.492188 12.664062 18.496094 12.65625 18.5 12.652344 C 18.5 12.644531 18.503906 12.636719 18.503906 12.628906 C 18.507812 12.621094 18.507812 12.617188 18.507812 12.609375 C 18.507812 12.605469 18.507812 12.601562 18.507812 12.597656 C 18.507812 12.59375 18.507812 12.59375 18.507812 12.589844 C 18.507812 12.582031 18.507812 12.574219 18.503906 12.566406 C 18.503906 12.558594 18.5 12.554688 18.5 12.546875 C 18.496094 12.539062 18.492188 12.53125 18.492188 12.527344 C 18.488281 12.523438 18.488281 12.519531 18.488281 12.515625 L 16.273438 8.683594 C 16.269531 8.679688 16.265625 8.675781 16.261719 8.667969 C 16.253906 8.660156 16.246094 8.652344 16.238281 8.644531 C 16.230469 8.636719 16.222656 8.632812 16.214844 8.628906 C 16.203125 8.621094 16.195312 8.617188 16.1875 8.613281 C 16.175781 8.609375 16.164062 8.609375 16.152344 8.605469 C 16.144531 8.605469 16.140625 8.601562 16.132812 8.601562 L 11.992188 8.601562 Z M 11.707031 8.929688 L 16.039062 8.929688 L 18.0625 12.433594 L 9.589844 12.433594 L 7.566406 8.929688 Z M 0.832031 20.265625 L 7.28125 9.09375 L 9.304688 12.597656 L 2.859375 23.769531 Z M 3.140625 23.933594 L 9.589844 12.761719 L 18.0625 12.761719 L 16.039062 16.269531 L 11.707031 16.269531 C 11.703125 16.269531 11.703125 16.269531 11.699219 16.269531 C 11.691406 16.269531 11.683594 16.269531 11.675781 16.273438 C 11.667969 16.273438 11.664062 16.277344 11.65625 16.277344 C 11.648438 16.28125 11.640625 16.285156 11.636719 16.285156 C 11.632812 16.289062 11.628906 16.289062 11.625 16.289062 C 11.625 16.292969 11.621094 16.292969 11.621094 16.296875 C 11.613281 16.300781 11.609375 16.304688 11.601562 16.308594 C 11.597656 16.3125 11.589844 16.320312 11.585938 16.324219 C 11.582031 16.332031 11.578125 16.335938 11.574219 16.34375 C 11.570312 16.34375 11.566406 16.347656 11.566406 16.347656 L 9.355469 20.183594 C 9.351562 20.1875 9.351562 20.195312 9.347656 20.203125 C 9.34375 20.210938 9.339844 20.222656 9.335938 20.234375 C 9.335938 20.242188 9.335938 20.253906 9.335938 20.265625 C 9.335938 20.273438 9.335938 20.285156 9.335938 20.292969 C 9.339844 20.304688 9.34375 20.316406 9.347656 20.328125 C 9.351562 20.332031 9.351562 20.339844 9.355469 20.34375 L 11.425781 23.933594 Z M 9.683594 20.265625 L 11.707031 16.757812 L 15.945312 24.097656 L 13.921875 27.601562 Z M 27.101562 27.765625 L 14.203125 27.765625 L 16.226562 24.257812 L 29.125 24.257812 Z M 27.101562 27.765625 " fill-opacity="1" fill-rule="nonzero"/></g></svg>