<svg xmlns="http://www.w3.org/2000/svg" xmlns:xlink="http://www.w3.org/1999/xlink" width="40" zoomAndPan="magnify" viewBox="0 0 30 30.000001" height="40" preserveAspectRatio="xMidYMid meet" version="1.0"><defs><clipPath id="03c2efec03"><path d="M 0.484375 0 L 29.515625 0 L 29.515625 29.03125 L 0.484375 29.03125 Z M 0.484375 0 " clip-rule="nonzero"/></clipPath></defs><g clip-path="url(#03c2efec03)"><path fill="#31ac7d" d="M 28.546875 26.613281 C 28.546875 27.414062 27.898438 28.066406 27.097656 28.066406 L 20.019531 28.066406 C 19.488281 28.066406 19 27.773438 18.746094 27.308594 L 16.859375 23.847656 C 16.488281 23.164062 15.777344 22.742188 15 22.742188 C 14.222656 22.742188 13.511719 23.164062 13.140625 23.847656 L 11.253906 27.308594 C 11 27.773438 10.511719 28.066406 9.980469 28.066406 L 2.902344 28.066406 C 2.101562 28.066406 1.453125 27.414062 1.453125 26.613281 L 1.453125 12.097656 C 1.453125 11.296875 2.101562 10.644531 2.902344 10.644531 L 12.097656 10.644531 L 12.097656 12.304688 C 12.097656 12.574219 12.171875 12.839844 12.320312 13.074219 L 14.179688 15.996094 C 14.355469 16.28125 14.664062 16.453125 15 16.453125 C 15.335938 16.453125 15.644531 16.28125 15.820312 16 L 17.683594 13.070312 C 17.828125 12.839844 17.902344 12.574219 17.902344 12.304688 L 17.902344 10.644531 L 27.097656 10.644531 C 27.898438 10.644531 28.546875 11.296875 28.546875 12.097656 Z M 12.738281 26.613281 L 13.992188 24.308594 C 14.191406 23.9375 14.578125 23.710938 15 23.710938 C 15.421875 23.710938 15.808594 23.9375 16.007812 24.308594 L 17.261719 26.613281 Z M 4.355469 8.710938 C 4.355469 8.175781 4.789062 7.742188 5.324219 7.742188 L 12.097656 7.742188 L 12.097656 9.675781 L 4.355469 9.675781 Z M 13.066406 1.453125 C 13.066406 1.183594 13.28125 0.96875 13.546875 0.96875 L 16.453125 0.96875 C 16.71875 0.96875 16.933594 1.183594 16.933594 1.453125 L 16.933594 2.417969 L 13.066406 2.417969 Z M 16.539062 13.066406 L 15 15.480469 L 13.460938 13.066406 Z M 15 11.128906 C 15.265625 11.128906 15.484375 10.910156 15.484375 10.644531 L 15.484375 3.386719 L 16.933594 3.386719 L 16.933594 12.097656 L 13.066406 12.097656 L 13.066406 3.386719 L 14.515625 3.386719 L 14.515625 10.644531 C 14.515625 10.910156 14.734375 11.128906 15 11.128906 Z M 24.675781 7.742188 C 25.210938 7.742188 25.644531 8.175781 25.644531 8.710938 L 25.644531 9.675781 L 17.902344 9.675781 L 17.902344 7.742188 Z M 27.097656 9.675781 L 26.613281 9.675781 L 26.613281 8.710938 C 26.613281 7.640625 25.746094 6.773438 24.675781 6.773438 L 17.902344 6.773438 L 17.902344 1.453125 C 17.902344 0.648438 17.253906 0 16.453125 0 L 13.546875 0 C 12.746094 0 12.097656 0.648438 12.097656 1.453125 L 12.097656 6.773438 L 5.324219 6.773438 C 4.253906 6.773438 3.386719 7.640625 3.386719 8.710938 L 3.386719 9.675781 L 2.902344 9.675781 C 1.570312 9.675781 0.484375 10.761719 0.484375 12.097656 L 0.484375 26.613281 C 0.484375 27.949219 1.570312 29.03125 2.902344 29.03125 L 9.980469 29.03125 C 10.867188 29.03125 11.679688 28.550781 12.105469 27.773438 L 12.210938 27.582031 L 17.789062 27.582031 L 17.894531 27.773438 C 18.320312 28.550781 19.132812 29.03125 20.019531 29.03125 L 27.097656 29.03125 C 28.429688 29.03125 29.515625 27.949219 29.515625 26.613281 L 29.515625 12.097656 C 29.515625 10.761719 28.429688 9.675781 27.097656 9.675781 " fill-opacity="1" fill-rule="nonzero"/></g><path fill="#31ac7d" d="M 8.226562 21.289062 C 7.730469 21.289062 7.265625 21.179688 6.839844 20.988281 L 9.128906 19.785156 C 9.367188 19.660156 9.457031 19.367188 9.332031 19.128906 C 9.207031 18.894531 8.914062 18.804688 8.675781 18.925781 L 5.921875 20.378906 C 5.527344 20.011719 5.222656 19.550781 5.039062 19.035156 L 6.03125 18.511719 C 6.269531 18.386719 6.359375 18.09375 6.234375 17.859375 C 6.109375 17.621094 5.816406 17.527344 5.582031 17.652344 L 4.847656 18.042969 C 4.84375 17.996094 4.839844 17.949219 4.839844 17.902344 C 4.839844 16.035156 6.359375 14.515625 8.226562 14.515625 C 8.984375 14.515625 9.683594 14.769531 10.25 15.195312 L 7.515625 16.632812 C 7.28125 16.757812 7.1875 17.050781 7.3125 17.285156 C 7.398438 17.453125 7.566406 17.546875 7.742188 17.546875 C 7.816406 17.546875 7.894531 17.527344 7.96875 17.488281 L 10.960938 15.914062 C 11.277344 16.347656 11.488281 16.851562 11.570312 17.402344 L 10.417969 18.011719 C 10.183594 18.136719 10.089844 18.429688 10.21875 18.667969 C 10.304688 18.832031 10.472656 18.925781 10.644531 18.925781 C 10.722656 18.925781 10.800781 18.90625 10.871094 18.867188 L 11.554688 18.507812 C 11.269531 20.085938 9.886719 21.289062 8.226562 21.289062 Z M 12.566406 17.605469 C 12.496094 16.582031 12.070312 15.652344 11.414062 14.945312 C 11.40625 14.941406 11.402344 14.929688 11.394531 14.925781 C 10.601562 14.078125 9.476562 13.546875 8.226562 13.546875 C 5.824219 13.546875 3.871094 15.5 3.871094 17.902344 C 3.871094 19.296875 4.53125 20.539062 5.554688 21.335938 C 5.574219 21.351562 5.59375 21.367188 5.617188 21.382812 C 6.34375 21.929688 7.246094 22.257812 8.226562 22.257812 C 10.628906 22.257812 12.582031 20.304688 12.582031 17.902344 C 12.582031 17.828125 12.574219 17.753906 12.570312 17.679688 C 12.570312 17.652344 12.570312 17.628906 12.566406 17.605469 " fill-opacity="1" fill-rule="nonzero"/><path fill="#31ac7d" d="M 21.773438 21.289062 C 21.277344 21.289062 20.8125 21.179688 20.386719 20.988281 L 22.675781 19.785156 C 22.914062 19.660156 23.003906 19.367188 22.878906 19.128906 C 22.753906 18.894531 22.460938 18.804688 22.226562 18.925781 L 19.46875 20.378906 C 19.074219 20.011719 18.769531 19.550781 18.585938 19.035156 L 19.578125 18.511719 C 19.816406 18.386719 19.910156 18.09375 19.785156 17.859375 C 19.660156 17.621094 19.367188 17.527344 19.128906 17.652344 L 18.394531 18.042969 C 18.394531 17.996094 18.386719 17.949219 18.386719 17.902344 C 18.386719 16.035156 19.90625 14.515625 21.773438 14.515625 C 22.535156 14.515625 23.234375 14.769531 23.796875 15.195312 L 21.066406 16.632812 C 20.828125 16.757812 20.738281 17.050781 20.859375 17.285156 C 20.949219 17.453125 21.117188 17.546875 21.289062 17.546875 C 21.367188 17.546875 21.445312 17.527344 21.515625 17.488281 L 24.507812 15.914062 C 24.824219 16.347656 25.039062 16.851562 25.121094 17.402344 L 23.964844 18.011719 C 23.730469 18.136719 23.640625 18.429688 23.765625 18.667969 C 23.851562 18.832031 24.019531 18.925781 24.195312 18.925781 C 24.269531 18.925781 24.347656 18.90625 24.421875 18.867188 L 25.105469 18.507812 C 24.820312 20.085938 23.4375 21.289062 21.773438 21.289062 Z M 26.113281 17.605469 C 26.042969 16.582031 25.621094 15.652344 24.960938 14.945312 C 24.957031 14.941406 24.949219 14.929688 24.941406 14.925781 C 24.144531 14.078125 23.023438 13.546875 21.773438 13.546875 C 19.371094 13.546875 17.417969 15.5 17.417969 17.902344 C 17.417969 19.296875 18.082031 20.539062 19.101562 21.335938 C 19.121094 21.351562 19.140625 21.367188 19.164062 21.382812 C 19.890625 21.929688 20.792969 22.257812 21.773438 22.257812 C 24.175781 22.257812 26.128906 20.304688 26.128906 17.902344 C 26.128906 17.828125 26.121094 17.753906 26.117188 17.679688 C 26.117188 17.652344 26.117188 17.628906 26.113281 17.605469 " fill-opacity="1" fill-rule="nonzero"/></svg>