<svg xmlns="http://www.w3.org/2000/svg" xmlns:xlink="http://www.w3.org/1999/xlink" width="40" zoomAndPan="magnify" viewBox="0 0 30 30.000001" height="40" preserveAspectRatio="xMidYMid meet" version="1.0"><defs><clipPath id="580fa54289"><path d="M 0.484375 3 L 11 3 L 11 24 L 0.484375 24 Z M 0.484375 3 " clip-rule="nonzero"/></clipPath><clipPath id="37246126c0"><path d="M 9 2.175781 L 18 2.175781 L 18 26 L 9 26 Z M 9 2.175781 " clip-rule="nonzero"/></clipPath><clipPath id="f593413ba0"><path d="M 16 2.175781 L 25 2.175781 L 25 26 L 16 26 Z M 16 2.175781 " clip-rule="nonzero"/></clipPath><clipPath id="d1056fe638"><path d="M 24 7 L 29.515625 7 L 29.515625 26.855469 L 24 26.855469 Z M 24 7 " clip-rule="nonzero"/></clipPath></defs><g clip-path="url(#580fa54289)"><path fill="#31ac7d" d="M 10.253906 3.007812 L 9.996094 3.085938 C 9.359375 3.285156 8.742188 3.523438 8.140625 3.796875 L 8.066406 3.828125 L 8.066406 3.90625 C 7.199219 8.0625 6.09375 13.292969 5.0625 17.574219 C 4.960938 16.339844 4.867188 15.132812 4.773438 13.953125 C 5.292969 11.523438 5.894531 8.585938 6.613281 4.980469 L 6.679688 4.625 L 6.367188 4.816406 C 5.890625 5.117188 5.429688 5.445312 4.988281 5.796875 L 4.945312 5.835938 L 4.945312 5.890625 C 4.609375 7.695312 4.304688 9.292969 4.007812 10.746094 C 3.941406 9.550781 3.871094 8.382812 3.804688 7.242188 L 3.785156 6.878906 L 3.535156 7.144531 C 3.140625 7.566406 2.777344 8.011719 2.4375 8.476562 L 2.40625 8.523438 L 2.40625 8.585938 C 2.542969 10.367188 2.679688 12.289062 2.816406 14.34375 C 2.59375 15.332031 2.382812 16.195312 2.191406 16.953125 C 2 14.320312 1.808594 12.089844 1.636719 10.304688 L 1.589844 9.765625 L 1.34375 10.25 C 1.003906 10.90625 0.71875 11.585938 0.484375 12.289062 L 0.484375 12.359375 C 0.699219 13.855469 0.945312 16.410156 1.246094 20.128906 L 1.246094 20.164062 L 1.273438 20.199219 C 1.527344 20.53125 1.796875 20.84375 2.09375 21.140625 L 2.265625 21.3125 L 2.359375 21.078125 C 2.707031 20.097656 3.097656 18.789062 3.539062 17.101562 C 3.691406 18.832031 3.847656 20.65625 4.007812 22.570312 L 4.007812 22.648438 L 4.074219 22.691406 C 4.4375 22.917969 4.828125 23.136719 5.234375 23.339844 L 5.40625 23.425781 L 5.457031 23.242188 C 6.9375 17.886719 8.679688 10.125 10.183594 3.269531 Z M 5.207031 22.980469 C 4.894531 22.820312 4.582031 22.648438 4.308594 22.472656 C 4.121094 20.253906 3.9375 18.15625 3.761719 16.171875 L 3.449219 16.148438 C 2.949219 18.121094 2.511719 19.628906 2.136719 20.746094 C 1.925781 20.523438 1.730469 20.292969 1.550781 20.0625 C 1.257812 16.375 1.011719 13.851562 0.796875 12.34375 C 0.964844 11.847656 1.15625 11.359375 1.371094 10.882812 C 1.554688 12.789062 1.734375 15.140625 1.957031 17.882812 L 2.269531 17.914062 C 2.535156 16.949219 2.824219 15.796875 3.144531 14.382812 L 3.144531 14.335938 C 3.007812 12.292969 2.871094 10.386719 2.738281 8.613281 C 2.988281 8.273438 3.246094 7.960938 3.523438 7.648438 C 3.605469 9.0625 3.691406 10.515625 3.773438 12.011719 L 4.085938 12.03125 C 4.4375 10.285156 4.8125 8.320312 5.242188 6.023438 C 5.554688 5.769531 5.894531 5.523438 6.238281 5.296875 C 5.550781 8.738281 4.96875 11.570312 4.449219 13.925781 L 4.449219 13.972656 C 4.574219 15.464844 4.695312 17.007812 4.816406 18.59375 L 5.128906 18.621094 C 6.222656 14.179688 7.421875 8.523438 8.351562 4.0625 C 8.839844 3.847656 9.335938 3.652344 9.84375 3.484375 C 8.347656 10.171875 6.65625 17.703125 5.207031 22.980469 Z M 5.207031 22.980469 " fill-opacity="1" fill-rule="nonzero"/></g><g clip-path="url(#37246126c0)"><path fill="#31ac7d" d="M 15.519531 15.847656 L 15.664062 15.847656 L 15.976562 11.507812 L 15.8125 11.507812 C 14.652344 11.492188 13.484375 11.507812 12.339844 11.570312 L 12.683594 7.074219 C 14.046875 6.941406 15.410156 6.925781 16.777344 7.023438 L 16.933594 7.023438 L 17.285156 2.480469 L 17.136719 2.460938 C 15.09375 2.207031 13.074219 2.316406 11.070312 2.789062 L 10.960938 2.816406 L 10.960938 2.929688 C 10.292969 11.445312 9.753906 18.339844 9.242188 24.628906 L 9.242188 24.765625 L 9.375 24.796875 C 11.230469 25.214844 13.105469 25.425781 15.007812 25.421875 L 15.597656 25.421875 L 15.972656 20.789062 L 15.8125 20.789062 C 14.410156 20.8125 12.996094 20.789062 11.636719 20.683594 L 12.007812 15.863281 C 13.15625 15.847656 14.339844 15.84375 15.519531 15.847656 Z M 11.707031 15.53125 L 11.289062 20.964844 L 11.445312 20.964844 C 12.816406 21.0625 14.222656 21.101562 15.636719 21.085938 L 15.320312 25.09375 C 13.386719 25.121094 11.46875 24.925781 9.578125 24.507812 C 10.078125 18.28125 10.613281 11.457031 11.261719 3.054688 C 13.140625 2.625 15.039062 2.519531 16.957031 2.742188 L 16.644531 6.710938 C 15.265625 6.617188 13.890625 6.640625 12.515625 6.78125 L 12.382812 6.796875 L 12.007812 11.902344 L 12.183594 11.902344 C 13.328125 11.835938 14.488281 11.808594 15.652344 11.824219 L 15.371094 15.53125 C 14.191406 15.53125 13.011719 15.53125 11.851562 15.53125 Z M 11.707031 15.53125 " fill-opacity="1" fill-rule="nonzero"/></g><path fill="#31ac7d" d="M 21.792969 12.449219 C 21.824219 12.453125 21.855469 12.453125 21.890625 12.449219 C 22.128906 12.433594 22.316406 12.332031 22.457031 12.136719 C 22.664062 11.867188 22.804688 11.566406 22.878906 11.234375 C 22.992188 10.761719 23.046875 10.285156 23.035156 9.796875 C 23.046875 9.328125 22.984375 8.871094 22.84375 8.425781 C 22.699219 8.019531 22.53125 7.800781 22.28125 7.707031 C 21.597656 7.476562 20.898438 7.289062 20.191406 7.136719 L 20.015625 7.09375 L 20.015625 7.277344 C 19.890625 8.847656 19.769531 10.433594 19.644531 12.03125 L 19.644531 12.183594 L 19.792969 12.199219 C 20.464844 12.265625 21.132812 12.34375 21.792969 12.449219 Z M 20.304688 7.484375 C 20.9375 7.632812 21.5625 7.8125 22.179688 8.023438 C 22.3125 8.070312 22.441406 8.253906 22.546875 8.550781 C 22.675781 8.964844 22.734375 9.386719 22.722656 9.820312 C 22.730469 10.277344 22.683594 10.730469 22.578125 11.175781 C 22.515625 11.460938 22.394531 11.71875 22.21875 11.953125 C 22.128906 12.089844 22 12.152344 21.835938 12.136719 C 21.230469 12.046875 20.585938 11.96875 19.957031 11.902344 C 20.074219 10.417969 20.1875 8.945312 20.304688 7.484375 Z M 20.304688 7.484375 " fill-opacity="1" fill-rule="nonzero"/><g clip-path="url(#f593413ba0)"><path fill="#31ac7d" d="M 16.84375 25.355469 L 17.023438 25.355469 C 18.414062 25.25 19.78125 25.023438 21.132812 24.675781 C 21.789062 24.460938 22.3125 24.0625 22.695312 23.484375 C 23.207031 22.761719 23.574219 21.976562 23.804688 21.121094 C 24.097656 20.046875 24.234375 18.957031 24.214844 17.84375 C 24.238281 17.027344 24.148438 16.222656 23.949219 15.433594 C 23.820312 14.910156 23.585938 14.441406 23.246094 14.023438 C 23.730469 13.457031 24.0625 12.8125 24.238281 12.089844 C 24.5 11.167969 24.625 10.230469 24.621094 9.273438 C 24.621094 8.625 24.570312 7.976562 24.46875 7.335938 C 24.378906 6.746094 24.226562 6.171875 24.015625 5.613281 C 23.875 5.148438 23.609375 4.777344 23.214844 4.496094 C 21.832031 3.691406 20.363281 3.113281 18.800781 2.757812 L 18.628906 2.71875 L 18.628906 2.898438 C 18.003906 10.65625 17.378906 18.511719 16.855469 25.167969 Z M 18.90625 3.105469 C 20.371094 3.457031 21.757812 4.011719 23.058594 4.769531 C 23.386719 5.015625 23.609375 5.335938 23.726562 5.726562 C 23.929688 6.265625 24.074219 6.820312 24.160156 7.390625 C 24.253906 8.011719 24.300781 8.636719 24.300781 9.265625 C 24.3125 10.195312 24.195312 11.109375 23.949219 12.003906 C 23.769531 12.730469 23.425781 13.363281 22.910156 13.90625 L 22.792969 14.019531 L 22.910156 14.132812 C 23.273438 14.53125 23.515625 14.996094 23.632812 15.519531 C 23.832031 16.28125 23.921875 17.058594 23.90625 17.84375 C 23.925781 18.925781 23.792969 19.988281 23.507812 21.03125 C 23.296875 21.847656 22.945312 22.601562 22.457031 23.292969 C 22.113281 23.8125 21.640625 24.171875 21.046875 24.371094 C 19.777344 24.691406 18.488281 24.90625 17.183594 25.011719 C 17.691406 18.445312 18.296875 10.730469 18.90625 3.105469 Z M 18.90625 3.105469 " fill-opacity="1" fill-rule="nonzero"/></g><path fill="#31ac7d" d="M 21.402344 20.828125 C 21.703125 20.753906 21.925781 20.582031 22.070312 20.308594 C 22.277344 19.960938 22.421875 19.589844 22.507812 19.195312 C 22.628906 18.710938 22.691406 18.222656 22.695312 17.722656 C 22.703125 17.242188 22.640625 16.773438 22.507812 16.3125 C 22.367188 15.847656 22.148438 15.609375 21.859375 15.601562 C 21.105469 15.585938 20.320312 15.570312 19.519531 15.5625 L 19.375 15.5625 L 18.941406 21.101562 L 19.125 21.101562 C 19.910156 21.03125 20.691406 20.945312 21.414062 20.839844 Z M 19.269531 20.761719 L 19.648438 15.878906 C 20.398438 15.878906 21.128906 15.898438 21.839844 15.914062 C 22.015625 15.914062 22.128906 16.183594 22.199219 16.402344 C 22.324219 16.832031 22.386719 17.273438 22.382812 17.722656 C 22.386719 18.195312 22.335938 18.660156 22.226562 19.121094 C 22.148438 19.480469 22.019531 19.820312 21.832031 20.136719 C 21.734375 20.335938 21.582031 20.460938 21.371094 20.515625 C 20.683594 20.613281 19.984375 20.695312 19.269531 20.761719 Z M 19.269531 20.761719 " fill-opacity="1" fill-rule="nonzero"/><g clip-path="url(#d1056fe638)"><path fill="#31ac7d" d="M 29.015625 15.503906 C 29.183594 15.261719 29.308594 15 29.390625 14.71875 C 29.480469 14.414062 29.523438 14.101562 29.515625 13.78125 C 29.496094 13.082031 29.398438 12.394531 29.226562 11.714844 C 29.019531 10.753906 28.691406 9.835938 28.242188 8.960938 C 28.023438 8.523438 27.726562 8.148438 27.347656 7.835938 C 27.207031 7.710938 27.039062 7.632812 26.851562 7.605469 C 26.664062 7.582031 26.484375 7.609375 26.3125 7.691406 C 25.933594 7.914062 25.671875 8.234375 25.527344 8.648438 L 25.507812 8.695312 L 25.507812 8.742188 C 25.742188 9.820312 25.972656 10.84375 26.195312 11.804688 L 26.324219 12.34375 L 26.503906 11.832031 C 26.742188 11.164062 26.964844 10.9375 27.109375 10.863281 C 27.179688 10.828125 27.359375 10.738281 27.65625 11.070312 C 27.855469 11.316406 27.996094 11.589844 28.082031 11.890625 C 28.183594 12.226562 28.230469 12.570312 28.230469 12.921875 C 28.238281 13.253906 28.195312 13.585938 28.101562 13.90625 C 28.046875 14.128906 27.929688 14.316406 27.75 14.464844 C 27.585938 14.59375 27.40625 14.625 27.207031 14.5625 L 26.925781 14.492188 L 26.761719 14.441406 L 26.761719 14.621094 C 26.691406 15.449219 26.621094 16.300781 26.542969 17.179688 L 26.542969 17.371094 L 27 17.316406 C 27.296875 17.257812 27.519531 17.363281 27.667969 17.628906 C 27.851562 18 27.925781 18.390625 27.894531 18.800781 C 27.898438 19.289062 27.855469 19.769531 27.765625 20.246094 C 27.679688 20.6875 27.546875 21.113281 27.367188 21.519531 C 27.207031 21.890625 26.976562 22.210938 26.675781 22.476562 C 26.285156 22.808594 26.125 22.652344 26.050781 22.597656 C 25.777344 22.289062 25.597656 21.929688 25.511719 21.527344 L 25.386719 21.007812 L 25.222656 21.519531 C 24.882812 22.554688 24.519531 23.707031 24.117188 25.007812 L 24.117188 25.09375 C 24.355469 26.03125 24.699219 26.59375 25.136719 26.777344 C 25.234375 26.820312 25.339844 26.84375 25.449219 26.84375 C 25.820312 26.84375 26.222656 26.585938 26.644531 26.074219 C 27.289062 25.230469 27.777344 24.300781 28.105469 23.292969 C 28.445312 22.34375 28.714844 21.378906 28.914062 20.390625 C 29.074219 19.628906 29.160156 18.855469 29.164062 18.074219 C 29.175781 17.613281 29.113281 17.164062 28.988281 16.722656 C 28.914062 16.4375 28.785156 16.1875 28.589844 15.96875 C 28.757812 15.839844 28.902344 15.683594 29.015625 15.503906 Z M 28.253906 15.78125 L 27.957031 15.898438 L 28.230469 16.0625 C 28.476562 16.25 28.628906 16.496094 28.691406 16.800781 C 28.808594 17.21875 28.863281 17.648438 28.851562 18.085938 C 28.847656 18.847656 28.765625 19.601562 28.605469 20.347656 C 28.410156 21.316406 28.144531 22.269531 27.8125 23.199219 C 27.492188 24.171875 27.019531 25.066406 26.398438 25.878906 C 26.085938 26.246094 25.644531 26.65625 25.253906 26.503906 C 24.9375 26.367188 24.625 25.878906 24.429688 25.074219 C 24.765625 23.976562 25.078125 22.996094 25.367188 22.097656 C 25.457031 22.371094 25.601562 22.617188 25.800781 22.828125 C 25.960938 22.980469 26.304688 23.167969 26.832031 22.726562 C 27.167969 22.425781 27.425781 22.070312 27.605469 21.660156 C 27.796875 21.222656 27.933594 20.769531 28.015625 20.296875 C 28.109375 19.800781 28.15625 19.296875 28.152344 18.792969 C 28.183594 18.324219 28.09375 17.878906 27.878906 17.457031 C 27.78125 17.289062 27.640625 17.160156 27.464844 17.078125 C 27.285156 16.996094 27.101562 16.972656 26.90625 17.007812 L 26.832031 17.007812 C 26.894531 16.257812 26.957031 15.53125 27.015625 14.816406 L 27.117188 14.839844 C 27.410156 14.929688 27.683594 14.882812 27.925781 14.695312 C 28.15625 14.503906 28.3125 14.265625 28.390625 13.976562 C 28.492188 13.625 28.539062 13.265625 28.53125 12.898438 C 28.535156 12.515625 28.476562 12.144531 28.363281 11.777344 C 28.269531 11.429688 28.105469 11.117188 27.875 10.839844 C 27.5 10.414062 27.167969 10.453125 26.957031 10.5625 C 26.691406 10.726562 26.503906 10.953125 26.386719 11.242188 C 26.214844 10.464844 26.027344 9.613281 25.824219 8.730469 C 25.945312 8.410156 26.15625 8.160156 26.449219 7.980469 C 26.714844 7.863281 26.953125 7.898438 27.164062 8.097656 C 27.503906 8.378906 27.773438 8.71875 27.96875 9.117188 C 28.402344 9.964844 28.722656 10.859375 28.921875 11.792969 C 29.089844 12.445312 29.183594 13.105469 29.203125 13.78125 C 29.210938 14.070312 29.171875 14.351562 29.089844 14.628906 C 29.015625 14.878906 28.902344 15.113281 28.757812 15.328125 C 28.636719 15.53125 28.46875 15.683594 28.253906 15.78125 Z M 28.253906 15.78125 " fill-opacity="1" fill-rule="nonzero"/></g></svg>