<svg width="55" height="55" viewBox="0 0 55 55" fill="none" xmlns="http://www.w3.org/2000/svg">
<g clip-path="url(#clip0_383_256)">
<path d="M0 0H55V55H0V0Z" fill="url(#paint0_radial_383_256)"/>
<path d="M3.81348 27.5C3.81348 40.584 14.416 51.1865 27.5 51.1865C40.584 51.1865 51.1865 40.584 51.1865 27.5C51.1865 14.416 40.584 3.81348 27.5 3.81348C14.416 3.81348 3.81348 14.416 3.81348 27.5ZM6.23047 27.4731C6.24658 15.7266 15.7803 6.21436 27.5269 6.23047C39.2734 6.24658 48.7856 15.7803 48.7695 27.5269C48.7534 39.2734 39.2358 48.7695 27.5 48.7695C15.7642 48.7695 6.2251 39.2305 6.23047 27.4785V27.4731Z" fill="#FF7618"/>
<path d="M42.2705 27.5C42.2697 26.5285 41.9958 25.5767 41.4801 24.7534C40.9644 23.93 40.2277 23.2681 39.354 22.8433C39.7754 21.8366 39.8879 20.7273 39.677 19.6565C39.4661 18.5858 38.9414 17.602 38.1697 16.8303C37.398 16.0586 36.4142 15.5339 35.3435 15.323C34.2727 15.1121 33.1634 15.2246 32.1567 15.646C31.7321 14.7723 31.0702 14.0357 30.2467 13.5204C29.4232 13.0051 28.4714 12.7318 27.5 12.7318C26.5286 12.7318 25.5768 13.0051 24.7533 13.5204C23.9298 14.0357 23.2679 14.7723 22.8433 15.646C21.8366 15.2246 20.7273 15.1121 19.6565 15.323C18.5858 15.5339 17.602 16.0586 16.8303 16.8303C16.0586 17.602 15.5339 18.5858 15.323 19.6565C15.1121 20.7273 15.2246 21.8366 15.646 22.8433C14.7723 23.2679 14.0357 23.9298 13.5204 24.7533C13.0051 25.5768 12.7318 26.5286 12.7318 27.5C12.7318 28.4714 13.0051 29.4232 13.5204 30.2467C14.0357 31.0702 14.7723 31.7321 15.646 32.1567C15.2246 33.1634 15.1121 34.2727 15.323 35.3435C15.5339 36.4142 16.0586 37.398 16.8303 38.1697C17.602 38.9414 18.5858 39.4661 19.6565 39.677C20.7273 39.8879 21.8366 39.7754 22.8433 39.354C23.2679 40.2277 23.9298 40.9643 24.7533 41.4796C25.5768 41.9949 26.5286 42.2682 27.5 42.2682C28.4714 42.2682 29.4232 41.9949 30.2467 41.4796C31.0702 40.9643 31.7321 40.2277 32.1567 39.354C33.1634 39.7754 34.2727 39.8879 35.3435 39.677C36.4142 39.4661 37.398 38.9414 38.1697 38.1697C38.9414 37.398 39.4661 36.4142 39.677 35.3435C39.8879 34.2727 39.7754 33.1634 39.354 32.1567C40.2277 31.7319 40.9644 31.07 41.4801 30.2466C41.9958 29.4233 42.2697 28.4715 42.2705 27.5ZM37.1841 17.8159C37.7716 18.407 38.1658 19.1625 38.3145 19.9826C38.4632 20.8026 38.3593 21.6485 38.0166 22.4082C37.7118 22.3523 37.4027 22.3235 37.0928 22.3223C35.9223 22.3208 34.8001 21.8552 33.9724 21.0276C33.1448 20.1999 32.6792 19.0777 32.6777 17.9072C32.6765 17.5973 32.6477 17.2882 32.5918 16.9834C33.3515 16.6407 34.1974 16.5368 35.0174 16.6855C35.8375 16.8342 36.593 17.2284 37.1841 17.8159ZM31.8882 37.6084C31.7119 37.4789 31.545 37.3371 31.3887 37.1841C30.3573 36.1529 28.9585 35.5736 27.5 35.5736C26.0415 35.5736 24.6427 36.1529 23.6113 37.1841C23.455 37.3371 23.2881 37.4789 23.1118 37.6084C23.0901 37.4374 23.0793 37.2652 23.0796 37.0928C23.0782 35.7214 22.5328 34.4066 21.5631 33.4369C20.5934 32.4672 19.2786 31.9218 17.9072 31.9204C17.7348 31.9207 17.5626 31.9099 17.3916 31.8882C17.5211 31.7119 17.6629 31.545 17.8159 31.3887C18.8471 30.3573 19.4264 28.9585 19.4264 27.5C19.4264 26.0415 18.8471 24.6427 17.8159 23.6113C17.6629 23.455 17.5211 23.2881 17.3916 23.1118C17.5626 23.0901 17.7348 23.0793 17.9072 23.0796C19.2786 23.0782 20.5934 22.5328 21.5631 21.5631C22.5328 20.5934 23.0782 19.2786 23.0796 17.9072C23.0793 17.7348 23.0901 17.5626 23.1118 17.3916C23.2881 17.5211 23.455 17.6629 23.6113 17.8159C24.6427 18.8471 26.0415 19.4264 27.5 19.4264C28.9585 19.4264 30.3573 18.8471 31.3887 17.8159C31.545 17.6629 31.7119 17.5211 31.8882 17.3916C31.9099 17.5626 31.9207 17.7348 31.9204 17.9072C31.9218 19.2786 32.4672 20.5934 33.4369 21.5631C34.4066 22.5328 35.7214 23.0782 37.0928 23.0796C37.2652 23.0793 37.4374 23.0901 37.6084 23.1118C37.4789 23.2881 37.3371 23.455 37.1841 23.6113C36.1529 24.6427 35.5736 26.0415 35.5736 27.5C35.5736 28.9585 36.1529 30.3573 37.1841 31.3887C37.3371 31.545 37.4789 31.7119 37.6084 31.8882C37.4374 31.9099 37.2652 31.9207 37.0928 31.9204C35.7214 31.9218 34.4066 32.4672 33.4369 33.4369C32.4672 34.4066 31.9218 35.7214 31.9204 37.0928C31.9207 37.2652 31.9099 37.4374 31.8882 37.6084ZM27.5 13.4868C28.3311 13.4869 29.1453 13.7212 29.8493 14.163C30.5533 14.6048 31.1185 15.236 31.48 15.9844C31.0849 16.2196 30.7204 16.5028 30.395 16.8276C29.6267 17.5945 28.5855 18.0252 27.5 18.0252C26.4145 18.0252 25.3733 17.5945 24.605 16.8276C24.2796 16.5028 23.9151 16.2196 23.52 15.9844C23.8815 15.236 24.4467 14.6048 25.1507 14.163C25.8547 13.7212 26.6689 13.4869 27.5 13.4868ZM17.8159 17.8159C18.407 17.2284 19.1625 16.8342 19.9826 16.6855C20.8026 16.5368 21.6485 16.6407 22.4082 16.9834C22.3523 17.2882 22.3235 17.5973 22.3223 17.9072C22.3208 19.0777 21.8552 20.1999 21.0276 21.0276C20.1999 21.8552 19.0777 22.3208 17.9072 22.3223C17.5973 22.3235 17.2882 22.3523 16.9834 22.4082C16.6407 21.6485 16.5368 20.8026 16.6855 19.9826C16.8342 19.1625 17.2284 18.407 17.8159 17.8159ZM13.4868 27.5C13.4869 26.6689 13.7212 25.8547 14.163 25.1507C14.6048 24.4467 15.236 23.8815 15.9844 23.52C16.2196 23.9151 16.5028 24.2796 16.8276 24.605C17.5945 25.3733 18.0252 26.4145 18.0252 27.5C18.0252 28.5855 17.5945 29.6267 16.8276 30.395C16.5028 30.7204 16.2196 31.0849 15.9844 31.48C15.236 31.1185 14.6048 30.5533 14.163 29.8493C13.7212 29.1453 13.4869 28.3311 13.4868 27.5ZM17.8159 37.1841C17.2284 36.593 16.8342 35.8375 16.6855 35.0174C16.5368 34.1974 16.6407 33.3515 16.9834 32.5918C17.2882 32.6477 17.5973 32.6765 17.9072 32.6777C19.0777 32.6792 20.1999 33.1448 21.0276 33.9724C21.8552 34.8001 22.3208 35.9223 22.3223 37.0928C22.3235 37.4027 22.3523 37.7118 22.4082 38.0166C21.6485 38.3593 20.8026 38.4632 19.9826 38.3145C19.1625 38.1658 18.407 37.7716 17.8159 37.1841ZM27.5 41.5132C26.6689 41.5131 25.8547 41.2788 25.1507 40.837C24.4467 40.3952 23.8815 39.764 23.52 39.0156C23.9151 38.7804 24.2796 38.4972 24.605 38.1724C25.3733 37.4055 26.4145 36.9748 27.5 36.9748C28.5855 36.9748 29.6267 37.4055 30.395 38.1724C30.7204 38.4972 31.0849 38.7804 31.48 39.0156C31.1185 39.764 30.5533 40.3952 29.8493 40.837C29.1453 41.2788 28.3311 41.5131 27.5 41.5132ZM37.1841 37.1841C36.593 37.7716 35.8375 38.1658 35.0174 38.3145C34.1974 38.4632 33.3515 38.3593 32.5918 38.0166C32.6477 37.7118 32.6765 37.4027 32.6777 37.0928C32.6792 35.9223 33.1448 34.8001 33.9724 33.9724C34.8001 33.1448 35.9223 32.6792 37.0928 32.6777C37.4027 32.6765 37.7118 32.6477 38.0166 32.5918C38.3593 33.3515 38.4632 34.1974 38.3145 35.0174C38.1658 35.8375 37.7716 36.593 37.1841 37.1841ZM39.0156 31.48C38.7804 31.0849 38.4972 30.7204 38.1724 30.395C37.4055 29.6267 36.9748 28.5855 36.9748 27.5C36.9748 26.4145 37.4055 25.3733 38.1724 24.605C38.4972 24.2796 38.7804 23.9151 39.0156 23.52C39.7639 23.8816 40.395 24.4468 40.8366 25.1508C41.2783 25.8548 41.5126 26.669 41.5126 27.5C41.5126 28.331 41.2783 29.1452 40.8366 29.8492C40.395 30.5532 39.7639 31.1184 39.0156 31.48Z" fill="#FFE0CB"/>
</g>
<defs>
<radialGradient id="paint0_radial_383_256" cx="0" cy="0" r="1" gradientUnits="userSpaceOnUse" gradientTransform="translate(18.9062 18.9062) scale(27.5)">
<stop stop-color="#3A2A1D"/>
<stop offset="1" stop-color="#241405"/>
</radialGradient>
<clipPath id="clip0_383_256">
<rect width="55" height="55" fill="white"/>
</clipPath>
</defs>
</svg>
