<svg width="55" height="55" viewBox="0 0 55 55" fill="none" xmlns="http://www.w3.org/2000/svg">
<g clip-path="url(#clip0_383_197)">
<path d="M45.2606 55H9.7394C4.3538 55 0 50.5346 0 45.0109V9.98913C0 4.46544 4.3538 0 9.7394 0H45.2606C50.6462 0 55 4.46544 55 9.98913V45.0109C55 50.5346 50.6462 55 45.2606 55Z" fill="#FF26BE"/>
<path d="M44.3894 52.6488H10.6106C6.02799 52.6488 2.29239 48.8174 2.29239 44.1173V10.8827C2.29239 6.18256 6.02799 2.35118 10.6106 2.35118H44.3674C48.9742 2.35118 52.6856 6.18256 52.6856 10.8827V44.0948C52.7076 48.8174 48.972 52.6488 44.3894 52.6488Z" fill="#2E001F"/>
<path d="M21.747 25.7366L28.1644 38.3815C28.2788 38.5688 28.2106 38.7584 28.0258 38.7584H24.0372C23.7842 38.7584 23.6698 38.6884 23.5554 38.4537C22.088 35.3512 20.5986 32.2486 19.063 28.9114H19.0168C17.6418 32.0613 16.1282 35.376 14.663 38.4786C14.5486 38.6659 14.4342 38.7381 14.2494 38.7381H10.472C10.2432 38.7381 10.219 38.5508 10.3356 38.4086L16.6144 26.1383L10.5424 13.728C10.4038 13.5407 10.5424 13.3986 10.6788 13.3986H14.6212C14.85 13.3986 14.9424 13.446 15.0326 13.6581C16.4758 16.7606 17.9432 19.958 19.3182 23.0831H19.3644C20.6932 19.9805 22.1606 16.7606 23.5818 13.6806C23.6962 13.4933 23.7644 13.376 23.9954 13.376H27.6848C27.8674 13.376 27.9378 13.5182 27.8234 13.7054L21.747 25.7366ZM29.2886 29.568C29.2886 24.0917 32.8416 19.8135 38.478 19.8135C38.9598 19.8135 39.2106 19.8135 39.6704 19.8609V13.6332C39.6704 13.4911 39.7848 13.3986 39.8992 13.3986H43.5204C43.703 13.3986 43.7492 13.4685 43.7492 13.5859V35.1639C43.7492 35.798 43.7492 36.5967 43.8636 37.4677C43.8636 37.6099 43.8174 37.655 43.681 37.7272C41.756 38.6681 39.7386 39.0901 37.8136 39.0901C32.8394 39.1104 29.2864 35.9627 29.2886 29.568ZM39.6682 23.5524C39.347 23.4103 38.8894 23.3178 38.3394 23.3178C35.4508 23.3178 33.4356 25.5967 33.4356 29.383C33.4356 33.7085 35.4992 35.4482 38.0886 35.4482C38.6386 35.4482 39.2348 35.3783 39.6704 35.1887V23.5524H39.6682Z" fill="#FFD9F2"/>
</g>
<defs>
<clipPath id="clip0_383_197">
<rect width="55" height="55" fill="white"/>
</clipPath>
</defs>
</svg>
