<svg id="Group_103433" data-name="Group 103433" xmlns="http://www.w3.org/2000/svg" width="40.433" height="40.433" viewBox="0 0 40.433 40.433">
  <path id="Path_71931" data-name="Path 71931" d="M41.179,20.518A20.217,20.217,0,1,1,20.963.3,20.216,20.216,0,0,1,41.179,20.518" transform="translate(-0.746 -0.302)" fill="#1a1918"/>
  <path id="Path_71932" data-name="Path 71932" d="M76.757,55.217l5.232,12.912-7.9-6.225ZM86.051,71.1,78,51.737a1.3,1.3,0,0,0-1.247-.854,1.342,1.342,0,0,0-1.281.854L66.644,72.98h3.021l3.5-8.758L83.6,72.651a1.7,1.7,0,0,0,1.116.493A1.443,1.443,0,0,0,86.189,71.7a1.912,1.912,0,0,0-.138-.6Z" transform="translate(-56.2 -42.867)" fill="#fff"/>
</svg>
