<svg width="55" height="55" viewBox="0 0 55 55" fill="none" xmlns="http://www.w3.org/2000/svg">
<g clip-path="url(#clip0_382_117)">
<path d="M0.0628229 25.6518C5.3942 37.8979 18.9211 39.9525 35.0652 29.571C42.5111 36.463 44.3672 44.6328 38.1535 52.8584C33.9726 54.6116 29.4232 55.3045 24.9099 54.8755C20.3967 54.4464 16.0594 52.9088 12.2837 50.3993C8.50796 47.8897 5.41091 44.486 3.26789 40.4909C1.12487 36.4957 0.00230051 32.0329 0 27.4993C0 26.8782 0.0228447 26.2629 0.0628229 25.6518ZM25.212 20.3361C27.6192 10.3044 34.3413 4.55041 44.9084 6.21379C48.4724 9.12878 51.2476 12.8919 52.9795 17.1581C54.7114 21.4242 55.3446 26.0569 54.821 30.6314C54.2973 35.2058 52.6337 39.5756 49.9825 43.34C47.3313 47.1045 43.7775 50.1431 39.6469 52.1773C47.9082 40.4066 41.1576 27.9848 25.212 20.3347V20.3361ZM27.4993 3.54049e-05C33.168 -0.00907968 38.6998 1.74204 43.3307 5.01159C28.3017 3.26397 21.1999 15.7914 22.1993 33.0906C12.4346 36.0889 4.47899 33.8787 0.275564 23.6271C1.20888 17.0714 4.47611 11.0724 9.47718 6.73201C14.4783 2.39164 20.8774 0.00131046 27.4993 3.54049e-05Z" fill="#662D91"/>
</g>
<defs>
<clipPath id="clip0_382_117">
<rect width="55" height="55" fill="white"/>
</clipPath>
</defs>
</svg>
