<svg height="100" viewBox="0 0 100 100" width="100" xmlns="http://www.w3.org/2000/svg"><path d="m70.39 35.54 9.22-11.73 4.33 11.73-8.88 1.13z" fill="#19486f"/><path d="m55.13 67.31 24.48 4.9 3.89-16.34-3.89-16.35-24.48 2.28z" fill="#205b99"/><path d="m50 55.81v18.72l29.61-19.29-22.44-1.03z" fill="#99bce3"/><path d="m55.69 50h8.66l11.56-11.2-11.56-15.91-8.66 2.51z" fill="#205b99"/><path d="m70.39 35.54 9.22-1.26v-10.47l-9.22 2.16z" fill="#205b99"/><path d="m83.94 54.78-33.94 3.42v32.8l33.94-16.97z" fill="#5294cf"/><path d="m50 91 10.14-14.62v-40.73l-10.14-2.05-10.58 26.84z" fill="#5294cf"/><path d="m79.61 66.47 4.33 7.56v-33.6l-4.33-.91z" fill="#5294cf"/><path d="m83.94 25.97-4.33-2.16v10.47l4.33 1.26z" fill="#5294cf"/><path d="m77.11 28.02-12.76-5.13v27.11h12.76z" fill="#5294cf"/><path d="m29.61 35.54-9.22-11.73-4.33 11.73 8.88 1.13z" fill="#19486f"/><path d="m44.88 67.31-24.49 4.9v-32.69l24.49 2.28z" fill="#5294cf"/><path d="m50 55.81v20.81l-29.61-21.38 22.44-1.03z" fill="#99bce3"/><path d="m44.31 50h-8.66l-10.65-12.77 10.65-14.34 8.66 2.51z" fill="#5294cf"/><path d="m29.61 35.54-9.22-1.26v-10.47l9.22 2.16z" fill="#5294cf"/><g fill="#205b99"><path d="m16.06 54.78 33.94 3.42v32.8l-33.94-16.97z"/><path d="m50 91-10.14-13.57v-41.78l10.14-2.05z"/><path d="m20.39 73.25-4.33.78v-33.6l4.33-.91z"/><path d="m16.06 25.97 4.33-2.16v10.47l-4.33 1.26z"/><path d="m22.89 28.02 12.76-5.13v27.11h-12.76z"/></g><path d="m60.14 28.48-10.14 2.39-10.14-2.39 10.14-19.48z" fill="#19486f"/><path d="m50 9 10.14 5.13v14.35l-10.14-3.08z" fill="#5294cf"/><path d="m50 9-10.14 5.13v14.35l10.14-3.08z" fill="#205b99"/></svg>