<svg width="55" height="55" viewBox="0 0 55 55" fill="none" xmlns="http://www.w3.org/2000/svg">
<g clip-path="url(#clip0_398_363)">
<path d="M16.9238 23.6205C16.9238 24.2789 16.9944 24.8127 17.1178 25.2043C17.2589 25.5957 17.4353 26.0229 17.6823 26.4855C17.7705 26.6278 17.8057 26.7702 17.8057 26.8948C17.8057 27.0727 17.6999 27.2507 17.4706 27.4286L16.3594 28.176C16.2006 28.2828 16.0419 28.3362 15.9008 28.3362C15.7243 28.3362 15.5479 28.2472 15.3716 28.0871C15.1247 27.8202 14.913 27.5355 14.7366 27.2507C14.5602 26.9481 14.3839 26.6101 14.1898 26.2008C12.814 27.8379 11.0853 28.6565 9.00394 28.6565C7.52226 28.6565 6.34046 28.2295 5.47614 27.3753C4.61184 26.5211 4.17087 25.3822 4.17087 23.9585C4.17087 22.4459 4.70004 21.218 5.77601 20.2927C6.85199 19.3673 8.28074 18.9046 10.0976 18.9046C10.6973 18.9046 11.3146 18.958 11.9672 19.047C12.6199 19.136 13.2902 19.2783 13.9958 19.4385V18.1394C13.9958 16.787 13.7135 15.8438 13.1667 15.2922C12.6023 14.7405 11.6498 14.4736 10.2916 14.4736C9.67421 14.4736 9.03922 14.5447 8.38657 14.7049C7.73393 14.8651 7.09893 15.0608 6.48156 15.31C6.19934 15.4345 5.98767 15.5057 5.8642 15.5413C5.74073 15.5769 5.65253 15.5947 5.58198 15.5947C5.33504 15.5947 5.21157 15.4167 5.21157 15.043V14.171C5.21157 13.8863 5.24684 13.6728 5.33504 13.5482C5.42323 13.4236 5.58198 13.2991 5.82893 13.1745C6.44629 12.8542 7.18713 12.5872 8.05143 12.3737C8.91574 12.1424 9.83297 12.0356 10.8031 12.0356C12.9021 12.0356 14.4367 12.5161 15.4245 13.477C16.3947 14.438 16.8885 15.8972 16.8885 17.8547V23.6205H16.9238ZM9.76241 26.3253C10.3445 26.3253 10.9442 26.2185 11.5792 26.005C12.2142 25.7915 12.7787 25.3999 13.255 24.8661C13.5371 24.528 13.7488 24.1543 13.8546 23.7272C13.9605 23.3001 14.031 22.784 14.031 22.179V21.4316C13.5195 21.307 12.9727 21.2002 12.4082 21.1291C11.8438 21.0579 11.297 21.0223 10.7502 21.0223C9.56838 21.0223 8.70408 21.2536 8.12199 21.7341C7.5399 22.2146 7.25768 22.8908 7.25768 23.7806C7.25768 24.617 7.46935 25.2398 7.91033 25.6669C8.33365 26.1118 8.95101 26.3253 9.76241 26.3253ZM23.9265 28.2472C23.609 28.2472 23.3973 28.1939 23.2562 28.0693C23.1151 27.9625 22.9916 27.7134 22.8858 27.3753L18.7406 13.6194C18.6348 13.2635 18.5819 13.0321 18.5819 12.9076C18.5819 12.6228 18.723 12.4627 19.0052 12.4627H20.7338C21.069 12.4627 21.2983 12.5161 21.4217 12.6406C21.5629 12.7474 21.6687 12.9965 21.7745 13.3347L24.7379 25.1152L27.4895 13.3347C27.5778 12.9787 27.6836 12.7474 27.8247 12.6406C27.9658 12.5339 28.2127 12.4627 28.5303 12.4627H29.9413C30.2765 12.4627 30.5058 12.5161 30.6469 12.6406C30.7881 12.7474 30.9115 12.9965 30.9821 13.3347L33.769 25.2576L36.8206 13.3347C36.9264 12.9787 37.0499 12.7474 37.1733 12.6406C37.3144 12.5339 37.5438 12.4627 37.8612 12.4627H39.5017C39.7839 12.4627 39.9426 12.605 39.9426 12.9076C39.9426 12.9965 39.925 13.0855 39.9073 13.1923C39.8897 13.2991 39.8545 13.4414 39.7839 13.6372L35.533 27.393C35.4271 27.749 35.3036 27.9804 35.1625 28.0871C35.0214 28.1939 34.792 28.2651 34.4922 28.2651H32.9753C32.6401 28.2651 32.4108 28.2116 32.2697 28.0871C32.1286 27.9625 32.0051 27.7312 31.9346 27.3753L29.2005 15.8972L26.4841 27.3574C26.3959 27.7134 26.2901 27.9447 26.149 28.0693C26.0079 28.1939 25.7609 28.2472 25.4434 28.2472H23.9265ZM46.5925 28.7277C45.6753 28.7277 44.7581 28.6209 43.8761 28.4074C42.9942 28.1939 42.3063 27.9625 41.8476 27.6956C41.5655 27.5355 41.3714 27.3574 41.3008 27.1973C41.2303 27.0371 41.1951 26.8592 41.1951 26.699V25.7915C41.1951 25.4178 41.3361 25.2398 41.6007 25.2398C41.7066 25.2398 41.8123 25.2576 41.9182 25.2932C42.024 25.3288 42.1828 25.3999 42.3591 25.4711C42.9589 25.7381 43.6116 25.9516 44.2995 26.094C45.005 26.2364 45.693 26.3076 46.3985 26.3076C47.5097 26.3076 48.3741 26.1118 48.9738 25.7203C49.5735 25.3288 49.8911 24.7594 49.8911 24.0297C49.8911 23.5315 49.7322 23.1222 49.4148 22.784C49.0973 22.4459 48.4975 22.1435 47.6332 21.8587L45.0756 21.0579C43.788 20.6486 42.8354 20.0435 42.2534 19.2427C41.6713 18.4597 41.3714 17.5878 41.3714 16.6624C41.3714 15.915 41.5302 15.2566 41.8476 14.6871C42.1651 14.1177 42.5885 13.6194 43.1176 13.2279C43.6469 12.8186 44.2465 12.5161 44.9521 12.3025C45.6577 12.089 46.3985 12 47.1746 12C47.5627 12 47.9684 12.0178 48.3565 12.0712C48.7621 12.1246 49.1326 12.1957 49.503 12.2669C49.8558 12.3559 50.1909 12.4449 50.5084 12.5517C50.8259 12.6584 51.0728 12.7652 51.2492 12.872C51.4962 13.0143 51.6725 13.1567 51.7783 13.3169C51.8842 13.4592 51.9372 13.655 51.9372 13.9041V14.7405C51.9372 15.1142 51.796 15.31 51.5315 15.31C51.3904 15.31 51.161 15.2388 50.8611 15.0964C49.8558 14.6337 48.7269 14.4024 47.4744 14.4024C46.4691 14.4024 45.6753 14.5625 45.1285 14.9007C44.5817 15.2388 44.2995 15.7548 44.2995 16.4845C44.2995 16.9827 44.4758 17.4098 44.8286 17.7479C45.1814 18.086 45.8341 18.4242 46.7689 18.7267L49.2737 19.5275C50.5436 19.9368 51.4609 20.5062 52.0077 21.2358C52.5545 21.9654 52.8191 22.8019 52.8191 23.7272C52.8191 24.4924 52.6603 25.1864 52.3604 25.7915C52.043 26.3965 51.6196 26.9304 51.0728 27.3574C50.526 27.8023 49.8734 28.1227 49.1149 28.354C48.3212 28.6032 47.4921 28.7277 46.5925 28.7277Z" fill="#252F3E"/>
<path d="M49.9262 37.3764C44.123 41.7007 35.6915 43.9962 28.442 43.9962C18.2818 43.9962 9.12726 40.2058 2.2128 33.9063C1.66599 33.408 2.15988 32.7317 2.81252 33.1233C10.2914 37.5009 19.5166 40.1524 29.0592 40.1524C35.4975 40.1524 42.5707 38.8 49.0795 36.0239C50.0496 35.579 50.8787 36.6645 49.9262 37.3764Z" fill="#FF9900"/>
<path d="M52.3428 34.6002C51.602 33.6392 47.4392 34.1375 45.5518 34.3688C44.9873 34.44 44.8992 33.9418 45.4107 33.5681C48.7269 31.219 54.1773 31.8953 54.8122 32.6783C55.4473 33.479 54.6359 38.9778 51.5315 41.6116C51.0552 42.0209 50.5966 41.8074 50.8082 41.2735C51.5138 39.5117 53.0836 35.5433 52.3428 34.6002Z" fill="#FF9900"/>
</g>
<defs>
<clipPath id="clip0_398_363">
<rect width="55" height="55" fill="white"/>
</clipPath>
</defs>
</svg>
