<svg width="55" height="55" viewBox="0 0 55 55" fill="none" xmlns="http://www.w3.org/2000/svg">
<g clip-path="url(#clip0_383_169)">
<path d="M18.3469 0.0556243H34.6026L17.7274 53.0747C17.6411 53.3455 17.5156 53.6003 17.3552 53.8301C17.1952 54.0601 17.0022 54.2617 16.7832 54.4284C16.5641 54.595 16.3224 54.7246 16.0655 54.8119C15.8087 54.8992 15.5409 54.9444 15.2717 54.9444H2.62059C2.20993 54.9444 1.80475 54.841 1.43941 54.6416C1.07367 54.4428 0.757968 54.1543 0.518492 53.8003C0.27886 53.4462 0.122094 53.0369 0.0611257 52.606C6.12193e-06 52.1751 0.0370899 51.7348 0.168257 51.3222L15.8904 1.92385C15.9763 1.65311 16.1019 1.39839 16.2626 1.16841C16.4226 0.938426 16.6163 0.73683 16.8347 0.570167C17.0537 0.403505 17.2955 0.273959 17.5523 0.186625C17.8092 0.0992913 18.077 0.0541687 18.3462 0.0541687V0.0548965L18.3469 0.0556243Z" fill="url(#paint0_linear_383_169)"/>
<path d="M48.3133 54.9444H33.7167C33.554 54.9444 33.3912 54.9284 33.2305 54.8956C33.0705 54.8636 32.9132 54.8156 32.7615 54.7522C32.6097 54.6889 32.4641 54.6103 32.3261 54.5186C32.1882 54.4263 32.0588 54.3206 31.9394 54.2028L15.3754 37.8087C15.2002 37.6353 15.0781 37.4102 15.0251 37.1624C14.9721 36.9147 14.9908 36.6557 15.0786 36.4194C15.1664 36.183 15.3194 35.9801 15.5175 35.8371C15.716 35.6945 15.9502 35.6181 16.1898 35.6181H41.9672L48.3119 54.9451L48.3133 54.9444Z" fill="#0078D4"/>
<path d="M34.661 0.0556372L23.2817 35.6217L41.8744 35.6173L48.2522 54.9444H33.7105C33.5601 54.9429 33.4097 54.9284 33.2614 54.9C33.1131 54.8716 32.9675 54.8301 32.826 54.7748C32.5423 54.6652 32.2785 54.505 32.0459 54.301L20.8644 43.2416L17.7343 53.0245C17.6532 53.269 17.542 53.5012 17.4033 53.7144C17.1252 54.1434 16.7449 54.4867 16.3011 54.7093C16.0801 54.8201 15.8461 54.8991 15.6054 54.9444H2.62813C2.21334 54.9458 1.80404 54.841 1.43527 54.6387C1.06643 54.4365 0.748946 54.1433 0.509643 53.7836C0.270341 53.424 0.116258 53.0086 0.0604199 52.5725C0.00478378 52.1363 0.0488254 51.6922 0.18884 51.2778L15.8856 1.96098C15.9673 1.68515 16.0902 1.42533 16.2496 1.19098C16.4082 0.956633 16.6018 0.749943 16.8216 0.579642C17.0414 0.40934 17.2858 0.276883 17.5447 0.188094C17.8036 0.0993042 18.0749 0.0541816 18.3475 0.0556372H34.6617H34.661Z" fill="url(#paint1_linear_383_169)"/>
<path d="M54.8318 51.3222C54.9631 51.7351 55 52.175 54.9396 52.606C54.8786 53.0367 54.7221 53.446 54.483 53.8003C54.2434 54.1541 53.9278 54.4424 53.5623 54.6414C53.1968 54.8403 52.7918 54.9442 52.3809 54.9444H34.2634C34.674 54.9444 35.0792 54.8403 35.4452 54.6416C35.8106 54.4429 36.1265 54.154 36.3662 53.8003C36.6058 53.4466 36.7624 53.0368 36.8235 52.606C36.8846 52.1751 36.8476 51.7348 36.7164 51.3222L20.9936 1.9224C20.8205 1.37822 20.4907 0.905285 20.0507 0.570177C19.8323 0.403514 19.5905 0.274696 19.3344 0.187362C19.0782 0.100028 18.8104 0.0556335 18.5419 0.0556335H36.6587C36.9279 0.0556335 37.195 0.100028 37.4519 0.187362C37.708 0.274696 37.9498 0.404242 38.1688 0.570177C38.3872 0.736839 38.5802 0.938435 38.7402 1.16769C38.9002 1.39694 39.0252 1.65166 39.1117 1.9224L54.8346 51.3222H54.8318Z" fill="url(#paint2_linear_383_169)"/>
</g>
<defs>
<linearGradient id="paint0_linear_383_169" x1="24.2796" y1="4.12394" x2="5.54315" y2="56.3509" gradientUnits="userSpaceOnUse">
<stop stop-color="#114A8B"/>
<stop offset="1" stop-color="#0669BC"/>
</linearGradient>
<linearGradient id="paint1_linear_383_169" x1="29.5468" y1="28.7667" x2="25.5946" y2="30.0317" gradientUnits="userSpaceOnUse">
<stop stop-opacity="0.3"/>
<stop offset="0.1" stop-opacity="0.2"/>
<stop offset="0.3" stop-opacity="0.1"/>
<stop offset="0.6" stop-opacity="0.1"/>
<stop offset="1" stop-opacity="0"/>
</linearGradient>
<linearGradient id="paint2_linear_383_169" x1="27.3905" y1="2.58104" x2="47.9033" y2="54.1465" gradientUnits="userSpaceOnUse">
<stop stop-color="#3CCBF4"/>
<stop offset="1" stop-color="#2892DF"/>
</linearGradient>
<clipPath id="clip0_383_169">
<rect width="55" height="55" fill="white"/>
</clipPath>
</defs>
</svg>
