<svg width="55" height="55" viewBox="0 0 55 55" fill="none" xmlns="http://www.w3.org/2000/svg">
<g clip-path="url(#clip0_395_292)">
<path d="M48.7747 17.5424C48.6312 18.1973 48.3983 18.682 48.0838 19.0051L47.8603 18.8616C48.1027 18.2428 48.2195 17.8836 48.2101 17.7942L48.1473 17.6954C48.0666 17.704 47.9583 17.9188 47.8242 18.3503L47.7073 18.3588C47.7015 18.2864 47.6801 18.216 47.6446 18.1526L47.5905 18.1612L45.0785 24.7552C44.9066 25.3395 44.7468 25.6609 44.6119 25.7237C44.6205 25.7864 44.6566 25.8225 44.7288 25.8131C44.7545 26.1001 44.6841 26.3785 44.5311 26.6552C44.0739 27.9563 43.7774 28.6748 43.6253 28.7994L43.7241 29.4181C43.7327 29.4809 43.6984 29.5256 43.6253 29.5256L43.5179 29.5341C43.5007 29.364 43.4371 29.2832 43.3288 29.2918L43.2747 29.3004C43.1398 29.5152 43.0323 29.767 42.961 30.0541L43.0684 30.0455C43.212 29.9561 43.2747 29.8478 43.2661 29.7138L43.4809 29.6966L43.5978 29.7412C43.499 29.8934 43.4543 30.0197 43.4629 30.1091L43.517 30.2079L43.3821 30.531L43.3907 30.5852C43.5345 30.5792 43.6763 30.6202 43.7946 30.702C43.9104 30.6852 44.0209 30.6423 44.1177 30.5766C44.5722 30.5603 45.0269 30.5543 45.4816 30.5585L45.8769 30.4236L46.8548 30.3978L47.025 30.3806L47.1144 30.3179L47.123 30.372C47.5527 30.3359 47.5896 30.3634 47.9308 30.4081L47.9394 30.4623L47.697 30.4795L47.7056 30.5783C47.7746 30.5743 47.8406 30.5491 47.8947 30.5061C47.9574 30.4975 47.9935 30.5319 48.0021 30.6049C47.9033 30.6135 47.7959 30.641 47.6704 30.6771L47.563 30.641C47.3928 30.6857 47.428 30.6952 47.3206 30.7038L47.1505 30.6677C47.1505 30.6934 47.1419 30.7124 47.1144 30.7218C47.123 30.7845 47.1505 30.8206 47.2132 30.8112L47.4195 30.794L47.3301 30.7579C47.3301 30.7837 47.3473 30.8026 47.3842 30.8026L48.272 30.7218L48.6131 30.6496C48.6131 30.6754 48.6303 30.6943 48.6578 30.6943L48.8194 30.6316L49.1245 30.6058C49.3668 30.5886 49.3565 30.5697 49.8687 30.4889C49.8687 30.4631 49.8773 30.4442 49.9048 30.4442V30.4889L50.9996 30.2655L50.9549 30.1581C50.6765 30.2208 50.6859 30.1838 50.5424 30.2027L49.7982 30.2388L49.7896 30.1847L50.2021 30.1305L50.3542 30.122L50.435 30.0592L50.4436 30.1134C51.028 30.0592 51.2342 30.2122 53.9516 29.6381C54.0951 29.6295 54.0865 29.5032 54.175 29.2514C54.1247 29.2537 54.0748 29.2411 54.0315 29.2153C53.8081 29.3047 53.6903 29.26 53.2598 29.3322C53.2237 29.3322 53.197 29.3064 53.179 29.2334V29.1887L53.5915 29.2059C53.6637 29.1973 53.8235 29.1887 54.0401 29.0624C54.0848 29.0881 54.004 29.1165 54.0487 29.107L54.1209 29.0984C54.1656 29.0984 54.1836 29.0624 54.1836 28.991L54.1389 28.8922C53.8605 28.918 53.7264 28.9283 53.503 29.0538L53.4944 28.9996L53.1532 29.0357C53.1446 28.9283 53.1171 28.8836 53.0724 28.8836L52.9005 28.9008C52.6943 28.918 52.5955 28.9094 52.4966 28.9902C52.4966 28.9541 52.4795 28.936 52.4605 28.936L52.2629 28.9532L52.146 29.0159C52.146 28.9798 52.1288 28.9618 52.1099 28.9618L52.0377 29.0245L52.0291 28.9704L51.7602 28.9532L51.6974 28.9618L51.706 29.0606L51.8495 29.0967L51.975 29.0881C52.0197 29.1139 52.0738 29.1242 52.1271 29.1242L52.244 29.0701V29.1148C51.608 29.2763 51.6081 29.2402 51.1672 29.321C51.1131 29.2849 51.0778 29.2763 51.0598 29.2763C51.0151 29.321 51.1139 29.2849 51.0856 29.2849C51.0134 29.2935 50.9781 29.2592 50.9687 29.1956L51.1921 29.1698C51.2093 29.1698 51.2179 29.187 51.3442 29.2145C51.5161 29.1251 51.5333 29.089 51.6313 29.0795L51.6227 28.9807C50.9953 29.1062 51.2463 29.0254 50.4565 29.0881H50.4204L50.4118 28.9893C51.4259 28.8638 51.0847 28.9352 51.4259 28.8372C51.4259 28.8733 51.4431 28.8913 51.462 28.8913C51.4981 28.8552 51.5513 28.8286 51.6055 28.8286L51.6777 28.82C52.0274 28.7942 52.1529 28.8647 52.8524 28.6679V28.7126L52.9693 28.6585L53.0767 28.6499C53.0681 28.5424 53.2288 28.533 53.2744 28.5244L53.2658 28.417C52.0369 28.6679 51.7138 28.5888 51.3726 28.6954V28.6507C51.0495 28.7135 51.0409 28.6765 50.9601 28.6868C50.9343 28.6868 50.8973 28.7126 50.8613 28.7495C50.8613 28.7134 50.8441 28.6954 50.8166 28.6954C50.7624 28.6954 50.7908 28.7126 50.7444 28.7581L50.8166 28.6954L49.7492 28.8656C49.7492 28.8398 49.732 28.8209 49.7045 28.8209C49.1666 28.9377 49.3092 28.9558 48.5831 29.0185C48.547 29.0185 48.5023 29.0357 48.4481 29.0727C48.4481 29.0469 48.4309 29.028 48.394 29.028L47.9454 29.0641L47.6498 29.1363C47.6498 29.1105 47.6326 29.0916 47.5956 29.0916C47.4255 29.1363 47.282 29.1638 47.1659 29.1724H47.1573C47.0852 29.1809 47.1934 29.1552 47.1402 29.1277L47.0508 29.1818C46.9159 29.1904 46.988 29.1732 46.5395 29.1818L45.7488 29.2987L45.4532 29.2815C45.4532 29.3073 45.4446 29.3262 45.4085 29.3356C45.0768 29.2909 44.9058 29.2368 44.8972 29.1741C44.9419 28.8604 45.0141 28.6988 45.1292 28.6808L45.1834 28.6722L45.1292 28.7796L45.1834 28.771C45.2908 28.7169 45.3355 28.6636 45.3355 28.6095L45.3269 28.502L45.2195 28.5106L45.2109 28.4118C45.2023 28.331 45.2109 28.2683 45.2366 28.2056L45.479 27.8188L45.4876 27.9177L45.6045 27.9091L45.5959 27.8103L45.5331 27.7114C45.6139 27.6392 45.6852 27.5945 45.7394 27.5945L45.7308 27.5404L45.5787 27.549L45.5701 27.3969C45.8752 26.7506 46.0273 26.3656 46.0187 26.2754L46.1261 26.3201C46.1983 26.3115 46.2335 26.2754 46.2249 26.2032L46.1175 26.2118V26.1671C46.1103 26.0933 46.1228 26.0189 46.1536 25.9514C46.3238 25.7812 46.3959 25.6017 46.377 25.4135C46.4131 25.4135 46.4312 25.4306 46.4312 25.4676C46.5747 25.3868 46.6821 25.172 46.7629 24.8127C47.0138 24.3556 47.3645 23.4403 47.8397 22.0765C48.7369 19.6634 48.7008 19.4124 48.8263 18.8384L48.7188 18.8469C48.7274 18.9191 48.7102 18.9905 48.6741 19.0532C48.6197 19.0306 48.5625 19.0156 48.504 19.0085V18.9638C48.4868 18.7576 48.5762 18.5066 48.773 18.2102H48.8177L48.907 18.5599L49.0145 18.5513C49.036 18.4097 49.063 18.269 49.0952 18.1294C49.0866 18.0752 49.0506 18.0486 48.9698 18.04L48.8709 18.1027C48.8623 18.0305 48.8709 17.8423 48.8795 17.5287L48.7747 17.5424ZM47.483 19.0945L47.5372 19.0859C47.4564 19.2294 47.3937 19.3093 47.3309 19.3179L47.3223 19.1658C47.367 19.1572 47.4212 19.14 47.4839 19.0936L47.483 19.0945ZM47.0345 20.1713C47.1419 19.7313 47.2493 19.4803 47.3481 19.4176L47.3567 19.4717C47.3026 19.8842 47.2132 20.0905 47.0877 20.1077L47.1049 20.3681C47.0061 20.503 46.9614 20.6104 46.97 20.6912L46.9159 20.6998L46.8901 20.3405C46.9442 20.332 46.9975 20.2778 47.0336 20.1704L47.0345 20.1713ZM46.8643 20.7556C46.8729 20.8184 46.8282 20.9619 46.7474 21.1853L46.6933 21.1939L46.6847 21.0418C46.7474 20.8699 46.8102 20.7728 46.8566 20.7634L46.8643 20.7556ZM43.9132 27.2869L43.9673 27.3857C44.0481 27.3771 44.0842 27.341 44.0748 27.2783L44.0662 27.2242L44.012 27.2328L43.9132 27.2869ZM45.3312 28.4617V28.5063C45.412 28.4977 45.4927 28.3542 45.5632 28.0767L45.4558 28.0405C45.3664 28.2829 45.3303 28.4169 45.3303 28.4702L45.3312 28.4617ZM54.4096 28.7753V28.82L54.3202 28.9274L54.4904 28.8647H54.5076L54.499 28.7659H54.4629L54.4002 28.82C54.4002 28.7942 54.5892 28.7392 54.4448 28.7126C54.4191 28.7573 54.4904 28.7667 54.4096 28.7753ZM54.7594 29.0984L55.0017 29.0813C54.9931 29.0185 54.8402 29.0005 54.7869 29.0005H54.7422L54.7594 29.0984ZM50.4625 29.1878L50.5347 29.2772C50.5347 29.2514 50.5433 29.2325 50.5708 29.2325L50.6249 29.3313L50.4015 29.3056C50.3843 29.2334 50.4101 29.1981 50.4642 29.1887L50.4625 29.1878ZM49.7269 29.2686C49.8077 29.26 49.8618 29.3133 49.8618 29.3855H49.6109V29.3408C49.6366 29.3322 49.6831 29.315 49.7277 29.2686H49.7269ZM50.3009 29.2428L50.3095 29.297L50.1033 29.3142L50.0947 29.26L50.3009 29.2428ZM48.2195 29.4577C48.2195 29.4834 48.2367 29.5024 48.2737 29.5024L48.7309 29.413C48.785 29.4044 48.8116 29.4388 48.8202 29.5024L47.8964 29.5831L47.9858 29.6278L47.9772 29.5737L47.6274 29.5995L47.6188 29.5453L47.9325 29.5195L48.2195 29.4577ZM49.1709 29.3769V29.4216C49.1451 29.4216 49.2602 29.4302 49.207 29.4757C49.0093 29.4585 49.0007 29.4396 48.8572 29.4499V29.4052L49.1709 29.3769ZM49.4029 29.3511V29.3958L49.2327 29.413V29.3683L49.4029 29.3511ZM43.6623 30.2663L43.6709 30.4185C43.6167 30.4271 43.572 30.3927 43.554 30.3196V30.2749L43.6623 30.2663ZM51.3416 30.1314L51.3502 30.2302L51.5221 30.2131L51.4499 30.1684L51.4585 30.2225L51.6304 30.1503C52.8593 30.0154 53.0028 30.0695 52.9848 29.9269V29.8822C51.7473 30.1606 51.5857 30.1056 51.3262 30.1331L51.3416 30.1314ZM53.2615 29.9613L53.4334 29.9973L53.4248 29.8985L53.2529 29.8624L53.2615 29.9613ZM47.9506 30.311C48.0047 30.3368 47.8878 30.3652 47.9591 30.3557L48.5865 30.3016L48.5951 30.3557C48.4232 30.3729 48.2995 30.4004 48.2634 30.4365C48.2634 30.4004 48.2462 30.3823 48.2092 30.3823L47.9402 30.4081L47.9316 30.354C48.0038 30.3454 47.8955 30.3454 47.9488 30.3093L47.9506 30.311ZM50.857 30.2388L50.9111 30.3377C51.1173 30.293 51.0005 30.3016 51.0546 30.2569C51.0546 30.293 51.0718 30.311 51.0907 30.311L51.2342 30.3024L51.2256 30.195L50.8492 30.1864L50.857 30.2388ZM47.3043 30.6256H47.2682L47.2596 30.5267H47.2957L47.3043 30.6256ZM44.4967 30.9667L44.5053 31.0209L46.1553 30.8859L46.1467 30.7871L44.8276 30.8945L44.5491 30.8585L44.4967 30.9667ZM46.3358 30.8679H46.353L46.3444 30.7691H46.3272L46.3358 30.8679ZM21.2163 22.202L19.4116 24.5077C18.9363 25.0009 18.7026 25.2983 18.7301 25.3954C18.6046 25.4762 18.5582 25.557 18.5685 25.6463C18.5324 25.6549 18.5058 25.6377 18.4963 25.6017C18.2901 25.9334 17.9936 26.1396 17.5906 26.2376L17.1609 26.3364C17.1067 26.345 17.0801 26.3906 17.0801 26.4619L17.0887 26.516L17.2502 26.4799L17.2588 26.5246L16.8996 26.6595L16.2637 26.8031L15.932 26.8202C15.8873 26.8649 16.1923 26.8116 16.0755 26.846L15.663 26.9448C15.412 27.0076 15.2677 26.9809 15.2505 26.8821L15.2058 26.8907C15.2316 26.9895 15.2058 27.0523 15.1336 27.0626L15.2144 27.0454L15.1783 26.8933L14.4246 27.0652L14.5054 27.1013C14.4968 27.0652 14.4607 27.0566 14.3885 27.0755L14.2897 27.1563L14.1728 27.1305C14.0654 27.1932 14.0009 27.2293 13.9752 27.2293L13.8583 27.2035C13.5446 27.3754 13.7775 27.3754 13.7595 27.3754L13.7852 27.4742L13.9571 27.4295L14.2356 27.4123L14.2098 27.5292C13.1785 27.7982 13.9313 27.6461 13.6538 27.7011L13.5996 27.7097L13.6254 27.8085L13.787 27.7724L13.7956 27.8266C13.5893 27.8713 13.4724 27.9159 13.4363 27.9615L13.4277 27.9073C13.1588 27.9701 12.8898 28.1763 12.6199 28.5089C12.6646 28.7066 12.082 28.9489 14.8268 28.3112L15.1499 28.2941C15.1413 28.258 15.1585 28.2399 15.1946 28.2313C15.4997 28.1952 15.3562 28.2485 15.5444 28.2056L16.1459 28.0706L16.0205 28.1428C16.0119 28.117 16.0291 28.0981 16.0566 28.0887C16.1288 28.1059 16.2001 28.0973 16.28 28.0801L16.3161 28.2322L13.9743 31.9464L13.4544 32.5927L13.2034 33.4452L13.2481 33.4366L13.4991 33.3292L13.4183 33.6609L13.4441 33.7597L13.5163 33.8491C13.4802 33.8577 13.4716 33.8748 13.4802 33.9118V33.9659L13.5876 33.9402C13.7397 33.8052 13.8024 33.6798 13.7852 33.5723C13.9554 33.5981 14.0637 33.6084 14.117 33.5981L14.1256 33.6523C14.0267 33.6781 13.9734 33.7597 13.964 33.8946L13.9726 33.9487L14.0267 33.9402C14.8792 33.0163 16.9512 29.8495 18.6201 27.6968C18.5659 27.4648 19.4365 27.1408 21.2309 26.7283L21.285 26.7197C21.3477 26.9981 21.2128 27.6796 20.8725 28.765L20.5588 29.8324L20.1549 31.2417L19.519 33.3231C19.1065 34.3905 18.792 35.512 18.5771 36.6962C18.6132 36.6876 18.6759 36.6962 18.7473 36.7134L18.8366 36.6326C18.8452 36.6687 18.8624 36.6773 18.9088 36.6773L18.8727 36.5252L19.1512 36.5166C19.232 36.4994 19.3033 36.3911 19.3574 36.2029C19.3488 35.9245 19.4021 35.7732 19.5276 35.7363L19.8413 34.7222C20.0028 34.0588 20.1197 33.6909 20.2005 33.5827C20.4428 32.7216 20.613 32.273 20.7298 32.2463L20.7556 32.3538L20.5855 32.811C20.2804 34.1653 19.9667 35.243 19.6522 36.0319L19.7416 36.4272L19.7957 36.4186C20.558 34.7858 21.6434 31.5563 23.0613 26.73C23.0773 26.5299 23.14 26.3364 23.2445 26.165C23.349 25.9936 23.4923 25.8492 23.6629 25.7435L23.5821 25.6627L23.5735 25.618C23.7351 25.5819 23.852 25.5192 23.9147 25.4289C23.9061 25.3928 23.7626 25.3395 23.485 25.2673L24.3272 21.6614C24.5781 20.5846 24.7569 19.6419 24.8385 18.8255L24.8299 18.7713C24.6598 18.6639 24.4888 18.5109 24.3366 18.3141V18.0993L24.3281 18.0546L24.2834 18.0632C23.7634 18.8538 22.7227 20.2254 21.1896 22.1882L21.2163 22.202ZM22.4091 23.0184C22.4538 23.2074 22.3833 23.5563 22.2028 24.0668C22.1487 24.713 21.9158 25.0809 21.5119 25.1788L21.5033 25.1247L21.1441 25.2596L20.9825 25.2957C20.9017 25.3129 20.8304 25.3129 20.7591 25.2871L20.723 25.1436C20.7144 25.0895 21.2257 24.3719 22.2836 22.9995L22.4091 23.0184ZM21.5841 25.2527L21.7009 25.227L21.7267 25.3258L20.7848 25.6042C20.7282 25.6224 20.6762 25.653 20.6327 25.6936C20.6241 25.6575 20.552 25.6575 20.4093 25.685C20.3835 25.5862 20.7771 25.4427 21.5841 25.2553V25.2527ZM16.0136 26.7601L16.1391 26.7343L16.1133 26.6269L15.9878 26.6527L16.0136 26.7601ZM17.6464 26.3304L17.6722 26.4292L17.4032 26.4464L17.3946 26.3923L17.6464 26.3304ZM14.5063 27.3617L14.5148 27.4158L14.3447 27.4519L14.3361 27.3977L14.5063 27.3617ZM14.1926 28.0165L14.2012 28.0612L13.9949 28.1059L13.9691 28.0071L14.1926 28.0165ZM14.6859 27.9091L14.6945 27.9538L14.318 28.0431L14.3095 27.9984L14.6859 27.9091ZM15.3407 27.8016L15.3493 27.8558L14.3627 28.0792L14.337 27.9804C14.911 27.8816 14.8483 27.9177 15.3424 27.8085L15.3407 27.8016ZM20.2838 26.6535L20.3646 26.7429C20.2477 26.7687 20.1584 26.8056 20.1137 26.8503L19.9968 26.8331C19.8461 26.8976 19.6899 26.9485 19.5302 26.9852L19.4227 27.011C19.36 27.0282 19.3153 27.0024 19.2878 26.9388L20.032 26.7687L20.2838 26.6535ZM20.8132 26.5366L21.3426 26.4112L21.3512 26.4653C21.0641 26.5281 20.8398 26.6002 20.6783 26.6802L20.6697 26.626C20.7144 26.6174 20.7591 26.5813 20.8132 26.5366ZM15.2513 28.044L15.5023 27.9898L15.5281 28.0887C15.4206 28.1144 15.5023 28.1145 15.3665 28.178C15.1061 28.2038 15.1602 28.1695 14.7477 28.2674L14.7391 28.2133L15.2513 28.044ZM15.9328 27.9271C16.005 27.9099 16.0497 27.9357 16.0583 28.0079L15.9062 28.044C15.8434 28.0612 15.7988 28.0354 15.7713 27.9632L15.9328 27.9271ZM13.1252 33.5964L13.1338 33.6506C13.206 33.6334 13.2327 33.5964 13.2146 33.5251L13.206 33.4709C13.1433 33.4881 13.1166 33.5251 13.1252 33.5964ZM13.3401 34.4936C13.3573 34.5563 13.3942 34.583 13.4656 34.5658C13.5369 34.5486 13.5644 34.5117 13.5463 34.4403L13.5377 34.3862L13.4303 34.4119L13.3401 34.4936ZM19.0635 36.0362C19.1357 36.019 19.1709 36.0448 19.189 36.1084L19.1976 36.1625L18.9913 36.2072C19.0085 36.135 19.0085 36.0817 18.9999 36.0456L19.0635 36.0362Z" fill="black"/>
<path d="M27.3883 19.4356C26.8773 19.7987 26.3471 20.134 25.8002 20.4402L25.8088 20.5391C25.8449 20.5391 25.8981 20.5133 25.9703 20.4669C26.0425 20.4583 26.0777 20.4927 26.0872 20.5563L26.186 20.5021H26.2307V20.5468C26.2393 20.601 25.8629 20.888 25.1273 21.4079L25.1814 21.5153H25.1367L25.0199 21.4706C25.0199 21.5067 24.9752 21.5334 24.8677 21.5428V21.5875L24.9846 21.731C24.9253 21.7291 24.8671 21.7138 24.8145 21.6863C24.5721 21.7035 24.3392 21.884 24.1055 22.2063L24.1596 22.3051C24.3659 22.116 24.4827 22.018 24.5188 22.018L24.5274 22.1702C24.4913 22.1702 24.4381 22.196 24.3659 22.2424L24.5008 22.4314C24.7364 22.1708 25.0048 21.9417 25.2992 21.7499C25.4427 21.7946 25.5226 21.8393 25.5226 21.8848L25.63 21.8763C26.4378 21.2747 27.2267 20.8622 28.007 20.6027V20.7015C27.8635 20.9163 27.7647 21.0246 27.7114 21.0332C27.72 21.1054 27.7372 21.1681 27.7742 21.2309C27.7827 21.3658 27.433 22.2621 26.7154 23.9224C25.0826 27.7707 23.7016 30.6238 22.5887 32.4715C22.5887 32.5076 22.6145 32.5609 22.6609 32.6236C22.9393 32.5609 23.1095 32.4887 23.1808 32.426H23.2255L23.2341 32.5248L23.351 32.5162L23.4498 32.462C23.4498 32.4878 23.4859 32.5067 23.5572 32.4981L23.5658 32.6056C23.5744 32.7044 23.5117 32.8565 23.3956 33.0722C23.2788 33.1977 23.1533 33.4675 23.0278 33.8714L23.0364 33.9256L23.1438 33.917C23.5924 33.4142 23.9242 32.9304 24.1579 32.4457C25.459 32.059 26.4456 31.692 27.1365 31.3242C27.836 31.2615 28.3568 31.0819 28.7152 30.7863L28.7066 30.7321L28.4376 30.8129L28.3835 30.8215L28.3749 30.7673C28.8862 30.6952 29.236 30.5783 29.4233 30.4262C30.4099 29.6639 31.1549 29.1251 31.6577 28.8106C33.2183 27.6624 33.9539 26.5762 33.8645 25.5105C33.8559 25.4031 33.5148 24.9726 32.8333 24.2189C32.8247 24.0754 33.0567 23.8691 33.5328 23.6002L34.8967 22.4159C35.2017 22.0292 35.3813 21.4019 35.4346 20.5322L35.4174 20.3345C35.3633 19.733 34.9242 19.2492 34.0983 18.8719C33.605 18.5402 32.7259 18.3605 31.46 18.3245C30.4288 18.3966 29.0649 18.773 27.3694 19.4365L27.3883 19.4356ZM34.6904 19.5078L34.6363 19.6152L33.1289 18.9793C34.143 19.024 34.6629 19.1942 34.6895 19.5087L34.6904 19.5078ZM28.5717 23.7059C28.6791 23.1404 28.7951 22.8267 28.9214 22.7546L30.061 20.2065C30.0524 20.0544 30.2844 19.9281 30.7785 19.8387L30.9401 19.8215L30.9487 19.9736C31.4334 19.8928 31.729 19.8481 31.8545 19.8387C32.7517 19.7579 33.2183 19.9461 33.2535 20.3766L33.361 20.3681L33.3438 20.1257L33.4512 20.1171C33.7116 20.2606 33.8465 20.4308 33.8637 20.637C33.8723 20.7806 33.801 20.9602 33.6488 21.175C33.5767 21.1836 33.5414 21.1303 33.532 21.0315L33.4245 21.0401L33.3885 21.3452C32.9313 22.0361 32.6081 22.3764 32.4019 22.4039C32.23 22.6548 32.1063 22.7803 32.0521 22.7803C31.9086 22.9505 31.5227 23.247 30.8859 23.6509C30.6711 23.6681 29.8891 23.974 28.5356 24.5661C28.4673 24.5393 28.3934 24.5304 28.3207 24.5403L28.3121 24.4415C28.2949 24.2524 28.3835 24.0118 28.5717 23.7059ZM34.8331 20.5657L34.8417 20.6731C34.7875 20.6731 34.6895 20.5116 34.528 20.1884L34.5194 20.0896C34.6182 20.081 34.7256 20.2426 34.8331 20.5657ZM24.8935 21.786L24.9021 21.8402C24.866 21.8402 24.8127 21.8659 24.7406 21.9029H24.6959L24.6873 21.8041L24.8935 21.786ZM28.1849 21.7052L28.1935 21.8574C28.1394 21.8574 28.0767 21.9381 27.9959 22.0722L27.9873 21.9734C28.0767 21.8565 28.1222 21.7671 28.1222 21.7044L28.1849 21.7052ZM27.6736 22.764L27.6908 22.9617L27.6367 22.9702L27.6195 22.7726L27.6736 22.764ZM27.5481 23.1318C27.5395 23.302 27.494 23.3922 27.4132 23.4008L27.3591 23.4094C27.4218 23.2925 27.4484 23.2031 27.4399 23.1404L27.5481 23.1318ZM27.3161 23.6612L27.3247 23.7153L27.2353 23.8769L27.1279 23.8855L27.1193 23.8313C27.2267 23.8227 27.2809 23.7686 27.2714 23.6612H27.3161ZM27.0927 24.1364L27.0566 24.3968H27.0119L26.9947 24.1364H27.0927ZM32.6185 24.3255L32.8419 24.4604C32.8505 24.5231 32.8161 24.5678 32.7431 24.5678C32.6442 24.5051 32.5729 24.4785 32.5196 24.487V24.3349L32.6185 24.3255ZM28.2941 24.8995L28.3027 24.9984L28.0878 25.0156L28.0792 24.9167L28.2941 24.8995ZM31.7831 25.2673C31.9352 25.3395 32.0066 25.4023 32.0152 25.4564V25.5011C31.8717 25.5097 31.7367 25.4384 31.6113 25.2777L31.7831 25.2673ZM27.2886 26.3708C27.8902 26.3166 28.8587 26.0296 30.1761 25.5097L30.5078 25.4839C31.1713 25.4298 31.6654 25.5561 31.9971 25.8706L32.0143 26.0683C31.772 26.7678 31.503 27.1803 31.2065 27.3058L29.8521 28.4006C28.8381 29.0641 28.2915 29.3975 28.2021 29.4061C26.5865 30.2938 25.5827 30.7519 25.1883 30.788L25.1342 30.7966C25.1702 30.6075 25.8878 29.138 27.2869 26.3742L27.2886 26.3708ZM28.7513 25.7864L28.7599 25.8405L28.545 25.8577L28.5364 25.8036L28.7513 25.7864ZM33.6497 25.563L33.6858 25.9755C33.6317 26.0743 33.587 26.1276 33.5337 26.137L33.471 25.4375C33.5878 25.4736 33.6428 25.5183 33.6428 25.563H33.6497ZM25.3696 29.0795C25.2974 29.4207 25.2261 29.5995 25.1548 29.5995V29.5548C25.129 29.3932 25.1995 29.2317 25.3696 29.0795ZM26.724 30.9994C27.1193 30.9272 28.2038 30.3635 29.9896 29.2952L29.9982 29.3941C29.9982 29.4388 29.8547 29.5659 29.541 29.7894C28.6438 30.238 28.1059 30.5336 27.9443 30.6866C26.9663 31.0277 26.4817 31.2426 26.4834 31.3225C25.6128 31.6637 25.0482 31.9241 24.7698 32.0762C24.707 32.0848 24.6082 32.059 24.4913 31.9954C24.4742 31.8235 24.5541 31.6817 24.7234 31.5657C24.8698 31.5544 25.0168 31.5758 25.1539 31.6284C25.3155 31.5477 25.5939 31.4583 25.9961 31.35L25.9875 31.2512L25.6558 31.277C25.6919 31.2142 26.0056 31.0707 26.5891 30.837L26.7506 30.8198V30.8645C26.4722 30.8902 26.3209 30.9719 26.284 31.1154C26.2926 31.1781 26.3287 31.2142 26.4009 31.2048C26.6243 31.0973 26.724 31.0157 26.724 30.9899V30.9994ZM25.0465 29.7705V29.8152C25.0551 29.8873 25.0207 29.932 24.9477 29.932L24.9391 29.8779C24.9391 29.8332 24.9752 29.7885 25.0465 29.7705ZM27.5945 30.47C27.4691 30.4786 27.2267 30.5869 26.8675 30.7837L26.8134 30.7923L26.8048 30.6934C27.0652 30.6677 27.2981 30.568 27.4777 30.3884C27.5499 30.3798 27.5851 30.4056 27.5945 30.4692V30.47ZM24.9563 31.2056L25.1178 31.1885L25.1264 31.2426C25.0903 31.2426 25.037 31.2684 24.9649 31.3053L24.8574 31.3139C24.8488 31.2598 24.8832 31.2245 24.9563 31.2065V31.2056ZM23.8709 31.8072L23.9783 31.8519C23.9422 32.1656 23.8434 32.3271 23.6999 32.3366C23.5744 32.2824 23.4678 32.2558 23.3681 32.2644L23.3595 32.1123C23.3509 32.0581 23.3853 32.0229 23.4584 32.0048C23.5306 31.9963 23.5658 32.0496 23.5752 32.1484C23.7471 31.9249 23.8537 31.8072 23.8709 31.8072ZM6.27947 18.9879C5.6779 19.4365 4.96978 19.8756 4.18947 20.307L4.19806 20.442C4.2522 20.442 4.31493 20.4059 4.40431 20.3612C4.49368 20.3526 4.54782 20.387 4.54782 20.4781L4.69134 20.3973L4.76353 20.3887L4.77212 20.4514C4.78072 20.5141 4.28743 20.9 3.30947 21.591L3.39025 21.7164L3.31806 21.725L3.16595 21.6709C3.16595 21.7156 3.10322 21.743 2.9597 21.7516L2.96829 21.8238L3.12986 21.9957C3.07572 21.9957 3.00439 21.9871 2.91501 21.951C2.60134 21.9768 2.28767 22.2114 1.98173 22.642L2.06251 22.7674C2.3315 22.5251 2.4922 22.3996 2.52915 22.3996L2.54634 22.5973C2.50165 22.5973 2.42947 22.6334 2.34009 22.6781L2.51025 22.929C2.82319 22.5851 3.1824 22.2863 3.57759 22.0413C3.77525 22.0954 3.87322 22.1487 3.87322 22.2131L4.01673 22.2045C5.06517 21.4242 6.10673 20.8682 7.13884 20.5184L7.14743 20.6534C6.95837 20.9404 6.82431 21.0831 6.75212 21.0934C6.76139 21.1874 6.7955 21.2773 6.85095 21.3538C6.86814 21.5256 6.40236 22.7081 5.45189 24.897C3.27423 29.9673 1.47126 33.7176 0.00860596 36.1582C0.00860596 36.2029 0.0446997 36.2751 0.0893872 36.3559C0.448606 36.2665 0.69095 36.1857 0.780325 36.0955L0.861106 36.0869L0.8697 36.2218L1.00462 36.2132L1.14814 36.1324C1.14814 36.1771 1.20228 36.1952 1.29165 36.1866L1.30025 36.3215C1.30884 36.4564 1.23751 36.6627 1.06822 36.9402C0.916106 37.1104 0.763137 37.4602 0.592981 37.9887V38.0514L0.727903 38.0428C1.31228 37.388 1.75915 36.7417 2.06423 36.1144C3.77782 35.6117 5.07806 35.1175 5.9847 34.6345C6.89048 34.5538 7.59173 34.3209 8.0472 33.9256L8.03861 33.8534L7.69743 33.9522L7.61665 33.9608L7.60806 33.8886C8.2715 33.7898 8.73814 33.6377 8.98993 33.44C10.291 32.4345 11.2673 31.7264 11.9324 31.3053C13.9949 29.798 14.9557 28.3448 14.8388 26.9638C14.8302 26.8202 14.3722 26.2548 13.4845 25.2682C13.4673 25.0792 13.7801 24.811 14.4083 24.4518L16.1932 22.8817C16.5885 22.3704 16.8292 21.5454 16.9108 20.4067L16.885 20.1377C16.8128 19.3385 16.2388 18.694 15.1448 18.1999C14.4985 17.7599 13.3418 17.527 11.6729 17.5003C10.3005 17.6258 8.48806 18.1019 6.26314 18.9716L6.27947 18.9879ZM15.9045 19.1048L15.8503 19.2397L13.8592 18.4061C15.1869 18.4602 15.8684 18.6931 15.9045 19.1056V19.1048ZM7.84868 24.6306C7.98361 23.8949 8.13572 23.473 8.30587 23.3759L9.79517 20.0295C9.77798 19.8232 10.0908 19.6616 10.7465 19.5542L10.9613 19.537L10.9785 19.7261L12.1713 19.5559C13.3556 19.4571 13.9657 19.6909 14.019 20.2735L14.1539 20.2649L14.1281 19.9238L14.2717 19.9152C14.6214 20.1042 14.8096 20.3448 14.8277 20.6147C14.8449 20.8038 14.7469 21.0444 14.5226 21.3142C14.4332 21.3228 14.3791 21.2601 14.3705 21.1252L14.227 21.1338L14.1909 21.5377C13.5893 22.4349 13.1596 22.892 12.8898 22.9195C12.6474 23.2513 12.4945 23.4223 12.4326 23.4309C12.2435 23.6543 11.7331 24.0324 10.89 24.579C10.6116 24.6048 9.58032 25.0087 7.79626 25.7821C7.70714 25.739 7.60722 25.7235 7.50923 25.7374L7.50064 25.612C7.48345 25.3516 7.59001 25.0276 7.8504 24.634L7.84868 24.6306ZM16.0927 20.5038L16.1013 20.6293C16.0291 20.6379 15.895 20.4231 15.6974 19.9934L15.6888 19.8679C15.8142 19.8507 15.9492 20.0656 16.0927 20.5038ZM2.99579 22.1006L3.00439 22.1633C2.9597 22.1633 2.88751 22.1994 2.79814 22.2441L2.72595 22.2527L2.71736 22.1272L2.99579 22.1006ZM7.32876 21.9931L7.34595 22.1908C7.28322 22.1994 7.19384 22.2896 7.08556 22.4778L7.07696 22.3429C7.20243 22.1908 7.26603 22.0739 7.26603 21.9931H7.32876ZM6.66532 23.3922L6.69111 23.6612L6.61892 23.6698L6.59314 23.4008L6.66532 23.3922ZM6.49517 23.8769C6.47798 24.1003 6.42298 24.2181 6.30611 24.2266H6.23392C6.3147 24.0745 6.35939 23.9663 6.35079 23.8855L6.49517 23.8769ZM6.19954 24.5764L6.20814 24.6392L6.08267 24.854L5.94775 24.8626V24.7998C6.08267 24.7913 6.1454 24.7191 6.13681 24.585L6.19954 24.5764ZM5.89447 25.2038L5.85837 25.5355L5.78618 25.5441L5.7604 25.2124L5.89447 25.2038ZM13.1699 25.4461L13.4656 25.618C13.4742 25.7073 13.4295 25.7615 13.3401 25.7701C13.2146 25.6893 13.1167 25.6532 13.0445 25.6532L13.0273 25.4555L13.1699 25.4461ZM7.47228 26.2084L7.48087 26.3338L7.20243 26.3596L7.19384 26.2341L7.47228 26.2084ZM12.0656 26.675C12.2633 26.7644 12.3613 26.8469 12.3707 26.9259L12.3793 26.9887C12.1902 27.0059 12.0201 26.9079 11.8594 26.693L12.0656 26.675ZM6.13595 28.136C6.94376 28.0638 8.21736 27.6874 9.94814 27.0059L10.3778 26.9698C11.257 26.8976 11.9118 27.0592 12.3424 27.4725L12.3681 27.7415C12.045 28.6748 11.6867 29.2127 11.3008 29.3743L9.50642 30.8009C8.17009 31.68 7.44392 32.12 7.34423 32.1286C5.21814 33.3034 3.88954 33.9049 3.37907 33.9505L3.29829 33.9591C3.37048 33.7081 4.31236 31.7702 6.13423 28.1282L6.13595 28.136ZM8.07384 27.3737L8.08243 27.4364L7.7954 27.4622L7.78681 27.3995L8.07384 27.3737ZM14.5149 27.0866L14.5595 27.616C14.4968 27.7595 14.4341 27.8309 14.3619 27.8309L14.2811 26.8976C14.4332 26.9603 14.5045 27.0231 14.5131 27.0866H14.5149ZM3.59736 31.7152C3.50798 32.1724 3.40829 32.4062 3.31032 32.4148L3.30173 32.3521C3.28454 32.12 3.38251 31.912 3.59736 31.7161V31.7152ZM5.39173 34.2452C5.91165 34.1464 7.33822 33.3928 9.68861 32.0109L9.6972 32.1363C9.70579 32.1905 9.49954 32.3598 9.09564 32.6562C7.90282 33.2406 7.20243 33.6428 6.99618 33.8491C5.70454 34.2977 5.06775 34.5761 5.07634 34.6827C3.92822 35.1398 3.17454 35.4733 2.81618 35.6795C2.7354 35.6881 2.60993 35.6538 2.44837 35.5807C2.43118 35.3487 2.52915 35.151 2.76204 35.0067C2.9597 34.9895 3.15736 35.0152 3.33611 35.096C3.55095 34.9886 3.92048 34.864 4.44814 34.7368L4.43954 34.6019L4.00986 34.638C4.064 34.5658 4.46704 34.3776 5.23876 34.0639L5.45361 34.0467L5.4622 34.1095C5.10298 34.1352 4.89673 34.253 4.86064 34.4412C4.86923 34.522 4.91478 34.5667 5.00415 34.5581C5.26454 34.3862 5.39947 34.2796 5.39947 34.253L5.39173 34.2452ZM3.18486 32.6124L3.19345 32.6752C3.20204 32.7645 3.15736 32.8187 3.06798 32.8273L3.05939 32.7645C3.05079 32.6838 3.09548 32.6296 3.18486 32.6124ZM6.53986 33.5277C6.3697 33.5448 6.05517 33.6798 5.57993 33.9573L5.50775 33.966L5.49915 33.831C5.83185 33.8089 6.14478 33.6651 6.37829 33.4271C6.47712 33.4099 6.5304 33.4529 6.53986 33.5345V33.5277ZM3.05939 34.4962L3.27423 34.479V34.5512C3.22009 34.5512 3.15736 34.5873 3.06798 34.632L2.93306 34.6406C2.92447 34.5778 2.95884 34.5237 3.04993 34.497L3.05939 34.4962ZM1.63282 35.2954L1.78493 35.3581C1.73079 35.762 1.61478 35.9597 1.40853 35.9855C1.2715 35.9198 1.12033 35.8891 0.968528 35.8961L0.95134 35.6984C0.942747 35.6177 0.987434 35.573 1.08626 35.5463C1.17564 35.5377 1.22978 35.6005 1.23837 35.7354C1.48072 35.4398 1.61478 35.2954 1.63368 35.2954H1.63282ZM41.4279 17.6679L41.311 17.6232L39.4006 17.9188C39.3285 17.8827 39.2391 17.8647 39.1402 17.8741C39.0328 17.8827 38.8713 17.9188 38.6289 17.9816L37.7051 18.3683L37.7773 18.4852C37.822 18.4852 37.8847 18.4594 37.9663 18.413L38.2895 18.4388L38.2448 18.7438C37.9492 18.8788 37.7695 19.0756 37.7249 19.3454C37.2763 19.5431 37.052 19.6866 37.052 19.7751L37.0606 19.8292L37.1327 19.8206L37.2582 19.7579L37.4017 19.9281L37.4189 20.1601C37.4275 20.2323 36.6652 21.8376 35.1416 24.9683C33.8224 27.9821 33.1324 29.633 33.0602 29.9295C32.6116 30.0549 32.3426 30.2431 32.2695 30.4855C32.2781 30.5662 32.4131 30.6109 32.6735 30.6376L32.682 30.7545L32.5652 30.9521L32.5824 31.1842C32.591 31.3096 32.9235 31.399 33.5689 31.4712C33.5689 31.4265 33.5861 31.4085 33.6317 31.399C33.6402 31.5425 33.6059 31.8287 33.5062 32.2601L33.5784 32.2515C33.8474 31.8837 33.9737 31.6327 33.9651 31.4892L34.0192 31.4806C34.082 31.472 34.1542 31.5528 34.2341 31.7127C34.1533 31.7488 33.8663 32.3942 33.3816 33.6592L33.4538 33.776L33.526 33.7674C34.1275 32.2515 34.5039 31.4084 34.656 31.2469L38.7381 30.8344L38.8549 30.7622C38.8549 30.8069 38.8807 30.8249 38.9271 30.8163L39.0526 30.8077L39.1695 30.7356C39.1695 30.7802 39.1952 30.7983 39.2417 30.7897L40.7043 30.6642C41.091 30.6281 41.2784 30.5121 41.2603 30.3145C41.2517 30.2603 41.4838 30.1976 41.9513 30.1426C42.0185 30.1451 42.0851 30.1573 42.1489 30.1787C42.1489 30.1426 42.3724 30.1065 42.8399 30.0618C42.8484 29.8195 42.9292 29.6854 43.0719 29.6751V29.5582C42.9464 29.5668 42.7935 29.6029 42.6233 29.657C42.3182 29.6399 42.1206 29.621 42.0389 29.5849C41.9581 29.6296 41.8954 29.657 41.8499 29.657L40.8186 29.6931L40.6931 29.7559C40.6931 29.7198 40.6674 29.7017 40.621 29.7112L40.5668 29.7198L40.4319 29.7825C40.4319 29.7464 40.3245 29.7198 40.1088 29.6931L39.9833 29.7653L39.7324 29.7825L39.7238 29.7198C41.0335 29.5763 41.6883 29.3966 41.6702 29.1818C41.751 29.1732 41.7957 29.2179 41.8052 29.2987L42.1919 29.1999L42.1833 29.083L39.0431 29.1724C39.0431 29.217 39.026 29.2351 38.9804 29.2445L38.5937 29.2084C38.5058 29.2132 38.4213 29.2444 38.3513 29.2978L38.2078 29.2437C37.8125 29.2798 37.5169 29.3245 37.3201 29.3872C37.0212 29.3679 36.7213 29.3708 36.4229 29.3958L35.7139 29.4585L35.3908 29.4224C35.3736 29.2162 35.7775 28.1935 36.6111 26.3545C36.8535 25.7357 37.0777 25.349 37.284 25.2063C37.3287 25.2063 37.3914 25.2149 37.4817 25.251L37.9844 25.0809L38.2448 25.1255C38.6745 25.0895 39.1781 24.964 39.7521 24.7578C39.8956 24.7492 40.0031 24.7577 40.0752 24.7835L40.462 24.6942L41.6015 24.5953C42.1372 24.5408 42.6661 24.4325 43.1802 24.2722L43.1716 24.1553C42.9567 24.1725 42.8484 24.1381 42.8399 24.0565C42.8227 23.8949 42.6697 23.833 42.3732 23.8588L42.3646 23.742L42.6783 23.6526L43.5033 23.5804L43.4947 23.4635C43.4586 23.4635 43.297 23.4635 42.9834 23.4549L42.9748 23.3295L43.2979 23.3037C43.3787 23.2951 43.4234 23.2495 43.4148 23.1782C42.9851 23.1868 42.7685 23.1696 42.7685 23.1155C39.7813 23.259 38.2998 23.2856 38.2826 23.1963C38.2379 23.1963 38.1752 23.222 38.0935 23.277L38.0127 23.1516C38.8034 21.4741 39.2674 20.6216 39.4032 20.613C39.4118 20.6757 39.3774 20.7831 39.3044 20.9267L39.313 20.9808H39.4384C39.7521 20.2271 40.0125 19.8413 40.2377 19.8232C41.1709 19.7424 40.1027 19.6797 42.1128 19.366C42.1936 19.4021 42.2563 19.4202 42.2847 19.4107C43.0753 19.2491 44.1685 19.0876 45.5761 18.9174L45.5675 18.8006L44.8138 18.8727L44.8052 18.7559C44.8876 18.7508 44.9662 18.7195 45.0295 18.6665L45.0381 18.7292C45.0828 18.7292 45.137 18.7034 45.2083 18.6484C45.3338 18.6399 45.4317 18.6484 45.5039 18.6845C45.7097 18.6261 45.9197 18.5842 46.1321 18.5591L46.5988 18.5144C46.7156 18.4422 46.7689 18.3795 46.7603 18.3167V18.2626C46.6223 18.2702 46.4838 18.2613 46.3478 18.2359C46.3392 18.1732 46.3736 18.1285 46.4552 18.1105L47.3258 18.0297L47.7297 17.9309C47.7297 17.9756 47.7555 17.9936 47.7838 17.9936C47.8285 17.9936 47.8827 17.9678 47.954 17.9128C48.1602 17.9386 48.2857 17.9489 48.3132 17.9386C48.4748 17.7865 48.663 17.6602 48.8692 17.5794C48.7799 17.49 48.7343 17.4178 48.7257 17.3559L48.1413 17.4101C48.1413 17.3654 48.1156 17.3113 48.0786 17.2382C48.0786 17.1841 48.2041 17.1308 48.4739 17.0766L48.5908 17.1213L48.6982 17.0586C48.6982 17.0947 48.724 17.1127 48.761 17.1033L48.8684 17.0406C48.8684 17.0766 48.8942 17.0947 48.9311 17.0852L48.9852 17.0766L48.9767 16.9598C48.8959 16.9684 48.681 16.9684 48.3407 16.9598L48.2333 17.032L48.2247 16.9692L43.5686 17.3559C43.5239 17.3559 43.3263 17.3559 42.9945 17.3473C42.9945 17.392 42.9585 17.4195 42.8777 17.4195L42.7608 17.3654L42.3569 17.4642C42.2675 17.4728 42.106 17.4642 41.8817 17.447C41.8163 17.4965 41.7388 17.5273 41.6574 17.5364C41.568 17.545 43.8281 17.411 43.7568 17.3749L43.407 17.4737L43.3529 17.4823C43.2094 17.4909 43.0298 17.4909 42.8149 17.4651C42.7296 17.5214 42.6301 17.5524 42.5279 17.5545C42.4478 17.5641 42.3667 17.5485 42.2959 17.5098C42.0082 17.5836 41.7178 17.6464 41.4253 17.698L41.4279 17.6679ZM41.5714 18.0271C41.5714 18.0718 41.6161 18.0898 41.6883 18.0813V18.1981L41.5714 18.2067C41.4913 18.2164 41.4102 18.2008 41.3394 18.162C41.2752 18.2135 41.1971 18.2447 41.1151 18.2514H41.1512L40.8281 18.2153L40.8195 18.1612C41.2148 18.1354 41.3394 18.089 41.5637 18.0263L41.5714 18.0271ZM41.867 18.0013L41.9298 17.9927L41.9384 18.1096L41.7665 18.1268C41.7665 18.0641 41.7923 18.0194 41.8739 18.0013H41.867ZM42.558 17.9291L42.5666 17.9919C42.4317 18.0005 42.2615 18.0366 42.0552 18.0993L41.9925 18.1079L42.0467 17.9824L42.558 17.9291ZM37.4619 18.5135L37.6595 18.4963L37.651 18.3795L37.4533 18.3967L37.4619 18.5135ZM38.8713 18.388L38.9435 18.3795L39.0784 18.4336C39.087 18.5144 39.0423 18.5591 38.9615 18.5591L38.7638 18.5762L38.7552 18.5135C38.7467 18.4508 38.7913 18.4147 38.8721 18.388H38.8713ZM43.383 18.6484V18.7026L42.9791 18.7387V18.6845L43.383 18.6484ZM42.2254 18.8186L42.234 18.8813L42.002 18.8985L41.9934 18.8358L42.2254 18.8186ZM43.3374 18.908L44.1452 18.773L44.5577 18.7903L44.5663 18.853C44.3919 18.8658 44.2199 18.9019 44.055 18.9604C44.055 18.9157 43.9742 18.8796 43.8127 18.8616L43.1767 19.0334C43.0513 18.9613 42.9877 18.908 42.9877 18.8719L43.3374 18.908ZM42.5382 19.0799C42.619 19.0713 42.6551 19.1056 42.6637 19.1873L42.3225 19.2234L42.3139 19.1065L42.5382 19.0799ZM41.8292 19.0438L41.8378 19.1065L43.9373 19.0077L43.9287 18.9449L41.8292 19.0438ZM41.9547 19.2053V19.2595L41.4975 19.3042V19.25L41.9547 19.2053ZM38.9495 21.5824L38.9581 21.6451L39.093 21.6365C39.0944 21.571 39.1096 21.5066 39.1377 21.4474L39.1291 21.3306C39.0569 21.3392 38.9942 21.4199 38.9572 21.5815L38.9495 21.5824ZM34.3295 28.2923L34.3381 28.3465C34.3467 28.4273 34.302 28.472 34.2126 28.4814L34.204 28.4273C34.1954 28.3551 34.2401 28.3198 34.3295 28.2923ZM34.2126 28.5433C34.2212 28.6602 34.1404 28.9472 33.9806 29.4138L33.7829 29.431C33.7743 29.3502 33.8817 29.0632 34.088 28.5605L34.2126 28.5433ZM36.3748 30.4185C36.3834 30.4812 36.276 30.5534 36.0697 30.6247L35.6744 30.5989L35.5489 30.6075L35.5403 30.4906L36.3748 30.4185ZM36.7615 30.4545L36.7701 30.5087L36.447 30.5345L36.4384 30.4803L36.7615 30.4545Z" fill="black"/>
</g>
<defs>
<clipPath id="clip0_395_292">
<rect width="55" height="55" fill="white"/>
</clipPath>
</defs>
</svg>
