<?xml version="1.0" encoding="utf-8"?>
<!-- Generator: Adobe Illustrator 19.2.1, SVG Export Plug-In . SVG Version: 6.00 Build 0)  -->
<svg version="1.1" id="layer" xmlns="http://www.w3.org/2000/svg" xmlns:xlink="http://www.w3.org/1999/xlink" x="0px" y="0px"
	 viewBox="0 0 652 652" style="enable-background:new 0 0 652 652;" xml:space="preserve">
<style type="text/css">
	.st0{fill:none;stroke:#9281A8;stroke-width:5.6263;}
	.st1{clip-path:url(#SVGID_2_);fill:url(#SVGID_3_);}
	.st2{clip-path:url(#SVGID_5_);fill:url(#SVGID_6_);}
	.st3{clip-path:url(#SVGID_8_);}
	.st4{clip-path:url(#SVGID_10_);fill:url(#SVGID_11_);}
	.st5{clip-path:url(#SVGID_13_);fill:url(#SVGID_14_);}
	.st6{clip-path:url(#SVGID_16_);}
	.st7{clip-path:url(#SVGID_18_);fill:url(#SVGID_19_);}
	.st8{clip-path:url(#SVGID_21_);fill:url(#SVGID_22_);}
	.st9{fill:#004C93;}
</style>
<path class="st0" d="M520.3,374.6v-22.5 M467.5,374.6V350 M368,376.9v-26.4 M279.6,329.5v46.1 M193.7,376.9v-27.8 M91.1,348.7v28.2
	H577v-24.4"/>
<g>
	<defs>
		<path id="SVGID_1_" d="M436,303h-0.2v-9.4h-15.9v64.1h17v-29.1c0-5.2,0.1-12.3,1.9-16c2.1-4.7,6.9-7.6,12.3-7.6
			c10.4,0,10.4,9.3,10.4,19.8v32.8h17v-39.9c-0.1-6.3,0.1-15.8-6.7-21c-5.3-4.2-11.9-4.7-14.7-4.7C450.3,292.1,442.3,294.4,436,303
			 M521.7,305.1c2.6,0,12.3,1,12.6,15h-25.4C508.8,311.7,513.6,305.1,521.7,305.1 M491.2,326.1c0,5.3,1,11.6,3.8,17.8
			c6.8,14.6,21.7,15.4,27.2,15.4c21.3,0,26.6-15.1,28-19.1l-17-2.9c-0.9,3-2.9,8.9-10.8,8.9c-9.7,0-13.7-8.1-14-15.7h42.6
			c0.4-18.9-6.3-38.4-30.5-38.4C500.4,292.1,491.2,308.7,491.2,326.1 M565.5,280.9v12.8h-7.8v13.5h7.8v28c0,9.8,0.3,13.6,2.4,17.6
			c2.5,4.8,9.2,6.6,14.4,6.6c1.7,0,7.8-0.2,13.4-2.6l-1.5-13.1l-0.5,0.1c-2.1,0.9-4.1,1.5-6.3,1.5c-4.7,0-4.7-3-4.7-12.1v-25.9h11.5
			v-13.5h-11.5v-22.8L565.5,280.9z M178.9,319.4h14.5c12.5,0,23.5,0,23.5,12.1c0,2.7-0.8,7.9-7.3,10.3c-2.7,1-10.3,1-14.1,1h-16.6
			V319.4z M178.9,284.1h10.4c12.9,0,15,0,17.6,0.7c4.6,1.2,6.7,5.4,6.7,9.4c0,9.4-9.2,10.2-15.2,10.2h-19.4V284.1z M161.1,269.1
			v88.7h30.2c18.8,0,24.5-0.4,29.7-2.6c9.5-4.2,14.4-14.4,14.4-23.1c0-5-1.6-17-16.8-21.4c8.2-3.6,12.5-11.4,12.5-19.2
			c0-7.9-4.3-14-9.5-17.7c-5.7-4.1-12.8-4.6-25-4.6H161.1z M281.4,289.8l12.3,32.9h-24.3L281.4,289.8z M272.1,269.1l-34.5,88.7h19.1
			l7.3-20.1h35.4l7.7,20.1h19.6l-35.5-88.7H272.1z M328,314.2c0,27.6,16.4,45.1,40.4,45.1c29,0,34.9-21.7,36.8-28.6l-17.3-5.5
			c-2.2,9.7-7.7,18.7-19.6,18.7c-7.9,0-13.9-3.7-17.1-8.7c-3.7-5.7-4.7-14-4.7-22.3c0-5.7,0-30,22-30c9.2,0,16.5,5.2,18.7,14.9
			l17.7-4.2c-1.7-6.2-4-11.4-8.4-15.9c-9.8-9.7-22.2-10.2-27.1-10.2C340.5,267.6,328,289.5,328,314.2"/>
	</defs>
	<clipPath id="SVGID_2_">
		<use xlink:href="#SVGID_1_"  style="overflow:visible;"/>
	</clipPath>
	
		<linearGradient id="SVGID_3_" gradientUnits="userSpaceOnUse" x1="16.1335" y1="717.9521" x2="25.9011" y2="717.9521" gradientTransform="matrix(44.4858 0 0 -44.4858 -556.6532 32252.0742)">
		<stop  offset="0" style="stop-color:#0071B9"/>
		<stop  offset="0.2796" style="stop-color:#008CC7"/>
		<stop  offset="0.5323" style="stop-color:#00A0D1"/>
		<stop  offset="0.5807" style="stop-color:#06A1C9"/>
		<stop  offset="0.6553" style="stop-color:#17A5B3"/>
		<stop  offset="0.747" style="stop-color:#32AA90"/>
		<stop  offset="0.8522" style="stop-color:#58B25E"/>
		<stop  offset="0.9674" style="stop-color:#88BB20"/>
		<stop  offset="1" style="stop-color:#97BE0D"/>
	</linearGradient>
	<rect x="161.1" y="267.6" class="st1" width="434.5" height="91.6"/>
</g>
<g>
	<defs>
		<path id="SVGID_4_" d="M111.4,273C111.4,273,111.4,273,111.4,273L111.4,273L111.4,273z"/>
	</defs>
	<clipPath id="SVGID_5_">
		<use xlink:href="#SVGID_4_"  style="overflow:visible;"/>
	</clipPath>
	
		<linearGradient id="SVGID_6_" gradientUnits="userSpaceOnUse" x1="111.3862" y1="272.9659" x2="111.4059" y2="272.9659" gradientTransform="matrix(2.148400e-003 0 0 -2.148400e-003 327.9339 135.6568)">
		<stop  offset="0" style="stop-color:#0061AB"/>
		<stop  offset="0.4017" style="stop-color:#008BCF"/>
		<stop  offset="0.6319" style="stop-color:#009EE0"/>
		<stop  offset="0.6937" style="stop-color:#029EDD"/>
		<stop  offset="0.7454" style="stop-color:#0AA0D2"/>
		<stop  offset="0.7935" style="stop-color:#16A3C1"/>
		<stop  offset="0.8393" style="stop-color:#28A6A8"/>
		<stop  offset="0.8837" style="stop-color:#3EAB89"/>
		<stop  offset="0.9268" style="stop-color:#5AB162"/>
		<stop  offset="0.9683" style="stop-color:#7AB835"/>
		<stop  offset="1" style="stop-color:#97BE0D"/>
	</linearGradient>
	<rect x="111.4" y="273" class="st2" width="0" height="0"/>
</g>
<g>
	<g>
		<defs>
			<path id="SVGID_7_" d="M71,273L71,273C71,273,71,273,71,273L71,273z"/>
		</defs>
		<clipPath id="SVGID_8_">
			<use xlink:href="#SVGID_7_"  style="overflow:visible;"/>
		</clipPath>
		<g class="st3">
			<defs>
				<path id="SVGID_9_" d="M71,273L71,273z"/>
			</defs>
			<clipPath id="SVGID_10_">
				<use xlink:href="#SVGID_9_"  style="overflow:visible;"/>
			</clipPath>
			
				<linearGradient id="SVGID_11_" gradientUnits="userSpaceOnUse" x1="71.0158" y1="272.9615" x2="71.0158" y2="272.9615" gradientTransform="matrix(4.297000e-004 0 0 -4.297000e-004 323.8358 134.4156)">
				<stop  offset="0" style="stop-color:#0061AB"/>
				<stop  offset="0.4017" style="stop-color:#008BCF"/>
				<stop  offset="0.6319" style="stop-color:#009EE0"/>
				<stop  offset="0.6937" style="stop-color:#029EDD"/>
				<stop  offset="0.7454" style="stop-color:#0AA0D2"/>
				<stop  offset="0.7935" style="stop-color:#16A3C1"/>
				<stop  offset="0.8393" style="stop-color:#28A6A8"/>
				<stop  offset="0.8837" style="stop-color:#3EAB89"/>
				<stop  offset="0.9268" style="stop-color:#5AB162"/>
				<stop  offset="0.9683" style="stop-color:#7AB835"/>
				<stop  offset="1" style="stop-color:#97BE0D"/>
			</linearGradient>
			<path class="st4" d="M71,273L71,273z"/>
		</g>
	</g>
</g>
<g>
	<defs>
		<path id="SVGID_12_" d="M111.4,342.9L111.4,342.9L111.4,342.9C111.4,342.9,111.4,342.9,111.4,342.9"/>
	</defs>
	<clipPath id="SVGID_13_">
		<use xlink:href="#SVGID_12_"  style="overflow:visible;"/>
	</clipPath>
	
		<linearGradient id="SVGID_14_" gradientUnits="userSpaceOnUse" x1="111.3859" y1="342.8935" x2="111.4059" y2="342.8935" gradientTransform="matrix(1.503900e-003 0 0 -1.503900e-003 327.9472 142.3503)">
		<stop  offset="0" style="stop-color:#0061AB"/>
		<stop  offset="0.4017" style="stop-color:#008BCF"/>
		<stop  offset="0.6319" style="stop-color:#009EE0"/>
		<stop  offset="0.6937" style="stop-color:#029EDD"/>
		<stop  offset="0.7454" style="stop-color:#0AA0D2"/>
		<stop  offset="0.7935" style="stop-color:#16A3C1"/>
		<stop  offset="0.8393" style="stop-color:#28A6A8"/>
		<stop  offset="0.8837" style="stop-color:#3EAB89"/>
		<stop  offset="0.9268" style="stop-color:#5AB162"/>
		<stop  offset="0.9683" style="stop-color:#7AB835"/>
		<stop  offset="1" style="stop-color:#97BE0D"/>
	</linearGradient>
	<rect x="111.4" y="342.9" class="st5" width="0" height="0"/>
</g>
<g>
	<defs>
		<polygon id="SVGID_15_" points="131.6,307.9 131.6,307.9 131.6,307.9 		"/>
	</defs>
	<clipPath id="SVGID_16_">
		<use xlink:href="#SVGID_15_"  style="overflow:visible;"/>
	</clipPath>
	<g class="st6">
		<defs>
			<rect id="SVGID_17_" x="131.6" y="307.9" width="0" height="0"/>
		</defs>
		<clipPath id="SVGID_18_">
			<use xlink:href="#SVGID_17_"  style="overflow:visible;"/>
		</clipPath>
		
			<linearGradient id="SVGID_19_" gradientUnits="userSpaceOnUse" x1="131.5762" y1="307.9302" x2="131.5863" y2="307.9302" gradientTransform="matrix(6.445000e-004 0 0 -6.445000e-004 330.0315 138.1506)">
			<stop  offset="0" style="stop-color:#0061AB"/>
			<stop  offset="0.4017" style="stop-color:#008BCF"/>
			<stop  offset="0.6319" style="stop-color:#009EE0"/>
			<stop  offset="0.6937" style="stop-color:#029EDD"/>
			<stop  offset="0.7454" style="stop-color:#0AA0D2"/>
			<stop  offset="0.7935" style="stop-color:#16A3C1"/>
			<stop  offset="0.8393" style="stop-color:#28A6A8"/>
			<stop  offset="0.8837" style="stop-color:#3EAB89"/>
			<stop  offset="0.9268" style="stop-color:#5AB162"/>
			<stop  offset="0.9683" style="stop-color:#7AB835"/>
			<stop  offset="1" style="stop-color:#97BE0D"/>
		</linearGradient>
		<rect x="131.6" y="307.9" class="st7" width="0" height="0"/>
	</g>
</g>
<g>
	<defs>
		<path id="SVGID_20_" d="M71,267.6c-1.9,0-3.7,1-4.6,2.7l-11.4,19.8h5.9l9.4-16.4c0.2-0.3,0.5-0.6,0.8-0.8c0.3-0.2,0.7-0.3,1.1-0.3
			h38.2c0.4,0,0.8,0.1,1.1,0.3h0l0,0c0.3,0.2,0.6,0.4,0.8,0.8l19.1,33.1c0.2,0.3,0.3,0.7,0.3,1.1v0v0c0,0.4-0.1,0.7-0.3,1.1
			l-19.1,33.1c-0.2,0.3-0.4,0.6-0.8,0.8l0,0h0c-0.3,0.2-0.7,0.3-1.1,0.3H72.1c-0.4,0-0.7-0.1-1.1-0.3c-0.3-0.2-0.6-0.4-0.8-0.8
			l-9.7-16.7h-5.8l11.6,20.2c1,1.7,2.7,2.7,4.6,2.7h40.4c1.9,0,3.7-1,4.6-2.7l20.2-35c1-1.7,1-3.7,0-5.3l-20.2-35
			c-1-1.7-2.7-2.7-4.6-2.7H71z"/>
	</defs>
	<clipPath id="SVGID_21_">
		<use xlink:href="#SVGID_20_"  style="overflow:visible;"/>
	</clipPath>
	
		<linearGradient id="SVGID_22_" gradientUnits="userSpaceOnUse" x1="-9.4488" y1="703.7092" x2="0.319" y2="703.7092" gradientTransform="matrix(9.3639 0 0 -9.3639 133.9501 6897.418)">
		<stop  offset="0" style="stop-color:#0071B9"/>
		<stop  offset="0.3764" style="stop-color:#0090C9"/>
		<stop  offset="0.6319" style="stop-color:#00A0D1"/>
		<stop  offset="0.6927" style="stop-color:#03A1CE"/>
		<stop  offset="0.7458" style="stop-color:#0BA2C3"/>
		<stop  offset="0.7961" style="stop-color:#19A5B1"/>
		<stop  offset="0.8447" style="stop-color:#2CA998"/>
		<stop  offset="0.892" style="stop-color:#45AE77"/>
		<stop  offset="0.9384" style="stop-color:#64B44F"/>
		<stop  offset="0.9832" style="stop-color:#88BB20"/>
		<stop  offset="1" style="stop-color:#97BE0D"/>
	</linearGradient>
	<rect x="54.7" y="267.6" class="st8" width="82.4" height="80.6"/>
</g>
<path class="st9" d="M25.6,294.2h5.7l5,27h-5l-0.7-4.4h-4.6l-0.7,4.4h-5L25.6,294.2z M28.5,301.1l-1.8,11.6h3.4"/>
<g>
	<path class="st9" d="M37,311.7h5v3.1c0,1.6,0,3.1,2.4,3.1c2.5,0,2.5-1.6,2.5-4c0-1.9-0.4-2.7-1.7-3.6l-4.7-3.2
		c-2.5-1.7-3.2-3.6-3.2-6.3c0-2.1,0.2-4.1,1.9-5.6c1-0.8,2.8-1.6,5.4-1.6c2.9,0,6.9,1.2,6.9,5.8v2.7h-4.9v-2c0-1.3,0-2.8-2.2-2.8
		c-1.3,0-2.3,0.5-2.3,2.7c0,2.3,0.5,2.8,1.6,3.5l4.9,3.3c1,0.7,2,1.6,2.6,2.6c0.7,1.2,0.7,2.1,0.7,4.2c0,2.4,0,3.9-0.9,5.3
		c-1.5,2.4-4.6,2.7-6.4,2.7c-4.2,0-7.5-1.6-7.5-6.2V311.7z"/>
	<polygon class="st9" points="53.8,294.2 58.8,294.2 58.8,304.9 63.3,304.9 63.3,294.2 68.3,294.2 68.3,321.2 63.3,321.2 
		63.3,308.9 58.8,308.9 58.8,321.2 53.8,321.2 	"/>
	<path class="st9" d="M71,294.2h9.9c4.9,0,4.9,3.3,4.9,5.7v2.9c0,3.4-1.1,4.1-3.5,4.6c1.2,0.3,3.7,1,3.7,4.7v5.5
		c0,1.4,0.1,2.8,1.2,3.6h-5.5c-0.6-1-0.7-2.2-0.7-3v-5.8c0-1.8,0-3.1-2.6-3.1H76v11.9h-5V294.2z M76,305.5h2.6
		c2.3,0,2.3-1.2,2.3-2.6v-2.6c0-2.2-1.2-2.2-2.3-2.2H76V305.5z"/>
	<path class="st9" d="M91.9,294.2h5.7l5,27h-5l-0.7-4.4h-4.6l-0.7,4.4h-5L91.9,294.2z M92.9,312.7h3.4l-1.6-11.6L92.9,312.7z"/>
	<polygon class="st9" points="103.7,294.2 116.8,294.2 116.8,298.3 108.7,298.3 108.7,304.7 116.3,304.7 116.3,308.8 108.7,308.8 
		108.7,317.1 117.1,317.1 117.1,321.2 103.7,321.2 	"/>
	<path class="st9" d="M610.4,294.3c-5.2,0-9.9-4.1-9.9-9.9c0-5.7,4.6-9.9,9.9-9.9c5.6,0,10,4.3,10,10
		C620.4,289.7,616.2,294.3,610.4,294.3 M610.4,275.3c-4.9,0-9,4-9,9.1c0,5.1,4.1,9,9,9c5.2,0,9.1-4.2,9.1-9
		C619.5,279.4,615.6,275.3,610.4,275.3 M610.3,278c1.3,0,2.2,0,2.9,0.3c1.4,0.5,2,1.7,2,2.9c0,0.9-0.3,2.4-2.6,3
		c1.2,0.5,1.6,1.2,1.8,2.6c0.3,1.7,0.4,2.6,0.9,3.7h-2.5c-0.4-0.7-0.4-1.2-0.7-2.7c-0.4-2.6-0.6-2.9-3.7-2.9v5.6h-2.2V278H610.3z
		 M608.5,283.2h1.8c0.9,0,2.7,0,2.7-1.7c0-0.5-0.2-1.2-0.9-1.5c-0.4-0.2-0.8-0.2-2.2-0.2h-1.4V283.2z"/>
</g>
</svg>
