<svg width="55" height="55" viewBox="0 0 55 55" fill="none" xmlns="http://www.w3.org/2000/svg">
<g clip-path="url(#clip0_383_190)">
<path d="M28.9781 31.3088H35.9158C37.8889 31.3088 39.1385 30.2234 39.1385 28.4728C39.1385 26.8288 37.8889 25.6369 35.9158 25.6369H28.9781C28.7478 25.6369 28.551 25.8345 28.551 26.0322V30.8988C28.5836 31.1291 28.7486 31.2941 28.9781 31.2941V31.3088ZM28.9781 42.5219H36.1453C38.3487 42.5219 39.6635 41.4047 39.6635 39.4307C39.6635 37.712 38.414 36.3395 36.1453 36.3395H28.9781C28.7478 36.3395 28.551 36.5372 28.551 36.7348V42.0948C28.5836 42.3577 28.7486 42.5219 28.9781 42.5219ZM54.3614 0.137504L33.8438 20.5906H37.198C42.4264 20.5906 45.5167 23.8786 45.5167 27.4631C45.5167 30.299 43.6089 32.3615 41.5636 33.2827C41.2345 33.4142 41.2345 33.8843 41.5963 34.0063C43.9638 34.9259 45.6405 37.3923 45.6405 40.2866C45.6405 44.3635 42.9111 47.6188 37.6174 47.6188H23.0913C22.861 47.6188 22.6642 47.4212 22.6642 47.2235V31.7367L0.140879 54.1604C-0.154746 54.456 0.0420513 54.9828 0.47002 54.9828H54.6244C54.822 54.9828 54.9853 54.8109 54.9853 54.6219V0.433988C55.0842 0.0730505 54.6244 -0.124606 54.3606 0.138363L54.3614 0.137504Z" fill="#34313F"/>
</g>
<defs>
<clipPath id="clip0_383_190">
<rect width="55" height="55" fill="white"/>
</clipPath>
</defs>
</svg>
