<svg width="55" height="55" viewBox="0 0 55 55" fill="none" xmlns="http://www.w3.org/2000/svg">
<path d="M46.141 -0.0666199H8.96041C4.06001 -0.0666199 0.0874405 3.89965 0.0874405 8.79228V46.141C0.0874405 51.0336 4.06001 54.9999 8.96041 54.9999H46.141C51.0415 54.9999 55.014 51.0336 55.014 46.141V8.79228C55.014 3.89965 51.0415 -0.0666199 46.141 -0.0666199Z" fill="url(#paint0_linear_383_233)"/>
<path d="M27.9652 23.6395C29.3682 23.6395 30.4314 23.3396 31.1561 22.7257C31.8808 22.1119 32.2429 21.2179 32.2429 20.03C32.2429 18.8571 31.8808 17.966 31.1561 17.3569C30.4267 16.7323 29.3678 16.42 27.9652 16.42H23.0396V23.6399L27.9652 23.6395ZM28.2655 38.5591C30.0534 38.5591 31.3947 38.1864 32.2888 37.4397C33.1984 36.6935 33.6532 35.5664 33.6532 34.0585C33.6532 32.5806 33.2062 31.4767 32.312 30.7459C31.4178 29.9996 30.0693 29.6265 28.266 29.6265H23.04V38.5599H28.266M36.5438 26.2912C38.4553 26.8395 39.9351 27.8526 40.9833 29.3296C42.0315 30.8067 42.5554 32.6196 42.5558 34.7675C42.5558 38.0574 41.4304 40.5099 39.18 42.1245C36.9296 43.739 33.5078 44.5461 28.9139 44.5461H14.1387V10.4347H27.504C32.2978 10.4347 35.7664 11.1501 37.9087 12.5821C40.0668 14.0138 41.1459 16.3065 41.1459 19.4594C41.1459 21.1198 40.7529 22.536 39.9669 23.7089C39.1808 24.8664 38.0361 25.7223 36.5447 26.2907" fill="white"/>
<defs>
<linearGradient id="paint0_linear_383_233" x1="3.25605" y1="52.1443" x2="51.5557" y2="2.92306" gradientUnits="userSpaceOnUse">
<stop stop-color="#070135"/>
<stop offset="1" stop-color="#612D50"/>
</linearGradient>
</defs>
</svg>
