<svg xmlns="http://www.w3.org/2000/svg" width="50.43" height="50.662" viewBox="0 0 50.43 50.662">
  <g id="Group_105408" data-name="Group 105408" transform="translate(-8417.85 -7063)">
    <path id="Path_78332" data-name="Path 78332" d="M62.5,47.909A11.407,11.407,0,1,1,73.447,33.315H77.88a15.7,15.7,0,1,0,0,6.373H73.447A11.471,11.471,0,0,1,62.5,47.909" transform="translate(8380.655 7051.806)" fill="#435363"/>
    <path id="Path_78333" data-name="Path 78333" d="M64.2,67.687a10.746,10.746,0,0,0,7.666,3.187V66.347a6.326,6.326,0,0,1-4.48-1.847Z" transform="translate(8371.291 7028.288)" fill="#435363"/>
    <path id="Path_78334" data-name="Path 78334" d="M57.3,42.153a10.667,10.667,0,0,0,.924,4.387l4.156-1.847a5.99,5.99,0,0,1-.554-2.54,6.307,6.307,0,0,1,6.327-6.327V31.3A10.84,10.84,0,0,0,57.3,42.153" transform="translate(8375.005 7046.155)" fill="#f38b00"/>
    <path id="Path_78335" data-name="Path 78335" d="M87.416,32.9,85.8,37.1a6.335,6.335,0,0,1,3.187,2.725h4.941A11.021,11.021,0,0,0,87.416,32.9" transform="translate(8359.666 7045.293)" fill="#435363"/>
    <path id="Path_78336" data-name="Path 78336" d="M85.8,64.425l1.663,4.249A10.911,10.911,0,0,0,93.928,61.7H88.987A6.812,6.812,0,0,1,85.8,64.425" transform="translate(8359.666 7029.794)" fill="#f38b00"/>
    <path id="Path_78337" data-name="Path 78337" d="M31.219,60.842a3.459,3.459,0,0,1-.185-.739v-.046a3.847,3.847,0,0,0-.185-.693c-.046-.231-.092-.462-.139-.739,0-.092-.046-.185-.046-.277-.046-.139-.046-.323-.092-.462,0-.139-.046-.277-.046-.416a18.622,18.622,0,0,1-.185-2.771H26a22.5,22.5,0,0,0,.185,3.048v.046a5.089,5.089,0,0,1,.092.831c0,.092.046.139.046.231.046.231.092.462.139.647a1.087,1.087,0,0,0,.092.369,2.383,2.383,0,0,1,.092.508,1.641,1.641,0,0,1,.092.462c.046.139.046.277.092.416l.139.554c0,.092.046.139.046.231h0a21.326,21.326,0,0,0,1.062,2.863L32,63.2c-.277-.785-.554-1.57-.785-2.355Z" transform="translate(8391.85 7033.562)" fill="#435363"/>
    <path id="Path_78338" data-name="Path 78338" d="M53.3,46.32a21.138,21.138,0,0,1-14.871-6.142L35.38,43.226a25.281,25.281,0,0,0,43-14.732H74.035A20.952,20.952,0,0,1,53.3,46.32m0-42.025A20.86,20.86,0,0,1,65.86,8.5l2.586-3.464A25.083,25.083,0,0,0,53.3,0,25.388,25.388,0,0,0,29.7,16.117l4.018,1.57A20.993,20.993,0,0,1,53.3,4.295" transform="translate(8389.858 7063)" fill="#f38b00"/>
    <path id="Path_78339" data-name="Path 78339" d="M122.356,36.052H126.7A25.555,25.555,0,0,0,123.048,25.8L119.4,28.063a20.657,20.657,0,0,1,2.956,7.989" transform="translate(8341.583 7049.115)" fill="#435363"/>
    <path id="Path_78340" data-name="Path 78340" d="M103.468,29.433h4.341A20.629,20.629,0,0,0,94.97,13.5L93.4,17.472a16.181,16.181,0,0,1,10.068,11.961" transform="translate(8355.576 7055.734)" fill="#f38b00"/>
    <path id="Path_78341" data-name="Path 78341" d="M58.573,14.695V10.4h0A20.428,20.428,0,0,0,39.5,23.469l3.972,1.57a16.209,16.209,0,0,1,15.1-10.345" transform="translate(8384.584 7057.403)" fill="#435363"/>
    <path id="Path_78342" data-name="Path 78342" d="M40.695,54.8H36.4A20.593,20.593,0,0,0,49.285,73.827l1.57-3.972A16.329,16.329,0,0,1,40.695,54.8" transform="translate(8386.253 7033.507)" fill="#f38b00"/>
    <path id="Path_78343" data-name="Path 78343" d="M80.8,74.723v4.295A20.518,20.518,0,0,0,101.028,61.7H96.687A16.248,16.248,0,0,1,80.8,74.723" transform="translate(8362.357 7029.794)" fill="#435363"/>
  </g>
</svg>
