<svg xmlns="http://www.w3.org/2000/svg" width="35.506" height="36.021" viewBox="0 0 35.506 36.021">
  <g id="circleci-seeklogo.com" transform="translate(-0.835)">
    <circle id="Ellipse_521" data-name="Ellipse 521" cx="4.271" cy="4.271" r="4.271" transform="translate(14.06 13.739)" fill="#343434"/>
    <path id="Path_78387" data-name="Path 78387" d="M.887,13.482c0,.051-.051.154-.051.206a.867.867,0,0,0,.875.875H8.965a.843.843,0,0,0,.772-.515,9.391,9.391,0,1,1,0,7.873.817.817,0,0,0-.772-.566H1.71a.867.867,0,0,0-.875.875.309.309,0,0,0,.051.206,17.959,17.959,0,1,0,0-8.954Z" transform="translate(0)" fill="#343434"/>
  </g>
</svg>
