<svg width="55" height="55" viewBox="0 0 55 55" fill="none" xmlns="http://www.w3.org/2000/svg">
<path d="M19.7607 38.2101C16.8478 35.4685 15.1343 31.6989 15.1343 27.4153C15.1343 23.1317 16.8478 19.3621 19.5893 16.6205C21.9882 14.2217 21.9882 10.4521 19.5893 8.05325C17.1905 5.65441 13.4209 5.65441 11.022 8.05325C6.22436 13.0223 3.14014 19.8761 3.14014 27.4153C3.14014 34.9545 6.22436 41.8083 11.1934 46.7774C13.5922 49.1762 17.3618 49.1762 19.7607 46.7774C21.9882 44.3785 21.9882 40.6089 19.7607 38.2101Z" fill="#FAE501"/>
<path d="M19.7607 16.6205C22.5022 13.7077 26.2718 11.9942 30.5554 11.9942C34.8391 11.9942 38.6087 13.7077 41.3502 16.4492C43.7491 18.848 47.5187 18.848 49.9175 16.4492C52.3163 14.0503 52.3163 10.2807 49.9175 7.8819C44.9485 3.08423 38.0947 3.8147e-06 30.5554 3.8147e-06C23.0162 3.8147e-06 16.1624 3.08423 11.1934 8.05325C8.79455 10.4521 8.79455 14.2217 11.1934 16.6205C13.5922 18.848 17.3618 18.848 19.7607 16.6205Z" fill="#4FB5E1"/>
<path d="M41.3502 38.2101C38.6087 41.123 34.8391 42.8364 30.5554 42.8364C26.2718 42.8364 22.5022 41.123 19.7607 38.3814C17.3618 35.9826 13.5922 35.9826 11.1934 38.3814C8.79455 40.7803 8.79455 44.5499 11.1934 46.9487C16.1624 51.7464 23.0162 54.8306 30.5554 54.8306C38.0947 54.8306 44.9485 51.7464 49.9175 46.7774C52.3163 44.3785 52.3163 40.6089 49.9175 38.2101C47.5187 35.9826 43.7491 35.9826 41.3502 38.2101Z" fill="#F05751"/>
<path d="M15.477 18.334C18.7891 18.334 21.4741 15.649 21.4741 12.3369C21.4741 9.02478 18.7891 6.33979 15.477 6.33979C12.1649 6.33979 9.47993 9.02478 9.47993 12.3369C9.47993 15.649 12.1649 18.334 15.477 18.334Z" fill="#0681B6"/>
<path d="M15.477 48.4908C18.7891 48.4908 21.4741 45.8058 21.4741 42.4937C21.4741 39.1816 18.7891 36.4966 15.477 36.4966C12.1649 36.4966 9.47993 39.1816 9.47993 42.4937C9.47993 45.8058 12.1649 48.4908 15.477 48.4908Z" fill="#CD4739"/>
</svg>
