<svg width="55" height="55" viewBox="0 0 55 55" fill="none" xmlns="http://www.w3.org/2000/svg">
<path d="M27.9976 3.00001C22.5237 3.01306 17.2504 5.06169 13.2033 8.74742C9.15616 12.4331 6.62464 17.4924 6.10112 22.9413C5.5776 28.3901 7.09951 33.8388 10.3708 38.2277C13.6421 42.6166 18.429 45.6318 23.8002 46.6869V53C36.9575 51.01 48.617 40.5335 49.4863 26.7794C50.0102 18.5009 45.8939 10.0485 38.9522 5.9463C38.5552 5.71135 38.1511 5.47639 37.7352 5.27316C37.3193 5.06993 36.8765 4.86082 36.4336 4.68578C36.2938 4.62705 36.1552 4.56831 36.0142 4.51779C35.6277 4.37447 35.2388 4.21353 34.8394 4.09723C32.6321 3.36847 30.3222 2.99804 27.9976 3.00001Z" fill="#00A818"/>
<path d="M32.5545 11.1493C32.1617 11.1061 31.7642 11.1604 31.3974 11.3076C31.0306 11.4547 30.7058 11.6901 30.4517 11.9928C30.0933 12.4965 29.7834 13.033 29.526 13.5951C29.1263 14.4698 28.9776 15.4383 29.0965 16.3925C29.2153 17.3467 29.5971 18.2492 30.1991 18.999C31.1453 18.8092 32.0308 18.391 32.7785 17.7808C33.5262 17.1707 34.1135 16.3871 34.4893 15.4982C34.7554 14.9449 34.8989 14.3406 34.9099 13.7267C34.9253 13.0777 34.6895 12.4479 34.2517 11.9686C33.814 11.4892 33.2081 11.1974 32.5604 11.154L32.5545 11.1493ZM22.7559 11.2762C22.1257 11.3184 21.533 11.5911 21.0909 12.0421C20.6487 12.4932 20.3879 13.0911 20.3582 13.722C20.3692 14.3359 20.5127 14.9402 20.7787 15.4935C21.1805 16.3882 21.7913 17.1732 22.5598 17.7824C23.3283 18.3916 24.232 18.8073 25.1947 18.9943C25.9048 17.9694 26.2531 16.7371 26.1846 15.4921C26.1161 14.2471 25.6347 13.0604 24.8164 12.1196C24.5688 11.8204 24.2512 11.5869 23.8918 11.4398C23.5324 11.2927 23.1422 11.2365 22.7559 11.2762ZM16.1526 17.7737C15.6747 17.7945 15.2149 17.9621 14.8358 18.2537C14.4567 18.5453 14.1768 18.9468 14.0342 19.4033C13.8916 19.8599 13.8933 20.3493 14.0391 20.8048C14.1848 21.2603 14.4675 21.6598 14.8486 21.9488C15.35 22.3209 15.8849 22.6458 16.4462 22.9192C17.3647 23.3021 18.3634 23.4523 19.3538 23.3566C20.3442 23.2609 21.2957 22.9222 22.1238 22.3706C21.8777 21.4393 21.4192 20.5778 20.7843 19.8534C20.1495 19.129 19.3554 18.5616 18.4645 18.1955C17.8689 17.9277 17.2249 17.7842 16.5719 17.7737C16.432 17.7617 16.2925 17.7617 16.1526 17.7737ZM36.8858 25.9548C35.6469 25.9326 34.4303 26.2856 33.3956 26.9674C33.6418 27.8986 34.1002 28.7602 34.7351 29.4846C35.37 30.2089 36.1641 30.7764 37.055 31.1425C37.6506 31.4102 38.2946 31.5537 38.9475 31.5642C39.4582 31.6178 39.9725 31.5042 40.4132 31.2406C40.8539 30.977 41.1972 30.5776 41.3915 30.1023C41.5859 29.627 41.6208 29.1015 41.4911 28.6047C41.3614 28.1078 41.074 27.6665 40.6721 27.3468C40.17 26.9877 39.6351 26.677 39.0744 26.4188C38.3823 26.1237 37.6382 25.966 36.8858 25.9548ZM18.5068 26.0816C17.7544 26.0929 17.0115 26.2505 16.3194 26.5457C15.726 26.7563 15.1822 27.0866 14.7217 27.516C14.339 27.8524 14.0736 28.3022 13.9642 28.7999C13.8548 29.2975 13.9072 29.8171 14.1137 30.283C14.3201 30.7489 14.6699 31.1366 15.112 31.3899C15.5542 31.6432 16.0657 31.7487 16.5719 31.6911C17.2265 31.6953 17.8736 31.5511 18.4645 31.2694C19.3488 30.9205 20.1315 30.3556 20.7412 29.6263C21.3509 28.8969 21.7681 28.0264 21.9547 27.0943C20.9352 26.4128 19.7328 26.0594 18.5068 26.0816ZM25.3204 30.2144C24.3742 30.4043 23.4887 30.8225 22.741 31.4326C21.9933 32.0427 21.406 32.8263 21.0301 33.7152C20.7645 34.2537 20.6209 34.8441 20.6096 35.4444C20.5964 35.9521 20.738 36.4518 21.0156 36.8771C21.2932 37.3024 21.6937 37.6331 22.1637 37.8254C22.6338 38.0176 23.1512 38.0623 23.6473 37.9535C24.1433 37.8446 24.5945 37.5874 24.9409 37.216C25.2993 36.7122 25.6092 36.1757 25.8666 35.6136C26.2462 34.7415 26.3952 33.7866 26.2996 32.8403C26.2039 31.894 25.8667 30.9882 25.3204 30.2097V30.2144ZM30.3248 30.3413C29.6147 31.3662 29.2663 32.5985 29.3348 33.8435C29.4033 35.0885 29.8848 36.2752 30.7031 37.216C32.1833 38.836 35.2952 37.6377 35.1613 35.6136C35.1503 34.9997 35.0068 34.3954 34.7407 33.8421C34.339 32.9475 33.7281 32.1625 32.9596 31.5532C32.1911 30.944 31.2875 30.5284 30.3248 30.3413Z" fill="white"/>
</svg>
