<svg width="55" height="55" viewBox="0 0 55 55" fill="none" xmlns="http://www.w3.org/2000/svg">
<path d="M31.4458 21.737H36.3128V26.713H38.7868C39.9389 26.7003 41.082 26.5097 42.1758 26.148C42.749 25.9581 43.2994 25.7052 43.8168 25.394C43.1401 24.4783 42.7472 23.384 42.6868 22.247C42.4822 20.5938 42.9047 18.924 43.8708 17.567L44.3838 16.976L45.0028 17.46C46.6153 18.6494 47.7122 20.4103 48.0688 22.382C49.9491 21.8097 51.9794 22.003 53.7178 22.92L54.3908 23.296L54.0368 24C52.6648 26.69 49.7598 27.524 46.9628 27.389C42.7368 37.9 33.5678 42.879 22.4048 42.879C16.6488 42.879 11.3758 40.727 8.36384 35.616L8.30984 35.535L7.87984 34.647C6.88923 32.3908 6.49992 29.9164 6.74984 27.465L6.83084 26.739H10.9998V21.739H15.8688V16.869H25.6058V12H31.4448L31.4458 21.737Z" fill="#364548"/>
<path d="M47.2341 23.593C47.5571 21.065 45.6471 19.047 44.4911 18.106C43.1191 19.664 42.9331 23.782 45.0561 25.53C43.2453 26.8724 41.043 27.5816 38.7891 27.548H7.53207C7.26639 30.0407 7.71409 32.5577 8.82307 34.806L9.17507 35.451C9.39007 35.827 9.65907 36.205 9.90107 36.551C11.1924 36.6316 12.3761 36.6586 13.4521 36.632C15.2102 36.6398 16.9598 36.3857 18.6431 35.878C18.6914 35.8595 18.7429 35.851 18.7946 35.853C18.8462 35.8549 18.8969 35.8673 18.9437 35.8895C18.9904 35.9116 19.0322 35.9429 19.0665 35.9816C19.1008 36.0203 19.1269 36.0655 19.1433 36.1146C19.1596 36.1636 19.1659 36.2155 19.1616 36.267C19.1574 36.3185 19.1428 36.3687 19.1187 36.4144C19.0945 36.4601 19.0614 36.5005 19.0213 36.5331C18.9811 36.5656 18.9348 36.5898 18.8851 36.604C18.6971 36.658 18.5331 36.712 18.3471 36.765C17.1782 37.0843 15.9795 37.2827 14.7701 37.357H14.5231C13.9581 37.384 13.3391 37.384 12.7231 37.384C12.0501 37.384 11.3781 37.384 10.6231 37.33H10.5961C13.2051 40.262 17.2671 42.01 22.3771 42.01C33.1631 42.01 42.3361 37.222 46.3971 26.489C49.2751 26.789 52.0461 26.059 53.3101 23.584C52.3629 23.1238 51.3236 22.8847 50.2706 22.8847C49.2175 22.8847 48.1782 23.1238 47.2311 23.584" fill="#22A0C8"/>
<path d="M47.2341 23.593C47.5571 21.065 45.6471 19.047 44.4911 18.106C43.1191 19.664 42.9331 23.782 45.0561 25.53C43.2453 26.8724 41.043 27.5816 38.7891 27.548H9.38908C9.25408 31.637 10.7891 34.757 13.4781 36.64C15.2363 36.6478 16.9858 36.3937 18.6691 35.886C18.764 35.8589 18.8657 35.8694 18.9529 35.9155C19.0402 35.9615 19.1064 36.0395 19.1376 36.1331C19.1688 36.2267 19.1626 36.3288 19.1205 36.418C19.0783 36.5072 19.0033 36.5767 18.9111 36.612C18.7231 36.666 18.5591 36.72 18.3731 36.773C17.169 37.1039 15.9342 37.3113 14.6881 37.392L14.6611 37.365C18.3461 39.248 23.6721 39.248 29.7781 36.908C36.7497 34.096 42.8486 29.4815 47.4501 23.537C47.3753 23.5389 47.3019 23.5573 47.2351 23.591" fill="#37B1D9"/>
<path d="M7.58594 30.802C7.77269 32.1976 8.19111 33.5522 8.82394 34.81L9.17594 35.455C9.39094 35.831 9.65994 36.209 9.90194 36.555C11.1933 36.6357 12.3769 36.6627 13.4529 36.636C15.2111 36.6439 16.9607 36.3898 18.6439 35.882C18.6922 35.8635 18.7438 35.855 18.7954 35.857C18.8471 35.859 18.8978 35.8714 18.9446 35.8935C18.9913 35.9156 19.0331 35.9469 19.0674 35.9856C19.1017 36.0243 19.1278 36.0695 19.1441 36.1186C19.1605 36.1676 19.1667 36.2195 19.1625 36.271C19.1583 36.3226 19.1437 36.3727 19.1195 36.4184C19.0954 36.4642 19.0623 36.5045 19.0221 36.5371C18.982 36.5697 18.9357 36.5938 18.8859 36.608C18.6979 36.662 18.5339 36.716 18.3479 36.769C17.1542 37.1009 15.9274 37.2994 14.6899 37.361H14.5019C13.9369 37.388 13.3459 37.415 12.7019 37.415C12.0289 37.415 11.3299 37.415 10.5769 37.361C13.1859 40.293 17.2769 42.041 22.3859 42.041C31.6389 42.041 39.6859 38.541 44.3349 30.771H7.58594" fill="#1B81A5"/>
<path d="M9.68408 30.8008C10.158 33.1659 11.5264 35.2568 13.5041 36.6378C15.2623 36.6457 17.0118 36.3915 18.6951 35.8838C18.7434 35.8653 18.7949 35.8568 18.8466 35.8588C18.8982 35.8608 18.949 35.8732 18.9957 35.8953C19.0424 35.9174 19.0842 35.9487 19.1185 35.9874C19.1528 36.0261 19.1789 36.0713 19.1953 36.1204C19.2116 36.1694 19.2179 36.2213 19.2136 36.2728C19.2094 36.3243 19.1948 36.3745 19.1707 36.4202C19.1466 36.4659 19.1134 36.5063 19.0733 36.5389C19.0331 36.5715 18.9868 36.5956 18.9371 36.6098C18.7491 36.6638 18.5851 36.7178 18.3991 36.7708C17.1961 37.1025 15.9604 37.301 14.7141 37.3628C18.3991 39.2458 23.6981 39.2188 29.8041 36.8788C33.573 35.3976 37.0929 33.3478 40.2411 30.8008H9.68408Z" fill="#1D91B4"/>
<path d="M11.7822 22.5708H16.0042V26.7928H11.7822V22.5708ZM12.1342 22.9228H12.4572V26.4468H12.1342V22.9228ZM12.7532 22.9228H13.1052V26.4468H12.7532V22.9228ZM13.3982 22.9228H13.7502V26.4468H13.3982V22.9228ZM14.0442 22.9228H14.3962V26.4468H14.0442V22.9228ZM14.6892 22.9228H15.0412V26.4468H14.6892V22.9228ZM15.3342 22.9228H15.6572V26.4468H15.3342V22.9228Z" fill="#23A3C2"/>
<path d="M16.6499 17.6748H20.8719V21.8968H16.6499V17.6748ZM17.0019 18.0508H17.3249V21.5748H17.0019V18.0508ZM17.6469 18.0508H17.9989V21.5748H17.6499L17.6469 18.0508ZM18.2659 18.0508H18.6179V21.5748H18.2659V18.0508ZM18.9109 18.0508H19.2629V21.5748H18.9109V18.0508ZM19.5559 18.0508H19.9079V21.5748H19.5559V18.0508ZM20.2009 18.0508H20.5239V21.5748H20.2009V18.0508Z" fill="#23A3C2"/>
<path d="M16.6499 22.5708H20.8719V26.7928H16.6499V22.5708ZM17.0019 22.9228H17.3249V26.4468H17.0019V22.9228ZM17.6469 22.9228H17.9989V26.4468H17.6499L17.6469 22.9228ZM18.2659 22.9228H18.6179V26.4468H18.2659V22.9228ZM18.9119 22.9228H19.2639V26.4468H18.9119V22.9228ZM19.5569 22.9228H19.9089V26.4468H19.5569V22.9228ZM20.2019 22.9228H20.5249V26.4468H20.2019V22.9228Z" fill="#34BBDE"/>
<path d="M21.519 22.5708H25.741V26.7928H21.519V22.5708ZM21.871 22.9228H22.194V26.4468H21.871V22.9228ZM22.516 22.9228H22.868V26.4468H22.519L22.516 22.9228ZM23.161 22.9228H23.513V26.4468H23.161V22.9228ZM23.78 22.9228H24.132V26.4468H23.78V22.9228ZM24.425 22.9228H24.777V26.4468H24.425V22.9228ZM25.07 22.9228H25.393V26.4468H25.07V22.9228Z" fill="#23A3C2"/>
<path d="M21.519 17.6748H25.741V21.8968H21.519V17.6748ZM21.871 18.0508H22.194V21.5748H21.871V18.0508ZM22.516 18.0508H22.868V21.5748H22.519L22.516 18.0508ZM23.161 18.0508H23.513V21.5748H23.161V18.0508ZM23.78 18.0508H24.132V21.5748H23.78V18.0508ZM24.425 18.0508H24.777V21.5748H24.425V18.0508ZM25.07 18.0508H25.393V21.5748H25.07V18.0508Z" fill="#34BBDE"/>
<path d="M26.415 22.5708H30.637V26.7928H26.415V22.5708ZM26.767 22.9228H27.09V26.4468H26.767V22.9228ZM27.386 22.9228H27.738V26.4468H27.386V22.9228ZM28.031 22.9228H28.383V26.4468H28.031V22.9228ZM28.676 22.9228H29.028V26.4468H28.676V22.9228ZM29.295 22.9228H29.647V26.4468H29.295V22.9228ZM29.94 22.9228H30.263V26.4468H29.94V22.9228Z" fill="#34BBDE"/>
<path d="M26.415 17.6748H30.637V21.8968H26.415V17.6748ZM26.767 18.0508H27.09V21.5748H26.767V18.0508ZM27.386 18.0508H27.738V21.5748H27.386V18.0508ZM28.031 18.0508H28.383V21.5748H28.031V18.0508ZM28.676 18.0508H29.028V21.5748H28.676V18.0508ZM29.295 18.0508H29.647V21.5748H29.295V18.0508ZM29.94 18.0508H30.263V21.5748H29.94V18.0508Z" fill="#23A3C2"/>
<path d="M26.415 12.8062H30.637V17.0282H26.415V12.8062ZM26.767 13.1582H27.09V16.6812H26.767V13.1582ZM27.386 13.1582H27.738V16.6812H27.386V13.1582ZM28.031 13.1582H28.383V16.6812H28.031V13.1582ZM28.676 13.1582H29.028V16.6812H28.676V13.1582ZM29.295 13.1582H29.647V16.6812H29.295V13.1582ZM29.94 13.1582H30.263V16.6812H29.94V13.1582Z" fill="#34BBDE"/>
<path d="M31.2832 22.5708H35.5052V26.7928H31.2832V22.5708ZM31.6352 22.9228H31.9582V26.4468H31.6352V22.9228ZM32.2542 22.9228H32.6062V26.4468H32.2542V22.9228ZM32.8992 22.9228H33.2512V26.4468H32.8992V22.9228ZM33.5442 22.9228H33.8962V26.4468H33.5442V22.9228ZM34.1892 22.9228H34.5412V26.4468H34.1892V22.9228ZM34.8082 22.9228H35.1312V26.4468H34.8082V22.9228Z" fill="#23A3C2"/>
<path d="M20.6042 33.626C20.8694 33.6279 21.1258 33.7217 21.3298 33.8913C21.5337 34.0609 21.6726 34.2959 21.7229 34.5563C21.7732 34.8167 21.7318 35.0865 21.6057 35.3199C21.4795 35.5532 21.2765 35.7357 21.031 35.8362C20.7856 35.9368 20.5129 35.9493 20.2593 35.8715C20.0057 35.7938 19.7868 35.6307 19.6399 35.4098C19.493 35.189 19.4271 34.9241 19.4534 34.6601C19.4797 34.3962 19.5966 34.1495 19.7842 33.962C19.8921 33.8548 20.02 33.7699 20.1607 33.7123C20.3014 33.6546 20.4521 33.6253 20.6042 33.626Z" fill="#D3ECEC"/>
<path d="M20.6052 33.9751C20.7074 33.9771 20.8087 33.9954 20.9052 34.0291C20.852 34.0578 20.8083 34.1016 20.7797 34.1549C20.7511 34.2083 20.7387 34.2688 20.7442 34.3291C20.7453 34.4221 20.7827 34.5111 20.8485 34.5769C20.9143 34.6426 21.0032 34.6801 21.0962 34.6811C21.1589 34.6814 21.2204 34.6639 21.2735 34.6306C21.3266 34.5973 21.3691 34.5496 21.3962 34.4931C21.4402 34.5948 21.4587 34.7056 21.4502 34.8161C21.4498 34.9809 21.4006 35.1419 21.3088 35.2787C21.217 35.4155 21.0868 35.5221 20.9345 35.585C20.7821 35.6479 20.6146 35.6642 20.453 35.632C20.2914 35.5997 20.143 35.5203 20.0265 35.4038C19.91 35.2873 19.8306 35.1389 19.7984 34.9773C19.7661 34.8157 19.7824 34.6482 19.8453 34.4959C19.9082 34.3436 20.0148 34.2133 20.1516 34.1215C20.2885 34.0297 20.4494 33.9805 20.6142 33.9801" fill="#364548"/>
<path d="M0 31.2342H54.228C53.044 30.9342 50.489 30.5342 50.92 28.9722C48.768 31.4472 43.604 30.7202 42.286 29.4832C40.833 31.5832 32.36 30.8012 31.769 29.1602C29.94 31.3122 24.291 31.3122 22.462 29.1602C21.87 30.8012 13.397 31.6082 11.945 29.4832C10.627 30.7212 5.461 31.4472 3.311 28.9722C3.741 30.5052 1.186 30.9092 0.002 31.2342" fill="#364548"/>
<path d="M23.7263 42.045C21.3414 41.0249 19.4296 39.142 18.3733 36.7729C17.1155 37.1059 15.8259 37.3043 14.5263 37.365C13.9613 37.392 13.3703 37.419 12.7513 37.419C12.0253 37.419 11.2723 37.392 10.4893 37.365C13.1253 40.001 16.3803 42.045 22.4323 42.072C22.8323 42.045 23.2663 42.045 23.7233 42.045" fill="#BDD9D7"/>
<path d="M19.421 38.656C18.9942 38.0699 18.6337 37.4384 18.346 36.7729C17.0883 37.1059 15.7987 37.3043 14.499 37.365C16.035 38.125 17.7097 38.5643 19.421 38.656Z" fill="#D3ECEC"/>
</svg>
