<svg width="55" height="55" viewBox="0 0 55 55" fill="none" xmlns="http://www.w3.org/2000/svg">
<path d="M39.4744 10.2267C36.667 8.47692 34.0171 7.789 31.3684 6.0404C29.7253 4.9282 27.4476 2.27833 25.539 0C25.1686 3.65539 24.0558 5.13913 22.7842 6.1992C20.0816 8.31873 18.3858 8.95514 16.0547 10.2273C14.094 11.2335 3.44357 17.5915 3.44357 31.2615C3.44357 44.9333 14.9419 55 27.7112 55C40.4824 55 51.5565 45.7273 51.5565 31.6857C51.5565 17.6442 41.1709 11.2862 39.4744 10.2267ZM39.7817 50.0136C39.5163 50.2791 37.0785 51.9737 34.2177 52.2392C31.3557 52.5047 27.4882 52.6635 25.1565 50.5439C24.7862 50.173 24.8923 49.6433 25.1565 49.4318C25.422 49.219 25.6341 49.0602 25.9517 49.0602C26.2693 49.0602 26.2172 49.0602 26.376 49.1663C27.4349 50.0136 29.0247 50.7027 32.4158 50.7027C35.8081 50.7027 38.1919 49.7487 39.2508 48.9541C39.729 48.5832 39.9399 48.9014 39.9927 49.1135C40.046 49.3251 40.1521 49.6427 39.7817 50.0136ZM30.5078 45.1915C31.0915 44.6617 32.0455 43.8144 32.9455 43.4429C33.8456 43.0725 34.3238 43.1253 35.1711 43.1253C36.0185 43.1253 36.9191 43.1774 37.5561 43.6023C38.1919 44.0253 38.5629 44.9793 38.7744 45.5097C38.9865 46.0394 38.7744 46.3564 38.3513 46.5685C37.9804 46.7813 37.9271 46.6746 37.5561 45.9867C37.1852 45.2969 36.8664 44.6084 35.0123 44.6084C33.1571 44.6084 32.5752 45.2448 31.6739 45.9867C30.7733 46.7285 30.4557 46.9934 30.1381 46.5685C29.8199 46.1455 29.9253 45.7212 30.5078 45.1915ZM44.5505 45.6157C42.6431 45.4569 38.8271 39.522 36.3894 39.4159C33.3171 39.3099 26.6397 45.8273 21.3945 45.8273C18.2161 45.8273 17.2615 45.3509 16.202 44.6617C14.6122 43.5489 13.8176 41.8531 13.8703 39.522C13.9243 35.389 17.7918 31.5209 22.6661 31.4675C28.8659 31.416 33.1577 37.6152 36.2845 37.5619C38.9338 37.5091 44.0208 32.3167 46.5107 32.3167C49.1599 32.3167 49.903 35.072 49.903 36.7145C49.903 38.3571 49.3721 41.3239 48.1005 43.178C46.8283 45.0327 46.0337 45.7212 44.5505 45.6157Z" fill="#0073BA"/>
</svg>
