<svg xmlns="http://www.w3.org/2000/svg" xmlns:xlink="http://www.w3.org/1999/xlink" width="103" zoomAndPan="magnify" viewBox="0 0 77.25 45.749999" height="61" preserveAspectRatio="xMidYMid meet" version="1.0"><path fill="#0f2632" d="M 16.433594 8.394531 L 21.59375 8.394531 L 21.59375 14.109375 L 16.433594 14.109375 Z M 16.433594 8.394531 " fill-opacity="1" fill-rule="nonzero"/><path fill="#0f2632" d="M 25.996094 38.902344 L 21.589844 38.902344 L 21.589844 18.992188 C 21.589844 18.273438 21.019531 17.652344 20.253906 17.652344 L 14.894531 17.652344 L 14.894531 23.003906 L 16.289062 23.003906 L 16.289062 38.898438 L 12.058594 38.898438 L 12.058594 44.199219 L 30.550781 44.199219 C 28.582031 42.902344 26.992188 41.066406 25.996094 38.902344 " fill-opacity="1" fill-rule="nonzero"/><path fill="#0f2632" d="M 75.414062 23.003906 L 75.414062 17.65625 L 66.152344 17.65625 L 66.152344 8.394531 L 60.851562 8.394531 L 60.851562 17.65625 L 51.875 17.65625 C 53.859375 18.96875 55.453125 20.820312 56.453125 23.003906 L 60.851562 23.003906 L 60.851562 33.605469 C 60.851562 39.429688 65.625 44.203125 71.453125 44.203125 L 75.414062 44.203125 L 75.414062 38.90625 L 71.453125 38.90625 C 68.539062 38.90625 66.152344 36.515625 66.152344 33.605469 L 66.152344 23.003906 Z M 75.414062 23.003906 " fill-opacity="1" fill-rule="nonzero"/><path fill="#0f2632" d="M 43.871094 17.65625 L 38.570312 17.65625 C 32.746094 17.65625 27.972656 22.429688 27.972656 28.304688 L 27.972656 33.601562 C 27.972656 39.425781 32.746094 44.203125 38.570312 44.203125 L 43.871094 44.203125 C 49.695312 44.203125 54.46875 39.425781 54.46875 33.601562 L 54.46875 28.304688 C 54.46875 22.429688 49.695312 17.65625 43.871094 17.65625 M 49.167969 33.601562 C 49.167969 36.515625 46.78125 38.902344 43.867188 38.902344 L 38.570312 38.902344 C 35.65625 38.902344 33.273438 36.515625 33.273438 33.601562 L 33.273438 28.304688 C 33.273438 25.390625 35.660156 23.003906 38.570312 23.003906 L 43.871094 23.003906 C 46.785156 23.003906 49.171875 25.390625 49.171875 28.304688 L 49.171875 33.601562 Z M 49.167969 33.601562 " fill-opacity="1" fill-rule="nonzero"/><path fill="#0f2632" d="M 3.234375 41.113281 C 3.234375 39.308594 4.15625 38.40625 5.996094 38.40625 C 6.242188 38.40625 6.488281 38.425781 6.730469 38.457031 L 6.730469 42.402344 C 7.570312 42.402344 7.988281 41.789062 7.988281 40.558594 C 7.988281 39.957031 7.933594 39.355469 7.820312 38.757812 L 9.007812 38.757812 C 9.121094 39.28125 9.175781 39.917969 9.175781 40.667969 C 9.175781 42.820312 8.164062 43.898438 6.136719 43.898438 C 4.203125 43.902344 3.234375 42.972656 3.234375 41.113281 Z M 5.691406 42.402344 L 5.691406 39.867188 L 5.644531 39.867188 C 4.824219 39.867188 4.414062 40.28125 4.414062 41.113281 C 4.410156 41.90625 4.839844 42.335938 5.691406 42.402344 Z M 5.691406 42.402344 " fill-opacity="1" fill-rule="nonzero"/><path fill="#0f2632" d="M 9.007812 32.894531 C 9.121094 33.382812 9.175781 33.894531 9.175781 34.421875 C 9.175781 36.535156 8.148438 37.589844 6.089844 37.589844 C 4.183594 37.589844 3.230469 36.535156 3.230469 34.421875 C 3.230469 33.894531 3.289062 33.382812 3.398438 32.894531 L 4.589844 32.894531 C 4.476562 33.382812 4.421875 33.855469 4.421875 34.308594 C 4.421875 35.5 4.976562 36.09375 6.089844 36.09375 C 7.355469 36.09375 7.988281 35.5 7.988281 34.308594 C 7.988281 33.859375 7.933594 33.386719 7.820312 32.894531 Z M 9.007812 32.894531 " fill-opacity="1" fill-rule="nonzero"/><path fill="#0f2632" d="M 1.082031 30.40625 L 9.175781 30.40625 L 9.175781 31.90625 L 1.082031 31.90625 Z M 1.082031 30.40625 " fill-opacity="1" fill-rule="nonzero"/><path fill="#0f2632" d="M 1.082031 27.488281 L 2.273438 27.488281 L 2.273438 28.988281 L 1.082031 28.988281 Z M 3.234375 27.488281 L 9.175781 27.488281 L 9.175781 28.988281 L 3.234375 28.988281 Z M 3.234375 27.488281 " fill-opacity="1" fill-rule="nonzero"/><path fill="#0f2632" d="M 3.480469 26.074219 C 3.316406 25.285156 3.238281 24.449219 3.238281 23.574219 C 3.238281 21.554688 4.179688 20.542969 6.0625 20.542969 C 8.140625 20.542969 9.179688 21.484375 9.179688 23.363281 C 9.179688 23.761719 9.085938 24.167969 8.898438 24.574219 L 11.332031 24.574219 L 11.332031 26.078125 L 3.480469 26.078125 Z M 7.625 24.574219 C 7.832031 24.199219 7.933594 23.796875 7.933594 23.367188 C 7.933594 22.472656 7.304688 22.023438 6.046875 22.023438 C 4.980469 22.023438 4.445312 22.519531 4.445312 23.507812 C 4.445312 23.933594 4.472656 24.289062 4.523438 24.570312 L 7.625 24.570312 Z M 7.625 24.574219 " fill-opacity="1" fill-rule="nonzero"/><path fill="#0f2632" d="M 8.894531 19.410156 L 7.648438 19.410156 C 7.914062 18.753906 8.046875 17.988281 8.046875 17.125 C 8.046875 16.476562 7.839844 16.15625 7.421875 16.15625 C 7.027344 16.15625 6.828125 16.371094 6.828125 16.804688 L 6.828125 17.882812 C 6.828125 19.085938 6.234375 19.695312 5.042969 19.695312 C 3.800781 19.695312 3.175781 18.8125 3.175781 17.050781 C 3.175781 16.304688 3.289062 15.597656 3.515625 14.9375 L 4.761719 14.9375 C 4.496094 15.597656 4.363281 16.316406 4.363281 17.089844 C 4.363281 17.898438 4.570312 18.304688 4.988281 18.304688 C 5.382812 18.304688 5.582031 18.070312 5.582031 17.597656 L 5.582031 16.636719 C 5.582031 15.316406 6.175781 14.652344 7.367188 14.652344 C 8.609375 14.652344 9.234375 15.496094 9.234375 17.175781 C 9.234375 18.007812 9.121094 18.75 8.894531 19.410156 Z M 8.894531 19.410156 " fill-opacity="1" fill-rule="nonzero"/><path fill="#0f2632" d="M 3.234375 11.101562 C 3.234375 9.296875 4.15625 8.394531 5.996094 8.394531 C 6.242188 8.394531 6.488281 8.414062 6.730469 8.445312 L 6.730469 12.390625 C 7.570312 12.390625 7.988281 11.777344 7.988281 10.546875 C 7.988281 9.945312 7.933594 9.34375 7.820312 8.746094 L 9.007812 8.746094 C 9.121094 9.269531 9.175781 9.90625 9.175781 10.65625 C 9.175781 12.808594 8.164062 13.886719 6.136719 13.886719 C 4.203125 13.890625 3.234375 12.960938 3.234375 11.101562 Z M 5.691406 12.390625 L 5.691406 9.855469 L 5.644531 9.855469 C 4.824219 9.855469 4.414062 10.269531 4.414062 11.101562 C 4.410156 11.890625 4.839844 12.324219 5.691406 12.390625 Z M 5.691406 12.390625 " fill-opacity="1" fill-rule="nonzero"/><path fill="#0f2632" d="M 51.203125 1.117188 C 48.417969 1.117188 46.15625 3.375 46.15625 6.164062 C 46.15625 6.722656 46.253906 7.261719 46.421875 7.765625 L 40.824219 10.222656 C 40.449219 9.515625 39.714844 9.03125 38.859375 9.03125 C 38.453125 9.03125 38.082031 9.144531 37.753906 9.335938 L 34.832031 5.855469 C 35.265625 5.351562 35.539062 4.703125 35.539062 3.984375 C 35.539062 2.398438 34.253906 1.113281 32.667969 1.113281 C 31.082031 1.113281 29.796875 2.398438 29.796875 3.984375 C 29.796875 5.570312 31.082031 6.855469 32.667969 6.855469 C 33.210938 6.855469 33.710938 6.695312 34.144531 6.4375 L 37.078125 9.929688 C 36.796875 10.304688 36.628906 10.761719 36.628906 11.261719 C 36.628906 12.496094 37.625 13.492188 38.859375 13.492188 C 40.09375 13.492188 41.09375 12.496094 41.09375 11.261719 C 41.09375 11.203125 41.078125 11.148438 41.074219 11.09375 L 46.78125 8.589844 C 47.640625 10.148438 49.296875 11.207031 51.203125 11.207031 C 53.988281 11.207031 56.246094 8.949219 56.246094 6.164062 C 56.246094 3.375 53.988281 1.117188 51.203125 1.117188 Z M 51.203125 1.117188 " fill-opacity="1" fill-rule="nonzero"/></svg>