<svg width="55" height="50" viewBox="0 0 55 50" fill="none" xmlns="http://www.w3.org/2000/svg">
<path d="M16.4363 44.188C14.3395 42.538 12.1051 40.9602 10.5788 38.7361C7.36477 34.8122 4.88977 30.2712 3.19852 25.4966C2.17586 22.3925 1.82352 19.0633 0.506956 16.0778C-0.871481 13.9122 0.744144 11.5403 3.11946 10.8528C4.17649 10.65 6.03446 9.64968 3.78977 10.3647C1.77883 11.8394 1.58461 9.02406 3.64711 8.84531C5.05649 8.65625 5.57211 7.50468 5.09086 6.47C3.57836 5.48343 8.75524 4.40234 6.14961 2.92937C3.43743 0.00749676 9.94461 -0.556253 8.3393 2.76781C7.95774 5.32187 12.8871 2.29687 11.7424 5.24968C12.906 6.66765 16.0977 5.57281 16.017 7.5614C17.7116 7.67828 18.2926 9.10312 19.8841 9.2114C21.5341 9.95562 24.5196 10.5417 25.0799 12.3997C23.4471 13.6939 19.6607 9.72703 19.4768 13.3106C19.9718 18.6044 19.8446 24.0562 21.7799 29.0973C22.696 32.1481 24.9166 34.5509 26.919 36.928C28.8388 39.2552 31.4393 40.8948 34.0862 42.2733C36.4099 43.3698 38.9159 44.0952 41.4476 44.5523C42.4737 43.7669 44.2887 40.8467 45.8888 42.0773C45.9662 43.4627 42.7091 44.9717 45.7341 44.8187C47.513 44.2825 48.7454 46.1937 50.208 44.4681C51.5573 46.0666 55.8112 43.4489 54.8538 46.7128C53.5562 47.5498 51.6638 47.0445 50.3645 48.1961C48.2212 47.1253 46.5145 49.1534 44.1426 48.8973C41.5077 49.37 38.8282 49.5591 36.1573 49.5625C31.7745 49.2187 27.3005 49.0709 23.1326 47.5447C20.783 46.8623 18.492 45.5252 16.4295 44.1862L16.4363 44.188ZM20.1368 45.7916C22.4296 46.7816 24.6743 47.8266 27.1837 48.1428C31.1712 48.6962 35.2876 49.5522 39.2888 48.7719C37.4773 47.9537 35.6056 49.0898 33.8009 48.1875C31.6352 48.6516 29.3321 48.0672 27.0977 47.7802C24.597 46.6664 21.8968 45.8998 19.5559 44.4527C16.6288 43.3836 21.0684 45.8242 21.859 46.0219C23.6877 47.06 19.8481 45.5062 19.3049 45.0594C17.7718 44.2 17.5776 44.3787 19.1537 45.2519L20.1162 45.7916H20.1368ZM15.7712 42.7081C17.9935 43.5331 15.7609 41.1441 14.7451 41.2816C14.2948 40.4995 13.0212 40.0045 13.9201 39.5852C12.3045 40.1455 12.2288 37.4539 11.4709 37.8389C9.76242 37.2992 10.8057 35.388 8.77243 34.2123C8.5868 32.9748 6.75118 31.9041 6.1668 30.0392C5.90899 29.0836 4.09227 26.3439 5.20774 28.8945C6.15649 31.3523 7.82711 33.4544 9.2193 35.5547C10.2987 37.5553 11.574 39.6453 13.5402 40.8948C14.2037 41.5308 14.8431 42.5053 15.7781 42.7047L15.7712 42.7081ZM9.37055 35.6784C9.77618 36.4037 9.44789 35.3433 9.37055 35.6784ZM18.4335 43.693C18.9251 43.473 17.7254 43.4145 18.4335 43.693ZM19.6366 44.133C19.5112 43.5262 19.0866 44.4733 19.6366 44.133ZM21.1491 44.762C21.8676 44.078 20.0406 44.3323 21.1491 44.762ZM23.7376 46.2058C24.1741 45.5612 22.3402 45.9652 23.7376 46.2058ZM18.7704 42.7425C19.8876 42.0206 17.3266 42.7322 18.7704 42.7425ZM19.9048 43.3097C19.8704 42.9281 19.5009 43.4816 19.9048 43.3097ZM25.5646 46.8434C26.4755 47.4175 30.879 48.1016 28.1221 47.0789C27.658 47.1752 23.0088 45.7623 25.5646 46.8434ZM16.579 39.8447C16.493 39.4631 15.1662 39.4219 16.579 39.8447ZM19.2138 41.3812C19.9013 40.9 17.7907 41.0117 19.2138 41.3812ZM21.4482 42.7562C22.4331 42.385 19.8532 42.3833 21.4482 42.7562ZM15.5031 38.6742C16.5687 39.4923 19.8102 38.7773 17.1359 38.1861C15.9207 37.5381 13.1827 37.0947 15.0493 38.5762L15.5013 38.6742H15.5031ZM22.9281 43.2066C23.3749 42.4503 21.0615 42.7734 22.9281 43.2066ZM20.6713 41.4139C23.2838 42.153 18.4765 39.7639 20.0268 41.1389L20.3706 41.2936L20.6713 41.4105V41.4139ZM25.1951 44.0264C27.6701 44.0505 22.9607 43.6827 25.1951 44.0264ZM14.5509 37.2425C14.4546 36.7819 13.9407 37.2803 14.5509 37.2425ZM29.3785 46.3725C29.4438 45.5406 28.5707 46.9912 29.3785 46.3725ZM18.7738 39.8241C18.6243 39.3858 18.0004 39.8069 18.7738 39.8241ZM14.7863 36.9537C16.206 36.8678 12.8441 36.3281 14.7863 36.9537ZM10.0649 33.9047C9.88789 33.2241 8.52149 32.6809 10.0649 33.9047ZM22.4605 41.7714C22.3402 41.835 22.2027 41.4741 22.4605 41.7714ZM30.1743 46.5066C30.1502 46.0528 29.7549 46.6784 30.1743 46.5066ZM21.7782 41.0667C21.9157 40.4823 20.5665 40.8897 21.7782 41.0667ZM16.0307 37.423C17.0877 37.3112 14.3377 36.7097 16.0307 37.423ZM25.752 43.4644C27.3985 42.8112 24.1484 43.1464 25.752 43.4644ZM20.6954 40.032C22.5912 40.2761 18.4387 38.743 20.2777 39.8945L20.6954 40.032ZM27.2868 44.0848C29.0571 43.0278 28.4727 46.565 30.2912 44.3839C32.0838 43.0742 28.7443 46.003 30.9512 44.6177C32.5496 43.5486 34.9095 45.1247 36.3996 45.6369C37.4721 45.5853 38.5137 46.565 39.6137 45.9686C41.7277 45.398 35.4749 45.123 37.1146 44.1123C35.1793 44.6761 33.7493 43.442 32.7954 42.2011C30.6229 41.6992 28.1135 40.5889 27.029 38.6673C26.5873 37.9455 27.6649 38.7705 26.6474 37.5897C25.3412 36.4261 24.6881 35.1044 23.8081 33.6881C22.7596 33.1295 22.6341 31.4812 22.5293 33.6331C22.5379 32.2753 21.2626 31.3592 20.948 31.7391C20.9429 30.4328 22.3145 31.0859 21.3537 30.12C21.1474 28.7622 20.4668 27.3528 20.264 25.8197C19.946 25.0806 20.2193 23.4994 19.1812 25.1717C18.803 26.9369 19.0557 23.0027 19.6452 24.2986C20.4187 22.9752 19.3668 23.1298 19.3256 23.3137C19.8291 22.1966 19.6452 20.6119 19.1932 21.2169C19.4613 20.0309 19.6177 16.8598 18.7927 17.4219C19.2912 16.1844 19.7415 11.7552 17.569 13.443C16.689 13.455 15.1662 13.7627 14.446 14.1202C16.7027 15.3645 14.2191 14.5705 13.2979 14.3711C13.1776 15.5227 12.2666 15.0242 11.1323 15.0362C12.9507 15.2597 10.2471 16.8925 9.20727 16.26C7.85289 16.9062 10.376 18.5219 9.23305 19.022C9.37399 19.7731 7.15852 18.7505 7.33211 20.4898C6.01899 19.9364 7.15164 22.5523 7.80993 21.6672C10.0443 22.2722 9.38258 23.6506 9.4393 24.962C9.07493 25.7252 7.64149 23.1677 9.11961 23.2862C7.95086 21.3905 7.83055 22.5987 6.85946 23.4822C6.63602 23.5458 9.33446 24.7369 7.63977 25.3212C9.12993 25.5516 9.17289 26.8561 9.47539 27.6794C10.3691 28.6127 10.1852 26.6481 11.2577 27.7705C10.5788 26.7736 7.66555 24.9569 10.0116 25.5361C9.99961 24.5323 9.58711 23.7211 10.3073 23.74C11.0206 22.4509 9.56133 26.9197 11.1666 25.28C11.6101 25.0858 11.7218 23.9909 12.5193 25.3831C13.6777 26.5244 12.9387 27.3494 11.3024 26.3044C11.5946 27.2978 13.4904 27.6519 13.1329 29.2039C13.511 30.5703 14.0387 30.0667 14.4993 29.9877C14.843 31.3145 15.0665 30.3383 15.0837 29.7075C16.7371 30.0616 16.3487 31.0395 16.8677 31.7219C18.0073 32.2375 15.2349 28.2362 17.1943 30.5187C19.2516 32.375 17.9677 33.1536 16.1201 32.8562C17.2888 32.7617 17.667 34.4375 19.1279 34.3773C20.4616 35.0133 21.3623 37.4487 19.066 36.433C18.2702 35.7145 15.4463 34.8277 17.7529 36.1923C19.8807 37.1789 21.572 37.7667 23.6241 39.0059C25.092 40.0372 25.7262 41.2541 26.283 41.493C25.049 42.0825 22.5637 41.022 24.3924 40.6972C23.2409 40.4875 21.9449 39.9066 23.0484 41.34C23.9868 42.1237 26.3707 42.0412 26.7987 42.1306C26.4377 42.9281 25.8138 42.99 26.8124 43.0536C25.6987 43.6483 27.1699 43.7411 27.273 44.0797L27.2868 44.0848ZM25.0077 37.6498C24.3288 36.94 24.1535 35.6131 24.8874 36.7681C25.2655 36.9194 26.0906 38.9389 25.0077 37.6498ZM32.4327 42.3437C32.8556 42.3162 32.4448 42.6652 32.4327 42.3437ZM23.9421 35.8898C24.1862 36.7148 23.9146 34.8173 23.9421 35.8898ZM23.203 34.8981C24.2773 35.3622 22.3488 33.2481 23.203 34.8981ZM14.2621 28.7106C14.764 28.5766 14.5096 29.5666 14.2621 28.7106ZM21.3777 32.5675C21.7215 33.5369 21.6871 31.4108 21.3777 32.5675ZM16.3504 29.0716C17.0895 29.6697 15.9963 28.4356 16.3504 29.0716ZM20.6645 30.4534C19.8566 28.6436 21.2385 29.4652 20.8449 30.7491L20.6645 30.4534ZM13.2257 25.4931C12.882 24.8984 12.2684 23.1556 12.4609 22.6228C12.6327 23.4891 14.3034 26.3525 13.279 23.8259C12.148 21.6947 14.6316 24.5169 14.8877 25.0497C15.008 25.5773 14.1899 24.9053 14.7434 26.1462C13.7327 24.7334 14.147 26.9266 13.2274 25.5103L13.2257 25.4931ZM10.9277 23.9084C11.4537 24.8537 11.0223 22.5266 10.9277 23.9084ZM11.9624 24.2659C12.7977 25.7183 12.4557 23.2244 11.9624 24.2659ZM9.45305 22.3753C8.59711 21.5245 7.97836 20.7425 9.4943 21.8477C10.0787 21.87 8.19664 20.0653 9.63524 21.2736C11.1477 21.5486 10.3812 23.7537 9.45477 22.3736L9.45305 22.3753ZM10.7593 22.3409C11.2577 21.8477 11.024 22.8256 10.7593 22.3409ZM11.5637 22.5987C12.4781 23.1917 10.8074 21.1859 11.5637 22.5987ZM9.96524 21.0725C7.47649 18.8553 13.0934 22.2292 10.3709 21.485L9.96524 21.0725ZM17.0946 25.2147C16.017 24.5702 16.8076 20.6703 17.1754 23.3361C18.2238 22.9975 17.117 24.7145 17.8973 24.6973C17.777 25.7802 17.4246 26.172 17.0946 25.2147ZM19.7312 26.7736C19.9546 27.578 19.8343 25.598 19.7312 26.7736ZM19.274 26.3198C19.3943 25.818 19.2843 26.9111 19.274 26.3198ZM10.4705 20.3437C8.87211 18.1386 15.1163 22.5747 11.4949 20.9023C11.1168 20.8027 10.6613 20.7683 10.4705 20.3437ZM15.5495 23.0353C15.8863 23.3447 15.3982 21.1791 15.5495 23.0353ZM19.4046 25.5103C19.702 24.4533 19.427 26.2098 19.4046 25.5103ZM10.7163 19.5016C11.6668 19.2987 14.6695 21.1687 11.9109 20.0344C11.6066 19.6975 10.9552 19.8505 10.7163 19.5016ZM18.8735 23.5681C18.9766 21.6689 19.4407 22.4337 18.877 23.8431L18.8735 23.5681ZM11.4227 18.8416C11.8112 18.2744 10.3949 16.2755 11.6255 18.1248C12.1412 18.5477 13.1673 18.833 12.2787 19.0117C13.6795 20.2492 11.9349 19.3469 11.4245 18.8398L11.4227 18.8416ZM18.4696 22.9769C18.736 20.8112 18.7051 24.2436 18.4696 22.9769ZM10.6149 16.8444C10.9106 16.7172 10.7696 17.2397 10.6149 16.8444ZM12.454 17.9392C13.3271 19.0461 12.9266 16.9458 12.454 17.9392ZM17.6395 20.8233C17.7374 21.3784 17.636 20.4452 17.6395 20.8233ZM17.3387 20.1598C18.0262 21.1 16.6202 18.3844 17.3387 20.1598ZM16.897 18.9945C17.3095 19.9158 16.7766 18.2606 16.897 18.9945ZM17.6154 17.8258C17.1204 16.9561 18.2393 13.993 18.3648 15.832C17.844 17.2655 18.2152 18.0664 18.5762 16.1414C19.2465 14.6289 18.4335 19.1269 17.6154 17.8258ZM18.3545 13.4155C18.5693 13.1508 18.4026 13.7334 18.3545 13.4155ZM17.1187 37.7375C17.1565 37.8991 16.8265 37.4797 17.1187 37.7375ZM19.6624 39.0231C21.077 39.3875 21.0718 38.8031 19.7913 38.6278C19.1038 37.9884 16.9348 37.3095 18.877 38.5487C19.0041 38.8925 19.4098 38.8684 19.6624 39.0231ZM14.6437 35.6887C15.4223 36.2731 17.5776 37.3353 15.754 35.9122C16.3693 35.1972 14.5766 34.8156 15.1696 34.3378C13.6571 33.4097 13.9751 33.4784 15.0356 33.5248C13.2171 32.7119 15.2985 32.7737 15.2005 32.3561C14.4993 32.2186 11.7184 31.1186 13.3546 32.4455C11.6909 31.5981 12.9593 32.7617 12.4557 32.6397C10.737 32.1756 13.9682 33.9356 12.1859 33.4991C13.1604 34.2725 14.8121 35.4808 12.5984 34.3172C12.3062 34.7366 14.183 35.3742 14.6609 35.6922L14.6437 35.6887ZM17.3026 37.2184C20.5338 38.26 15.7162 35.9466 17.3026 37.2184ZM30.9151 45.465C30.9563 44.8222 30.4734 46.015 30.9151 45.465ZM32.3141 46.0545C33.0601 45.3327 32.3451 47.2061 33.5516 45.8775C33.5637 44.927 33.5173 44.365 32.1663 45.52C31.7934 45.7262 31.6284 46.6028 32.3159 46.0528L32.3141 46.0545ZM10.1027 32.1C9.87414 31.1994 8.49742 31.2028 10.1027 32.1ZM11.5981 33.0797C11.0429 32.1602 9.61805 32.2461 11.5981 33.0797ZM20.099 38.2067C20.9291 38.9458 23.9112 38.7481 21.1062 38.2978C20.6937 37.6842 18.4713 37.8337 20.099 38.2067ZM31.7831 45.4255C33.0601 44.353 30.5456 45.9033 31.7831 45.4255ZM34.4402 47.2508C34.4488 46.907 33.8902 47.4003 34.4402 47.2508ZM34.4454 46.7695C35.8599 45.2742 33.0756 46.8555 34.4454 46.7695ZM6.42805 29.0234C5.22492 27.3047 5.67867 26.5312 4.5168 25.127C4.2968 24.0528 2.52305 21.6156 3.59899 24.1989C4.58555 25.7114 4.87774 28.0489 6.42805 29.0286V29.0234ZM33.9968 46.29C36.6007 44.6091 32.9312 45.5578 33.9968 46.29ZM35.9837 47.0686C37.2899 45.9514 35.1587 46.8348 35.9837 47.0686ZM9.6593 30.2008C10.0323 29.6456 8.6968 30.1286 9.6593 30.2008ZM35.5695 46.5375C36.831 45.7245 35.2773 45.85 35.3409 46.6114L35.5695 46.5375ZM18.4473 35.7437C18.4043 35.1937 17.7804 35.7902 18.4473 35.7437ZM19.5043 36.3522C19.1674 35.6716 18.9887 36.4587 19.5043 36.3522ZM37.5941 47.0858C39.2098 45.917 36.6145 46.8623 37.2556 47.3092L37.5941 47.0858ZM36.9754 46.7867C38.2937 45.6833 35.5832 47.2748 36.9754 46.7867ZM40.1379 48.8922C41.0213 48.3009 39.0637 48.7031 40.1379 48.8922ZM10.4723 29.7969C11.6582 30.0616 15.2074 32.7153 13.114 29.9808C12.0415 29.6628 12.6843 27.0417 11.5895 27.5058C12.3234 28.733 12.191 29.2555 10.651 28.482C8.71399 27.5367 9.56305 28.9495 9.94117 29.3414C9.42555 29.4617 10.6235 29.7883 10.474 29.7986L10.4723 29.7969ZM5.07539 25.5344C5.2868 24.6578 3.12117 20.7047 4.05274 23.5544C4.38789 24.1508 4.35352 25.2817 5.07539 25.5344ZM14.9857 31.6445C14.9565 31.5723 14.3738 31.1341 14.9857 31.6445ZM16.4879 31.9952C16.4879 31.067 14.8276 31.617 16.4879 31.9952ZM29.5109 40.2039C29.2616 39.568 28.5312 40.1902 29.5109 40.2039ZM30.1365 40.6611C30.0437 40.3053 29.7927 40.7298 30.1365 40.6611ZM35.2979 43.913C35.7963 43.5469 34.6791 43.8648 35.2979 43.913ZM7.76867 26.2253C9.18836 25.6753 6.24758 25.8334 7.76867 26.2253ZM28.3593 39.1984C28.3421 38.2789 27.4535 39.427 28.3593 39.1984ZM7.20664 24.9156C8.11758 24.6062 6.36446 24.7128 7.20664 24.9156ZM9.85352 26.1978C9.83633 25.8953 9.57336 26.313 9.85352 26.1978ZM42.1454 45.9978C43.3176 45.7606 45.992 46.5942 46.4251 45.6884C44.9985 45.6541 41.4974 44.683 41.3324 45.9187L41.6418 45.9703L42.1454 46.0012V45.9978ZM10.6957 26.4109C10.7163 25.4794 9.97039 26.3766 10.6957 26.4109ZM3.73477 21.5812C3.41852 19.8075 2.53164 21.3131 3.73477 21.5812ZM5.39336 21.9989C5.41399 21.4283 3.87399 21.4867 5.39336 21.9989ZM6.34211 22.463C6.12899 22.7431 6.06711 22.2395 6.34211 22.463ZM12.3113 26.2906C12.5932 26.0328 11.6462 26.1016 12.3113 26.2906ZM5.71133 21.4094C5.54977 20.0687 3.78633 21.2083 5.71133 21.4094ZM2.30821 19.2008C2.26008 18.582 1.97649 19.4345 2.30821 19.2008ZM2.81524 18.8192C2.73274 18.0853 2.38039 18.912 2.81524 18.8192ZM5.61164 20.4864C6.79414 20.0223 3.45805 19.5239 5.37102 20.4005L5.61164 20.4864ZM43.0426 43.6156C43.7988 42.9212 42.0801 43.4008 43.0426 43.6156ZM47.5629 45.9583C47.8671 45.0645 46.7981 46.0786 47.5629 45.9583ZM5.89524 19.0289C6.02071 18.1609 4.9568 19.2008 5.89524 19.0289ZM1.91461 16.3648C1.70492 15.1359 1.73586 12.9875 3.77774 13.7128C1.05008 14.2559 5.66836 17.1056 5.08399 14.8541C6.23211 14.9108 7.32868 14.1752 6.72539 15.2889C8.98899 15.0431 10.5531 13.0803 12.7393 13.357C14.4581 13.1302 16.3006 12.9617 18.1362 12.2742C19.6435 12.1659 21.0924 10.5434 20.2674 9.58093C18.2118 9.40906 16.0599 9.66343 13.7877 10.1172C11.2698 10.6397 8.98383 11.6348 6.44352 12.0594C3.96852 12.3928 6.94196 12.9755 6.23211 13.1078C4.94305 13.5547 7.77383 13.8572 6.06539 14.3316C5.01008 14.1305 3.9118 13.7678 4.36383 12.6558C1.99196 12.9652 -0.0928876 13.9483 1.78227 16.3614L1.91977 16.3631L1.91461 16.3648ZM7.63461 13.4687C8.18977 11.42 10.6132 15.1531 8.54555 13.7437C8.29977 13.5581 7.89242 13.4086 7.63461 13.4687ZM7.74289 12.4753C8.54555 11.8789 8.16914 12.8105 7.74289 12.4753ZM8.76211 12.4925C8.83602 11.5506 11.0962 13.0081 9.13508 12.8311L8.76211 12.4925ZM10.1543 11.9322C10.6648 11.3358 10.3021 12.4598 10.1543 11.9322ZM10.5118 11.6916C11.3609 10.6723 15.3123 11.0384 12.4024 11.5919C11.629 11.0075 11.0326 11.9356 10.5118 11.6916ZM15.6681 10.8958C18.2324 11.8841 15.5409 8.1114 15.6681 10.8958ZM17.1324 10.8872C17.6652 9.48468 19.2121 10.3234 17.3816 10.6053C17.4212 10.7548 17.3266 11.3306 17.1324 10.8872ZM5.31946 18.3242C6.91789 17.3445 3.62305 17.4752 5.31946 18.3242ZM6.50196 18.668C7.06227 18.0716 5.29883 18.4273 6.50196 18.668ZM3.01977 16.1672C3.93071 15.4625 1.93696 15.9008 3.01977 16.1672ZM50.2338 45.7039C50.2596 44.8892 49.536 46.07 50.2338 45.7039ZM45.4385 42.4297C45.576 41.493 44.8198 42.5105 45.4385 42.4297ZM51.5573 46.0219C52.8343 46.027 55.4279 45.6266 52.6487 45.6266C52.2121 45.6953 50.1049 45.6781 51.5573 46.0219ZM7.54524 18.063C8.57992 17.9942 9.16086 16.9234 7.34414 16.9836C4.52539 16.6914 9.82946 17.9495 7.00039 17.5886C6.61883 17.8412 7.54008 18.1317 7.56243 18.0612L7.54524 18.063ZM8.45618 18.5236C8.34789 17.8602 8.13649 18.8759 8.45618 18.5236ZM9.53899 15.643C9.98586 15.0861 8.92024 15.4934 9.53899 15.643ZM6.10149 9.89547C7.94742 9.26812 10.4705 8.56343 11.3437 10.2048C10.4568 9.13922 10.9862 8.08734 11.8249 9.64797C13.0109 11.2258 13.6021 8.92953 12.8321 8.40015C13.7087 9.48984 14.7056 10.0055 13.4199 8.4689C14.8207 6.78453 10.6184 8.6889 9.66274 8.67C9.20383 8.87625 4.91899 9.76312 6.10492 9.89547H6.10149ZM7.1843 7.82437C8.23617 7.03031 10.8246 8.29703 9.1643 7.03375C9.00102 6.89109 5.52914 7.99109 7.1843 7.82437ZM11.0206 7.9825C12.2512 8.01343 10.4877 6.32734 11.9555 7.09218C11.7149 6.305 10.2471 6.1589 9.52868 5.84265C9.12305 6.56109 10.3537 7.99109 11.0188 7.9825H11.0206ZM7.85805 4.50031C8.2843 3.92281 7.11039 4.7925 7.85805 4.50031ZM9.41867 4.875C11.4038 4.61203 8.91336 4.02078 9.01821 4.85437L9.41867 4.875ZM6.48992 2.58906C5.09258 0.763747 9.11961 2.895 7.69821 0.985466C6.50196 0.0349968 5.35555 2.05797 6.48992 2.58906ZM24.4234 12.2484C25.0645 11.1141 21.7765 10.7187 23.9937 11.8462C24.1965 11.915 24.1518 12.3275 24.4234 12.2484Z" fill="black"/>
</svg>
