<svg width="55" height="55" viewBox="0 0 55 55" fill="none" xmlns="http://www.w3.org/2000/svg">
<path d="M33.0151 18.2897H34.2663L37.8307 13.8606L38.006 11.9813C31.3739 4.70756 21.2497 5.49131 15.3962 13.7324C13.7686 16.0217 12.588 18.7446 11.9452 21.6916C12.3422 21.4888 12.7822 21.4567 13.1964 21.5977L20.3234 20.1369C20.3234 20.1369 20.686 19.3917 20.8733 19.4387C24.0441 15.112 29.3804 14.608 33.041 18.2897H33.0151Z" fill="#EA4335"/>
<path d="M42.9074 21.6916C42.0876 17.9438 40.4069 14.5739 38.0679 11.9962L33.0667 18.2107C35.1789 20.3548 36.3819 23.5859 36.3304 26.9751V28.0791C38.7896 28.0791 40.7815 30.5563 40.7815 33.6102C40.7815 36.6662 38.788 39.1412 36.3304 39.1412H27.4263L26.5378 40.2603V46.8955L27.4263 47.9996H36.3304C41.4345 48.0487 45.963 43.9377 47.4788 37.8813C48.9912 31.8228 47.1351 25.2452 42.9074 21.6916Z" fill="#4285F4"/>
<path d="M18.5102 47.9375H27.4143V39.0814H18.5102C17.8761 39.0814 17.2488 38.9127 16.6713 38.5838L15.4202 39.0644L11.8318 43.4935L11.519 45.0482C13.5315 46.936 15.9873 47.9503 18.5102 47.9375Z" fill="#34A853"/>
<path d="M18.5103 19.2058C13.5642 19.2422 9.18351 23.1779 7.60584 29.0016C6.02817 34.8253 7.60068 41.2533 11.5208 44.9991L16.6851 38.5817C14.4441 37.3239 13.4491 34.0479 14.4613 31.2631C15.4736 28.4784 18.1099 27.2419 20.3509 28.4998C21.3374 29.055 22.128 30.0373 22.5748 31.2631L27.7392 24.8458C25.5411 21.2773 22.1262 19.1909 18.5103 19.2058Z" fill="#FBBC05"/>
</svg>
