<svg width="55" height="55" viewBox="0 0 55 55" fill="none" xmlns="http://www.w3.org/2000/svg">
<path d="M4.12234 23.1506C4.01596 23.1506 3.98936 23.0977 4.04255 23.0183L4.60106 22.3035C4.65426 22.2241 4.78723 22.1712 4.89362 22.1712H14.3883C14.4947 22.1712 14.5213 22.2506 14.4681 22.33L14.016 23.0183C13.9628 23.0977 13.8298 23.1771 13.75 23.1771L4.12234 23.1506ZM0.106383 25.5861C0 25.5861 -0.0265957 25.5331 0.0265957 25.4537L0.585106 24.739C0.638298 24.6596 0.771277 24.6066 0.87766 24.6066H13.0053C13.1117 24.6066 13.1649 24.686 13.1383 24.7654L12.9255 25.4008C12.8989 25.5067 12.7926 25.5596 12.6862 25.5596L0.106383 25.5861ZM6.54255 28.0215C6.43617 28.0215 6.40957 27.9421 6.46277 27.8627L6.83511 27.2009C6.8883 27.1215 6.99468 27.0421 7.10106 27.0421H12.4202C12.5266 27.0421 12.5798 27.1215 12.5798 27.2274L12.5266 27.8627C12.5266 27.9686 12.4202 28.048 12.3404 28.048L6.54255 28.0215ZM34.1489 22.6741C32.4734 23.0977 31.3298 23.4154 29.6809 23.8389C29.2819 23.9448 29.2553 23.9713 28.9096 23.5742C28.5106 23.1242 28.2181 22.833 27.6596 22.5683C25.984 21.7476 24.3617 21.9859 22.8457 22.9653C21.0372 24.1301 20.1064 25.8508 20.133 27.9951C20.1596 30.1128 21.6223 31.86 23.7234 32.1512C25.5319 32.3894 27.0479 31.7541 28.2447 30.404C28.484 30.1128 28.6968 29.7952 28.9628 29.4246H23.8298C23.2713 29.4246 23.1383 29.0804 23.3245 28.6304C23.6702 27.8097 24.3085 26.4332 24.6809 25.7449C24.7606 25.5861 24.9468 25.3214 25.3457 25.3214H35.0266C34.9734 26.0361 34.9734 26.7509 34.867 27.4656C34.5745 29.3716 33.8564 31.1188 32.6862 32.6542C30.7713 35.169 28.2713 36.7309 25.1064 37.1544C22.5 37.4986 20.0798 36.9956 17.9521 35.4073C15.984 33.9248 14.867 31.9659 14.5745 29.5304C14.2287 26.645 15.0798 24.0507 16.8351 21.7741C18.7234 19.3122 21.2234 17.7503 24.2819 17.1944C26.7819 16.7444 29.1755 17.0356 31.3298 18.4915C32.7394 19.4181 33.75 20.6887 34.4149 22.2241C34.5745 22.4624 34.4681 22.5947 34.1489 22.6741Z" fill="black"/>
<path d="M42.9521 37.3133C40.5319 37.2603 38.3245 36.572 36.4628 34.9837C34.8936 33.6336 33.9096 31.9129 33.5904 29.8746C33.1117 26.8832 33.9362 24.236 35.7447 21.88C37.6862 19.3386 40.0266 18.015 43.1915 17.4591C45.9043 16.9826 48.4574 17.2473 50.7713 18.8092C52.8723 20.2387 54.1755 22.1712 54.5213 24.7125C54.9734 28.2862 53.9362 31.1982 51.4628 33.6866C49.7074 35.4602 47.5532 36.572 45.0798 37.075C44.3617 37.2074 43.6436 37.2338 42.9521 37.3133ZM49.2819 26.6185C49.2553 26.2743 49.2553 26.0096 49.2021 25.7449C48.7234 23.1242 46.3032 21.6417 43.7766 22.2241C41.3032 22.78 39.7074 24.3419 39.1223 26.8303C38.6436 28.8951 39.6543 30.9864 41.5691 31.8335C43.0319 32.4688 44.4947 32.3894 45.9043 31.6747C48.0053 30.5893 49.1489 28.8951 49.2819 26.6185Z" fill="black"/>
</svg>
