<svg xmlns="http://www.w3.org/2000/svg" xmlns:xlink="http://www.w3.org/1999/xlink" viewBox="0 0 80 81" fill="#fff" fill-rule="evenodd" stroke="#000" stroke-linecap="round" stroke-linejoin="round"><use xlink:href="#A" x=".5" y=".5"/><symbol id="A" overflow="visible"><g stroke="none"><path d="M41.414 41.616V23.882h0c1.909-.932 2.923-3.058 2.445-5.128s-2.322-3.536-4.447-3.536-3.968 1.466-4.447 3.536.536 4.196 2.445 5.128v17.694H20.317V30.287c1.862-.975 2.818-3.095 2.315-5.135s-2.335-3.474-4.436-3.471c-2.094.016-3.909 1.455-4.401 3.491s.464 4.145 2.32 5.116v11.329h-.881c-6.138-.024-11.666-3.715-14.041-9.375S.056 20.051 4.338 15.654s10.779-5.807 16.499-3.581C24.251 4.745 31.585.043 39.669 0s15.467 4.581 18.958 11.872c1.589-.522 3.251-.793 4.924-.801h0c8.468 0 15.332 6.864 15.332 15.332s-6.864 15.332-15.332 15.332H62.55V30.287c1.859-.976 2.812-3.095 2.309-5.133s-2.331-3.471-4.431-3.471-3.928 1.432-4.431 3.471.45 4.157 2.309 5.133v11.329z" fill="#4285f4"/><path d="M20.317 53.465c3.692.871 6.266 4.214 6.165 8.006a8.29 8.29 0 0 1-16.454 1.415 8.29 8.29 0 0 1 6.086-9.422V41.616h4.003zm-2.122 12.009c2.211 0 4.003-1.792 4.003-4.003s-1.792-4.003-4.003-4.003-4.003 1.792-4.003 4.003 1.792 4.003 4.003 4.003zm44.355-12.009a8.29 8.29 0 0 1-2.122 16.297 8.29 8.29 0 0 1-2.122-16.297V41.656h4.243zm-2.122 12.009c1.984.105 3.744-1.261 4.135-3.209s-.704-3.887-2.574-4.558c-1.478-.53-3.129-.146-4.223.98s-1.428 2.788-.854 4.25 1.948 2.453 3.516 2.536zm-19.015-1.721h0A8.25 8.25 0 0 1 39.412 80a8.25 8.25 0 0 1-2.002-16.246V41.736h4.243zm-2.162 12.009c1.76-.009 3.308-1.167 3.814-2.853s-.149-3.505-1.614-4.481-3.395-.882-4.757.234-1.835 2.99-1.166 4.618c.644 1.477 2.112 2.424 3.723 2.402z" fill="#669df6"/></g></symbol></svg>