<svg width="55" height="55" viewBox="0 0 55 55" fill="none" xmlns="http://www.w3.org/2000/svg">
<g clip-path="url(#clip0_399_387)">
<path d="M50.0141 0H4.98588C2.23223 0 0 2.23223 0 4.98588V50.0141C0 52.7678 2.23223 55 4.98588 55H50.0141C52.7678 55 55 52.7678 55 50.0141V4.98588C55 2.23223 52.7678 0 50.0141 0Z" fill="#DC395F"/>
<path d="M18.381 17.3046C20.2093 17.3046 21.7409 15.8716 21.7409 13.9934C21.7409 12.1165 20.2093 10.6837 18.381 10.6837C16.5526 10.6837 15.0214 12.1165 15.0214 13.9934C15.0214 15.8714 16.5526 17.3046 18.381 17.3046ZM11.4144 35.0335C11.217 35.8735 11.118 36.7806 11.118 37.5205C11.118 40.4362 12.699 42.3717 16.0589 42.3717C18.8455 42.3717 21.1045 40.717 22.7311 38.045L21.7379 42.031H27.2712L30.4337 29.3468C31.2243 26.1353 32.7559 24.4683 35.0784 24.4683C36.9065 24.4683 38.0428 25.6053 38.0428 27.4822C38.0428 28.0259 37.9934 28.6183 37.7957 29.2609L36.1651 35.0911C35.918 35.9311 35.8196 36.7716 35.8196 37.5616C35.8196 40.3294 37.4496 42.3539 40.859 42.3539C43.7742 42.3539 46.0962 40.4772 47.381 35.9807L45.2072 35.1416C44.1201 38.1539 43.1812 38.6985 42.44 38.6985C41.6988 38.6985 41.3035 38.2048 41.3035 37.2172C41.3035 36.7724 41.4028 36.2789 41.5506 35.6847L43.132 30.0046C43.5271 28.6709 43.6756 27.4882 43.6756 26.4015C43.6756 22.1523 41.1061 19.9347 37.9934 19.9347C35.0784 19.9347 32.1136 22.5642 30.6316 25.3316L31.7182 20.3644H23.2697L22.0838 24.7395H26.0367L23.6025 34.4848C21.6911 38.734 18.1799 38.8029 17.7392 38.7043C17.0156 38.541 16.5529 38.2662 16.5529 37.3261C16.5529 36.7836 16.6517 36.0044 16.8988 35.0649L20.6048 20.3644H11.217L10.0311 24.7395H13.9341L11.4144 35.0335Z" fill="white"/>
</g>
<defs>
<clipPath id="clip0_399_387">
<rect width="55" height="55" fill="white"/>
</clipPath>
</defs>
</svg>
