<svg width="55" height="55" viewBox="0 0 55 55" fill="none" xmlns="http://www.w3.org/2000/svg">
<g clip-path="url(#clip0_398_315)">
<path d="M0 0H55V55H0V0Z" fill="#282828"/>
<path d="M22.9668 15.9718C21.2563 15.9944 19.7835 16.3297 18.3366 17.0506C14.6415 18.8912 12.5078 22.7673 12.5078 27.6512C12.5078 32.5462 14.6068 36.3074 18.3146 38.0668C19.3163 38.5421 20.3204 38.8008 21.8447 38.982C22.6161 39.013 23.3377 39.0678 24.089 38.982C25.6132 38.8008 26.6173 38.5421 27.619 38.0668C31.3271 36.3074 33.4261 32.5465 33.4261 27.6512C33.4261 22.7673 31.2921 18.8912 27.5973 17.0506C26.1501 16.3297 24.6776 15.9944 22.9668 15.9718ZM24.4378 19.4148C26.6564 20.0059 28.2662 22.0076 28.8827 24.9276C29.3164 26.9783 29.1981 29.3477 28.5778 31.214C27.6118 34.1204 25.515 35.7618 22.9668 35.7355C20.4186 35.7618 18.3218 34.1204 17.3561 31.214C16.7365 29.3477 16.6178 26.9783 17.0509 24.9276C17.6678 22.0076 19.2775 20.0059 21.4961 19.4148C22.5021 19.2016 23.5043 19.24 24.4378 19.4148ZM8.23454 15.9718C7.79587 15.9718 7.36705 16.1019 7.00231 16.3456C6.63757 16.5893 6.35329 16.9357 6.18542 17.341C6.01755 17.7463 5.97362 18.1922 6.0592 18.6225C6.14479 19.0527 6.35603 19.4479 6.66621 19.7581C6.9764 20.0683 7.3716 20.2795 7.80184 20.3651C8.23208 20.4507 8.67804 20.4068 9.08332 20.2389C9.4886 20.071 9.835 19.7867 10.0787 19.422C10.3224 19.0573 10.4525 18.6284 10.4525 18.1898C10.4525 17.6015 10.2188 17.0374 9.80288 16.6214C9.38693 16.2055 8.82278 15.9718 8.23454 15.9718ZM6.1622 22.7391V39.0282H10.3069V22.7391H6.1622ZM39.4526 38.9941C37.6768 38.6898 35.9688 38.4544 34.5188 37.6309C34.4996 37.6139 35.3748 34.3435 35.4142 34.2849C37.7446 35.0762 41.0249 36.1859 43.2367 35.1691C44.4425 34.5659 45.0364 33.4509 44.8369 32.1639C44.6123 30.7174 43.6106 29.8837 40.861 28.8557C37.7939 27.7094 35.997 26.3001 35.2611 24.4678C34.8996 23.5666 34.78 22.4197 34.9423 21.4177C35.3947 18.631 37.5655 16.6924 40.8973 16.0998C41.8624 15.9281 43.9266 15.9266 44.9422 16.0964C46.4058 16.3411 48.0843 16.8948 48.0843 17.1327C48.0843 17.2204 47.2268 20.2442 47.1828 20.3111C45.7356 19.7379 44.1125 19.3283 42.7391 19.3197C40.796 19.2952 38.6892 20.4486 39.061 22.4863C39.324 23.763 40.1389 24.3864 43.1379 25.6049C45.3468 26.5033 46.4067 27.1229 47.3151 28.045C48.5776 29.3056 48.9766 30.7846 48.9859 32.2507C48.9893 33.4716 48.8753 34.0414 48.4397 34.9842C47.3814 37.2739 45.2289 38.6013 41.9822 38.9665C41.375 39.0344 39.9443 39.0498 39.4542 38.9941H39.4526Z" fill="white"/>
</g>
<defs>
<clipPath id="clip0_398_315">
<rect width="55" height="55" fill="white"/>
</clipPath>
</defs>
</svg>
