<svg width="64" height="64" viewBox="0 0 64 64" fill="none" xmlns="http://www.w3.org/2000/svg">
<g clip-path="url(#clip0_2661_7)">
<path d="M0 0H64V64H0V0Z" fill="#F7DF1E"/>
<path d="M16.8282 53.4827L21.726 50.5187C22.6708 52.194 23.5303 53.6114 25.5921 53.6114C27.5683 53.6114 28.8143 52.8383 28.8143 49.8314V29.3818H34.8287V49.9164C34.8287 56.1457 31.1772 58.9811 25.8499 58.9811C21.0386 58.9811 18.2458 56.4893 16.8281 53.4822" fill="black"/>
<path d="M38.0957 52.8384L42.9928 50.003C44.282 52.1083 45.9574 53.6547 48.9216 53.6547C51.4136 53.6547 53.0027 52.4088 53.0027 50.6903C53.0027 48.6282 51.3703 47.8978 48.6208 46.6953L47.1176 46.0504C42.7783 44.2034 39.8998 41.8836 39.8998 36.986C39.8998 32.4751 43.3366 29.0381 48.7069 29.0381C52.5304 29.0381 55.2799 30.37 57.2559 33.8499L52.5731 36.857C51.542 35.0098 50.4254 34.2796 48.707 34.2796C46.9456 34.2796 45.8285 35.3965 45.8285 36.857C45.8285 38.6613 46.9456 39.3919 49.523 40.5089L51.0264 41.1533C56.1388 43.3444 59.0173 45.5781 59.0173 50.6044C59.0173 56.0177 54.7643 58.9818 49.0506 58.9818C43.4657 58.9818 39.8568 56.3183 38.0957 52.8384Z" fill="black"/>
</g>
<defs>
<clipPath id="clip0_2661_7">
<rect width="64" height="64" fill="white"/>
</clipPath>
</defs>
</svg>
