<svg xmlns="http://www.w3.org/2000/svg" width="33.175" height="45.891" viewBox="0 0 33.175 45.891">
  <g id="Group_105352" data-name="Group 105352" transform="translate(-522.833 -7150.359)">
    <path id="Path_77919" data-name="Path 77919" d="M33.913,34.059A16.3,16.3,0,0,1,17.806,50.519,16.277,16.277,0,0,1,1.7,34.059,16.277,16.277,0,0,1,17.806,17.6,16.3,16.3,0,0,1,33.913,34.059" transform="translate(521.646 7138.442)" fill="#d33833"/>
    <path id="Path_77920" data-name="Path 77920" d="M1.934,40.307S.779,23.142,16.6,22.629L15.506,20.8l-8.6,2.888L4.437,26.511,2.319,30.618,1.1,35.4l.353,3.208" transform="translate(522.054 7136.269)" fill="#ef3d3a"/>
    <path id="Path_77921" data-name="Path 77921" d="M5.683,21.879A16.151,16.151,0,0,0,1.095,33.173h0A16.093,16.093,0,0,0,5.683,44.466h0A15.362,15.362,0,0,0,16.72,49.151h0a15.345,15.345,0,0,0,11.037-4.684h0a16.151,16.151,0,0,0,4.588-11.294h0a16.093,16.093,0,0,0-4.588-11.294h0A15.362,15.362,0,0,0,16.72,17.195h0A15.418,15.418,0,0,0,5.683,21.879ZM4.977,45.172a17.089,17.089,0,0,1-4.877-12h0a17.2,17.2,0,0,1,4.845-12h0A16.36,16.36,0,0,1,16.688,16.2h0a16.489,16.489,0,0,1,11.743,4.973h0a17.062,17.062,0,0,1,4.845,12h0a17.2,17.2,0,0,1-4.845,12h0a16.36,16.36,0,0,1-11.743,4.973h0A16.286,16.286,0,0,1,4.977,45.172Z" transform="translate(522.733 7139.394)" fill="#231f20"/>
    <path id="Path_77922" data-name="Path 77922" d="M36.394,23.561l-2.471.353-3.3.385-2.15.064L26.383,24.3l-1.6-.481-1.412-1.54-1.091-3.144-.257-.674-1.476-.481-.834-1.444-.61-2.021.674-1.765,1.6-.545,1.283.61.61,1.348.738-.128.257-.321L24.009,12.3l-.064-1.765L24.3,8.064V6.652l1.123-1.8,1.957-1.412L30.811,2l3.818.545,3.3,2.374,1.54,2.471.995,1.765.257,4.428-.77,3.818-1.348,3.369-1.283,1.8" transform="translate(509.829 7149.037)" fill="#f0d6b7"/>
    <path id="Path_77923" data-name="Path 77923" d="M29.826,77.918l-8.759.353v1.476l.738,5.166-.353.417-6.128-2.085-.417-.738-.642-6.962-1.444-4.171-.321-.995,4.909-3.369,1.54-.61L20.3,68.068,21.452,69.1l1.348.417.61.193.738,3.208.545.674,1.412-.481-.995,1.925,5.326,2.535-.61.353" transform="translate(514.311 7105.3)" fill="#335061"/>
    <path id="Path_77924" data-name="Path 77924" d="M20.657,14.071l1.6-.545,1.283.61.61,1.348.738-.128.193-.738L24.731,13.2l.353-3.369-.321-1.829,1.091-1.283L28.229,4.83l-.674-.93L24.186,5.536,22.774,6.627l-.8,1.7L20.753,10,20.4,11.953l.257,2.118" transform="translate(508.946 7147.747)" fill="#6d6b6d"/>
    <path id="Path_77925" data-name="Path 77925" d="M26.012,8.7s.93-2.278,4.588-3.369.193-.8.193-.8l-3.978,1.54-1.54,1.54L24.6,8.826,26.012,8.7" transform="translate(506.094 7147.345)" fill="#dcd9d8"/>
    <path id="Path_77926" data-name="Path 77926" d="M21.33,22.247s-1.283-4.3,3.626-4.909l-.193-.738-3.369.8L20.4,20.611l.257,2.085.674-.449" transform="translate(508.946 7139.122)" fill="#dcd9d8"/>
    <path id="Path_77927" data-name="Path 77927" d="M29.4,50.37l.8-.77a.506.506,0,0,1,.417.481c.064.417.257,4.3,2.888,6.385.257.193-1.957-.321-1.957-.321l-1.957-3.08" transform="translate(502.834 7116.71)" fill="#f7e4cd"/>
    <path id="Path_77928" data-name="Path 77928" d="M64.595,44.68s.128-1.861.642-1.7a.677.677,0,0,1,.513.642s-1.219.8-1.155,1.059" transform="translate(478.933 7121.213)" fill="#f7e4cd"/>
    <path id="Path_77929" data-name="Path 77929" d="M78.079,27.1s-1.027.193-1.091,1.091c-.1.9,1.091.193,1.283.128" transform="translate(470.518 7131.99)" fill="#f7e4cd"/>
    <path id="Path_77930" data-name="Path 77930" d="M54.448,27.3s-1.348.193-1.348,1.027,1.54.8,1.957.417" transform="translate(486.738 7131.855)" fill="#f7e4cd"/>
    <path id="Path_77931" data-name="Path 77931" d="M22.878,36.065s-2.31-1.412-2.567-.064-.8,2.31.353,3.754l-.77-.257L19.157,37.6,18.9,35.776,20.312,34.3l1.6.128.93.738.032.9" transform="translate(509.965 7127.101)" fill="#f7e4cd"/>
    <path id="Path_77932" data-name="Path 77932" d="M34.662,9.223s1.027-5.39,6.321-6.449c4.331-.866,6.609.193,7.476,1.187,0,0-3.882-4.588-7.54-3.208C37.229,2.164,34.533,4.731,34.6,6.4c.1,2.823.064,2.823.064,2.823" transform="translate(499.304 7150.061)" fill="#f7e4cd"/>
    <path id="Path_77933" data-name="Path 77933" d="M75.229,13.2s-1.765-.064-1.829,1.54a1.089,1.089,0,0,0,.128.481s1.412-1.6,2.278-.738" transform="translate(472.951 7141.432)" fill="#f7e4cd"/>
    <path id="Path_77934" data-name="Path 77934" d="M47.469,16.9s-.321-2.438-2.374-1.027c-1.348.93-1.219,2.214-.995,2.471.257.257.193.738.353.417.193-.353.128-1.444.8-1.765.642-.321,1.765-.674,2.214-.1" transform="translate(492.946 7139.917)" fill="#f7e4cd"/>
    <path id="Path_77935" data-name="Path 77935" d="M20.4,68.1l-5.775,2.567s2.374,9.5,1.155,12.449L14.91,82.8l-.064-3.626-1.6-6.866L12.6,70.443l6-4.043,1.8,1.7" transform="translate(514.243 7105.3)" fill="#49728b"/>
    <path id="Path_77936" data-name="Path 77936" d="M38.157,88.1l.834.995v3.69h-.963S37.9,90.218,37.9,89.9s.128-1.412.128-1.412" transform="translate(497.061 7090.563)" fill="#49728b"/>
    <path id="Path_77937" data-name="Path 77937" d="M32.959,104.4l-2.759.128.8.545,1.957.321" transform="translate(502.29 7079.492)" fill="#49728b"/>
    <path id="Path_77938" data-name="Path 77938" d="M68.2,102.364l2.278-.064.545,5.647-2.31.321-.513-5.9" transform="translate(476.482 7080.918)" fill="#335061"/>
    <path id="Path_77939" data-name="Path 77939" d="M70.1,76.081l3.433-.193s1.412-3.561,1.412-3.754,1.219-5.166,1.219-5.166L73.4,64.081l-.545-.481-1.476,1.476v5.711L70.1,76.081" transform="translate(475.192 7107.201)" fill="#335061"/>
    <path id="Path_77940" data-name="Path 77940" d="M70.35,101.1l-2.15.417.321,1.7c.8.353,2.15-.61,2.15-.61" transform="translate(476.482 7081.733)" fill="#49728b"/>
    <path id="Path_77941" data-name="Path 77941" d="M75.1,64.983l4.3,3.208.128-1.476L76.287,63.7,75.1,64.983" transform="translate(471.796 7107.134)" fill="#49728b"/>
    <path id="Path_77942" data-name="Path 77942" d="M41.121,114.428l-1.283-5.166-.642-3.818-.1-2.823,5.743-.321H48.4l-.321,6.449.61,5.005-.064.93-4.684.353-2.823-.61" transform="translate(496.246 7080.918)" fill="#fff"/>
    <path id="Path_77943" data-name="Path 77943" d="M57.514,101.553a53.181,53.181,0,0,0,.61,10.909,11.858,11.858,0,0,1-4.524,1.476l5.166-.193.61-.353-.738-10.042-.193-2.15" transform="translate(486.398 7081.665)" fill="#dcd9d8"/>
    <path id="Path_77944" data-name="Path 77944" d="M76.01,103.834l2.374-.674,4.524-.257.674-2.085-1.219-3.626L80.951,97l-1.925.642-1.861.93-.995-.193-.77.321" transform="translate(471.592 7084.518)" fill="#fff"/>
    <path id="Path_77945" data-name="Path 77945" d="M77.2,105.263a9.162,9.162,0,0,1,1.829-.674l-.674-3.369.8-.321s.545,3.208.545,3.561c0,0,3.433.193,3.754.193A5.518,5.518,0,0,0,84,101.766l.674,1.957.064,1.091-.995,1.476-1.091.257-1.829-.064-.61-.8-2.15.321-.674.257" transform="translate(470.37 7081.869)" fill="#dcd9d8"/>
    <path id="Path_77946" data-name="Path 77946" d="M63.859,87.521l-1.348-3.433L61.1,82.066s.321-.866.738-.866H63.25l1.348.481-.128,2.278-.61,3.561" transform="translate(481.304 7095.249)" fill="#fff"/>
    <path id="Path_77947" data-name="Path 77947" d="M63.912,86.162a27.723,27.723,0,0,1-1.7-3.818s.321-.738.738-.545,1.348.674,1.348.674V81.317L62.212,80.9l-1.412.193,2.374,5.615.481.064" transform="translate(481.508 7095.452)" fill="#dcd9d8"/>
    <path id="Path_77948" data-name="Path 77948" d="M40.1,70.674l-1.7-.193L36.8,70v.545l.77.866L40.041,72.5" transform="translate(497.808 7102.855)" fill="#fff"/>
    <path id="Path_77949" data-name="Path 77949" d="M38.328,72.6a6.6,6.6,0,0,0,2.535.61l.064.738-1.7-.353L38.2,72.857l.128-.257" transform="translate(496.857 7101.089)" fill="#dcd9d8"/>
    <path id="Path_77950" data-name="Path 77950" d="M70.848,74.783a11.964,11.964,0,0,1-2.791-.385c.064-.353-.064-.674.032-.9a2.143,2.143,0,0,1,.963-.193,1.981,1.981,0,0,0-1.059-.128,1.374,1.374,0,0,0-.193-.545c.578-.193,1.957-1.572,2.727-1.123.385.225.545,1.444.545,2.053a1.825,1.825,0,0,1-.225,1.219" transform="translate(476.754 7101.89)" fill="#d33833"/>
    <path id="Path_77951" data-name="Path 77951" d="M70.848,74.783a11.964,11.964,0,0,1-2.791-.385c.064-.353-.064-.674.032-.9a2.143,2.143,0,0,1,.963-.193,1.981,1.981,0,0,0-1.059-.128,1.374,1.374,0,0,0-.193-.545c.578-.193,1.957-1.572,2.727-1.123.385.225.545,1.444.545,2.053a1.825,1.825,0,0,1-.225,1.219Z" transform="translate(476.754 7101.89)" stroke="#d33833" stroke-width="0.816"/>
    <path id="Path_77952" data-name="Path 77952" d="M52.186,73.51v.225c-.321.193-.834.193-1.219.385a3.583,3.583,0,0,1,1.283.321,3.883,3.883,0,0,1-.032.61c-.61.417-1.155,1.027-1.829,1.412a4.579,4.579,0,0,1-1.829.545c-.193-.064-.225-.289-.289-.545a8.733,8.733,0,0,1-.61-2.053c-.032-.963-.128-2.535.9-2.342a9.143,9.143,0,0,1,2.438.9,2.549,2.549,0,0,0,1.187.545" transform="translate(490.443 7101.463)" fill="#d33833"/>
    <path id="Path_77953" data-name="Path 77953" d="M52.186,73.51v.225c-.321.193-.834.193-1.219.385a3.583,3.583,0,0,1,1.283.321,3.883,3.883,0,0,1-.032.61c-.61.417-1.155,1.027-1.829,1.412a4.579,4.579,0,0,1-1.829.545c-.193-.064-.225-.289-.289-.545a8.733,8.733,0,0,1-.61-2.053c-.032-.963-.128-2.535.9-2.342a9.143,9.143,0,0,1,2.438.9,2.549,2.549,0,0,0,1.187.545Z" transform="translate(490.443 7101.463)" stroke="#d33833" stroke-width="0.816"/>
    <path id="Path_77954" data-name="Path 77954" d="M63.247,77.307a3.647,3.647,0,0,1-.16-1.123c1.412-.9,1.668,1.6.16,1.123" transform="translate(479.959 7098.788)" fill="#d33833"/>
    <path id="Path_77955" data-name="Path 77955" d="M63.247,77.307a3.647,3.647,0,0,1-.16-1.123c1.412-.9,1.668,1.6.16,1.123Z" transform="translate(479.959 7098.788)" stroke="#d33833" stroke-width="0.816"/>
    <path id="Path_77956" data-name="Path 77956" d="M68.134,73.59s-.417-.61-.128-.8c.321-.193.61,0,.8-.321s0-.481.064-.866.353-.417.674-.481,1.155-.193,1.283.128l-.353-1.091-.738-.257-2.31,1.348-.128.674v1.348" transform="translate(477.094 7102.923)" fill="#ef3d3a"/>
    <path id="Path_77957" data-name="Path 77957" d="M47.4,76.409c-.064-.963-.16-1.925-.225-2.856-.128-1.444.353-1.187,1.572-1.187a3.4,3.4,0,0,1,1.219.353c.353.674-.545.545.385,1.059.8.417,2.214-.257,1.893-1.219-.16-.225-.93-.064-1.187-.225-.481-.257-.963-.481-1.444-.738-.61-.321-2.021-.77-2.663-.353-1.636,1.123.1,3.914.674,5.1" transform="translate(491.381 7102.125)" fill="#ef3d3a"/>
    <path id="Path_77958" data-name="Path 77958" d="M47.888,17.929c-1.668-.385-2.5.706-3.016,1.829-.449-.1-.289-.738-.16-1.027a2.791,2.791,0,0,1,2.5-1.765c.417.032.963.417.674.963" transform="translate(492.527 7138.883)" fill="#231f20"/>
    <path id="Path_77959" data-name="Path 77959" d="M77.822,25.9h.064a19.586,19.586,0,0,0,1.187,2.31c-.321.738-2.406,1.412-2.374.064.449-.193,1.219-.032,1.636-.289a4.744,4.744,0,0,1-.513-2.085" transform="translate(470.71 7132.806)" fill="#231f20"/>
    <path id="Path_77960" data-name="Path 77960" d="M54.639,26a6.24,6.24,0,0,0,.995,1.829c.225.225.674.481.449,1.123a1.568,1.568,0,0,1-.642.545c-.8.225-2.663.064-2.021-.963.674.032,1.54.417,2.053-.064-.417-.578-1.091-1.765-.834-2.471" transform="translate(486.61 7132.738)" fill="#231f20"/>
    <path id="Path_77961" data-name="Path 77961" d="M68.936,34.022a6.616,6.616,0,0,1-4.492,1.412,1.307,1.307,0,0,1-.16-1.7c.193.353.064,1.027.674,1.155,1.123.193,2.406-.674,3.208-.995.481-.834-.032-1.155-.481-1.7-.93-1.091-2.15-2.471-2.118-4.139.385-.289.417.417.449.545a15.717,15.717,0,0,0,2.567,3.529c.225.225.578.481.61.61.1.449-.289.995-.257,1.283" transform="translate(479.308 7131.389)" fill="#231f20"/>
    <path id="Path_77962" data-name="Path 77962" d="M25.042,39.786c-.385-.225-.481-1.155-.9-1.187-.642-.032-.513,1.219-.513,1.957a2.371,2.371,0,0,1-.193-2.246c-.353-.193-.513.193-.738.321.257-1.861,2.759-.834,2.342,1.155" transform="translate(507.384 7124.823)" fill="#231f20"/>
    <path id="Path_77963" data-name="Path 77963" d="M75.305,49.3a3.449,3.449,0,0,1-2.984,2.278,4.108,4.108,0,0,1,0-1.091A9.223,9.223,0,0,0,75.305,49.3" transform="translate(473.708 7116.914)" fill="#231f20"/>
    <path id="Path_77964" data-name="Path 77964" d="M57.2,51.4a10.534,10.534,0,0,0,4.4.578,5.872,5.872,0,0,1,.064,1.091c-1.829.064-3.978-.385-4.46-1.668" transform="translate(483.953 7115.487)" fill="#231f20"/>
    <path id="Path_77965" data-name="Path 77965" d="M55.661,54.6c.738,1.829,3.208,1.6,5.294,1.572a1.126,1.126,0,0,1-.545.61,5.327,5.327,0,0,1-3.465,0,4.9,4.9,0,0,1-1.283-1.444c-.128-.225-.93-.738,0-.738" transform="translate(485.3 7113.313)" fill="#231f20"/>
    <path id="Path_77966" data-name="Path 77966" d="M73.363,84.052A37.754,37.754,0,0,1,70.7,88.287a20.382,20.382,0,0,0,.674-4.909,1.533,1.533,0,0,1,1.989.674" transform="translate(474.785 7093.872)" fill="#81b0c4"/>
    <path id="Path_77967" data-name="Path 77967" d="M87.835,102.1c-.963.193-1.6,1.123-2.535,1.059a2.988,2.988,0,0,1,2.535-1.059" transform="translate(464.869 7081.054)" fill="#231f20"/>
    <path id="Path_77968" data-name="Path 77968" d="M89.271,106.224a15.942,15.942,0,0,1-2.471.128c.385-.545,1.829-.353,2.471-.128" transform="translate(463.85 7078.406)" fill="#231f20"/>
    <path id="Path_77969" data-name="Path 77969" d="M89.491,109.956c-.866,0-1.957,0-2.791-.064.513-.545,2.214-.193,2.791.064" transform="translate(463.918 7075.957)" fill="#231f20"/>
    <path id="Path_77970" data-name="Path 77970" d="M71.695,121.578a22.2,22.2,0,0,1,.513,3.4,3.55,3.55,0,0,1-1.412.289c-.032-1.027-.193-2.567-.128-3.561.321.064.77-.193,1.027-.128" transform="translate(474.816 7067.833)" fill="#dcd9d8"/>
    <path id="Path_77971" data-name="Path 77971" d="M62.537,71.4c-.449.289-.8.642-1.219.963a2.586,2.586,0,0,1-2.118-.61c0-.032.064-.032.064-.064.995.449,2.246-.193,3.273-.289" transform="translate(482.595 7101.904)" fill="#f0d6b7"/>
    <path id="Path_77972" data-name="Path 77972" d="M53.3,87.37c.289-1.187,1.348-1.8,2.31-2.471a20.361,20.361,0,0,1,2.278,4.492A20.99,20.99,0,0,1,53.3,87.37" transform="translate(486.602 7092.735)" fill="#81b0c4"/>
    <path id="Path_77973" data-name="Path 77973" d="M30.053,39.1c-.032.963.1,2.535.128,3.561a3.676,3.676,0,0,0,1.412-.289,19.3,19.3,0,0,0-.513-3.4c-.257-.1-.706.16-1.027.128ZM20.01,33.58a48.6,48.6,0,0,0,2.182,10.652,13.817,13.817,0,0,0,7.732.128c-.417-1.957-.225-4.331-.481-6.417-.193-1.572-.1-3.144-.353-4.749a27.853,27.853,0,0,0-9.08.385Zm9.754-.321c-.032,1.668.064,3.337.193,5.005.642-.1,1.091-.16,1.668-.289a33.265,33.265,0,0,0-.578-4.877,4.54,4.54,0,0,0-1.283.16Zm3.273-.289a4.822,4.822,0,0,0-.963,0c.128,1.38.481,2.856.578,4.3a3.9,3.9,0,0,0,1.091-.289,8.5,8.5,0,0,0-.706-4.011Zm4.941,4.524a2.091,2.091,0,0,0,1.283-2.6,12.557,12.557,0,0,0-.834-2.856c-.257-.385-.93-.9-1.508-.545-.9.578-2.471.738-3.112,1.444a22.968,22.968,0,0,1,.545,3.946c1.123.064,2.47-.321,3.4.1a10.687,10.687,0,0,0-2.053.513,4.209,4.209,0,0,0,2.278,0Zm-8.919-5.807a20.361,20.361,0,0,0-2.278-4.492c-.963.642-2.053,1.283-2.31,2.471a24.571,24.571,0,0,0,4.588,2.021Zm1.668-4.909a20.848,20.848,0,0,1-.674,4.909,35.053,35.053,0,0,0,2.663-4.235,1.533,1.533,0,0,0-1.989-.674ZM28.834,26.1c-.385-.032-.706.449-1.187.225-.128.128-.225.257-.353.385,1.091,1.315,1.6,3.208,2.438,4.749a20.915,20.915,0,0,0,.513-4.749c-.61.064-.963-.545-1.412-.61Zm-1.187-1.6a3.647,3.647,0,0,0,.16,1.123c1.476.481,1.219-2.021-.16-1.123Zm-1.668-.545a9.143,9.143,0,0,0-2.438-.9c-1.027-.193-.93,1.412-.9,2.342a7.041,7.041,0,0,0,.61,2.053c.064.225.1.481.289.545a5.451,5.451,0,0,0,1.829-.545A17.145,17.145,0,0,0,27.2,26.04a3.883,3.883,0,0,1,.032-.61,3.022,3.022,0,0,0-1.283-.321c.353-.193.9-.193,1.219-.385V24.5a2.889,2.889,0,0,1-1.187-.545Zm-6.1-1.091c-.545.545,1.508,1.283,2.118,1.315,0-.353.193-.674.16-.9a6.711,6.711,0,0,1-2.278-.417Zm6.545.257c0,.064-.064.032-.064.064a2.7,2.7,0,0,0,2.118.61c.417-.289.8-.674,1.219-.963-1.027.1-2.278.738-3.273.289Zm6,1.8c-.032-.61-.193-1.829-.545-2.053-.77-.449-2.15.93-2.727,1.123a2.73,2.73,0,0,1,.193.545,1.493,1.493,0,0,1,1.059.128,2.143,2.143,0,0,0-.963.193c-.064.257.032.578-.032.9a12.214,12.214,0,0,0,2.791.385,2.06,2.06,0,0,0,.225-1.219Zm-13.443-1.54c-.16-.128-1.283-1.572-1.444-1.508A22.877,22.877,0,0,0,11.893,25.4,30.874,30.874,0,0,1,14.3,37.269c1.861.866,3.5,2.118,6.032,2.246-.289-2.053-.545-3.914-.738-5.871-.642-.289-1.54,0-2.15-.064,0-.706.9-.321.995-.8.064-.353-.513-.385-.321-.963.481.16.706.545,1.219.674.449-.995,0-2.727.064-3.561,0-.16.064-.866.417-.738.321.1,0,1.893,0,2.663a4.1,4.1,0,0,0,.193,1.861,62.924,62.924,0,0,1,7.572-.61,19.937,19.937,0,0,1-2.021-.9c-.417-.225-1.7-.706-1.829-1.091-.193-.61.481-.963.61-1.476-1.219.674-1.476-.642-1.765-1.572a12.933,12.933,0,0,1-.481-1.957,26.106,26.106,0,0,1-3.112-1.733Zm12.353-1.348c1.7-.834,2.021,3.08,1.348,4.331.1.385.449.513.61.866-.963,1.7-1.989,3.273-2.984,4.973.706-.449,1.765-.064,2.6-.417.321-.128.545-.834.77-1.412a33.631,33.631,0,0,0,1.636-5.005,5.482,5.482,0,0,0,.193-1.38c-.064-.545-.8-.963-1.187-1.283-.674-.61-1.123-1.155-1.829-1.733-.289.417-.9.706-1.155,1.059ZM15.1,6.95c-.8.9-.642,2.567-.545,3.754a2.192,2.192,0,0,1,3.4,1.636c.706,0,.257-.866.128-1.444-.417-1.8.706-3.754.064-5.39A4.374,4.374,0,0,0,15.1,6.95Zm5.775-5.166c-1.829.513-4.171,1.861-4.941,3.5a14.229,14.229,0,0,1,1.572-.417,2.849,2.849,0,0,0,.738.032c.481-.128.93-1.251,1.283-1.668s.8-.578,1.091-.963c.257-.064.545-.064.545-.353a.259.259,0,0,0-.289-.128Zm9.561.481C28.513,1.174,25.3.372,23.283,1.4c-1.636.834-3.85,2.182-4.588,3.882.706,1.636-.193,3.144-.289,4.845-.032.9.417,1.668.449,2.631-.257.417-.963.449-1.476.417-.16-.866-.481-1.829-1.348-1.925a2.037,2.037,0,0,0-2.214,1.989c-.064,1.283.963,3.369,2.471,3.241.578-.064.706-.61,1.348-.61.353.674-.513.9-.61,1.38a2.937,2.937,0,0,0,.128.834,12.932,12.932,0,0,0,1.444,3.4c.738,1.091,2.214,1.219,3.818,1.348.289-.61,1.315-.545,1.989-.417a6.132,6.132,0,0,1-2.182-1.8,4.552,4.552,0,0,1-1.476-2.663c1.38,1.893,2.471,3.529,4.941,4.363,1.861.61,4.043-.289,5.486-1.283a5.953,5.953,0,0,0,1.38-1.7,14.67,14.67,0,0,0,2.182-8.695,9.284,9.284,0,0,0-.513-3.465c-.449-.9-1.989-1.733-2.92-.9-.193-.995.738-1.54,1.8-1.219a9.617,9.617,0,0,0-2.663-2.791ZM34,31.623c1.508-.738,4.267-1.989,5.2,0a18.254,18.254,0,0,1,.93,2.727c.257,1.059-.289,3.337-1.38,3.69a6.6,6.6,0,0,1-3.273.064,3.6,3.6,0,0,1-.417-.513,4.392,4.392,0,0,0-2.278.385c.064.61-.353.706-.738.834-.289,1.155.578,2.663.385,3.69-.128.738-1.059.866-1.733.995a6.23,6.23,0,0,0,.064,1.123,1.632,1.632,0,0,1-1.508.963c-2.182.257-5.454.385-7.54-.385-.578-1.444-1.027-3.144-1.508-4.781-2.021.225-3.69-.866-5.23-1.6-.545-.257-1.283-.385-1.476-.834a6.848,6.848,0,0,1-.16-1.957,29.331,29.331,0,0,0-.738-5.711c-.225-.9-.61-1.636-.9-2.5a19.49,19.49,0,0,1-.834-2.535c-.16-1.155.93-1.219,1.6-1.733,1.091-.77,1.925-1.219,3.08-1.925a7.2,7.2,0,0,0,1.508-.963c.225-.481-.417-1.155-.578-1.54a4.2,4.2,0,0,1-.449-1.7,3.381,3.381,0,0,1-2.182-1.38,5.35,5.35,0,0,1-.61-4.62,4.027,4.027,0,0,0,.353-.545,5.537,5.537,0,0,0-.16-1.219c-.064-1.989.353-3.69,1.668-4.3.545-2.182,2.5-2.888,4.331-3.946A12.474,12.474,0,0,1,21.647.436c2.823-.93,7.123-.738,9.465,1.027a11.913,11.913,0,0,1,3.112,3.465c1.508,3.016,1.38,8.021.353,11.679a13.225,13.225,0,0,1-.61,1.8c-.193.417-.8,1.219-.738,1.6s1.412,1.38,1.7,1.636c.513.481,1.476,1.155,1.572,1.765a5.974,5.974,0,0,1-.481,2.214c-.674,2.15-1.315,4.107-2.021,6Z" transform="translate(515.432 7150.473)" fill="#231f20"/>
    <path id="Path_77974" data-name="Path 77974" d="M51.911,52.492c.064-.1.513-.289,1.155.032,0,0-.738.128-.674,1.348l-.321-.064c.032.032-.321-1.091-.16-1.315" transform="translate(487.574 7114.845)" fill="#f7e4cd"/>
    <path id="Path_77975" data-name="Path 77975" d="M67.306,84.953a.353.353,0,1,1-.353-.353.407.407,0,0,1,.353.353" transform="translate(477.569 7092.939)" fill="#1d1919"/>
    <path id="Path_77976" data-name="Path 77976" d="M68.306,89.853a.353.353,0,1,1-.353-.353c.225.032.353.16.353.353" transform="translate(476.89 7089.611)" fill="#1d1919"/>
  </g>
</svg>
