<svg width="55" height="55" viewBox="0 0 55 55" fill="none" xmlns="http://www.w3.org/2000/svg">
<g clip-path="url(#clip0_382_32)">
<path d="M7.93004 18.0899C7.41388 18.4792 6.95543 18.9396 6.56836 19.4574L7.10116 20.4611C7.44699 19.9599 7.82796 19.4839 8.24119 19.0367C8.26879 19.0058 8.28635 18.9882 8.28635 18.9882C8.27213 19.0058 8.2554 19.0191 8.24119 19.0367C7.84738 19.4908 7.48997 19.9752 7.17225 20.4854C7.86717 20.4355 8.55899 20.3492 9.24488 20.2269C9.32313 19.9501 9.34591 19.6605 9.31189 19.3749C9.27787 19.0893 9.18773 18.8131 9.04665 18.5625C9.04665 18.5625 8.53226 17.7311 7.93004 18.0899Z" fill="url(#paint0_linear_382_32)"/>
<path d="M6.13342 26.5351C6.064 26.5493 5.99458 26.5594 5.92432 26.5703C5.95945 26.5703 5.99709 26.5602 6.03222 26.5527C6.06627 26.5488 6.10006 26.543 6.13342 26.5351Z" fill="#BE202E"/>
<path opacity="0.35" d="M6.13342 26.5351C6.064 26.5493 5.99458 26.5594 5.92432 26.5703C5.95945 26.5703 5.99709 26.5602 6.03222 26.5527C6.06627 26.5488 6.10006 26.543 6.13342 26.5351Z" fill="#BE202E"/>
<path d="M6.31827 25.6544C6.3283 25.6544 6.33918 25.6544 6.34922 25.6544C6.39438 25.6477 6.43955 25.6402 6.48137 25.6301C6.42951 25.6402 6.37347 25.6477 6.31409 25.6577L6.31827 25.6544Z" fill="#BE202E"/>
<path opacity="0.35" d="M6.31827 25.6544C6.3283 25.6544 6.33918 25.6544 6.34922 25.6544C6.39438 25.6477 6.43955 25.6402 6.48137 25.6301C6.42951 25.6402 6.37347 25.6477 6.31409 25.6577L6.31827 25.6544Z" fill="#BE202E"/>
<path d="M5.53119 23.0607C5.69457 22.7579 5.85823 22.4621 6.02216 22.1732C6.18945 21.8738 6.36677 21.5878 6.54408 21.3025C6.55412 21.285 6.56499 21.2674 6.57503 21.254C6.749 20.9788 6.92298 20.7145 7.10113 20.4603L6.56834 19.4566C6.52987 19.5051 6.4847 19.5544 6.44622 19.6063C6.29316 19.7978 6.13257 20.0036 5.96947 20.2227C5.78462 20.4737 5.59726 20.7313 5.40238 21.0064C5.22506 21.2574 5.04356 21.5284 4.86289 21.8035C4.70983 22.0403 4.55677 22.2803 4.4037 22.5279L4.38614 22.5555L5.07869 23.9239C5.23175 23.6353 5.38147 23.3467 5.53119 23.0607Z" fill="url(#paint1_linear_382_32)"/>
<path d="M2.37371 30.7791C2.28338 31.03 2.18887 31.2876 2.09853 31.5519C2.09853 31.5519 2.09853 31.5586 2.09853 31.562C2.08431 31.6004 2.07093 31.6347 2.06006 31.6732C1.99733 31.8505 1.94547 32.0078 1.82001 32.3733C2.05143 32.5223 2.23315 32.7369 2.34193 32.9897C2.3269 32.6956 2.19682 32.4192 1.97976 32.2202C2.41643 32.2912 2.86423 32.2404 3.27388 32.0734C3.68354 31.9063 4.03917 31.6295 4.30164 31.2734C4.34012 31.2073 4.37859 31.1379 4.41289 31.0643C4.30283 31.2002 4.15797 31.3037 3.99375 31.3638C3.82952 31.4239 3.65207 31.4383 3.48029 31.4055C4.04506 31.196 4.52371 30.8039 4.8403 30.2914C4.91306 30.1727 4.98667 30.0405 5.05944 29.9017C4.80219 30.1839 4.47575 30.394 4.1124 30.5114C3.74904 30.6287 3.36134 30.6492 2.98764 30.5708L2.42724 30.6335C2.40801 30.6812 2.39044 30.7306 2.37371 30.7791Z" fill="url(#paint2_linear_382_32)"/>
<path d="M2.6347 29.522C2.75682 29.2083 2.88563 28.8921 3.00691 28.5718C3.12903 28.2657 3.25783 27.9587 3.38329 27.6517C3.50876 27.3448 3.64426 27.032 3.77641 26.7225C3.90856 26.413 4.05159 26.0927 4.19462 25.779C4.33764 25.4654 4.47983 25.1592 4.62286 24.8531C4.67472 24.7419 4.72741 24.634 4.78261 24.5185C4.87295 24.3303 4.96746 24.1422 5.06114 23.9548C5.06114 23.9448 5.07118 23.9339 5.07536 23.9239L4.39117 22.5597C4.38074 22.5791 4.36901 22.5978 4.35604 22.6157C4.19629 22.88 4.03235 23.1485 3.87594 23.4237C3.71953 23.6989 3.55894 23.9841 3.40588 24.2735C3.27707 24.5169 3.15495 24.7611 3.02615 25.0078C3.00189 25.0564 2.97763 25.109 2.95338 25.1576C2.80366 25.467 2.66482 25.7707 2.5427 26.0592C2.40385 26.3863 2.28174 26.6999 2.17384 26.996C2.10442 27.1909 2.03834 27.3791 1.97896 27.5597C1.93045 27.7128 1.88528 27.8692 1.84011 28.0231C1.73556 28.3853 1.64857 28.7474 1.57581 29.1104L2.2717 30.4855C2.36203 30.2346 2.45989 29.9912 2.55357 29.7369C2.5795 29.665 2.6071 29.5947 2.6347 29.522Z" fill="url(#paint3_linear_382_32)"/>
<path d="M1.56242 29.1565C1.47493 29.5908 1.41459 30.0303 1.38175 30.4721C1.38175 30.4864 1.38175 30.5031 1.38175 30.5173C1.16221 30.24 0.891646 30.0072 0.584653 29.8314C0.994266 30.3523 1.26274 30.9699 1.36419 31.6247C1.06264 31.6508 0.759427 31.5993 0.483447 31.475C0.691875 31.688 0.950843 31.8449 1.23622 31.9308C0.846628 32.0055 0.485153 32.186 0.191539 32.4528C0.574048 32.2587 1.00468 32.18 1.4311 32.2261C0.954347 33.5736 0.477592 35.0632 0 36.644C0.0659726 36.6248 0.126202 36.5897 0.175364 36.5417C0.224527 36.4937 0.261107 36.4343 0.281871 36.3689C0.365512 36.0836 0.9326 34.2034 1.81753 31.7351C1.84178 31.6657 1.86938 31.5963 1.89448 31.5227C1.90117 31.5018 1.9087 31.4842 1.91539 31.4633C2.00962 31.2057 2.1072 30.9411 2.20813 30.6695C2.23239 30.6068 2.2533 30.5474 2.27755 30.4847L1.58166 29.1096C1.57533 29.1253 1.57057 29.1415 1.56744 29.1581L1.56242 29.1565Z" fill="url(#paint4_linear_382_32)"/>
<path d="M5.19078 24.0426C5.16987 24.0844 5.15231 24.1263 5.1314 24.1647C5.07201 24.2902 5.00928 24.4157 4.95074 24.5445C4.89219 24.6733 4.81858 24.8263 4.74916 24.9727C4.71403 25.0455 4.67974 25.1191 4.64461 25.1952C4.54006 25.4219 4.4355 25.6544 4.32761 25.8953C4.19545 26.1914 4.0633 26.4975 3.92696 26.8153C3.79816 27.1181 3.666 27.4351 3.53385 27.7588C3.40839 28.0683 3.28293 28.3853 3.15077 28.7165C3.03619 29.0092 2.92076 29.312 2.80283 29.6215C2.79613 29.6357 2.79279 29.6524 2.78526 29.6667C2.67067 29.9728 2.5519 30.2898 2.43397 30.6135C2.4302 30.6199 2.42791 30.627 2.42728 30.6344L2.98767 30.5717C2.97764 30.5717 2.96676 30.5717 2.95254 30.565C3.77416 30.3985 4.5223 29.977 5.09042 29.3605C5.37155 29.0523 5.61576 28.7124 5.81809 28.3476C5.99533 28.0317 6.15233 27.7048 6.28816 27.369C6.41697 27.0554 6.53908 26.7141 6.66036 26.3453C6.4939 26.4288 6.31694 26.4896 6.13426 26.5259L6.02971 26.5468C5.99458 26.5535 5.96029 26.5569 5.92181 26.5644C6.50619 26.3258 6.97456 25.8689 7.22745 25.2905C6.99892 25.4468 6.74383 25.5602 6.47468 25.6251C6.43286 25.6351 6.39104 25.6427 6.34253 25.6494C6.33249 25.6494 6.32162 25.6494 6.3074 25.6494C6.50678 25.5691 6.6951 25.4637 6.86779 25.3357C6.90204 25.3098 6.93471 25.2819 6.96565 25.2521C7.01416 25.2102 7.05933 25.1684 7.1045 25.1199C7.1321 25.089 7.16054 25.0605 7.18814 25.0296C7.25275 24.9546 7.31095 24.8743 7.36211 24.7895C7.37968 24.7619 7.39724 24.7377 7.41063 24.7059C7.43154 24.6641 7.45245 24.6222 7.47001 24.5871C7.55365 24.4131 7.62642 24.2526 7.68246 24.1171C7.71006 24.0476 7.73432 23.9849 7.75523 23.9255C7.76192 23.9013 7.77279 23.8803 7.77948 23.8561C7.80039 23.79 7.8213 23.7306 7.83552 23.6788C7.85278 23.618 7.86674 23.5563 7.87734 23.4939C7.85503 23.5128 7.83061 23.5291 7.80458 23.5424C7.56191 23.6693 7.30129 23.7585 7.03173 23.8067C7.03015 23.8061 7.02844 23.8057 7.02671 23.8057C7.02498 23.8057 7.02328 23.8061 7.02169 23.8067C6.99357 23.81 6.96565 23.8147 6.93805 23.821C6.93805 23.821 6.94809 23.821 6.95227 23.8143L5.19078 24.0058C5.19078 24.02 5.19078 24.0267 5.19078 24.0301V24.0426Z" fill="url(#paint5_linear_382_32)"/>
<path d="M7.17478 20.4846C7.01837 20.7246 6.84774 20.9998 6.6629 21.3059C6.65241 21.3213 6.64319 21.3375 6.6353 21.3544C6.47554 21.6221 6.30826 21.9148 6.13345 22.2385C5.98038 22.517 5.81979 22.8131 5.65335 23.1368C5.50697 23.4153 5.3606 23.7114 5.20419 24.0243L6.96568 23.8327C7.35417 23.6792 7.68935 23.4155 7.93006 23.0741C7.98945 22.9904 8.04883 22.9001 8.10738 22.8064C8.29419 22.5148 8.46616 22.2138 8.62261 21.9048C8.76758 21.6252 8.89769 21.3382 9.01238 21.045C9.07231 20.8921 9.12451 20.7363 9.16879 20.5782C9.19974 20.4561 9.22483 20.3415 9.24574 20.2303C8.56014 20.3498 7.86894 20.4347 7.17478 20.4846Z" fill="url(#paint6_linear_382_32)"/>
<path d="M6.03639 26.556C6.00126 26.5627 5.96697 26.5661 5.9285 26.5736C5.96412 26.5658 6.00013 26.5599 6.03639 26.556Z" fill="#BE202E"/>
<path opacity="0.35" d="M6.03639 26.556C6.00126 26.5627 5.96697 26.5661 5.9285 26.5736C5.96412 26.5658 6.00013 26.5599 6.03639 26.556Z" fill="#BE202E"/>
<path d="M6.03639 26.556C6.00126 26.5627 5.96697 26.5661 5.9285 26.5736C5.96412 26.5658 6.00013 26.5599 6.03639 26.556Z" fill="url(#paint7_linear_382_32)"/>
<path d="M7.12454 23.8009V24.0518H7.05261V23.8009H6.96228V23.7398H7.21322V23.8009H7.12454Z" fill="#B0AFB0"/>
<path d="M7.54693 23.8569L7.46328 24.0293H7.42231L7.33867 23.8569V24.056H7.27008V23.7407H7.36542L7.44906 23.913L7.53271 23.7407H7.62807V24.056H7.55949V23.8569H7.54693Z" fill="#B0AFB0"/>
<path d="M10.0169 36.148C9.75821 36.1502 9.49969 36.1343 9.24323 36.1003C9.05324 36.079 8.86489 36.0449 8.67947 35.9983V34.2469C8.84676 34.2831 9.02324 34.3149 9.20892 34.3422C9.4067 34.3706 9.60633 34.3843 9.80614 34.3832C10.0006 34.3849 10.1945 34.3621 10.3832 34.3154C10.556 34.2744 10.7165 34.193 10.8517 34.0779C10.9931 33.9611 11.1008 33.8086 11.1636 33.6363C11.247 33.4129 11.2862 33.1754 11.279 32.937V23.3057H13.3835V32.8701C13.3954 33.3727 13.3102 33.8728 13.1325 34.343C12.985 34.7321 12.7477 35.0809 12.44 35.361C12.1367 35.6375 11.7747 35.8417 11.3811 35.9581C10.9384 36.0892 10.4786 36.1532 10.0169 36.148Z" fill="#D22128"/>
<path d="M14.5117 23.3074V33.2298H16.3928V28.6128C16.3928 28.4865 16.3929 28.3443 16.3845 28.1854C16.3761 28.0265 16.3803 27.8625 16.3711 27.6911C16.3619 27.5196 16.3611 27.3456 16.3519 27.1692C16.3427 26.9927 16.3393 26.8204 16.3301 26.6531C16.3117 26.2628 16.2891 25.8599 16.2624 25.4445H16.3243L18.4989 33.229H20.4319L22.7805 25.4579H22.8349C22.8215 25.8694 22.8073 26.2642 22.7889 26.6447C22.7847 26.8078 22.7764 26.9793 22.7672 27.1466C22.758 27.3138 22.758 27.487 22.7538 27.6551C22.7496 27.8232 22.7445 27.9813 22.7404 28.131C22.7362 28.2807 22.7404 28.4137 22.7404 28.5308V33.229H24.7026V23.3074H21.8379L19.557 30.8945H19.5169L17.3731 23.3074H14.5117ZM34.2135 24.0267L33.6163 25.6268L32.4787 26.3219V27.1976H33.4682V30.8544C33.4567 31.2688 33.5161 31.682 33.6439 32.0764C33.7482 32.3688 33.9185 32.6333 34.1415 32.8492C34.3521 33.0414 34.6061 33.1798 34.8818 33.2524C35.1821 33.3307 35.4915 33.3689 35.8018 33.3661C36.1172 33.3692 36.4318 33.3356 36.7394 33.2658C36.9904 33.215 37.2338 33.1324 37.4638 33.0199V31.4792C37.2794 31.5446 37.0918 31.6005 36.9017 31.6465C36.7123 31.6926 36.5179 31.7154 36.3229 31.7142C36.2186 31.7188 36.1144 31.7025 36.0164 31.6663C35.9185 31.6301 35.8287 31.5747 35.7525 31.5034C35.6742 31.4152 35.6147 31.3119 35.5776 31.1998C35.5405 31.0878 35.5266 30.9694 35.5367 30.8519V27.1951H37.3827V25.641H35.5367V24.0242H34.2126L34.2135 24.0267ZM28.8997 25.4997C28.4178 25.4935 27.939 25.5787 27.4887 25.7506C27.0728 25.9138 26.7005 26.1715 26.4014 26.5034C26.0847 26.8652 25.8464 27.2887 25.7013 27.7471C25.5241 28.3108 25.4394 28.8994 25.4504 29.4902C25.439 30.0748 25.5313 30.6567 25.723 31.209C25.8891 31.6636 26.1529 32.0762 26.4959 32.4176C26.833 32.7379 27.2361 32.9805 27.6769 33.1286C28.1603 33.2912 28.6675 33.3715 29.1774 33.3661C29.4576 33.3661 29.7152 33.3561 29.9502 33.3335C30.1722 33.3176 30.3927 33.286 30.6102 33.239C30.8051 33.1947 30.9973 33.1388 31.1857 33.0717C31.3746 33.0029 31.5587 32.9215 31.7369 32.8283V31.2258C31.5378 31.3256 31.3426 31.4139 31.1514 31.4909C30.9621 31.5631 30.7688 31.6246 30.5726 31.6749C30.3741 31.7258 30.1727 31.7646 29.9695 31.7912C29.7531 31.814 29.5356 31.8249 29.3179 31.8238C29.0654 31.8285 28.8142 31.7854 28.5777 31.6967C28.3703 31.6142 28.1825 31.4891 28.0265 31.3295C27.8721 31.1567 27.7528 30.9556 27.6752 30.7373C27.5906 30.4836 27.5449 30.2185 27.5397 29.9511H32.1668V28.9474C32.1758 28.4492 32.0979 27.9534 31.9367 27.482C31.8023 27.076 31.5798 26.7047 31.2852 26.3946C30.9973 26.096 30.6439 25.8684 30.253 25.7297C29.8195 25.5709 29.3614 25.4929 28.8997 25.4997ZM41.3623 25.4997C40.8803 25.4935 40.4016 25.5787 39.9513 25.7506C39.5354 25.9138 39.1631 26.1715 38.8639 26.5034C38.5473 26.8652 38.3089 27.2887 38.1638 27.7471C37.9866 28.3108 37.9019 28.8994 37.9129 29.4902C37.9015 30.0748 37.9938 30.6567 38.1856 31.209C38.3516 31.6636 38.6154 32.0762 38.9584 32.4176C39.2955 32.7379 39.6986 32.9806 40.1394 33.1286C40.6228 33.2912 41.13 33.3715 41.64 33.3661C41.9202 33.3661 42.1778 33.3561 42.4128 33.3335C42.6348 33.3176 42.8553 33.286 43.0728 33.239C43.2677 33.1946 43.4598 33.1388 43.6482 33.0717C43.8371 33.0029 44.0212 32.9215 44.1994 32.8283V31.2258C44.0003 31.3256 43.8051 31.4139 43.6139 31.4909C43.4246 31.5631 43.2314 31.6245 43.0351 31.6749C42.8366 31.7258 42.6352 31.7646 42.4321 31.7912C42.2156 31.814 41.9981 31.8249 41.7805 31.8238C41.528 31.8285 41.2768 31.7854 41.0403 31.6967C40.8336 31.6142 40.6466 31.4891 40.4916 31.3295C40.3364 31.1569 40.2163 30.9557 40.1378 30.7373C40.0532 30.4836 40.0075 30.2185 40.0023 29.9511H44.6293V28.9474C44.6383 28.4492 44.5605 27.9534 44.3993 27.482C44.2648 27.076 44.0423 26.7047 43.7477 26.3946C43.4599 26.096 43.1065 25.8684 42.7156 25.7297C42.2823 25.571 41.8237 25.493 41.3623 25.4997ZM49.1409 25.4997C48.9113 25.4961 48.6825 25.528 48.4626 25.5942C48.2732 25.6501 48.0943 25.7369 47.9331 25.851C47.7755 25.965 47.6347 26.1007 47.5149 26.2541C47.3826 26.4197 47.2643 26.5959 47.1611 26.7811H47.0583L46.753 25.6435H45.1855V33.2306H47.2556V29.3681C47.2482 29.0621 47.292 28.7571 47.3853 28.4656C47.461 28.24 47.5888 28.0354 47.7583 27.8684C47.9225 27.7132 48.1208 27.5987 48.3371 27.5338C48.5767 27.4636 48.8253 27.429 49.0749 27.431C49.12 27.431 49.1769 27.431 49.2421 27.4393C49.3098 27.4393 49.3774 27.4438 49.4445 27.4527C49.5173 27.4569 49.5867 27.4652 49.6503 27.4744C49.7139 27.4836 49.7624 27.4929 49.7992 27.5012V25.5574C49.7596 25.5466 49.7189 25.5402 49.6779 25.5382C49.6225 25.5279 49.5667 25.5207 49.5106 25.5164C49.4481 25.5071 49.3849 25.5027 49.3216 25.503C49.258 25.4988 49.1978 25.498 49.1434 25.498L49.1409 25.4997ZM28.9098 26.9726C29.1068 26.9679 29.3022 27.0094 29.4802 27.0939C29.6406 27.1719 29.7804 27.2865 29.8884 27.4284C30.0013 27.5783 30.084 27.7488 30.1318 27.9303C30.1884 28.1384 30.2185 28.3528 30.2213 28.5685H27.5807C27.5762 28.1287 27.722 27.7005 27.9939 27.3548C28.1111 27.2297 28.2537 27.1308 28.412 27.0649C28.5703 26.999 28.7409 26.9676 28.9123 26.9726H28.9098ZM41.3723 26.9726C41.5693 26.9679 41.7647 27.0094 41.9427 27.0939C42.1031 27.1719 42.243 27.2865 42.3509 27.4284C42.4638 27.5784 42.5464 27.7488 42.5943 27.9303C42.651 28.1384 42.681 28.3528 42.6838 28.5685H40.0433C40.0388 28.1287 40.1846 27.7006 40.4565 27.3548C40.5738 27.2295 40.7164 27.1307 40.8749 27.0648C41.0334 26.9989 41.2041 26.9674 41.3757 26.9726H41.3723Z" fill="url(#paint8_linear_382_32)"/>
<path d="M51.8852 25.4806H51.4252V23.6873H50.8781V23.3034H52.4297V23.6873H51.8844V25.4806" fill="url(#paint9_linear_382_32)"/>
<path d="M53.6408 25.4804L53.1624 23.7725H53.149C53.1551 23.8639 53.1602 23.9523 53.1641 24.0376C53.1641 24.0744 53.1655 24.1121 53.1682 24.1506C53.171 24.189 53.1724 24.2272 53.1724 24.2651C53.1724 24.3031 53.1724 24.3393 53.1724 24.3739C53.1724 24.4084 53.1724 24.4397 53.1724 24.4676V25.4804H52.7601V23.3058H53.3882L53.8608 24.9677H53.87L54.3718 23.3024H55V25.4771H54.5692V24.3613C54.5692 24.3284 54.5692 24.2936 54.5692 24.2568V24.1447C54.5692 24.1068 54.5706 24.07 54.5734 24.0343C54.5773 23.9506 54.5807 23.8637 54.5835 23.7733H54.5718L54.0565 25.4788H53.6316" fill="url(#paint10_linear_382_32)"/>
<path d="M11.2514 21.7793L12.7377 18.2279H13.0238L14.5068 21.7793H14.1329L13.6712 20.6702H12.0812L11.6261 21.7793H11.2514ZM12.8824 18.6377L12.1531 20.3942H13.5942L12.8824 18.6377Z" fill="#D22128"/>
<path d="M14.8907 21.7793V18.2279H16.3619C16.6469 18.2426 16.9153 18.3669 17.1107 18.5748C17.3062 18.7828 17.4137 19.0583 17.4108 19.3437C17.418 19.4845 17.3973 19.6253 17.35 19.7582C17.3026 19.891 17.2296 20.0131 17.1349 20.1176C17.0403 20.2222 16.9259 20.307 16.7984 20.3672C16.671 20.4274 16.5328 20.4619 16.392 20.4687H15.2369V21.7802L14.8907 21.7793ZM15.2378 20.1575H16.3745C16.4735 20.1503 16.5701 20.1233 16.6587 20.0783C16.7472 20.0333 16.8259 19.9711 16.8902 19.8953C16.9544 19.8196 17.0029 19.7318 17.0328 19.6371C17.0628 19.5423 17.0735 19.4426 17.0645 19.3437C17.0741 19.1419 17.004 18.9444 16.8692 18.7938C16.7345 18.6433 16.546 18.5518 16.3443 18.5391H15.2369L15.2378 20.1575Z" fill="#D22128"/>
<path d="M17.2176 21.7793L18.7039 18.2279H18.9899L20.4762 21.7793H20.0931L19.6323 20.6702H18.0414L17.5839 21.7793H17.2176ZM18.8486 18.6377L18.1192 20.3942H19.5604L18.8486 18.6377Z" fill="#D22128"/>
<path d="M22.1533 18.207C22.4234 18.1953 22.6911 18.2623 22.9239 18.3998C23.1567 18.5372 23.3446 18.7393 23.4647 18.9815L23.1846 19.1488C23.0898 18.9533 22.9402 18.7896 22.7539 18.6777C22.5676 18.5659 22.3528 18.5107 22.1357 18.519C21.9517 18.5271 21.7713 18.572 21.6049 18.651C21.4386 18.73 21.2898 18.8415 21.1673 18.979C21.0447 19.1164 20.9509 19.277 20.8914 19.4512C20.8319 19.6255 20.8079 19.8099 20.8209 19.9936C20.8038 20.367 20.9332 20.7324 21.1817 21.0118C21.4301 21.2911 21.7778 21.4624 22.1507 21.4891C22.3766 21.4924 22.5988 21.4323 22.7922 21.3156C22.9856 21.199 23.1424 21.0304 23.2448 20.8291L23.5342 20.9797C23.3999 21.2344 23.1973 21.4467 22.9491 21.5927C22.7009 21.7387 22.4169 21.8126 22.129 21.8061C21.6695 21.7743 21.24 21.5661 20.9304 21.2251C20.6209 20.884 20.4551 20.4364 20.4679 19.976C20.4606 19.7487 20.4987 19.5223 20.5798 19.3099C20.6609 19.0975 20.7834 18.9033 20.9402 18.7387C21.0971 18.574 21.2851 18.4423 21.4933 18.351C21.7016 18.2597 21.9259 18.2108 22.1533 18.207Z" fill="#D22128"/>
<path d="M26.8238 18.2279V21.7793H26.4742V20.1182H24.3697V21.7793H24.026V18.2279H24.3697V19.8079H26.4742V18.2279H26.8238Z" fill="#D22128"/>
<path d="M30.0122 21.469V21.7793H27.6276V18.2279H29.9695V18.5382H27.9738V19.8196H29.7136V20.1149H27.9738V21.4682L30.0122 21.469Z" fill="#D22128"/>
</g>
<defs>
<linearGradient id="paint0_linear_382_32" x1="-272.467" y1="-10.5668" x2="-270.144" y2="-7.24948" gradientUnits="userSpaceOnUse">
<stop stop-color="#F69923"/>
<stop offset="0.312" stop-color="#F79A23"/>
<stop offset="0.838" stop-color="#E97826"/>
</linearGradient>
<linearGradient id="paint1_linear_382_32" x1="-289.178" y1="-10.9075" x2="-270.393" y2="-10.9075" gradientUnits="userSpaceOnUse">
<stop offset="0.323" stop-color="#9E2064"/>
<stop offset="0.63" stop-color="#C92037"/>
<stop offset="0.751" stop-color="#CD2335"/>
<stop offset="1" stop-color="#E97826"/>
</linearGradient>
<linearGradient id="paint2_linear_382_32" x1="-286.807" y1="-9.01688" x2="-275.614" y2="-9.01688" gradientUnits="userSpaceOnUse">
<stop stop-color="#282662"/>
<stop offset="0.095" stop-color="#662E8D"/>
<stop offset="0.788" stop-color="#9F2064"/>
<stop offset="0.949" stop-color="#CD2032"/>
</linearGradient>
<linearGradient id="paint3_linear_382_32" x1="-287.949" y1="-11.0856" x2="-269.174" y2="-11.0856" gradientUnits="userSpaceOnUse">
<stop offset="0.323" stop-color="#9E2064"/>
<stop offset="0.63" stop-color="#C92037"/>
<stop offset="0.751" stop-color="#CD2335"/>
<stop offset="1" stop-color="#E97826"/>
</linearGradient>
<linearGradient id="paint4_linear_382_32" x1="-286.894" y1="-10.8077" x2="-277.016" y2="-10.8077" gradientUnits="userSpaceOnUse">
<stop stop-color="#282662"/>
<stop offset="0.095" stop-color="#662E8D"/>
<stop offset="0.788" stop-color="#9F2064"/>
<stop offset="0.949" stop-color="#CD2032"/>
</linearGradient>
<linearGradient id="paint5_linear_382_32" x1="-288.078" y1="-9.17367" x2="-269.297" y2="-9.17367" gradientUnits="userSpaceOnUse">
<stop offset="0.323" stop-color="#9E2064"/>
<stop offset="0.63" stop-color="#C92037"/>
<stop offset="0.751" stop-color="#CD2335"/>
<stop offset="1" stop-color="#E97826"/>
</linearGradient>
<linearGradient id="paint6_linear_382_32" x1="-289.315" y1="-9.2223" x2="-270.526" y2="-9.2223" gradientUnits="userSpaceOnUse">
<stop offset="0.323" stop-color="#9E2064"/>
<stop offset="0.63" stop-color="#C92037"/>
<stop offset="0.751" stop-color="#CD2335"/>
<stop offset="1" stop-color="#E97826"/>
</linearGradient>
<linearGradient id="paint7_linear_382_32" x1="-288.101" y1="-8.87124" x2="-269.317" y2="-8.87124" gradientUnits="userSpaceOnUse">
<stop offset="0.323" stop-color="#9E2064"/>
<stop offset="0.63" stop-color="#C92037"/>
<stop offset="0.751" stop-color="#CD2335"/>
<stop offset="1" stop-color="#E97826"/>
</linearGradient>
<linearGradient id="paint8_linear_382_32" x1="14.5117" y1="23.3074" x2="49.7992" y2="23.3074" gradientUnits="userSpaceOnUse">
<stop/>
<stop offset="1"/>
</linearGradient>
<linearGradient id="paint9_linear_382_32" x1="50.8781" y1="23.3034" x2="52.4297" y2="23.3034" gradientUnits="userSpaceOnUse">
<stop stop-color="#4D4D4D"/>
<stop offset="1" stop-color="#4D4D4D"/>
</linearGradient>
<linearGradient id="paint10_linear_382_32" x1="52.7601" y1="23.3024" x2="55" y2="23.3024" gradientUnits="userSpaceOnUse">
<stop stop-color="#4D4D4D"/>
<stop offset="1" stop-color="#4D4D4D"/>
</linearGradient>
<clipPath id="clip0_382_32">
<rect width="55" height="55" fill="white"/>
</clipPath>
</defs>
</svg>
