<svg width="55" height="55" viewBox="0 0 55 55" fill="none" xmlns="http://www.w3.org/2000/svg">
<g clip-path="url(#clip0_383_240)">
<path d="M9.82695 27.683L8.8 26.6578C5.5 23.3578 4.54609 18.7378 5.72 14.5578C2.42 13.823 0 10.89 0 7.37C0 3.33695 3.3 0.036953 7.33305 0.036953C11 0.036953 14.0078 2.67695 14.5922 6.19609C18.5522 5.24219 22.8791 6.34219 25.9591 9.42305L26.3991 9.86305L20.9722 15.29L20.5322 14.85C18.7722 13.09 15.9122 13.09 14.1522 14.85C12.3922 16.61 12.3922 19.47 14.1522 21.23L26.327 33.4039L20.9 38.8309L15.18 33.1109L9.82695 27.683Z" fill="#7AC143"/>
<path d="M15.913 21.67L28.0869 9.4961C31.313 6.27 36.0078 5.24219 40.113 6.41695C40.6261 2.82477 43.7052 0.109142 47.373 0.109142C51.4061 0.109142 54.7061 3.40914 54.7061 7.44219C54.7061 11.1822 51.9191 14.2622 48.3261 14.7022C49.4991 18.81 48.4722 23.4291 45.2461 26.6561L44.8061 27.0961L39.5261 21.6691L39.9661 21.2291C41.7261 19.4691 41.7261 16.6091 39.9661 14.8491C38.2061 13.0891 35.3461 13.0891 33.5861 14.8491L21.413 27.023L15.913 21.67Z" fill="#F9A541"/>
<path d="M40.333 49.023C36.153 50.2691 31.46 49.3152 28.16 46.0152L27.72 45.5752L33.147 40.1483L33.587 40.5883C35.347 42.3483 38.207 42.3483 39.967 40.5883C41.727 38.8283 41.727 35.9683 39.967 34.2083L27.7922 22.037L33.2191 16.61L45.4652 28.8561C48.5452 31.9361 49.6452 36.3361 48.6922 40.3691C52.2844 40.8822 55 43.9613 55 47.6291C55 51.6622 51.7 54.9622 47.667 54.9622C44 54.8891 40.9939 52.3222 40.3339 49.0222L40.333 49.023Z" fill="#F44321"/>
<path d="M38.2078 33.77L26.033 45.9422C22.8791 49.0961 18.4791 50.1222 14.52 49.1691C13.787 52.4691 10.853 54.8891 7.33305 54.8891C3.3 54.89 0 51.59 0 47.5578C0 44.1117 2.42 41.1778 5.64609 40.4448C4.61914 36.337 5.64609 31.937 8.8 28.7848L9.24 28.3448L14.667 33.7717L14.227 34.2117C12.467 35.9717 12.467 38.8317 14.227 40.5917C15.987 42.3517 18.847 42.3517 20.607 40.5917L32.78 28.4187L38.2078 33.77Z" fill="#5091CD"/>
</g>
<defs>
<clipPath id="clip0_383_240">
<rect width="55" height="55" fill="white"/>
</clipPath>
</defs>
</svg>
