<svg xmlns="http://www.w3.org/2000/svg" width="50" height="48.688" viewBox="0 0 50 48.688">
  <g id="kubernetes-seeklogo.com" transform="translate(-0.531 -0.165)">
    <path id="Path_75215" data-name="Path 75215" d="M19.729,51a3.813,3.813,0,0,1-3.007-1.455L5.407,35.482a3.8,3.8,0,0,1-.744-3.3L8.7,14.629a3.825,3.825,0,0,1,2.1-2.619L27.165,4.187a3.836,3.836,0,0,1,3.362,0l16.359,7.791a3.825,3.825,0,0,1,2.1,2.619l4.041,17.555a3.9,3.9,0,0,1-.744,3.3L40.969,49.513a3.914,3.914,0,0,1-3.007,1.455L19.729,51Z" transform="translate(-3.233 -2.922)" fill="#326de6"/>
    <path id="Path_75216" data-name="Path 75216" d="M25.58,1.685a3.162,3.162,0,0,1,1.326.291L43.264,9.767a3.14,3.14,0,0,1,1.681,2.1l4.041,17.555a3.023,3.023,0,0,1-.614,2.651L37.057,46.138A3.08,3.08,0,0,1,34.632,47.3H16.5a3.08,3.08,0,0,1-2.425-1.164L2.755,32.075a3.237,3.237,0,0,1-.614-2.651L6.182,11.869a3.087,3.087,0,0,1,1.681-2.1L24.222,1.943a3.894,3.894,0,0,1,1.358-.259Zm0-1.519h0a4.892,4.892,0,0,0-2,.453L7.217,8.442a4.579,4.579,0,0,0-2.522,3.136L.654,29.133a4.584,4.584,0,0,0,.905,3.944L12.874,47.14a4.567,4.567,0,0,0,3.589,1.713H34.6a4.567,4.567,0,0,0,3.589-1.713L49.5,33.077a4.561,4.561,0,0,0,.905-3.944L46.368,11.578a4.579,4.579,0,0,0-2.522-3.136L27.552.618A4.635,4.635,0,0,0,25.58.165Z" transform="translate(0 0)" fill="#fff"/>
    <path id="Path_75217" data-name="Path 75217" d="M74.554,58.717h-.032c-.032,0-.065,0-.065-.032-.065,0-.129-.032-.194-.032a4.418,4.418,0,0,0-.614-.065,1.213,1.213,0,0,1-.323-.032h-.032a8.533,8.533,0,0,1-1.746-.291.63.63,0,0,1-.356-.356c0-.032-.032-.032-.032-.065h0l-.42-.129a12.788,12.788,0,0,0-.226-4.558,13.321,13.321,0,0,0-1.81-4.235l.323-.291v-.065a.731.731,0,0,1,.162-.485,9.431,9.431,0,0,1,1.455-1h0c.1-.065.194-.1.291-.162a4.867,4.867,0,0,0,.55-.323c.032-.032.1-.065.162-.129.032-.032.065-.032.065-.065h0a1.08,1.08,0,0,0,.226-1.455.92.92,0,0,0-.744-.356,1.2,1.2,0,0,0-.711.259h0l-.065.065c-.065.032-.1.1-.162.129a5.368,5.368,0,0,0-.42.453,1.494,1.494,0,0,1-.226.226h0a8.22,8.22,0,0,1-1.293,1.164.521.521,0,0,1-.291.1.41.41,0,0,1-.194-.032h-.065l-.388.259a15.7,15.7,0,0,0-1.326-1.229A12.911,12.911,0,0,0,59.294,43.3l-.032-.42-.065-.065a.676.676,0,0,1-.259-.42,11.344,11.344,0,0,1,.1-1.746v-.032a1.149,1.149,0,0,1,.065-.323c.032-.194.065-.388.1-.614v-.291h0a.986.986,0,0,0-1.713-.744,1.024,1.024,0,0,0-.291.744h0v.259a1.882,1.882,0,0,0,.1.614c.032.1.032.194.065.323v.032a8.351,8.351,0,0,1,.1,1.746.676.676,0,0,1-.259.42l-.065.065h0l-.032.42a16.243,16.243,0,0,0-1.746.259,12.463,12.463,0,0,0-6.4,3.621l-.323-.226H48.56c-.065,0-.129.032-.194.032a.521.521,0,0,1-.291-.1,8.573,8.573,0,0,1-1.293-1.2h0a1.494,1.494,0,0,0-.226-.226,5.368,5.368,0,0,0-.42-.453c-.032-.032-.1-.065-.162-.129-.032-.032-.065-.032-.065-.065h0a1.13,1.13,0,0,0-.711-.259.92.92,0,0,0-.744.356,1.08,1.08,0,0,0,.226,1.455h0c.032,0,.032.032.065.032.065.032.1.1.162.129a4.867,4.867,0,0,0,.55.323,1.311,1.311,0,0,1,.291.162h0a9.432,9.432,0,0,1,1.455,1,.594.594,0,0,1,.162.485v.065h0l.323.291a1.134,1.134,0,0,0-.162.259,12.591,12.591,0,0,0-1.81,8.535l-.42.129c0,.032-.032.032-.032.065a.752.752,0,0,1-.356.356,8.164,8.164,0,0,1-1.746.291h-.032a1.1,1.1,0,0,0-.323.032,4.418,4.418,0,0,0-.614.065c-.065,0-.129.032-.194.032a.119.119,0,0,0-.1.032h0a1.06,1.06,0,0,0-.841,1.2,1,1,0,0,0,1.035.744.712.712,0,0,0,.259-.032h0c.032,0,.065,0,.065-.032.065,0,.129-.032.194-.032a3.112,3.112,0,0,0,.582-.226c.1-.032.194-.1.291-.129h.032a7.942,7.942,0,0,1,1.681-.485h.065a.72.72,0,0,1,.42.162c.032,0,.032.032.065.032h0l.453-.065a12.786,12.786,0,0,0,4.235,6.078,13.087,13.087,0,0,0,1.39.938l-.194.42c0,.032.032.032.032.065a.664.664,0,0,1,.065.517,9.115,9.115,0,0,1-.841,1.519v.032c-.065.1-.129.162-.194.259-.129.162-.226.323-.356.517a.707.707,0,0,0-.1.162.113.113,0,0,1-.032.065h0a1.023,1.023,0,0,0,.42,1.39.861.861,0,0,0,.388.1,1.162,1.162,0,0,0,.97-.614h0a.113.113,0,0,1,.032-.065.707.707,0,0,1,.1-.162,6.122,6.122,0,0,0,.194-.582l.1-.291h0a7.6,7.6,0,0,1,.679-1.616.83.83,0,0,1,.42-.291c.032,0,.032,0,.065-.032h0l.226-.42a12.631,12.631,0,0,0,4.526.841,11.735,11.735,0,0,0,2.813-.323,14.366,14.366,0,0,0,1.681-.485l.194.356c.032,0,.032,0,.065.032a.6.6,0,0,1,.42.291,11.069,11.069,0,0,1,.679,1.616V70.1l.1.291a4.1,4.1,0,0,0,.194.582c.032.065.065.1.1.162a.113.113,0,0,0,.032.065h0a1.1,1.1,0,0,0,.97.614.861.861,0,0,0,.388-.1.963.963,0,0,0,.485-.582,1.169,1.169,0,0,0-.065-.808h0c0-.032-.032-.032-.032-.065a.706.706,0,0,0-.1-.162,2.929,2.929,0,0,0-.356-.517c-.065-.1-.129-.162-.194-.259v-.032a7.256,7.256,0,0,1-.841-1.519.9.9,0,0,1,.032-.517c0-.032.032-.032.032-.065h0l-.162-.388a12.826,12.826,0,0,0,5.625-7.08l.388.065c.032,0,.032-.032.065-.032a.822.822,0,0,1,.42-.162h.065A7.942,7.942,0,0,1,73,60.075h.032c.1.032.194.1.291.129a3.112,3.112,0,0,0,.582.226c.065,0,.129.032.194.032a.119.119,0,0,1,.1.032h0a.712.712,0,0,0,.259.032,1.088,1.088,0,0,0,1.035-.744,1.244,1.244,0,0,0-.938-1.067ZM59.585,57.133l-1.423.679-1.423-.679-.356-1.519.97-1.229h1.584l.97,1.229-.323,1.519Zm8.438-3.362a10.194,10.194,0,0,1,.226,3.265L63.3,55.614a.876.876,0,0,1-.614-1.035.771.771,0,0,1,.194-.356L66.794,50.7a10.359,10.359,0,0,1,1.229,3.071Zm-2.78-5.011-4.235,3.007a.861.861,0,0,1-1.132-.194.718.718,0,0,1-.162-.356l-.291-5.27a9.813,9.813,0,0,1,5.819,2.813Zm-9.376-2.651c.356-.065.679-.129,1.035-.194l-.291,5.173a.885.885,0,0,1-.873.841.768.768,0,0,1-.388-.1l-4.3-3.071a9.862,9.862,0,0,1,4.817-2.651ZM49.5,50.7l3.847,3.427a.861.861,0,0,1,.1,1.2.644.644,0,0,1-.388.259l-5.011,1.455A10.408,10.408,0,0,1,49.5,50.7Zm-.873,8.761,5.14-.873a.872.872,0,0,1,.905.679.923.923,0,0,1-.032.517h0l-1.972,4.752a10.19,10.19,0,0,1-4.041-5.076Zm11.8,6.434a10.558,10.558,0,0,1-2.263.259,10.953,10.953,0,0,1-3.265-.517l2.554-4.623a.849.849,0,0,1,1.035-.226,1.378,1.378,0,0,1,.388.356h0l2.489,4.494c-.291.1-.614.162-.938.259Zm6.3-4.494a10.261,10.261,0,0,1-3.1,3.136l-2.037-4.882a.87.87,0,0,1,.453-1,1.033,1.033,0,0,1,.453-.1l5.173.873A6.506,6.506,0,0,1,66.73,61.4Z" transform="translate(-32.582 -30.684)" fill="#fff"/>
  </g>
</svg>
