<svg width="55" height="55" viewBox="0 0 55 55" fill="none" xmlns="http://www.w3.org/2000/svg">
<mask id="mask0_382_24" style="mask-type:luminance" maskUnits="userSpaceOnUse" x="0" y="3" width="55" height="50">
<path d="M54.2137 3H0V52.81H54.2137V3Z" fill="white"/>
</mask>
<g mask="url(#mask0_382_24)">
<path d="M15.3888 22.369C14.3407 20.2722 13.8788 17.9397 14.0507 15.6101C14.2225 13.2805 15.0217 11.0376 16.3666 9.11099C16.3666 9.11099 24.0533 -2.28901 36.9773 6.05799C38.8524 7.59713 40.2684 9.60565 41.0753 11.8707C41.8822 14.1358 42.0499 16.573 41.5606 18.924C41.3051 20.3005 40.8147 21.6247 40.1103 22.841L32.2677 36.486L28.5358 30.22L33.5408 21.176C34.5875 19.3067 34.913 17.1297 34.4575 15.044C33.8464 12.332 32.0446 9.30899 26.9887 9.51999C25.7079 9.56921 24.4766 10.0193 23.4748 10.8044C22.473 11.5895 21.7532 12.6686 21.4205 13.884C20.9112 15.797 20.8939 18.564 22.0998 22.544L15.3888 22.369Z" fill="#0083EC"/>
<path d="M40.6317 25.449C43.0107 25.4437 45.3483 26.0591 47.4053 27.2323C49.4623 28.4056 51.1649 30.0944 52.3386 32.126C52.3386 32.126 59.4071 43.91 46.0941 51.651C43.8626 52.6304 41.4029 52.9988 38.9756 52.7171C36.5483 52.4354 34.2438 51.5141 32.3064 50.051C31.1568 49.2214 30.1581 48.2071 29.3527 47.051L20.3694 32.965L27.7414 32.421L33.7629 41.988C35.0158 43.73 36.866 44.9704 38.9746 45.482C41.7246 46.135 45.2823 45.868 47.3061 41.314C47.8228 40.1623 47.9509 38.8785 47.6716 37.6503C47.3923 36.422 46.7204 35.3136 45.7539 34.487C44.2261 33.194 41.7012 31.97 37.5293 31.287L40.6317 25.449Z" fill="#00A361"/>
<path d="M25.4976 45.223C24.2333 47.2015 22.4561 48.8147 20.3481 49.8972C18.24 50.9798 15.8768 51.4929 13.5005 51.384C13.5005 51.384 -0.421673 50.969 0.0101786 35.784C0.355768 33.4084 1.34958 31.1688 2.88627 29.3026C4.42297 27.4365 6.44529 26.0133 8.73888 25.184C10.0655 24.6732 11.4704 24.3859 12.8944 24.334L29.8283 24.386L26.3654 30.799L14.9111 30.699C12.7419 30.8104 10.6863 31.6855 9.12083 33.164C7.09194 35.099 5.4236 38.196 8.26731 42.306C8.98388 43.3496 10.0216 44.1409 11.2288 44.5642C12.436 44.9875 13.7495 45.0208 14.9773 44.659C16.9043 44.082 19.3081 42.636 22.1202 39.535L25.4976 45.223Z" fill="#FFCB00"/>
</g>
</svg>
