<svg width="55" height="55" viewBox="0 0 55 55" fill="none" xmlns="http://www.w3.org/2000/svg">
<g clip-path="url(#clip0_403_400)">
<path d="M9.52656 29.0923C9.82446 28.7723 10.0975 28.5015 10.321 28.28L10.9168 27.6892C11.0906 27.5169 11.2643 27.3692 11.4133 27.2462C11.5622 27.1231 11.7112 26.9754 11.885 26.8523C12.2325 26.5569 12.5056 26.36 12.729 26.2369C12.9524 26.1138 13.1759 26.0646 13.3745 26.0646C13.6724 26.0646 13.9206 26.1631 14.1689 26.3846C14.3923 26.6062 14.5164 26.8523 14.5164 27.1231C14.5164 27.32 14.4668 27.5415 14.3427 27.7385C14.2185 27.96 14.0199 28.2554 13.7469 28.6246C12.4063 30.3723 11.736 31.48 11.736 31.9969C11.736 32.2185 11.8353 32.3415 12.0836 32.3415C12.2573 32.3415 12.4559 32.2677 12.6545 32.12C12.8531 31.9723 13.1262 31.7262 13.4489 31.3569C13.6227 31.16 13.8213 30.9138 14.0696 30.5938C14.3178 30.2738 14.5413 29.9785 14.7399 29.7077C14.9385 29.4369 15.0874 29.24 15.2115 29.1415C15.3357 29.0431 15.4846 28.9938 15.6584 28.9938C15.8322 28.9938 15.9811 29.0431 16.1052 29.1662C16.2294 29.2892 16.279 29.4369 16.279 29.6092C16.279 29.9292 16.1301 30.3723 15.8322 30.9138C15.5343 31.4554 15.1371 31.9969 14.6654 32.5631C14.0696 33.2769 13.4489 33.8431 12.8283 34.2369C12.2077 34.6308 11.6367 34.8277 11.1154 34.8277C10.6437 34.8277 10.2465 34.68 9.92377 34.36C9.60104 34.04 9.45209 33.6462 9.45209 33.1538C9.45209 32.9077 9.47691 32.6615 9.52656 32.4154C9.57621 32.1938 9.62586 31.9477 9.72516 31.7015C9.79964 31.4554 9.92377 31.1846 10.0975 30.9138C10.2713 30.6431 10.4451 30.3231 10.6933 29.9785C10.7182 29.9538 10.743 29.88 10.8175 29.7815C10.3706 30.1262 9.92377 30.5446 9.47691 31.0862C9.03006 31.6031 8.5832 32.2677 8.13635 33.1046C7.81362 33.6462 7.56537 34.0154 7.39159 34.1877C7.21782 34.36 6.99439 34.4585 6.74614 34.4585C6.47306 34.4585 6.24963 34.36 6.05103 34.1631C5.87725 33.9662 5.77795 33.72 5.77795 33.4246C5.77795 33.2277 5.80278 33.0554 5.85243 32.8831C5.90208 32.7108 5.97655 32.4646 6.12551 32.1446C6.19998 31.8985 6.32411 31.6523 6.47306 31.3569C6.62201 31.0862 6.72131 30.8646 6.84544 30.6923L7.34194 29.8554C7.36677 29.8308 7.41642 29.7323 7.49089 29.6092C7.14334 29.88 6.82061 30.2 6.47306 30.5446C6.10068 30.8154 5.77795 31.16 5.48005 31.5538C5.18215 31.9231 4.90907 32.3169 4.68564 32.6862C4.46221 33.08 4.26361 33.4492 4.11466 33.7938C3.89123 34.2615 3.69263 34.5815 3.54368 34.7538C3.3699 34.9262 3.1713 35 2.92305 35C2.6748 35 2.42655 34.9015 2.25277 34.68C2.07899 34.4831 2.00452 34.2123 2.00452 33.8923C2.00452 33.2523 2.32724 32.12 2.94788 30.5446C3.32025 29.6338 3.69263 28.7969 4.11466 28.0338C4.53669 27.2708 4.95872 26.6062 5.35592 26.0646C5.60418 25.7692 5.80278 25.5477 5.97655 25.4C6.15033 25.2769 6.34893 25.2031 6.54753 25.2031C6.77096 25.2031 6.96956 25.2769 7.11851 25.4246C7.29229 25.5723 7.36677 25.7692 7.36677 25.9908C7.36677 26.1631 7.31712 26.3354 7.24264 26.5323C7.16816 26.7292 6.96956 27.0492 6.69649 27.5169C6.64683 27.5908 6.57236 27.7385 6.47306 27.9108C6.37376 28.0831 6.24963 28.3046 6.07585 28.6L5.80278 29.1662C6.32411 28.5508 6.77096 28.0338 7.16816 27.6154C7.56537 27.1969 7.8881 26.8523 8.186 26.5815C8.4839 26.3354 8.73215 26.1385 8.98041 26.0154C9.20383 25.8923 9.42726 25.8431 9.60104 25.8431C9.84929 25.8431 10.0479 25.9169 10.2217 26.0892C10.3954 26.2615 10.4699 26.4585 10.4699 26.68C10.4699 26.8277 10.4451 27 10.3706 27.1969C10.2961 27.3938 10.1472 27.6646 9.92377 28.0585L9.37761 29.0431L9.20383 29.4123L9.52656 29.0923Z" fill="#27AAE1"/>
<path d="M16.0059 33.9415C15.5343 33.9415 15.1122 33.7446 14.8143 33.3754C14.4916 33.0062 14.3427 32.5138 14.3427 31.9231C14.3427 31.2831 14.4916 30.5692 14.8143 29.7815C15.1122 28.9938 15.5343 28.2554 16.0804 27.5662C16.6762 26.7538 17.2969 26.1631 17.9423 25.7446C18.5878 25.3262 19.2084 25.1292 19.8042 25.1292C20.3504 25.1292 20.7972 25.3015 21.1448 25.6462C21.4923 25.9908 21.6661 26.4585 21.6661 27.0246C21.6661 27.2215 21.6413 27.4185 21.5916 27.5662C21.542 27.7385 21.4923 27.9108 21.393 28.1323C21.5668 28.28 21.6661 28.3785 21.7406 28.4769C21.7902 28.5508 21.815 28.6492 21.815 28.7477C21.815 28.8215 21.7902 28.92 21.7654 28.9938C21.7406 29.0677 21.6413 29.1908 21.5171 29.3631C21.2689 29.7077 21.0455 30.0277 20.8965 30.3477C20.7476 30.6431 20.6731 30.9138 20.6731 31.0862C20.6731 31.3569 20.822 31.5046 21.1199 31.5046C21.3682 31.5046 21.6661 31.3569 22.0136 31.0369C22.3612 30.7415 22.7584 30.2246 23.2549 29.56C23.5528 29.1415 23.8507 28.9446 24.1238 28.9446C24.3224 28.9446 24.4713 28.9938 24.5706 29.1169C24.6699 29.24 24.7444 29.3877 24.7444 29.5846C24.7444 29.88 24.5955 30.2492 24.3224 30.7169C24.0493 31.1846 23.6769 31.6523 23.1804 32.1446C22.0633 33.3015 20.9958 33.8923 19.978 33.8923C19.6056 33.8923 19.2829 33.7692 19.0346 33.4985C18.7864 33.2277 18.6374 32.9077 18.6374 32.5385V32.3169C17.7934 33.3754 16.9245 33.9415 16.0059 33.9415ZM18.4636 30.3477C18.414 30.2 18.3892 30.1015 18.3892 30.0769C18.3892 29.9785 18.4388 29.88 18.5133 29.8062L18.9353 29.3631C19.1339 29.1662 19.3325 28.8954 19.4815 28.6C19.6553 28.3046 19.7297 28.0585 19.7297 27.8862C19.7297 27.6154 19.5808 27.4677 19.3077 27.4677C19.0843 27.4677 18.8112 27.5908 18.4885 27.8369C18.1657 28.0831 17.8678 28.4031 17.5699 28.8215C17.2969 29.2154 17.0734 29.6338 16.8748 30.0523C16.701 30.4708 16.6017 30.8154 16.6017 31.0615C16.6017 31.3569 16.7259 31.5046 16.999 31.5046C17.1976 31.5046 17.3713 31.4308 17.5699 31.3077C17.7685 31.16 17.992 30.9138 18.2899 30.5692C18.3395 30.4954 18.3892 30.4215 18.4636 30.3477Z" fill="#27AAE1"/>
<path d="M27.4504 29.4862C26.8049 29.9292 26.1843 30.4708 25.6133 31.0862C25.0423 31.7015 24.5955 32.3415 24.2976 32.9569L23.7266 34.1385C23.5776 34.4092 23.4535 34.6062 23.2797 34.7046C23.1308 34.8031 22.9322 34.8769 22.6839 34.8769C22.4108 34.8769 22.1874 34.8031 22.0136 34.6308C21.8399 34.4585 21.7654 34.2615 21.7654 33.9662C21.7654 33.7446 21.815 33.4246 21.9392 33.0308C22.0633 32.6369 22.2122 32.1938 22.386 31.7015C22.5846 31.2092 22.7832 30.7169 23.0563 30.2C23.3045 29.6831 23.5776 29.1908 23.8507 28.7231C24.099 28.3046 24.3472 27.9108 24.6203 27.5415C24.8934 27.1477 25.1168 26.8523 25.3402 26.6554C25.6878 26.2862 26.0353 26.1138 26.4077 26.1138C26.656 26.1138 26.8546 26.1877 27.0283 26.3354C27.2021 26.4831 27.2766 26.68 27.2766 26.8769C27.2766 27.0492 27.2269 27.1969 27.1525 27.3446C27.078 27.4923 26.8794 27.7138 26.6063 28.0585C26.358 28.3292 26.1346 28.6246 25.936 28.9446C25.7374 29.2646 25.5388 29.5846 25.4395 29.8308L25.6133 29.6338C26.085 29.1169 26.507 28.6492 26.929 28.3046C27.3511 27.9354 27.7979 27.5662 28.3192 27.1723C28.7909 26.8277 29.1633 26.5815 29.4116 26.4585C29.6598 26.3108 29.8584 26.2615 30.057 26.2615C30.2556 26.2615 30.4542 26.3354 30.6032 26.5077C30.7769 26.68 30.8514 26.8769 30.8514 27.0738C30.8514 27.2708 30.8018 27.4677 30.6776 27.6154C30.5535 27.7877 30.3301 27.96 30.0322 28.1569C29.7343 28.3785 29.5109 28.5754 29.3123 28.7723C29.1385 28.9692 29.0392 29.1169 29.0392 29.2154C29.0392 29.3631 29.1137 29.4123 29.2874 29.4123C29.4116 29.4123 29.5853 29.3385 29.8088 29.2154C30.0322 29.0677 30.3053 28.8954 30.6032 28.6492C30.8514 28.4523 31.0252 28.3292 31.1245 28.28C31.2238 28.2308 31.3231 28.1815 31.4224 28.1815C31.621 28.1815 31.77 28.2554 31.8941 28.3785C32.0182 28.5015 32.0679 28.6738 32.0679 28.8462C32.0679 29.1169 31.9437 29.4123 31.7203 29.7323C31.4969 30.0523 31.1493 30.3477 30.7273 30.6431C29.8832 31.2338 29.0888 31.5046 28.3689 31.5046C27.9965 31.5046 27.6738 31.4062 27.4255 31.2092C27.1773 31.0123 27.0532 30.7662 27.0532 30.4462C27.1028 30.1508 27.2269 29.8308 27.4504 29.4862Z" fill="#27AAE1"/>
<path d="M35.8412 30.8154C35.1461 31.9477 34.4262 32.8585 33.6566 33.4985C32.887 34.1385 32.1423 34.4831 31.472 34.4831C31.0003 34.4831 30.5783 34.3108 30.2804 33.9415C29.9577 33.5723 29.8087 33.1292 29.8087 32.5631C29.8087 32.1692 29.8832 31.7262 30.0321 31.2092C30.1811 30.7169 30.3797 30.1754 30.6528 29.5846L31.5217 27.7877C31.6706 27.5415 31.7699 27.2954 31.894 27.0492L32.1919 26.3108C32.3409 25.9415 32.4898 25.6954 32.6388 25.5723C32.8126 25.4246 33.0112 25.3754 33.2346 25.3754C33.4829 25.3754 33.6815 25.4492 33.8552 25.6215C34.029 25.7938 34.1035 26.0154 34.1035 26.2862C34.1035 26.5323 34.0538 26.8277 33.9297 27.1969C33.8056 27.5662 33.6566 27.9354 33.4829 28.28L32.8126 29.5846C32.614 29.9538 32.4402 30.3477 32.2912 30.7169C32.1423 31.0862 32.0926 31.3815 32.0926 31.5538C32.0926 31.6523 32.1175 31.7508 32.1919 31.8246C32.2416 31.8985 32.3161 31.9477 32.4154 31.9477C32.5891 31.9477 32.7877 31.8492 32.9863 31.6523C33.2098 31.4554 33.4828 31.1354 33.8304 30.6677C34.0787 30.3723 34.2773 30.1015 34.4262 29.8554C34.5752 29.6092 34.6993 29.4123 34.7986 29.1908C34.7738 28.9938 34.7489 28.8462 34.7489 28.7477V28.4523C34.7489 28.0831 34.7986 27.7385 34.8979 27.3938C34.9972 27.0492 35.1461 26.7292 35.3199 26.4831C35.4937 26.2123 35.6923 25.9908 35.8909 25.8185C36.1143 25.6462 36.3378 25.5723 36.5612 25.5723C36.8094 25.5723 36.9832 25.6954 37.1322 25.9169C37.2811 26.1385 37.3308 26.4092 37.3308 26.7538C37.3308 27.1231 37.2811 27.5169 37.1818 27.9354C37.0825 28.3538 36.9336 28.7231 36.735 29.0431C36.8094 29.0677 36.9087 29.0677 36.9832 29.0677C37.2811 29.0677 37.6287 28.92 37.9762 28.6492C38.15 28.5015 38.2741 28.4031 38.3982 28.3292C38.5224 28.2554 38.572 28.1815 38.6465 28.1569C38.6961 28.1077 38.7458 28.0831 38.7954 28.0831C38.8451 28.0831 38.8947 28.0585 38.9692 28.0585C39.1182 28.0585 39.2671 28.1323 39.3913 28.2554C39.5154 28.3785 39.5899 28.5262 39.5899 28.6985C39.5899 28.9446 39.5154 29.2154 39.3416 29.4862C39.1678 29.7569 38.9444 30.0031 38.6713 30.2246C38.3982 30.4462 38.1003 30.6185 37.7776 30.7662C37.4549 30.9138 37.1322 30.9631 36.8343 30.9631C36.6853 30.9631 36.5364 30.9385 36.3874 30.9138C36.1888 30.9385 36.0398 30.8892 35.8412 30.8154Z" fill="#27AAE1"/>
<path d="M39.0189 31.0123C38.9444 31.1354 38.8947 31.2338 38.8699 31.3077C38.8451 31.3815 38.8203 31.48 38.8203 31.5785C38.8203 31.8738 38.9196 32.0954 39.0933 32.2431C39.2671 32.3908 39.5154 32.4646 39.8381 32.4646C40.3098 32.4646 40.8559 32.2677 41.4766 31.8492C42.0972 31.4308 42.6433 30.9385 43.115 30.3231L43.6612 29.6092C43.8598 29.3631 44.0832 29.2154 44.3066 29.2154C44.5052 29.2154 44.6542 29.2892 44.7783 29.4123C44.9024 29.56 44.9769 29.7323 44.9769 29.9538C44.9769 30.2492 44.8528 30.6185 44.6045 31.0369C44.3563 31.4554 44.0087 31.8985 43.5619 32.3662C42.9164 33.0554 42.1965 33.5723 41.4517 33.9662C40.6822 34.36 39.987 34.5323 39.3168 34.5323C38.5472 34.5323 37.9514 34.2862 37.4797 33.7938C37.008 33.3015 36.7598 32.6862 36.7598 31.9231C36.7598 31.1846 36.9335 30.4462 37.2563 29.6585C37.579 28.8954 38.001 28.1815 38.5224 27.5662C39.0437 26.9262 39.6147 26.4092 40.2353 26.0154C40.8559 25.6215 41.4766 25.4246 42.0724 25.4246C42.5689 25.4246 42.9661 25.5969 43.2888 25.9169C43.5867 26.2369 43.7605 26.6554 43.7605 27.1723C43.7605 27.6646 43.6364 28.1569 43.4129 28.6246C43.1895 29.0923 42.8916 29.5354 42.5192 29.9046C42.1468 30.2738 41.7248 30.5938 41.2531 30.8154C40.7815 31.0369 40.2849 31.16 39.7884 31.16C39.6395 31.16 39.5402 31.1354 39.4409 31.1108C39.2919 31.0615 39.1678 31.0369 39.0189 31.0123ZM39.7884 29.1908C39.8629 29.2154 39.9126 29.2154 39.9622 29.24C40.0119 29.24 40.0615 29.2646 40.136 29.2646C40.3346 29.2646 40.5084 29.2154 40.707 29.1415C40.9056 29.0677 41.0794 28.9446 41.2531 28.7969C41.4269 28.6492 41.551 28.5015 41.6503 28.3292C41.7496 28.1569 41.7993 27.9846 41.7993 27.8123C41.7993 27.6154 41.7248 27.5169 41.551 27.5169C41.3524 27.5169 41.0794 27.6892 40.7318 28.0338C40.3842 28.3292 40.0615 28.7231 39.7884 29.1908Z" fill="#27AAE1"/>
<path d="M45.4983 31.2585C45.4735 31.2831 45.4735 31.3323 45.4735 31.3815V31.48C45.4735 31.6769 45.548 31.8492 45.6969 31.9969C45.8459 32.1446 46.0197 32.2185 46.1934 32.2185C46.7892 32.2185 47.7078 31.4554 48.8994 29.9292L49.3462 29.4123C49.6441 29.0431 49.942 28.8462 50.1903 28.8462C50.3641 28.8462 50.4882 28.8954 50.6123 29.0185C50.7116 29.1415 50.7613 29.2892 50.7613 29.4862C50.7613 29.6338 50.7116 29.8308 50.6123 30.0523C50.513 30.2738 50.3889 30.5446 50.2151 30.8154C50.0413 31.0862 49.8427 31.3815 49.6193 31.6769C49.3959 31.9723 49.1476 32.2677 48.8746 32.5385C47.6085 33.8431 46.4169 34.5077 45.3494 34.5077C44.7039 34.5077 44.1826 34.2862 43.7854 33.8677C43.3882 33.4492 43.1896 32.8585 43.1896 32.12C43.1896 31.5785 43.2641 30.9877 43.4378 30.3969C43.6116 29.7815 43.9095 29.0431 44.3067 28.1323C44.6046 27.4677 44.9522 26.7785 45.3742 26.04C45.7962 25.3262 46.2183 24.6123 46.6651 23.9231C47.112 23.2338 47.5588 22.5938 48.0305 22.0031C48.4773 21.4123 48.9242 20.92 49.2966 20.5262C49.8427 19.9846 50.3392 19.5908 50.7613 19.3446C51.1833 19.0985 51.5805 18.9754 51.9281 18.9754C52.2508 18.9754 52.5239 19.0985 52.6976 19.3446C52.8962 19.5908 52.9707 19.9108 52.9707 20.28C52.9707 20.6738 52.8962 21.1169 52.7721 21.6338C52.6232 22.1508 52.4494 22.6923 52.2011 23.2585C51.9529 23.8246 51.655 24.3908 51.3074 25.0062C50.9599 25.5969 50.5875 26.1877 50.1406 26.7785C49.4952 27.64 48.8001 28.4277 48.0553 29.1415C47.3354 29.8308 46.4913 30.5446 45.4983 31.2585ZM46.2679 28.7477C46.8141 28.2308 47.3106 27.7385 47.7078 27.2954C48.1298 26.8277 48.527 26.3108 48.949 25.72C49.2221 25.3508 49.4704 24.9569 49.7186 24.5631C49.9669 24.1692 50.1655 23.7754 50.3392 23.4062C50.513 23.0369 50.662 22.7169 50.7861 22.4215C50.8854 22.1508 50.9599 21.9292 50.9599 21.7569C50.9599 21.6092 50.9102 21.5354 50.7861 21.5354C50.6123 21.5354 50.3641 21.7323 50.0165 22.1508C49.669 22.5692 49.2718 23.16 48.8001 23.9231C48.6015 24.2185 48.4277 24.5138 48.2539 24.8092C48.0801 25.1046 47.8319 25.5723 47.534 26.1385C47.3354 26.4831 47.1864 26.7785 47.0623 27.0246C46.9382 27.2708 46.8141 27.4923 46.7148 27.6892C46.6155 27.8862 46.541 28.0585 46.4665 28.2308C46.4169 28.4031 46.3424 28.5754 46.2679 28.7477Z" fill="#27AAE1"/>
</g>
<defs>
<clipPath id="clip0_403_400">
<rect width="51" height="16" fill="white" transform="translate(2 19)"/>
</clipPath>
</defs>
</svg>
