<svg width="55" height="55" viewBox="0 0 55 55" fill="none" xmlns="http://www.w3.org/2000/svg">
<g clip-path="url(#clip0_395_295)">
<path d="M25.7009 0.04297C25.5827 0.0537111 25.2068 0.0913051 24.8684 0.118158C17.065 0.821703 9.75564 5.03223 5.12621 11.5038C2.54834 15.102 0.899573 19.1837 0.276587 23.507C0.0563939 25.0161 0.029541 25.4619 0.029541 27.5081C0.029541 29.5542 0.0563939 30 0.276587 31.5091C1.76961 41.826 9.11117 50.4941 19.0682 53.7057C20.8512 54.2803 22.7309 54.6724 24.8684 54.9087C25.7009 55 29.2991 55 30.1316 54.9087C33.8212 54.5005 36.9468 53.5875 40.0295 52.014C40.5022 51.7723 40.5934 51.7078 40.529 51.6541C40.486 51.6219 38.4721 48.9205 36.0553 45.6552L31.6622 39.7207L26.1574 31.5736C23.1284 27.0945 20.6364 23.4318 20.6149 23.4318C20.5934 23.4264 20.572 27.0462 20.5612 31.4662C20.5451 39.2052 20.5397 39.5167 20.4431 39.6993C20.3034 39.9624 20.196 40.0698 19.9705 40.188C19.7986 40.2739 19.6482 40.29 18.8373 40.29H17.9082L17.6611 40.1343C17.5 40.0322 17.3819 39.898 17.3013 39.7422L17.1885 39.5005L17.1993 28.7326L17.2154 17.9592L17.3819 17.7497C17.4678 17.637 17.6504 17.4919 17.7793 17.4221C17.9995 17.3147 18.0854 17.304 19.0145 17.304C20.1101 17.304 20.2927 17.3469 20.5773 17.6584C20.6579 17.7444 23.6386 22.2342 27.2046 27.6423C30.7707 33.0505 35.6472 40.435 38.0424 44.0602L42.3926 50.6498L42.6128 50.5048C44.5623 49.2374 46.6246 47.4329 48.2573 45.5532C51.732 41.5628 53.9715 36.6971 54.7234 31.5091C54.9436 30 54.9705 29.5542 54.9705 27.5081C54.9705 25.4619 54.9436 25.0161 54.7234 23.507C53.2304 13.1901 45.8888 4.52202 35.9318 1.31042C34.1756 0.741144 32.3067 0.349092 30.2121 0.112787C29.6966 0.0590817 26.1466 5.40163e-06 25.7009 0.04297ZM36.9468 16.6595C37.2046 16.7884 37.4141 17.0354 37.4893 17.2932C37.5322 17.4329 37.543 20.4189 37.5322 27.1482L37.5161 36.8045L35.8136 34.1944L34.1058 31.5843V24.565C34.1058 20.0269 34.1273 17.4758 34.1595 17.3523C34.2454 17.0516 34.4334 16.8153 34.6912 16.6756C34.9114 16.5628 34.9919 16.5521 35.8351 16.5521C36.63 16.5521 36.7696 16.5628 36.9468 16.6595Z" fill="black"/>
<path d="M42.1241 50.768C41.9361 50.8861 41.877 50.9667 42.0435 50.8754C42.1617 50.8056 42.355 50.6606 42.3228 50.6552C42.3067 50.6552 42.2154 50.7089 42.1241 50.768ZM41.7535 51.0097C41.6568 51.0849 41.6568 51.0902 41.775 51.0312C41.8394 50.9989 41.8931 50.9613 41.8931 50.9506C41.8931 50.9076 41.8663 50.9184 41.7535 51.0097ZM41.485 51.1708C41.3883 51.246 41.3883 51.2513 41.5064 51.1923C41.5709 51.16 41.6246 51.1225 41.6246 51.1117C41.6246 51.0687 41.5977 51.0795 41.485 51.1708ZM41.2164 51.3319C41.1198 51.4071 41.1198 51.4125 41.2379 51.3534C41.3024 51.3212 41.3561 51.2836 41.3561 51.2728C41.3561 51.2299 41.3292 51.2406 41.2164 51.3319ZM40.8083 51.5467C40.6042 51.6541 40.6149 51.6971 40.819 51.5951C40.9103 51.5467 40.9801 51.4984 40.9801 51.4877C40.9801 51.4501 40.9748 51.4554 40.8083 51.5467Z" fill="black"/>
</g>
<defs>
<clipPath id="clip0_395_295">
<rect width="55" height="55" fill="white"/>
</clipPath>
</defs>
</svg>
