<svg width="55" height="55" viewBox="0 0 55 55" fill="none" xmlns="http://www.w3.org/2000/svg">
<path d="M23.5469 30.9805C26.791 30.9805 29.8418 30.6582 32.5918 30.0781C34.332 25.2871 38.9297 21.8281 44.3223 21.8281C44.5156 21.8281 44.709 21.8496 44.9023 21.8496C44.9023 21.7207 44.9453 21.5918 44.9453 21.4414V14.1797C44.9453 19.4434 35.3633 23.6973 23.5469 23.6973C11.7305 23.6973 2.14844 19.4434 2.14844 14.1797V21.4629C2.14844 26.7266 11.7305 30.9805 23.5469 30.9805Z" fill="black"/>
<path d="M23.5469 21.0977C35.3633 21.0977 44.9453 16.8438 44.9453 11.5801C44.9453 6.31641 35.3633 2.0625 23.5469 2.0625C11.7305 2.0625 2.14844 6.31641 2.14844 11.5586C2.14844 16.8437 11.7305 21.0977 23.5469 21.0977Z" fill="black"/>
<path d="M23.5469 40.8848C24.7285 40.8848 25.8887 40.8418 27.0273 40.7344L31.8828 35.8789L31.9043 35.8574C31.8398 35.3633 31.8184 34.8477 31.8184 34.332C31.8184 33.8379 31.8613 33.3437 31.9043 32.8496C29.3262 33.3437 26.4902 33.6016 23.5254 33.6016C11.709 33.6016 2.12695 29.3477 2.12695 24.084V31.3672C2.14844 36.6094 11.7305 40.8848 23.5469 40.8848Z" fill="black"/>
<path d="M23.2031 44.5801L24.2988 43.4844C24.041 43.4844 23.8047 43.5059 23.5469 43.5059C11.7305 43.5059 2.14844 39.252 2.14844 33.9883V41.25C2.14844 46.2559 10.8281 50.3379 21.8496 50.7246C21.5703 48.3398 22 45.7832 23.2031 44.5801Z" fill="black"/>
<path d="M35.793 34.332C35.793 39.0371 39.6172 42.8613 44.3223 42.8613C49.0273 42.8613 52.8516 39.0371 52.8516 34.332C52.8516 29.627 49.0273 25.8027 44.3223 25.8027C39.6172 25.8027 35.793 29.6055 35.793 34.332ZM44.4512 31.3457C44.4512 29.7773 45.7187 28.5098 47.2871 28.5098C48.8555 28.5098 50.123 29.7773 50.123 31.3457C50.123 32.9141 48.8555 34.1816 47.2871 34.1816C45.7187 34.2031 44.4512 32.9141 44.4512 31.3457ZM41.5078 44.4941V44.8164C41.5078 45.2891 41.1211 45.6758 40.6484 45.6758H38.3066V48.0176C38.3066 48.4902 37.9199 48.8555 37.4687 48.8555H35.1269V51.1973C35.1269 51.6699 34.7402 52.0566 34.2676 52.0566H31.8828L31.2812 52.6582C30.916 53.0234 27.2637 53.2168 26.3613 52.293C25.4375 51.3906 25.6523 47.7383 25.9961 47.373L34.6973 38.6719C34.998 39.3594 35.3848 39.9824 35.8359 40.584L28.3379 48.082C27.9726 48.4473 27.9726 49.0488 28.3379 49.3926C28.7031 49.7578 29.3047 49.7578 29.6484 49.3926L37.0391 41.9805C38.2851 43.1621 39.8105 44.0215 41.5078 44.4941Z" fill="black"/>
</svg>
