<svg width="55" height="55" viewBox="0 0 55 55" fill="none" xmlns="http://www.w3.org/2000/svg">
<path fill-rule="evenodd" clip-rule="evenodd" d="M37.511 24.3916H38.5413V29.6703H43.0082L42.3522 30.7015H37.511V24.3916ZM29.4206 30.7015L25.6097 24.6883C25.3754 24.298 24.7508 24.298 24.4851 24.704L20.7056 30.7015H21.9551L23.0953 28.8896H25.5318L26.1723 27.8587H23.7359L25.0635 25.7817L28.1717 30.7015H29.4206ZM31.7395 24.3936C29.9984 24.3936 28.8522 25.8051 28.8522 27.5465C28.8522 29.2876 29.9987 30.6998 31.7395 30.6998L35.9733 30.6946L36.6358 29.6726H31.7706C30.597 29.6726 29.9102 28.7207 29.9102 27.5465C29.9102 26.3724 30.5967 25.4205 31.7706 25.4205H36.1045L36.7443 24.3904L31.7395 24.3936ZM5.31407 25.4205H9.7807C10.9549 25.4205 11.6414 26.3724 11.6414 27.5465C11.6414 28.7207 10.9551 29.6726 9.7807 29.6726H5.31407C4.13992 29.6726 3.45369 28.7207 3.45369 27.5465C3.45369 26.3724 4.13992 25.4205 5.31407 25.4205ZM5.31407 24.3936C3.57267 24.3936 2.42648 25.8051 2.42648 27.5465C2.42648 29.2876 3.57267 30.6998 5.31407 30.6998H9.7807C11.5221 30.6998 12.6683 29.2876 12.6683 27.5465C12.6683 25.8051 11.5221 24.3936 9.7807 24.3936H5.31407ZM44.1093 28.0464C44.2771 28.9795 44.9191 29.6726 45.9212 29.6726H50.7865L50.1233 30.6946L45.8901 30.6998C44.1484 30.6998 43.0028 29.2876 43.0028 27.5465C43.0028 25.8051 44.1487 24.3936 45.8901 24.3936L50.8946 24.3907L50.2554 25.4208H45.9215C44.9334 25.4208 44.2885 26.1022 44.1096 27.0158H50.2243L49.5684 28.0467L44.1093 28.0464ZM18.4957 28.1377C18.9865 28.1292 19.4544 27.9282 19.7985 27.578C20.1426 27.2279 20.3354 26.7566 20.3354 26.2657C20.3354 25.7747 20.1426 25.3034 19.7985 24.9533C19.4544 24.6031 18.9865 24.4021 18.4957 24.3936L13.2401 24.3913V30.7012H14.396V25.4208H18.4957C18.7198 25.4208 18.9347 25.5098 19.0931 25.6682C19.2515 25.8267 19.3406 26.0416 19.3406 26.2657C19.3406 26.4897 19.2515 26.7046 19.0931 26.8631C18.9347 27.0215 18.7198 27.1105 18.4957 27.1105H15.2081L18.9168 30.694H20.4089L17.7538 28.14L18.4957 28.1377ZM51.9743 24.3973C52.2422 24.3973 52.4542 24.609 52.4542 24.8898C52.4542 25.1751 52.2425 25.3851 51.9743 25.3851C51.7029 25.3851 51.4918 25.1751 51.4918 24.8898C51.4918 24.609 51.7029 24.3973 51.9743 24.3973V24.2986C51.6482 24.2986 51.3725 24.5494 51.3725 24.8895C51.3725 25.233 51.6484 25.4838 51.9743 25.4838C52.2976 25.4838 52.5735 25.233 52.5735 24.8895C52.5735 24.5494 52.2976 24.2986 51.9743 24.2986V24.3973Z" fill="black"/>
<path fill-rule="evenodd" clip-rule="evenodd" d="M51.849 24.6372H51.9906C52.0625 24.6372 52.1392 24.6529 52.1392 24.7377C52.1392 24.8427 52.0608 24.8492 51.9726 24.8492H51.8488V24.9371H51.968L52.1487 25.2336H52.2645L52.0699 24.9326C52.1703 24.92 52.2471 24.8669 52.2471 24.7445C52.2471 24.6096 52.1669 24.5499 52.0057 24.5499H51.7449V25.2336H51.8485V24.6372H51.849Z" fill="black"/>
</svg>
