<svg width="55" height="55" viewBox="0 0 55 55" fill="none" xmlns="http://www.w3.org/2000/svg">
<g clip-path="url(#clip0_382_122)">
<path d="M3.44011 43.1372H0.770264V39.8988H3.59833C4.62941 39.8988 5.14495 40.4494 5.14495 41.5506C5.14495 42.6518 4.57667 43.1807 3.44011 43.1372ZM5.35273 39.8266C5.15532 39.6241 4.91692 39.466 4.6535 39.363C4.39007 39.26 4.10769 39.2144 3.82524 39.2294L0 39.2876V47.025H0.770264V43.7423H3.59833C3.90458 43.7591 4.21112 43.715 4.50019 43.6124C4.78925 43.5099 5.0551 43.351 5.28231 43.145C5.49406 42.9279 5.65768 42.6685 5.76254 42.3839C5.86739 42.0993 5.91112 41.7958 5.89087 41.4932C5.93447 40.8876 5.74087 40.2887 5.35099 39.8231L5.35273 39.8266ZM10.3455 45.3828C10.2765 45.6289 10.1508 45.8554 9.97866 46.0444C9.77964 46.2598 9.53447 46.4273 9.26152 46.5345C8.98856 46.6417 8.69488 46.6858 8.40249 46.6634C8.13393 46.6764 7.86577 46.6304 7.61699 46.5283C7.36821 46.4263 7.14488 46.2709 6.96281 46.0731C6.59252 45.6368 6.39434 45.0803 6.40554 44.5082C6.40079 44.1959 6.44689 43.885 6.54203 43.5875C6.6218 43.3369 6.75431 43.1063 6.93064 42.9112C7.11483 42.7165 7.33869 42.5636 7.58708 42.463C7.83546 42.3624 8.10257 42.3163 8.37032 42.3278C9.75204 42.3278 10.4429 43.0476 10.4429 44.4873C10.448 44.7961 10.4093 45.104 10.3281 45.4019M10.4646 42.5234C10.1935 42.251 9.86669 42.0404 9.50652 41.9063C9.14636 41.7721 8.76142 41.7175 8.37815 41.7462C8.00487 41.7238 7.63119 41.7831 7.28316 41.9198C6.93512 42.0566 6.62109 42.2676 6.36294 42.5382C5.91406 43.0954 5.69623 43.8037 5.75438 44.5169C5.72288 45.225 5.95908 45.9189 6.41597 46.4608C6.65007 46.722 6.94429 46.9222 7.27317 47.0442C7.64317 47.1719 8.03291 47.2328 8.42422 47.2241C8.80607 47.251 9.1893 47.197 9.54884 47.0656C9.90839 46.9342 10.2362 46.7284 10.5107 46.4617C10.9301 45.9005 11.1568 45.2188 11.1568 44.5182C11.1568 43.8176 10.9301 43.1359 10.5107 42.5747L10.4646 42.5234ZM16.2703 45.6027C16.2703 46.646 15.4954 47.1676 13.9456 47.1676C13.5447 47.1749 13.1442 47.1388 12.7511 47.0598C12.4622 47.0045 12.1907 46.8811 11.9591 46.6999C11.7967 46.5663 11.6683 46.3962 11.5844 46.2035C11.4822 45.956 11.4214 45.6934 11.4044 45.4263H12.1243C12.1106 45.5963 12.1375 45.7671 12.2026 45.9247C12.2677 46.0823 12.3693 46.2222 12.499 46.333C12.9248 46.6108 13.4326 46.7353 13.9387 46.686C15.0231 46.686 15.5652 46.3573 15.5652 45.7001C15.5737 45.5264 15.5248 45.3547 15.4259 45.2115C15.3271 45.0684 15.1839 44.9617 15.0184 44.9081C14.9465 44.8791 14.5101 44.807 13.7091 44.6916C13.2074 44.6465 12.7119 44.5477 12.2312 44.3969C12.0243 44.2994 11.8521 44.1409 11.7378 43.9428C11.6234 43.7447 11.5723 43.5164 11.5913 43.2885C11.5788 43.0617 11.6257 42.8355 11.7274 42.6324C11.8291 42.4293 11.9821 42.2563 12.1712 42.1305C12.3972 42.0126 12.64 41.9302 12.8911 41.8862C13.2159 41.8239 13.5462 41.7948 13.8769 41.7992C15.3688 41.7992 16.1147 42.3632 16.1147 43.491H15.3966C15.3966 42.699 14.875 42.2965 13.8204 42.2965C13.4077 42.2709 12.9955 42.3552 12.6259 42.5408C12.5015 42.6143 12.3991 42.7199 12.3295 42.8465C12.2599 42.9732 12.2257 43.1162 12.2303 43.2606C12.2344 43.4158 12.2885 43.5654 12.3845 43.6873C12.4805 43.8092 12.6134 43.8968 12.7633 43.937C13.2359 44.0568 13.7173 44.1385 14.2029 44.1813C14.677 44.2048 15.1439 44.307 15.5844 44.4839C15.8066 44.5745 15.9953 44.7319 16.1242 44.9344C16.2531 45.1368 16.316 45.3743 16.3042 45.614L16.2703 45.6027ZM19.0992 47.0424L18.8045 47.0928H18.6246C18.2689 47.1232 17.9129 47.0375 17.61 46.8485C17.4955 46.738 17.408 46.6025 17.3544 46.4526C17.3007 46.3027 17.2823 46.1425 17.3005 45.9844V42.473H16.4816V41.9861H17.3309V40.2874H17.996V41.9861H19.1436V42.5078H17.996V45.9505C17.9864 46.0448 17.997 46.14 18.0269 46.23C18.0569 46.3199 18.1056 46.4024 18.1699 46.4721C18.3508 46.5871 18.5652 46.6379 18.7785 46.6164C18.8237 46.6235 18.8697 46.6235 18.9149 46.6164L19.1436 46.5521V47.0737L19.0992 47.0424ZM23.6409 45.8696C23.469 46.0537 23.2621 46.2015 23.0323 46.3043C22.7823 46.3978 22.5166 46.4418 22.2499 46.4339C21.9688 46.4773 21.6814 46.4543 21.4108 46.3667C21.1402 46.2791 20.8939 46.1293 20.6916 45.9293C20.4894 45.7294 20.3368 45.4848 20.2461 45.2152C20.1554 44.9456 20.1292 44.6585 20.1694 44.3769C20.1531 44.1053 20.1908 43.8331 20.2803 43.5761C20.3698 43.3192 20.5095 43.0825 20.6911 42.8799C20.8877 42.6925 21.121 42.5477 21.3762 42.4546C21.6314 42.3616 21.9031 42.3223 22.1742 42.3391C22.4398 42.3238 22.7055 42.3652 22.9538 42.4607C23.202 42.5562 23.4271 42.7036 23.6139 42.8929C23.9555 43.2928 24.1328 43.8072 24.1103 44.3326C24.1465 44.8927 23.9631 45.445 23.5991 45.8722M24.8302 41.9853H24.1746V42.8633C23.9904 42.6187 23.7831 42.3922 23.5557 42.187C23.1236 41.9234 22.6224 41.7953 22.1168 41.8192C21.7668 41.7805 21.4126 41.8209 21.0803 41.9373C20.748 42.0536 20.446 42.2431 20.1966 42.4918C19.9472 42.7404 19.7568 43.0418 19.6394 43.3738C19.522 43.7057 19.4806 44.0598 19.5183 44.41C19.5141 44.7763 19.5702 45.1408 19.6843 45.4888C19.7833 45.7767 19.9401 46.0412 20.1451 46.2661C20.4005 46.5044 20.7019 46.6882 21.0307 46.8062C21.3596 46.9241 21.709 46.9737 22.0577 46.952C22.4646 46.9913 22.8746 46.9214 23.2454 46.7493C23.6161 46.5772 23.9342 46.3092 24.1668 45.9731V46.8798C24.2044 47.3644 24.0519 47.8446 23.7417 48.2187C23.5395 48.3939 23.304 48.5263 23.0492 48.6079C22.7944 48.6895 22.5257 48.7185 22.2594 48.6934C21.7705 48.7356 21.281 48.6195 20.8632 48.3621C20.6265 48.1314 20.4764 47.8263 20.4381 47.498H19.7608C19.7895 47.9726 20.0041 48.4168 20.3581 48.7342C20.9319 49.0773 21.5997 49.2295 22.2655 49.1689C23.9834 49.1689 24.8423 48.3989 24.8423 46.859V41.9861L24.8302 41.9853ZM28.385 42.4965C28.2027 42.4595 28.0172 42.4403 27.8312 42.4391C26.7567 42.4391 26.2194 43.1589 26.2194 44.5986V47.0242H25.5726V41.9861H26.2281V42.8929C26.3129 42.5739 26.4953 42.2894 26.7497 42.0792C27.1045 41.8722 27.5125 41.7745 27.9225 41.7984H28.3615V42.473L28.385 42.4965ZM28.9936 44.1483C29.041 43.6534 29.2367 43.1843 29.5552 42.8025C29.7473 42.6313 29.9725 42.5014 30.2168 42.4208C30.4747 42.326 30.7479 42.2798 31.0227 42.2843C31.2903 42.2742 31.557 42.3209 31.8051 42.4215C32.0533 42.5221 32.2773 42.6741 32.4624 42.8677C32.7968 43.2104 32.984 43.6703 32.984 44.1491H29.011M33.0631 42.5843C32.8344 42.3189 32.5422 42.1158 32.2137 41.994C31.8317 41.8524 31.4265 41.784 31.0192 41.7923C30.6599 41.7579 30.2975 41.803 29.9575 41.9243C29.6176 42.0456 29.3085 42.2402 29.0522 42.4943C28.7958 42.7484 28.5985 43.0558 28.4742 43.3947C28.3499 43.7335 28.3016 44.0956 28.3329 44.4552C28.3003 45.1659 28.5425 45.862 29.0092 46.3991C29.2764 46.6743 29.6 46.8884 29.9578 47.0266C30.3156 47.1648 30.699 47.2239 31.0818 47.1998C31.4136 47.2027 31.7439 47.154 32.0607 47.0555C32.3472 46.9673 32.6155 46.8283 32.8527 46.6451C33.2264 46.3143 33.4796 45.8687 33.5726 45.3784H32.8553C32.7658 45.7848 32.5307 46.1444 32.1945 46.3896C31.8582 46.6347 31.4439 46.7485 31.0297 46.7094C30.7347 46.7282 30.4393 46.6804 30.1653 46.5697C29.8912 46.4589 29.6456 46.288 29.4465 46.0696C29.1134 45.6662 28.944 45.1523 28.9718 44.6299H33.6595C33.7037 43.8996 33.4803 43.1782 33.0309 42.6008L33.0631 42.5843Z" fill="#231F20"/>
<path d="M40.6336 44.9646C40.6336 46.4762 39.6237 47.2319 37.6038 47.2319C36.6549 47.3146 35.7095 47.0371 34.9557 46.4547C34.7055 46.1998 34.5119 45.8948 34.3879 45.5597C34.2638 45.2247 34.212 44.8673 34.2359 44.5108H35.0453C35.0453 45.9209 35.8857 46.626 37.5665 46.626C38.1812 46.6771 38.7956 46.5243 39.3148 46.1913C39.4762 46.0395 39.6014 45.8533 39.6812 45.6465C39.761 45.4397 39.7932 45.2177 39.7755 44.9968C39.7949 44.7684 39.7465 44.5394 39.6364 44.3384C39.5263 44.1374 39.3594 43.9733 39.1565 43.8666C38.6114 43.6621 38.0473 43.5124 37.4726 43.4197C36.7017 43.3226 35.9501 43.1089 35.2435 42.786C34.9942 42.6093 34.7963 42.3697 34.6698 42.0916C34.5434 41.8135 34.4929 41.5068 34.5236 41.2028C34.5014 40.9138 34.5466 40.6236 34.6556 40.3551C34.7647 40.0865 34.9347 39.847 35.1522 39.6553C35.8293 39.2306 36.6255 39.036 37.4221 39.1007C39.3991 39.1007 40.3876 39.8947 40.3876 41.4828H39.5817C39.5817 40.2929 38.8476 39.6979 37.3795 39.6979C36.8184 39.654 36.2569 39.7793 35.7677 40.0579C35.6064 40.1922 35.4788 40.3624 35.395 40.5549C35.3112 40.7473 35.2736 40.9567 35.2852 41.1663C35.2673 41.3897 35.3167 41.6133 35.427 41.8084C35.5374 42.0035 35.7035 42.1611 35.9042 42.2609C36.5328 42.4979 37.1843 42.6692 37.8481 42.772C38.5627 42.8592 39.2553 43.0761 39.892 43.4119C40.1395 43.5835 40.3367 43.818 40.4632 44.0913C40.5898 44.3645 40.6411 44.6666 40.6119 44.9663L40.6336 44.9646ZM47.233 45.7349C46.9363 46.0212 46.5843 46.244 46.1985 46.3895C45.7883 46.54 45.3538 46.6133 44.917 46.606C44.4813 46.6244 44.0466 46.55 43.6419 46.3875C43.2372 46.225 42.8717 45.9782 42.5697 45.6636C41.9997 44.9477 41.6894 44.0596 41.6894 43.1446C41.6894 42.2295 41.9997 41.3415 42.5697 40.6256C42.8769 40.318 43.2449 40.0779 43.6501 39.9204C44.0553 39.763 44.4888 39.6916 44.9231 39.711C45.3581 39.6894 45.7926 39.7638 46.1956 39.9291C46.5985 40.0944 46.9602 40.3464 47.2547 40.6673C47.5523 40.9763 47.7782 41.347 47.9163 41.7531C48.0708 42.2183 48.1458 42.7062 48.138 43.1963C48.1878 44.14 47.8646 45.0655 47.2382 45.7731M47.6729 46.2843C48.0867 45.9321 48.4064 45.4825 48.6031 44.9759C48.8151 44.4076 48.9177 43.8044 48.9057 43.198C48.9527 42.1458 48.5974 41.115 47.912 40.3152C47.5632 39.9187 47.1235 39.6126 46.6305 39.4232C46.0819 39.2108 45.4984 39.1026 44.91 39.1042C44.3693 39.074 43.8282 39.1571 43.3213 39.3479C42.8144 39.5388 42.3529 39.8333 41.9663 40.2126C41.2786 41.0487 40.9043 42.0987 40.9082 43.1814C40.912 44.264 41.2936 45.3113 41.9872 46.1426C42.3756 46.5214 42.8384 46.8155 43.3463 47.0063C43.8542 47.1971 44.3961 47.2804 44.9379 47.2511C45.3656 47.2557 45.7925 47.2146 46.2115 47.1285C46.5371 47.0619 46.8481 46.9374 47.1296 46.7607L48.3302 47.7396L48.8335 47.1859L47.6773 46.2391L47.6729 46.2843ZM54.9904 47.0276H49.4429V39.2641H50.2063V46.413H55V47.0215L54.9904 47.0276Z" fill="#326690"/>
<path d="M31.5652 28.1318C31.8095 26.4261 31.7391 26.1749 33.2352 26.4548H33.6169C34.8214 26.5002 36.0242 26.3292 37.1683 25.9497C39.0757 25.2299 40.2059 23.9502 38.3272 24.2727C34.0064 24.9925 33.7386 23.7911 33.7386 23.7911C38.2654 18.0915 40.1581 10.8374 38.5245 9.09866C34.0568 4.29103 26.3533 6.57748 26.2125 6.63747H26.169C25.2178 6.47618 24.2552 6.39187 23.2905 6.38535C21.6982 6.30766 20.1191 6.70856 18.7567 7.5364C18.7567 7.5364 4.98759 2.72616 5.62832 13.5794C5.75785 15.8893 9.54049 31.0477 14.0273 26.4687C15.6896 24.7987 17.2736 23.4033 17.2736 23.4033C18.101 23.8673 19.0485 24.0729 19.9938 23.9936L20.0729 23.9362C20.0389 24.1534 20.0389 24.3746 20.0729 24.5918C18.9428 25.6646 19.2809 25.8584 16.9928 26.2836C14.7046 26.7087 16.0286 27.4207 16.9284 27.6146C18.0143 27.8432 20.5268 28.1762 22.2394 26.1749L22.1751 26.4035C22.628 26.713 22.6002 28.6204 22.6645 30.0019C22.6542 31.1487 22.8222 32.2902 23.1627 33.3855C23.487 34.1053 23.8825 36.0623 26.9193 35.545C29.4596 35.0842 31.4026 34.4226 31.5826 28.2423" fill="#231F20"/>
<path d="M31.5652 28.1318C31.8095 26.4261 31.7391 26.1749 33.2352 26.4548H33.6169C34.8214 26.5002 36.0242 26.3292 37.1683 25.9497C39.0757 25.2299 40.2059 23.9502 38.3272 24.2727C34.0064 24.9925 33.7386 23.7911 33.7386 23.7911C38.2654 18.0915 40.1581 10.8374 38.5245 9.09866C34.0568 4.29103 26.3533 6.57748 26.2125 6.63747H26.169C25.2178 6.47618 24.2552 6.39187 23.2905 6.38535C21.6982 6.30766 20.1191 6.70856 18.7567 7.5364C18.7567 7.5364 4.98759 2.72616 5.62832 13.5794C5.75785 15.8893 9.54049 31.0477 14.0273 26.4687C15.6896 24.7987 17.2736 23.4033 17.2736 23.4033C18.101 23.8673 19.0485 24.0729 19.9938 23.9936L20.0729 23.9362C20.0389 24.1534 20.0389 24.3746 20.0729 24.5918C18.9428 25.6646 19.2809 25.8584 16.9928 26.2836C14.7046 26.7087 16.0286 27.4207 16.9284 27.6146C18.0143 27.8432 20.5268 28.1762 22.2394 26.1749L22.1751 26.4035C22.628 26.713 22.6002 28.6204 22.6645 30.0019C22.6542 31.1487 22.8222 32.2902 23.1627 33.3855C23.487 34.1053 23.8825 36.0623 26.9193 35.545C29.4596 35.0842 31.4026 34.4226 31.5826 28.2423" stroke="#231F20" stroke-width="4.11"/>
<path d="M38.3167 24.2961C33.9986 25.016 33.7317 23.8136 33.7317 23.8136C38.2585 18.114 40.1511 10.86 38.5176 9.12124C34.0629 4.2884 26.3559 6.57659 26.2116 6.63396H26.1681C25.217 6.47267 24.2543 6.38836 23.2896 6.38185C21.6973 6.30415 20.1182 6.70506 18.7558 7.5329C18.7558 7.5329 4.98759 2.72613 5.62832 13.5794C5.75785 15.8893 9.52832 31.0477 14.0273 26.4687C15.6896 24.7986 17.2736 23.4033 17.2736 23.4033C18.101 23.8673 19.0485 24.0729 19.9938 23.9936L20.0729 23.9362C20.0396 24.1535 20.0396 24.3745 20.0729 24.5917C18.9428 25.6645 19.2809 25.8584 16.9928 26.2835C14.7046 26.7087 16.0286 27.4207 16.9284 27.6145C18.0143 27.8432 20.5268 28.1762 22.2394 26.1749L22.1751 26.4035C22.628 26.713 22.9454 28.4031 22.8949 29.9445C22.7497 31.0901 22.8403 32.2534 23.161 33.3628C23.5139 34.1905 23.8808 36.0396 26.9175 35.5224C29.4578 35.0616 30.7749 33.8645 30.9618 31.864C31.0914 30.4244 31.387 30.6547 31.4087 29.3881L31.646 28.7908C31.919 26.8695 31.6895 26.2505 33.2579 26.5383H33.6395C34.8427 26.5838 36.0444 26.4133 37.1874 26.0349C39.0948 25.315 40.225 24.0353 38.3463 24.3579L38.3167 24.2961Z" fill="#326690"/>
<path d="M22.4116 25.4324C22.2968 29.0308 22.4116 32.63 22.8584 33.4924C23.3053 34.3548 24.1538 36.0692 27.1766 35.5215C29.7169 35.0607 30.6454 34.1688 31.0418 32.1892C31.3279 30.7495 31.906 26.7052 31.9773 25.8775M18.7602 7.43989C18.7602 7.43989 4.98066 2.68442 5.62834 13.5429C5.77265 15.8528 9.52921 31.0095 14.0273 26.4253C15.6679 24.7482 17.151 23.4024 17.151 23.4024M26.2116 6.58356C25.7352 6.72005 33.876 4.06238 38.4967 9.07344C40.1303 10.8452 38.2359 18.0767 33.7108 23.7658" stroke="white" stroke-width="1.37" stroke-linecap="round" stroke-linejoin="round"/>
<path d="M33.703 23.7702C33.703 23.7702 33.989 25.0012 38.2881 24.2527C40.1668 23.9215 39.0079 25.1733 37.1292 25.9297C35.5643 26.5383 32.0868 26.7 31.9999 25.8506C31.8486 23.6911 33.8421 24.3248 33.7056 23.7711C33.5691 23.2173 32.6815 22.7939 32.092 21.6115C31.5026 20.4292 25.0319 12.4057 33.9055 13.6133C34.2298 13.5559 31.5878 6.45923 23.2827 6.34447C14.9776 6.22972 15.2506 14.9791 15.2506 14.9791" stroke="white" stroke-width="1.37" stroke-linecap="round" stroke-linejoin="bevel"/>
<path d="M20.0886 24.5257C18.9297 25.6202 19.2679 25.8141 16.9588 26.2175C14.6498 26.6209 15.9947 27.3546 16.8945 27.5485C17.9804 27.7771 20.4928 28.1101 22.2055 26.1088C22.7271 25.5003 22.2055 24.5109 21.4857 24.2588C21.2536 24.1478 20.9916 24.1157 20.7395 24.1674C20.4875 24.219 20.2592 24.3515 20.0895 24.5448L20.0886 24.5257Z" stroke="white" stroke-width="1.37" stroke-linejoin="round"/>
<path d="M20.0078 24.5039C20.0104 23.6906 20.2313 22.8928 20.6476 22.194C21.2379 20.8482 22.6002 19.499 21.517 15.2269C20.7033 12.0458 15.2575 14.5653 15.2575 14.9982C15.3898 16.4072 15.3583 17.8268 15.1636 19.2286C14.722 21.8984 17.1632 24.151 19.9756 23.9232" stroke="white" stroke-width="1.37" stroke-linecap="round" stroke-linejoin="round"/>
<path d="M18.7123 14.9322C18.7724 15.0914 18.8755 15.2309 19.0101 15.3351C19.1447 15.4393 19.3055 15.5042 19.4748 15.5225C19.6416 15.548 19.8122 15.5232 19.9648 15.4514C20.1175 15.3795 20.2453 15.2638 20.332 15.1191C20.332 14.9748 20.0155 14.8096 19.5695 14.7591C19.1236 14.7087 18.7123 14.767 18.7123 14.9322Z" fill="white" stroke="white" stroke-width="0.46"/>
<path d="M32.3076 14.6375C32.2473 14.7967 32.1441 14.9361 32.0093 15.0401C31.8746 15.1442 31.7136 15.2088 31.5443 15.2269C31.376 15.2553 31.203 15.2324 31.0479 15.161C30.8929 15.0897 30.7629 14.9733 30.6749 14.827C30.6749 14.6757 30.9914 14.5175 31.4382 14.4671C31.8851 14.4166 32.2659 14.4671 32.2954 14.6409L32.3076 14.6375Z" fill="white" stroke="white" stroke-width="0.23"/>
<path d="M33.9055 13.6151C33.8462 14.6781 33.7334 15.7375 33.5674 16.7891C33.4952 18.5809 34.575 20.6248 32.9588 22.6774" stroke="white" stroke-width="1.37" stroke-linecap="round" stroke-linejoin="round"/>
</g>
<defs>
<clipPath id="clip0_382_122">
<rect width="55" height="55" fill="white"/>
</clipPath>
</defs>
</svg>
