<svg width="55" height="55" viewBox="0 0 55 55" fill="none" xmlns="http://www.w3.org/2000/svg">
<g clip-path="url(#clip0_382_70)">
<path d="M49.2631 10.6915C45.9387 6.38647 41.4123 3.16407 36.2563 1.43183C31.1004 -0.300422 25.5466 -0.464706 20.2973 0.959751C15.048 2.38421 10.339 5.33342 6.76589 9.43438C3.1928 13.5354 0.916093 18.6039 0.223723 23.9989C-0.468647 29.3939 0.454418 34.873 2.87618 39.7434C5.29793 44.6137 9.1096 48.6565 13.8291 51.3604C18.5486 54.0642 23.9639 55.3077 29.3902 54.9336C34.8164 54.5595 40.0098 52.5846 44.3136 49.2586C50.0831 44.7999 53.8456 38.2322 54.7738 30.9999C55.702 23.7675 53.7198 16.4626 49.2631 10.6915Z" fill="#FF6C37"/>
<path d="M36.7741 17.521L25.1791 29.2082L21.9054 25.84C33.3154 14.4273 34.4586 15.4598 36.7741 17.521Z" fill="white"/>
<path d="M25.1791 29.5293C25.0765 29.5265 24.9787 29.4857 24.9046 29.4147L21.6045 26.1145C21.5304 26.0376 21.489 25.9349 21.489 25.8281C21.489 25.7213 21.5304 25.6186 21.6045 25.5416C32.8558 14.2901 34.3907 14.8176 37.0499 17.2238C37.0944 17.2595 37.13 17.305 37.1538 17.3568C37.1776 17.4086 37.189 17.4653 37.1871 17.5223C37.1957 17.5777 37.1897 17.6344 37.1696 17.6867C37.1495 17.7391 37.116 17.7853 37.0725 17.8207L25.4775 29.416C25.3961 29.4906 25.2895 29.5303 25.1791 29.5293ZM22.4745 25.8401L25.1791 28.5447L36.1786 17.5449C35.7988 17.0692 35.2571 16.7501 34.6569 16.6486C34.0567 16.5471 33.4402 16.6703 32.9251 16.9947C30.9307 17.8874 27.7212 20.6147 22.4745 25.8401Z" fill="#FF6C37"/>
<path d="M28.5019 32.4404L25.3403 29.2095L36.9353 17.7514C40.0516 20.7985 35.4231 25.8866 28.5019 32.4404Z" fill="white"/>
<path d="M28.5019 32.8521C28.4006 32.8439 28.3045 32.8038 28.2274 32.7375L24.9965 29.5746C24.9482 29.4572 24.9482 29.3255 24.9965 29.2082C24.9614 29.1118 24.9614 29.0061 24.9965 28.9098L36.5903 17.3157C36.671 17.2401 36.7775 17.1981 36.8881 17.1981C36.9987 17.1981 37.1051 17.2401 37.1859 17.3157C37.5616 17.6613 37.8584 18.0838 38.0562 18.5544C38.2539 19.025 38.3479 19.5328 38.3316 20.043C38.3316 23.1367 34.8062 27.0324 28.799 32.7149C28.719 32.7939 28.6139 32.8425 28.5019 32.8521ZM25.9358 29.2132L28.5258 31.8033C33.1089 27.4719 37.4855 23.0032 37.5082 19.9788C37.5327 19.338 37.3208 18.7106 36.9126 18.216L25.9358 29.2132Z" fill="#FF6C37"/>
<path d="M21.9986 25.9081L24.2901 28.1997C24.3048 28.2126 24.3166 28.2284 24.3247 28.2462C24.3328 28.2641 24.337 28.2834 24.337 28.3029C24.337 28.3225 24.3328 28.3418 24.3247 28.3596C24.3166 28.3774 24.3048 28.3933 24.2901 28.4062L19.4552 29.4374C19.3576 29.4584 19.2558 29.4469 19.1654 29.4048C19.0749 29.3626 19.0006 29.2921 18.9539 29.2039C18.9072 29.1157 18.8905 29.0147 18.9065 28.9161C18.9224 28.8176 18.9701 28.727 19.0422 28.658L21.8613 25.8627C21.9108 25.8625 21.959 25.8784 21.9986 25.9081Z" fill="white"/>
<path d="M19.3356 29.8969C19.1829 29.8949 19.0334 29.8537 18.9011 29.7775C18.7689 29.7012 18.6584 29.5924 18.5801 29.4613C18.4919 29.2952 18.4598 29.105 18.4886 28.9191C18.5174 28.7332 18.6056 28.5617 18.74 28.4301L21.5352 25.6109C21.6361 25.5209 21.7665 25.4711 21.9016 25.4711C22.0368 25.4711 22.1672 25.5209 22.268 25.6109L24.5596 27.9025C24.6263 27.9659 24.6744 28.0463 24.6986 28.1351C24.7227 28.2239 24.7221 28.3177 24.6968 28.4061C24.6705 28.4963 24.6205 28.5778 24.5521 28.6423C24.4837 28.7067 24.3994 28.7516 24.3078 28.7725L19.4728 29.8038L19.3356 29.8969ZM21.9016 26.4142L19.3117 29.0042L23.5926 28.0876L21.9016 26.4142Z" fill="#FF6C37"/>
<path d="M42.9387 11.0818C42.3418 10.5056 41.5957 10.1079 40.7846 9.9337C39.9735 9.75946 39.1299 9.81564 38.3491 10.0959C37.5683 10.3761 36.8814 10.8692 36.3662 11.5194C35.851 12.1696 35.528 12.951 35.4338 13.7753C35.3395 14.5995 35.4777 15.4336 35.8328 16.1834C36.1878 16.9332 36.7456 17.5686 37.4429 18.018C38.1403 18.4673 38.9495 18.7125 39.7789 18.7259C40.6084 18.7393 41.4251 18.5204 42.1366 18.0939L39.0191 14.9775L42.9387 11.0818Z" fill="white"/>
<path d="M39.8451 19.1478C39.049 19.1402 38.2671 18.9368 37.5683 18.5555C36.8695 18.1743 36.2752 17.6268 35.838 16.9615C35.4008 16.2963 35.1341 15.5336 35.0614 14.7408C34.9887 13.9481 35.1122 13.1496 35.4211 12.4159C35.73 11.6822 36.2148 11.0358 36.8326 10.5337C37.4504 10.0317 38.1823 9.68946 38.9636 9.53722C39.745 9.38497 40.5518 9.4274 41.3129 9.66076C42.074 9.89413 42.766 10.3113 43.3277 10.8753C43.3712 10.9118 43.4061 10.9574 43.43 11.0089C43.454 11.0603 43.4664 11.1164 43.4664 11.1731C43.4664 11.2299 43.454 11.2859 43.43 11.3374C43.4061 11.3888 43.3712 11.4344 43.3277 11.4709L39.6159 14.9776L42.435 17.7477C42.4806 17.7914 42.5148 17.8455 42.5348 17.9054C42.5547 17.9653 42.5598 18.0291 42.5496 18.0914C42.5427 18.1516 42.5227 18.2095 42.4909 18.2611C42.4592 18.3126 42.4164 18.3566 42.3658 18.3898C41.6094 18.863 40.7396 19.124 39.8476 19.1453L39.8451 19.1478ZM39.8451 10.2571C39.2458 10.256 38.6539 10.3887 38.1124 10.6453C37.5709 10.9019 37.0935 11.2761 36.7149 11.7406C36.3363 12.2051 36.066 12.7483 35.9239 13.3304C35.7817 13.9125 35.7712 14.5191 35.8931 15.1058C36.0149 15.6925 36.2661 16.2447 36.6284 16.722C36.9906 17.1994 37.4548 17.5899 37.9871 17.8652C38.5193 18.1405 39.1063 18.2936 39.7052 18.3133C40.3041 18.3331 40.8999 18.219 41.4492 17.9793L38.7446 15.2747C38.7016 15.2404 38.6668 15.1968 38.643 15.1472C38.6191 15.0976 38.6067 15.0433 38.6067 14.9883C38.6067 14.9332 38.6191 14.8789 38.643 14.8293C38.6668 14.7797 38.7016 14.7361 38.7446 14.7018L42.3192 11.1045C41.6087 10.5594 40.7406 10.2618 39.8451 10.2571Z" fill="#FF6C37"/>
<path d="M43.0079 11.151L39.0896 15.0468L42.2059 18.1631C42.5198 17.983 42.8122 17.7676 43.0772 17.521C43.8942 16.6574 44.3436 15.5101 44.3307 14.3214C44.3178 13.1326 43.8435 11.9967 43.0079 11.151Z" fill="white"/>
<path d="M42.1354 18.5069C42.084 18.5096 42.0326 18.5007 41.9851 18.4808C41.9376 18.461 41.8951 18.4307 41.8609 18.3923L38.7446 15.276C38.7016 15.2417 38.6668 15.1981 38.643 15.1485C38.6191 15.0989 38.6067 15.0446 38.6067 14.9895C38.6067 14.9345 38.6191 14.8801 38.643 14.8306C38.6668 14.781 38.7016 14.7374 38.7446 14.7031L42.6403 10.8766C42.678 10.82 42.7291 10.7735 42.7891 10.7414C42.849 10.7093 42.916 10.6925 42.984 10.6925C43.052 10.6925 43.119 10.7093 43.179 10.7414C43.2389 10.7735 43.29 10.82 43.3277 10.8766C43.785 11.3246 44.1483 11.8595 44.3964 12.4497C44.6444 13.04 44.7721 13.6738 44.7721 14.314C44.7721 14.9542 44.6444 15.588 44.3964 16.1783C44.1483 16.7685 43.785 17.3033 43.3277 17.7514C43.0583 18.0377 42.7497 18.2844 42.4111 18.4842C42.3261 18.5272 42.2263 18.5353 42.1354 18.5069ZM39.6172 14.9813L42.2071 17.5714C42.385 17.4463 42.5533 17.3083 42.7108 17.1584C43.4717 16.3991 43.9002 15.3688 43.9019 14.2939C43.9032 13.3318 43.5525 12.4025 42.916 11.6812L39.6172 14.9813Z" fill="#FF6C37"/>
<path d="M37.2563 18.002C36.946 17.7104 36.5363 17.5482 36.1106 17.5482C35.6848 17.5482 35.2751 17.7104 34.9648 18.002L24.5835 28.3596L26.3022 30.1009L37.279 20.4762C37.4469 20.316 37.5801 20.123 37.6704 19.9093C37.7608 19.6956 37.8063 19.4656 37.8042 19.2335C37.802 19.0015 37.7523 18.7724 37.6581 18.5603C37.5639 18.3483 37.4271 18.1578 37.2563 18.0007V18.002Z" fill="white"/>
<path d="M26.2103 30.5139C26.1077 30.5112 26.0099 30.4703 25.9358 30.3994L24.1945 28.658C24.1204 28.581 24.079 28.4784 24.079 28.3715C24.079 28.2647 24.1204 28.162 24.1945 28.0851L34.5732 17.7501C34.9684 17.3554 35.5042 17.1337 36.0627 17.1337C36.6213 17.1337 37.1571 17.3554 37.5523 17.7501C37.7565 17.9538 37.9167 18.1973 38.0231 18.4654C38.1294 18.7335 38.1796 19.0206 38.1705 19.3089C38.1586 19.5954 38.0897 19.8766 37.9677 20.136C37.8458 20.3955 37.6733 20.628 37.4603 20.8199L26.4835 30.4447C26.404 30.5014 26.3072 30.5261 26.2103 30.5139ZM24.9953 28.3596L26.141 29.528L36.9114 20.1551C37.0428 20.0407 37.149 19.9003 37.2233 19.7427C37.2977 19.5851 37.3385 19.4139 37.3432 19.2397C37.3501 19.0643 37.3188 18.8895 37.2517 18.7274C37.1845 18.5652 37.083 18.4196 36.9542 18.3004C36.7137 18.0609 36.3882 17.9265 36.0489 17.9265C35.7096 17.9265 35.3841 18.0609 35.1436 18.3004L24.9953 28.3596Z" fill="#FF6C37"/>
<path d="M16.5391 40.1614C16.5095 40.201 16.4935 40.2492 16.4935 40.2986C16.4935 40.3481 16.5095 40.3963 16.5391 40.4359L16.9974 42.4291C17.0167 42.5452 16.9997 42.6645 16.9487 42.7706C16.8978 42.8768 16.8154 42.9646 16.7128 43.0223C16.6101 43.0799 16.4922 43.1046 16.3751 43.0928C16.258 43.0811 16.1473 43.0335 16.0581 42.9567L12.9192 39.9348L22.7037 30.0808H26.0957L28.3872 32.3724C24.8125 35.4983 20.8265 38.1199 16.5404 40.1639L16.5391 40.1614Z" fill="white"/>
<path d="M16.3339 43.5308C16.0744 43.5257 15.8273 43.4185 15.6464 43.2324L12.6447 40.2306C12.6017 40.1963 12.5669 40.1527 12.5431 40.1031C12.5192 40.0535 12.5068 39.9992 12.5068 39.9442C12.5068 39.8891 12.5192 39.8348 12.5431 39.7852C12.5669 39.7356 12.6017 39.692 12.6447 39.6577L22.4984 29.7798C22.5537 29.7212 22.6259 29.6811 22.7049 29.6653H26.1196C26.2084 29.634 26.3053 29.634 26.3941 29.6653L28.6856 31.9569C28.7635 32.0424 28.8048 32.155 28.8005 32.2706C28.7963 32.3862 28.7469 32.4955 28.663 32.5751L28.4791 32.735C24.8899 35.7277 20.941 38.2605 16.7242 40.2747L17.1598 42.1306C17.1941 42.2739 17.1958 42.4231 17.1649 42.5671C17.1339 42.7111 17.0711 42.8464 16.981 42.963C16.8909 43.0795 16.7758 43.1744 16.6442 43.2406C16.5126 43.3069 16.3678 43.3428 16.2206 43.3457L16.3339 43.5308ZM13.5387 39.9335L16.2432 42.6607C16.2518 42.678 16.2642 42.693 16.2794 42.7047C16.2947 42.7164 16.3125 42.7245 16.3313 42.7282C16.3502 42.732 16.3697 42.7314 16.3883 42.7265C16.4069 42.7215 16.4241 42.7124 16.4387 42.6998C16.4532 42.6871 16.4646 42.6714 16.4721 42.6536C16.4795 42.6359 16.4828 42.6167 16.4817 42.5974C16.4806 42.5782 16.4751 42.5595 16.4656 42.5428C16.4561 42.526 16.4429 42.5117 16.427 42.5008L15.9687 40.5076C15.9332 40.3646 15.948 40.2137 16.0106 40.0802C16.0732 39.9468 16.1798 39.839 16.3125 39.7748C20.4162 37.7879 24.2636 35.3103 27.7703 32.3963L25.8917 30.5177H22.8195L13.5387 39.9335Z" fill="#FF6C37"/>
<path d="M10.5597 42.2944L12.8512 40.0027L16.3767 43.5283L10.7624 43.1392C10.6658 43.1321 10.5739 43.0945 10.4999 43.0319C10.426 42.9693 10.3738 42.8848 10.3509 42.7907C10.3279 42.6965 10.3354 42.5975 10.3722 42.5079C10.4091 42.4183 10.4734 42.3426 10.5559 42.2918L10.5597 42.2944Z" fill="white"/>
<path d="M16.4485 43.8745L10.8568 43.4829C10.6942 43.4675 10.5392 43.4067 10.4094 43.3075C10.2797 43.2082 10.1805 43.0745 10.1231 42.9215C10.0658 42.7686 10.0525 42.6026 10.085 42.4425C10.1174 42.2824 10.1942 42.1346 10.3066 42.016L12.5982 39.7244C12.6751 39.6503 12.7778 39.6089 12.8846 39.6089C12.9914 39.6089 13.0941 39.6503 13.171 39.7244L16.6827 43.2311C16.7312 43.2977 16.7573 43.3779 16.7573 43.4603C16.7573 43.5426 16.7312 43.6229 16.6827 43.6894C16.6299 43.7754 16.5489 43.8404 16.4535 43.8733L16.4485 43.8745ZM10.8568 42.5915L15.4399 42.8899L12.9217 40.529L10.8568 42.5915Z" fill="#FF6C37"/>
<path d="M26.4168 30.3553L21.7883 31.0654L24.469 28.4074L26.4168 30.3553Z" fill="white"/>
<path d="M21.7871 31.4998C21.7094 31.4944 21.6344 31.4693 21.569 31.4269C21.5037 31.3845 21.4502 31.3262 21.4136 31.2575C21.3769 31.1888 21.3584 31.1119 21.3596 31.034C21.3609 30.9561 21.3819 30.8798 21.4207 30.8123L24.0786 28.1316C24.1594 28.056 24.2658 28.014 24.3764 28.014C24.487 28.014 24.5935 28.056 24.6742 28.1316L26.622 30.0795C26.6504 30.1469 26.6646 30.2195 26.6636 30.2927C26.6627 30.3658 26.6466 30.438 26.6165 30.5047C26.5864 30.5713 26.5428 30.6311 26.4885 30.6801C26.4342 30.7291 26.3703 30.7664 26.301 30.7897L21.7178 31.4998H21.7871ZM24.4677 29.0017L22.9782 30.4912L25.5442 30.1022L24.4677 29.0017Z" fill="#FF6C37"/>
<path d="M26.4168 30.354L23.1859 30.767C23.0996 30.7862 23.0093 30.7771 22.9285 30.7411C22.8477 30.7052 22.7805 30.6442 22.737 30.5672C22.6934 30.4902 22.6757 30.4013 22.6865 30.3135C22.6973 30.2257 22.7359 30.1437 22.7968 30.0795L24.4702 28.4061L26.4168 30.354Z" fill="white"/>
<path d="M23.094 31.2026C22.9443 31.2013 22.7976 31.1602 22.6689 31.0837C22.5401 31.0072 22.434 30.8979 22.3612 30.767C22.2736 30.6101 22.2396 30.429 22.2643 30.251C22.2891 30.073 22.3713 29.908 22.4985 29.7811L24.1718 28.1077C24.2525 28.0321 24.359 27.9901 24.4696 27.9901C24.5802 27.9901 24.6866 28.0321 24.7674 28.1077L26.7152 30.0594C26.7727 30.1144 26.8132 30.1848 26.8316 30.2623C26.85 30.3397 26.8457 30.4209 26.819 30.4959C26.7924 30.5709 26.7447 30.6367 26.6816 30.6852C26.6185 30.7338 26.5427 30.763 26.4634 30.7695L23.2552 31.1825L23.094 31.2026ZM23.094 30.3553L25.5228 30.0594L24.4463 28.9828L23.0714 30.3578L23.094 30.3553Z" fill="#FF6C37"/>
<path d="M43.0294 13.7851C42.9861 13.7129 42.9179 13.659 42.8376 13.6337C42.7573 13.6084 42.6705 13.6134 42.5937 13.6479C42.5559 13.6673 42.5223 13.694 42.4949 13.7265C42.4675 13.7589 42.4469 13.7965 42.4341 13.837C42.4213 13.8776 42.4167 13.9202 42.4206 13.9625C42.4244 14.0048 42.4366 14.046 42.4565 14.0835C42.5351 14.2491 42.566 14.4333 42.5458 14.6154C42.5256 14.7976 42.4549 14.9705 42.3419 15.1148C42.3121 15.1427 42.2883 15.1764 42.2721 15.2139C42.2558 15.2514 42.2474 15.2918 42.2474 15.3326C42.2474 15.3734 42.2558 15.4138 42.2721 15.4513C42.2883 15.4888 42.3121 15.5225 42.3419 15.5504C42.401 15.5736 42.4666 15.5736 42.5257 15.5504C42.5791 15.5642 42.6352 15.5628 42.6879 15.5466C42.7406 15.5304 42.7877 15.4999 42.8241 15.4585C43.0127 15.2273 43.132 14.9475 43.1683 14.6514C43.2046 14.3554 43.1565 14.055 43.0294 13.7851Z" fill="#FF6C37"/>
</g>
<defs>
<clipPath id="clip0_382_70">
<rect width="55" height="55" fill="white"/>
</clipPath>
</defs>
</svg>
