<svg width="55" height="55" viewBox="0 0 55 55" fill="none" xmlns="http://www.w3.org/2000/svg">
<g clip-path="url(#clip0_383_5)">
<path d="M1.69297 44.0619C1.69297 44.0619 2.41828 36.9067 7.49375 28.4436C12.5709 19.9805 21.2266 13.5764 28.2614 12.9456C42.2589 11.5431 54.8333 24.0917 54.8333 24.0917C54.8333 24.0917 54.4208 24.3805 53.9842 24.7448C40.2531 14.5922 31.8656 19.3772 29.2273 20.6594C17.1394 27.4055 20.7883 44.0619 20.7883 44.0619H1.69641H1.69297ZM41.4855 14.3C40.712 13.9872 39.9386 13.6984 39.1411 13.432L39.2373 11.8336C40.7584 12.2701 41.3634 12.5606 41.58 12.6809L41.4837 14.3017L41.4855 14.3ZM39.1875 19.4287C39.9609 19.4769 40.7602 19.5731 41.5817 19.7433L41.4855 21.242C40.688 21.0701 39.8905 20.9756 39.093 20.9498L39.1892 19.4287H39.1875ZM30.2448 11.8817C29.5453 11.8817 28.8441 11.9075 28.1428 11.9814L27.6822 10.5548C28.4814 10.4586 29.2548 10.4105 30.0025 10.4105L30.4872 11.8851H30.2466L30.2448 11.8817ZM31.4067 20.7814C32.0083 20.5167 32.713 20.2486 33.5328 20.008L34.0656 21.6064C33.3609 21.8212 32.6614 22.1117 31.9602 22.4486L31.405 20.7814H31.4067ZM20.4308 14.422C19.8017 14.7383 19.1967 15.1009 18.5694 15.4876L17.4573 13.7947C18.1105 13.408 18.7378 13.0728 19.3428 12.7566L20.4308 14.422ZM25.3859 25.3017C25.8191 24.7466 26.3278 24.1914 26.8813 23.6826L27.9709 25.3275C27.4381 25.8826 26.9569 26.4395 26.5444 27.0462L25.3859 25.3017ZM21.8797 33.0876C22.0722 32.218 22.2922 31.3225 22.605 30.4287L24.3444 31.8072C24.1037 32.7491 23.9319 33.6926 23.8373 34.6345L21.8797 33.0876ZM11.2922 21.6047C10.7078 22.2062 10.1544 22.8594 9.64562 23.5125L7.78594 21.9175C8.34109 21.3125 8.94438 20.7075 9.57344 20.1042L11.2922 21.603V21.6047ZM3.9875 32.4087C3.6025 33.3025 3.09375 34.4884 2.78094 35.31L0 34.2959C0.240625 33.6428 0.749375 32.4328 1.20828 31.3912L3.98922 32.4087H3.9875ZM21.5188 39.227L24.1278 40.1689C24.2722 41.3084 24.4887 42.3689 24.707 43.3142L21.8058 42.2744C21.6855 41.5491 21.5652 40.5092 21.517 39.2287L21.5188 39.227Z" fill="#CC0000"/>
</g>
<defs>
<clipPath id="clip0_383_5">
<rect width="55" height="55" fill="white"/>
</clipPath>
</defs>
</svg>
