<svg width="55" height="55" viewBox="0 0 55 55" fill="none" xmlns="http://www.w3.org/2000/svg">
<path d="M49.4778 0.00118064C49.5455 -0.0043235 49.6134 0.00949563 49.6734 0.0410033C49.7335 0.0725109 49.7831 0.120389 49.8165 0.178972C49.85 0.237556 49.8658 0.304395 49.862 0.371582C49.8583 0.438768 49.8352 0.503491 49.7955 0.558094L36.0693 19.0156C36.0195 19.0711 35.9585 19.1155 35.8902 19.146C35.8218 19.1764 35.7477 19.1921 35.6728 19.1921C35.5979 19.1921 35.5238 19.1764 35.4554 19.146C35.3871 19.1155 35.3261 19.0711 35.2763 19.0156L30.4357 13.672C30.3773 13.612 30.3061 13.5658 30.2272 13.5367C30.1484 13.5076 30.064 13.4964 29.9803 13.5039C29.8965 13.5113 29.8155 13.5373 29.7432 13.5799C29.6709 13.6225 29.6092 13.6806 29.5626 13.75L26.627 17.4423C26.5814 17.5442 26.5647 17.6565 26.5786 17.7671C26.5925 17.8777 26.6364 17.9824 26.7057 18.0702L35.4324 27.0268C35.4821 27.0823 35.5432 27.1267 35.6115 27.1572C35.6798 27.1876 35.7539 27.2033 35.8289 27.2033C35.9038 27.2033 35.9779 27.1876 36.0462 27.1572C36.1146 27.1267 36.1756 27.0823 36.2253 27.0268L53.3652 7.9372C53.4148 7.88497 53.4788 7.84843 53.5493 7.83217C53.6198 7.8159 53.6936 7.82064 53.7613 7.84579C53.8291 7.87094 53.8879 7.91538 53.9302 7.97351C53.9725 8.03164 53.9966 8.10087 53.9993 8.1725V54.6066C54.0026 54.659 53.9946 54.7115 53.9758 54.7606C53.957 54.8097 53.928 54.8543 53.8905 54.8914C53.853 54.9286 53.8079 54.9574 53.7583 54.9759C53.7087 54.9945 53.6557 55.0025 53.6028 54.9992H1.3987C1.34566 55.0027 1.29249 54.9949 1.24273 54.9764C1.19296 54.9579 1.14775 54.9291 1.1101 54.892C1.07245 54.8548 1.04323 54.8102 1.02438 54.7609C1.00554 54.7117 0.997505 54.6591 1.00082 54.6066V0.395197C0.997296 0.342552 1.00517 0.289769 1.02392 0.240384C1.04267 0.190998 1.07186 0.14615 1.10954 0.108843C1.14721 0.0715357 1.1925 0.0426303 1.24237 0.0240626C1.29224 0.0054948 1.34554 -0.00230665 1.3987 0.00118064H49.482H49.4778ZM35.9891 31.3499C34.8203 31.3295 33.6594 31.5438 32.5764 31.9798C31.4934 32.4158 30.5109 33.0645 29.6879 33.8867C28.865 34.709 28.2187 35.6878 27.7881 36.764C27.3574 37.8403 27.1514 38.9918 27.1823 40.1491C27.1386 41.3401 27.3459 42.5272 27.7911 43.6345C28.2363 44.7418 28.9096 45.7451 29.7681 46.5804C30.6265 47.4157 31.6513 48.0647 32.7772 48.4861C33.903 48.9075 35.1051 49.0919 36.3069 49.0277C38.694 49.0865 41.0348 48.3691 42.9711 46.9852C43.0577 46.9071 43.1133 46.8008 43.1278 46.6857C43.1422 46.5705 43.1146 46.454 43.0498 46.3573L41.6213 44.2354C41.5438 44.1475 41.4363 44.091 41.3193 44.0766C41.2024 44.0622 41.0842 44.091 40.9873 44.1575C39.7459 44.9969 38.2849 45.4607 36.7821 45.4927C35.647 45.5691 34.5237 45.2257 33.6296 44.5289C32.7356 43.8321 32.1345 42.8315 31.9428 41.721C31.9455 41.6801 31.9631 41.6416 31.9923 41.6126C32.0215 41.5837 32.0604 41.5663 32.1017 41.5637H44.0818C44.2054 41.5555 44.3219 41.5031 44.4096 41.4163C44.4973 41.3295 44.5501 41.2142 44.5584 41.0917V40.6197C44.5584 35.1216 41.0702 31.3499 35.9891 31.3499ZM24.168 28.3648C21.7581 26.4138 18.7087 25.407 15.5987 25.5357C10.2041 25.5357 6.87204 28.6781 6.87204 32.4498C6.87204 41.0137 20.0429 38.2639 20.0429 42.2709C20.0429 43.524 18.7776 44.7854 16.0753 44.7854C13.5136 44.806 11.0421 43.8493 9.17357 42.1136C9.11846 42.0626 9.053 42.0238 8.98155 41.9999C8.91011 41.9759 8.83432 41.9674 8.75926 41.9747C8.6842 41.9821 8.6116 42.0053 8.5463 42.0427C8.481 42.0801 8.42452 42.1308 8.38062 42.1916L6.31669 45.0207C6.25193 45.1174 6.22426 45.2339 6.23871 45.3491C6.25315 45.4643 6.30874 45.5705 6.39542 45.6486C8.96436 47.9119 12.3224 49.0954 15.7576 48.9483C21.9438 48.9483 24.9609 45.8059 25.1198 41.7196C25.1198 33.2336 11.9489 35.6701 11.9489 32.0557C11.9489 30.7205 13.1383 29.778 15.2023 29.778C17.4763 29.7468 19.691 30.4966 21.47 31.8998C21.5217 31.9419 21.5814 31.9733 21.6456 31.9922C21.7098 32.0111 21.7771 32.0171 21.8437 32.0099C21.9102 32.0026 21.9746 31.9822 22.0331 31.9499C22.0916 31.9176 22.143 31.8741 22.1842 31.8218L24.2467 29.0721C24.2892 29.0209 24.3209 28.9617 24.34 28.8982C24.3591 28.8346 24.3652 28.7679 24.3578 28.702C24.3505 28.6361 24.3299 28.5723 24.2973 28.5144C24.2647 28.4565 24.2207 28.4056 24.168 28.3648ZM36.0693 34.8083C37.1082 34.7507 38.1288 35.0966 38.9141 35.7727C39.6994 36.4487 40.1875 37.4014 40.2745 38.4282C40.2718 38.4691 40.2542 38.5076 40.225 38.5366C40.1957 38.5655 40.1568 38.5829 40.1156 38.5856H32.023C31.9817 38.5829 31.9428 38.5655 31.9136 38.5366C31.8843 38.5076 31.8667 38.4691 31.8641 38.4282C31.9909 37.4175 32.4904 36.4888 33.2666 35.8207C34.0428 35.1525 35.0409 34.7919 36.0693 34.8083Z" fill="#2CB134"/>
</svg>
