<svg width="55" height="55" viewBox="0 0 55 55" fill="none" xmlns="http://www.w3.org/2000/svg">
<g clip-path="url(#clip0_383_186)">
<path d="M45.6646 10.7284C45.6242 10.4852 45.4257 10.2987 45.1799 10.2755C44.9866 10.2437 40.737 9.95242 40.737 9.95242L37.4971 6.71258C37.2049 6.38945 36.5587 6.48398 36.3146 6.55102C36.2828 6.55102 35.6684 6.74437 34.6629 7.07094C33.6858 4.24359 31.9559 1.65172 28.9085 1.65172H28.6481C27.775 0.519922 26.706 0 25.8036 0C18.7086 0.0317969 15.3278 8.87992 14.2588 13.4011L9.30018 14.9222C7.77909 15.4069 7.72323 15.4421 7.5187 16.8927L3.33612 49.1348L34.6758 55L51.6596 51.3391C51.6596 51.3073 45.6956 11.0361 45.6646 10.7284ZM32.9253 7.61406C32.1372 7.87445 31.2383 8.13398 30.2698 8.42617V7.8418C30.2985 6.38358 30.08 4.93103 29.6235 3.54578C31.2117 3.78984 32.279 5.57133 32.9261 7.6132L32.9253 7.61406ZM27.7106 3.92047C28.2288 5.44844 28.4694 7.05719 28.4204 8.67023V8.96242L22.9419 10.6494C24.0144 6.64469 25.9918 4.66641 27.7106 3.92047ZM25.6051 1.94992C25.9292 1.95682 26.2443 2.05806 26.5117 2.24125C24.2258 3.30516 21.8092 5.99328 20.7728 11.3738L16.4373 12.7024C17.6602 8.61953 20.5133 1.94219 25.6025 1.94219L25.6051 1.94992Z" fill="#95BF47"/>
<path d="M45.1799 10.2756C44.9865 10.2438 40.7369 9.95243 40.7369 9.95243L37.4971 6.71259C37.3768 6.59055 37.2135 6.52094 37.0442 6.51923L34.6792 55L51.663 51.3391L45.6646 10.7611C45.6451 10.6396 45.5878 10.5273 45.5008 10.4402C45.4137 10.3532 45.3014 10.2959 45.1799 10.2764V10.2756Z" fill="#5E8E3E"/>
<path d="M28.9094 19.6711L26.8004 25.8947C25.526 25.2777 24.1329 24.946 22.7167 24.921C19.4098 24.921 19.2483 26.9938 19.2483 27.5146C19.2483 30.3488 26.6698 31.4368 26.6698 38.1133C26.6698 43.3641 23.3312 46.7328 18.8495 46.7328C13.4698 46.7328 10.7138 43.3942 10.7138 43.3942L12.1447 38.6246C12.1447 38.6246 14.9634 41.0567 17.3636 41.0567C17.6506 41.0676 17.9367 41.0202 18.2048 40.9174C18.4729 40.8145 18.7173 40.6583 18.9233 40.4583C19.1293 40.2583 19.2926 40.0185 19.4032 39.7535C19.5139 39.4886 19.5696 39.2039 19.5671 38.9168C19.5671 35.1871 13.4741 35.0264 13.4741 28.9326C13.4741 23.809 17.1677 18.8177 24.5893 18.8177C27.506 18.8607 28.9016 19.6685 28.9016 19.6685L28.9094 19.6711Z" fill="white"/>
</g>
<defs>
<clipPath id="clip0_383_186">
<rect width="55" height="55" fill="white"/>
</clipPath>
</defs>
</svg>
