<svg width="55" height="55" viewBox="0 0 55 55" fill="none" xmlns="http://www.w3.org/2000/svg">
<g clip-path="url(#clip0_383_210)">
<path fill-rule="evenodd" clip-rule="evenodd" d="M11.9989 4.46475L27.4978 2.84111L42.9967 4.46475L54.9967 20.4268L27.4989 52.1578L0 20.4268L11.9989 4.46475Z" fill="#FDB300"/>
<path fill-rule="evenodd" clip-rule="evenodd" d="M11.1388 20.6188L27.4989 52.1589L0 20.6188H11.1388Z" fill="#EA6C00"/>
<path fill-rule="evenodd" clip-rule="evenodd" d="M43.8612 20.6188L27.5 52.1589L55 20.6188H43.8612Z" fill="#EA6C00"/>
<path fill-rule="evenodd" clip-rule="evenodd" d="M10.8894 20.6188H43.5444L27.2169 52.1589L10.8894 20.6188Z" fill="#FDAD00"/>
<path fill-rule="evenodd" clip-rule="evenodd" d="M26.9414 2.84111L11.7332 4.48211L10.8894 20.6177L26.9414 2.84111Z" fill="#FDD231"/>
<path fill-rule="evenodd" clip-rule="evenodd" d="M27.4837 2.84111L42.692 4.48211L43.5358 20.6177L27.4837 2.84111Z" fill="#FDD231"/>
<path fill-rule="evenodd" clip-rule="evenodd" d="M55 20.6188L42.9685 4.56129L43.8319 20.6188H55Z" fill="#FDAD00"/>
<path fill-rule="evenodd" clip-rule="evenodd" d="M0.000595093 20.6189L12.031 4.56139L11.1676 20.6189H0.000595093Z" fill="#FDAD00"/>
<path fill-rule="evenodd" clip-rule="evenodd" d="M27.2174 2.84122L10.8899 20.6178H43.545L27.2174 2.84122Z" fill="#FEEEB7"/>
</g>
<defs>
<clipPath id="clip0_383_210">
<rect width="55" height="55" fill="white"/>
</clipPath>
</defs>
</svg>
