<svg width="55" height="56" viewBox="0 0 55 56" fill="none" xmlns="http://www.w3.org/2000/svg">
<path d="M43.2917 2.64288H4.69236C2.10218 2.64288 0 4.53602 0 6.83125V44.8281C0 47.1401 2.12095 49.0164 4.69236 49.0164H30.125C29.8434 37.7246 34.1604 15.8111 43.3011 2.60938L43.2917 2.64288Z" fill="#0F80CC"/>
<path d="M41.884 3.87427H4.69235C3.80953 3.87648 2.96357 4.19049 2.33931 4.7477C1.71505 5.3049 1.36326 6.06 1.36078 6.848V42.0721C9.78826 39.1822 22.4295 36.6943 31.176 36.8116C33.8725 25.6203 37.4445 14.6136 41.884 3.87427Z" fill="url(#paint0_linear_397_309)"/>
<path d="M52.3011 1.40313C49.6546 -0.691055 46.4544 0.146617 43.2917 2.64288L41.884 3.86588C36.4784 8.97569 31.5608 18.4581 29.9091 25.704C30.4976 26.8516 30.9627 28.0464 31.2981 29.2725L31.5045 30.1102L31.711 30.9646C31.711 30.9646 31.6641 30.7971 31.467 30.2945L31.3356 29.9594C31.3092 29.8973 31.2811 29.8359 31.2511 29.7751C30.713 28.7706 30.1275 27.7868 29.4962 26.8265C29.1547 27.7172 28.8325 28.6137 28.5296 29.5154C29.7683 31.5426 30.5191 35.0105 30.5191 35.0105C30.5191 35.0105 30.4534 34.7844 30.1437 34.0053C29.8622 33.3101 28.492 31.1573 28.1729 30.6547C27.6099 32.4975 27.394 33.7373 27.5911 34.0388C27.9665 34.6252 28.3419 35.7142 28.6703 36.7529C29.1771 38.5949 29.5905 40.4565 29.9091 42.3318L29.956 42.8512C29.8588 44.9459 29.9058 47.0441 30.0968 49.1337C30.3408 51.7556 30.8007 54.009 31.3825 55.2152L31.7767 55.0225C30.932 52.6436 30.5754 49.5358 30.7256 45.9422C30.9602 40.4554 32.3679 33.8378 34.9862 26.9438C39.4252 16.4477 45.5441 8.08775 51.1561 4.10043C46.0414 8.22178 39.1249 21.5575 37.0603 26.4914C34.7422 32.0201 33.0999 37.2136 32.1051 42.181C33.8132 37.5236 39.3314 35.5132 39.3314 35.5132C39.3314 35.5132 42.0529 32.531 45.2062 28.2673L39.1531 29.7081L37.201 30.4787C37.201 30.4787 42.1749 27.7731 46.4638 26.5417C52.348 18.2738 58.7577 6.52131 52.3011 1.39475" fill="#003B57"/>
<defs>
<linearGradient id="paint0_linear_397_309" x1="24.7381" y1="4.6533" x2="24.7381" y2="39.9528" gradientUnits="userSpaceOnUse">
<stop stop-color="#97D9F6"/>
<stop offset="0.92024" stop-color="#0F80CC"/>
<stop offset="1" stop-color="#0F80CC"/>
</linearGradient>
</defs>
</svg>
