<svg width="55" height="55" viewBox="0 0 55 55" fill="none" xmlns="http://www.w3.org/2000/svg">
<g clip-path="url(#clip0_379_2)">
<path d="M47.4307 7.27584C42.3514 -0.0402676 32.2393 -2.18384 24.9698 2.4295L12.1549 10.631C8.65991 12.8212 6.23673 16.4093 5.53774 20.4635C4.93194 23.8652 5.44454 27.3602 7.07552 30.3892C5.95713 32.0667 5.21154 33.9307 4.88534 35.8879C4.13975 40.0352 5.11834 44.3224 7.54152 47.7242C12.6675 55.0403 22.733 57.1838 30.0025 52.5705L42.8174 44.4156C46.3124 42.2254 48.7355 38.6373 49.4345 34.5831C50.0403 31.1814 49.5277 27.6864 47.8967 24.6574C49.0151 22.9799 49.7607 21.1159 50.0869 19.1587C50.8791 14.9648 49.9005 10.6776 47.4307 7.27584Z" fill="#FF3E00"/>
<path d="M23.7116 48.4231C19.5642 49.4949 15.2304 47.8639 12.8073 44.369C11.3161 42.3186 10.7569 39.7556 11.1763 37.2393C11.2695 36.8199 11.3627 36.4471 11.4559 36.0277L11.6889 35.2821L12.3413 35.7481C13.8791 36.8665 15.5566 37.7053 17.374 38.2645L17.84 38.4043L17.7934 38.8703C17.7468 39.5226 17.9332 40.2216 18.306 40.7808C19.0516 41.8526 20.3564 42.3652 21.6146 42.039C21.8942 41.9458 22.1738 41.8526 22.4068 41.7128L35.1751 33.5579C35.8275 33.1385 36.2469 32.5327 36.3867 31.7871C36.5265 31.0415 36.34 30.2494 35.9207 29.6436C35.1751 28.5718 33.8703 28.1058 32.6121 28.432C32.3325 28.5252 32.0529 28.6184 31.8199 28.7582L26.9269 31.8803C26.1347 32.3929 25.2494 32.7657 24.3174 32.9987C20.17 34.0705 15.8362 32.4395 13.4131 28.9446C11.9685 26.8942 11.3627 24.3312 11.8287 21.8149C12.2481 19.3917 13.7393 17.2015 15.8362 15.8967L28.6511 7.74183C29.4433 7.22924 30.3287 6.85644 31.2607 6.57685C35.4081 5.50506 39.7418 7.13604 42.165 10.631C43.6562 12.6814 44.2154 15.2443 43.796 17.7607C43.7028 18.1801 43.6096 18.5529 43.4698 18.9723L43.2368 19.7179L42.5844 19.2519C41.0466 18.1335 39.369 17.2947 37.5516 16.7355L37.0856 16.5957L37.1322 16.1297C37.1788 15.4773 36.9924 14.7783 36.6197 14.2192C35.8741 13.1474 34.5693 12.6814 33.3111 13.0076C33.0315 13.1008 32.7519 13.194 32.5189 13.3338L19.7506 21.4887C19.0982 21.9081 18.6788 22.5139 18.539 23.2594C18.3992 24.005 18.5856 24.7972 19.005 25.403C19.7506 26.4748 21.0554 26.9408 22.3136 26.6146C22.5932 26.5214 22.8728 26.4282 23.1058 26.2884L27.9987 23.1662C28.7909 22.6537 29.6763 22.2809 30.6083 22.0013C34.7557 20.9295 39.0894 22.5605 41.5126 26.0554C43.0038 28.1058 43.563 30.6688 43.1436 33.1851C42.7242 35.6083 41.233 37.7985 39.136 39.1033L26.3211 47.2582C25.529 47.7707 24.6436 48.1435 23.7116 48.4231Z" fill="white"/>
</g>
<defs>
<clipPath id="clip0_379_2">
<rect width="55" height="55" fill="white"/>
</clipPath>
</defs>
</svg>
