<svg width="55" height="55" viewBox="0 0 55 55" fill="none" xmlns="http://www.w3.org/2000/svg">
<mask id="mask0_382_98" style="mask-type:luminance" maskUnits="userSpaceOnUse" x="0" y="21" width="55" height="14">
<path d="M54.5 21H0V34.2762H54.5V21Z" fill="white"/>
</mask>
<g mask="url(#mask0_382_98)">
<path d="M51.7884 27.8695C52.6376 27.8695 53.4875 27.8695 54.3367 27.8695C54.4634 27.8695 54.5031 27.9037 54.5 28.032C54.5173 29.3609 54.1348 30.6643 53.402 31.7731C52.8631 32.5524 52.1357 33.1826 51.2877 33.6052C50.6609 33.917 49.987 34.1235 49.2931 34.2164C48.6894 34.2862 48.0805 34.3006 47.4742 34.2591C46.8851 34.2293 46.3022 34.1247 45.7394 33.9481C45.1729 33.7776 44.6317 33.532 44.1304 33.2179C43.571 32.8678 43.07 32.4322 42.6453 31.9271C42.4035 31.6493 42.1808 31.3555 41.9788 31.0476C41.7539 30.6903 41.5685 30.3096 41.426 29.9123C41.1896 29.2606 41.0584 28.5755 41.0372 27.8827C41.0106 27.1967 41.0893 26.5106 41.2704 25.8484C41.4493 25.2255 41.7153 24.631 42.0604 24.0825C42.6237 23.1638 43.4155 22.4067 44.3584 21.8849C45.1271 21.449 45.9767 21.1746 46.8552 21.0785C47.3081 21.019 47.7648 20.993 48.2215 21.0008C49.5013 21.0285 50.7545 21.3715 51.8701 21.9992C52.5215 22.3848 53.1327 22.8347 53.6944 23.3422C53.7722 23.4106 53.7372 23.4503 53.682 23.4938C53.3989 23.7178 53.1664 23.9954 52.9005 24.2372C52.8118 24.315 52.7302 24.3531 52.633 24.2458C52.2211 23.8181 51.7467 23.4552 51.2262 23.1696C50.7665 22.906 50.2787 22.6947 49.772 22.5397C49.2574 22.3817 48.725 22.2885 48.1873 22.2621C47.8334 22.2518 47.4794 22.2721 47.129 22.3227C46.7125 22.373 46.3044 22.4776 45.9151 22.6338C45.1448 22.907 44.4474 23.3532 43.8764 23.9379C43.3054 24.5227 42.876 25.2305 42.6212 26.0071C42.3754 26.7548 42.3124 27.5505 42.4376 28.3275C42.6169 29.5799 43.2424 30.7256 44.1989 31.5538C44.9772 32.2515 45.9349 32.718 46.9641 32.9006C47.611 33.0292 48.2741 33.0554 48.9291 32.9784C49.8448 32.877 50.7134 32.5196 51.4354 31.9473C52.0072 31.5105 52.4583 30.9351 52.7457 30.2754C52.8948 29.9323 52.9939 29.5696 53.0404 29.1984C53.0497 29.1113 53.0202 29.1152 52.9626 29.1137C52.9237 29.1137 52.8848 29.1137 52.846 29.1137C51.6461 29.1137 50.4471 29.1137 49.2472 29.1137C49.0979 29.1137 49.0427 29.0872 49.0504 28.927C49.0637 28.6362 49.0621 28.3438 49.0504 28.0522C49.045 27.9037 49.0823 27.8547 49.2402 27.8562C50.0893 27.8648 50.9393 27.8562 51.7884 27.8562V27.8625" fill="#FFB000"/>
<path d="M30.771 24.5086C30.771 27.5931 30.7726 30.6777 30.7757 33.7622C30.7757 33.91 30.736 33.9496 30.5906 33.9442C30.2862 33.9288 29.9813 33.9288 29.6769 33.9442C29.4779 33.9566 29.4491 33.8835 29.4499 33.7054C29.4556 30.8542 29.4568 28.0029 29.4537 25.1517C29.4537 23.9464 29.4537 22.7411 29.4537 21.5358C29.4537 21.465 29.4087 21.3585 29.5004 21.3289C29.5546 21.3077 29.6141 21.3038 29.6706 21.3178C29.7271 21.3317 29.7779 21.3627 29.8161 21.4067C30.2645 21.9297 30.714 22.452 31.1645 22.9736C31.6311 23.5132 32.1085 24.0482 32.5774 24.5879C33.4056 25.5412 34.2298 26.4977 35.0588 27.4495C35.6389 28.1152 36.2252 28.7715 36.8069 29.4379C37.1879 29.8741 37.5612 30.3174 37.9414 30.7552C37.9811 30.8003 38.0192 30.8889 38.083 30.8671C38.1467 30.8454 38.1164 30.7536 38.1164 30.6953C38.1164 27.6626 38.1164 24.6299 38.1164 21.5972C38.1164 21.3149 38.1164 21.3149 38.408 21.3149C38.6801 21.3149 38.9523 21.3211 39.2245 21.3149C39.3481 21.311 39.3893 21.3546 39.3738 21.4704C39.3721 21.4963 39.3721 21.5223 39.3738 21.5482C39.3738 25.5985 39.3738 29.6489 39.3738 33.6992C39.3738 33.7886 39.4204 33.917 39.2867 33.9434C39.2268 33.9657 39.1608 33.9653 39.1012 33.9422C39.0415 33.9191 38.9925 33.875 38.9632 33.8182C38.8462 33.6589 38.7162 33.5096 38.5744 33.3718C38.2556 32.9939 37.9173 32.6331 37.6008 32.2529C37.4049 32.0196 37.1964 31.7917 36.995 31.56C36.6521 31.1642 36.2952 30.7824 35.9639 30.3741C35.6622 30.0071 35.3278 29.6665 35.0145 29.3088C34.7011 28.9511 34.4009 28.5825 34.0883 28.2248C33.7921 27.885 33.4794 27.5599 33.1894 27.2139C32.9724 26.9557 32.7485 26.703 32.5284 26.4487C32.3084 26.1944 32.0836 25.9542 31.8706 25.6999C31.6451 25.4316 31.3892 25.1898 31.1839 24.9036C31.0675 24.7597 30.9418 24.6236 30.8076 24.4961C30.8021 24.4782 30.7936 24.4619 30.7726 24.4744C30.7671 24.4744 30.7726 24.4954 30.7726 24.5062" fill="#B40A1B"/>
<path d="M11.672 24.3624H12.3555C12.3983 24.4697 12.4877 24.4176 12.5608 24.4222C13.4752 24.4733 14.3504 24.8106 15.0624 25.3865C15.586 25.7964 16.016 26.3134 16.3237 26.9028C16.5596 27.367 16.72 27.8657 16.7988 28.3803C16.8422 28.6448 16.8682 28.9118 16.8766 29.1797C16.8805 29.3158 16.8432 29.3523 16.7071 29.3516C15.8253 29.3453 14.9442 29.3516 14.0632 29.3516C12.2741 29.3516 10.4856 29.3516 8.69763 29.3516C8.55688 29.3516 8.49778 29.3687 8.50633 29.5358C8.515 30.1997 8.70563 30.8484 9.05746 31.4114C9.40929 31.9743 9.90883 32.43 10.5017 32.7287C11.0136 32.9959 11.5914 33.1109 12.1666 33.06C12.724 33.0205 13.2689 32.8756 13.7723 32.6331C14.2216 32.4218 14.6142 32.1068 14.9178 31.7139C15.1144 31.4638 15.2962 31.2024 15.4621 30.9309C15.4695 30.9115 15.4813 30.894 15.4966 30.8799C15.5119 30.8658 15.5303 30.8555 15.5502 30.8497C15.5702 30.8439 15.5913 30.8428 15.6117 30.8465C15.6322 30.8502 15.6515 30.8586 15.6682 30.871C15.9442 31.018 16.2203 31.1657 16.5002 31.3049C16.592 31.3508 16.5609 31.392 16.529 31.455C16.332 31.8509 16.0873 32.2212 15.8004 32.5577C15.3361 33.1001 14.7524 33.5276 14.0951 33.8065C13.298 34.119 12.4389 34.2407 11.5865 34.1619C10.918 34.1234 10.2657 33.9409 9.67431 33.6269C9.34495 33.4493 9.04448 33.2228 8.78316 32.955C8.21613 32.3803 7.77865 31.691 7.5001 30.9332C7.28249 30.3012 7.19442 29.6319 7.24115 28.9651C7.28806 27.934 7.66232 26.9447 8.3096 26.1408C8.84318 25.426 9.58257 24.8915 10.4286 24.6089C10.7726 24.4757 11.1401 24.4143 11.5087 24.4285C11.5725 24.4331 11.6479 24.4689 11.6751 24.3686M8.62453 28.2769C8.68441 28.2769 8.72796 28.2862 8.77228 28.2862H15.3618C15.3945 28.2862 15.4263 28.2862 15.459 28.2862C15.5259 28.2862 15.5414 28.2458 15.5165 28.1991C15.4772 28.0867 15.445 27.9719 15.4201 27.8554C15.2251 27.2681 14.876 26.7439 14.4092 26.3375C14.043 26.0427 13.6251 25.8187 13.1767 25.6773C12.6069 25.5118 12.0083 25.4696 11.4208 25.5537C11.0306 25.6007 10.6544 25.7281 10.3159 25.9277C9.8076 26.2088 9.38348 26.6203 9.08722 27.1198C8.89225 27.4887 8.73589 27.8767 8.62064 28.2777" fill="#0D0D0D"/>
<path d="M4.14546 28.2582C4.14546 30.0848 4.14546 31.913 4.15012 33.7389C4.15012 33.9138 4.10502 33.9566 3.9355 33.9496C3.61823 33.9348 3.30019 33.9395 2.98292 33.9496C2.86006 33.9496 2.81729 33.9131 2.83362 33.7941C2.83631 33.7552 2.83631 33.7163 2.83362 33.6774C2.83362 30.0434 2.83491 26.4093 2.83751 22.7753C2.83751 22.598 2.79318 22.5536 2.61744 22.556C1.80094 22.5661 0.984446 22.556 0.167172 22.5637C0.0303112 22.5645 -0.000793457 22.5225 -0.000793457 22.3896C0.00853794 22.0785 0.00542747 21.7675 -0.000793457 21.4564C-0.000793457 21.3476 0.0318664 21.3126 0.143843 21.3126C2.36731 21.3157 4.59051 21.3157 6.81346 21.3126C6.93632 21.3126 6.96898 21.3522 6.96276 21.4681C6.95576 21.7721 6.95343 22.077 6.96276 22.381C6.9682 22.5241 6.93088 22.5653 6.78313 22.5637C5.96663 22.556 5.15014 22.5637 4.33286 22.5552C4.16334 22.5552 4.13846 22.6042 4.13846 22.7581C4.1439 24.5918 4.13846 26.4246 4.13846 28.2582" fill="#0D0D0D"/>
<path d="M20.0734 24.3624H20.5625C20.5866 24.4401 20.627 24.4549 20.6869 24.3942C21.0653 24.4706 21.4315 24.598 21.7756 24.7729C22.1542 24.9827 22.5063 25.237 22.8246 25.5303C22.8915 25.5933 22.9202 25.6275 22.8292 25.7115C22.6115 25.9122 22.4086 26.1307 22.2071 26.3484C22.1341 26.4262 22.0788 26.3795 22.0369 26.3352C21.8138 26.1101 21.5566 25.9216 21.2748 25.7768C21.0148 25.605 20.7134 25.506 20.4021 25.4902C20.0908 25.4745 19.7809 25.5426 19.5049 25.6874C19.3366 25.7715 19.1904 25.8939 19.078 26.0447C18.9656 26.1956 18.8903 26.3707 18.8579 26.556C18.8255 26.7413 18.8371 26.9317 18.8916 27.1117C18.9462 27.2917 19.0423 27.4564 19.1721 27.5926C19.5773 28.0157 20.0616 28.3552 20.5975 28.5918C21.3202 28.9121 21.9635 29.3876 22.4816 29.9845C22.7282 30.3127 22.877 30.7038 22.9109 31.1129C22.9576 31.5429 22.9093 31.978 22.7694 32.3874C22.5643 32.9605 22.1655 33.444 21.6418 33.7544C21.0499 34.1072 20.355 34.2463 19.6729 34.1487C19.0104 34.0693 18.3806 33.8167 17.8471 33.4161C17.6814 33.2821 17.5295 33.1317 17.3937 32.9675C17.3713 32.9448 17.3588 32.9142 17.3588 32.8823C17.3588 32.8504 17.3713 32.8199 17.3937 32.7972C17.6519 32.5592 17.8237 32.2435 18.1068 32.0196C18.3881 32.32 18.7104 32.5795 19.064 32.7902C19.4241 33.0083 19.8476 33.0973 20.265 33.0426C20.6824 32.9879 21.0687 32.7927 21.3603 32.4892C21.5452 32.3071 21.6751 32.0766 21.7352 31.8242C21.7953 31.5717 21.7831 31.3074 21.7001 31.0615C21.5764 30.7044 21.3279 30.404 21.0003 30.2155C20.3315 29.7489 19.564 29.4472 18.9007 28.9674C18.4159 28.651 18.0543 28.1778 17.8766 27.6268C17.7316 27.2095 17.7015 26.7609 17.7893 26.3279C17.8771 25.8949 18.0797 25.4935 18.3758 25.1656C18.7129 24.8043 19.1475 24.5485 19.627 24.4292C19.7289 24.4012 19.844 24.4487 19.9443 24.3896C20.001 24.4526 20.0438 24.4479 20.0687 24.3631" fill="#0D0D0D"/>
<path d="M28.376 25.5109L28.3635 25.5731C28.3542 25.5669 28.3433 25.5506 28.3371 25.5731L28.3635 25.5661C28.3674 25.7116 28.2531 25.6439 28.1963 25.6439C27.6909 25.6501 27.1855 25.6556 26.68 25.6439C26.5105 25.64 26.4669 25.682 26.4669 25.8546C26.4731 28.4783 26.4669 31.102 26.4763 33.7257C26.4763 33.91 26.4226 33.9512 26.2523 33.9419C25.9869 33.9251 25.7207 33.9251 25.4553 33.9419C25.2562 33.9566 25.2274 33.8828 25.2282 33.7039C25.2344 31.0997 25.2282 28.4939 25.2375 25.8912C25.2375 25.6836 25.18 25.6354 24.9824 25.6424C24.575 25.6579 24.166 25.6424 23.7577 25.6494C23.6411 25.6494 23.6022 25.6245 23.6022 25.5001C23.6123 25.2411 23.6123 24.9814 23.6022 24.7224C23.5975 24.5972 23.6403 24.5731 23.7577 24.5747C24.1986 24.5817 24.6395 24.5747 25.0797 24.5801C25.201 24.5801 25.2352 24.5576 25.2352 24.4246C25.2282 23.3943 25.2352 22.3647 25.2259 21.3344C25.2259 21.1384 25.2826 21.0964 25.4638 21.1073C25.7352 21.1228 26.0081 21.1197 26.2803 21.1073C26.4273 21.1011 26.4763 21.1353 26.4747 21.2947C26.4669 22.3118 26.4747 23.3289 26.4662 24.3461C26.4662 24.5249 26.4949 24.5879 26.6916 24.5794C27.2033 24.563 27.7158 24.5731 28.2275 24.5747C28.2951 24.5747 28.3985 24.5366 28.3752 24.6758C28.3332 24.6758 28.3348 24.6944 28.3355 24.7357C28.3402 24.9689 28.3355 25.1952 28.3355 25.4246C28.3355 25.4456 28.2951 25.5102 28.3744 25.4985" fill="#0D0D0D"/>
<path d="M28.3752 25.5109C28.2974 25.5234 28.3371 25.4581 28.3363 25.4371C28.3363 25.2038 28.3363 24.9775 28.3363 24.7481C28.3363 24.7069 28.3363 24.6898 28.3759 24.6882C28.4022 24.9618 28.4014 25.2373 28.3752 25.5109Z" fill="#696565"/>
<path d="M12.5585 24.4223C12.4854 24.4176 12.396 24.4697 12.3532 24.3624C12.431 24.3422 12.5134 24.3219 12.5585 24.4223Z" fill="#696565"/>
<path d="M11.6697 24.3624C11.6432 24.4627 11.5678 24.4269 11.5033 24.4223C11.5344 24.336 11.6028 24.3507 11.6697 24.3624Z" fill="#696565"/>
<path d="M20.0734 24.3624C20.0477 24.4471 20.0057 24.4518 19.949 24.3888C19.9637 24.371 19.984 24.3588 20.0066 24.354C20.0292 24.3492 20.0527 24.3521 20.0734 24.3624Z" fill="#696565"/>
<path d="M20.6869 24.3943C20.627 24.455 20.5866 24.4418 20.5625 24.3624C20.5836 24.352 20.6078 24.3495 20.6306 24.3554C20.6534 24.3612 20.6734 24.375 20.6869 24.3943Z" fill="#696565"/>
<path d="M30.7703 24.5062C30.7703 24.4953 30.7703 24.4774 30.7703 24.4743C30.792 24.4619 30.8006 24.4782 30.8061 24.4961C30.7939 24.5006 30.7814 24.5039 30.7687 24.5062" fill="#DC8B74"/>
<path d="M28.3636 25.5693L28.3371 25.5763C28.3426 25.5506 28.3535 25.5669 28.3636 25.5763" fill="#696565"/>
</g>
</svg>
