<?xml version="1.0" encoding="iso-8859-1"?>
<!-- Uploaded to: SVG Repo, www.svgrepo.com, Generator: SVG Repo Mixer Tools -->
<!DOCTYPE svg PUBLIC "-//W3C//DTD SVG 1.1//EN" "http://www.w3.org/Graphics/SVG/1.1/DTD/svg11.dtd">
<svg fill="#000000" version="1.1" id="Capa_1" xmlns="http://www.w3.org/2000/svg" xmlns:xlink="http://www.w3.org/1999/xlink" 
	 width="800px" height="800px" viewBox="0 0 924.139 924.138"
	 xml:space="preserve">
<g>
	<path d="M350.27,388.938c0.399-50.8-41.5-93.8-92.2-94.8c-52.9-1.101-96.1,41.5-96.1,94.1c0,41.801,27.4,76.801,65,89.101v35.8
		c0,22,10.3,42.7,27.9,55.9l181.2,136.5c-46.5,13.399-80.5,56.3-80.5,107.1c0,61.6,49.9,111.5,111.5,111.5
		c61.6,0,111.5-49.9,111.5-111.5c0-51.3-34.699-94.5-81.9-107.5v-52.6l166.4-115.601c18.801-13.1,30.1-34.6,30.1-57.5v-49.5h19
		c27.602,0,50-22.399,50-50v-81.2c0-27.6-22.398-50-50-50H615.97c-27.6,0-50,22.4-50,50v81.2c0,27.601,22.4,50,50,50h19v55.7
		l-138.301,96v-366.3h48.9c35,0,56.6-38.301,38.5-68.301L509.87,24.138c-19.301-32-65.6-32.2-85.3-0.5l-76.2,123
		c-18.6,30,3,68.7,38.3,68.7h51.9v419.1l-153.3-115.399v-41.7C322.669,465.138,349.97,430.338,350.27,388.938z"/>
</g>
</svg>