<svg width="55" height="55" viewBox="0 0 55 55" fill="none" xmlns="http://www.w3.org/2000/svg">
<g clip-path="url(#clip0_404_409)">
<path d="M24.8535 29.9197C24.8535 30.944 24.002 31.7491 22.9655 31.7491H20.9296L21.5958 33.9211L18.2437 31.7491H5.88794C4.85144 31.7491 4 30.9241 4 29.9197V23.8338C4 22.8294 4.85144 22.0044 5.88794 22.0044H22.945C24.002 22.0044 24.8329 22.8294 24.8329 23.8338V29.9157H24.8535V29.9197Z" fill="url(#paint0_linear_404_409)"/>
<path d="M5.83435 24.4794C5.83435 24.0649 6.1141 23.8338 6.48423 23.8338C6.85444 23.8338 7.1341 24.0689 7.1341 24.4794V27.385C7.1341 28.1582 7.63594 28.768 8.46676 28.768C9.24413 28.768 9.78301 28.1223 9.78301 27.385V24.4794C9.78301 24.0649 10.0627 23.8338 10.4329 23.8338C10.803 23.8338 11.0828 24.0689 11.0828 24.4794V27.4568C11.0828 28.8557 9.89813 29.9159 8.47088 29.9159C7.02713 29.9159 5.85901 28.8755 5.85901 27.4568V24.4794H5.83435ZM14.4473 26.6874C14.2045 26.6874 13.7439 26.3287 13.3367 26.3287C13.1146 26.3287 12.9089 26.4363 12.9089 26.6714C12.9089 27.2295 15.056 27.1577 15.056 28.5208C15.056 29.3299 14.3527 29.9396 13.2955 29.9396C12.5922 29.9396 11.5722 29.561 11.5722 29.007C11.5722 28.8277 11.7573 28.4689 12.111 28.4689C12.5922 28.4689 12.8143 28.8834 13.3901 28.8834C13.7604 28.8834 13.8714 28.7559 13.8714 28.5407C13.8714 27.9827 11.7244 28.0744 11.7244 26.6914C11.7244 25.8664 12.4277 25.2924 13.4108 25.2924C14.0236 25.2924 14.9655 25.5635 14.9655 26.1533C14.9655 26.4204 14.7433 26.6874 14.4473 26.6874ZM16.7218 27.9986C16.8164 28.5925 17.314 28.8596 17.8899 28.8596C18.5192 28.8596 18.9634 28.3733 19.2966 28.3733C19.5557 28.3733 19.7984 28.6244 19.7984 28.8954C19.7984 29.4175 18.6879 29.9197 17.7789 29.9197C16.3886 29.9197 15.4467 28.9313 15.4467 27.6041C15.4467 26.3845 16.3557 25.2725 17.6679 25.2725C19.021 25.2725 19.8889 26.4562 19.8889 27.4606C19.8889 27.8193 19.7202 27.9986 19.3501 27.9986H16.7218ZM18.6673 27.2095C18.5933 26.6874 18.2601 26.2929 17.6843 26.2929C17.129 26.2929 16.7589 26.7073 16.7012 27.2095H18.6673ZM20.5388 25.9341C20.5388 25.5396 20.8719 25.3403 21.1681 25.3403C21.5012 25.3403 21.7809 25.4678 21.7809 25.8425H21.8016C22.0442 25.4997 22.2827 25.3403 22.6734 25.3403C22.9697 25.3403 23.2863 25.5555 23.2863 25.9859C23.2863 26.3805 22.9162 26.4004 22.5459 26.5798C22.1758 26.7433 21.8056 26.9026 21.8056 27.3889V29.2382C21.8056 29.6327 21.5465 29.9038 21.1928 29.9038C20.8225 29.9038 20.5799 29.6327 20.5799 29.2382V25.9341H20.5388Z" fill="white"/>
<path d="M27.1897 25.0373H26.2438C25.8365 25.0373 25.6514 24.7505 25.6514 24.4635C25.6514 24.1764 25.8736 23.8895 26.2437 23.8895H29.4108C29.781 23.8895 30.0031 24.1765 30.0031 24.4635C30.0031 24.7505 29.8344 25.0373 29.4108 25.0373H28.4648V29.2182C28.4648 29.6327 28.1851 29.8639 27.8149 29.8639C27.4447 29.8639 27.1651 29.6287 27.1651 29.2182V25.0373H27.1897ZM30.5049 27.9986C30.5995 28.5925 31.0972 28.8596 31.673 28.8596C32.3023 28.8596 32.7465 28.3733 33.0796 28.3733C33.3388 28.3733 33.5815 28.6244 33.5815 28.8954C33.5815 29.4175 32.4709 29.9197 31.5619 29.9197C30.1717 29.9197 29.2298 28.9313 29.2298 27.6041C29.2298 26.3845 30.1388 25.2725 31.4509 25.2725C32.8041 25.2725 33.672 26.4562 33.672 27.4606C33.672 27.8193 33.5033 27.9986 33.1332 27.9986H30.5049ZM32.4463 27.2095C32.3722 26.6874 32.039 26.2929 31.4632 26.2929C30.9079 26.2929 30.5378 26.7073 30.4802 27.2095H32.4462H32.4463ZM36.9501 26.6874C36.7075 26.6874 36.2468 26.3287 35.8396 26.3287C35.6175 26.3287 35.4118 26.4363 35.4118 26.6714C35.4118 27.2295 37.5588 27.1577 37.5588 28.5208C37.5588 29.3299 36.8555 29.9396 35.7985 29.9396C35.0951 29.9396 34.0751 29.561 34.0751 29.007C34.0751 28.8277 34.2601 28.4689 34.6139 28.4689C35.0951 28.4689 35.3172 28.8834 35.8931 28.8834C36.2632 28.8834 36.3743 28.7559 36.3743 28.5407C36.3743 27.9827 34.2272 28.0744 34.2272 26.6914C34.2272 25.8664 34.9306 25.2924 35.9136 25.2924C36.5265 25.2924 37.4684 25.5635 37.4684 26.1533C37.4684 26.4204 37.2462 26.6874 36.9501 26.6874ZM38.5419 26.4363H38.2622C37.9291 26.4363 37.7234 26.237 37.7234 25.9142C37.7234 25.6073 37.9661 25.3921 38.2622 25.3921H38.5419V24.6747C38.5419 24.2802 38.801 24.0091 39.1547 24.0091C39.525 24.0091 39.7676 24.2802 39.7676 24.6747V25.3921H40.1213C40.438 25.3921 40.7136 25.5356 40.7136 25.9142C40.7136 26.2929 40.434 26.4363 40.1213 26.4363H39.7676V29.1983C39.7676 29.5929 39.5085 29.8639 39.1547 29.8639C38.7845 29.8639 38.5419 29.5929 38.5419 29.1983V26.4363ZM42.4288 24.1924C42.4288 24.571 42.1121 24.8939 41.7255 24.8939C41.3552 24.8939 41.0221 24.571 41.0221 24.1924C41.0221 23.8497 41.3552 23.5269 41.7255 23.5269C42.0956 23.5308 42.4288 23.8338 42.4288 24.1924ZM41.1167 26.006C41.1167 25.6114 41.3759 25.3404 41.7296 25.3404C42.0997 25.3404 42.3424 25.6114 42.3424 26.006V29.2182C42.3424 29.6128 42.0833 29.8838 41.7296 29.8838C41.3594 29.8838 41.1167 29.6128 41.1167 29.2182V26.006ZM42.9841 26.0059C42.9841 25.6113 43.2432 25.3403 43.5969 25.3403C43.9136 25.3403 44.1151 25.5037 44.1727 25.7907C44.4154 25.4678 44.7856 25.3044 45.3779 25.3044C46.3609 25.3044 47.0807 25.8983 47.0807 26.9186V29.2182C47.0807 29.6128 46.8216 29.8838 46.4679 29.8838C46.0977 29.8838 45.855 29.6128 45.855 29.2182V27.1019C45.855 26.544 45.4848 26.2769 45.0406 26.2769C44.5388 26.2769 44.2426 26.6356 44.2426 27.1019V29.2023C44.2426 29.5968 43.9835 29.8679 43.6298 29.8679C43.2596 29.8679 43.017 29.5968 43.017 29.2023V26.0059H42.9841ZM51.9671 29.4693C51.9671 30.9042 50.984 31.6414 49.5774 31.6414C49.0756 31.6414 47.6154 31.4063 47.6154 30.7447C47.6154 30.5095 47.8745 30.2226 48.1172 30.2226C48.508 30.2226 48.9522 30.6012 49.672 30.6012C50.2848 30.6012 50.729 30.2584 50.729 29.6487V29.3616H50.7084C50.4494 29.7205 50.0216 29.9357 49.4663 29.9357C48.1707 29.9357 47.5578 28.8237 47.5578 27.64C47.5578 26.4363 48.3557 25.3084 49.5938 25.3084C50.0216 25.3084 50.5028 25.4877 50.7249 25.8664C50.799 25.5435 51.0046 25.3642 51.3377 25.3642C51.708 25.3642 51.9507 25.6352 51.9507 26.0298V29.4773H51.9671V29.4693ZM49.746 26.3845C49.0962 26.3845 48.7835 27.0302 48.7835 27.5882C48.7835 28.2338 49.1002 28.8078 49.746 28.8078C50.4123 28.8078 50.729 28.2138 50.729 27.6241C50.729 27.0461 50.4329 26.3845 49.746 26.3845Z" fill="#206FA5"/>
</g>
<defs>
<linearGradient id="paint0_linear_404_409" x1="1046.72" y1="22.0282" x2="1046.72" y2="1213.66" gradientUnits="userSpaceOnUse">
<stop stop-color="#77C150"/>
<stop offset="1" stop-color="#4C8B3F"/>
</linearGradient>
<clipPath id="clip0_404_409">
<rect width="48" height="12" fill="white" transform="translate(4 22)"/>
</clipPath>
</defs>
</svg>
