<svg width="55" height="55" viewBox="0 0 55 55" fill="none" xmlns="http://www.w3.org/2000/svg">
<path d="M50.7719 42.3895L28.4797 55V45.1808L42.3672 37.5392L50.7719 42.3895ZM52.2981 41.0094V14.6438L44.1444 19.3566V36.3069L52.2981 41.0094ZM4.23156 42.3895L26.5203 55V45.1808L12.6242 37.5375L4.23156 42.3895ZM2.70531 41.0094V14.6438L10.8591 19.3566V36.3069L2.70531 41.0094ZM3.66094 12.9319L26.5203 0V9.49094L11.7563 17.6172L3.66094 12.9319ZM51.3391 12.9319L28.4797 0V9.49094L43.2438 17.6086L51.3391 12.9319Z" fill="#8ED6FB"/>
<path d="M26.5203 43.3761L12.815 35.8359V20.9103L26.5203 28.8234V43.3761ZM28.4797 43.3761L42.1867 35.8428V20.9069L28.4797 28.8234V43.3761ZM13.7431 19.1847L27.5 11.6239L41.2569 19.1864L27.5 27.127L13.7431 19.1847Z" fill="#1C78C0"/>
</svg>
