<svg width="55" height="55" viewBox="0 0 55 55" fill="none" xmlns="http://www.w3.org/2000/svg">
<g clip-path="url(#clip0_383_160)">
<path d="M5.10654 3.05176e-05H49.871C52.7041 3.05176e-05 54.9974 3.83745 54.9974 8.57823V37.1714C54.9974 41.9122 52.7041 45.7496 49.871 45.7496H33.8179L36.0214 54.779L26.3309 45.7496H5.12888C2.296 45.7496 0.00275899 41.9122 0.00275899 37.1714V8.57823C-0.0197975 3.87519 2.27323 3.05176e-05 5.10654 3.05176e-05Z" fill="#9B5C8F"/>
<path d="M3.13429 7.81863C3.44729 7.10759 3.91668 6.73373 4.54268 6.65896C5.68296 6.50906 6.3313 7.40667 6.48769 9.35216C7.18071 17.1708 7.94075 23.7924 8.74548 29.2165L13.6413 13.617C14.0886 12.1953 14.6475 11.4472 15.3182 11.3724C16.3019 11.2603 16.9053 12.3074 17.1513 14.5146C17.7103 19.4898 18.4256 23.7172 19.2751 27.3084C19.8564 17.8067 20.84 10.9608 22.2261 6.73373C22.5612 5.68622 23.0532 5.16246 23.7015 5.08733C24.2158 5.01291 24.6852 5.27461 25.1099 5.83576C25.5346 6.3969 25.7582 7.10759 25.8029 7.96818C25.8252 8.64148 25.7582 9.20262 25.5795 9.76376C24.7075 12.4573 23.9919 16.9839 23.4108 23.2682C22.8521 29.366 22.6508 34.1173 22.7848 37.5215C22.8297 38.4561 22.7402 39.2794 22.5167 39.9904C22.2482 40.8132 21.8461 41.2622 21.3318 41.337C20.7505 41.4118 20.147 40.9631 19.5657 39.953C17.4867 36.3989 15.8323 31.0869 14.6252 24.0167C13.1719 28.8049 12.0989 32.3961 11.4059 34.7902C10.0868 39.0176 8.96911 41.1875 8.03012 41.2996C7.42647 41.3744 6.91239 40.5138 6.46535 38.7186C5.32528 33.8178 4.09563 24.3531 2.77683 10.3249C2.68724 9.35216 2.82129 8.49157 3.13429 7.81863ZM51.1766 13.6918C50.3718 11.335 49.1869 9.91367 47.5998 9.35216C47.1748 9.20262 46.7727 9.12785 46.3924 9.12785C44.2464 9.12785 42.5026 10.9982 41.1389 14.7393C39.9763 17.9189 39.3952 21.4353 39.3952 25.2885C39.3952 28.169 39.7529 30.6379 40.4683 32.6955C41.273 35.0523 42.458 36.4736 44.0451 37.0348C44.4698 37.1847 44.8721 37.2594 45.2524 37.2594C47.4208 37.2594 49.1645 35.3891 50.5059 31.648C51.6683 28.4307 52.2496 24.9143 52.2496 21.0614C52.272 18.1435 51.8919 15.7117 51.1766 13.6918ZM48.3598 24.0541C48.0468 26.5229 47.4878 28.3559 46.6605 29.5904C46.0124 30.5631 45.4088 30.9743 44.85 30.7874C44.3134 30.6005 43.8661 29.815 43.531 28.3559C43.2625 27.1962 43.1286 26.0366 43.1286 24.9517C43.1286 24.0167 43.1733 23.0813 43.285 22.2211C43.4863 20.6872 43.8663 19.1907 44.4698 17.7693C45.2077 15.936 45.9901 15.1883 46.7948 15.45C47.3314 15.6369 47.7787 16.4227 48.1138 17.8815C48.3821 19.0411 48.5162 20.2008 48.5162 21.2857C48.5162 22.2585 48.4715 23.1938 48.3598 24.0541ZM37.1819 13.6918C36.3772 11.335 35.1699 9.91367 33.6051 9.35216C33.1804 9.20262 32.778 9.12785 32.3978 9.12785C30.2517 9.12785 28.508 10.9982 27.1443 14.7393C25.9818 17.9189 25.4005 21.4353 25.4005 25.2885C25.4005 28.169 25.7582 30.6379 26.4736 32.6955C27.2783 35.0523 28.4633 36.4736 30.0504 37.0348C30.4753 37.1847 30.8775 37.2594 31.2577 37.2594C33.4261 37.2594 35.1699 35.3891 36.5112 31.648C37.6738 28.4307 38.2549 24.9143 38.2549 21.0614C38.2549 18.1435 37.8972 15.7117 37.1819 13.6918ZM34.3428 24.0541C34.0298 26.5229 33.4708 28.3559 32.6437 29.5904C31.9954 30.5631 31.3917 30.9743 30.8328 30.7874C30.2964 30.6005 29.8493 29.815 29.5138 28.3559C29.2457 27.1962 29.1116 26.0366 29.1116 24.9517C29.1116 24.0167 29.1563 23.0813 29.268 22.2211C29.4693 20.6872 29.8493 19.1907 30.453 17.7693C31.1907 15.936 31.9731 15.1883 32.7778 15.45C33.3144 15.6369 33.7617 16.4227 34.0968 17.8815C34.3653 19.0411 34.4992 20.2008 34.4992 21.2857C34.5217 22.2585 34.4545 23.1938 34.3428 24.0541Z" fill="white"/>
</g>
<defs>
<clipPath id="clip0_383_160">
<rect width="55" height="55" fill="white"/>
</clipPath>
</defs>
</svg>
