<svg width="55" height="55" viewBox="0 0 55 55" fill="none" xmlns="http://www.w3.org/2000/svg">
<g clip-path="url(#clip0_383_236)">
<path d="M3.88437 27.5C3.88437 36.8672 9.26406 44.9367 17.1188 48.7231L5.97781 17.9352C4.68359 20.9241 3.88437 24.1141 3.88437 27.5ZM43.4414 26.3037C43.4414 23.4162 42.3448 21.3194 41.4477 19.8275C40.2514 17.8338 39.1566 16.2405 39.1566 14.2484C39.1566 12.057 40.8512 10.0633 43.1441 10.0633H43.4431C39.2562 6.17719 33.6772 3.88437 27.5 3.88437C23.5918 3.91898 19.7513 4.90845 16.3129 6.76664C12.8745 8.62483 9.94251 11.2954 7.77219 14.5458H9.2675C11.7597 14.5458 15.5444 14.2467 15.5444 14.2467C16.8403 14.147 16.94 16.0394 15.7437 16.2405C15.7437 16.2405 14.4478 16.4398 13.0539 16.4398L21.6236 41.9461L26.8039 26.5014L23.1172 16.4381L20.625 16.2422C19.3291 16.1425 19.5284 14.2484 20.7247 14.2484C20.7247 14.2484 24.6091 14.5475 26.9019 14.5475C29.3941 14.5475 33.1788 14.2484 33.1788 14.2484C34.4747 14.1487 34.5744 16.0411 33.3781 16.2422C33.3781 16.2422 32.0822 16.4416 30.6883 16.4416L39.2563 41.8516L41.6625 33.9797C42.6594 30.6917 43.4552 28.4006 43.4552 26.3072L43.4414 26.3037ZM27.8988 29.5917L20.8244 50.1187C22.9161 50.7169 25.2072 51.1156 27.5 51.1156C30.2895 51.1156 32.8797 50.6 35.3719 49.8197C35.2722 49.72 35.2722 49.6203 35.1725 49.5206L27.8988 29.5917ZM48.2247 16.2422L48.4241 18.6484C48.4241 21.0547 48.0253 23.7308 46.6314 27.1184L39.4573 47.9428C46.432 43.8573 51.2136 36.2845 51.2136 27.5172C51.1139 23.4317 50.0173 19.6453 48.223 16.2594L48.2247 16.2422ZM27.5 0C12.3544 0 0 12.3544 0 27.5C0 42.6456 12.3544 55 27.5 55C42.6456 55 55 42.6456 55 27.5C55 12.3544 42.6456 0 27.5 0ZM27.5 53.8038C13.0522 53.8038 1.29594 42.0475 1.29594 27.5C1.30685 20.5536 4.07113 13.8948 8.98298 8.98298C13.8948 4.07113 20.5536 1.30685 27.5 1.29594C34.4464 1.30685 41.1052 4.07113 46.017 8.98298C50.9289 13.8948 53.6932 20.5536 53.7041 27.5C53.7041 42.0475 41.9478 53.8038 27.5 53.8038Z" fill="#00749A"/>
</g>
<defs>
<clipPath id="clip0_383_236">
<rect width="55" height="55" fill="white"/>
</clipPath>
</defs>
</svg>
