<svg width="55" height="55" viewBox="0 0 55 55" fill="none" xmlns="http://www.w3.org/2000/svg">
<g clip-path="url(#clip0_386_265)">
<path d="M27.4998 0.000179291C42.6819 0.000179291 54.9997 12.3167 54.9997 27.5C54.9997 42.6833 42.6819 54.9999 27.4998 54.9999C12.3178 54.9999 0 42.6833 0 27.5C0 12.3167 12.3166 0.000179291 27.4998 0.000179291Z" fill="#2C8EBB"/>
<path d="M46.2083 35.8353C46.017 34.3271 44.743 33.2874 43.1061 33.3094C40.6637 33.3413 38.6148 34.6043 37.2575 35.4429C36.8132 35.7225 36.3521 35.9744 35.8768 36.197C35.9627 34.9647 35.8891 33.3524 35.2515 31.5781C34.4766 29.4545 33.4368 28.1486 32.6925 27.3946C33.5508 26.1414 34.7316 24.3169 35.2834 21.4907C35.7738 19.0801 35.612 15.3318 34.5195 13.2302C34.2963 12.8059 33.9248 12.497 33.4577 12.3719C33.2664 12.3192 32.9059 12.2125 32.1947 12.4148C31.1219 10.2078 30.7503 9.96253 30.4659 9.77126C29.8712 9.3887 29.1711 9.30532 28.5126 9.5481C27.6298 9.86689 26.877 10.7166 26.1658 12.2235L25.8789 12.8709C24.5301 12.9666 22.4065 13.4546 20.6126 15.3968C20.3895 15.642 19.9542 15.821 19.4968 15.9915H19.5091C18.5748 16.3201 18.1505 17.0852 17.6294 18.4658C16.906 20.3982 17.6503 22.2987 18.3835 23.5298C17.3854 24.4212 16.0587 25.8447 15.3574 27.511C14.4991 29.571 14.3912 31.588 14.4231 32.6817C13.68 33.4664 12.5348 34.9427 12.4061 36.5992C12.2344 38.9141 13.0755 40.486 13.4483 41.0586C13.5506 41.2183 13.668 41.3678 13.799 41.505C13.7561 41.7919 13.7462 42.0996 13.8112 42.4184C13.9498 43.1615 14.4169 43.7672 15.1281 44.1473C16.5296 44.8903 18.4828 45.2091 19.991 44.4538C20.5329 45.0277 21.52 45.5794 23.3015 45.5794H23.4082C23.8643 45.5794 29.6615 45.2729 31.3499 44.856C31.942 44.7244 32.4948 44.4551 32.9635 44.07C34.0462 43.7304 37.0404 42.7115 39.8667 40.8845C41.8628 39.5897 42.5519 39.3126 44.0392 38.9521C45.4836 38.6015 46.3861 37.2846 46.2058 35.8304L46.2083 35.8353ZM43.6824 37.3962C41.983 37.8008 41.1235 38.1711 39.0206 39.5419C35.7395 41.6656 32.1506 42.6526 32.1506 42.6526C32.1506 42.6526 31.8539 43.0989 30.9931 43.3C29.507 43.6605 23.9109 43.9695 23.4009 43.9793C22.0313 43.9916 21.1938 43.6286 20.9584 43.0658C20.2472 41.3664 21.9761 40.6234 21.9761 40.6234C21.9761 40.6234 21.5935 40.3904 21.3704 40.1771C21.1681 39.9747 20.9559 39.5713 20.8799 39.7209C20.6151 40.3683 20.4753 41.9501 19.7641 42.6637C18.7869 43.6507 16.9403 43.3221 15.8466 42.7495C14.645 42.1119 15.9324 40.616 15.9324 40.616C15.9324 40.616 15.285 40.9986 14.7639 40.2114C14.298 39.488 13.8615 38.2581 13.9792 36.739C14.1067 35.0101 16.0391 33.3303 16.0391 33.3303C16.0391 33.3303 15.6995 30.7713 16.814 28.1486C17.8232 25.7601 20.5415 23.8375 20.5415 23.8375C20.5415 23.8375 18.2584 21.3117 19.1069 19.0384C19.6587 17.5523 19.8818 17.5621 20.0633 17.4984C20.7009 17.2532 21.3164 16.9883 21.7725 16.4893C24.0556 14.0247 26.9652 14.4931 26.9652 14.4931C26.9652 14.4931 28.3459 10.2997 29.6198 11.1163C30.0122 11.3714 31.4247 14.5127 31.4247 14.5127C31.4247 14.5127 32.9329 13.6299 33.1021 13.961C34.0156 15.734 34.1198 19.123 33.7176 21.1805C33.0383 24.5769 31.3389 26.4038 30.6596 27.5515C30.5002 27.8163 32.4866 28.655 33.7372 32.1274C34.8947 35.3032 33.8647 37.9676 34.0437 38.2643L34.0867 38.3378C34.0867 38.3378 35.4133 38.4445 38.079 36.7978C39.5013 35.915 41.1897 34.9292 43.1123 34.9096C44.9699 34.8777 45.0655 37.0553 43.664 37.3937L43.6824 37.3962Z" fill="white"/>
</g>
<defs>
<clipPath id="clip0_386_265">
<rect width="55" height="55" fill="white"/>
</clipPath>
</defs>
</svg>
