<svg width="55" height="55" viewBox="0 0 55 55" fill="none" xmlns="http://www.w3.org/2000/svg">
<g clip-path="url(#clip0_404_431)">
<path d="M13.32 33.7525L11.1753 34.5415L11.0612 40.9655L18.485 38.2347C15.9366 37.3753 14.0781 35.8606 13.32 33.7525Z" fill="#FDBD39"/>
<path d="M14.4426 26.9579L7 29.6957L11.1753 34.5432L13.32 33.7542C12.5637 31.6529 13.0304 29.2805 14.4426 26.9579Z" fill="#F69833"/>
<path d="M26.9651 17.6865C17.4885 21.1721 11.378 28.3663 13.32 33.7525L47.6371 21.1292C45.6951 15.743 36.4417 14.2009 26.9651 17.6865Z" fill="#FECF33"/>
<path d="M33.9904 37.1969C43.467 33.7113 49.5877 26.5497 47.6354 21.1309L13.3183 33.7525C15.2705 39.173 24.5137 40.6825 33.9904 37.1969Z" fill="#EE6723"/>
<path d="M47.6354 21.1292L13.32 33.7525C13.9912 35.6188 16.555 36.5382 20.1494 36.5382C23.6552 36.5382 28.1422 35.6651 32.82 33.9446C42.2967 30.459 48.9625 24.8138 47.6354 21.1292Z" fill="#F69833"/>
<path d="M40.8061 18.3452C37.302 18.3452 32.8132 19.2183 28.1354 20.9388C18.6588 24.4244 11.993 30.0679 13.32 33.7525L47.6371 21.1292C46.9643 19.2629 44.4022 18.3452 40.8061 18.3452Z" fill="#FDBD39"/>
<path d="M38.9101 41.3069C37.8999 41.3069 36.4111 40.3892 34.4827 38.5778C32.2017 36.4353 29.5902 33.2962 27.1252 29.7403C24.662 26.1843 22.6382 22.6301 21.4253 19.7294C20.1051 16.5698 19.916 14.628 20.8648 13.9556C21.0846 13.8046 21.3452 13.7274 21.611 13.7343C22.3827 13.7343 23.8886 14.3124 26.6704 17.0706L26.7317 17.1307L26.7232 17.2164C26.7045 17.4154 26.6874 17.6144 26.6721 17.8117L26.6414 18.2011L26.3689 17.9249C23.3707 14.8836 22.0522 14.5559 21.6229 14.5559C21.5003 14.5559 21.4032 14.5799 21.3333 14.6297C20.9211 14.9213 20.8938 16.3485 22.1748 19.4104C23.3656 22.2579 25.3604 25.7589 27.7913 29.2685C30.2239 32.7799 32.7962 35.8709 35.038 37.9757C37.4536 40.2451 38.5421 40.4904 38.8982 40.4904C39.0208 40.4904 39.1196 40.4647 39.1946 40.4115C39.629 40.1044 39.629 38.576 38.2014 35.2791L38.135 35.1282L38.2781 35.0493C38.4212 34.9704 38.5609 34.8932 38.6903 34.8177L38.8624 34.7199L38.9425 34.9018C39.9543 37.2381 40.9015 40.2074 39.6596 41.0856C39.4399 41.2366 39.1775 41.3138 38.9101 41.3069Z" fill="#EE6723"/>
<path d="M34.2204 37.0974L34.2067 37.2758C33.9665 40.2605 33.3362 43.849 31.6906 43.9948C31.6566 43.9983 31.6225 43.9983 31.5901 43.9983C30.4726 43.9983 29.4148 42.3858 28.4489 39.2073C27.5324 36.1986 26.822 32.1606 26.449 27.8362C26.0742 23.5118 26.0793 19.4104 26.4643 16.2867C26.8834 12.8835 27.6806 11.1064 28.8356 11.0034C28.8696 11 28.9054 10.9983 28.9395 10.9983C29.7504 10.9983 30.9718 11.9229 32.2221 16.2284L31.4062 16.3862C30.9888 14.9487 30.534 13.7789 30.0825 12.9727C29.6652 12.2299 29.258 11.8199 28.9395 11.8199C28.9293 11.8199 28.919 11.8199 28.9071 11.8217C28.4063 11.8663 27.6772 13.0876 27.2718 16.3879C26.8936 19.455 26.8885 23.4964 27.2581 27.7642C27.6278 32.0337 28.3262 36.0116 29.2257 38.9654C29.6277 40.288 30.0689 41.3789 30.5033 42.1182C30.9019 42.801 31.2886 43.1766 31.5901 43.1766C31.6004 43.1766 31.6106 43.1766 31.6208 43.1749C32.0995 43.1337 33.0023 41.8609 33.3822 37.3856L34.2204 37.0974Z" fill="#EE6723"/>
</g>
<defs>
<clipPath id="clip0_404_431">
<rect width="41" height="33" fill="white" transform="translate(7 11)"/>
</clipPath>
</defs>
</svg>
