<svg xmlns="http://www.w3.org/2000/svg" xmlns:xlink="http://www.w3.org/1999/xlink" width="40" zoomAndPan="magnify" viewBox="0 0 30 30.000001" height="40" preserveAspectRatio="xMidYMid meet" version="1.0"><defs><clipPath id="8bbb779337"><path d="M 11 0.0195312 L 19 0.0195312 L 19 8 L 11 8 Z M 11 0.0195312 " clip-rule="nonzero"/></clipPath><clipPath id="2cfb1134cd"><path d="M 0.484375 11 L 11 11 L 11 18 L 0.484375 18 Z M 0.484375 11 " clip-rule="nonzero"/></clipPath><clipPath id="0da77b7c6d"><path d="M 11 18 L 19 18 L 19 29.03125 L 11 29.03125 Z M 11 18 " clip-rule="nonzero"/></clipPath><clipPath id="2ffdc51af2"><path d="M 19 11 L 29.515625 11 L 29.515625 18 L 19 18 Z M 19 11 " clip-rule="nonzero"/></clipPath></defs><g clip-path="url(#8bbb779337)"><path fill="#31ac7d" d="M 14.742188 6.363281 L 14.742188 7.800781 C 14.832031 7.769531 14.894531 7.769531 14.984375 7.769531 C 15.078125 7.769531 15.136719 7.769531 15.230469 7.800781 L 15.230469 6.363281 C 16.875 6.242188 18.15625 4.871094 18.15625 3.191406 C 18.15625 1.453125 16.722656 0.0195312 14.984375 0.0195312 C 13.246094 0.0195312 11.8125 1.453125 11.8125 3.191406 C 11.8125 4.871094 13.09375 6.242188 14.742188 6.363281 Z M 14.984375 0.507812 C 16.480469 0.507812 17.667969 1.726562 17.667969 3.191406 C 17.667969 4.6875 16.449219 5.875 14.984375 5.875 C 13.519531 5.875 12.300781 4.65625 12.300781 3.191406 C 12.300781 1.695312 13.488281 0.507812 14.984375 0.507812 Z M 14.984375 0.507812 " fill-opacity="1" fill-rule="nonzero"/></g><path fill="#31ac7d" d="M 13.824219 4.808594 L 16.144531 4.808594 C 16.328125 4.808594 16.480469 4.65625 16.480469 4.472656 L 16.480469 4.015625 C 16.480469 3.648438 16.265625 3.3125 15.929688 3.191406 L 15.65625 3.070312 C 15.472656 3.253906 15.230469 3.34375 14.953125 3.34375 C 14.679688 3.34375 14.464844 3.253906 14.253906 3.070312 L 13.976562 3.191406 C 13.640625 3.34375 13.429688 3.679688 13.429688 4.015625 L 13.429688 4.472656 C 13.488281 4.65625 13.640625 4.808594 13.824219 4.808594 Z M 13.824219 4.808594 " fill-opacity="1" fill-rule="nonzero"/><path fill="#31ac7d" d="M 15.746094 2.125 C 15.746094 2.367188 15.671875 2.578125 15.523438 2.75 C 15.375 2.921875 15.195312 3.007812 14.984375 3.007812 C 14.773438 3.007812 14.59375 2.921875 14.445312 2.75 C 14.296875 2.578125 14.222656 2.367188 14.222656 2.125 C 14.222656 1.878906 14.296875 1.671875 14.445312 1.496094 C 14.59375 1.324219 14.773438 1.238281 14.984375 1.238281 C 15.195312 1.238281 15.375 1.324219 15.523438 1.496094 C 15.671875 1.671875 15.746094 1.878906 15.746094 2.125 Z M 15.746094 2.125 " fill-opacity="1" fill-rule="nonzero"/><path fill="#31ac7d" d="M 6.992188 9.691406 C 7.785156 9.691406 8.484375 9.386719 9.066406 8.929688 L 11.109375 10.972656 L 11.476562 10.636719 L 9.429688 8.59375 C 9.917969 8.042969 10.195312 7.3125 10.195312 6.515625 C 10.195312 4.777344 8.761719 3.34375 7.019531 3.34375 C 5.28125 3.34375 3.816406 4.746094 3.816406 6.515625 C 3.816406 8.285156 5.222656 9.691406 6.992188 9.691406 Z M 6.992188 3.800781 C 8.484375 3.800781 9.675781 5.023438 9.675781 6.488281 C 9.675781 7.980469 8.453125 9.171875 6.992188 9.171875 C 5.496094 9.171875 4.304688 7.953125 4.304688 6.488281 C 4.273438 5.023438 5.496094 3.800781 6.992188 3.800781 Z M 6.992188 3.800781 " fill-opacity="1" fill-rule="nonzero"/><path fill="#31ac7d" d="M 5.832031 8.105469 L 8.148438 8.105469 C 8.332031 8.105469 8.484375 7.953125 8.484375 7.769531 L 8.484375 7.3125 C 8.484375 6.945312 8.273438 6.609375 7.9375 6.488281 L 7.660156 6.394531 C 7.480469 6.578125 7.234375 6.667969 6.960938 6.667969 C 6.683594 6.667969 6.472656 6.578125 6.257812 6.394531 L 5.984375 6.515625 C 5.648438 6.667969 5.433594 7.003906 5.433594 7.339844 L 5.433594 7.800781 C 5.496094 7.980469 5.648438 8.105469 5.832031 8.105469 Z M 5.832031 8.105469 " fill-opacity="1" fill-rule="nonzero"/><path fill="#31ac7d" d="M 6.992188 6.335938 C 7.417969 6.335938 7.753906 5.9375 7.753906 5.449219 C 7.753906 4.960938 7.417969 4.566406 6.992188 4.566406 C 6.5625 4.566406 6.226562 4.960938 6.226562 5.449219 C 6.226562 5.9375 6.5625 6.335938 6.992188 6.335938 Z M 6.992188 6.335938 " fill-opacity="1" fill-rule="nonzero"/><path fill="#31ac7d" d="M 21.820312 8.105469 L 24.136719 8.105469 C 24.320312 8.105469 24.472656 7.953125 24.472656 7.769531 L 24.472656 7.3125 C 24.472656 6.945312 24.261719 6.609375 23.925781 6.488281 L 23.648438 6.363281 C 23.46875 6.546875 23.222656 6.640625 22.949219 6.640625 C 22.675781 6.640625 22.460938 6.546875 22.246094 6.363281 L 21.972656 6.488281 C 21.636719 6.640625 21.421875 6.976562 21.421875 7.3125 L 21.421875 7.769531 C 21.484375 7.980469 21.636719 8.105469 21.820312 8.105469 Z M 21.820312 8.105469 " fill-opacity="1" fill-rule="nonzero"/><path fill="#31ac7d" d="M 22.980469 6.335938 C 23.40625 6.335938 23.742188 5.9375 23.742188 5.449219 C 23.742188 4.960938 23.40625 4.566406 22.980469 4.566406 C 22.550781 4.566406 22.214844 4.960938 22.214844 5.449219 C 22.214844 5.9375 22.582031 6.335938 22.980469 6.335938 Z M 22.980469 6.335938 " fill-opacity="1" fill-rule="nonzero"/><g clip-path="url(#2cfb1134cd)"><path fill="#31ac7d" d="M 6.839844 14.753906 L 10.40625 14.753906 L 10.40625 14.265625 L 6.839844 14.265625 C 6.714844 12.621094 5.34375 11.339844 3.664062 11.339844 C 1.925781 11.339844 0.492188 12.773438 0.492188 14.511719 C 0.492188 16.25 1.925781 17.683594 3.664062 17.683594 C 5.34375 17.683594 6.714844 16.402344 6.839844 14.753906 Z M 3.664062 17.195312 C 2.167969 17.195312 0.980469 15.976562 0.980469 14.511719 C 0.980469 13.046875 2.199219 11.828125 3.664062 11.828125 C 5.128906 11.828125 6.351562 13.046875 6.351562 14.511719 C 6.351562 15.976562 5.160156 17.195312 3.664062 17.195312 Z M 3.664062 17.195312 " fill-opacity="1" fill-rule="nonzero"/></g><path fill="#31ac7d" d="M 4.609375 14.511719 L 4.335938 14.390625 C 4.152344 14.574219 3.910156 14.664062 3.632812 14.664062 C 3.359375 14.664062 3.144531 14.574219 2.933594 14.390625 L 2.71875 14.511719 C 2.382812 14.664062 2.167969 14.96875 2.167969 15.335938 L 2.167969 15.792969 C 2.167969 15.976562 2.320312 16.128906 2.503906 16.128906 L 4.824219 16.128906 C 5.007812 16.128906 5.160156 15.976562 5.160156 15.792969 L 5.160156 15.335938 C 5.160156 14.96875 4.945312 14.664062 4.609375 14.511719 Z M 4.609375 14.511719 " fill-opacity="1" fill-rule="nonzero"/><path fill="#31ac7d" d="M 4.425781 13.445312 C 4.425781 13.6875 4.351562 13.898438 4.203125 14.070312 C 4.054688 14.242188 3.875 14.328125 3.664062 14.328125 C 3.453125 14.328125 3.273438 14.242188 3.125 14.070312 C 2.976562 13.898438 2.902344 13.6875 2.902344 13.445312 C 2.902344 13.199219 2.976562 12.992188 3.125 12.816406 C 3.273438 12.644531 3.453125 12.558594 3.664062 12.558594 C 3.875 12.558594 4.054688 12.644531 4.203125 12.816406 C 4.351562 12.992188 4.425781 13.199219 4.425781 13.445312 Z M 4.425781 13.445312 " fill-opacity="1" fill-rule="nonzero"/><g clip-path="url(#0da77b7c6d)"><path fill="#31ac7d" d="M 15.230469 22.660156 L 15.230469 18.785156 L 14.742188 18.785156 L 14.742188 22.660156 C 13.09375 22.78125 11.8125 24.152344 11.8125 25.832031 C 11.8125 27.570312 13.246094 29.003906 14.984375 29.003906 C 16.722656 29.003906 18.15625 27.570312 18.15625 25.832031 C 18.15625 24.152344 16.875 22.78125 15.230469 22.660156 Z M 14.984375 28.515625 C 13.488281 28.515625 12.300781 27.296875 12.300781 25.832031 C 12.300781 24.335938 13.519531 23.148438 14.984375 23.148438 C 16.480469 23.148438 17.667969 24.367188 17.667969 25.832031 C 17.667969 27.328125 16.480469 28.515625 14.984375 28.515625 Z M 14.984375 28.515625 " fill-opacity="1" fill-rule="nonzero"/></g><path fill="#31ac7d" d="M 15.929688 25.832031 L 15.65625 25.710938 C 15.472656 25.894531 15.230469 25.984375 14.953125 25.984375 C 14.679688 25.984375 14.464844 25.894531 14.253906 25.710938 L 13.976562 25.832031 C 13.640625 25.984375 13.429688 26.320312 13.429688 26.65625 L 13.429688 27.113281 C 13.429688 27.296875 13.582031 27.449219 13.765625 27.449219 L 16.082031 27.449219 C 16.265625 27.449219 16.417969 27.296875 16.417969 27.113281 L 16.417969 26.65625 C 16.480469 26.289062 16.265625 25.984375 15.929688 25.832031 Z M 15.929688 25.832031 " fill-opacity="1" fill-rule="nonzero"/><path fill="#31ac7d" d="M 14.984375 25.648438 C 15.410156 25.648438 15.746094 25.253906 15.746094 24.765625 C 15.746094 24.277344 15.410156 23.878906 14.984375 23.878906 C 14.558594 23.878906 14.222656 24.277344 14.222656 24.765625 C 14.222656 25.253906 14.558594 25.648438 14.984375 25.648438 Z M 14.984375 25.648438 " fill-opacity="1" fill-rule="nonzero"/><path fill="#31ac7d" d="M 7.9375 22.507812 L 7.660156 22.382812 C 7.480469 22.566406 7.234375 22.660156 6.960938 22.660156 C 6.683594 22.660156 6.472656 22.566406 6.257812 22.382812 L 5.984375 22.507812 C 5.648438 22.660156 5.433594 22.992188 5.433594 23.328125 L 5.433594 23.789062 C 5.433594 23.96875 5.585938 24.121094 5.769531 24.121094 L 8.089844 24.121094 C 8.273438 24.121094 8.425781 23.96875 8.425781 23.789062 L 8.425781 23.359375 C 8.484375 22.992188 8.273438 22.660156 7.9375 22.507812 Z M 7.9375 22.507812 " fill-opacity="1" fill-rule="nonzero"/><path fill="#31ac7d" d="M 6.992188 22.324219 C 7.417969 22.324219 7.753906 21.925781 7.753906 21.4375 C 7.753906 20.949219 7.417969 20.554688 6.992188 20.554688 C 6.5625 20.554688 6.226562 20.949219 6.226562 21.4375 C 6.226562 21.925781 6.5625 22.324219 6.992188 22.324219 Z M 6.992188 22.324219 " fill-opacity="1" fill-rule="nonzero"/><path fill="#31ac7d" d="M 22.980469 19.332031 C 22.1875 19.332031 21.484375 19.636719 20.902344 20.09375 L 19.5625 18.753906 C 19.5 18.753906 19.441406 18.785156 19.378906 18.785156 L 18.890625 18.785156 L 20.539062 20.429688 C 20.050781 20.980469 19.773438 21.710938 19.773438 22.507812 C 19.773438 24.246094 21.210938 25.679688 22.949219 25.679688 C 24.6875 25.679688 26.121094 24.246094 26.121094 22.507812 C 26.152344 20.765625 24.75 19.332031 22.980469 19.332031 Z M 22.980469 25.222656 C 21.484375 25.222656 20.292969 24 20.292969 22.535156 C 20.292969 21.042969 21.515625 19.851562 22.980469 19.851562 C 24.472656 19.851562 25.664062 21.070312 25.664062 22.535156 C 25.695312 24 24.472656 25.222656 22.980469 25.222656 Z M 22.980469 25.222656 " fill-opacity="1" fill-rule="nonzero"/><path fill="#31ac7d" d="M 23.925781 22.507812 L 23.648438 22.382812 C 23.46875 22.566406 23.222656 22.660156 22.949219 22.660156 C 22.675781 22.660156 22.460938 22.566406 22.246094 22.382812 L 21.972656 22.507812 C 21.636719 22.660156 21.421875 22.992188 21.421875 23.328125 L 21.421875 23.789062 C 21.421875 23.96875 21.574219 24.121094 21.757812 24.121094 L 24.136719 24.121094 C 24.320312 24.121094 24.472656 23.96875 24.472656 23.789062 L 24.472656 23.359375 C 24.472656 22.992188 24.261719 22.660156 23.925781 22.507812 Z M 23.925781 22.507812 " fill-opacity="1" fill-rule="nonzero"/><path fill="#31ac7d" d="M 22.980469 22.324219 C 23.40625 22.324219 23.742188 21.925781 23.742188 21.4375 C 23.742188 20.949219 23.40625 20.554688 22.980469 20.554688 C 22.550781 20.554688 22.214844 20.949219 22.214844 21.4375 C 22.246094 21.925781 22.582031 22.324219 22.980469 22.324219 Z M 22.980469 22.324219 " fill-opacity="1" fill-rule="nonzero"/><g clip-path="url(#2ffdc51af2)"><path fill="#31ac7d" d="M 26.304688 11.339844 C 24.625 11.339844 23.253906 12.621094 23.132812 14.265625 L 19.5625 14.265625 L 19.5625 14.753906 L 23.160156 14.753906 C 23.285156 16.402344 24.65625 17.683594 26.335938 17.683594 C 28.074219 17.683594 29.507812 16.25 29.507812 14.511719 C 29.507812 12.773438 28.042969 11.339844 26.304688 11.339844 Z M 26.304688 17.195312 C 24.808594 17.195312 23.621094 15.976562 23.621094 14.511719 C 23.621094 13.015625 24.839844 11.828125 26.304688 11.828125 C 27.800781 11.828125 28.988281 13.046875 28.988281 14.511719 C 28.988281 16.007812 27.800781 17.195312 26.304688 17.195312 Z M 26.304688 17.195312 " fill-opacity="1" fill-rule="nonzero"/></g><path fill="#31ac7d" d="M 27.25 14.511719 L 26.976562 14.390625 C 26.792969 14.574219 26.550781 14.664062 26.273438 14.664062 C 26 14.664062 25.785156 14.574219 25.574219 14.390625 L 25.359375 14.511719 C 25.023438 14.664062 24.808594 15 24.808594 15.335938 L 24.808594 15.792969 C 24.808594 15.976562 24.960938 16.128906 25.144531 16.128906 L 27.464844 16.128906 C 27.648438 16.128906 27.800781 15.976562 27.800781 15.792969 L 27.800781 15.335938 C 27.800781 14.96875 27.585938 14.664062 27.25 14.511719 Z M 27.25 14.511719 " fill-opacity="1" fill-rule="nonzero"/><path fill="#31ac7d" d="M 26.304688 14.328125 C 26.730469 14.328125 27.066406 13.933594 27.066406 13.445312 C 27.066406 12.957031 26.730469 12.558594 26.304688 12.558594 C 25.878906 12.558594 25.542969 12.957031 25.542969 13.445312 C 25.542969 13.933594 25.878906 14.328125 26.304688 14.328125 Z M 26.304688 14.328125 " fill-opacity="1" fill-rule="nonzero"/><path fill="#31ac7d" d="M 10.558594 18.785156 C 10.5 18.785156 10.4375 18.785156 10.378906 18.753906 L 9.035156 20.09375 C 8.484375 19.605469 7.753906 19.332031 6.960938 19.332031 C 5.222656 19.332031 3.785156 20.765625 3.785156 22.507812 C 3.785156 24.246094 5.222656 25.679688 6.960938 25.679688 C 8.699219 25.679688 10.164062 24.277344 10.164062 22.507812 C 10.164062 21.710938 9.859375 21.011719 9.402344 20.429688 L 11.078125 18.753906 L 10.558594 18.753906 Z M 6.992188 25.222656 C 5.496094 25.222656 4.304688 24 4.304688 22.535156 C 4.304688 21.042969 5.527344 19.851562 6.992188 19.851562 C 8.484375 19.851562 9.675781 21.070312 9.675781 22.535156 C 9.675781 24 8.453125 25.222656 6.992188 25.222656 Z M 6.992188 25.222656 " fill-opacity="1" fill-rule="nonzero"/><path fill="#31ac7d" d="M 18.890625 10.941406 L 20.933594 8.898438 C 21.484375 9.386719 22.214844 9.660156 23.007812 9.660156 C 24.75 9.660156 26.183594 8.226562 26.183594 6.488281 C 26.183594 4.746094 24.75 3.34375 22.980469 3.34375 C 21.238281 3.34375 19.804688 4.777344 19.804688 6.515625 C 19.804688 7.3125 20.109375 8.042969 20.570312 8.59375 L 18.523438 10.636719 Z M 22.980469 3.800781 C 24.472656 3.800781 25.664062 5.023438 25.664062 6.488281 C 25.664062 7.980469 24.445312 9.171875 22.980469 9.171875 C 21.484375 9.171875 20.292969 7.953125 20.292969 6.488281 C 20.292969 5.023438 21.515625 3.800781 22.980469 3.800781 Z M 22.980469 3.800781 " fill-opacity="1" fill-rule="nonzero"/><path fill="#31ac7d" d="M 19.59375 13.472656 C 19.929688 13.472656 20.082031 13.078125 19.835938 12.863281 L 15.230469 8.621094 C 15.105469 8.5 14.894531 8.5 14.742188 8.621094 L 10.132812 12.832031 C 9.890625 13.046875 10.042969 13.445312 10.378906 13.445312 L 11.171875 13.445312 L 11.171875 17.105469 L 10.589844 17.105469 C 10.347656 17.105469 10.132812 17.320312 10.132812 17.5625 C 10.132812 17.808594 10.347656 18.019531 10.589844 18.019531 L 19.410156 18.019531 C 19.652344 18.019531 19.867188 17.808594 19.867188 17.5625 C 19.867188 17.320312 19.652344 17.105469 19.410156 17.105469 L 18.828125 17.105469 L 18.828125 13.445312 L 19.59375 13.445312 Z M 13.304688 16.34375 C 13.304688 16.585938 13.09375 16.800781 12.847656 16.800781 C 12.726562 16.800781 12.605469 16.738281 12.542969 16.679688 C 12.453125 16.585938 12.421875 16.496094 12.421875 16.371094 L 12.421875 13.960938 C 12.421875 13.71875 12.636719 13.503906 12.878906 13.503906 C 13 13.503906 13.125 13.566406 13.183594 13.625 C 13.277344 13.71875 13.304688 13.808594 13.304688 13.933594 Z M 15.441406 16.34375 C 15.441406 16.585938 15.230469 16.800781 14.984375 16.800781 C 14.863281 16.800781 14.742188 16.738281 14.679688 16.679688 C 14.589844 16.585938 14.558594 16.496094 14.558594 16.371094 L 14.558594 13.960938 C 14.558594 13.71875 14.769531 13.503906 15.015625 13.503906 C 15.136719 13.503906 15.257812 13.566406 15.320312 13.625 C 15.410156 13.71875 15.441406 13.808594 15.441406 13.933594 Z M 15.625 11.886719 C 15.535156 11.980469 15.441406 12.007812 15.320312 12.007812 L 14.648438 12.007812 C 14.40625 12.007812 14.191406 11.796875 14.191406 11.550781 C 14.191406 11.429688 14.253906 11.308594 14.3125 11.246094 C 14.40625 11.15625 14.496094 11.125 14.617188 11.125 L 15.289062 11.125 C 15.535156 11.125 15.746094 11.339844 15.746094 11.582031 C 15.746094 11.675781 15.71875 11.796875 15.625 11.886719 Z M 17.546875 16.34375 C 17.546875 16.585938 17.335938 16.800781 17.089844 16.800781 C 16.96875 16.800781 16.847656 16.738281 16.785156 16.679688 C 16.695312 16.585938 16.664062 16.496094 16.664062 16.371094 L 16.664062 13.960938 C 16.664062 13.71875 16.875 13.503906 17.121094 13.503906 C 17.242188 13.503906 17.363281 13.566406 17.425781 13.625 C 17.515625 13.71875 17.546875 13.808594 17.546875 13.933594 Z M 17.546875 16.34375 " fill-opacity="1" fill-rule="nonzero"/></svg>