<svg xmlns="http://www.w3.org/2000/svg" xmlns:xlink="http://www.w3.org/1999/xlink" width="40" zoomAndPan="magnify" viewBox="0 0 30 30.000001" height="40" preserveAspectRatio="xMidYMid meet" version="1.0"><defs><clipPath id="7132e1b519"><path d="M 3.386719 0.0976562 L 26.613281 0.0976562 L 26.613281 29 L 3.386719 29 Z M 3.386719 0.0976562 " clip-rule="nonzero"/></clipPath></defs><g clip-path="url(#7132e1b519)"><path fill="#31ac7d" d="M 22.246094 20.578125 L 18.25 19.691406 L 18.25 18.722656 C 18.910156 18.339844 19.484375 17.859375 19.976562 17.277344 L 21.503906 17.277344 C 21.6875 17.277344 21.867188 17.242188 22.035156 17.171875 C 22.207031 17.097656 22.359375 17 22.488281 16.867188 C 22.621094 16.738281 22.71875 16.585938 22.789062 16.414062 C 22.863281 16.246094 22.898438 16.066406 22.898438 15.882812 L 22.898438 15.417969 C 23.082031 15.417969 23.257812 15.382812 23.429688 15.3125 C 23.601562 15.242188 23.75 15.140625 23.882812 15.011719 C 24.011719 14.878906 24.113281 14.730469 24.183594 14.558594 C 24.253906 14.386719 24.289062 14.210938 24.289062 14.023438 L 24.289062 11.238281 C 24.289062 10.941406 24.203125 10.675781 24.035156 10.433594 C 23.863281 10.195312 23.640625 10.027344 23.359375 9.925781 L 23.359375 8.449219 C 23.359375 7.902344 23.308594 7.359375 23.199219 6.820312 C 23.09375 6.28125 22.933594 5.757812 22.726562 5.25 C 22.515625 4.742188 22.257812 4.261719 21.953125 3.804688 C 21.648438 3.347656 21.300781 2.925781 20.914062 2.539062 C 20.523438 2.148438 20.101562 1.804688 19.644531 1.5 C 19.1875 1.191406 18.707031 0.9375 18.199219 0.726562 C 17.691406 0.515625 17.167969 0.355469 16.632812 0.25 C 16.09375 0.144531 15.550781 0.0898438 15 0.0898438 C 14.449219 0.0898438 13.90625 0.144531 13.367188 0.25 C 12.832031 0.355469 12.308594 0.515625 11.800781 0.726562 C 11.292969 0.9375 10.8125 1.191406 10.355469 1.5 C 9.898438 1.804688 9.476562 2.148438 9.085938 2.539062 C 8.699219 2.925781 8.351562 3.347656 8.046875 3.804688 C 7.742188 4.261719 7.484375 4.742188 7.273438 5.25 C 7.066406 5.757812 6.90625 6.28125 6.800781 6.820312 C 6.691406 7.359375 6.640625 7.902344 6.640625 8.449219 L 6.640625 9.925781 C 6.359375 10.027344 6.136719 10.195312 5.964844 10.433594 C 5.796875 10.675781 5.710938 10.941406 5.710938 11.238281 L 5.710938 14.023438 C 5.710938 14.210938 5.746094 14.386719 5.816406 14.558594 C 5.886719 14.730469 5.988281 14.878906 6.117188 15.011719 C 6.25 15.140625 6.398438 15.242188 6.570312 15.3125 C 6.742188 15.382812 6.917969 15.417969 7.101562 15.417969 L 8.933594 15.417969 C 9.484375 16.847656 10.421875 17.949219 11.75 18.722656 L 11.75 19.691406 L 7.753906 20.578125 C 7.132812 20.714844 6.554688 20.949219 6.011719 21.28125 C 5.472656 21.617188 5.003906 22.03125 4.605469 22.527344 C 4.210938 23.019531 3.90625 23.566406 3.695312 24.167969 C 3.488281 24.765625 3.382812 25.382812 3.386719 26.019531 L 3.386719 28.425781 C 3.386719 28.554688 3.433594 28.664062 3.523438 28.753906 C 3.613281 28.84375 3.722656 28.890625 3.851562 28.890625 L 26.148438 28.890625 C 26.277344 28.890625 26.386719 28.84375 26.476562 28.753906 C 26.566406 28.664062 26.613281 28.554688 26.613281 28.425781 L 26.613281 26.019531 C 26.617188 25.382812 26.511719 24.765625 26.304688 24.167969 C 26.09375 23.566406 25.789062 23.019531 25.394531 22.527344 C 24.996094 22.03125 24.527344 21.617188 23.988281 21.28125 C 23.445312 20.949219 22.867188 20.714844 22.246094 20.578125 Z M 18.929688 20.792969 L 17.167969 23.613281 L 15.746094 22.757812 L 17.9375 20.574219 Z M 21.96875 15.882812 C 21.96875 16.011719 21.921875 16.121094 21.832031 16.210938 C 21.742188 16.300781 21.632812 16.347656 21.503906 16.347656 L 20.625 16.347656 C 20.804688 16.050781 20.960938 15.738281 21.089844 15.417969 L 21.96875 15.417969 Z M 20.574219 9.84375 L 19.101562 9.84375 C 18.339844 9.84375 17.628906 9.65625 16.96875 9.285156 C 16.304688 8.910156 15.777344 8.398438 15.386719 7.75 C 15.34375 7.679688 15.289062 7.621094 15.214844 7.582031 C 15.144531 7.542969 15.066406 7.523438 14.984375 7.523438 C 14.902344 7.523438 14.828125 7.542969 14.757812 7.582031 C 14.683594 7.621094 14.628906 7.679688 14.585938 7.75 C 14.195312 8.398438 13.664062 8.910156 13.003906 9.285156 C 12.339844 9.65625 11.628906 9.84375 10.871094 9.84375 L 9.425781 9.84375 L 9.425781 8.449219 C 9.425781 8.085938 9.460938 7.722656 9.53125 7.363281 C 9.605469 7.003906 9.710938 6.65625 9.851562 6.316406 C 9.988281 5.980469 10.160156 5.65625 10.363281 5.355469 C 10.570312 5.050781 10.800781 4.769531 11.058594 4.507812 C 11.316406 4.25 11.597656 4.019531 11.902344 3.816406 C 12.207031 3.613281 12.527344 3.441406 12.867188 3.300781 C 13.203125 3.160156 13.554688 3.054688 13.914062 2.984375 C 14.273438 2.910156 14.632812 2.875 15 2.875 C 15.367188 2.875 15.726562 2.910156 16.085938 2.984375 C 16.445312 3.054688 16.796875 3.160156 17.132812 3.300781 C 17.472656 3.441406 17.792969 3.613281 18.097656 3.816406 C 18.402344 4.019531 18.683594 4.25 18.941406 4.507812 C 19.199219 4.769531 19.429688 5.050781 19.636719 5.355469 C 19.839844 5.65625 20.011719 5.980469 20.148438 6.316406 C 20.289062 6.65625 20.394531 7.003906 20.46875 7.363281 C 20.539062 7.722656 20.574219 8.085938 20.574219 8.449219 Z M 23.359375 14.023438 C 23.359375 14.152344 23.316406 14.261719 23.226562 14.351562 C 23.132812 14.445312 23.023438 14.488281 22.898438 14.488281 L 21.351562 14.488281 C 21.449219 14.03125 21.503906 13.566406 21.503906 13.09375 L 21.503906 10.773438 L 22.898438 10.773438 C 23.023438 10.773438 23.132812 10.820312 23.226562 10.910156 C 23.316406 11 23.359375 11.109375 23.359375 11.238281 Z M 15 1.019531 C 15.488281 1.019531 15.972656 1.066406 16.449219 1.160156 C 16.929688 1.257812 17.394531 1.398438 17.84375 1.582031 C 18.296875 1.769531 18.722656 2 19.128906 2.269531 C 19.535156 2.542969 19.910156 2.851562 20.253906 3.195312 C 20.601562 3.539062 20.910156 3.914062 21.179688 4.320312 C 21.449219 4.726562 21.679688 5.15625 21.867188 5.605469 C 22.054688 6.058594 22.195312 6.523438 22.289062 7 C 22.382812 7.480469 22.433594 7.960938 22.433594 8.449219 L 22.433594 9.84375 L 21.503906 9.84375 L 21.503906 8.449219 C 21.503906 8.023438 21.460938 7.601562 21.378906 7.183594 C 21.296875 6.761719 21.171875 6.355469 21.007812 5.960938 C 20.84375 5.566406 20.644531 5.191406 20.40625 4.835938 C 20.171875 4.480469 19.902344 4.152344 19.597656 3.851562 C 19.296875 3.550781 18.96875 3.28125 18.613281 3.042969 C 18.257812 2.804688 17.882812 2.605469 17.488281 2.441406 C 17.09375 2.277344 16.6875 2.15625 16.269531 2.070312 C 15.851562 1.988281 15.425781 1.945312 15 1.945312 C 14.574219 1.945312 14.148438 1.988281 13.730469 2.070312 C 13.3125 2.15625 12.90625 2.277344 12.511719 2.441406 C 12.117188 2.605469 11.742188 2.804688 11.386719 3.042969 C 11.03125 3.28125 10.703125 3.550781 10.402344 3.851562 C 10.097656 4.152344 9.828125 4.480469 9.59375 4.835938 C 9.355469 5.191406 9.15625 5.566406 8.992188 5.960938 C 8.828125 6.355469 8.703125 6.761719 8.621094 7.183594 C 8.539062 7.601562 8.496094 8.023438 8.496094 8.449219 L 8.496094 9.84375 L 7.566406 9.84375 L 7.566406 8.449219 C 7.566406 7.960938 7.617188 7.480469 7.710938 7 C 7.804688 6.523438 7.945312 6.058594 8.132812 5.605469 C 8.320312 5.15625 8.550781 4.726562 8.820312 4.320312 C 9.089844 3.914062 9.398438 3.539062 9.746094 3.195312 C 10.089844 2.851562 10.464844 2.542969 10.871094 2.269531 C 11.277344 2 11.703125 1.769531 12.15625 1.582031 C 12.605469 1.398438 13.070312 1.257812 13.550781 1.160156 C 14.027344 1.066406 14.511719 1.019531 15 1.019531 Z M 7.101562 14.488281 C 6.976562 14.488281 6.867188 14.445312 6.773438 14.351562 C 6.683594 14.261719 6.640625 14.152344 6.640625 14.023438 L 6.640625 11.238281 C 6.640625 11.109375 6.683594 11 6.773438 10.910156 C 6.867188 10.820312 6.976562 10.773438 7.101562 10.773438 L 8.496094 10.773438 L 8.496094 13.09375 C 8.496094 13.566406 8.550781 14.03125 8.648438 14.488281 Z M 9.425781 13.09375 L 9.425781 10.773438 L 10.898438 10.773438 C 11.695312 10.769531 12.453125 10.597656 13.171875 10.25 C 13.890625 9.90625 14.5 9.421875 15 8.796875 C 15.5 9.421875 16.109375 9.90625 16.828125 10.25 C 17.546875 10.597656 18.304688 10.769531 19.101562 10.773438 L 20.574219 10.773438 L 20.574219 13.09375 C 20.570312 14.292969 20.21875 15.375 19.519531 16.347656 L 16.308594 16.347656 C 16.234375 16.140625 16.121094 15.957031 15.960938 15.804688 C 15.800781 15.652344 15.613281 15.542969 15.402344 15.480469 C 15.191406 15.414062 14.976562 15.402344 14.761719 15.4375 C 14.542969 15.476562 14.34375 15.558594 14.167969 15.691406 C 13.988281 15.824219 13.851562 15.988281 13.75 16.183594 C 13.652344 16.382812 13.601562 16.589844 13.601562 16.8125 C 13.601562 17.03125 13.652344 17.242188 13.75 17.4375 C 13.851562 17.636719 13.988281 17.800781 14.167969 17.933594 C 14.34375 18.0625 14.542969 18.148438 14.761719 18.183594 C 14.976562 18.222656 15.191406 18.207031 15.402344 18.144531 C 15.613281 18.078125 15.800781 17.972656 15.960938 17.816406 C 16.121094 17.664062 16.234375 17.484375 16.308594 17.277344 L 18.675781 17.277344 C 18.273438 17.628906 17.828125 17.917969 17.34375 18.144531 C 16.855469 18.367188 16.347656 18.519531 15.820312 18.597656 C 15.289062 18.675781 14.761719 18.679688 14.230469 18.605469 C 13.699219 18.53125 13.191406 18.382812 12.703125 18.164062 C 12.214844 17.945312 11.769531 17.660156 11.363281 17.308594 C 10.957031 16.960938 10.609375 16.5625 10.320312 16.113281 C 10.027344 15.664062 9.808594 15.179688 9.65625 14.667969 C 9.503906 14.15625 9.425781 13.628906 9.425781 13.09375 Z M 15.464844 16.8125 C 15.464844 16.941406 15.417969 17.050781 15.328125 17.140625 C 15.238281 17.230469 15.128906 17.277344 15 17.277344 C 14.871094 17.277344 14.761719 17.230469 14.671875 17.140625 C 14.582031 17.050781 14.535156 16.941406 14.535156 16.8125 C 14.535156 16.683594 14.582031 16.574219 14.671875 16.484375 C 14.761719 16.390625 14.871094 16.347656 15 16.347656 C 15.128906 16.347656 15.238281 16.390625 15.328125 16.484375 C 15.417969 16.574219 15.464844 16.683594 15.464844 16.8125 Z M 15 19.597656 C 15.800781 19.597656 16.574219 19.453125 17.324219 19.164062 L 17.324219 19.871094 L 15 22.195312 L 12.675781 19.871094 L 12.675781 19.164062 C 13.425781 19.453125 14.199219 19.597656 15 19.597656 Z M 12.0625 20.574219 L 14.253906 22.757812 L 12.832031 23.613281 L 11.070312 20.792969 Z M 4.316406 26.019531 C 4.316406 25.488281 4.402344 24.976562 4.578125 24.476562 C 4.753906 23.980469 5.007812 23.523438 5.339844 23.113281 C 5.667969 22.699219 6.058594 22.355469 6.507812 22.074219 C 6.957031 21.796875 7.4375 21.597656 7.953125 21.484375 L 10.109375 21.019531 L 12.28125 24.503906 C 12.378906 24.644531 12.507812 24.710938 12.675781 24.707031 C 12.761719 24.707031 12.839844 24.6875 12.914062 24.644531 L 14.535156 23.671875 L 14.535156 27.960938 L 8.03125 27.960938 L 8.03125 25.636719 L 7.101562 25.636719 L 7.101562 27.960938 L 4.316406 27.960938 Z M 25.683594 27.960938 L 22.898438 27.960938 L 22.898438 25.636719 L 21.96875 25.636719 L 21.96875 27.960938 L 15.464844 27.960938 L 15.464844 23.671875 L 17.085938 24.644531 C 17.160156 24.6875 17.238281 24.707031 17.324219 24.707031 C 17.496094 24.707031 17.625 24.636719 17.71875 24.488281 L 19.890625 20.992188 L 22.046875 21.457031 C 22.566406 21.570312 23.050781 21.769531 23.5 22.050781 C 23.949219 22.332031 24.339844 22.679688 24.671875 23.09375 C 25 23.511719 25.253906 23.96875 25.429688 24.46875 C 25.601562 24.972656 25.6875 25.488281 25.683594 26.019531 Z M 25.683594 27.960938 " fill-opacity="1" fill-rule="nonzero"/></g></svg>