<svg xmlns="http://www.w3.org/2000/svg" xmlns:xlink="http://www.w3.org/1999/xlink" width="40" zoomAndPan="magnify" viewBox="0 0 30 30.000001" height="40" preserveAspectRatio="xMidYMid meet" version="1.0"><defs><clipPath id="11f2f180ec"><path d="M 0.484375 0.105469 L 29.515625 0.105469 L 29.515625 29 L 0.484375 29 Z M 0.484375 0.105469 " clip-rule="nonzero"/></clipPath><clipPath id="c3cc81e867"><path d="M 12 0.105469 L 18 0.105469 L 18 2 L 12 2 Z M 12 0.105469 " clip-rule="nonzero"/></clipPath></defs><path fill="#31ac7d" d="M 12.566406 11.921875 C 12.613281 11.921875 12.660156 11.910156 12.699219 11.882812 C 13.003906 11.664062 13.46875 11.742188 13.472656 11.742188 C 13.597656 11.761719 13.714844 11.679688 13.738281 11.554688 C 13.757812 11.429688 13.675781 11.3125 13.550781 11.289062 C 13.523438 11.285156 12.898438 11.179688 12.4375 11.507812 C 12.332031 11.582031 12.308594 11.722656 12.378906 11.828125 C 12.425781 11.890625 12.496094 11.921875 12.566406 11.921875 Z M 12.566406 11.921875 " fill-opacity="1" fill-rule="nonzero"/><path fill="#31ac7d" d="M 16.550781 13.574219 C 16.660156 13.574219 16.761719 13.527344 16.835938 13.453125 C 16.855469 13.453125 16.871094 13.457031 16.886719 13.457031 C 17.027344 13.457031 17.171875 13.433594 17.300781 13.378906 C 17.417969 13.328125 17.472656 13.195312 17.421875 13.078125 C 17.371094 12.960938 17.238281 12.910156 17.121094 12.957031 C 17.105469 12.964844 17.089844 12.96875 17.074219 12.972656 C 17.078125 12.96875 17.082031 12.964844 17.085938 12.960938 C 17.164062 12.863281 17.144531 12.71875 17.042969 12.640625 C 16.941406 12.5625 16.800781 12.582031 16.722656 12.683594 C 16.664062 12.757812 16.570312 12.769531 16.519531 12.769531 C 16.5 12.769531 16.484375 12.777344 16.46875 12.78125 C 16.46875 12.78125 16.46875 12.78125 16.464844 12.78125 C 16.449219 12.785156 16.433594 12.789062 16.417969 12.792969 C 16.261719 12.847656 16.148438 12.996094 16.148438 13.171875 C 16.148438 13.394531 16.328125 13.574219 16.550781 13.574219 Z M 16.550781 13.574219 " fill-opacity="1" fill-rule="nonzero"/><path fill="#31ac7d" d="M 13.46875 12.792969 C 13.453125 12.785156 13.4375 12.785156 13.417969 12.78125 C 13.417969 12.78125 13.417969 12.777344 13.417969 12.777344 C 13.398438 12.777344 13.382812 12.769531 13.367188 12.769531 C 13.316406 12.769531 13.222656 12.757812 13.164062 12.683594 C 13.085938 12.582031 12.941406 12.5625 12.84375 12.640625 C 12.742188 12.71875 12.722656 12.859375 12.800781 12.960938 C 12.804688 12.964844 12.808594 12.96875 12.8125 12.976562 C 12.796875 12.96875 12.78125 12.964844 12.769531 12.960938 C 12.652344 12.90625 12.515625 12.960938 12.464844 13.074219 C 12.414062 13.191406 12.464844 13.324219 12.582031 13.378906 C 12.703125 13.433594 12.851562 13.453125 12.992188 13.453125 C 13.011719 13.453125 13.03125 13.453125 13.046875 13.453125 C 13.121094 13.527344 13.222656 13.574219 13.335938 13.574219 C 13.558594 13.574219 13.738281 13.394531 13.738281 13.171875 C 13.738281 12.996094 13.625 12.847656 13.46875 12.792969 Z M 13.46875 12.792969 " fill-opacity="1" fill-rule="nonzero"/><path fill="#31ac7d" d="M 14.203125 15.191406 C 14.449219 15.261719 14.699219 15.296875 14.949219 15.296875 C 15.195312 15.296875 15.445312 15.261719 15.691406 15.191406 C 16.097656 15.078125 16.335938 14.652344 16.222656 14.25 C 16.128906 13.921875 15.824219 13.691406 15.484375 13.691406 C 15.414062 13.691406 15.34375 13.699219 15.277344 13.71875 C 15.058594 13.78125 14.835938 13.78125 14.621094 13.71875 C 14.550781 13.699219 14.480469 13.691406 14.410156 13.691406 C 14.070312 13.691406 13.765625 13.917969 13.675781 14.246094 C 13.558594 14.652344 13.796875 15.078125 14.203125 15.191406 Z M 14.113281 14.371094 C 14.152344 14.238281 14.273438 14.148438 14.410156 14.148438 C 14.4375 14.148438 14.46875 14.152344 14.496094 14.160156 C 14.796875 14.246094 15.101562 14.246094 15.402344 14.160156 C 15.558594 14.113281 15.734375 14.214844 15.78125 14.375 C 15.828125 14.535156 15.730469 14.707031 15.566406 14.753906 C 15.15625 14.867188 14.738281 14.867188 14.328125 14.753906 C 14.164062 14.707031 14.066406 14.535156 14.113281 14.371094 Z M 14.113281 14.371094 " fill-opacity="1" fill-rule="nonzero"/><path fill="#31ac7d" d="M 15.171875 21.367188 C 15.171875 21.519531 15.09375 21.59375 14.941406 21.59375 C 14.789062 21.59375 14.714844 21.519531 14.714844 21.367188 C 14.714844 21.214844 14.789062 21.136719 14.941406 21.136719 C 15.09375 21.136719 15.171875 21.214844 15.171875 21.367188 Z M 15.171875 21.367188 " fill-opacity="1" fill-rule="nonzero"/><path fill="#31ac7d" d="M 15.171875 23.5 C 15.171875 23.65625 15.09375 23.730469 14.941406 23.730469 C 14.789062 23.730469 14.714844 23.65625 14.714844 23.5 C 14.714844 23.347656 14.789062 23.273438 14.941406 23.273438 C 15.09375 23.273438 15.171875 23.347656 15.171875 23.5 Z M 15.171875 23.5 " fill-opacity="1" fill-rule="nonzero"/><path fill="#31ac7d" d="M 1.566406 11.824219 L 3.703125 11.824219 C 3.828125 11.824219 3.929688 11.722656 3.929688 11.597656 C 3.929688 11.472656 3.828125 11.367188 3.703125 11.367188 L 1.566406 11.367188 C 1.4375 11.367188 1.335938 11.472656 1.335938 11.597656 C 1.335938 11.722656 1.4375 11.824219 1.566406 11.824219 Z M 1.566406 11.824219 " fill-opacity="1" fill-rule="nonzero"/><path fill="#31ac7d" d="M 6.023438 12.59375 L 1.566406 12.59375 C 1.4375 12.59375 1.335938 12.695312 1.335938 12.820312 C 1.335938 12.949219 1.4375 13.050781 1.566406 13.050781 L 6.023438 13.050781 C 6.148438 13.050781 6.253906 12.949219 6.253906 12.820312 C 6.253906 12.695312 6.148438 12.59375 6.023438 12.59375 Z M 6.023438 12.59375 " fill-opacity="1" fill-rule="nonzero"/><path fill="#31ac7d" d="M 5.519531 3.710938 C 5.644531 3.710938 5.746094 3.609375 5.746094 3.480469 L 5.746094 2.902344 C 5.746094 2.777344 5.644531 2.675781 5.519531 2.675781 C 5.390625 2.675781 5.289062 2.777344 5.289062 2.902344 L 5.289062 3.480469 C 5.289062 3.609375 5.390625 3.710938 5.519531 3.710938 Z M 5.519531 3.710938 " fill-opacity="1" fill-rule="nonzero"/><path fill="#31ac7d" d="M 6.640625 3.710938 C 6.765625 3.710938 6.871094 3.609375 6.871094 3.480469 L 6.871094 2.902344 C 6.871094 2.777344 6.765625 2.675781 6.640625 2.675781 C 6.515625 2.675781 6.414062 2.777344 6.414062 2.902344 L 6.414062 3.480469 C 6.414062 3.609375 6.515625 3.710938 6.640625 3.710938 Z M 6.640625 3.710938 " fill-opacity="1" fill-rule="nonzero"/><path fill="#31ac7d" d="M 7.433594 4.28125 C 7.496094 4.171875 7.460938 4.035156 7.351562 3.972656 C 7.246094 3.90625 7.105469 3.941406 7.039062 4.050781 C 7.03125 4.066406 6.769531 4.480469 6.078125 4.480469 C 5.390625 4.480469 5.128906 4.066406 5.121094 4.050781 C 5.054688 3.941406 4.917969 3.90625 4.808594 3.96875 C 4.699219 4.03125 4.660156 4.171875 4.722656 4.28125 C 4.738281 4.308594 5.113281 4.9375 6.078125 4.9375 C 7.042969 4.9375 7.417969 4.308594 7.433594 4.28125 Z M 7.433594 4.28125 " fill-opacity="1" fill-rule="nonzero"/><path fill="#31ac7d" d="M 9.628906 3.710938 C 9.753906 3.710938 9.855469 3.609375 9.855469 3.480469 L 9.855469 2.902344 C 9.855469 2.777344 9.753906 2.675781 9.628906 2.675781 C 9.5 2.675781 9.398438 2.777344 9.398438 2.902344 L 9.398438 3.480469 C 9.398438 3.609375 9.5 3.710938 9.628906 3.710938 Z M 9.628906 3.710938 " fill-opacity="1" fill-rule="nonzero"/><path fill="#31ac7d" d="M 10.75 3.710938 C 10.875 3.710938 10.980469 3.609375 10.980469 3.480469 L 10.980469 2.902344 C 10.980469 2.777344 10.875 2.675781 10.75 2.675781 C 10.625 2.675781 10.523438 2.777344 10.523438 2.902344 L 10.523438 3.480469 C 10.523438 3.609375 10.625 3.710938 10.75 3.710938 Z M 10.75 3.710938 " fill-opacity="1" fill-rule="nonzero"/><path fill="#31ac7d" d="M 8.914062 4.847656 C 9.023438 4.914062 9.164062 4.878906 9.226562 4.769531 C 9.238281 4.753906 9.5 4.339844 10.1875 4.339844 C 10.878906 4.339844 11.140625 4.753906 11.148438 4.769531 C 11.191406 4.839844 11.269531 4.882812 11.347656 4.882812 C 11.386719 4.882812 11.425781 4.871094 11.460938 4.851562 C 11.570312 4.789062 11.609375 4.648438 11.546875 4.539062 C 11.53125 4.511719 11.152344 3.882812 10.1875 3.882812 C 9.226562 3.882812 8.847656 4.511719 8.832031 4.539062 C 8.769531 4.648438 8.808594 4.785156 8.914062 4.847656 Z M 8.914062 4.847656 " fill-opacity="1" fill-rule="nonzero"/><g clip-path="url(#11f2f180ec)"><path fill="#31ac7d" d="M 28.867188 16.332031 C 28.414062 15.855469 27.738281 15.675781 27.113281 15.855469 L 26.195312 14.890625 C 26.320312 14.210938 26.382812 13.515625 26.382812 12.820312 C 26.382812 9.5 24.953125 6.371094 22.449219 4.191406 C 23.230469 3.277344 23.484375 2.515625 23.546875 2 C 23.597656 1.578125 23.457031 1.15625 23.164062 0.839844 L 22.734375 0.378906 C 22.582031 0.210938 22.367188 0.113281 22.140625 0.105469 C 21.90625 0.0976562 21.691406 0.179688 21.527344 0.335938 L 21.070312 0.757812 C 20.726562 1.078125 20.707031 1.621094 21.027344 1.964844 C 21.148438 2.097656 21.175781 2.289062 21.097656 2.449219 C 21.027344 2.597656 20.917969 2.785156 20.777344 2.980469 C 19.015625 1.933594 17.003906 1.378906 14.941406 1.378906 C 13.882812 1.378906 12.832031 1.527344 11.820312 1.8125 C 11.375 1.453125 10.808594 1.234375 10.1875 1.234375 C 9.382812 1.234375 8.621094 1.613281 8.132812 2.242188 C 7.65625 1.632812 6.914062 1.234375 6.078125 1.234375 C 4.644531 1.234375 3.472656 2.40625 3.472656 3.839844 C 3.472656 5.074219 4.335938 6.109375 5.492188 6.378906 C 4.753906 7.453125 4.214844 8.632812 3.882812 9.890625 L 1.863281 9.890625 C 1.132812 9.890625 0.535156 10.488281 0.535156 11.222656 L 0.535156 13.96875 C 0.535156 14.699219 1.132812 15.296875 1.863281 15.296875 L 3.773438 15.296875 C 4.175781 17.136719 5.027344 18.839844 6.257812 20.269531 C 6.113281 20.25 5.96875 20.277344 5.839844 20.347656 C 5.746094 20.398438 5.667969 20.46875 5.609375 20.554688 L 4.964844 20.359375 C 4.539062 20.230469 4.09375 20.460938 3.945312 20.878906 C 3.808594 21.277344 3.992188 21.714844 4.371094 21.894531 L 5.984375 22.660156 C 6.355469 22.832031 6.59375 23.210938 6.59375 23.617188 L 6.59375 28.695312 C 6.59375 28.820312 6.695312 28.921875 6.820312 28.921875 C 6.949219 28.921875 7.050781 28.820312 7.050781 28.695312 L 7.050781 23.617188 C 7.050781 23.035156 6.710938 22.496094 6.183594 22.246094 L 4.570312 21.480469 C 4.398438 21.398438 4.316406 21.207031 4.378906 21.027344 C 4.445312 20.839844 4.644531 20.742188 4.832031 20.796875 L 5.480469 20.992188 C 5.496094 21.261719 5.664062 21.507812 5.925781 21.609375 L 7.226562 22.105469 C 7.34375 22.148438 7.476562 22.089844 7.523438 21.972656 C 7.566406 21.855469 7.507812 21.722656 7.390625 21.675781 L 6.085938 21.179688 C 5.972656 21.136719 5.910156 21.011719 5.945312 20.890625 C 5.960938 20.828125 6.003906 20.78125 6.058594 20.75 C 6.113281 20.71875 6.179688 20.710938 6.242188 20.730469 L 8.3125 21.347656 C 8.851562 21.507812 9.222656 22.011719 9.222656 22.570312 L 9.222656 28.691406 C 9.222656 28.820312 9.328125 28.921875 9.453125 28.921875 C 9.578125 28.921875 9.683594 28.820312 9.683594 28.691406 L 9.683594 27.78125 C 9.914062 27.941406 10.183594 28.050781 10.503906 28.121094 L 10.503906 28.691406 C 10.503906 28.820312 10.605469 28.921875 10.730469 28.921875 C 10.859375 28.921875 10.960938 28.820312 10.960938 28.691406 L 10.960938 23.867188 C 10.960938 23.738281 10.859375 23.636719 10.730469 23.636719 C 10.605469 23.636719 10.503906 23.738281 10.503906 23.867188 L 10.503906 26.65625 C 10.171875 26.507812 9.898438 26.3125 9.683594 26.070312 L 9.683594 23.820312 C 10.671875 22.039062 11.933594 21.085938 12.875 20.589844 L 13.632812 21.445312 C 13.675781 21.496094 13.738281 21.523438 13.800781 21.523438 C 13.808594 21.523438 13.816406 21.523438 13.824219 21.519531 C 13.898438 21.511719 13.964844 21.46875 14 21.40625 L 14.011719 21.386719 L 14.011719 24.996094 C 14.011719 25.121094 14.113281 25.222656 14.242188 25.222656 L 15.644531 25.222656 C 15.769531 25.222656 15.875 25.121094 15.875 24.996094 L 15.875 21.386719 L 15.882812 21.40625 C 15.921875 21.472656 15.984375 21.515625 16.058594 21.523438 C 16.066406 21.523438 16.074219 21.523438 16.082031 21.523438 C 16.148438 21.523438 16.210938 21.496094 16.253906 21.445312 L 17.011719 20.589844 C 17.949219 21.085938 19.214844 22.039062 20.203125 23.820312 L 20.203125 26.074219 C 19.984375 26.3125 19.710938 26.507812 19.382812 26.660156 L 19.382812 23.867188 C 19.382812 23.738281 19.28125 23.636719 19.152344 23.636719 C 19.027344 23.636719 18.925781 23.738281 18.925781 23.867188 L 18.925781 28.695312 C 18.925781 28.820312 19.027344 28.921875 19.152344 28.921875 C 19.28125 28.921875 19.382812 28.820312 19.382812 28.695312 L 19.382812 28.121094 C 19.703125 28.050781 19.972656 27.941406 20.203125 27.785156 L 20.203125 28.695312 C 20.203125 28.820312 20.304688 28.921875 20.433594 28.921875 C 20.558594 28.921875 20.660156 28.820312 20.660156 28.695312 L 20.660156 22.570312 C 20.660156 22.011719 21.035156 21.507812 21.574219 21.347656 L 23.644531 20.730469 C 23.707031 20.710938 23.769531 20.71875 23.828125 20.75 C 23.882812 20.78125 23.921875 20.832031 23.941406 20.890625 C 23.976562 21.011719 23.914062 21.136719 23.796875 21.183594 L 22.496094 21.675781 C 22.378906 21.722656 22.320312 21.855469 22.363281 21.972656 C 22.410156 22.089844 22.542969 22.148438 22.660156 22.105469 L 23.960938 21.609375 C 24.222656 21.511719 24.390625 21.261719 24.40625 20.992188 L 25.054688 20.796875 C 25.242188 20.742188 25.441406 20.839844 25.507812 21.03125 C 25.566406 21.207031 25.484375 21.402344 25.316406 21.480469 L 23.703125 22.246094 C 23.175781 22.496094 22.835938 23.035156 22.835938 23.617188 L 22.835938 28.695312 C 22.835938 28.820312 22.9375 28.921875 23.066406 28.921875 C 23.191406 28.921875 23.292969 28.820312 23.292969 28.695312 L 23.292969 23.617188 C 23.292969 23.210938 23.53125 22.835938 23.898438 22.660156 L 25.511719 21.894531 C 25.894531 21.714844 26.074219 21.277344 25.9375 20.878906 C 25.792969 20.460938 25.347656 20.230469 24.921875 20.359375 L 24.277344 20.554688 C 24.214844 20.472656 24.140625 20.398438 24.046875 20.347656 C 23.914062 20.277344 23.769531 20.25 23.625 20.269531 C 24.519531 19.226562 25.222656 18.023438 25.691406 16.738281 L 25.929688 16.988281 C 25.722656 17.601562 25.871094 18.285156 26.324219 18.757812 C 26.660156 19.113281 27.117188 19.300781 27.589844 19.300781 C 27.761719 19.300781 27.9375 19.277344 28.109375 19.222656 C 28.210938 19.191406 28.28125 19.09375 28.269531 18.984375 C 28.261719 18.878906 28.175781 18.792969 28.070312 18.777344 C 27.960938 18.765625 27.804688 18.722656 27.675781 18.582031 C 27.550781 18.457031 27.488281 18.289062 27.492188 18.113281 C 27.496094 17.9375 27.566406 17.773438 27.695312 17.648438 C 27.957031 17.398438 28.378906 17.40625 28.628906 17.671875 C 28.761719 17.808594 28.796875 17.96875 28.804688 18.074219 C 28.8125 18.183594 28.898438 18.269531 29.003906 18.285156 C 29.109375 18.300781 29.214844 18.238281 29.25 18.136719 C 29.472656 17.503906 29.328125 16.8125 28.867188 16.332031 Z M 21.507812 2.648438 C 21.671875 2.316406 21.613281 1.925781 21.363281 1.65625 C 21.210938 1.492188 21.222656 1.242188 21.382812 1.089844 L 21.835938 0.667969 C 21.914062 0.597656 22.015625 0.558594 22.121094 0.5625 C 22.230469 0.566406 22.328125 0.613281 22.402344 0.691406 L 22.828125 1.152344 C 23.03125 1.367188 23.125 1.65625 23.089844 1.945312 C 23.023438 2.511719 22.6875 3.417969 21.476562 4.542969 C 20.265625 5.667969 19.332031 5.9375 18.765625 5.960938 C 18.476562 5.972656 18.195312 5.859375 17.996094 5.640625 L 17.566406 5.179688 C 17.492188 5.101562 17.457031 5 17.460938 4.894531 C 17.464844 4.789062 17.507812 4.6875 17.585938 4.617188 L 18.039062 4.195312 C 18.117188 4.125 18.214844 4.089844 18.3125 4.089844 C 18.417969 4.089844 18.527344 4.132812 18.605469 4.214844 C 18.855469 4.488281 19.238281 4.574219 19.585938 4.4375 C 19.886719 4.316406 20.328125 4.097656 20.722656 3.730469 C 21.117188 3.367188 21.367188 2.941406 21.507812 2.648438 Z M 10.1875 1.691406 C 11.375 1.691406 12.335938 2.65625 12.335938 3.839844 C 12.335938 5.027344 11.375 5.988281 10.1875 5.988281 C 9.46875 5.988281 8.796875 5.621094 8.398438 5.019531 C 8.582031 4.667969 8.683594 4.265625 8.683594 3.839844 C 8.683594 3.417969 8.582031 3.015625 8.398438 2.660156 C 8.796875 2.0625 9.46875 1.691406 10.1875 1.691406 Z M 3.929688 3.839844 C 3.929688 2.65625 4.894531 1.691406 6.078125 1.691406 C 7.265625 1.691406 8.226562 2.65625 8.226562 3.839844 C 8.226562 5.027344 7.265625 5.988281 6.078125 5.988281 C 4.894531 5.988281 3.929688 5.027344 3.929688 3.839844 Z M 0.992188 13.96875 L 0.992188 11.222656 C 0.992188 10.738281 1.382812 10.347656 1.863281 10.347656 L 5.835938 10.347656 C 6.316406 10.347656 6.710938 10.738281 6.710938 11.222656 L 6.710938 14.03125 C 6.710938 14.101562 6.742188 14.167969 6.800781 14.210938 C 7.066406 14.414062 7.378906 14.644531 7.636719 14.839844 L 1.863281 14.839844 C 1.382812 14.839844 0.992188 14.449219 0.992188 13.96875 Z M 10.503906 27.152344 L 10.503906 27.652344 C 10.15625 27.5625 9.894531 27.414062 9.679688 27.183594 L 9.679688 26.691406 C 9.917969 26.878906 10.191406 27.03125 10.503906 27.152344 Z M 13.761719 20.902344 L 13.171875 20.234375 C 13.242188 19.871094 13.441406 19.628906 13.792969 19.480469 L 14.25 20.042969 Z M 16.828125 19.449219 C 16.679688 19.28125 16.484375 19.148438 16.246094 19.050781 L 16.246094 18.65625 C 17.335938 18.246094 18.207031 17.410156 18.632812 16.773438 C 18.824219 17.058594 18.925781 17.390625 18.925781 17.738281 C 18.925781 18.703125 18.140625 19.488281 17.175781 19.488281 C 17.058594 19.484375 16.941406 19.472656 16.828125 19.449219 Z M 19.527344 13.648438 C 19.867188 13.871094 20.003906 14.382812 19.824219 14.871094 C 19.699219 15.210938 19.441406 15.460938 19.160156 15.550781 C 19.320312 15.007812 19.445312 14.363281 19.527344 13.648438 Z M 19.277344 12.898438 C 18.996094 12.582031 18.488281 12.089844 17.875 11.84375 C 17.523438 11.703125 17.167969 11.664062 16.792969 11.621094 C 16.179688 11.550781 15.488281 11.472656 14.632812 10.921875 C 13.332031 10.082031 13.246094 8.578125 13.246094 8.5625 C 13.242188 8.449219 13.152344 8.355469 13.039062 8.347656 C 12.925781 8.335938 12.820312 8.410156 12.792969 8.523438 C 12.425781 10.109375 11.6875 11.578125 10.605469 12.894531 C 10.1875 11.78125 10.386719 10.125 11.128906 8.871094 C 11.703125 7.898438 12.832031 6.738281 14.941406 6.738281 C 17.050781 6.738281 18.179688 7.898438 18.757812 8.871094 C 19.5 10.128906 19.699219 11.785156 19.277344 12.898438 Z M 10.722656 15.550781 C 10.441406 15.460938 10.1875 15.210938 10.0625 14.871094 C 9.882812 14.382812 10.019531 13.871094 10.355469 13.648438 C 10.441406 14.363281 10.566406 15.007812 10.722656 15.550781 Z M 10.789062 13.398438 C 11.796875 12.21875 12.539062 10.917969 12.992188 9.519531 C 13.191406 10.082031 13.59375 10.792969 14.382812 11.304688 C 15.328125 11.914062 16.113281 12.003906 16.738281 12.074219 C 17.101562 12.117188 17.410156 12.152344 17.703125 12.269531 C 18.375 12.539062 18.929688 13.183594 19.097656 13.394531 C 18.960938 14.707031 18.671875 15.828125 18.324219 16.410156 C 17.851562 17.199219 16.515625 18.445312 14.941406 18.445312 C 13.367188 18.445312 12.03125 17.199219 11.558594 16.410156 C 11.210938 15.828125 10.925781 14.707031 10.789062 13.398438 Z M 14.941406 18.902344 C 15.234375 18.902344 15.515625 18.863281 15.789062 18.796875 L 15.789062 19.128906 L 15.253906 19.789062 L 14.632812 19.789062 L 14.097656 19.128906 L 14.097656 18.796875 C 14.371094 18.863281 14.652344 18.902344 14.941406 18.902344 Z M 15.414062 24.765625 L 14.46875 24.765625 L 14.46875 20.578125 L 14.65625 20.246094 L 15.226562 20.246094 L 15.414062 20.578125 Z M 16.125 20.902344 L 15.636719 20.042969 L 16.089844 19.480469 C 16.441406 19.628906 16.644531 19.871094 16.714844 20.234375 Z M 19.382812 27.652344 L 19.382812 27.152344 C 19.691406 27.03125 19.964844 26.878906 20.203125 26.691406 L 20.203125 27.183594 C 19.992188 27.414062 19.726562 27.5625 19.382812 27.652344 Z M 22.789062 20.507812 L 21.441406 20.910156 C 20.714844 21.128906 20.203125 21.8125 20.203125 22.570312 L 20.203125 22.9375 C 19.210938 21.441406 18.042969 20.609375 17.160156 20.152344 C 17.148438 20.078125 17.128906 20.007812 17.105469 19.941406 C 17.128906 19.941406 17.152344 19.945312 17.179688 19.945312 C 18.394531 19.945312 19.382812 18.953125 19.382812 17.738281 C 19.382812 17.222656 19.203125 16.730469 18.878906 16.335938 C 18.921875 16.242188 18.960938 16.144531 19.003906 16.035156 C 19.539062 16.011719 20.035156 15.621094 20.253906 15.027344 C 20.523438 14.289062 20.257812 13.484375 19.652344 13.191406 C 20.1875 11.953125 19.988281 10.050781 19.152344 8.636719 C 18.25 7.117188 16.757812 6.28125 14.941406 6.28125 C 13.128906 6.28125 11.636719 7.117188 10.734375 8.636719 C 9.898438 10.050781 9.699219 11.949219 10.230469 13.191406 C 9.628906 13.484375 9.359375 14.289062 9.632812 15.03125 C 9.851562 15.621094 10.347656 16.011719 10.882812 16.035156 C 10.972656 16.273438 11.066406 16.476562 11.167969 16.644531 C 11.554688 17.292969 12.472656 18.21875 13.640625 18.65625 L 13.640625 19.054688 C 13.132812 19.257812 12.824219 19.628906 12.726562 20.152344 C 11.84375 20.609375 10.675781 21.441406 9.679688 22.9375 L 9.679688 22.570312 C 9.679688 21.8125 9.171875 21.128906 8.441406 20.910156 L 7.097656 20.507812 C 5.675781 19.058594 4.691406 17.261719 4.238281 15.296875 L 8.320312 15.296875 C 8.417969 15.296875 8.503906 15.234375 8.535156 15.140625 C 8.566406 15.046875 8.535156 14.945312 8.457031 14.886719 C 8.457031 14.886719 7.742188 14.347656 7.167969 13.914062 L 7.167969 11.222656 C 7.167969 10.488281 6.570312 9.890625 5.835938 9.890625 L 4.355469 9.890625 C 4.699219 8.652344 5.25 7.492188 6.003906 6.441406 C 6.027344 6.445312 6.054688 6.445312 6.078125 6.445312 C 6.914062 6.445312 7.65625 6.050781 8.132812 5.441406 C 8.621094 6.066406 9.382812 6.445312 10.1875 6.445312 C 11.625 6.445312 12.792969 5.277344 12.792969 3.839844 C 12.792969 3.210938 12.570312 2.632812 12.199219 2.183594 C 13.089844 1.953125 14.011719 1.839844 14.941406 1.839844 C 16.894531 1.839844 18.800781 2.355469 20.472656 3.332031 C 20.453125 3.351562 20.433594 3.375 20.410156 3.394531 C 20.070312 3.714844 19.679688 3.90625 19.414062 4.011719 C 19.246094 4.078125 19.0625 4.035156 18.9375 3.90625 C 18.617188 3.558594 18.074219 3.539062 17.730469 3.859375 L 17.277344 4.28125 C 17.109375 4.4375 17.011719 4.648438 17.003906 4.875 C 16.992188 5.105469 17.074219 5.324219 17.230469 5.492188 L 17.660156 5.953125 C 17.9375 6.253906 18.320312 6.421875 18.722656 6.421875 C 18.742188 6.421875 18.765625 6.417969 18.785156 6.417969 C 19.429688 6.390625 20.476562 6.097656 21.789062 4.878906 C 21.914062 4.761719 22.03125 4.644531 22.140625 4.53125 C 24.546875 6.621094 25.925781 9.628906 25.925781 12.820312 C 25.925781 13.378906 25.882812 13.933594 25.800781 14.476562 L 24.28125 12.886719 C 24.488281 12.273438 24.339844 11.59375 23.886719 11.117188 C 23.425781 10.632812 22.742188 10.457031 22.101562 10.652344 C 22 10.683594 21.929688 10.78125 21.941406 10.890625 C 21.949219 10.996094 22.035156 11.082031 22.140625 11.097656 C 22.25 11.109375 22.40625 11.15625 22.535156 11.292969 C 22.789062 11.554688 22.777344 11.972656 22.515625 12.226562 C 22.253906 12.476562 21.832031 12.46875 21.582031 12.203125 C 21.449219 12.066406 21.414062 11.910156 21.40625 11.800781 C 21.394531 11.691406 21.3125 11.605469 21.207031 11.589844 C 21.101562 11.578125 20.996094 11.636719 20.960938 11.738281 C 20.738281 12.371094 20.882812 13.0625 21.34375 13.542969 C 21.800781 14.019531 22.472656 14.199219 23.097656 14.019531 L 25.339844 16.371094 C 24.8125 17.910156 23.933594 19.339844 22.789062 20.507812 Z M 28.175781 17.007812 C 27.878906 17.003906 27.597656 17.113281 27.378906 17.316406 C 27.164062 17.523438 27.042969 17.804688 27.035156 18.101562 C 27.027344 18.355469 27.109375 18.601562 27.261719 18.800781 C 27.035156 18.742188 26.824219 18.621094 26.65625 18.441406 C 26.292969 18.0625 26.195312 17.507812 26.402344 17.023438 C 26.441406 16.941406 26.421875 16.84375 26.359375 16.777344 L 23.328125 13.601562 C 23.285156 13.554688 23.222656 13.53125 23.160156 13.53125 C 23.132812 13.53125 23.105469 13.535156 23.082031 13.546875 C 22.589844 13.730469 22.039062 13.609375 21.675781 13.226562 C 21.507812 13.050781 21.394531 12.835938 21.34375 12.609375 C 21.773438 12.964844 22.417969 12.953125 22.832031 12.554688 C 23.246094 12.160156 23.289062 11.519531 22.949219 11.074219 C 23.175781 11.132812 23.386719 11.253906 23.554688 11.433594 C 23.917969 11.8125 24.015625 12.367188 23.808594 12.851562 C 23.769531 12.933594 23.789062 13.03125 23.851562 13.097656 L 26.882812 16.273438 C 26.949219 16.339844 27.046875 16.363281 27.132812 16.328125 C 27.621094 16.140625 28.171875 16.265625 28.535156 16.644531 C 28.703125 16.824219 28.816406 17.039062 28.867188 17.265625 C 28.671875 17.105469 28.433594 17.015625 28.175781 17.007812 Z M 28.175781 17.007812 " fill-opacity="1" fill-rule="nonzero"/></g><path fill="#31ac7d" d="M 5.074219 20.070312 C 5.121094 20.070312 5.167969 20.054688 5.207031 20.027344 C 5.3125 19.953125 5.335938 19.8125 5.261719 19.707031 C 4.566406 18.734375 4.027344 17.664062 3.65625 16.53125 C 3.617188 16.410156 3.488281 16.347656 3.367188 16.386719 C 3.246094 16.425781 3.179688 16.554688 3.21875 16.675781 C 3.605469 17.851562 4.167969 18.960938 4.890625 19.972656 C 4.933594 20.035156 5.003906 20.070312 5.074219 20.070312 Z M 5.074219 20.070312 " fill-opacity="1" fill-rule="nonzero"/><path fill="#31ac7d" d="M 26.382812 9.617188 C 26.414062 9.71875 26.503906 9.785156 26.605469 9.785156 C 26.625 9.785156 26.644531 9.78125 26.667969 9.773438 C 26.789062 9.742188 26.859375 9.613281 26.824219 9.492188 C 26.398438 7.964844 25.6875 6.550781 24.714844 5.289062 C 24.636719 5.191406 24.492188 5.171875 24.394531 5.25 C 24.292969 5.324219 24.273438 5.46875 24.351562 5.570312 C 25.289062 6.785156 25.972656 8.144531 26.382812 9.617188 Z M 26.382812 9.617188 " fill-opacity="1" fill-rule="nonzero"/><g clip-path="url(#c3cc81e867)"><path fill="#31ac7d" d="M 12.699219 1.15625 C 14.167969 0.875 15.71875 0.875 17.1875 1.15625 C 17.203125 1.15625 17.214844 1.160156 17.230469 1.160156 C 17.339844 1.160156 17.433594 1.082031 17.453125 0.972656 C 17.480469 0.847656 17.398438 0.730469 17.273438 0.707031 C 15.746094 0.414062 14.136719 0.414062 12.613281 0.707031 C 12.488281 0.730469 12.40625 0.847656 12.433594 0.972656 C 12.457031 1.097656 12.574219 1.179688 12.699219 1.15625 Z M 12.699219 1.15625 " fill-opacity="1" fill-rule="nonzero"/></g><path fill="#31ac7d" d="M 22.523438 19.578125 C 22.566406 19.617188 22.621094 19.632812 22.671875 19.632812 C 22.738281 19.632812 22.800781 19.605469 22.847656 19.554688 C 23.636719 18.628906 24.25 17.585938 24.671875 16.453125 C 24.71875 16.335938 24.65625 16.203125 24.539062 16.160156 C 24.421875 16.113281 24.289062 16.175781 24.246094 16.292969 C 23.839844 17.375 23.253906 18.375 22.5 19.257812 C 22.417969 19.351562 22.429688 19.496094 22.523438 19.578125 Z M 22.523438 19.578125 " fill-opacity="1" fill-rule="nonzero"/><path fill="#31ac7d" d="M 6.410156 6.90625 C 5.933594 7.589844 5.539062 8.332031 5.242188 9.113281 C 5.199219 9.230469 5.257812 9.363281 5.375 9.40625 C 5.402344 9.417969 5.429688 9.421875 5.457031 9.421875 C 5.546875 9.421875 5.636719 9.367188 5.671875 9.273438 C 5.953125 8.53125 6.328125 7.824219 6.785156 7.167969 C 6.855469 7.0625 6.832031 6.921875 6.726562 6.847656 C 6.625 6.777344 6.480469 6.800781 6.410156 6.90625 Z M 6.410156 6.90625 " fill-opacity="1" fill-rule="nonzero"/></svg>