<svg xmlns="http://www.w3.org/2000/svg" xmlns:xlink="http://www.w3.org/1999/xlink" width="40" zoomAndPan="magnify" viewBox="0 0 30 30.000001" height="40" preserveAspectRatio="xMidYMid meet" version="1.0"><defs><clipPath id="644a6a893b"><path d="M 5.589844 20.953125 L 11.253906 20.953125 L 11.253906 28.140625 L 5.589844 28.140625 Z M 5.589844 20.953125 " clip-rule="nonzero"/></clipPath><clipPath id="d7d2bf0508"><path d="M 0.484375 19 L 5 19 L 5 24 L 0.484375 24 Z M 0.484375 19 " clip-rule="nonzero"/></clipPath><clipPath id="2992c23679"><path d="M 19 4 L 29.515625 4 L 29.515625 12 L 19 12 Z M 19 4 " clip-rule="nonzero"/></clipPath><clipPath id="551955da07"><path d="M 19 4 L 29.515625 4 L 29.515625 10 L 19 10 Z M 19 4 " clip-rule="nonzero"/></clipPath><clipPath id="e44e28a664"><path d="M 24 8 L 29.515625 8 L 29.515625 12 L 24 12 Z M 24 8 " clip-rule="nonzero"/></clipPath><clipPath id="c94355bd15"><path d="M 6 0.890625 L 17 0.890625 L 17 11 L 6 11 Z M 6 0.890625 " clip-rule="nonzero"/></clipPath><clipPath id="07cc093f45"><path d="M 26 21 L 29.515625 21 L 29.515625 24 L 26 24 Z M 26 21 " clip-rule="nonzero"/></clipPath><clipPath id="bc1b5b9030"><path d="M 26 22 L 29.515625 22 L 29.515625 25 L 26 25 Z M 26 22 " clip-rule="nonzero"/></clipPath><clipPath id="c0ac92db5f"><path d="M 21 23 L 29.515625 23 L 29.515625 26 L 21 26 Z M 21 23 " clip-rule="nonzero"/></clipPath><clipPath id="4027df0f7e"><path d="M 21 16 L 29.515625 16 L 29.515625 22 L 21 22 Z M 21 16 " clip-rule="nonzero"/></clipPath></defs><g clip-path="url(#644a6a893b)"><path fill="#31ac7d" d="M 9.296875 28.140625 C 9.144531 28.140625 8.988281 28.117188 8.839844 28.066406 C 8.464844 27.945312 8.160156 27.6875 7.980469 27.335938 L 5.648438 22.757812 C 5.550781 22.5625 5.628906 22.324219 5.824219 22.222656 C 6.019531 22.125 6.257812 22.203125 6.359375 22.398438 L 8.691406 26.972656 C 8.773438 27.136719 8.914062 27.253906 9.085938 27.3125 C 9.257812 27.367188 9.441406 27.351562 9.601562 27.269531 L 10.074219 27.03125 C 10.234375 26.949219 10.355469 26.808594 10.410156 26.636719 C 10.46875 26.460938 10.453125 26.277344 10.371094 26.117188 L 8.039062 21.542969 C 7.9375 21.34375 8.015625 21.105469 8.214844 21.007812 C 8.410156 20.90625 8.648438 20.984375 8.75 21.179688 L 11.078125 25.757812 C 11.257812 26.105469 11.289062 26.507812 11.167969 26.878906 C 11.046875 27.253906 10.785156 27.558594 10.4375 27.738281 L 9.964844 27.980469 C 9.753906 28.085938 9.527344 28.140625 9.296875 28.140625 " fill-opacity="1" fill-rule="nonzero"/></g><path fill="#31ac7d" d="M 2.933594 18.6875 L 4.960938 22.664062 L 9.078125 20.566406 L 7.050781 16.589844 Z M 4.785156 23.597656 C 4.640625 23.597656 4.5 23.515625 4.433594 23.378906 L 2.042969 18.695312 C 1.996094 18.601562 1.988281 18.492188 2.019531 18.390625 C 2.054688 18.292969 2.125 18.207031 2.21875 18.160156 L 7.042969 15.703125 C 7.238281 15.601562 7.480469 15.679688 7.578125 15.875 L 9.964844 20.558594 C 10.015625 20.652344 10.023438 20.761719 9.988281 20.863281 C 9.957031 20.964844 9.886719 21.046875 9.792969 21.09375 L 4.964844 23.554688 C 4.910156 23.582031 4.847656 23.597656 4.785156 23.597656 " fill-opacity="1" fill-rule="nonzero"/><g clip-path="url(#d7d2bf0508)"><path fill="#31ac7d" d="M 2.394531 23.699219 C 2.25 23.699219 2.109375 23.621094 2.039062 23.484375 L 0.554688 20.570312 C 0.507812 20.476562 0.5 20.367188 0.53125 20.265625 C 0.566406 20.164062 0.636719 20.082031 0.730469 20.035156 L 2.667969 19.046875 C 2.867188 18.945312 3.105469 19.023438 3.203125 19.21875 C 3.304688 19.414062 3.226562 19.65625 3.03125 19.753906 L 1.445312 20.5625 L 2.570312 22.765625 L 4.15625 21.960938 C 4.351562 21.859375 4.589844 21.9375 4.691406 22.132812 C 4.789062 22.328125 4.710938 22.566406 4.515625 22.667969 L 2.574219 23.65625 C 2.519531 23.6875 2.457031 23.699219 2.394531 23.699219 " fill-opacity="1" fill-rule="nonzero"/></g><path fill="#31ac7d" d="M 9.609375 21.136719 C 9.421875 21.136719 9.25 21 9.21875 20.804688 C 9.183594 20.589844 9.328125 20.382812 9.546875 20.347656 L 15.617188 19.335938 L 11.890625 12.023438 L 7.503906 16.339844 C 7.347656 16.492188 7.09375 16.492188 6.941406 16.335938 C 6.789062 16.179688 6.789062 15.925781 6.945312 15.773438 L 11.71875 11.074219 C 11.808594 10.984375 11.9375 10.945312 12.0625 10.964844 C 12.1875 10.984375 12.292969 11.066406 12.351562 11.175781 L 16.570312 19.460938 C 16.628906 19.574219 16.628906 19.707031 16.574219 19.820312 C 16.515625 19.933594 16.40625 20.011719 16.28125 20.03125 L 9.675781 21.132812 C 9.65625 21.136719 9.632812 21.136719 9.609375 21.136719 " fill-opacity="1" fill-rule="nonzero"/><path fill="#31ac7d" d="M 14.902344 17.453125 C 14.703125 17.453125 14.53125 17.308594 14.507812 17.105469 C 14.480469 16.886719 14.636719 16.6875 14.851562 16.660156 C 14.992188 16.644531 15.128906 16.605469 15.253906 16.539062 C 15.542969 16.390625 15.753906 16.140625 15.851562 15.832031 C 15.949219 15.523438 15.921875 15.199219 15.769531 14.910156 C 15.476562 14.355469 14.773438 14.117188 14.207031 14.382812 C 14.0625 14.449219 13.9375 14.539062 13.832031 14.65625 C 13.679688 14.816406 13.429688 14.824219 13.269531 14.675781 C 13.105469 14.523438 13.097656 14.273438 13.246094 14.113281 C 13.425781 13.921875 13.632812 13.769531 13.871094 13.660156 C 14.332031 13.445312 14.859375 13.417969 15.347656 13.582031 C 15.835938 13.75 16.234375 14.089844 16.472656 14.539062 C 16.722656 15.015625 16.773438 15.5625 16.609375 16.074219 C 16.449219 16.585938 16.09375 17.003906 15.613281 17.25 C 15.40625 17.355469 15.179688 17.421875 14.949219 17.453125 C 14.933594 17.453125 14.917969 17.453125 14.902344 17.453125 " fill-opacity="1" fill-rule="nonzero"/><path fill="#31ac7d" d="M 17.960938 14.210938 C 17.816406 14.210938 17.675781 14.132812 17.605469 13.996094 C 17.507812 13.796875 17.585938 13.558594 17.78125 13.460938 L 19.023438 12.824219 C 19.21875 12.726562 19.460938 12.804688 19.558594 13 C 19.660156 13.195312 19.582031 13.433594 19.386719 13.535156 L 18.140625 14.167969 C 18.085938 14.199219 18.023438 14.210938 17.960938 14.210938 " fill-opacity="1" fill-rule="nonzero"/><path fill="#31ac7d" d="M 15.496094 12.152344 C 15.453125 12.152344 15.414062 12.144531 15.371094 12.132812 C 15.164062 12.0625 15.050781 11.839844 15.117188 11.628906 L 15.546875 10.304688 C 15.617188 10.09375 15.839844 9.980469 16.050781 10.046875 C 16.257812 10.117188 16.371094 10.339844 16.304688 10.546875 L 15.875 11.875 C 15.820312 12.042969 15.664062 12.152344 15.496094 12.152344 " fill-opacity="1" fill-rule="nonzero"/><path fill="#31ac7d" d="M 19.574219 17.84375 C 19.535156 17.84375 19.492188 17.835938 19.453125 17.824219 L 18.125 17.394531 C 17.914062 17.324219 17.800781 17.101562 17.871094 16.890625 C 17.9375 16.683594 18.160156 16.570312 18.371094 16.636719 L 19.699219 17.066406 C 19.90625 17.136719 20.019531 17.359375 19.953125 17.570312 C 19.898438 17.738281 19.742188 17.84375 19.574219 17.84375 " fill-opacity="1" fill-rule="nonzero"/><g clip-path="url(#2992c23679)"><path fill="#31ac7d" d="M 19.984375 10.828125 L 28.328125 10.828125 L 28.328125 5.496094 L 19.984375 5.496094 Z M 28.726562 11.625 L 19.585938 11.625 C 19.367188 11.625 19.191406 11.449219 19.191406 11.226562 L 19.191406 5.097656 C 19.191406 4.878906 19.367188 4.703125 19.585938 4.703125 L 28.726562 4.703125 C 28.945312 4.703125 29.121094 4.878906 29.121094 5.097656 L 29.121094 11.226562 C 29.121094 11.449219 28.945312 11.625 28.726562 11.625 " fill-opacity="1" fill-rule="nonzero"/></g><g clip-path="url(#551955da07)"><path fill="#31ac7d" d="M 24.15625 9.707031 C 24.054688 9.707031 23.957031 9.667969 23.886719 9.601562 L 19.316406 5.390625 C 19.15625 5.242188 19.144531 4.992188 19.292969 4.828125 C 19.445312 4.667969 19.695312 4.65625 19.855469 4.808594 L 24.15625 8.769531 L 28.457031 4.808594 C 28.617188 4.65625 28.867188 4.667969 29.019531 4.828125 C 29.167969 4.992188 29.15625 5.242188 28.996094 5.390625 L 24.425781 9.601562 C 24.355469 9.667969 24.257812 9.707031 24.15625 9.707031 " fill-opacity="1" fill-rule="nonzero"/></g><g clip-path="url(#e44e28a664)"><path fill="#31ac7d" d="M 28.726562 11.625 C 28.644531 11.625 28.558594 11.601562 28.488281 11.546875 L 24.789062 8.828125 C 24.613281 8.699219 24.574219 8.449219 24.707031 8.273438 C 24.835938 8.09375 25.085938 8.058594 25.261719 8.1875 L 28.960938 10.90625 C 29.136719 11.039062 29.175781 11.285156 29.046875 11.464844 C 28.96875 11.570312 28.847656 11.625 28.726562 11.625 " fill-opacity="1" fill-rule="nonzero"/></g><path fill="#31ac7d" d="M 19.585938 11.625 C 19.464844 11.625 19.34375 11.570312 19.265625 11.464844 C 19.136719 11.285156 19.175781 11.039062 19.351562 10.90625 L 23.050781 8.1875 C 23.226562 8.058594 23.476562 8.09375 23.605469 8.273438 C 23.738281 8.449219 23.699219 8.699219 23.523438 8.828125 L 19.824219 11.546875 C 19.753906 11.601562 19.667969 11.625 19.585938 11.625 " fill-opacity="1" fill-rule="nonzero"/><g clip-path="url(#c94355bd15)"><path fill="#31ac7d" d="M 7.558594 1.683594 C 7.234375 1.683594 6.972656 1.945312 6.972656 2.269531 L 6.972656 6.496094 C 6.972656 6.816406 7.234375 7.082031 7.558594 7.082031 L 8.382812 7.082031 C 8.523438 7.082031 8.65625 7.15625 8.726562 7.277344 L 9.671875 8.917969 L 10.617188 7.277344 C 10.691406 7.15625 10.820312 7.082031 10.964844 7.082031 L 14.730469 7.082031 C 15.054688 7.082031 15.316406 6.816406 15.316406 6.496094 L 15.316406 2.269531 C 15.316406 1.945312 15.054688 1.683594 14.730469 1.683594 Z M 9.671875 10.113281 C 9.53125 10.113281 9.398438 10.035156 9.328125 9.914062 L 8.152344 7.875 L 7.558594 7.875 C 6.796875 7.875 6.179688 7.257812 6.179688 6.496094 L 6.179688 2.269531 C 6.179688 1.507812 6.796875 0.890625 7.558594 0.890625 L 14.730469 0.890625 C 15.492188 0.890625 16.113281 1.507812 16.113281 2.269531 L 16.113281 6.496094 C 16.113281 7.257812 15.492188 7.875 14.730469 7.875 L 11.191406 7.875 L 10.015625 9.914062 C 9.945312 10.035156 9.816406 10.113281 9.671875 10.113281 " fill-opacity="1" fill-rule="nonzero"/></g><path fill="#31ac7d" d="M 8.757812 4.140625 C 8.621094 4.140625 8.515625 4.25 8.515625 4.382812 C 8.515625 4.515625 8.621094 4.625 8.757812 4.625 C 8.890625 4.625 9 4.515625 9 4.382812 C 9 4.25 8.890625 4.140625 8.757812 4.140625 Z M 8.757812 5.421875 C 8.183594 5.421875 7.71875 4.953125 7.71875 4.382812 C 7.71875 3.808594 8.183594 3.34375 8.757812 3.34375 C 9.328125 3.34375 9.792969 3.808594 9.792969 4.382812 C 9.792969 4.953125 9.328125 5.421875 8.757812 5.421875 " fill-opacity="1" fill-rule="nonzero"/><path fill="#31ac7d" d="M 11.144531 4.140625 C 11.011719 4.140625 10.902344 4.25 10.902344 4.382812 C 10.902344 4.515625 11.011719 4.625 11.144531 4.625 C 11.277344 4.625 11.386719 4.515625 11.386719 4.382812 C 11.386719 4.25 11.277344 4.140625 11.144531 4.140625 Z M 11.144531 5.421875 C 10.574219 5.421875 10.105469 4.953125 10.105469 4.382812 C 10.105469 3.808594 10.574219 3.34375 11.144531 3.34375 C 11.71875 3.34375 12.183594 3.808594 12.183594 4.382812 C 12.183594 4.953125 11.71875 5.421875 11.144531 5.421875 " fill-opacity="1" fill-rule="nonzero"/><path fill="#31ac7d" d="M 13.535156 4.140625 C 13.398438 4.140625 13.292969 4.25 13.292969 4.382812 C 13.292969 4.515625 13.398438 4.625 13.535156 4.625 C 13.667969 4.625 13.777344 4.515625 13.777344 4.382812 C 13.777344 4.25 13.667969 4.140625 13.535156 4.140625 Z M 13.535156 5.421875 C 12.960938 5.421875 12.496094 4.953125 12.496094 4.382812 C 12.496094 3.808594 12.960938 3.34375 13.535156 3.34375 C 14.105469 3.34375 14.570312 3.808594 14.570312 4.382812 C 14.570312 4.953125 14.105469 5.421875 13.535156 5.421875 " fill-opacity="1" fill-rule="nonzero"/><g clip-path="url(#07cc093f45)"><path fill="#31ac7d" d="M 28.46875 23.257812 L 27.097656 23.257812 C 26.878906 23.257812 26.699219 23.078125 26.699219 22.859375 C 26.699219 22.640625 26.878906 22.460938 27.097656 22.460938 L 28.46875 22.460938 C 28.597656 22.460938 28.703125 22.355469 28.703125 22.226562 C 28.703125 22.09375 28.597656 21.988281 28.46875 21.988281 C 28.25 21.988281 28.070312 21.808594 28.070312 21.589844 C 28.070312 21.371094 28.25 21.191406 28.46875 21.191406 C 29.035156 21.191406 29.5 21.65625 29.5 22.226562 C 29.5 22.792969 29.035156 23.257812 28.46875 23.257812 " fill-opacity="1" fill-rule="nonzero"/></g><g clip-path="url(#bc1b5b9030)"><path fill="#31ac7d" d="M 28.316406 24.527344 L 26.933594 24.527344 C 26.710938 24.527344 26.535156 24.347656 26.535156 24.128906 C 26.535156 23.910156 26.710938 23.730469 26.933594 23.730469 L 28.316406 23.730469 C 28.445312 23.730469 28.550781 23.625 28.550781 23.496094 C 28.550781 23.363281 28.445312 23.257812 28.316406 23.257812 C 28.09375 23.257812 27.917969 23.078125 27.917969 22.859375 C 27.917969 22.640625 28.09375 22.460938 28.316406 22.460938 C 28.882812 22.460938 29.347656 22.925781 29.347656 23.496094 C 29.347656 24.0625 28.882812 24.527344 28.316406 24.527344 " fill-opacity="1" fill-rule="nonzero"/></g><g clip-path="url(#c0ac92db5f)"><path fill="#31ac7d" d="M 25.253906 25.796875 C 24.96875 25.796875 24.664062 25.777344 24.335938 25.738281 C 23.980469 25.691406 23.632812 25.644531 23.296875 25.519531 C 23.160156 25.46875 23.023438 25.398438 22.875 25.304688 C 22.855469 25.292969 22.839844 25.28125 22.820312 25.273438 C 22.742188 25.21875 22.671875 25.175781 22.605469 25.15625 C 22.589844 25.152344 22.546875 25.152344 22.515625 25.152344 C 22.496094 25.15625 22.476562 25.15625 22.460938 25.15625 L 22.171875 25.15625 C 22.167969 25.15625 22.167969 25.15625 22.167969 25.15625 C 21.949219 25.15625 21.773438 24.980469 21.769531 24.761719 C 21.769531 24.542969 21.945312 24.363281 22.164062 24.363281 L 22.453125 24.359375 C 22.46875 24.359375 22.480469 24.359375 22.496094 24.359375 C 22.585938 24.355469 22.707031 24.351562 22.839844 24.394531 C 23.007812 24.445312 23.132812 24.527344 23.246094 24.601562 C 23.265625 24.609375 23.28125 24.621094 23.296875 24.628906 C 23.398438 24.695312 23.488281 24.738281 23.574219 24.773438 C 23.832031 24.867188 24.113281 24.90625 24.433594 24.949219 C 24.785156 24.992188 25.097656 25.007812 25.386719 25 C 25.394531 25 25.398438 25 25.40625 25 L 28.007812 25 C 28.136719 25 28.246094 24.894531 28.246094 24.761719 C 28.246094 24.632812 28.136719 24.527344 28.007812 24.527344 C 27.789062 24.527344 27.609375 24.347656 27.609375 24.128906 C 27.609375 23.910156 27.789062 23.730469 28.007812 23.730469 C 28.578125 23.730469 29.039062 24.195312 29.039062 24.761719 C 29.039062 25.332031 28.578125 25.796875 28.007812 25.796875 L 25.402344 25.796875 C 25.351562 25.796875 25.300781 25.796875 25.253906 25.796875 " fill-opacity="1" fill-rule="nonzero"/></g><g clip-path="url(#4027df0f7e)"><path fill="#31ac7d" d="M 28.222656 21.988281 L 27.179688 21.988281 C 26.960938 21.988281 26.785156 21.808594 26.785156 21.589844 C 26.785156 21.371094 26.960938 21.191406 27.179688 21.191406 L 28.222656 21.191406 C 28.351562 21.191406 28.460938 21.085938 28.460938 20.957031 C 28.460938 20.824219 28.351562 20.71875 28.222656 20.71875 L 25.539062 20.71875 C 25.320312 20.71875 25.144531 20.542969 25.144531 20.320312 C 25.144531 20.058594 25.199219 19.808594 25.304688 19.574219 C 25.351562 19.476562 25.398438 19.382812 25.445312 19.292969 C 25.53125 19.121094 25.617188 18.957031 25.675781 18.789062 C 25.8125 18.386719 25.925781 17.820312 25.6875 17.367188 C 25.683594 17.363281 25.683594 17.359375 25.679688 17.359375 C 25.621094 17.273438 25.539062 17.214844 25.46875 17.191406 C 25.398438 17.167969 25.308594 17.183594 25.265625 17.246094 C 25.246094 17.277344 25.25 17.375 25.25 17.429688 C 25.257812 17.640625 25.25 17.828125 25.222656 18.007812 C 25.167969 18.378906 25.058594 18.707031 24.890625 18.988281 C 24.882812 19.019531 24.867188 19.046875 24.847656 19.078125 C 24.839844 19.09375 24.769531 19.203125 24.652344 19.363281 C 24.644531 19.371094 24.640625 19.378906 24.636719 19.386719 C 24.632812 19.390625 24.628906 19.394531 24.625 19.402344 C 24.230469 19.925781 23.347656 20.917969 22.21875 21.0625 C 22 21.09375 21.800781 20.9375 21.773438 20.722656 C 21.746094 20.503906 21.898438 20.304688 22.117188 20.273438 C 22.699219 20.199219 23.222656 19.773438 23.558594 19.425781 C 23.730469 19.25 23.871094 19.078125 23.972656 18.945312 C 23.972656 18.941406 23.976562 18.9375 23.976562 18.9375 C 23.984375 18.925781 23.996094 18.90625 24.015625 18.875 C 24.050781 18.824219 24.105469 18.738281 24.175781 18.625 C 24.308594 18.429688 24.394531 18.179688 24.4375 17.894531 C 24.457031 17.761719 24.460938 17.621094 24.457031 17.460938 C 24.449219 17.265625 24.453125 17.035156 24.597656 16.8125 C 24.828125 16.457031 25.28125 16.300781 25.703125 16.429688 C 25.9375 16.5 26.15625 16.664062 26.320312 16.882812 C 26.335938 16.90625 26.351562 16.925781 26.363281 16.945312 C 26.367188 16.953125 26.371094 16.960938 26.378906 16.96875 C 26.683594 17.53125 26.703125 18.25 26.425781 19.046875 C 26.351562 19.269531 26.25 19.464844 26.15625 19.65625 C 26.109375 19.742188 26.066406 19.828125 26.027344 19.910156 C 26.027344 19.914062 26.023438 19.917969 26.023438 19.921875 L 28.222656 19.921875 C 28.792969 19.921875 29.253906 20.386719 29.253906 20.957031 C 29.253906 21.523438 28.792969 21.988281 28.222656 21.988281 " fill-opacity="1" fill-rule="nonzero"/></g><path fill="#31ac7d" d="M 20.363281 24.945312 L 21.769531 24.945312 L 21.769531 20.515625 L 20.363281 20.515625 Z M 22.167969 25.742188 L 19.964844 25.742188 C 19.746094 25.742188 19.566406 25.5625 19.566406 25.34375 L 19.566406 20.117188 C 19.566406 19.898438 19.746094 19.722656 19.964844 19.722656 L 22.167969 19.722656 C 22.386719 19.722656 22.566406 19.898438 22.566406 20.117188 L 22.566406 25.34375 C 22.566406 25.5625 22.386719 25.742188 22.167969 25.742188 " fill-opacity="1" fill-rule="nonzero"/></svg>