<svg xmlns="http://www.w3.org/2000/svg" xmlns:xlink="http://www.w3.org/1999/xlink" width="40" zoomAndPan="magnify" viewBox="0 0 30 30.000001" height="40" preserveAspectRatio="xMidYMid meet" version="1.0"><defs><clipPath id="cca21881bc"><path d="M 0.839844 7 L 10 7 L 10 20 L 0.839844 20 Z M 0.839844 7 " clip-rule="nonzero"/></clipPath><clipPath id="b89fe52626"><path d="M 20 10 L 29.144531 10 L 29.144531 23 L 20 23 Z M 20 10 " clip-rule="nonzero"/></clipPath><clipPath id="d429b8a24e"><path d="M 6 21 L 24 21 L 24 26.128906 L 6 26.128906 Z M 6 21 " clip-rule="nonzero"/></clipPath><clipPath id="9624a7013a"><path d="M 6 2.902344 L 25 2.902344 L 25 9 L 6 9 Z M 6 2.902344 " clip-rule="nonzero"/></clipPath></defs><path fill="#31ac7d" d="M 20.046875 11.589844 L 18.945312 10.378906 C 18.925781 10.359375 18.90625 10.339844 18.886719 10.328125 C 18.839844 9.722656 18.53125 9.164062 18.042969 8.804688 C 18.121094 8.632812 18.164062 8.441406 18.164062 8.238281 C 18.164062 7.488281 17.554688 6.875 16.800781 6.875 C 16.046875 6.875 15.433594 7.488281 15.433594 8.238281 C 15.433594 8.441406 15.480469 8.632812 15.558594 8.804688 C 15.460938 8.875 15.375 8.957031 15.292969 9.039062 C 15.273438 9.035156 15.25 9.03125 15.226562 9.03125 C 15.1875 9.027344 15.058594 9.015625 14.933594 9.007812 C 14.757812 8.992188 14.578125 8.976562 14.488281 8.972656 C 14.34375 8.964844 14.214844 9.058594 14.175781 9.199219 L 13.863281 10.289062 L 12.878906 10.644531 L 11.945312 10 C 11.824219 9.917969 11.664062 9.925781 11.558594 10.023438 L 10.34375 11.128906 C 10.238281 11.222656 10.210938 11.382812 10.28125 11.507812 L 10.835938 12.5 L 10.386719 13.449219 L 9.273438 13.652344 C 9.128906 13.679688 9.023438 13.800781 9.015625 13.945312 L 8.9375 15.582031 C 8.929688 15.726562 9.023438 15.855469 9.164062 15.894531 L 10.253906 16.207031 L 10.609375 17.191406 L 9.964844 18.125 C 9.882812 18.246094 9.894531 18.40625 9.992188 18.511719 L 11.09375 19.726562 C 11.191406 19.832031 11.347656 19.859375 11.476562 19.789062 L 12.464844 19.238281 L 13.414062 19.683594 L 13.617188 20.800781 C 13.644531 20.941406 13.765625 21.046875 13.910156 21.054688 L 15.546875 21.132812 C 15.550781 21.132812 15.558594 21.132812 15.5625 21.132812 C 15.703125 21.132812 15.824219 21.039062 15.863281 20.90625 L 16.171875 19.816406 L 17.160156 19.460938 L 18.09375 20.105469 C 18.210938 20.1875 18.371094 20.175781 18.480469 20.078125 L 19.691406 18.976562 C 19.800781 18.878906 19.828125 18.722656 19.753906 18.59375 L 19.203125 17.601562 L 19.648438 16.65625 L 20.765625 16.449219 C 20.910156 16.425781 21.015625 16.304688 21.019531 16.160156 L 21.097656 14.523438 C 21.105469 14.378906 21.011719 14.246094 20.875 14.207031 L 19.78125 13.898438 L 19.425781 12.910156 L 20.070312 11.976562 C 20.15625 11.855469 20.144531 11.695312 20.046875 11.589844 Z M 16.800781 7.496094 C 17.207031 7.496094 17.542969 7.828125 17.542969 8.238281 C 17.542969 8.648438 17.207031 8.980469 16.800781 8.980469 C 16.390625 8.980469 16.058594 8.648438 16.058594 8.238281 C 16.058594 7.828125 16.390625 7.496094 16.800781 7.496094 Z M 15.328125 10.492188 C 15.328125 10.015625 15.558594 9.574219 15.941406 9.296875 C 16.175781 9.488281 16.472656 9.605469 16.800781 9.605469 C 17.125 9.605469 17.425781 9.488281 17.660156 9.296875 C 18.039062 9.574219 18.269531 10.015625 18.269531 10.492188 L 18.269531 10.789062 C 17.304688 11.011719 16.296875 11.011719 15.328125 10.789062 Z M 19.457031 14.453125 L 20.464844 14.738281 L 20.410156 15.882812 L 19.378906 16.070312 C 19.28125 16.089844 19.195312 16.152344 19.152344 16.246094 L 18.570312 17.484375 C 18.527344 17.574219 18.53125 17.679688 18.578125 17.769531 L 19.089844 18.683594 L 18.242188 19.453125 L 17.382812 18.855469 C 17.296875 18.800781 17.191406 18.785156 17.097656 18.820312 L 15.8125 19.28125 C 15.714844 19.316406 15.644531 19.394531 15.617188 19.488281 L 15.332031 20.496094 L 14.1875 20.441406 L 14 19.414062 C 13.980469 19.3125 13.917969 19.230469 13.824219 19.1875 L 12.585938 18.601562 C 12.496094 18.558594 12.390625 18.5625 12.300781 18.613281 L 11.386719 19.121094 L 10.617188 18.273438 L 11.210938 17.414062 C 11.269531 17.332031 11.285156 17.226562 11.25 17.132812 L 10.789062 15.84375 C 10.753906 15.75 10.675781 15.675781 10.578125 15.648438 L 9.570312 15.363281 L 9.628906 14.21875 L 10.65625 14.03125 C 10.753906 14.015625 10.839844 13.949219 10.882812 13.855469 L 11.464844 12.621094 C 11.507812 12.527344 11.503906 12.421875 11.457031 12.335938 L 10.945312 11.417969 L 11.792969 10.648438 L 12.65625 11.246094 C 12.738281 11.300781 12.84375 11.316406 12.9375 11.28125 L 14.226562 10.820312 C 14.320312 10.785156 14.390625 10.707031 14.417969 10.613281 L 14.703125 9.609375 C 14.761719 9.617188 14.820312 9.621094 14.878906 9.625 C 14.882812 9.625 14.886719 9.625 14.894531 9.625 C 14.773438 9.894531 14.707031 10.1875 14.707031 10.488281 L 14.707031 11.03125 C 14.707031 11.171875 14.800781 11.292969 14.9375 11.332031 C 15.546875 11.496094 16.171875 11.578125 16.800781 11.578125 C 17.425781 11.578125 18.054688 11.496094 18.664062 11.332031 C 18.742188 11.308594 18.804688 11.257812 18.84375 11.195312 L 19.417969 11.824219 L 18.824219 12.6875 C 18.765625 12.769531 18.753906 12.875 18.785156 12.96875 L 19.25 14.257812 C 19.28125 14.351562 19.359375 14.425781 19.457031 14.453125 Z M 19.457031 14.453125 " fill-opacity="1" fill-rule="nonzero"/><path fill="#31ac7d" d="M 17.371094 12.941406 C 17.089844 12.628906 16.75 12.375 16.367188 12.195312 C 15.980469 12.011719 15.570312 11.910156 15.148438 11.894531 C 14.738281 11.878906 14.335938 11.9375 13.949219 12.078125 C 13.5625 12.214844 13.214844 12.425781 12.910156 12.695312 C 12.59375 12.980469 12.34375 13.316406 12.160156 13.703125 C 11.976562 14.089844 11.878906 14.5 11.859375 14.921875 C 11.84375 15.332031 11.90625 15.734375 12.042969 16.117188 C 12.183594 16.503906 12.390625 16.855469 12.664062 17.160156 C 12.945312 17.472656 13.285156 17.726562 13.671875 17.910156 C 14.054688 18.089844 14.46875 18.191406 14.890625 18.207031 C 14.933594 18.210938 14.976562 18.210938 15.019531 18.210938 C 15.382812 18.210938 15.742188 18.148438 16.085938 18.023438 C 16.472656 17.886719 16.824219 17.675781 17.125 17.402344 C 17.441406 17.121094 17.695312 16.78125 17.875 16.398438 C 18.058594 16.011719 18.160156 15.601562 18.175781 15.179688 C 18.191406 14.769531 18.128906 14.367188 17.992188 13.980469 C 17.851562 13.597656 17.644531 13.246094 17.371094 12.941406 Z M 17.3125 16.132812 C 17.023438 16.746094 16.511719 17.207031 15.875 17.4375 C 15.238281 17.667969 14.550781 17.632812 13.9375 17.34375 C 13.324219 17.054688 12.859375 16.546875 12.632812 15.910156 C 12.402344 15.269531 12.433594 14.582031 12.722656 13.96875 C 13.011719 13.355469 13.523438 12.894531 14.160156 12.664062 C 14.441406 12.5625 14.730469 12.511719 15.019531 12.511719 C 15.390625 12.511719 15.757812 12.59375 16.101562 12.757812 C 16.714844 13.046875 17.175781 13.554688 17.40625 14.195312 C 17.632812 14.832031 17.601562 15.519531 17.3125 16.132812 Z M 17.3125 16.132812 " fill-opacity="1" fill-rule="nonzero"/><g clip-path="url(#cca21881bc)"><path fill="#31ac7d" d="M 6.960938 19.300781 C 7.019531 19.382812 7.117188 19.429688 7.214844 19.429688 C 7.253906 19.429688 7.296875 19.421875 7.332031 19.40625 L 8.480469 18.933594 C 8.613281 18.878906 8.695312 18.734375 8.667969 18.59375 L 8.535156 17.785156 L 9.15625 17.164062 C 9.277344 17.042969 9.277344 16.84375 9.15625 16.722656 C 9.035156 16.601562 8.835938 16.601562 8.714844 16.722656 L 7.984375 17.457031 C 7.910156 17.527344 7.878906 17.628906 7.894531 17.726562 L 8.015625 18.453125 L 7.324219 18.738281 L 6.898438 18.140625 C 6.839844 18.058594 6.746094 18.011719 6.644531 18.011719 L 5.609375 18.011719 C 5.507812 18.011719 5.414062 18.058594 5.355469 18.140625 L 4.925781 18.738281 L 4.238281 18.453125 L 4.355469 17.726562 C 4.371094 17.628906 4.339844 17.527344 4.269531 17.457031 L 3.535156 16.722656 C 3.464844 16.652344 3.363281 16.621094 3.265625 16.636719 L 2.539062 16.757812 L 2.253906 16.066406 L 2.851562 15.640625 C 2.933594 15.582031 2.980469 15.484375 2.980469 15.386719 L 2.980469 14.347656 C 2.980469 14.25 2.933594 14.152344 2.851562 14.09375 L 2.253906 13.667969 L 2.539062 12.976562 L 3.265625 13.097656 C 3.363281 13.113281 3.464844 13.082031 3.535156 13.011719 L 4.269531 12.277344 C 4.339844 12.207031 4.371094 12.105469 4.355469 12.007812 L 4.335938 11.875 C 4.492188 11.84375 4.644531 11.804688 4.800781 11.765625 C 4.933594 11.726562 5.03125 11.605469 5.03125 11.464844 L 5.03125 11.140625 L 5.355469 11.59375 C 5.414062 11.675781 5.507812 11.722656 5.609375 11.722656 L 6.644531 11.722656 C 6.746094 11.722656 6.839844 11.675781 6.898438 11.59375 L 7.324219 10.996094 L 8.015625 11.285156 L 7.894531 12.007812 C 7.878906 12.105469 7.910156 12.207031 7.984375 12.277344 L 8.714844 13.011719 C 8.777344 13.070312 8.855469 13.101562 8.933594 13.101562 C 9.015625 13.101562 9.09375 13.070312 9.15625 13.011719 C 9.277344 12.890625 9.277344 12.691406 9.15625 12.570312 L 8.535156 11.953125 L 8.667969 11.140625 C 8.695312 11 8.617188 10.859375 8.480469 10.804688 L 7.332031 10.328125 C 7.199219 10.273438 7.046875 10.316406 6.960938 10.433594 L 6.484375 11.101562 L 5.765625 11.101562 L 5.289062 10.433594 C 5.207031 10.320312 5.066406 10.277344 4.9375 10.320312 C 4.808594 9.890625 4.542969 9.511719 4.175781 9.242188 C 4.257812 9.070312 4.300781 8.875 4.300781 8.675781 C 4.300781 7.921875 3.6875 7.308594 2.933594 7.308594 C 2.183594 7.308594 1.570312 7.921875 1.570312 8.675781 C 1.570312 8.875 1.613281 9.070312 1.691406 9.242188 C 1.160156 9.636719 0.84375 10.257812 0.84375 10.925781 L 0.84375 11.464844 C 0.84375 11.605469 0.9375 11.730469 1.070312 11.765625 C 1.683594 11.933594 2.308594 12.015625 2.933594 12.015625 C 3.1875 12.015625 3.441406 12.003906 3.691406 11.976562 L 3.207031 12.460938 L 2.398438 12.324219 C 2.253906 12.300781 2.113281 12.378906 2.058594 12.515625 L 1.582031 13.660156 C 1.527344 13.796875 1.574219 13.949219 1.691406 14.035156 L 2.359375 14.511719 L 2.359375 15.226562 L 1.691406 15.707031 C 1.574219 15.789062 1.527344 15.945312 1.582031 16.078125 L 2.058594 17.226562 C 2.113281 17.359375 2.253906 17.4375 2.398438 17.414062 L 3.207031 17.28125 L 3.714844 17.789062 L 3.582031 18.597656 C 3.558594 18.742188 3.636719 18.882812 3.769531 18.9375 L 4.917969 19.410156 C 5.050781 19.464844 5.203125 19.421875 5.289062 19.304688 L 5.765625 18.636719 L 6.484375 18.636719 Z M 2.933594 7.929688 C 3.34375 7.929688 3.675781 8.261719 3.675781 8.671875 C 3.675781 9.078125 3.34375 9.410156 2.933594 9.410156 C 2.527344 9.410156 2.195312 9.078125 2.195312 8.671875 C 2.195312 8.261719 2.527344 7.929688 2.933594 7.929688 Z M 1.464844 11.21875 L 1.464844 10.921875 C 1.464844 10.449219 1.691406 10.007812 2.074219 9.730469 C 2.308594 9.921875 2.609375 10.035156 2.933594 10.035156 C 3.261719 10.035156 3.558594 9.921875 3.796875 9.730469 C 4.175781 10.003906 4.40625 10.449219 4.40625 10.921875 L 4.40625 11.21875 C 3.4375 11.445312 2.433594 11.445312 1.464844 11.21875 Z M 1.464844 11.21875 " fill-opacity="1" fill-rule="nonzero"/></g><path fill="#31ac7d" d="M 6.125 12.394531 C 5.464844 12.394531 4.847656 12.652344 4.378906 13.117188 C 3.914062 13.585938 3.65625 14.207031 3.65625 14.863281 C 3.65625 15.523438 3.914062 16.144531 4.378906 16.609375 C 4.847656 17.078125 5.464844 17.332031 6.125 17.332031 C 6.785156 17.332031 7.40625 17.078125 7.871094 16.609375 C 8.339844 16.144531 8.59375 15.523438 8.59375 14.863281 C 8.59375 14.207031 8.339844 13.585938 7.871094 13.117188 C 7.40625 12.652344 6.785156 12.394531 6.125 12.394531 Z M 7.429688 16.171875 C 7.082031 16.519531 6.617188 16.710938 6.125 16.710938 C 5.632812 16.710938 5.167969 16.519531 4.820312 16.171875 C 4.472656 15.820312 4.28125 15.359375 4.28125 14.867188 C 4.28125 14.371094 4.472656 13.910156 4.820312 13.558594 C 5.167969 13.210938 5.632812 13.019531 6.125 13.019531 C 6.617188 13.019531 7.082031 13.210938 7.429688 13.558594 C 7.78125 13.910156 7.972656 14.371094 7.972656 14.867188 C 7.972656 15.359375 7.777344 15.820312 7.429688 16.171875 Z M 7.429688 16.171875 " fill-opacity="1" fill-rule="nonzero"/><path fill="#31ac7d" d="M 23.1875 17.34375 C 23.480469 17.464844 23.792969 17.523438 24.101562 17.523438 C 24.433594 17.523438 24.761719 17.453125 25.074219 17.320312 C 25.683594 17.058594 26.152344 16.578125 26.394531 15.964844 C 26.640625 15.351562 26.628906 14.679688 26.371094 14.074219 C 26.109375 13.46875 25.628906 13 25.015625 12.757812 C 24.402344 12.511719 23.730469 12.519531 23.125 12.78125 C 22.519531 13.042969 22.050781 13.523438 21.804688 14.136719 C 21.5625 14.75 21.570312 15.421875 21.832031 16.027344 C 22.09375 16.632812 22.574219 17.101562 23.1875 17.34375 Z M 22.386719 14.367188 C 22.566406 13.910156 22.917969 13.550781 23.371094 13.355469 C 23.605469 13.253906 23.851562 13.203125 24.097656 13.203125 C 24.332031 13.203125 24.5625 13.246094 24.78125 13.335938 C 25.242188 13.519531 25.601562 13.867188 25.796875 14.320312 C 25.988281 14.773438 25.996094 15.277344 25.8125 15.734375 C 25.632812 16.191406 25.28125 16.550781 24.828125 16.746094 C 24.375 16.941406 23.875 16.949219 23.414062 16.765625 C 22.957031 16.582031 22.597656 16.230469 22.402344 15.78125 C 22.210938 15.328125 22.203125 14.824219 22.386719 14.367188 Z M 22.386719 14.367188 " fill-opacity="1" fill-rule="nonzero"/><g clip-path="url(#b89fe52626)"><path fill="#31ac7d" d="M 28.300781 19.8125 C 28.378906 19.640625 28.421875 19.449219 28.421875 19.246094 C 28.421875 18.722656 28.125 18.269531 27.691406 18.039062 L 27.871094 17.855469 C 27.972656 17.75 27.988281 17.589844 27.910156 17.46875 L 27.46875 16.777344 L 27.734375 16.113281 L 28.53125 15.917969 C 28.671875 15.882812 28.769531 15.753906 28.765625 15.609375 L 28.75 14.367188 C 28.75 14.222656 28.644531 14.097656 28.503906 14.066406 L 27.703125 13.890625 L 27.417969 13.234375 L 27.84375 12.53125 C 27.917969 12.40625 27.898438 12.246094 27.792969 12.144531 L 26.90625 11.277344 C 26.800781 11.179688 26.640625 11.160156 26.519531 11.242188 L 25.828125 11.683594 L 25.164062 11.417969 L 24.964844 10.621094 C 24.929688 10.480469 24.804688 10.382812 24.660156 10.382812 L 23.417969 10.402344 C 23.273438 10.402344 23.148438 10.503906 23.117188 10.644531 L 22.941406 11.449219 L 22.28125 11.730469 L 21.578125 11.308594 C 21.457031 11.230469 21.296875 11.253906 21.195312 11.355469 L 20.328125 12.246094 C 20.226562 12.351562 20.210938 12.511719 20.289062 12.632812 L 20.820312 13.457031 C 20.914062 13.601562 21.105469 13.644531 21.25 13.550781 C 21.394531 13.457031 21.4375 13.265625 21.34375 13.121094 L 20.949219 12.503906 L 21.46875 11.96875 L 22.097656 12.347656 C 22.183594 12.398438 22.289062 12.40625 22.382812 12.367188 L 23.335938 11.957031 C 23.425781 11.917969 23.492188 11.835938 23.515625 11.738281 L 23.671875 11.023438 L 24.417969 11.011719 L 24.59375 11.722656 C 24.621094 11.820312 24.6875 11.902344 24.78125 11.9375 L 25.746094 12.320312 C 25.839844 12.359375 25.945312 12.347656 26.027344 12.292969 L 26.644531 11.898438 L 27.179688 12.421875 L 26.800781 13.046875 C 26.75 13.132812 26.742188 13.242188 26.78125 13.332031 L 27.191406 14.285156 C 27.230469 14.378906 27.3125 14.445312 27.414062 14.464844 L 28.128906 14.625 L 28.136719 15.371094 L 27.425781 15.546875 C 27.328125 15.570312 27.25 15.640625 27.210938 15.734375 L 26.828125 16.695312 C 26.792969 16.789062 26.800781 16.894531 26.855469 16.980469 L 27.25 17.597656 L 27.132812 17.71875 C 27.085938 17.765625 27.058594 17.820312 27.050781 17.882812 C 26.855469 17.882812 26.671875 17.921875 26.507812 17.996094 L 26.101562 17.753906 C 26.015625 17.703125 25.910156 17.695312 25.820312 17.734375 L 24.867188 18.144531 C 24.773438 18.183594 24.707031 18.265625 24.683594 18.363281 L 24.527344 19.078125 L 23.78125 19.089844 L 23.605469 18.378906 C 23.582031 18.28125 23.511719 18.199219 23.417969 18.164062 L 22.457031 17.777344 C 22.363281 17.742188 22.257812 17.753906 22.171875 17.804688 L 21.554688 18.203125 L 21.019531 17.679688 L 21.398438 17.050781 C 21.488281 16.90625 21.441406 16.714844 21.292969 16.625 C 21.144531 16.535156 20.953125 16.582031 20.863281 16.730469 L 20.355469 17.570312 C 20.28125 17.695312 20.300781 17.851562 20.40625 17.953125 L 21.296875 18.820312 C 21.398438 18.921875 21.558594 18.9375 21.679688 18.859375 L 22.371094 18.417969 L 23.039062 18.683594 L 23.234375 19.480469 C 23.269531 19.617188 23.394531 19.714844 23.539062 19.714844 C 23.539062 19.714844 23.539062 19.714844 23.542969 19.714844 L 24.785156 19.699219 C 24.929688 19.699219 25.054688 19.597656 25.085938 19.453125 L 25.261719 18.652344 L 25.917969 18.371094 L 25.980469 18.40625 C 25.800781 18.640625 25.691406 18.929688 25.691406 19.246094 C 25.691406 19.449219 25.738281 19.640625 25.816406 19.8125 C 25.28125 20.207031 24.964844 20.832031 24.964844 21.496094 L 24.964844 22.039062 C 24.964844 22.179688 25.058594 22.300781 25.195312 22.335938 C 25.804688 22.503906 26.429688 22.585938 27.058594 22.585938 C 27.683594 22.585938 28.3125 22.503906 28.921875 22.335938 C 29.058594 22.300781 29.152344 22.175781 29.152344 22.039062 L 29.152344 21.496094 C 29.152344 20.828125 28.828125 20.203125 28.300781 19.8125 Z M 27.058594 18.503906 C 27.464844 18.503906 27.800781 18.839844 27.800781 19.246094 C 27.800781 19.65625 27.464844 19.988281 27.058594 19.988281 C 26.648438 19.988281 26.316406 19.65625 26.316406 19.246094 C 26.316406 18.839844 26.648438 18.503906 27.058594 18.503906 Z M 28.527344 21.796875 C 27.5625 22.023438 26.554688 22.023438 25.585938 21.796875 L 25.585938 21.5 C 25.585938 21.023438 25.816406 20.582031 26.199219 20.308594 C 26.433594 20.5 26.730469 20.613281 27.058594 20.613281 C 27.382812 20.613281 27.683594 20.496094 27.917969 20.308594 C 28.296875 20.582031 28.527344 21.023438 28.527344 21.5 Z M 28.527344 21.796875 " fill-opacity="1" fill-rule="nonzero"/></g><g clip-path="url(#d429b8a24e)"><path fill="#31ac7d" d="M 23.417969 21.527344 C 23.386719 21.355469 23.222656 21.246094 23.054688 21.277344 L 21.664062 21.527344 C 21.496094 21.558594 21.382812 21.722656 21.414062 21.890625 C 21.445312 22.0625 21.609375 22.171875 21.777344 22.144531 L 22.488281 22.011719 C 22.117188 22.453125 21.707031 22.863281 21.265625 23.234375 C 20.699219 23.707031 20.082031 24.121094 19.425781 24.453125 C 18.757812 24.792969 18.046875 25.054688 17.320312 25.230469 C 16.570312 25.414062 15.796875 25.503906 15.019531 25.503906 C 14.195312 25.503906 13.375 25.402344 12.585938 25.199219 C 11.816406 25 11.074219 24.710938 10.378906 24.332031 C 9.695312 23.957031 9.050781 23.503906 8.472656 22.976562 C 7.894531 22.453125 7.382812 21.859375 6.945312 21.214844 C 6.847656 21.070312 6.65625 21.03125 6.511719 21.128906 C 6.371094 21.226562 6.332031 21.417969 6.429688 21.5625 C 6.894531 22.25 7.441406 22.878906 8.054688 23.4375 C 8.667969 23.996094 9.351562 24.484375 10.082031 24.878906 C 10.824219 25.28125 11.613281 25.59375 12.429688 25.800781 C 13.269531 26.019531 14.140625 26.128906 15.019531 26.128906 C 15.847656 26.128906 16.671875 26.03125 17.46875 25.835938 C 18.242188 25.648438 18.996094 25.371094 19.707031 25.007812 C 20.40625 24.652344 21.066406 24.21875 21.667969 23.710938 C 22.132812 23.324219 22.558594 22.894531 22.949219 22.433594 L 23.058594 23.027344 C 23.085938 23.179688 23.214844 23.285156 23.363281 23.285156 C 23.382812 23.285156 23.402344 23.28125 23.421875 23.277344 C 23.589844 23.246094 23.703125 23.085938 23.671875 22.914062 Z M 23.417969 21.527344 " fill-opacity="1" fill-rule="nonzero"/></g><g clip-path="url(#9624a7013a)"><path fill="#31ac7d" d="M 6.28125 7.722656 C 6.296875 7.882812 6.433594 8 6.589844 8 C 6.601562 8 6.613281 8 6.625 8 L 8.027344 7.84375 C 8.199219 7.828125 8.324219 7.671875 8.304688 7.5 C 8.285156 7.332031 8.128906 7.207031 7.957031 7.226562 L 7.328125 7.296875 C 7.757812 6.738281 8.25 6.230469 8.789062 5.78125 C 9.355469 5.308594 9.972656 4.902344 10.628906 4.570312 C 11.296875 4.234375 12 3.972656 12.726562 3.796875 C 13.472656 3.617188 14.242188 3.527344 15.019531 3.527344 C 15.902344 3.527344 16.777344 3.644531 17.621094 3.878906 C 18.4375 4.105469 19.222656 4.4375 19.953125 4.871094 C 21.402344 5.722656 22.609375 6.941406 23.449219 8.394531 C 23.507812 8.496094 23.613281 8.550781 23.722656 8.550781 C 23.773438 8.550781 23.828125 8.535156 23.875 8.507812 C 24.027344 8.421875 24.078125 8.230469 23.988281 8.082031 C 23.09375 6.535156 21.808594 5.238281 20.269531 4.332031 C 19.492188 3.875 18.65625 3.519531 17.785156 3.277344 C 16.890625 3.03125 15.957031 2.902344 15.019531 2.902344 C 14.195312 2.902344 13.371094 3 12.578125 3.191406 C 11.808594 3.378906 11.054688 3.65625 10.347656 4.015625 C 9.652344 4.367188 8.992188 4.800781 8.390625 5.300781 C 7.808594 5.785156 7.28125 6.332031 6.820312 6.929688 L 6.746094 6.253906 C 6.726562 6.082031 6.574219 5.957031 6.402344 5.976562 C 6.230469 5.996094 6.105469 6.148438 6.125 6.320312 Z M 6.28125 7.722656 " fill-opacity="1" fill-rule="nonzero"/></g></svg>