<svg xmlns="http://www.w3.org/2000/svg" xmlns:xlink="http://www.w3.org/1999/xlink" width="40" zoomAndPan="magnify" viewBox="0 0 30 30.000001" height="40" preserveAspectRatio="xMidYMid meet" version="1.0"><defs><clipPath id="1c873d5358"><path d="M 6 22 L 11 22 L 11 29.03125 L 6 29.03125 Z M 6 22 " clip-rule="nonzero"/></clipPath><clipPath id="01a38683d5"><path d="M 12 20 L 17 20 L 17 29.03125 L 12 29.03125 Z M 12 20 " clip-rule="nonzero"/></clipPath><clipPath id="c4a5759165"><path d="M 17 17 L 23 17 L 23 29.03125 L 17 29.03125 Z M 17 17 " clip-rule="nonzero"/></clipPath><clipPath id="981d42eec1"><path d="M 21 6 L 29.371094 6 L 29.371094 29.03125 L 21 29.03125 Z M 21 6 " clip-rule="nonzero"/></clipPath><clipPath id="7753c7ef08"><path d="M 4 28 L 29.371094 28 L 29.371094 29.03125 L 4 29.03125 Z M 4 28 " clip-rule="nonzero"/></clipPath><clipPath id="6138bedf65"><path d="M 0.484375 0 L 13 0 L 13 14 L 0.484375 14 Z M 0.484375 0 " clip-rule="nonzero"/></clipPath></defs><g clip-path="url(#1c873d5358)"><path fill="#31ac7d" d="M 10.300781 29.03125 L 6.808594 29.03125 C 6.636719 29.03125 6.464844 28.917969 6.464844 28.6875 L 6.464844 23.074219 C 6.464844 22.90625 6.636719 22.734375 6.808594 22.734375 L 10.300781 22.734375 C 10.472656 22.734375 10.644531 22.90625 10.644531 23.074219 L 10.644531 28.6875 C 10.644531 28.917969 10.472656 29.03125 10.300781 29.03125 Z M 7.152344 28.34375 L 9.957031 28.34375 L 9.957031 23.417969 L 7.152344 23.417969 Z M 7.152344 28.34375 " fill-opacity="1" fill-rule="evenodd"/></g><g clip-path="url(#01a38683d5)"><path fill="#31ac7d" d="M 15.96875 29.03125 L 12.476562 29.03125 C 12.304688 29.03125 12.132812 28.917969 12.132812 28.6875 L 12.132812 20.785156 C 12.132812 20.613281 12.304688 20.441406 12.476562 20.441406 L 15.96875 20.441406 C 16.199219 20.441406 16.3125 20.613281 16.3125 20.785156 L 16.3125 28.6875 C 16.3125 28.917969 16.199219 29.03125 15.96875 29.03125 Z M 12.820312 28.34375 L 15.625 28.34375 L 15.625 21.128906 L 12.820312 21.128906 Z M 12.820312 28.34375 " fill-opacity="1" fill-rule="evenodd"/></g><g clip-path="url(#c4a5759165)"><path fill="#31ac7d" d="M 21.695312 29.03125 L 18.144531 29.03125 C 17.972656 29.03125 17.800781 28.917969 17.800781 28.6875 L 17.800781 17.464844 C 17.800781 17.292969 17.972656 17.121094 18.144531 17.121094 L 21.695312 17.121094 C 21.867188 17.121094 22.039062 17.292969 22.039062 17.464844 L 22.039062 28.6875 C 22.039062 28.917969 21.867188 29.03125 21.695312 29.03125 Z M 18.488281 28.34375 L 21.351562 28.34375 L 21.351562 17.808594 L 18.488281 17.808594 Z M 18.488281 28.34375 " fill-opacity="1" fill-rule="evenodd"/></g><g clip-path="url(#981d42eec1)"><path fill="#31ac7d" d="M 27.363281 29.03125 L 23.871094 29.03125 C 23.699219 29.03125 23.527344 28.917969 23.527344 28.6875 L 23.527344 12.539062 L 21.921875 12.539062 C 21.808594 12.539062 21.695312 12.484375 21.636719 12.367188 C 21.578125 12.253906 21.578125 12.140625 21.636719 12.027344 L 25.246094 6.527344 C 25.300781 6.414062 25.414062 6.355469 25.53125 6.355469 C 25.644531 6.355469 25.703125 6.414062 25.816406 6.527344 L 29.539062 11.96875 C 29.597656 12.027344 29.652344 12.140625 29.652344 12.195312 C 29.652344 12.367188 29.480469 12.539062 29.308594 12.539062 L 27.707031 12.539062 L 27.707031 28.6875 C 27.707031 28.917969 27.535156 29.03125 27.363281 29.03125 Z M 24.214844 28.34375 L 27.019531 28.34375 L 27.019531 12.195312 C 27.019531 12.027344 27.191406 11.855469 27.363281 11.855469 L 28.621094 11.855469 L 25.53125 7.332031 L 22.554688 11.855469 L 23.871094 11.855469 C 24.042969 11.855469 24.214844 12.027344 24.214844 12.195312 Z M 24.214844 28.34375 " fill-opacity="1" fill-rule="evenodd"/></g><g clip-path="url(#7753c7ef08)"><path fill="#31ac7d" d="M 28.679688 29.03125 L 4.746094 29.03125 C 4.574219 29.03125 4.402344 28.917969 4.402344 28.6875 C 4.402344 28.515625 4.574219 28.34375 4.746094 28.34375 L 28.679688 28.34375 C 28.910156 28.34375 29.023438 28.515625 29.023438 28.6875 C 29.023438 28.917969 28.910156 29.03125 28.679688 29.03125 Z M 28.679688 29.03125 " fill-opacity="1" fill-rule="evenodd"/></g><path fill="#31ac7d" d="M 4.460938 21.300781 C 3.714844 21.300781 3.085938 20.785156 2.972656 20.097656 C 2.914062 19.46875 3.257812 18.722656 4.171875 18.4375 C 4.804688 18.265625 5.492188 17.980469 5.949219 17.75 C 6.121094 17.695312 6.292969 17.636719 6.464844 17.523438 C 7.722656 16.949219 8.984375 16.148438 10.128906 15.347656 C 13.679688 12.769531 16.253906 9.507812 17.800781 5.667969 C 18.03125 4.984375 18.316406 4.238281 18.488281 3.550781 L 18.546875 3.378906 L 16.65625 2.578125 C 16.542969 2.519531 16.425781 2.40625 16.425781 2.234375 C 16.425781 2.121094 16.542969 2.003906 16.65625 1.949219 L 21.179688 0.0585938 C 21.351562 0 21.578125 0.0585938 21.636719 0.230469 L 23.527344 4.8125 C 23.582031 4.925781 23.527344 5.097656 23.46875 5.15625 C 23.355469 5.269531 23.183594 5.328125 23.070312 5.269531 L 21.234375 4.46875 C 20.433594 7.160156 19.230469 9.621094 17.6875 11.855469 C 16.082031 14.03125 14.078125 16.035156 11.789062 17.695312 C 10.300781 18.78125 8.695312 19.699219 7.09375 20.386719 C 6.519531 20.671875 5.777344 21.015625 5.03125 21.1875 C 4.804688 21.242188 4.632812 21.300781 4.460938 21.300781 Z M 17.6875 2.234375 L 19.117188 2.863281 C 19.230469 2.921875 19.347656 3.09375 19.289062 3.265625 L 19.175781 3.722656 C 18.945312 4.46875 18.71875 5.210938 18.429688 5.957031 C 16.828125 9.90625 14.195312 13.226562 10.585938 15.863281 C 9.328125 16.777344 8.066406 17.523438 6.75 18.152344 C 6.578125 18.210938 6.40625 18.324219 6.234375 18.382812 C 5.71875 18.609375 5.03125 18.953125 4.402344 19.125 C 3.773438 19.296875 3.601562 19.699219 3.65625 19.984375 C 3.714844 20.328125 3.945312 20.613281 4.460938 20.613281 C 4.574219 20.613281 4.6875 20.613281 4.804688 20.558594 C 5.492188 20.328125 6.234375 20.042969 6.808594 19.753906 C 8.410156 19.066406 9.898438 18.152344 11.386719 17.121094 C 15.910156 13.859375 19.117188 9.390625 20.605469 4.125 L 20.664062 3.894531 C 20.664062 3.835938 20.777344 3.722656 20.835938 3.722656 C 20.949219 3.664062 21.007812 3.664062 21.121094 3.722656 L 22.554688 4.296875 L 21.121094 0.804688 Z M 17.6875 2.234375 " fill-opacity="1" fill-rule="evenodd"/><g clip-path="url(#6138bedf65)"><path fill="#31ac7d" d="M 6.636719 13.226562 C 3.199219 13.226562 0.335938 10.421875 0.335938 6.988281 C 0.335938 3.492188 3.199219 0.6875 6.636719 0.6875 C 10.128906 0.6875 12.933594 3.492188 12.933594 6.988281 C 12.933594 10.421875 10.128906 13.226562 6.636719 13.226562 Z M 6.636719 1.375 C 3.542969 1.375 1.023438 3.894531 1.023438 6.988281 C 1.023438 10.078125 3.542969 12.539062 6.636719 12.539062 C 9.726562 12.539062 12.246094 10.078125 12.246094 6.988281 C 12.246094 3.894531 9.726562 1.375 6.636719 1.375 Z M 6.636719 1.375 " fill-opacity="1" fill-rule="evenodd"/></g><path fill="#31ac7d" d="M 6.636719 10.707031 C 5.546875 10.707031 4.632812 9.792969 4.632812 8.648438 C 4.632812 8.476562 4.746094 8.304688 4.976562 8.304688 C 5.148438 8.304688 5.320312 8.476562 5.320312 8.648438 C 5.320312 9.390625 5.890625 10.019531 6.636719 10.019531 C 7.378906 10.019531 8.007812 9.390625 8.007812 8.648438 C 8.007812 7.902344 7.378906 7.332031 6.636719 7.332031 C 5.546875 7.332031 4.632812 6.414062 4.632812 5.269531 C 4.632812 4.179688 5.546875 3.265625 6.636719 3.265625 C 7.78125 3.265625 8.695312 4.179688 8.695312 5.269531 C 8.695312 5.441406 8.523438 5.613281 8.351562 5.613281 C 8.125 5.613281 8.007812 5.441406 8.007812 5.269531 C 8.007812 4.523438 7.378906 3.953125 6.636719 3.953125 C 5.890625 3.953125 5.320312 4.523438 5.320312 5.269531 C 5.320312 6.011719 5.890625 6.644531 6.636719 6.644531 C 7.78125 6.644531 8.695312 7.558594 8.695312 8.648438 C 8.695312 9.792969 7.78125 10.707031 6.636719 10.707031 Z M 6.636719 10.707031 " fill-opacity="1" fill-rule="evenodd"/><path fill="#31ac7d" d="M 6.636719 11.222656 C 6.464844 11.222656 6.292969 11.050781 6.292969 10.878906 L 6.292969 3.09375 C 6.292969 2.863281 6.464844 2.75 6.636719 2.75 C 6.808594 2.75 6.980469 2.863281 6.980469 3.09375 L 6.980469 10.878906 C 6.980469 11.050781 6.808594 11.222656 6.636719 11.222656 Z M 6.636719 11.222656 " fill-opacity="1" fill-rule="evenodd"/></svg>