<svg xmlns="http://www.w3.org/2000/svg" xmlns:xlink="http://www.w3.org/1999/xlink" width="40" zoomAndPan="magnify" viewBox="0 0 30 30.000001" height="40" preserveAspectRatio="xMidYMid meet" version="1.0"><defs><clipPath id="08d80993cd"><path d="M 0.484375 0 L 29.515625 0 L 29.515625 29 L 0.484375 29 Z M 0.484375 0 " clip-rule="nonzero"/></clipPath></defs><g clip-path="url(#08d80993cd)"><path fill="#31ac7d" d="M 14.089844 0.03125 C 13.785156 0.0273438 13.523438 0.246094 13.46875 0.546875 L 13.125 2.421875 C 12.832031 2.515625 12.546875 2.632812 12.269531 2.769531 L 10.730469 1.65625 C 10.480469 1.480469 10.136719 1.503906 9.921875 1.722656 L 8.582031 3.039062 C 8.367188 3.253906 8.335938 3.59375 8.507812 3.84375 L 9.59375 5.410156 C 9.449219 5.6875 9.332031 5.972656 9.234375 6.261719 L 7.355469 6.566406 C 7.054688 6.613281 6.832031 6.871094 6.828125 7.179688 L 6.816406 9.0625 C 6.816406 9.367188 7.03125 9.628906 7.332031 9.683594 L 9.214844 10.023438 C 9.308594 10.316406 9.425781 10.597656 9.5625 10.875 L 8.445312 12.421875 C 8.265625 12.671875 8.289062 13.011719 8.503906 13.230469 L 9.828125 14.570312 C 10.039062 14.785156 10.378906 14.816406 10.628906 14.640625 L 12.214844 13.550781 C 12.488281 13.6875 12.773438 13.804688 13.0625 13.898438 L 13.382812 15.800781 C 13.433594 16.101562 13.691406 16.324219 14 16.324219 L 15.878906 16.335938 C 16.1875 16.335938 16.449219 16.113281 16.5 15.8125 L 16.820312 13.914062 C 17.105469 13.820312 17.386719 13.707031 17.65625 13.570312 L 19.234375 14.691406 C 19.484375 14.867188 19.820312 14.839844 20.035156 14.625 L 21.375 13.304688 C 21.59375 13.089844 21.625 12.746094 21.445312 12.492188 L 20.328125 10.925781 C 20.46875 10.65625 20.585938 10.378906 20.679688 10.09375 L 22.589844 9.769531 C 22.886719 9.71875 23.109375 9.460938 23.109375 9.152344 L 23.121094 7.273438 C 23.121094 6.96875 22.902344 6.707031 22.597656 6.65625 L 20.707031 6.332031 C 20.613281 6.042969 20.5 5.761719 20.363281 5.484375 L 21.476562 3.917969 C 21.65625 3.667969 21.628906 3.332031 21.414062 3.113281 L 20.089844 1.773438 C 19.875 1.558594 19.53125 1.527344 19.28125 1.707031 L 17.730469 2.808594 C 17.453125 2.667969 17.175781 2.550781 16.890625 2.457031 L 16.585938 0.570312 C 16.535156 0.265625 16.277344 0.0429688 15.96875 0.0429688 Z M 14.609375 1.289062 L 15.429688 1.292969 L 15.703125 2.988281 C 15.742188 3.234375 15.925781 3.433594 16.167969 3.496094 C 16.625 3.613281 17.070312 3.800781 17.488281 4.054688 C 17.699219 4.183594 17.972656 4.175781 18.175781 4.03125 L 19.574219 3.039062 L 20.152344 3.621094 L 19.144531 5.03125 C 19.003906 5.238281 18.992188 5.503906 19.117188 5.714844 C 19.367188 6.136719 19.546875 6.582031 19.65625 7.039062 C 19.714844 7.285156 19.910156 7.46875 20.160156 7.515625 L 21.863281 7.800781 L 21.859375 8.621094 L 20.140625 8.910156 C 19.894531 8.953125 19.695312 9.136719 19.632812 9.375 C 19.519531 9.832031 19.335938 10.273438 19.082031 10.683594 C 18.953125 10.898438 18.964844 11.171875 19.109375 11.375 L 20.113281 12.789062 L 19.53125 13.363281 L 18.109375 12.355469 C 17.90625 12.210938 17.636719 12.199219 17.425781 12.328125 C 17.007812 12.574219 16.566406 12.75 16.109375 12.863281 C 15.863281 12.921875 15.679688 13.121094 15.640625 13.367188 L 15.351562 15.078125 L 14.53125 15.070312 L 14.242188 13.355469 C 14.203125 13.109375 14.019531 12.914062 13.773438 12.855469 C 13.320312 12.742188 12.875 12.554688 12.457031 12.304688 C 12.246094 12.179688 11.980469 12.183594 11.777344 12.328125 L 10.347656 13.3125 L 9.769531 12.726562 L 10.777344 11.335938 C 10.925781 11.132812 10.9375 10.859375 10.808594 10.644531 C 10.558594 10.226562 10.378906 9.78125 10.265625 9.320312 C 10.207031 9.078125 10.011719 8.894531 9.769531 8.847656 L 8.074219 8.542969 L 8.082031 7.71875 L 9.769531 7.449219 C 10.015625 7.410156 10.21875 7.226562 10.277344 6.984375 C 10.394531 6.519531 10.578125 6.074219 10.835938 5.65625 C 10.964844 5.445312 10.957031 5.175781 10.816406 4.972656 L 9.84375 3.5625 L 10.425781 2.984375 L 11.8125 3.984375 C 12.011719 4.132812 12.28125 4.144531 12.496094 4.019531 C 12.917969 3.765625 13.367188 3.585938 13.828125 3.476562 C 14.070312 3.417969 14.257812 3.222656 14.300781 2.980469 Z M 14.960938 5.070312 C 14.15625 5.066406 13.347656 5.367188 12.730469 5.976562 C 11.503906 7.191406 11.492188 9.191406 12.707031 10.425781 C 13.921875 11.652344 15.925781 11.664062 17.15625 10.449219 C 18.386719 9.234375 18.394531 7.230469 17.179688 6 C 16.574219 5.386719 15.765625 5.074219 14.960938 5.070312 Z M 14.957031 6.316406 C 15.4375 6.320312 15.917969 6.507812 16.289062 6.882812 C 17.027344 7.628906 17.019531 8.816406 16.273438 9.554688 C 15.527344 10.292969 14.339844 10.289062 13.597656 9.542969 C 12.859375 8.792969 12.867188 7.605469 13.613281 6.867188 C 13.988281 6.496094 14.472656 6.3125 14.957031 6.316406 Z M 8.335938 16.335938 C 6.699219 16.335938 5.945312 16.726562 5.132812 17.039062 C 5.132812 17.042969 5.132812 17.042969 5.132812 17.042969 C 3.570312 17.648438 0.902344 18.910156 0.902344 18.910156 C 0.589844 19.054688 0.453125 19.429688 0.601562 19.742188 C 0.75 20.058594 1.125 20.191406 1.4375 20.046875 C 1.4375 20.046875 4.125 18.777344 5.585938 18.210938 C 6.488281 17.859375 6.878906 17.589844 8.335938 17.589844 C 11.550781 17.589844 11.421875 18.984375 12.777344 19.785156 C 12.796875 19.796875 12.820312 19.808594 12.84375 19.816406 C 14.523438 20.570312 16.332031 20.722656 17.789062 20.722656 C 18.433594 20.722656 18.839844 20.875 19.0625 21.039062 C 19.28125 21.207031 19.359375 21.382812 19.359375 21.664062 C 19.359375 21.996094 19.273438 22.152344 19.058594 22.3125 C 18.839844 22.46875 18.425781 22.605469 17.789062 22.605469 L 14.5 22.605469 C 13.117188 22.605469 10.738281 21.996094 10.738281 21.996094 C 10.523438 21.9375 10.289062 22.003906 10.132812 22.160156 C 9.972656 22.320312 9.910156 22.554688 9.96875 22.769531 C 10.03125 22.988281 10.203125 23.15625 10.421875 23.210938 C 10.421875 23.210938 12.777344 23.859375 14.5 23.859375 L 17.789062 23.859375 C 18.429688 23.859375 18.984375 23.753906 19.449219 23.523438 C 19.511719 23.507812 19.570312 23.480469 19.621094 23.441406 L 25.570312 19.539062 C 26.464844 19.023438 27.074219 18.878906 27.429688 18.882812 C 27.789062 18.890625 27.910156 19 28.019531 19.136719 C 28.179688 19.34375 28.1875 19.421875 28.085938 19.660156 C 27.980469 19.898438 27.671875 20.269531 27.121094 20.652344 C 26.4375 21.125 18.824219 26.089844 17.945312 26.585938 C 17.28125 26.964844 16.753906 27.363281 16.152344 27.53125 C 15.554688 27.699219 14.847656 27.699219 13.675781 27.140625 C 12.894531 26.765625 9.566406 25.058594 8.488281 24.511719 C 7.890625 24.210938 7.378906 24.039062 6.855469 24.066406 C 6.332031 24.097656 5.890625 24.320312 5.429688 24.609375 C 5.429688 24.609375 5.425781 24.609375 5.425781 24.613281 L 3.871094 25.605469 C 3.675781 25.722656 3.5625 25.9375 3.570312 26.167969 C 3.578125 26.394531 3.707031 26.601562 3.910156 26.703125 C 4.117188 26.804688 4.359375 26.792969 4.550781 26.660156 L 6.09375 25.671875 C 6.492188 25.421875 6.71875 25.332031 6.925781 25.320312 C 7.128906 25.308594 7.414062 25.371094 7.925781 25.632812 C 8.992188 26.171875 12.265625 27.855469 13.136719 28.269531 C 14.5 28.921875 15.605469 28.984375 16.488281 28.738281 C 17.375 28.492188 18.003906 27.996094 18.5625 27.679688 C 19.773438 26.988281 26.964844 22.285156 27.835938 21.679688 C 28.5 21.214844 28.988281 20.734375 29.238281 20.15625 C 29.484375 19.578125 29.402344 18.871094 29.007812 18.367188 C 29.007812 18.367188 29.007812 18.367188 29.007812 18.363281 C 28.699219 17.96875 28.144531 17.644531 27.453125 17.628906 C 27.058594 17.621094 26.621094 17.714844 26.132812 17.890625 C 26.042969 17.773438 25.90625 17.617188 25.714844 17.476562 C 25.351562 17.207031 24.769531 16.960938 23.984375 16.960938 C 23.578125 16.960938 23.246094 17.054688 22.984375 17.164062 C 22.605469 16.804688 21.9375 16.347656 20.964844 16.347656 C 20.175781 16.347656 19.4375 16.613281 18.921875 16.914062 C 18.828125 16.972656 18.597656 17.117188 18.203125 17.359375 C 17.8125 17.605469 17.300781 17.921875 16.796875 18.238281 C 15.988281 18.738281 15.492188 19.054688 15.203125 19.234375 C 14.585938 19.113281 13.972656 18.9375 13.390625 18.683594 C 12.894531 18.363281 11.945312 16.335938 8.335938 16.335938 Z M 20.964844 17.601562 C 21.363281 17.601562 21.644531 17.703125 21.847656 17.820312 L 18.945312 19.617188 C 18.601562 19.519531 18.214844 19.46875 17.789062 19.46875 C 17.609375 19.46875 17.410156 19.457031 17.222656 19.449219 C 17.339844 19.375 17.339844 19.375 17.460938 19.304688 C 17.964844 18.988281 18.472656 18.667969 18.867188 18.425781 C 19.261719 18.179688 19.582031 17.984375 19.558594 17.996094 C 19.855469 17.820312 20.5 17.601562 20.964844 17.601562 Z M 23.984375 18.214844 C 24.492188 18.214844 24.765625 18.34375 24.933594 18.460938 C 24.921875 18.464844 24.914062 18.46875 24.90625 18.476562 L 20.574219 21.320312 C 20.515625 20.96875 20.371094 20.632812 20.140625 20.355469 L 23.167969 18.476562 L 23.171875 18.46875 C 23.195312 18.457031 23.71875 18.214844 23.984375 18.214844 Z M 23.984375 18.214844 " fill-opacity="1" fill-rule="nonzero"/></g></svg>