<svg xmlns="http://www.w3.org/2000/svg" xmlns:xlink="http://www.w3.org/1999/xlink" width="40" zoomAndPan="magnify" viewBox="0 0 30 30.000001" height="40" preserveAspectRatio="xMidYMid meet" version="1.0"><defs><clipPath id="d40288cc0f"><path d="M 0.484375 0 L 29.515625 0 L 29.515625 29.03125 L 0.484375 29.03125 Z M 0.484375 0 " clip-rule="nonzero"/></clipPath></defs><g clip-path="url(#d40288cc0f)"><path fill="#31ac7d" d="M 9.472656 23.132812 L 20.527344 23.132812 C 21.484375 23.132812 22.261719 22.355469 22.261719 21.402344 L 22.261719 14.390625 C 22.472656 14.542969 22.71875 14.621094 22.976562 14.621094 C 23.023438 14.621094 23.066406 14.617188 23.113281 14.613281 C 23.445312 14.578125 23.742188 14.417969 23.949219 14.160156 C 24.382812 13.625 24.300781 12.839844 23.765625 12.40625 L 16.246094 6.324219 C 15.558594 5.769531 14.59375 5.757812 13.898438 6.300781 L 6.257812 12.230469 C 5.714844 12.648438 5.613281 13.433594 6.035156 13.976562 C 6.445312 14.503906 7.199219 14.609375 7.738281 14.226562 L 7.738281 21.402344 C 7.738281 22.355469 8.515625 23.132812 9.472656 23.132812 Z M 20.527344 22.410156 L 9.472656 22.410156 C 8.914062 22.410156 8.460938 21.957031 8.460938 21.402344 L 8.460938 13.667969 L 15.046875 8.558594 L 21.535156 13.8125 L 21.535156 21.402344 C 21.539062 21.957031 21.085938 22.410156 20.527344 22.410156 Z M 6.605469 13.53125 L 6.320312 13.753906 L 6.605469 13.53125 C 6.429688 13.304688 6.472656 12.976562 6.699219 12.800781 L 14.339844 6.871094 C 14.777344 6.53125 15.359375 6.539062 15.789062 6.886719 L 23.308594 12.96875 C 23.535156 13.152344 23.566406 13.480469 23.386719 13.707031 C 23.300781 13.8125 23.175781 13.878906 23.035156 13.894531 C 22.898438 13.910156 22.761719 13.871094 22.652344 13.78125 L 15.28125 7.816406 C 15.214844 7.761719 15.132812 7.734375 15.054688 7.734375 C 14.976562 7.734375 14.898438 7.761719 14.832031 7.8125 L 7.339844 13.625 C 7.113281 13.800781 6.78125 13.761719 6.605469 13.53125 Z M 17.625 14.84375 L 12.375 14.84375 C 12.175781 14.84375 12.011719 15.003906 12.011719 15.203125 L 12.011719 19.316406 C 12.011719 19.515625 12.175781 19.675781 12.375 19.675781 L 17.625 19.675781 C 17.824219 19.675781 17.988281 19.515625 17.988281 19.316406 L 17.988281 15.203125 C 17.988281 15.003906 17.824219 14.84375 17.625 14.84375 Z M 17.265625 18.953125 L 12.734375 18.953125 L 12.734375 15.566406 L 17.265625 15.566406 Z M 29.515625 14.515625 C 29.515625 16.246094 29.214844 17.9375 28.621094 19.542969 C 28.570312 19.6875 28.429688 19.777344 28.28125 19.777344 C 28.242188 19.777344 28.199219 19.769531 28.15625 19.753906 C 27.96875 19.6875 27.875 19.480469 27.945312 19.292969 C 28.507812 17.765625 28.792969 16.15625 28.792969 14.515625 C 28.792969 6.910156 22.605469 0.722656 15 0.722656 C 11.886719 0.722656 8.785156 1.8125 6.398438 3.726562 L 8.511719 4.140625 C 8.707031 4.179688 8.835938 4.367188 8.796875 4.5625 C 8.761719 4.738281 8.613281 4.855469 8.441406 4.855469 C 8.421875 4.855469 8.398438 4.855469 8.375 4.847656 L 5.546875 4.300781 C 5.351562 4.261719 5.222656 4.070312 5.261719 3.875 L 5.8125 1.050781 C 5.851562 0.855469 6.039062 0.726562 6.238281 0.765625 C 6.433594 0.800781 6.5625 0.992188 6.523438 1.1875 L 6.171875 2.988281 C 8.652344 1.082031 11.824219 0 15 0 C 18.878906 0 22.523438 1.511719 25.265625 4.25 C 28.007812 6.992188 29.515625 10.640625 29.515625 14.515625 Z M 24.753906 24.886719 C 24.808594 24.964844 24.828125 25.0625 24.808594 25.15625 L 24.261719 27.980469 C 24.226562 28.15625 24.074219 28.273438 23.90625 28.273438 C 23.882812 28.273438 23.859375 28.273438 23.835938 28.265625 C 23.640625 28.230469 23.511719 28.039062 23.550781 27.84375 L 23.914062 25.972656 C 21.375 27.953125 18.242188 29.03125 15 29.03125 C 11.121094 29.03125 7.476562 27.523438 4.734375 24.78125 C 1.992188 22.039062 0.484375 18.394531 0.484375 14.515625 C 0.484375 12.773438 0.789062 11.070312 1.394531 9.449219 C 1.460938 9.261719 1.671875 9.167969 1.859375 9.238281 C 2.046875 9.308594 2.140625 9.515625 2.070312 9.703125 C 1.496094 11.238281 1.207031 12.859375 1.207031 14.515625 C 1.207031 22.121094 7.394531 28.308594 15 28.308594 C 18.140625 28.308594 21.171875 27.242188 23.609375 25.289062 L 21.5625 24.890625 C 21.363281 24.851562 21.238281 24.664062 21.273438 24.46875 C 21.3125 24.269531 21.503906 24.144531 21.699219 24.183594 L 24.523438 24.730469 C 24.617188 24.75 24.703125 24.804688 24.753906 24.886719 Z M 24.753906 24.886719 " fill-opacity="1" fill-rule="nonzero"/></g></svg>