<svg xmlns="http://www.w3.org/2000/svg" xmlns:xlink="http://www.w3.org/1999/xlink" width="40" zoomAndPan="magnify" viewBox="0 0 30 30.000001" height="40" preserveAspectRatio="xMidYMid meet" version="1.0"><defs><clipPath id="ef08879a34"><path d="M 0.484375 18 L 10 18 L 10 27 L 0.484375 27 Z M 0.484375 18 " clip-rule="nonzero"/></clipPath><clipPath id="12c36e6f00"><path d="M 15 24 L 17 24 L 17 29.03125 L 15 29.03125 Z M 15 24 " clip-rule="nonzero"/></clipPath><clipPath id="8ef87bf4cb"><path d="M 4 27 L 6 27 L 6 29.03125 L 4 29.03125 Z M 4 27 " clip-rule="nonzero"/></clipPath><clipPath id="4eb8a9d7d2"><path d="M 15 0 L 29.515625 0 L 29.515625 14 L 15 14 Z M 15 0 " clip-rule="nonzero"/></clipPath><clipPath id="7ba587e350"><path d="M 24 11 L 29.515625 11 L 29.515625 15 L 24 15 Z M 24 11 " clip-rule="nonzero"/></clipPath></defs><path fill="#31ac7d" d="M 6.289062 6.621094 L 7.257812 6.621094 L 7.257812 8.710938 L 6.289062 8.710938 Z M 6.289062 6.621094 " fill-opacity="1" fill-rule="nonzero"/><path fill="#31ac7d" d="M 16.886719 22.890625 L 14.910156 20.917969 C 14.714844 20.722656 14.542969 20.503906 14.402344 20.265625 L 13.699219 19.09375 C 13.4375 18.65625 12.960938 18.386719 12.453125 18.386719 L 10.695312 18.386719 L 10.695312 17.417969 L 12.453125 17.417969 C 13.296875 17.417969 14.09375 17.871094 14.527344 18.59375 L 15.230469 19.765625 C 15.332031 19.9375 15.457031 20.09375 15.597656 20.234375 L 17.570312 22.207031 Z M 16.886719 22.890625 " fill-opacity="1" fill-rule="nonzero"/><g clip-path="url(#ef08879a34)"><path fill="#31ac7d" d="M 7.742188 26.128906 L 2.902344 26.128906 C 1.570312 26.128906 0.484375 25.042969 0.484375 23.710938 C 0.484375 22.375 0.765625 21.046875 1.324219 19.8125 L 1.777344 18.8125 L 2.660156 19.210938 L 2.207031 20.210938 C 1.707031 21.320312 1.453125 22.496094 1.453125 23.710938 C 1.453125 24.511719 2.101562 25.160156 2.902344 25.160156 L 7.742188 25.160156 C 8.277344 25.160156 8.710938 24.726562 8.710938 24.195312 C 8.710938 23.660156 8.277344 23.226562 7.742188 23.226562 L 5.320312 23.226562 L 5.320312 22.257812 L 7.742188 22.257812 C 8.808594 22.257812 9.675781 23.125 9.675781 24.195312 C 9.675781 25.261719 8.808594 26.128906 7.742188 26.128906 Z M 7.742188 26.128906 " fill-opacity="1" fill-rule="nonzero"/></g><path fill="#31ac7d" d="M 13.332031 28.066406 L 3.636719 28.066406 L 3.144531 25.746094 L 4.09375 25.546875 L 4.421875 27.097656 L 12.140625 27.097656 L 10.097656 17.417969 L 2.378906 17.417969 L 3.398438 22.261719 L 5.804688 22.257812 L 5.808594 23.226562 L 2.617188 23.230469 L 1.183594 16.453125 L 10.882812 16.453125 Z M 13.332031 28.066406 " fill-opacity="1" fill-rule="nonzero"/><g clip-path="url(#12c36e6f00)"><path fill="#31ac7d" d="M 15.484375 24.679688 L 16.453125 24.679688 L 16.453125 29.035156 L 15.484375 29.035156 Z M 15.484375 24.679688 " fill-opacity="1" fill-rule="nonzero"/></g><g clip-path="url(#8ef87bf4cb)"><path fill="#31ac7d" d="M 4.355469 27.582031 L 5.324219 27.582031 L 5.324219 29.035156 L 4.355469 29.035156 Z M 4.355469 27.582031 " fill-opacity="1" fill-rule="nonzero"/></g><path fill="#31ac7d" d="M 4.839844 18.386719 L 3.871094 18.386719 L 3.871094 19.355469 L 4.839844 19.355469 Z M 4.839844 18.386719 " fill-opacity="1" fill-rule="nonzero"/><path fill="#31ac7d" d="M 6.773438 18.386719 L 5.808594 18.386719 L 5.808594 19.355469 L 6.773438 19.355469 Z M 6.773438 18.386719 " fill-opacity="1" fill-rule="nonzero"/><path fill="#31ac7d" d="M 10.160156 13.066406 C 8.027344 13.066406 6.289062 11.328125 6.289062 9.195312 L 6.289062 8.226562 L 7.257812 8.226562 L 7.257812 9.195312 C 7.257812 10.796875 8.5625 12.097656 10.160156 12.097656 C 11.761719 12.097656 13.066406 10.796875 13.066406 9.195312 L 13.066406 4.714844 C 13.066406 3.984375 12.46875 3.386719 11.738281 3.386719 C 10.898438 3.386719 10.375 3.535156 9.917969 3.664062 C 9.542969 3.769531 9.1875 3.871094 8.753906 3.871094 C 7.769531 3.871094 7.125 3.472656 6.585938 3.027344 C 6.5625 3.140625 6.539062 3.246094 6.519531 3.34375 C 6.328125 4.199219 6.289062 4.371094 6.289062 4.625 C 6.289062 5.445312 6.773438 6.183594 7.523438 6.511719 L 8.773438 7.054688 L 8.386719 7.945312 L 7.136719 7.398438 C 6.035156 6.917969 5.324219 5.832031 5.324219 4.625 C 5.324219 4.257812 5.375 4.019531 5.574219 3.132812 C 5.636719 2.84375 5.71875 2.484375 5.816406 2.023438 L 5.992188 1.222656 L 6.839844 1.964844 C 7.425781 2.488281 7.890625 2.902344 8.753906 2.902344 C 9.054688 2.902344 9.320312 2.828125 9.652344 2.734375 C 10.148438 2.59375 10.761719 2.417969 11.738281 2.417969 C 13.003906 2.417969 14.03125 3.449219 14.03125 4.714844 L 14.03125 9.195312 C 14.03125 11.328125 12.296875 13.066406 10.160156 13.066406 Z M 10.160156 13.066406 " fill-opacity="1" fill-rule="nonzero"/><path fill="#31ac7d" d="M 3.601562 17.136719 L 2.71875 16.738281 L 2.785156 16.589844 C 3.492188 15.035156 5.046875 14.03125 6.753906 14.03125 L 7.898438 14.03125 L 8.621094 12.222656 L 9.519531 12.582031 L 8.554688 15 L 6.753906 15 C 5.425781 15 4.214844 15.78125 3.667969 16.988281 Z M 3.601562 17.136719 " fill-opacity="1" fill-rule="nonzero"/><path fill="#31ac7d" d="M 18.128906 26.613281 C 17.542969 26.613281 16.992188 26.386719 16.578125 25.972656 L 13.652344 23.046875 C 13.410156 22.804688 13.109375 22.613281 12.789062 22.492188 L 11.277344 21.925781 L 11.617188 21.019531 L 13.128906 21.585938 C 13.578125 21.753906 13.996094 22.023438 14.335938 22.363281 L 17.261719 25.289062 C 17.492188 25.519531 17.800781 25.648438 18.128906 25.648438 C 18.804688 25.648438 19.355469 25.097656 19.355469 24.421875 C 19.355469 24.015625 19.277344 23.621094 19.117188 23.246094 L 16.519531 17.074219 C 15.988281 15.816406 14.765625 15 13.398438 15 L 11.769531 15 L 10.800781 12.582031 L 11.699219 12.222656 L 12.425781 14.03125 L 13.398438 14.03125 C 15.152344 14.03125 16.730469 15.078125 17.410156 16.699219 L 20.011719 22.871094 C 20.21875 23.363281 20.324219 23.882812 20.324219 24.417969 C 20.324219 25.628906 19.339844 26.613281 18.128906 26.613281 Z M 18.128906 26.613281 " fill-opacity="1" fill-rule="nonzero"/><path fill="#31ac7d" d="M 13.160156 17.820312 L 14.988281 16.3125 L 15.601562 17.058594 L 13.777344 18.566406 Z M 13.160156 17.820312 " fill-opacity="1" fill-rule="nonzero"/><g clip-path="url(#4eb8a9d7d2)"><path fill="#31ac7d" d="M 16.800781 13.066406 C 16.578125 13.066406 16.359375 12.976562 16.199219 12.804688 C 15.964844 12.5625 15.902344 12.203125 16.039062 11.894531 L 17.4375 8.75 C 17.105469 7.972656 16.9375 7.148438 16.9375 6.292969 C 16.9375 2.820312 19.757812 0 23.226562 0 C 26.695312 0 29.515625 2.820312 29.515625 6.289062 C 29.515625 9.757812 26.695312 12.582031 23.226562 12.582031 C 22.167969 12.582031 21.132812 12.316406 20.210938 11.8125 L 17.101562 13.007812 C 17.003906 13.046875 16.902344 13.0625 16.800781 13.0625 Z M 23.226562 0.96875 C 20.292969 0.96875 17.902344 3.355469 17.902344 6.289062 C 17.902344 7.078125 18.070312 7.839844 18.402344 8.546875 L 18.496094 8.746094 L 17.058594 11.988281 L 20.296875 10.738281 L 20.496094 10.859375 C 21.320312 11.351562 22.261719 11.613281 23.226562 11.613281 C 26.160156 11.613281 28.550781 9.226562 28.550781 6.289062 C 28.550781 3.355469 26.160156 0.96875 23.226562 0.96875 Z M 23.226562 0.96875 " fill-opacity="1" fill-rule="nonzero"/></g><path fill="#31ac7d" d="M 23.226562 14.515625 C 22.90625 14.515625 22.582031 14.496094 22.265625 14.460938 L 22.375 13.5 C 22.65625 13.53125 22.945312 13.550781 23.226562 13.550781 Z M 23.226562 14.515625 " fill-opacity="1" fill-rule="nonzero"/><g clip-path="url(#7ba587e350)"><path fill="#31ac7d" d="M 24.296875 14.445312 L 24.171875 13.488281 C 25.769531 13.28125 27.269531 12.53125 28.40625 11.375 L 29.09375 12.054688 C 27.8125 13.363281 26.105469 14.210938 24.296875 14.445312 Z M 24.296875 14.445312 " fill-opacity="1" fill-rule="nonzero"/></g><path fill="#31ac7d" d="M 16.03125 5.339844 L 15.070312 5.214844 C 15.308594 3.410156 16.152344 1.710938 17.453125 0.429688 L 18.132812 1.121094 C 16.984375 2.25 16.238281 3.75 16.03125 5.339844 Z M 16.03125 5.339844 " fill-opacity="1" fill-rule="nonzero"/><path fill="#31ac7d" d="M 15.054688 7.238281 C 15.019531 6.925781 15 6.609375 15 6.289062 L 15.96875 6.289062 C 15.96875 6.570312 15.984375 6.851562 16.015625 7.128906 Z M 15.054688 7.238281 " fill-opacity="1" fill-rule="nonzero"/><path fill="#31ac7d" d="M 19.839844 5.804688 L 26.613281 5.804688 L 26.613281 6.773438 L 19.839844 6.773438 Z M 19.839844 5.804688 " fill-opacity="1" fill-rule="nonzero"/><path fill="#31ac7d" d="M 19.839844 3.871094 L 24.679688 3.871094 L 24.679688 4.839844 L 19.839844 4.839844 Z M 19.839844 3.871094 " fill-opacity="1" fill-rule="nonzero"/><path fill="#31ac7d" d="M 19.839844 7.742188 L 24.679688 7.742188 L 24.679688 8.710938 L 19.839844 8.710938 Z M 19.839844 7.742188 " fill-opacity="1" fill-rule="nonzero"/><path fill="#31ac7d" d="M 10.160156 17.417969 C 9.796875 17.417969 9.460938 17.238281 9.257812 16.9375 L 7.824219 14.785156 L 8.628906 14.246094 L 10.0625 16.398438 C 10.121094 16.484375 10.203125 16.484375 10.261719 16.398438 L 11.695312 14.246094 L 12.5 14.785156 L 11.066406 16.9375 C 10.863281 17.238281 10.527344 17.417969 10.164062 17.417969 Z M 10.160156 17.417969 " fill-opacity="1" fill-rule="nonzero"/></svg>