<svg xmlns="http://www.w3.org/2000/svg" xmlns:xlink="http://www.w3.org/1999/xlink" width="40" zoomAndPan="magnify" viewBox="0 0 30 30.000001" height="40" preserveAspectRatio="xMidYMid meet" version="1.0"><defs><clipPath id="a1be7821b5"><path d="M 5 15 L 25 15 L 25 29.03125 L 5 29.03125 Z M 5 15 " clip-rule="nonzero"/></clipPath><clipPath id="8546e262ac"><path d="M 25 9 L 29.515625 9 L 29.515625 22 L 25 22 Z M 25 9 " clip-rule="nonzero"/></clipPath><clipPath id="894fea0782"><path d="M 0.484375 9 L 5 9 L 5 22 L 0.484375 22 Z M 0.484375 9 " clip-rule="nonzero"/></clipPath></defs><path fill="#31ac7d" d="M 20.253906 4.496094 C 19.972656 4.496094 19.699219 4.523438 19.425781 4.578125 C 19.425781 4.5625 19.425781 4.542969 19.425781 4.527344 C 19.425781 2.03125 17.445312 0 15.003906 0 C 12.566406 0 10.582031 2.03125 10.582031 4.527344 C 10.582031 4.542969 10.582031 4.5625 10.582031 4.578125 C 10.304688 4.523438 10.03125 4.496094 9.753906 4.496094 C 7.316406 4.496094 5.332031 6.527344 5.332031 9.023438 C 5.332031 11.519531 7.316406 13.554688 9.753906 13.554688 L 20.257812 13.554688 C 22.699219 13.554688 24.683594 11.519531 24.683594 9.023438 C 24.683594 6.527344 22.699219 4.496094 20.257812 4.496094 Z M 20.253906 12.582031 L 9.75 12.582031 C 7.84375 12.582031 6.296875 10.984375 6.296875 9.019531 C 6.296875 7.054688 7.84375 5.457031 9.75 5.457031 C 10.15625 5.457031 10.5625 5.535156 10.953125 5.683594 C 11.113281 5.75 11.296875 5.71875 11.433594 5.609375 C 11.570312 5.496094 11.632812 5.324219 11.601562 5.152344 C 11.566406 4.929688 11.546875 4.722656 11.546875 4.527344 C 11.546875 2.566406 13.09375 0.96875 15 0.96875 C 16.90625 0.96875 18.453125 2.566406 18.453125 4.527344 C 18.453125 4.726562 18.433594 4.929688 18.398438 5.152344 C 18.367188 5.324219 18.429688 5.496094 18.566406 5.609375 C 18.703125 5.71875 18.886719 5.75 19.046875 5.683594 C 19.4375 5.535156 19.84375 5.457031 20.25 5.457031 C 22.15625 5.457031 23.703125 7.054688 23.703125 9.019531 C 23.703125 10.984375 22.15625 12.582031 20.25 12.582031 Z M 20.253906 12.582031 " fill-opacity="1" fill-rule="nonzero"/><g clip-path="url(#a1be7821b5)"><path fill="#31ac7d" d="M 20.253906 19.980469 C 19.972656 19.980469 19.699219 20.007812 19.425781 20.0625 C 19.425781 20.046875 19.425781 20.027344 19.425781 20.011719 C 19.425781 17.515625 17.445312 15.484375 15.003906 15.484375 C 12.566406 15.484375 10.582031 17.515625 10.582031 20.011719 C 10.582031 20.027344 10.582031 20.046875 10.582031 20.0625 C 10.304688 20.007812 10.03125 19.980469 9.753906 19.980469 C 7.316406 19.980469 5.332031 22.011719 5.332031 24.507812 C 5.332031 27.003906 7.316406 29.035156 9.753906 29.035156 L 20.257812 29.035156 C 22.699219 29.035156 24.683594 27.003906 24.683594 24.507812 C 24.683594 22.011719 22.699219 19.980469 20.257812 19.980469 Z M 20.253906 19.980469 " fill-opacity="1" fill-rule="nonzero"/></g><g clip-path="url(#8546e262ac)"><path fill="#31ac7d" d="M 28.066406 20.324219 L 26.992188 20.324219 C 28.625 18.796875 29.515625 16.972656 29.515625 15.085938 C 29.515625 13.199219 28.625 11.347656 26.941406 9.804688 C 26.742188 9.625 26.4375 9.640625 26.257812 9.832031 C 26.082031 10.03125 26.089844 10.335938 26.289062 10.515625 C 27.769531 11.871094 28.554688 13.453125 28.554688 15.085938 C 28.554688 16.722656 27.703125 18.421875 26.132812 19.796875 L 26.132812 18.382812 C 26.132812 18.117188 25.917969 17.898438 25.648438 17.898438 C 25.382812 17.898438 25.167969 18.117188 25.167969 18.382812 L 25.167969 20.800781 C 25.167969 20.800781 25.175781 20.835938 25.175781 20.855469 C 25.175781 20.890625 25.183594 20.917969 25.195312 20.953125 C 25.203125 20.984375 25.21875 21.015625 25.234375 21.042969 C 25.242188 21.058594 25.242188 21.078125 25.253906 21.09375 C 25.257812 21.101562 25.273438 21.101562 25.277344 21.109375 C 25.3125 21.148438 25.351562 21.183594 25.394531 21.214844 C 25.40625 21.222656 25.421875 21.238281 25.441406 21.246094 C 25.503906 21.277344 25.574219 21.296875 25.644531 21.296875 L 28.066406 21.296875 C 28.332031 21.296875 28.546875 21.078125 28.546875 20.8125 C 28.546875 20.546875 28.332031 20.328125 28.066406 20.328125 Z M 28.066406 20.324219 " fill-opacity="1" fill-rule="nonzero"/></g><g clip-path="url(#894fea0782)"><path fill="#31ac7d" d="M 4.355469 17.902344 C 4.089844 17.902344 3.871094 18.121094 3.871094 18.386719 L 3.871094 19.800781 C 2.304688 18.421875 1.453125 16.777344 1.453125 15.09375 C 1.453125 13.40625 2.234375 11.875 3.714844 10.519531 C 3.914062 10.339844 3.929688 10.035156 3.746094 9.835938 C 3.566406 9.640625 3.257812 9.625 3.0625 9.808594 C 1.378906 11.351562 0.488281 13.179688 0.488281 15.09375 C 0.488281 17.003906 1.378906 18.796875 3.015625 20.328125 L 1.941406 20.328125 C 1.675781 20.328125 1.457031 20.546875 1.457031 20.8125 C 1.457031 21.078125 1.675781 21.296875 1.941406 21.296875 L 4.359375 21.296875 C 4.433594 21.296875 4.5 21.277344 4.5625 21.246094 C 4.582031 21.238281 4.59375 21.226562 4.609375 21.214844 C 4.65625 21.183594 4.695312 21.15625 4.726562 21.109375 C 4.730469 21.101562 4.746094 21.101562 4.75 21.09375 C 4.761719 21.078125 4.765625 21.058594 4.769531 21.042969 C 4.785156 21.015625 4.800781 20.984375 4.808594 20.953125 C 4.820312 20.917969 4.824219 20.890625 4.828125 20.855469 C 4.828125 20.835938 4.839844 20.820312 4.839844 20.800781 L 4.839844 18.382812 C 4.839844 18.117188 4.621094 17.898438 4.355469 17.898438 Z M 4.355469 17.902344 " fill-opacity="1" fill-rule="nonzero"/></g></svg>