<svg xmlns="http://www.w3.org/2000/svg" xmlns:xlink="http://www.w3.org/1999/xlink" width="40" zoomAndPan="magnify" viewBox="0 0 30 30.000001" height="40" preserveAspectRatio="xMidYMid meet" version="1.0"><path fill="#31ac7d" d="M 22.328125 17.039062 L 22.328125 16.800781 C 23.863281 16.179688 25.039062 14.90625 25.527344 13.316406 C 26.792969 13.492188 27.621094 11.824219 26.796875 10.851562 C 27.875 9.285156 28.070312 7.460938 27.273438 6.238281 C 26.710938 5.382812 25.785156 5.023438 25.21875 4.878906 C 21.367188 0.00390625 14.828125 3.15625 16.105469 9.183594 C 15.898438 9.3125 15.765625 9.523438 15.71875 9.761719 L 15.378906 11.667969 C 15.285156 12.132812 15.625 12.617188 16.089844 12.6875 C 16.089844 12.6875 16.574219 12.777344 16.574219 12.777344 C 16.800781 14.445312 17.792969 15.921875 19.238281 16.761719 L 19.238281 17.039062 C 16.539062 16.929688 14.980469 18.855469 13.433594 20.742188 C 13.433594 20.742188 11.296875 23.179688 11.296875 23.179688 L 10.289062 22.226562 C 10.460938 22 10.394531 21.652344 10.144531 21.503906 L 9.773438 21.265625 C 9.683594 19.460938 8.539062 17.90625 6.945312 17.445312 C 5.652344 17.074219 3.816406 17.355469 2.964844 18.605469 C 1.894531 20.257812 2.671875 21.742188 4.605469 21.789062 C 5.378906 22.457031 6.25 23.023438 7.171875 23.46875 L 7.539062 24.003906 C 7.652344 24.167969 7.863281 24.261719 8.0625 24.21875 L 10.152344 26.742188 C 10.714844 27.410156 11.683594 27.515625 12.363281 26.980469 C 13.117188 26.390625 13.894531 25.839844 14.746094 25.25 C 15.109375 25.476562 15.558594 25.582031 16.058594 25.554688 L 16.058594 28.519531 C 16.058594 28.683594 16.191406 28.820312 16.359375 28.820312 L 18.179688 28.820312 C 18.375 28.8125 21.246094 28.8125 23.613281 28.8125 C 24.378906 29.03125 25.234375 28.652344 25.613281 27.949219 C 26.164062 26.933594 26.101562 27.144531 26.292969 26.667969 C 27.066406 24.808594 28.101562 22.917969 27.550781 20.816406 C 26.992188 18.53125 24.6875 16.9375 22.328125 17.039062 Z M 25.066406 12.671875 L 23.71875 12.761719 L 23.929688 11.585938 L 25.183594 12.050781 Z M 22.511719 10.683594 L 23.167969 10.796875 C 23.316406 10.824219 23.425781 10.972656 23.398438 11.121094 L 23.058594 13.027344 C 23.054688 13.070312 23.039062 13.105469 23.019531 13.132812 C 22.957031 13.226562 22.847656 13.265625 22.734375 13.25 L 22.082031 13.136719 C 22.121094 13.054688 22.15625 12.96875 22.171875 12.875 C 22.1875 12.6875 22.574219 10.824219 22.511719 10.683594 Z M 23.269531 10.203125 L 19.714844 9.570312 C 20.601562 8.464844 21.535156 8.40625 23.414062 8.929688 C 23.667969 9.148438 23.914062 9.378906 24.121094 9.632812 C 24.441406 10.019531 24.710938 10.453125 24.910156 10.914062 C 24.941406 10.988281 25.027344 11.34375 25.074219 11.359375 C 25.074219 11.359375 23.992188 10.957031 23.992188 10.957031 C 23.988281 10.957031 23.960938 10.808594 23.953125 10.785156 C 23.847656 10.492188 23.585938 10.261719 23.269531 10.203125 Z M 26.507812 11.976562 C 26.429688 12.425781 26.066406 12.738281 25.667969 12.726562 L 25.800781 12.007812 C 26.023438 11.808594 26.226562 11.589844 26.414062 11.367188 C 26.515625 11.542969 26.550781 11.761719 26.507812 11.976562 Z M 24.792969 5.320312 C 24.832031 5.382812 24.898438 5.425781 24.96875 5.441406 C 25.429688 5.550781 26.28125 5.835938 26.761719 6.574219 C 27.457031 7.636719 27.214844 9.296875 26.15625 10.710938 C 26.015625 10.90625 25.855469 11.101562 25.679688 11.277344 C 25.3125 10.132812 24.648438 9.054688 23.636719 8.367188 C 21.960938 7.847656 20.703125 7.898438 19.90625 8.519531 C 19.507812 8.816406 19.367188 9.125 18.9375 9.4375 C 18.9375 9.4375 16.730469 9.042969 16.730469 9.042969 C 16.707031 9.039062 16.695312 9.039062 16.671875 9.035156 C 15.535156 3.59375 21.394531 0.859375 24.792969 5.320312 Z M 16.199219 12.097656 C 16.125 12.082031 16.066406 12.042969 16.019531 11.980469 C 15.976562 11.921875 15.960938 11.847656 15.972656 11.777344 L 16.3125 9.867188 C 16.332031 9.722656 16.492188 9.617188 16.632812 9.640625 C 17.878906 9.863281 20.429688 10.316406 21.6875 10.539062 C 21.832031 10.566406 21.941406 10.710938 21.914062 10.859375 L 21.574219 12.765625 C 21.550781 12.914062 21.410156 13.011719 21.261719 12.992188 L 18.101562 12.4375 Z M 17.199219 12.890625 C 17.910156 13.011719 20.390625 13.457031 21.148438 13.589844 L 22.621094 13.855469 C 22.992188 13.921875 23.40625 13.71875 23.566406 13.378906 L 24.894531 13.292969 C 24.410156 14.699219 23.324219 15.8125 21.910156 16.324219 C 19.648438 17.285156 17.570312 14.984375 17.199219 12.890625 Z M 21.714844 17.414062 C 21.6875 17.921875 21.253906 18.324219 20.75 18.300781 C 20.234375 18.285156 19.84375 17.847656 19.84375 17.34375 C 19.84375 17.34375 19.84375 17.042969 19.84375 17.042969 C 20.121094 17.121094 20.410156 17.171875 20.699219 17.171875 C 21.035156 17.171875 21.390625 17.105469 21.71875 17.015625 C 21.726562 17.050781 21.726562 17.386719 21.714844 17.414062 Z M 7.335938 22.886719 C 6.671875 22.554688 6.046875 22.164062 5.464844 21.714844 C 5.847656 21.644531 7.332031 21.117188 6.941406 20.585938 C 6.832031 20.457031 6.640625 20.445312 6.515625 20.554688 C 6.273438 20.765625 6 20.925781 5.703125 21.03125 C 4.957031 21.296875 3.796875 21.265625 3.265625 20.664062 C 2.945312 20.292969 3.109375 19.484375 3.46875 18.953125 C 4.136719 17.972656 5.683594 17.714844 6.785156 18.03125 C 8.136719 18.414062 9.105469 19.75 9.183594 21.308594 C 8.832031 21.601562 7.667969 22.601562 7.335938 22.886719 Z M 7.992188 23.597656 L 7.785156 23.292969 L 8.578125 22.605469 L 9.507812 21.808594 L 9.722656 21.941406 C 9.160156 22.476562 8.554688 23.066406 7.992188 23.597656 Z M 15.039062 24.726562 C 14.636719 24.453125 14.589844 23.628906 14.796875 23.023438 C 15.183594 21.925781 16.570312 21.28125 17.707031 21.28125 C 19.136719 21.28125 20.441406 22.332031 20.925781 23.839844 L 19.554688 25.835938 C 18.828125 25.691406 18.121094 25.46875 17.441406 25.179688 C 17.894531 24.96875 19.085938 24.082031 18.570312 23.703125 C 18.429688 23.613281 18.246094 23.652344 18.152344 23.792969 C 17.589844 24.644531 16.125 25.355469 15.039062 24.726562 Z M 21.378906 24.246094 L 21.621094 24.324219 L 20.367188 26.359375 L 20.089844 26.121094 Z M 18.1875 28.230469 L 16.671875 28.222656 L 16.671875 25.5 C 17.578125 25.9375 18.554688 26.261719 19.550781 26.449219 C 19.832031 26.660156 20.171875 27.148438 20.585938 26.957031 L 22.539062 28.214844 C 22.242188 28.222656 18.367188 28.207031 18.1875 28.230469 Z M 26.058594 25.71875 C 25.679688 26.605469 25.734375 26.554688 25.101562 27.664062 C 24.769531 28.273438 24.011719 28.449219 23.441406 28.082031 C 23.441406 28.082031 20.988281 26.5 20.988281 26.5 L 21.941406 24.957031 L 23.46875 25.457031 C 23.558594 25.488281 23.667969 25.472656 23.746094 25.410156 C 23.824219 25.347656 23.871094 25.257812 23.863281 25.152344 C 23.839844 24.742188 23.875 24.332031 23.972656 23.9375 C 24.070312 23.53125 24.230469 23.144531 24.441406 22.78125 C 24.527344 22.636719 24.476562 22.453125 24.339844 22.371094 C 24.195312 22.28125 24.007812 22.328125 23.925781 22.472656 C 23.511719 23.164062 23.28125 23.957031 23.261719 24.757812 L 22.261719 24.425781 C 22.355469 24.167969 22.199219 23.863281 21.929688 23.789062 L 21.507812 23.652344 C 20.945312 21.90625 19.410156 20.683594 17.722656 20.683594 C 15.601562 20.644531 13.28125 22.550781 14.34375 24.820312 C 13.519531 25.394531 12.753906 25.933594 12.011719 26.515625 C 11.589844 26.851562 10.988281 26.78125 10.636719 26.363281 L 8.578125 23.886719 C 8.933594 23.546875 9.507812 23 9.875 22.652344 L 11.121094 23.832031 C 11.238281 23.953125 11.445312 23.941406 11.554688 23.8125 L 13.898438 21.136719 C 15.335938 19.40625 16.777344 17.515625 19.277344 17.644531 C 19.621094 19.3125 21.941406 19.296875 22.296875 17.644531 C 22.847656 17.632812 23.40625 17.695312 23.929688 17.855469 C 25.398438 18.292969 26.601562 19.519531 26.988281 20.984375 C 27.410156 22.601562 26.726562 24.191406 26.058594 25.71875 Z M 26.058594 25.71875 " fill-opacity="1" fill-rule="nonzero"/></svg>