<svg xmlns="http://www.w3.org/2000/svg" xmlns:xlink="http://www.w3.org/1999/xlink" width="40" zoomAndPan="magnify" viewBox="0 0 30 30.000001" height="40" preserveAspectRatio="xMidYMid meet" version="1.0"><defs><clipPath id="6d1360469d"><path d="M 0.484375 2.050781 L 29.515625 2.050781 L 29.515625 22 L 0.484375 22 Z M 0.484375 2.050781 " clip-rule="nonzero"/></clipPath><clipPath id="1ef5ca163d"><path d="M 9 22 L 19 22 L 19 26.726562 L 9 26.726562 Z M 9 22 " clip-rule="nonzero"/></clipPath><clipPath id="942487df28"><path d="M 19 11 L 29.515625 11 L 29.515625 26.726562 L 19 26.726562 Z M 19 11 " clip-rule="nonzero"/></clipPath></defs><g clip-path="url(#6d1360469d)"><path fill="#31ac7d" d="M 17.492188 21.539062 L 4.347656 21.539062 C 2.226562 21.539062 0.496094 19.8125 0.496094 17.6875 L 0.496094 5.902344 C 0.496094 3.777344 2.226562 2.050781 4.347656 2.050781 L 25.652344 2.050781 C 27.773438 2.050781 29.503906 3.777344 29.503906 5.902344 L 29.503906 9.753906 C 29.503906 10.003906 29.300781 10.207031 29.050781 10.207031 C 28.800781 10.207031 28.597656 10.003906 28.597656 9.753906 L 28.597656 5.902344 C 28.597656 4.277344 27.273438 2.957031 25.652344 2.957031 L 4.347656 2.957031 C 2.726562 2.957031 1.402344 4.277344 1.402344 5.902344 L 1.402344 17.6875 C 1.402344 19.3125 2.726562 20.632812 4.347656 20.632812 L 17.492188 20.632812 C 17.742188 20.632812 17.945312 20.835938 17.945312 21.085938 C 17.945312 21.335938 17.742188 21.539062 17.492188 21.539062 Z M 17.492188 21.539062 " fill-opacity="1" fill-rule="nonzero"/></g><g clip-path="url(#1ef5ca163d)"><path fill="#31ac7d" d="M 18.015625 26.976562 L 11.53125 26.976562 C 10.941406 26.976562 10.390625 26.683594 10.0625 26.1875 C 9.734375 25.695312 9.671875 25.074219 9.902344 24.53125 L 10.75 22.496094 C 10.847656 22.265625 11.113281 22.15625 11.34375 22.253906 C 11.574219 22.351562 11.683594 22.617188 11.585938 22.847656 L 10.738281 24.878906 C 10.625 25.148438 10.652344 25.445312 10.816406 25.6875 C 10.976562 25.929688 11.238281 26.070312 11.53125 26.070312 L 18.015625 26.070312 C 18.265625 26.070312 18.46875 26.273438 18.46875 26.523438 C 18.46875 26.773438 18.265625 26.976562 18.015625 26.976562 Z M 18.015625 26.976562 " fill-opacity="1" fill-rule="nonzero"/></g><g clip-path="url(#942487df28)"><path fill="#31ac7d" d="M 27.238281 26.976562 L 21.34375 26.976562 C 20.09375 26.976562 19.078125 25.960938 19.078125 24.710938 L 19.078125 19.273438 C 19.078125 19.023438 19.28125 18.820312 19.53125 18.820312 C 19.78125 18.820312 19.984375 19.023438 19.984375 19.273438 L 19.984375 24.710938 C 19.984375 25.460938 20.59375 26.070312 21.34375 26.070312 L 27.238281 26.070312 C 27.988281 26.070312 28.597656 25.460938 28.597656 24.710938 L 28.597656 13.382812 C 28.597656 12.632812 27.988281 12.019531 27.238281 12.019531 L 20.890625 12.019531 C 20.640625 12.019531 20.4375 11.816406 20.4375 11.566406 C 20.4375 11.316406 20.640625 11.113281 20.890625 11.113281 L 27.238281 11.113281 C 28.488281 11.113281 29.503906 12.132812 29.503906 13.382812 L 29.503906 24.710938 C 29.503906 25.960938 28.484375 26.976562 27.238281 26.976562 Z M 27.238281 26.976562 " fill-opacity="1" fill-rule="nonzero"/></g><path fill="#31ac7d" d="M 27.011719 25.164062 L 21.570312 25.164062 C 21.320312 25.164062 21.117188 24.960938 21.117188 24.710938 C 21.117188 24.460938 21.320312 24.257812 21.570312 24.257812 L 27.011719 24.257812 C 27.261719 24.257812 27.464844 24.460938 27.464844 24.710938 C 27.464844 24.960938 27.261719 25.164062 27.011719 25.164062 Z M 27.011719 25.164062 " fill-opacity="1" fill-rule="nonzero"/><path fill="#31ac7d" d="M 15.453125 19.5 C 12.953125 19.5 10.921875 17.464844 10.921875 14.96875 C 10.921875 12.46875 12.953125 10.433594 15.453125 10.433594 C 17.953125 10.433594 19.984375 12.46875 19.984375 14.96875 C 19.984375 17.464844 17.953125 19.5 15.453125 19.5 Z M 15.453125 11.339844 C 13.453125 11.339844 11.828125 12.96875 11.828125 14.96875 C 11.828125 16.964844 13.453125 18.59375 15.453125 18.59375 C 17.453125 18.59375 19.078125 16.964844 19.078125 14.96875 C 19.078125 12.96875 17.453125 11.339844 15.453125 11.339844 Z M 15.453125 11.339844 " fill-opacity="1" fill-rule="nonzero"/><path fill="#31ac7d" d="M 14.886719 16.894531 C 14.765625 16.894531 14.652344 16.84375 14.566406 16.761719 L 13.320312 15.515625 C 13.144531 15.335938 13.144531 15.050781 13.320312 14.875 C 13.496094 14.695312 13.785156 14.695312 13.960938 14.875 L 14.886719 15.800781 L 17.171875 13.515625 C 17.347656 13.335938 17.636719 13.335938 17.8125 13.515625 C 17.988281 13.691406 17.988281 13.976562 17.8125 14.15625 L 15.207031 16.761719 C 15.121094 16.84375 15.007812 16.894531 14.886719 16.894531 Z M 14.886719 16.894531 " fill-opacity="1" fill-rule="nonzero"/><path fill="#31ac7d" d="M 24.292969 18.59375 C 24.039062 18.59375 23.835938 18.390625 23.835938 18.140625 L 23.835938 16.101562 C 23.835938 15.726562 23.53125 15.421875 23.15625 15.421875 L 19.53125 15.421875 C 19.28125 15.421875 19.078125 15.21875 19.078125 14.96875 C 19.078125 14.71875 19.28125 14.515625 19.53125 14.515625 L 23.15625 14.515625 C 24.03125 14.515625 24.746094 15.226562 24.746094 16.101562 L 24.746094 18.140625 C 24.746094 18.390625 24.542969 18.59375 24.292969 18.59375 Z M 24.292969 18.59375 " fill-opacity="1" fill-rule="nonzero"/><path fill="#31ac7d" d="M 24.292969 21.3125 C 23.292969 21.3125 22.476562 20.5 22.476562 19.5 C 22.476562 18.5 23.292969 17.6875 24.292969 17.6875 C 25.289062 17.6875 26.105469 18.5 26.105469 19.5 C 26.105469 20.5 25.289062 21.3125 24.292969 21.3125 Z M 24.292969 18.59375 C 23.792969 18.59375 23.382812 19 23.382812 19.5 C 23.382812 20 23.792969 20.40625 24.292969 20.40625 C 24.789062 20.40625 25.199219 20 25.199219 19.5 C 25.199219 19 24.789062 18.59375 24.292969 18.59375 Z M 24.292969 18.59375 " fill-opacity="1" fill-rule="nonzero"/><path fill="#31ac7d" d="M 11.375 15.421875 L 7.75 15.421875 C 6.875 15.421875 6.164062 14.707031 6.164062 13.835938 L 6.164062 11.792969 C 6.164062 11.542969 6.367188 11.339844 6.617188 11.339844 C 6.867188 11.339844 7.070312 11.542969 7.070312 11.792969 L 7.070312 13.835938 C 7.070312 14.207031 7.375 14.515625 7.75 14.515625 L 11.375 14.515625 C 11.625 14.515625 11.828125 14.71875 11.828125 14.96875 C 11.828125 15.21875 11.625 15.421875 11.375 15.421875 Z M 11.375 15.421875 " fill-opacity="1" fill-rule="nonzero"/><path fill="#31ac7d" d="M 6.617188 12.246094 C 5.617188 12.246094 4.800781 11.433594 4.800781 10.433594 C 4.800781 9.433594 5.617188 8.621094 6.617188 8.621094 C 7.613281 8.621094 8.429688 9.433594 8.429688 10.433594 C 8.429688 11.433594 7.613281 12.246094 6.617188 12.246094 Z M 6.617188 9.527344 C 6.117188 9.527344 5.707031 9.933594 5.707031 10.433594 C 5.707031 10.933594 6.117188 11.339844 6.617188 11.339844 C 7.117188 11.339844 7.523438 10.933594 7.523438 10.433594 C 7.523438 9.933594 7.117188 9.527344 6.617188 9.527344 Z M 6.617188 9.527344 " fill-opacity="1" fill-rule="nonzero"/></svg>