<svg xmlns="http://www.w3.org/2000/svg" xmlns:xlink="http://www.w3.org/1999/xlink" width="40" zoomAndPan="magnify" viewBox="0 0 30 30.000001" height="40" preserveAspectRatio="xMidYMid meet" version="1.0"><defs><clipPath id="7828c02d36"><path d="M 6.835938 0 L 23.527344 0 L 23.527344 13 L 6.835938 13 Z M 6.835938 0 " clip-rule="nonzero"/></clipPath><clipPath id="01593b6aa9"><path d="M 6.835938 16 L 23.527344 16 L 23.527344 29.03125 L 6.835938 29.03125 Z M 6.835938 16 " clip-rule="nonzero"/></clipPath><clipPath id="2e4791a1c9"><path d="M 6.835938 6 L 23.527344 6 L 23.527344 23 L 6.835938 23 Z M 6.835938 6 " clip-rule="nonzero"/></clipPath></defs><path fill="#31ac7d" d="M 13.183594 27.21875 L 16.816406 27.21875 C 17.066406 27.21875 17.269531 27.015625 17.269531 26.765625 C 17.269531 26.511719 17.066406 26.308594 16.816406 26.308594 L 13.183594 26.308594 C 12.933594 26.308594 12.730469 26.511719 12.730469 26.765625 C 12.730469 27.015625 12.933594 27.21875 13.183594 27.21875 Z M 13.183594 27.21875 " fill-opacity="1" fill-rule="nonzero"/><path fill="#31ac7d" d="M 13.640625 2.269531 C 13.640625 2.394531 13.59375 2.5 13.507812 2.589844 C 13.417969 2.675781 13.3125 2.722656 13.183594 2.722656 C 13.058594 2.722656 12.953125 2.675781 12.863281 2.589844 C 12.777344 2.5 12.730469 2.394531 12.730469 2.269531 C 12.730469 2.144531 12.777344 2.035156 12.863281 1.949219 C 12.953125 1.859375 13.058594 1.816406 13.183594 1.816406 C 13.3125 1.816406 13.417969 1.859375 13.507812 1.949219 C 13.59375 2.035156 13.640625 2.144531 13.640625 2.269531 Z M 13.640625 2.269531 " fill-opacity="1" fill-rule="nonzero"/><path fill="#31ac7d" d="M 15.453125 2.269531 C 15.453125 2.394531 15.410156 2.5 15.320312 2.589844 C 15.230469 2.675781 15.125 2.722656 15 2.722656 C 14.875 2.722656 14.769531 2.675781 14.679688 2.589844 C 14.589844 2.5 14.546875 2.394531 14.546875 2.269531 C 14.546875 2.144531 14.589844 2.035156 14.679688 1.949219 C 14.769531 1.859375 14.875 1.816406 15 1.816406 C 15.125 1.816406 15.230469 1.859375 15.320312 1.949219 C 15.410156 2.035156 15.453125 2.144531 15.453125 2.269531 Z M 15.453125 2.269531 " fill-opacity="1" fill-rule="nonzero"/><path fill="#31ac7d" d="M 17.269531 2.269531 C 17.269531 2.394531 17.222656 2.5 17.136719 2.589844 C 17.046875 2.675781 16.941406 2.722656 16.816406 2.722656 C 16.6875 2.722656 16.582031 2.675781 16.492188 2.589844 C 16.40625 2.5 16.359375 2.394531 16.359375 2.269531 C 16.359375 2.144531 16.40625 2.035156 16.492188 1.949219 C 16.582031 1.859375 16.6875 1.816406 16.816406 1.816406 C 16.941406 1.816406 17.046875 1.859375 17.136719 1.949219 C 17.222656 2.035156 17.269531 2.144531 17.269531 2.269531 Z M 17.269531 2.269531 " fill-opacity="1" fill-rule="nonzero"/><g clip-path="url(#7828c02d36)"><path fill="#31ac7d" d="M 23.164062 1.816406 C 23.164062 0.8125 22.359375 0 21.367188 0 L 8.632812 0 C 7.640625 0 6.835938 0.8125 6.835938 1.816406 L 6.835938 12.585938 C 7.101562 12.425781 7.410156 12.332031 7.742188 12.316406 L 7.742188 4.535156 L 22.257812 4.535156 L 22.257812 12.316406 C 22.589844 12.332031 22.898438 12.425781 23.164062 12.585938 Z M 22.257812 3.628906 L 7.742188 3.628906 L 7.742188 1.816406 C 7.742188 1.3125 8.140625 0.90625 8.632812 0.90625 L 21.367188 0.90625 C 21.859375 0.90625 22.257812 1.3125 22.257812 1.816406 Z M 22.257812 3.628906 " fill-opacity="1" fill-rule="nonzero"/></g><g clip-path="url(#01593b6aa9)"><path fill="#31ac7d" d="M 6.835938 16.445312 L 6.835938 27.21875 C 6.835938 28.21875 7.640625 29.03125 8.632812 29.03125 L 21.367188 29.03125 C 22.359375 29.03125 23.164062 28.21875 23.164062 27.21875 L 23.164062 16.445312 C 22.898438 16.605469 22.589844 16.703125 22.257812 16.714844 L 22.257812 24.496094 L 7.742188 24.496094 L 7.742188 16.714844 C 7.410156 16.703125 7.101562 16.605469 6.835938 16.445312 Z M 22.257812 25.402344 L 22.257812 27.21875 C 22.257812 27.71875 21.859375 28.125 21.367188 28.125 L 8.632812 28.125 C 8.140625 28.125 7.742188 27.71875 7.742188 27.21875 L 7.742188 25.402344 Z M 22.257812 25.402344 " fill-opacity="1" fill-rule="nonzero"/></g><path fill="#31ac7d" d="M 15 10.886719 C 12.996094 10.886719 11.371094 12.511719 11.371094 14.515625 C 11.371094 16.519531 12.996094 18.144531 15 18.144531 C 17.003906 18.144531 18.628906 16.519531 18.628906 14.515625 C 18.628906 12.511719 17.003906 10.886719 15 10.886719 Z M 15 17.238281 C 13.5 17.238281 12.277344 16.015625 12.277344 14.515625 C 12.277344 13.015625 13.5 11.792969 15 11.792969 C 16.5 11.792969 17.722656 13.015625 17.722656 14.515625 C 17.722656 16.015625 16.5 17.238281 15 17.238281 Z M 15 17.238281 " fill-opacity="1" fill-rule="nonzero"/><g clip-path="url(#2e4791a1c9)"><path fill="#31ac7d" d="M 23.164062 14.0625 C 23.164062 13.5625 22.804688 13.15625 22.359375 13.15625 L 21.203125 13.15625 C 21.039062 12.410156 20.746094 11.714844 20.347656 11.09375 L 21.164062 10.273438 C 21.480469 9.960938 21.449219 9.417969 21.09375 9.0625 L 20.453125 8.421875 C 20.261719 8.230469 20.015625 8.132812 19.78125 8.132812 C 19.582031 8.132812 19.386719 8.203125 19.242188 8.351562 L 18.421875 9.167969 C 17.800781 8.769531 17.105469 8.476562 16.359375 8.3125 L 16.359375 7.15625 C 16.359375 6.710938 15.953125 6.351562 15.453125 6.351562 L 14.546875 6.351562 C 14.046875 6.351562 13.640625 6.710938 13.640625 7.15625 L 13.640625 8.3125 C 12.894531 8.476562 12.199219 8.769531 11.578125 9.167969 L 10.757812 8.351562 C 10.613281 8.203125 10.417969 8.132812 10.21875 8.132812 C 9.984375 8.132812 9.738281 8.230469 9.546875 8.421875 L 8.90625 9.0625 C 8.550781 9.417969 8.519531 9.960938 8.835938 10.273438 L 9.652344 11.09375 C 9.253906 11.714844 8.960938 12.410156 8.796875 13.15625 L 7.640625 13.15625 C 7.195312 13.15625 6.835938 13.5625 6.835938 14.0625 L 6.835938 14.96875 C 6.835938 15.472656 7.195312 15.878906 7.640625 15.878906 L 8.796875 15.878906 C 8.960938 16.621094 9.253906 17.316406 9.652344 17.9375 L 8.835938 18.757812 C 8.519531 19.074219 8.550781 19.613281 8.90625 19.96875 L 9.546875 20.609375 C 9.738281 20.800781 9.984375 20.898438 10.21875 20.898438 C 10.417969 20.898438 10.613281 20.828125 10.757812 20.683594 L 11.578125 19.863281 C 12.199219 20.261719 12.894531 20.554688 13.640625 20.71875 L 13.640625 21.875 C 13.640625 22.320312 14.046875 22.679688 14.546875 22.679688 L 15.453125 22.679688 C 15.953125 22.679688 16.359375 22.320312 16.359375 21.875 L 16.359375 20.71875 C 17.105469 20.554688 17.800781 20.261719 18.421875 19.863281 L 19.242188 20.683594 C 19.386719 20.828125 19.582031 20.898438 19.78125 20.898438 C 20.015625 20.898438 20.261719 20.800781 20.453125 20.609375 L 21.09375 19.96875 C 21.449219 19.613281 21.480469 19.074219 21.164062 18.757812 L 20.347656 17.9375 C 20.746094 17.316406 21.039062 16.621094 21.203125 15.878906 L 22.359375 15.878906 C 22.804688 15.878906 23.164062 15.472656 23.164062 14.96875 Z M 22.257812 14.96875 L 20.472656 14.96875 L 20.316406 15.683594 C 20.179688 16.3125 19.933594 16.90625 19.585938 17.449219 L 19.191406 18.066406 L 20.453125 19.328125 L 19.8125 19.96875 L 19.066406 19.222656 L 18.546875 18.707031 L 17.933594 19.101562 C 17.390625 19.449219 16.796875 19.695312 16.167969 19.832031 L 15.453125 19.988281 L 15.453125 21.773438 L 14.546875 21.773438 L 14.546875 19.988281 L 13.832031 19.832031 C 13.203125 19.695312 12.609375 19.449219 12.066406 19.101562 L 11.453125 18.707031 L 10.933594 19.222656 L 10.1875 19.96875 L 9.546875 19.328125 L 10.808594 18.066406 L 10.414062 17.449219 C 10.066406 16.90625 9.820312 16.3125 9.683594 15.683594 L 9.527344 14.96875 L 7.742188 14.96875 L 7.742188 14.0625 L 9.527344 14.0625 L 9.683594 13.347656 C 9.820312 12.722656 10.066406 12.125 10.414062 11.582031 L 10.808594 10.96875 L 10.292969 10.453125 L 9.546875 9.703125 L 10.1875 9.0625 L 11.453125 10.328125 L 12.066406 9.933594 C 12.609375 9.582031 13.203125 9.335938 13.832031 9.199219 L 14.546875 9.042969 L 14.546875 7.257812 L 15.453125 7.257812 L 15.453125 9.042969 L 16.167969 9.199219 C 16.796875 9.335938 17.390625 9.582031 17.933594 9.933594 L 18.546875 10.328125 L 19.8125 9.0625 L 20.453125 9.703125 L 19.707031 10.453125 L 19.191406 10.96875 L 19.585938 11.582031 C 19.933594 12.125 20.179688 12.722656 20.316406 13.347656 L 20.472656 14.0625 L 22.257812 14.0625 Z M 22.257812 14.96875 " fill-opacity="1" fill-rule="nonzero"/></g></svg>