<svg xmlns="http://www.w3.org/2000/svg" xmlns:xlink="http://www.w3.org/1999/xlink" width="40" zoomAndPan="magnify" viewBox="0 0 30 30.000001" height="40" preserveAspectRatio="xMidYMid meet" version="1.0"><defs><clipPath id="21b3376ace"><path d="M 0.484375 0 L 29.515625 0 L 29.515625 29.03125 L 0.484375 29.03125 Z M 0.484375 0 " clip-rule="nonzero"/></clipPath></defs><g clip-path="url(#21b3376ace)"><path fill="#31ac7d" d="M 29.453125 10.574219 C 29.125 9.3125 27.191406 6.367188 26.96875 6.039062 C 26.875 5.894531 26.742188 5.820312 26.570312 5.820312 L 16.90625 5.820312 L 16.90625 1.472656 C 16.90625 1.28125 16.871094 1.097656 16.796875 0.917969 C 16.722656 0.742188 16.617188 0.585938 16.480469 0.449219 C 16.347656 0.3125 16.191406 0.210938 16.011719 0.136719 C 15.835938 0.0625 15.652344 0.0234375 15.457031 0.0234375 L 1.933594 0.0234375 C 1.742188 0.0234375 1.554688 0.0625 1.378906 0.136719 C 1.203125 0.210938 1.046875 0.3125 0.910156 0.449219 C 0.773438 0.585938 0.667969 0.742188 0.59375 0.917969 C 0.523438 1.097656 0.484375 1.28125 0.484375 1.472656 L 0.484375 27.558594 C 0.484375 27.75 0.523438 27.9375 0.59375 28.113281 C 0.667969 28.289062 0.773438 28.445312 0.910156 28.582031 C 1.046875 28.71875 1.203125 28.824219 1.378906 28.898438 C 1.554688 28.96875 1.742188 29.007812 1.933594 29.007812 L 15.457031 29.007812 C 15.652344 29.007812 15.835938 28.96875 16.011719 28.898438 C 16.191406 28.824219 16.347656 28.71875 16.480469 28.582031 C 16.617188 28.445312 16.722656 28.289062 16.796875 28.113281 C 16.871094 27.9375 16.90625 27.75 16.90625 27.558594 L 16.90625 22.726562 L 26.570312 22.726562 C 26.761719 22.726562 26.945312 22.691406 27.125 22.617188 C 27.300781 22.542969 27.457031 22.4375 27.59375 22.300781 C 27.730469 22.167969 27.832031 22.011719 27.90625 21.832031 C 27.980469 21.65625 28.019531 21.472656 28.019531 21.277344 L 28.019531 13.894531 C 28.878906 13.628906 29.453125 13.015625 29.46875 12.3125 C 29.53125 11.734375 29.527344 11.152344 29.453125 10.574219 Z M 9.664062 27.074219 L 7.730469 27.074219 C 7.597656 27.074219 7.484375 27.027344 7.386719 26.933594 C 7.292969 26.839844 7.246094 26.726562 7.246094 26.59375 C 7.246094 26.460938 7.292969 26.34375 7.386719 26.25 C 7.484375 26.15625 7.597656 26.109375 7.730469 26.109375 L 9.664062 26.109375 C 9.796875 26.109375 9.910156 26.15625 10.003906 26.25 C 10.097656 26.34375 10.144531 26.460938 10.144531 26.59375 C 10.144531 26.726562 10.097656 26.839844 10.003906 26.933594 C 9.910156 27.027344 9.796875 27.074219 9.664062 27.074219 Z M 15.941406 24.175781 L 1.449219 24.175781 L 1.449219 4.371094 L 15.941406 4.371094 L 15.941406 5.820312 L 14.976562 5.820312 C 14.753906 5.820312 14.605469 5.921875 14.527344 6.128906 C 14.472656 6.265625 13.242188 9.433594 13.046875 10.617188 C 13.007812 11.175781 13.007812 11.730469 13.042969 12.289062 C 13.042969 13 13.625 13.621094 14.492188 13.894531 L 14.492188 21.277344 C 14.492188 21.472656 14.53125 21.65625 14.605469 21.832031 C 14.679688 22.011719 14.78125 22.167969 14.917969 22.300781 C 15.054688 22.4375 15.210938 22.542969 15.386719 22.617188 C 15.566406 22.691406 15.75 22.726562 15.941406 22.726562 Z M 16.917969 10.59375 C 16.914062 10.628906 16.910156 10.660156 16.90625 10.695312 L 16.90625 12.289062 C 16.886719 12.484375 16.792969 12.636719 16.625 12.738281 C 16.140625 13.042969 15.617188 13.140625 15.058594 13.03125 C 14.457031 12.9375 14.007812 12.613281 14.007812 12.265625 C 13.976562 11.769531 13.976562 11.269531 14.003906 10.773438 C 14.351562 9.414062 14.785156 8.085938 15.308594 6.785156 L 17.757812 6.785156 Z M 17.875 12.289062 L 17.875 10.832031 L 18.101562 9.785156 L 18.101562 9.78125 L 18.75 6.785156 L 20.773438 6.785156 L 20.773438 12.289062 C 20.773438 12.65625 20.179688 13.066406 19.324219 13.066406 C 18.46875 13.066406 17.875 12.65625 17.875 12.289062 Z M 23.1875 21.761719 L 19.804688 21.761719 L 19.804688 18.140625 C 19.804688 17.914062 19.847656 17.699219 19.933594 17.492188 C 20.019531 17.285156 20.144531 17.101562 20.300781 16.945312 C 20.460938 16.785156 20.644531 16.664062 20.851562 16.578125 C 21.058594 16.492188 21.273438 16.449219 21.496094 16.449219 C 21.722656 16.449219 21.9375 16.492188 22.144531 16.578125 C 22.351562 16.664062 22.535156 16.785156 22.691406 16.945312 C 22.851562 17.101562 22.972656 17.285156 23.058594 17.492188 C 23.144531 17.699219 23.1875 17.914062 23.1875 18.140625 Z M 24.636719 12.289062 C 24.636719 12.65625 24.042969 13.066406 23.1875 13.066406 C 22.332031 13.066406 21.738281 12.65625 21.738281 12.289062 L 21.738281 6.785156 L 23.761719 6.785156 L 24.410156 9.78125 L 24.410156 9.785156 L 24.636719 10.832031 Z M 28.5 12.25 L 28.5 12.289062 C 28.5 12.613281 28.050781 12.9375 27.464844 13.03125 C 26.394531 13.199219 25.601562 12.714844 25.601562 12.289062 L 25.601562 10.714844 C 25.601562 10.679688 25.597656 10.644531 25.59375 10.609375 L 24.753906 6.785156 L 26.308594 6.785156 C 26.960938 7.785156 28.292969 9.949219 28.515625 10.816406 C 28.5625 11.292969 28.558594 11.773438 28.5 12.25 Z M 11.0625 6.101562 C 10.964844 6.007812 10.851562 5.964844 10.71875 5.96875 C 10.585938 5.972656 10.472656 6.023438 10.382812 6.121094 L 5.878906 10.925781 C 5.785156 11.023438 5.742188 11.140625 5.746094 11.273438 C 5.75 11.410156 5.800781 11.523438 5.898438 11.613281 C 5.996094 11.707031 6.113281 11.75 6.246094 11.746094 C 6.382812 11.738281 6.492188 11.6875 6.585938 11.589844 L 11.085938 6.78125 C 11.179688 6.683594 11.222656 6.570312 11.214844 6.4375 C 11.210938 6.304688 11.160156 6.191406 11.0625 6.101562 Z M 12.558594 15.964844 L 3.382812 15.964844 C 3.25 15.964844 3.136719 16.011719 3.039062 16.105469 C 2.945312 16.199219 2.898438 16.316406 2.898438 16.449219 C 2.898438 16.582031 2.945312 16.695312 3.039062 16.789062 C 3.136719 16.882812 3.25 16.929688 3.382812 16.929688 L 12.558594 16.929688 C 12.695312 16.929688 12.808594 16.882812 12.902344 16.789062 C 12.996094 16.695312 13.042969 16.582031 13.042969 16.449219 C 13.042969 16.316406 12.996094 16.199219 12.902344 16.105469 C 12.808594 16.011719 12.695312 15.964844 12.558594 15.964844 Z M 12.558594 13.550781 L 4.347656 13.550781 C 4.214844 13.550781 4.101562 13.597656 4.007812 13.691406 C 3.914062 13.785156 3.867188 13.898438 3.867188 14.03125 C 3.867188 14.167969 3.914062 14.28125 4.007812 14.375 C 4.101562 14.46875 4.214844 14.515625 4.347656 14.515625 L 12.558594 14.515625 C 12.695312 14.515625 12.808594 14.46875 12.902344 14.375 C 12.996094 14.28125 13.042969 14.167969 13.042969 14.03125 C 13.042969 13.898438 12.996094 13.785156 12.902344 13.691406 C 12.808594 13.597656 12.695312 13.550781 12.558594 13.550781 Z M 11.164062 9.496094 C 10.886719 9.234375 10.558594 9.109375 10.179688 9.121094 C 9.796875 9.128906 9.472656 9.273438 9.210938 9.554688 C 9.089844 9.6875 8.996094 9.84375 8.929688 10.011719 C 8.867188 10.183594 8.835938 10.363281 8.839844 10.546875 C 8.847656 10.726562 8.886719 10.902344 8.960938 11.070312 C 9.035156 11.238281 9.140625 11.386719 9.269531 11.511719 C 9.535156 11.765625 9.851562 11.890625 10.21875 11.886719 L 10.257812 11.886719 C 10.636719 11.878906 10.957031 11.734375 11.21875 11.453125 C 11.34375 11.320312 11.4375 11.167969 11.503906 10.996094 C 11.566406 10.824219 11.597656 10.648438 11.59375 10.464844 C 11.589844 10.28125 11.546875 10.105469 11.472656 9.9375 C 11.398438 9.769531 11.296875 9.625 11.164062 9.496094 Z M 10.511719 10.875 C 10.4375 10.957031 10.339844 11 10.226562 11.003906 C 10.117188 11.007812 10.019531 10.96875 9.9375 10.894531 C 9.855469 10.8125 9.808594 10.714844 9.804688 10.601562 C 9.800781 10.484375 9.839844 10.382812 9.917969 10.300781 C 9.996094 10.214844 10.089844 10.171875 10.203125 10.167969 L 10.21875 10.167969 C 10.324219 10.167969 10.417969 10.203125 10.496094 10.28125 C 10.582031 10.359375 10.625 10.457031 10.628906 10.574219 C 10.632812 10.691406 10.59375 10.789062 10.511719 10.875 Z M 7.695312 6.199219 C 7.417969 5.9375 7.089844 5.808594 6.710938 5.820312 C 6.328125 5.832031 6.003906 5.976562 5.746094 6.253906 C 5.621094 6.390625 5.527344 6.542969 5.460938 6.714844 C 5.398438 6.886719 5.367188 7.0625 5.375 7.246094 C 5.378906 7.429688 5.417969 7.605469 5.492188 7.769531 C 5.566406 7.9375 5.671875 8.085938 5.800781 8.210938 C 6.066406 8.464844 6.382812 8.589844 6.75 8.589844 L 6.789062 8.589844 C 7.171875 8.578125 7.492188 8.433594 7.753906 8.152344 C 7.878906 8.019531 7.972656 7.867188 8.035156 7.695312 C 8.101562 7.523438 8.128906 7.347656 8.125 7.164062 C 8.121094 6.980469 8.078125 6.804688 8.003906 6.640625 C 7.929688 6.472656 7.828125 6.324219 7.695312 6.199219 Z M 7.046875 7.492188 C 6.972656 7.574219 6.875 7.617188 6.761719 7.621094 C 6.648438 7.625 6.550781 7.589844 6.46875 7.511719 C 6.386719 7.433594 6.339844 7.335938 6.339844 7.21875 C 6.335938 7.101562 6.371094 7.003906 6.449219 6.917969 C 6.527344 6.832031 6.625 6.789062 6.738281 6.785156 L 6.75 6.785156 C 6.859375 6.785156 6.949219 6.824219 7.03125 6.898438 C 7.113281 6.976562 7.15625 7.074219 7.160156 7.191406 C 7.164062 7.308594 7.128906 7.40625 7.046875 7.492188 Z M 11.0625 6.101562 C 10.964844 6.007812 10.851562 5.964844 10.71875 5.96875 C 10.585938 5.972656 10.472656 6.023438 10.382812 6.121094 L 5.878906 10.925781 C 5.785156 11.023438 5.742188 11.140625 5.746094 11.273438 C 5.75 11.410156 5.800781 11.523438 5.898438 11.613281 C 5.996094 11.707031 6.113281 11.75 6.246094 11.746094 C 6.382812 11.738281 6.492188 11.6875 6.585938 11.589844 L 11.085938 6.78125 C 11.179688 6.683594 11.222656 6.570312 11.214844 6.4375 C 11.210938 6.304688 11.160156 6.191406 11.0625 6.101562 Z M 11.164062 9.496094 C 10.886719 9.234375 10.558594 9.109375 10.179688 9.121094 C 9.796875 9.128906 9.472656 9.273438 9.210938 9.554688 C 9.089844 9.6875 8.996094 9.84375 8.929688 10.011719 C 8.867188 10.183594 8.835938 10.363281 8.839844 10.546875 C 8.847656 10.726562 8.886719 10.902344 8.960938 11.070312 C 9.035156 11.238281 9.140625 11.386719 9.269531 11.511719 C 9.535156 11.765625 9.851562 11.890625 10.21875 11.886719 L 10.257812 11.886719 C 10.636719 11.878906 10.957031 11.734375 11.21875 11.453125 C 11.34375 11.320312 11.4375 11.167969 11.503906 10.996094 C 11.566406 10.824219 11.597656 10.648438 11.59375 10.464844 C 11.589844 10.28125 11.546875 10.105469 11.472656 9.9375 C 11.398438 9.769531 11.296875 9.625 11.164062 9.496094 Z M 10.511719 10.875 C 10.4375 10.957031 10.339844 11 10.226562 11.003906 C 10.117188 11.007812 10.019531 10.96875 9.9375 10.894531 C 9.855469 10.8125 9.808594 10.714844 9.804688 10.601562 C 9.800781 10.484375 9.839844 10.382812 9.917969 10.300781 C 9.996094 10.214844 10.089844 10.171875 10.203125 10.167969 L 10.21875 10.167969 C 10.324219 10.167969 10.417969 10.203125 10.496094 10.28125 C 10.582031 10.359375 10.625 10.457031 10.628906 10.574219 C 10.632812 10.691406 10.59375 10.789062 10.511719 10.875 Z M 12.558594 20.796875 L 3.382812 20.796875 C 3.25 20.796875 3.136719 20.84375 3.039062 20.9375 C 2.945312 21.03125 2.898438 21.144531 2.898438 21.277344 C 2.898438 21.414062 2.945312 21.527344 3.039062 21.621094 C 3.136719 21.714844 3.25 21.761719 3.382812 21.761719 L 12.558594 21.761719 C 12.695312 21.761719 12.808594 21.714844 12.902344 21.621094 C 12.996094 21.527344 13.042969 21.414062 13.042969 21.277344 C 13.042969 21.144531 12.996094 21.03125 12.902344 20.9375 C 12.808594 20.84375 12.695312 20.796875 12.558594 20.796875 Z M 12.558594 18.378906 L 3.382812 18.378906 C 3.25 18.378906 3.136719 18.429688 3.039062 18.523438 C 2.945312 18.617188 2.898438 18.730469 2.898438 18.863281 C 2.898438 18.996094 2.945312 19.109375 3.039062 19.207031 C 3.136719 19.300781 3.25 19.347656 3.382812 19.347656 L 12.558594 19.347656 C 12.695312 19.347656 12.808594 19.300781 12.902344 19.207031 C 12.996094 19.109375 13.042969 18.996094 13.042969 18.863281 C 13.042969 18.730469 12.996094 18.617188 12.902344 18.523438 C 12.808594 18.429688 12.695312 18.378906 12.558594 18.378906 Z M 12.558594 15.964844 L 3.382812 15.964844 C 3.25 15.964844 3.136719 16.011719 3.039062 16.105469 C 2.945312 16.199219 2.898438 16.316406 2.898438 16.449219 C 2.898438 16.582031 2.945312 16.695312 3.039062 16.789062 C 3.136719 16.882812 3.25 16.929688 3.382812 16.929688 L 12.558594 16.929688 C 12.695312 16.929688 12.808594 16.882812 12.902344 16.789062 C 12.996094 16.695312 13.042969 16.582031 13.042969 16.449219 C 13.042969 16.316406 12.996094 16.199219 12.902344 16.105469 C 12.808594 16.011719 12.695312 15.964844 12.558594 15.964844 Z M 12.558594 13.550781 L 4.347656 13.550781 C 4.214844 13.550781 4.101562 13.597656 4.007812 13.691406 C 3.914062 13.785156 3.867188 13.898438 3.867188 14.03125 C 3.867188 14.167969 3.914062 14.28125 4.007812 14.375 C 4.101562 14.46875 4.214844 14.515625 4.347656 14.515625 L 12.558594 14.515625 C 12.695312 14.515625 12.808594 14.46875 12.902344 14.375 C 12.996094 14.28125 13.042969 14.167969 13.042969 14.03125 C 13.042969 13.898438 12.996094 13.785156 12.902344 13.691406 C 12.808594 13.597656 12.695312 13.550781 12.558594 13.550781 Z M 7.695312 6.199219 C 7.417969 5.9375 7.089844 5.808594 6.710938 5.820312 C 6.328125 5.832031 6.003906 5.976562 5.746094 6.253906 C 5.621094 6.390625 5.527344 6.542969 5.460938 6.714844 C 5.398438 6.886719 5.367188 7.0625 5.375 7.246094 C 5.378906 7.429688 5.417969 7.605469 5.492188 7.769531 C 5.566406 7.9375 5.671875 8.085938 5.800781 8.210938 C 6.066406 8.464844 6.382812 8.589844 6.75 8.589844 L 6.789062 8.589844 C 7.171875 8.578125 7.492188 8.433594 7.753906 8.152344 C 7.878906 8.019531 7.972656 7.867188 8.035156 7.695312 C 8.101562 7.523438 8.128906 7.347656 8.125 7.164062 C 8.121094 6.980469 8.078125 6.804688 8.003906 6.640625 C 7.929688 6.472656 7.828125 6.324219 7.695312 6.199219 Z M 7.046875 7.492188 C 6.972656 7.574219 6.875 7.617188 6.761719 7.621094 C 6.648438 7.625 6.550781 7.589844 6.46875 7.511719 C 6.386719 7.433594 6.339844 7.335938 6.339844 7.21875 C 6.335938 7.101562 6.371094 7.003906 6.449219 6.917969 C 6.527344 6.832031 6.625 6.789062 6.738281 6.785156 L 6.75 6.785156 C 6.859375 6.785156 6.949219 6.824219 7.03125 6.898438 C 7.113281 6.976562 7.15625 7.074219 7.160156 7.191406 C 7.164062 7.308594 7.128906 7.40625 7.046875 7.492188 Z M 11.0625 6.101562 C 10.964844 6.007812 10.851562 5.964844 10.71875 5.96875 C 10.585938 5.972656 10.472656 6.023438 10.382812 6.121094 L 5.878906 10.925781 C 5.785156 11.023438 5.742188 11.140625 5.746094 11.273438 C 5.75 11.410156 5.800781 11.523438 5.898438 11.613281 C 5.996094 11.707031 6.113281 11.75 6.246094 11.746094 C 6.382812 11.738281 6.492188 11.6875 6.585938 11.589844 L 11.085938 6.78125 C 11.179688 6.683594 11.222656 6.570312 11.214844 6.4375 C 11.210938 6.304688 11.160156 6.191406 11.0625 6.101562 Z M 11.164062 9.496094 C 10.886719 9.234375 10.558594 9.109375 10.179688 9.121094 C 9.796875 9.128906 9.472656 9.273438 9.210938 9.554688 C 9.089844 9.6875 8.996094 9.84375 8.929688 10.011719 C 8.867188 10.183594 8.835938 10.363281 8.839844 10.546875 C 8.847656 10.726562 8.886719 10.902344 8.960938 11.070312 C 9.035156 11.238281 9.140625 11.386719 9.269531 11.511719 C 9.535156 11.765625 9.851562 11.890625 10.21875 11.886719 L 10.257812 11.886719 C 10.636719 11.878906 10.957031 11.734375 11.21875 11.453125 C 11.34375 11.320312 11.4375 11.167969 11.503906 10.996094 C 11.566406 10.824219 11.597656 10.648438 11.59375 10.464844 C 11.589844 10.28125 11.546875 10.105469 11.472656 9.9375 C 11.398438 9.769531 11.296875 9.625 11.164062 9.496094 Z M 10.511719 10.875 C 10.4375 10.957031 10.339844 11 10.226562 11.003906 C 10.117188 11.007812 10.019531 10.96875 9.9375 10.894531 C 9.855469 10.8125 9.808594 10.714844 9.804688 10.601562 C 9.800781 10.484375 9.839844 10.382812 9.917969 10.300781 C 9.996094 10.214844 10.089844 10.171875 10.203125 10.167969 L 10.21875 10.167969 C 10.324219 10.167969 10.417969 10.203125 10.496094 10.28125 C 10.582031 10.359375 10.625 10.457031 10.628906 10.574219 C 10.632812 10.691406 10.59375 10.789062 10.511719 10.875 Z M 12.558594 20.796875 L 3.382812 20.796875 C 3.25 20.796875 3.136719 20.84375 3.039062 20.9375 C 2.945312 21.03125 2.898438 21.144531 2.898438 21.277344 C 2.898438 21.414062 2.945312 21.527344 3.039062 21.621094 C 3.136719 21.714844 3.25 21.761719 3.382812 21.761719 L 12.558594 21.761719 C 12.695312 21.761719 12.808594 21.714844 12.902344 21.621094 C 12.996094 21.527344 13.042969 21.414062 13.042969 21.277344 C 13.042969 21.144531 12.996094 21.03125 12.902344 20.9375 C 12.808594 20.84375 12.695312 20.796875 12.558594 20.796875 Z M 12.558594 18.378906 L 3.382812 18.378906 C 3.25 18.378906 3.136719 18.429688 3.039062 18.523438 C 2.945312 18.617188 2.898438 18.730469 2.898438 18.863281 C 2.898438 18.996094 2.945312 19.109375 3.039062 19.207031 C 3.136719 19.300781 3.25 19.347656 3.382812 19.347656 L 12.558594 19.347656 C 12.695312 19.347656 12.808594 19.300781 12.902344 19.207031 C 12.996094 19.109375 13.042969 18.996094 13.042969 18.863281 C 13.042969 18.730469 12.996094 18.617188 12.902344 18.523438 C 12.808594 18.429688 12.695312 18.378906 12.558594 18.378906 Z M 12.558594 15.964844 L 3.382812 15.964844 C 3.25 15.964844 3.136719 16.011719 3.039062 16.105469 C 2.945312 16.199219 2.898438 16.316406 2.898438 16.449219 C 2.898438 16.582031 2.945312 16.695312 3.039062 16.789062 C 3.136719 16.882812 3.25 16.929688 3.382812 16.929688 L 12.558594 16.929688 C 12.695312 16.929688 12.808594 16.882812 12.902344 16.789062 C 12.996094 16.695312 13.042969 16.582031 13.042969 16.449219 C 13.042969 16.316406 12.996094 16.199219 12.902344 16.105469 C 12.808594 16.011719 12.695312 15.964844 12.558594 15.964844 Z M 12.558594 13.550781 L 4.347656 13.550781 C 4.214844 13.550781 4.101562 13.597656 4.007812 13.691406 C 3.914062 13.785156 3.867188 13.898438 3.867188 14.03125 C 3.867188 14.167969 3.914062 14.28125 4.007812 14.375 C 4.101562 14.46875 4.214844 14.515625 4.347656 14.515625 L 12.558594 14.515625 C 12.695312 14.515625 12.808594 14.46875 12.902344 14.375 C 12.996094 14.28125 13.042969 14.167969 13.042969 14.03125 C 13.042969 13.898438 12.996094 13.785156 12.902344 13.691406 C 12.808594 13.597656 12.695312 13.550781 12.558594 13.550781 Z M 7.695312 6.199219 C 7.417969 5.9375 7.089844 5.808594 6.710938 5.820312 C 6.328125 5.832031 6.003906 5.976562 5.746094 6.253906 C 5.621094 6.390625 5.527344 6.542969 5.460938 6.714844 C 5.398438 6.886719 5.367188 7.0625 5.375 7.246094 C 5.378906 7.429688 5.417969 7.605469 5.492188 7.769531 C 5.566406 7.9375 5.671875 8.085938 5.800781 8.210938 C 6.066406 8.464844 6.382812 8.589844 6.75 8.589844 L 6.789062 8.589844 C 7.171875 8.578125 7.492188 8.433594 7.753906 8.152344 C 7.878906 8.019531 7.972656 7.867188 8.035156 7.695312 C 8.101562 7.523438 8.128906 7.347656 8.125 7.164062 C 8.121094 6.980469 8.078125 6.804688 8.003906 6.640625 C 7.929688 6.472656 7.828125 6.324219 7.695312 6.199219 Z M 7.046875 7.492188 C 6.972656 7.574219 6.875 7.617188 6.761719 7.621094 C 6.648438 7.625 6.550781 7.589844 6.46875 7.511719 C 6.386719 7.433594 6.339844 7.335938 6.339844 7.21875 C 6.335938 7.101562 6.371094 7.003906 6.449219 6.917969 C 6.527344 6.832031 6.625 6.789062 6.738281 6.785156 L 6.75 6.785156 C 6.859375 6.785156 6.949219 6.824219 7.03125 6.898438 C 7.113281 6.976562 7.15625 7.074219 7.160156 7.191406 C 7.164062 7.308594 7.128906 7.40625 7.046875 7.492188 Z M 12.558594 18.378906 L 3.382812 18.378906 C 3.25 18.378906 3.136719 18.429688 3.039062 18.523438 C 2.945312 18.617188 2.898438 18.730469 2.898438 18.863281 C 2.898438 18.996094 2.945312 19.109375 3.039062 19.207031 C 3.136719 19.300781 3.25 19.347656 3.382812 19.347656 L 12.558594 19.347656 C 12.695312 19.347656 12.808594 19.300781 12.902344 19.207031 C 12.996094 19.109375 13.042969 18.996094 13.042969 18.863281 C 13.042969 18.730469 12.996094 18.617188 12.902344 18.523438 C 12.808594 18.429688 12.695312 18.378906 12.558594 18.378906 Z M 12.558594 20.796875 L 3.382812 20.796875 C 3.25 20.796875 3.136719 20.84375 3.039062 20.9375 C 2.945312 21.03125 2.898438 21.144531 2.898438 21.277344 C 2.898438 21.414062 2.945312 21.527344 3.039062 21.621094 C 3.136719 21.714844 3.25 21.761719 3.382812 21.761719 L 12.558594 21.761719 C 12.695312 21.761719 12.808594 21.714844 12.902344 21.621094 C 12.996094 21.527344 13.042969 21.414062 13.042969 21.277344 C 13.042969 21.144531 12.996094 21.03125 12.902344 20.9375 C 12.808594 20.84375 12.695312 20.796875 12.558594 20.796875 Z M 12.558594 20.796875 " fill-opacity="1" fill-rule="nonzero"/></g></svg>