<svg xmlns="http://www.w3.org/2000/svg" xmlns:xlink="http://www.w3.org/1999/xlink" width="40" zoomAndPan="magnify" viewBox="0 0 30 30.000001" height="40" preserveAspectRatio="xMidYMid meet" version="1.0"><defs><clipPath id="7cf703102f"><path d="M 0.484375 1 L 29.515625 1 L 29.515625 28.488281 L 0.484375 28.488281 Z M 0.484375 1 " clip-rule="nonzero"/></clipPath></defs><g clip-path="url(#7cf703102f)"><path fill="#31ac7d" d="M 29.242188 18.574219 L 28.246094 18.394531 C 28.15625 17.988281 27.972656 17.625 27.792969 17.261719 L 28.382812 16.445312 C 28.472656 16.308594 28.472656 16.125 28.335938 15.992188 L 27.019531 14.675781 C 26.886719 14.539062 26.703125 14.539062 26.566406 14.628906 L 25.75 15.21875 C 25.386719 15.039062 25.023438 14.855469 24.617188 14.765625 L 24.433594 13.769531 C 24.390625 13.585938 24.253906 13.496094 24.117188 13.496094 L 23.527344 13.496094 L 23.527344 2.789062 C 23.527344 1.835938 22.757812 1.019531 21.757812 1.019531 L 8.285156 1.019531 C 7.332031 1.019531 6.515625 1.792969 6.515625 2.789062 L 6.515625 4.242188 L 5.925781 4.242188 C 5.746094 4.242188 5.609375 4.378906 5.609375 4.511719 L 5.429688 5.511719 C 5.019531 5.601562 4.65625 5.785156 4.292969 5.964844 L 3.476562 5.375 C 3.339844 5.285156 3.160156 5.285156 3.023438 5.421875 L 1.707031 6.738281 C 1.574219 6.871094 1.574219 7.054688 1.664062 7.191406 L 2.253906 8.007812 C 2.070312 8.371094 1.890625 8.730469 1.800781 9.140625 L 0.800781 9.320312 C 0.621094 9.367188 0.484375 9.503906 0.484375 9.683594 L 0.484375 11.542969 C 0.484375 11.726562 0.621094 11.863281 0.757812 11.863281 L 1.753906 12.042969 C 1.84375 12.40625 2.027344 12.816406 2.207031 13.179688 L 1.617188 13.996094 C 1.527344 14.128906 1.527344 14.3125 1.664062 14.449219 L 2.980469 15.761719 C 3.113281 15.898438 3.296875 15.898438 3.433594 15.808594 L 4.25 15.21875 C 4.613281 15.402344 4.976562 15.582031 5.382812 15.671875 L 5.566406 16.671875 C 5.609375 16.851562 5.746094 16.941406 5.882812 16.941406 L 6.472656 16.941406 L 6.472656 26.242188 C 6.472656 27.195312 7.242188 28.011719 8.242188 28.011719 L 21.714844 28.011719 C 22.667969 28.011719 23.484375 27.242188 23.484375 26.242188 L 23.484375 26.152344 L 24.074219 26.152344 C 24.253906 26.152344 24.390625 26.015625 24.390625 25.878906 L 24.570312 24.882812 C 24.980469 24.789062 25.34375 24.609375 25.707031 24.429688 L 26.523438 25.019531 C 26.660156 25.109375 26.839844 25.109375 26.976562 24.972656 L 28.292969 23.65625 C 28.425781 23.519531 28.425781 23.339844 28.335938 23.203125 L 27.746094 22.386719 C 27.929688 22.023438 28.109375 21.660156 28.199219 21.253906 L 29.199219 21.070312 C 29.378906 21.027344 29.472656 20.890625 29.472656 20.753906 L 29.472656 18.894531 C 29.515625 18.757812 29.378906 18.574219 29.242188 18.574219 Z M 6.335938 16.308594 L 6.199219 16.308594 L 6.019531 15.355469 C 5.972656 15.21875 5.882812 15.128906 5.746094 15.082031 C 5.292969 14.992188 4.839844 14.8125 4.429688 14.539062 C 4.292969 14.449219 4.160156 14.492188 4.066406 14.539062 L 3.296875 15.082031 L 2.390625 14.175781 L 2.933594 13.40625 C 3.023438 13.3125 3.023438 13.132812 2.933594 13.042969 C 2.660156 12.632812 2.480469 12.179688 2.390625 11.726562 C 2.34375 11.589844 2.253906 11.5 2.117188 11.453125 L 1.164062 11.273438 L 1.164062 9.957031 L 2.117188 9.777344 C 2.253906 9.730469 2.34375 9.640625 2.390625 9.503906 C 2.480469 9.050781 2.707031 8.597656 2.933594 8.1875 C 3.023438 8.050781 2.980469 7.914062 2.933594 7.824219 L 2.390625 7.054688 L 3.296875 6.148438 L 4.066406 6.691406 C 4.160156 6.78125 4.339844 6.78125 4.429688 6.691406 C 4.839844 6.417969 5.292969 6.238281 5.746094 6.148438 C 5.882812 6.101562 5.972656 6.011719 6.019531 5.875 L 6.199219 4.921875 L 6.335938 4.921875 L 6.335938 7.824219 C 5.019531 8.097656 4.023438 9.230469 4.023438 10.636719 C 4.023438 12 5.019531 13.179688 6.335938 13.449219 Z M 6.515625 12.769531 C 5.472656 12.589844 4.703125 11.679688 4.703125 10.636719 C 4.703125 9.550781 5.472656 8.6875 6.515625 8.503906 Z M 22.800781 26.289062 C 22.800781 26.878906 22.304688 27.375 21.714844 27.375 L 8.285156 27.375 C 7.695312 27.375 7.199219 26.878906 7.199219 26.289062 L 7.199219 24.835938 L 22.800781 24.835938 Z M 12.277344 12.679688 L 14.726562 14.585938 C 14.863281 14.675781 15 14.675781 15.136719 14.585938 L 17.722656 12.679688 C 17.8125 12.632812 17.859375 12.496094 17.859375 12.40625 L 17.859375 10.003906 C 18.582031 10.683594 19.039062 11.589844 19.128906 12.542969 C 19.308594 14.265625 18.449219 15.898438 16.90625 16.671875 C 16.816406 16.714844 16.722656 16.851562 16.722656 16.988281 L 16.722656 24.15625 L 13.277344 24.15625 L 13.277344 16.988281 C 13.277344 16.851562 13.183594 16.761719 13.09375 16.671875 C 11.734375 15.945312 10.871094 14.539062 10.871094 12.996094 C 10.871094 11.863281 11.324219 10.773438 12.140625 10.003906 L 12.140625 12.40625 C 12.140625 12.496094 12.1875 12.589844 12.277344 12.679688 Z M 22.800781 13.632812 C 22.757812 13.675781 22.710938 13.769531 22.710938 13.8125 L 22.710938 17.351562 C 22.710938 17.441406 22.757812 17.488281 22.800781 17.53125 L 22.800781 24.15625 L 17.402344 24.15625 L 17.402344 17.167969 C 19.082031 16.21875 19.988281 14.402344 19.808594 12.453125 C 19.671875 11.046875 18.902344 9.777344 17.722656 8.960938 C 17.632812 8.867188 17.496094 8.867188 17.359375 8.960938 C 17.269531 9.003906 17.175781 9.140625 17.175781 9.277344 L 17.175781 12.179688 L 14.953125 13.8125 L 12.824219 12.179688 L 12.824219 9.230469 C 12.824219 9.09375 12.730469 9.003906 12.640625 8.914062 C 12.550781 8.867188 12.414062 8.867188 12.277344 8.914062 C 10.960938 9.820312 10.144531 11.316406 10.144531 12.90625 C 10.144531 14.628906 11.054688 16.21875 12.550781 17.078125 L 12.550781 24.019531 L 7.199219 24.019531 L 7.199219 4.921875 L 22.800781 4.921875 Z M 22.800781 4.242188 L 7.199219 4.242188 L 7.199219 2.789062 C 7.199219 2.199219 7.695312 1.699219 8.285156 1.699219 L 21.757812 1.699219 C 22.347656 1.699219 22.847656 2.199219 22.847656 2.789062 L 22.847656 4.242188 Z M 23.484375 17.714844 C 24.527344 17.894531 25.296875 18.757812 25.296875 19.847656 C 25.296875 20.933594 24.527344 21.796875 23.484375 21.976562 Z M 28.835938 20.480469 L 27.882812 20.664062 C 27.746094 20.707031 27.65625 20.800781 27.609375 20.933594 C 27.519531 21.386719 27.339844 21.84375 27.066406 22.25 C 26.976562 22.386719 27.019531 22.523438 27.066406 22.613281 L 27.609375 23.382812 L 26.703125 24.292969 L 25.933594 23.746094 C 25.839844 23.65625 25.660156 23.65625 25.570312 23.746094 C 25.160156 24.019531 24.707031 24.199219 24.253906 24.292969 C 24.117188 24.335938 24.027344 24.429688 23.980469 24.5625 L 23.800781 25.515625 L 23.484375 25.515625 L 23.484375 22.660156 C 24.890625 22.476562 25.976562 21.296875 25.976562 19.847656 C 25.976562 18.394531 24.890625 17.167969 23.484375 17.035156 L 23.484375 14.175781 L 23.800781 14.175781 L 23.980469 15.128906 C 24.027344 15.265625 24.117188 15.355469 24.253906 15.402344 C 24.707031 15.492188 25.160156 15.671875 25.570312 15.945312 C 25.707031 16.035156 25.839844 15.992188 25.933594 15.945312 L 26.703125 15.402344 L 27.609375 16.308594 L 27.066406 17.078125 C 26.976562 17.167969 26.976562 17.351562 27.066406 17.441406 C 27.339844 17.851562 27.519531 18.304688 27.609375 18.757812 C 27.65625 18.894531 27.746094 18.984375 27.882812 19.03125 L 28.835938 19.210938 Z M 28.835938 20.480469 " fill-opacity="1" fill-rule="nonzero"/></g><path fill="#31ac7d" d="M 17.222656 2.652344 L 12.777344 2.652344 C 12.597656 2.652344 12.414062 2.789062 12.414062 3.015625 C 12.414062 3.199219 12.550781 3.378906 12.777344 3.378906 L 17.222656 3.378906 C 17.402344 3.378906 17.585938 3.242188 17.585938 3.015625 C 17.539062 2.789062 17.402344 2.652344 17.222656 2.652344 Z M 17.222656 2.652344 " fill-opacity="1" fill-rule="nonzero"/><path fill="#31ac7d" d="M 15 27.148438 C 15.589844 27.148438 16.042969 26.695312 16.042969 26.105469 C 16.042969 25.515625 15.589844 25.0625 15 25.0625 C 14.410156 25.0625 13.957031 25.515625 13.957031 26.105469 C 13.957031 26.695312 14.410156 27.148438 15 27.148438 Z M 15 25.742188 C 15.179688 25.742188 15.363281 25.925781 15.363281 26.105469 C 15.363281 26.289062 15.179688 26.46875 15 26.46875 C 14.820312 26.46875 14.636719 26.289062 14.636719 26.105469 C 14.636719 25.878906 14.820312 25.742188 15 25.742188 Z M 15 25.742188 " fill-opacity="1" fill-rule="nonzero"/></svg>