<svg xmlns="http://www.w3.org/2000/svg" xmlns:xlink="http://www.w3.org/1999/xlink" width="40" zoomAndPan="magnify" viewBox="0 0 30 30.000001" height="40" preserveAspectRatio="xMidYMid meet" version="1.0"><defs><clipPath id="3a19708e64"><path d="M 24 22 L 29.515625 22 L 29.515625 28 L 24 28 Z M 24 22 " clip-rule="nonzero"/></clipPath><clipPath id="4b8ac603d2"><path d="M 0.484375 1 L 6 1 L 6 7 L 0.484375 7 Z M 0.484375 1 " clip-rule="nonzero"/></clipPath></defs><path fill="#31ac7d" d="M 17.722656 14.136719 L 16.089844 14.136719 C 15.902344 14.136719 15.75 13.984375 15.75 13.800781 C 15.75 13.613281 15.902344 13.460938 16.089844 13.460938 L 17.722656 13.460938 C 17.910156 13.460938 18.0625 13.613281 18.0625 13.800781 C 18.0625 13.984375 17.910156 14.136719 17.722656 14.136719 Z M 17.722656 14.136719 " fill-opacity="1" fill-rule="evenodd"/><path fill="#31ac7d" d="M 16.898438 16.820312 C 16.710938 16.820312 16.558594 16.667969 16.558594 16.480469 L 16.558594 13.800781 C 16.558594 13.613281 16.710938 13.460938 16.898438 13.460938 C 17.082031 13.460938 17.234375 13.613281 17.234375 13.800781 L 17.234375 16.480469 C 17.234375 16.667969 17.082031 16.820312 16.898438 16.820312 Z M 16.898438 16.820312 " fill-opacity="1" fill-rule="evenodd"/><path fill="#31ac7d" d="M 15.042969 16.820312 L 13.390625 16.820312 C 13.203125 16.820312 13.050781 16.667969 13.050781 16.480469 L 13.050781 13.800781 C 13.050781 13.613281 13.203125 13.460938 13.390625 13.460938 L 15.042969 13.460938 C 15.226562 13.460938 15.378906 13.613281 15.378906 13.800781 L 15.378906 16.480469 C 15.378906 16.667969 15.226562 16.820312 15.042969 16.820312 Z M 13.726562 16.144531 L 14.6875 16.144531 L 14.6875 14.136719 L 13.726562 14.136719 Z M 13.726562 16.144531 " fill-opacity="1" fill-rule="evenodd"/><path fill="#31ac7d" d="M 21.824219 7.691406 C 21.300781 7.691406 20.792969 7.539062 20.371094 7.21875 C 19.867188 6.832031 19.511719 6.277344 19.429688 5.632812 C 19.328125 4.992188 19.496094 4.351562 19.882812 3.828125 C 20.273438 3.304688 20.828125 2.96875 21.46875 2.882812 C 22.109375 2.785156 22.75 2.953125 23.273438 3.339844 C 23.796875 3.726562 24.136719 4.285156 24.21875 4.925781 C 24.421875 6.242188 23.492188 7.488281 22.179688 7.675781 C 22.058594 7.691406 21.941406 7.691406 21.824219 7.691406 Z M 21.824219 3.527344 C 21.738281 3.527344 21.65625 3.527344 21.570312 3.542969 C 21.097656 3.609375 20.695312 3.847656 20.421875 4.234375 C 20.136719 4.605469 20.019531 5.0625 20.085938 5.53125 C 20.152344 5.988281 20.40625 6.394531 20.777344 6.679688 C 21.148438 6.949219 21.621094 7.066406 22.078125 7 C 23.039062 6.867188 23.695312 5.972656 23.542969 5.011719 C 23.476562 4.554688 23.242188 4.148438 22.871094 3.863281 C 22.566406 3.644531 22.195312 3.527344 21.824219 3.527344 Z M 21.824219 3.527344 " fill-opacity="1" fill-rule="evenodd"/><path fill="#31ac7d" d="M 24.554688 16.160156 C 24.035156 16.160156 23.542969 16.007812 23.121094 15.6875 C 22.601562 15.300781 22.261719 14.742188 22.160156 14.101562 C 21.976562 12.769531 22.886719 11.539062 24.21875 11.351562 C 25.535156 11.152344 26.765625 12.078125 26.96875 13.394531 C 27.054688 14.035156 26.902344 14.675781 26.511719 15.199219 C 26.125 15.707031 25.550781 16.058594 24.910156 16.144531 C 24.792969 16.160156 24.675781 16.160156 24.554688 16.160156 Z M 24.554688 11.996094 C 24.472656 11.996094 24.386719 11.996094 24.304688 12.011719 C 23.34375 12.144531 22.683594 13.039062 22.835938 14 C 22.902344 14.457031 23.140625 14.863281 23.511719 15.148438 C 23.898438 15.417969 24.355469 15.535156 24.808594 15.46875 C 25.28125 15.402344 25.6875 15.164062 25.957031 14.777344 C 26.242188 14.40625 26.363281 13.949219 26.292969 13.480469 C 26.160156 12.617188 25.417969 11.996094 24.554688 11.996094 Z M 24.554688 11.996094 " fill-opacity="1" fill-rule="evenodd"/><g clip-path="url(#3a19708e64)"><path fill="#31ac7d" d="M 27.019531 27.160156 C 25.839844 27.160156 24.792969 26.28125 24.625 25.085938 C 24.523438 24.445312 24.691406 23.804688 25.078125 23.28125 C 25.46875 22.773438 26.023438 22.417969 26.664062 22.335938 C 27.980469 22.132812 29.230469 23.058594 29.414062 24.375 C 29.515625 25.015625 29.347656 25.660156 28.960938 26.179688 C 28.570312 26.703125 28.015625 27.042969 27.375 27.125 C 27.238281 27.144531 27.121094 27.160156 27.019531 27.160156 Z M 27.019531 22.976562 C 26.933594 22.976562 26.851562 22.992188 26.765625 22.992188 C 26.292969 23.058594 25.890625 23.3125 25.621094 23.683594 C 25.332031 24.054688 25.214844 24.527344 25.28125 24.984375 C 25.347656 25.4375 25.601562 25.859375 25.972656 26.128906 C 26.34375 26.417969 26.816406 26.519531 27.273438 26.453125 C 27.726562 26.382812 28.148438 26.148438 28.417969 25.777344 C 28.707031 25.386719 28.808594 24.933594 28.738281 24.476562 C 28.621094 23.601562 27.863281 22.976562 27.019531 22.976562 Z M 27.019531 22.976562 " fill-opacity="1" fill-rule="evenodd"/></g><path fill="#31ac7d" d="M 6.304688 27.988281 C 5.121094 27.988281 4.078125 27.125 3.910156 25.910156 C 3.707031 24.59375 4.632812 23.363281 5.949219 23.160156 C 7.28125 22.976562 8.515625 23.886719 8.699219 25.21875 C 8.902344 26.535156 7.972656 27.765625 6.65625 27.96875 C 6.539062 27.96875 6.421875 27.988281 6.304688 27.988281 Z M 6.304688 23.804688 C 6.21875 23.804688 6.136719 23.820312 6.035156 23.820312 C 5.089844 23.972656 4.429688 24.847656 4.566406 25.808594 C 4.703125 26.773438 5.59375 27.429688 6.558594 27.277344 C 7.5 27.144531 8.160156 26.25 8.023438 25.304688 C 7.90625 24.445312 7.148438 23.804688 6.304688 23.804688 Z M 6.304688 23.804688 " fill-opacity="1" fill-rule="evenodd"/><g clip-path="url(#4b8ac603d2)"><path fill="#31ac7d" d="M 3.066406 6.054688 C 2.558594 6.054688 2.050781 5.902344 1.632812 5.582031 C 1.109375 5.195312 0.769531 4.621094 0.667969 3.980469 C 0.484375 2.664062 1.394531 1.433594 2.710938 1.230469 C 4.042969 1.046875 5.273438 1.957031 5.460938 3.289062 C 5.664062 4.605469 4.734375 5.835938 3.417969 6.039062 C 3.300781 6.054688 3.183594 6.054688 3.066406 6.054688 Z M 3.066406 1.890625 C 2.980469 1.890625 2.894531 1.890625 2.8125 1.90625 C 1.851562 2.042969 1.191406 2.933594 1.34375 3.878906 C 1.410156 4.351562 1.648438 4.757812 2.019531 5.027344 C 2.40625 5.3125 2.863281 5.433594 3.316406 5.363281 C 4.28125 5.210938 4.9375 4.335938 4.800781 3.375 C 4.667969 2.511719 3.925781 1.890625 3.066406 1.890625 Z M 3.066406 1.890625 " fill-opacity="1" fill-rule="evenodd"/></g><path fill="#31ac7d" d="M 13.070312 8.804688 C 11.886719 8.804688 10.859375 7.945312 10.671875 6.730469 C 10.589844 6.089844 10.742188 5.449219 11.128906 4.941406 C 11.515625 4.417969 12.089844 4.082031 12.730469 3.980469 C 13.371094 3.898438 14.011719 4.046875 14.519531 4.4375 C 15.042969 4.824219 15.378906 5.398438 15.480469 6.039062 C 15.566406 6.679688 15.414062 7.320312 15.023438 7.828125 C 14.636719 8.351562 14.0625 8.6875 13.421875 8.789062 C 13.304688 8.789062 13.1875 8.804688 13.070312 8.804688 Z M 13.085938 4.621094 C 13 4.621094 12.898438 4.640625 12.816406 4.640625 C 12.359375 4.707031 11.953125 4.960938 11.667969 5.332031 C 11.398438 5.703125 11.28125 6.175781 11.347656 6.628906 C 11.484375 7.488281 12.226562 8.132812 13.085938 8.132812 C 13.167969 8.132812 13.253906 8.113281 13.339844 8.113281 C 13.792969 8.046875 14.214844 7.792969 14.484375 7.421875 C 14.773438 7.050781 14.875 6.578125 14.804688 6.125 C 14.738281 5.667969 14.503906 5.246094 14.132812 4.976562 C 13.8125 4.757812 13.457031 4.621094 13.085938 4.621094 Z M 13.085938 4.621094 " fill-opacity="1" fill-rule="evenodd"/><path fill="#31ac7d" d="M 15.75 27.023438 C 14.570312 27.023438 13.539062 26.164062 13.355469 24.964844 C 13.269531 24.324219 13.421875 23.683594 13.8125 23.160156 C 14.199219 22.640625 14.773438 22.300781 15.414062 22.21875 C 16.730469 22.015625 17.960938 22.941406 18.164062 24.257812 C 18.347656 25.574219 17.4375 26.824219 16.105469 27.007812 C 15.988281 27.023438 15.867188 27.023438 15.75 27.023438 Z M 15.765625 22.859375 C 15.683594 22.859375 15.597656 22.859375 15.515625 22.875 C 15.042969 22.941406 14.636719 23.179688 14.367188 23.550781 C 14.082031 23.9375 13.960938 24.394531 14.03125 24.847656 C 14.183594 25.808594 15.058594 26.46875 16.019531 26.332031 C 16.980469 26.179688 17.640625 25.304688 17.488281 24.34375 C 17.351562 23.480469 16.609375 22.859375 15.765625 22.859375 Z M 15.765625 22.859375 " fill-opacity="1" fill-rule="evenodd"/><path fill="#31ac7d" d="M 14.367188 20.410156 C 11.785156 20.410156 9.527344 18.523438 9.136719 15.90625 C 8.714844 13.023438 10.722656 10.339844 13.589844 9.917969 C 14.992188 9.714844 16.390625 10.070312 17.523438 10.898438 C 18.652344 11.742188 19.378906 12.972656 19.597656 14.371094 L 19.257812 14.421875 L 19.597656 14.371094 C 19.800781 15.773438 19.445312 17.15625 18.601562 18.285156 C 17.757812 19.417969 16.527344 20.160156 15.144531 20.363281 C 14.875 20.394531 14.621094 20.410156 14.367188 20.410156 Z M 14.367188 10.527344 C 14.148438 10.527344 13.910156 10.542969 13.691406 10.578125 C 11.179688 10.949219 9.441406 13.292969 9.8125 15.804688 C 10.148438 18.085938 12.105469 19.738281 14.351562 19.738281 C 14.585938 19.738281 14.804688 19.71875 15.023438 19.6875 C 16.238281 19.519531 17.320312 18.875 18.0625 17.882812 C 18.789062 16.886719 19.089844 15.6875 18.921875 14.457031 C 18.738281 13.242188 18.09375 12.179688 17.101562 11.4375 C 16.308594 10.847656 15.363281 10.527344 14.367188 10.527344 Z M 14.367188 10.527344 " fill-opacity="1" fill-rule="evenodd"/><path fill="#31ac7d" d="M 6.050781 18.894531 C 4.871094 18.894531 3.824219 18.035156 3.65625 16.820312 C 3.453125 15.503906 4.378906 14.273438 5.695312 14.070312 C 7.011719 13.867188 8.261719 14.792969 8.445312 16.109375 C 8.648438 17.441406 7.722656 18.675781 6.40625 18.859375 C 6.285156 18.875 6.167969 18.894531 6.050781 18.894531 Z M 6.050781 14.726562 C 5.964844 14.726562 5.882812 14.726562 5.796875 14.742188 C 4.835938 14.878906 4.179688 15.773438 4.3125 16.71875 C 4.464844 17.679688 5.34375 18.335938 6.304688 18.203125 C 7.265625 18.050781 7.921875 17.171875 7.769531 16.210938 C 7.652344 15.351562 6.910156 14.726562 6.050781 14.726562 Z M 6.050781 14.726562 " fill-opacity="1" fill-rule="evenodd"/><path fill="#31ac7d" d="M 25.347656 23.804688 C 25.28125 23.804688 25.214844 23.785156 25.148438 23.734375 L 18.09375 18.386719 C 17.945312 18.269531 17.910156 18.066406 18.027344 17.914062 C 18.144531 17.761719 18.347656 17.730469 18.5 17.847656 L 25.550781 23.195312 C 25.703125 23.3125 25.738281 23.53125 25.621094 23.667969 C 25.550781 23.753906 25.449219 23.804688 25.347656 23.804688 Z M 17.335938 11.539062 C 17.269531 11.539062 17.203125 11.503906 17.132812 11.472656 C 17 11.351562 16.964844 11.132812 17.066406 11 L 20.289062 6.730469 C 20.40625 6.597656 20.609375 6.5625 20.761719 6.664062 C 20.914062 6.78125 20.945312 7 20.828125 7.136719 L 17.605469 11.402344 C 17.554688 11.488281 17.453125 11.539062 17.335938 11.539062 Z M 17.335938 11.539062 " fill-opacity="1" fill-rule="evenodd"/><path fill="#31ac7d" d="M 7.570312 24.242188 C 7.5 24.242188 7.433594 24.222656 7.367188 24.175781 C 7.214844 24.054688 7.199219 23.851562 7.300781 23.703125 L 11.078125 18.84375 C 11.179688 18.691406 11.398438 18.65625 11.550781 18.777344 C 11.683594 18.894531 11.71875 19.097656 11.601562 19.246094 L 7.839844 24.105469 C 7.769531 24.207031 7.671875 24.242188 7.570312 24.242188 Z M 10.910156 11.945312 C 10.808594 11.945312 10.722656 11.910156 10.65625 11.84375 L 4.296875 5.363281 C 4.160156 5.230469 4.160156 5.011719 4.296875 4.875 C 4.429688 4.757812 4.652344 4.757812 4.785156 4.890625 L 11.144531 11.371094 C 11.28125 11.503906 11.28125 11.722656 11.144531 11.859375 C 11.078125 11.910156 10.992188 11.945312 10.910156 11.945312 Z M 10.910156 11.945312 " fill-opacity="1" fill-rule="evenodd"/><path fill="#31ac7d" d="M 19.257812 14.761719 C 19.089844 14.761719 18.9375 14.625 18.921875 14.457031 C 18.90625 14.273438 19.023438 14.101562 19.207031 14.085938 L 22.449219 13.679688 C 22.632812 13.664062 22.800781 13.78125 22.835938 13.96875 C 22.851562 14.152344 22.71875 14.320312 22.53125 14.355469 L 19.292969 14.742188 C 19.277344 14.761719 19.257812 14.761719 19.257812 14.761719 Z M 13.640625 10.578125 C 13.472656 10.578125 13.339844 10.460938 13.304688 10.289062 L 13.050781 8.484375 C 13.019531 8.300781 13.152344 8.132812 13.339844 8.113281 C 13.523438 8.082031 13.691406 8.214844 13.710938 8.402344 L 13.980469 10.207031 C 14.011719 10.390625 13.878906 10.558594 13.691406 10.578125 C 13.675781 10.578125 13.660156 10.578125 13.640625 10.578125 Z M 13.640625 10.578125 " fill-opacity="1" fill-rule="evenodd"/><path fill="#31ac7d" d="M 15.445312 22.875 C 15.296875 22.875 15.144531 22.757812 15.125 22.589844 L 14.753906 20.074219 C 14.722656 19.890625 14.855469 19.71875 15.042969 19.6875 C 15.226562 19.667969 15.394531 19.789062 15.414062 19.972656 L 15.785156 22.488281 C 15.816406 22.671875 15.683594 22.839844 15.496094 22.875 C 15.480469 22.875 15.464844 22.875 15.445312 22.875 Z M 8.109375 16.480469 C 7.941406 16.480469 7.804688 16.363281 7.769531 16.195312 C 7.753906 16.007812 7.871094 15.839844 8.058594 15.804688 L 9.425781 15.585938 C 9.609375 15.554688 9.777344 15.671875 9.8125 15.855469 C 9.847656 16.042969 9.726562 16.210938 9.542969 16.246094 L 8.160156 16.464844 C 8.144531 16.480469 8.125 16.480469 8.109375 16.480469 Z M 8.109375 16.480469 " fill-opacity="1" fill-rule="evenodd"/><path fill="#31ac7d" d="M 12.496094 16.820312 L 10.859375 16.820312 C 10.671875 16.820312 10.519531 16.667969 10.519531 16.480469 C 10.519531 16.296875 10.671875 16.144531 10.859375 16.144531 L 11.332031 16.144531 L 11.332031 14.136719 L 10.859375 14.136719 C 10.671875 14.136719 10.519531 13.984375 10.519531 13.800781 C 10.519531 13.613281 10.671875 13.460938 10.859375 13.460938 L 12.496094 13.460938 C 12.679688 13.460938 12.832031 13.613281 12.832031 13.800781 C 12.832031 13.984375 12.679688 14.136719 12.496094 14.136719 L 12.003906 14.136719 L 12.003906 16.144531 L 12.496094 16.144531 C 12.679688 16.144531 12.832031 16.296875 12.832031 16.480469 C 12.832031 16.667969 12.679688 16.820312 12.496094 16.820312 Z M 12.496094 16.820312 " fill-opacity="1" fill-rule="evenodd"/></svg>