<svg xmlns="http://www.w3.org/2000/svg" xmlns:xlink="http://www.w3.org/1999/xlink" width="40" zoomAndPan="magnify" viewBox="0 0 30 30.000001" height="40" preserveAspectRatio="xMidYMid meet" version="1.0"><defs><clipPath id="511f393f2e"><path d="M 5.925781 0 L 23 0 L 23 29.03125 L 5.925781 29.03125 Z M 5.925781 0 " clip-rule="nonzero"/></clipPath><clipPath id="e43a917982"><path d="M 13 12 L 24.074219 12 L 24.074219 24 L 13 24 Z M 13 12 " clip-rule="nonzero"/></clipPath></defs><path fill="#31ac7d" d="M 12.277344 27.21875 L 15.90625 27.21875 C 16.15625 27.21875 16.359375 27.015625 16.359375 26.765625 C 16.359375 26.511719 16.15625 26.308594 15.90625 26.308594 L 12.277344 26.308594 C 12.027344 26.308594 11.824219 26.511719 11.824219 26.765625 C 11.824219 27.015625 12.027344 27.21875 12.277344 27.21875 Z M 12.277344 27.21875 " fill-opacity="1" fill-rule="nonzero"/><path fill="#31ac7d" d="M 12.730469 2.269531 C 12.730469 2.394531 12.6875 2.5 12.597656 2.589844 C 12.511719 2.675781 12.402344 2.722656 12.277344 2.722656 C 12.152344 2.722656 12.046875 2.675781 11.957031 2.589844 C 11.867188 2.5 11.824219 2.394531 11.824219 2.269531 C 11.824219 2.144531 11.867188 2.035156 11.957031 1.949219 C 12.046875 1.859375 12.152344 1.816406 12.277344 1.816406 C 12.402344 1.816406 12.511719 1.859375 12.597656 1.949219 C 12.6875 2.035156 12.730469 2.144531 12.730469 2.269531 Z M 12.730469 2.269531 " fill-opacity="1" fill-rule="nonzero"/><path fill="#31ac7d" d="M 14.546875 2.269531 C 14.546875 2.394531 14.503906 2.5 14.414062 2.589844 C 14.324219 2.675781 14.21875 2.722656 14.09375 2.722656 C 13.96875 2.722656 13.859375 2.675781 13.773438 2.589844 C 13.683594 2.5 13.640625 2.394531 13.640625 2.269531 C 13.640625 2.144531 13.683594 2.035156 13.773438 1.949219 C 13.859375 1.859375 13.96875 1.816406 14.09375 1.816406 C 14.21875 1.816406 14.324219 1.859375 14.414062 1.949219 C 14.503906 2.035156 14.546875 2.144531 14.546875 2.269531 Z M 14.546875 2.269531 " fill-opacity="1" fill-rule="nonzero"/><path fill="#31ac7d" d="M 16.359375 2.269531 C 16.359375 2.394531 16.316406 2.5 16.226562 2.589844 C 16.140625 2.675781 16.03125 2.722656 15.90625 2.722656 C 15.78125 2.722656 15.675781 2.675781 15.585938 2.589844 C 15.496094 2.5 15.453125 2.394531 15.453125 2.269531 C 15.453125 2.144531 15.496094 2.035156 15.585938 1.949219 C 15.675781 1.859375 15.78125 1.816406 15.90625 1.816406 C 16.03125 1.816406 16.140625 1.859375 16.226562 1.949219 C 16.316406 2.035156 16.359375 2.144531 16.359375 2.269531 Z M 16.359375 2.269531 " fill-opacity="1" fill-rule="nonzero"/><g clip-path="url(#511f393f2e)"><path fill="#31ac7d" d="M 20.460938 0 L 7.726562 0 C 6.734375 0 5.925781 0.8125 5.925781 1.816406 L 5.925781 27.21875 C 5.925781 28.21875 6.734375 29.03125 7.726562 29.03125 L 20.460938 29.03125 C 21.453125 29.03125 22.257812 28.21875 22.257812 27.21875 L 22.257812 24.496094 L 6.835938 24.496094 L 6.835938 4.535156 L 21.351562 4.535156 L 21.351562 11.792969 L 22.257812 11.792969 L 22.257812 1.816406 C 22.257812 0.8125 21.453125 0 20.460938 0 Z M 21.351562 25.402344 L 21.351562 27.21875 C 21.351562 27.71875 20.949219 28.125 20.460938 28.125 L 7.726562 28.125 C 7.234375 28.125 6.835938 27.71875 6.835938 27.21875 L 6.835938 25.402344 Z M 21.351562 3.628906 L 6.835938 3.628906 L 6.835938 1.816406 C 6.835938 1.3125 7.234375 0.90625 7.726562 0.90625 L 20.460938 0.90625 C 20.949219 0.90625 21.351562 1.3125 21.351562 1.816406 Z M 21.351562 3.628906 " fill-opacity="1" fill-rule="nonzero"/></g><g clip-path="url(#e43a917982)"><path fill="#31ac7d" d="M 24.074219 14.515625 C 24.074219 13.515625 23.261719 12.703125 22.257812 12.703125 L 15 12.703125 C 13.996094 12.703125 13.183594 13.515625 13.183594 14.515625 L 13.183594 21.773438 C 13.183594 22.777344 13.996094 23.589844 15 23.589844 L 22.257812 23.589844 C 23.261719 23.589844 24.074219 22.777344 24.074219 21.773438 Z M 23.164062 21.773438 C 23.164062 22.273438 22.757812 22.679688 22.257812 22.679688 L 15 22.679688 C 14.5 22.679688 14.09375 22.273438 14.09375 21.773438 L 14.09375 14.515625 C 14.09375 14.015625 14.5 13.609375 15 13.609375 L 22.257812 13.609375 C 22.757812 13.609375 23.164062 14.015625 23.164062 14.515625 Z M 23.164062 21.773438 " fill-opacity="1" fill-rule="nonzero"/></g><path fill="#31ac7d" d="M 17.753906 11.792969 C 18.738281 11.792969 19.535156 10.996094 19.535156 10.011719 L 19.535156 7.226562 C 19.535156 6.242188 18.738281 5.445312 17.753906 5.445312 L 14.96875 5.445312 C 13.984375 5.445312 13.183594 6.242188 13.183594 7.226562 L 13.183594 10.011719 C 13.183594 10.996094 13.984375 11.792969 14.96875 11.792969 Z M 14.09375 10.011719 L 14.09375 7.226562 C 14.09375 6.742188 14.484375 6.351562 14.96875 6.351562 L 17.753906 6.351562 C 18.238281 6.351562 18.628906 6.742188 18.628906 7.226562 L 18.628906 10.011719 C 18.628906 10.496094 18.238281 10.886719 17.753906 10.886719 L 14.96875 10.886719 C 14.484375 10.886719 14.09375 10.496094 14.09375 10.011719 Z M 14.09375 10.011719 " fill-opacity="1" fill-rule="nonzero"/><path fill="#31ac7d" d="M 9.015625 12.703125 C 8.3125 12.703125 7.742188 13.273438 7.742188 13.976562 L 7.742188 15.964844 C 7.742188 16.667969 8.3125 17.238281 9.015625 17.238281 L 11.003906 17.238281 C 11.707031 17.238281 12.277344 16.667969 12.277344 15.964844 L 12.277344 13.976562 C 12.277344 13.273438 11.707031 12.703125 11.003906 12.703125 Z M 11.371094 13.976562 L 11.371094 15.964844 C 11.371094 16.167969 11.207031 16.332031 11.003906 16.332031 L 9.015625 16.332031 C 8.8125 16.332031 8.648438 16.167969 8.648438 15.964844 L 8.648438 13.976562 C 8.648438 13.773438 8.8125 13.609375 9.015625 13.609375 L 11.003906 13.609375 C 11.207031 13.609375 11.371094 13.773438 11.371094 13.976562 Z M 11.371094 13.976562 " fill-opacity="1" fill-rule="nonzero"/><path fill="#31ac7d" d="M 21.632812 15.910156 C 20.757812 16.269531 19.957031 16.855469 19.359375 17.324219 C 18.53125 17.976562 17.8125 18.703125 17.378906 19.175781 C 16.882812 18.292969 16.484375 17.785156 15.742188 17.171875 C 15.550781 17.011719 15.265625 17.039062 15.105469 17.230469 C 14.945312 17.421875 14.972656 17.710938 15.164062 17.871094 C 15.945312 18.519531 16.265625 18.992188 16.886719 20.171875 C 16.957031 20.304688 17.089844 20.394531 17.242188 20.410156 C 17.257812 20.414062 17.273438 20.414062 17.289062 20.414062 C 17.421875 20.414062 17.550781 20.355469 17.636719 20.25 C 17.648438 20.238281 18.664062 19.023438 19.917969 18.039062 C 20.472656 17.605469 21.203125 17.066406 21.976562 16.75 C 22.207031 16.65625 22.320312 16.390625 22.222656 16.160156 C 22.128906 15.925781 21.863281 15.816406 21.632812 15.910156 Z M 21.632812 15.910156 " fill-opacity="1" fill-rule="nonzero"/></svg>