<svg xmlns="http://www.w3.org/2000/svg" xmlns:xlink="http://www.w3.org/1999/xlink" width="40" zoomAndPan="magnify" viewBox="0 0 30 30.000001" height="40" preserveAspectRatio="xMidYMid meet" version="1.0"><defs><clipPath id="6cb79303ea"><path d="M 0.484375 0 L 29.515625 0 L 29.515625 29.03125 L 0.484375 29.03125 Z M 0.484375 0 " clip-rule="nonzero"/></clipPath></defs><path fill="#31ac7d" d="M 25.160156 19.355469 C 25.429688 19.355469 25.644531 19.136719 25.644531 18.871094 L 25.644531 18.386719 C 25.644531 18.121094 25.429688 17.902344 25.160156 17.902344 C 24.894531 17.902344 24.675781 18.121094 24.675781 18.386719 L 24.675781 18.871094 C 24.675781 19.136719 24.894531 19.355469 25.160156 19.355469 " fill-opacity="1" fill-rule="nonzero"/><path fill="#31ac7d" d="M 24.195312 19.355469 L 23.710938 19.355469 C 23.441406 19.355469 23.226562 19.570312 23.226562 19.839844 C 23.226562 20.105469 23.441406 20.324219 23.710938 20.324219 L 24.195312 20.324219 C 24.460938 20.324219 24.675781 20.105469 24.675781 19.839844 C 24.675781 19.570312 24.460938 19.355469 24.195312 19.355469 " fill-opacity="1" fill-rule="nonzero"/><path fill="#31ac7d" d="M 25.160156 20.324219 C 24.894531 20.324219 24.675781 20.539062 24.675781 20.804688 L 24.675781 21.289062 C 24.675781 21.558594 24.894531 21.773438 25.160156 21.773438 C 25.429688 21.773438 25.644531 21.558594 25.644531 21.289062 L 25.644531 20.804688 C 25.644531 20.539062 25.429688 20.324219 25.160156 20.324219 " fill-opacity="1" fill-rule="nonzero"/><path fill="#31ac7d" d="M 27.097656 19.839844 C 27.097656 19.570312 26.878906 19.355469 26.613281 19.355469 L 26.128906 19.355469 C 25.863281 19.355469 25.644531 19.570312 25.644531 19.839844 C 25.644531 20.105469 25.863281 20.324219 26.128906 20.324219 L 26.613281 20.324219 C 26.878906 20.324219 27.097656 20.105469 27.097656 19.839844 " fill-opacity="1" fill-rule="nonzero"/><path fill="#31ac7d" d="M 16.933594 19.355469 L 15.96875 19.355469 L 15.96875 18.386719 C 15.96875 18.121094 15.75 17.902344 15.484375 17.902344 C 15.21875 17.902344 15 18.121094 15 18.386719 L 15 19.355469 L 14.03125 19.355469 C 13.765625 19.355469 13.546875 19.570312 13.546875 19.839844 C 13.546875 20.105469 13.765625 20.324219 14.03125 20.324219 L 15 20.324219 L 15 21.289062 C 15 21.558594 15.21875 21.773438 15.484375 21.773438 C 15.75 21.773438 15.96875 21.558594 15.96875 21.289062 L 15.96875 20.324219 L 16.933594 20.324219 C 17.203125 20.324219 17.417969 20.105469 17.417969 19.839844 C 17.417969 19.570312 17.203125 19.355469 16.933594 19.355469 " fill-opacity="1" fill-rule="nonzero"/><path fill="#31ac7d" d="M 19.355469 21.289062 L 18.871094 21.289062 C 18.605469 21.289062 18.386719 21.507812 18.386719 21.773438 C 18.386719 22.039062 18.605469 22.257812 18.871094 22.257812 L 19.355469 22.257812 C 19.621094 22.257812 19.839844 22.039062 19.839844 21.773438 C 19.839844 21.507812 19.621094 21.289062 19.355469 21.289062 " fill-opacity="1" fill-rule="nonzero"/><path fill="#31ac7d" d="M 21.773438 21.289062 L 21.289062 21.289062 C 21.023438 21.289062 20.804688 21.507812 20.804688 21.773438 C 20.804688 22.039062 21.023438 22.257812 21.289062 22.257812 L 21.773438 22.257812 C 22.039062 22.257812 22.257812 22.039062 22.257812 21.773438 C 22.257812 21.507812 22.039062 21.289062 21.773438 21.289062 " fill-opacity="1" fill-rule="nonzero"/><g clip-path="url(#6cb79303ea)"><path fill="#31ac7d" d="M 28.546875 26.414062 C 28.546875 26.855469 28.375 27.269531 28.066406 27.582031 C 27.753906 27.890625 27.339844 28.066406 26.898438 28.066406 C 26.304688 28.066406 25.75 27.742188 25.457031 27.21875 L 23.648438 23.96875 C 23.394531 23.511719 22.910156 23.226562 22.382812 23.226562 L 18.265625 23.226562 C 17.738281 23.226562 17.25 23.511719 16.996094 23.96875 L 15.1875 27.21875 C 14.894531 27.742188 14.34375 28.066406 13.746094 28.066406 C 13.304688 28.066406 12.890625 27.890625 12.578125 27.582031 C 12.269531 27.269531 12.097656 26.855469 12.097656 26.414062 L 12.097656 22.5625 C 12.429688 22.976562 12.832031 23.335938 13.304688 23.609375 C 13.382812 23.65625 13.464844 23.675781 13.546875 23.675781 C 13.714844 23.675781 13.878906 23.589844 13.964844 23.433594 C 14.101562 23.203125 14.019531 22.90625 13.789062 22.773438 C 12.765625 22.179688 12.121094 21.082031 12.101562 19.898438 C 12.140625 18.003906 13.628906 16.464844 15.457031 16.453125 C 15.464844 16.453125 15.472656 16.453125 15.484375 16.453125 C 16.5 16.453125 17.441406 16.898438 18.085938 17.675781 C 18.402344 18.058594 18.640625 18.511719 18.765625 18.992188 C 18.820312 19.210938 19.015625 19.355469 19.230469 19.355469 C 19.273438 19.355469 19.3125 19.347656 19.351562 19.339844 C 19.613281 19.273438 19.769531 19.007812 19.703125 18.75 C 19.625 18.457031 19.515625 18.171875 19.378906 17.902344 L 21.265625 17.902344 C 21.128906 18.171875 21.019531 18.457031 20.941406 18.75 C 20.875 19.007812 21.035156 19.273438 21.292969 19.339844 C 21.332031 19.347656 21.371094 19.355469 21.414062 19.355469 C 21.628906 19.355469 21.824219 19.210938 21.878906 18.992188 C 22.003906 18.511719 22.242188 18.058594 22.558594 17.675781 C 23.203125 16.898438 24.144531 16.453125 25.160156 16.453125 C 25.171875 16.453125 25.179688 16.453125 25.191406 16.453125 C 27.015625 16.464844 28.503906 18.003906 28.542969 19.898438 C 28.523438 21.082031 27.882812 22.179688 26.855469 22.773438 C 26.625 22.90625 26.542969 23.203125 26.679688 23.433594 C 26.769531 23.589844 26.929688 23.675781 27.097656 23.675781 C 27.179688 23.675781 27.261719 23.65625 27.339844 23.609375 C 27.8125 23.335938 28.214844 22.976562 28.546875 22.5625 Z M 2.417969 23.226562 C 1.886719 23.226562 1.453125 22.792969 1.453125 22.257812 L 1.453125 20.324219 L 11.128906 20.324219 L 11.128906 23.226562 Z M 2.417969 0.96875 L 15 0.96875 C 15.53125 0.96875 15.96875 1.402344 15.96875 1.933594 L 15.96875 3.871094 L 1.453125 3.871094 L 1.453125 1.933594 C 1.453125 1.402344 1.886719 0.96875 2.417969 0.96875 Z M 15.449219 15.484375 C 13.273438 15.5 11.472656 17.1875 11.175781 19.355469 L 1.453125 19.355469 L 1.453125 4.839844 L 15.96875 4.839844 L 15.96875 15.519531 C 15.796875 15.496094 15.625 15.484375 15.449219 15.484375 Z M 29.507812 19.792969 C 29.414062 17.417969 27.519531 15.503906 25.195312 15.484375 C 25.183594 15.484375 25.171875 15.484375 25.160156 15.484375 C 23.910156 15.484375 22.742188 16.007812 21.914062 16.933594 L 18.730469 16.933594 C 18.238281 16.382812 17.617188 15.984375 16.933594 15.742188 L 16.933594 1.933594 C 16.933594 0.867188 16.066406 0 15 0 L 2.417969 0 C 1.351562 0 0.484375 0.867188 0.484375 1.933594 L 0.484375 22.257812 C 0.484375 23.324219 1.351562 24.195312 2.417969 24.195312 L 11.128906 24.195312 L 11.128906 26.414062 C 11.128906 27.117188 11.402344 27.773438 11.894531 28.265625 C 12.386719 28.761719 13.046875 29.03125 13.746094 29.03125 C 14.691406 29.03125 15.566406 28.519531 16.03125 27.691406 L 17.839844 24.441406 C 17.925781 24.289062 18.089844 24.195312 18.265625 24.195312 L 22.382812 24.195312 C 22.558594 24.195312 22.71875 24.289062 22.804688 24.441406 L 24.613281 27.691406 C 25.078125 28.519531 25.953125 29.03125 26.898438 29.03125 C 27.597656 29.03125 28.257812 28.761719 28.75 28.265625 C 29.242188 27.773438 29.515625 27.117188 29.515625 26.414062 L 29.515625 19.976562 C 29.515625 19.949219 29.511719 19.921875 29.511719 19.898438 C 29.511719 19.878906 29.515625 19.859375 29.515625 19.839844 C 29.515625 19.824219 29.507812 19.808594 29.507812 19.792969 " fill-opacity="1" fill-rule="nonzero"/></g><path fill="#31ac7d" d="M 10.160156 2.902344 L 10.644531 2.902344 C 10.910156 2.902344 11.128906 2.6875 11.128906 2.417969 C 11.128906 2.152344 10.910156 1.933594 10.644531 1.933594 L 10.160156 1.933594 C 9.894531 1.933594 9.675781 2.152344 9.675781 2.417969 C 9.675781 2.6875 9.894531 2.902344 10.160156 2.902344 " fill-opacity="1" fill-rule="nonzero"/><path fill="#31ac7d" d="M 6.773438 2.902344 L 8.226562 2.902344 C 8.492188 2.902344 8.710938 2.6875 8.710938 2.417969 C 8.710938 2.152344 8.492188 1.933594 8.226562 1.933594 L 6.773438 1.933594 C 6.507812 1.933594 6.289062 2.152344 6.289062 2.417969 C 6.289062 2.6875 6.507812 2.902344 6.773438 2.902344 " fill-opacity="1" fill-rule="nonzero"/><path fill="#31ac7d" d="M 9.195312 21.289062 L 8.226562 21.289062 C 7.960938 21.289062 7.742188 21.507812 7.742188 21.773438 C 7.742188 22.039062 7.960938 22.257812 8.226562 22.257812 L 9.195312 22.257812 C 9.460938 22.257812 9.675781 22.039062 9.675781 21.773438 C 9.675781 21.507812 9.460938 21.289062 9.195312 21.289062 " fill-opacity="1" fill-rule="nonzero"/><path fill="#31ac7d" d="M 6.148438 8.367188 C 5.960938 8.179688 5.652344 8.179688 5.464844 8.367188 L 2.5625 11.269531 C 2.371094 11.460938 2.371094 11.765625 2.5625 11.953125 L 5.464844 14.859375 C 5.558594 14.953125 5.683594 15 5.804688 15 C 5.929688 15 6.054688 14.953125 6.148438 14.859375 C 6.335938 14.667969 6.335938 14.363281 6.148438 14.175781 L 3.585938 11.613281 L 6.148438 9.050781 C 6.335938 8.863281 6.335938 8.554688 6.148438 8.367188 " fill-opacity="1" fill-rule="nonzero"/><path fill="#31ac7d" d="M 11.953125 8.367188 C 11.765625 8.179688 11.460938 8.179688 11.269531 8.367188 C 11.082031 8.554688 11.082031 8.863281 11.269531 9.050781 L 13.832031 11.613281 L 11.269531 14.175781 C 11.082031 14.363281 11.082031 14.667969 11.269531 14.859375 C 11.367188 14.953125 11.488281 15 11.613281 15 C 11.738281 15 11.859375 14.953125 11.953125 14.859375 L 14.859375 11.953125 C 15.046875 11.765625 15.046875 11.460938 14.859375 11.269531 L 11.953125 8.367188 " fill-opacity="1" fill-rule="nonzero"/><path fill="#31ac7d" d="M 9.832031 8.25 C 9.574219 8.164062 9.304688 8.304688 9.21875 8.554688 L 7.28125 14.363281 C 7.199219 14.617188 7.335938 14.890625 7.589844 14.976562 C 7.640625 14.992188 7.691406 15 7.742188 15 C 7.945312 15 8.132812 14.871094 8.203125 14.667969 L 10.136719 8.863281 C 10.21875 8.609375 10.082031 8.335938 9.832031 8.25 " fill-opacity="1" fill-rule="nonzero"/></svg>