<svg xmlns="http://www.w3.org/2000/svg" xmlns:xlink="http://www.w3.org/1999/xlink" width="40" zoomAndPan="magnify" viewBox="0 0 30 30.000001" height="40" preserveAspectRatio="xMidYMid meet" version="1.0"><defs><clipPath id="ab5386583e"><path d="M 0.484375 0.273438 L 29.515625 0.273438 L 29.515625 26 L 0.484375 26 Z M 0.484375 0.273438 " clip-rule="nonzero"/></clipPath></defs><path fill="#31ac7d" d="M 12.761719 1.84375 C 12.394531 1.84375 12.09375 2.144531 12.09375 2.515625 C 12.09375 2.882812 12.394531 3.183594 12.761719 3.183594 L 17.15625 3.183594 C 17.527344 3.183594 17.828125 2.882812 17.828125 2.515625 C 17.828125 2.144531 17.527344 1.84375 17.15625 1.84375 Z M 12.761719 1.84375 " fill-opacity="1" fill-rule="nonzero"/><path fill="#31ac7d" d="M 12.804688 22.527344 C 12.679688 22.527344 12.582031 22.628906 12.582031 22.75 C 12.582031 22.875 12.679688 22.972656 12.804688 22.972656 L 17.117188 22.972656 C 17.242188 22.972656 17.339844 22.875 17.339844 22.75 C 17.339844 22.628906 17.242188 22.527344 17.117188 22.527344 Z M 12.804688 22.527344 " fill-opacity="1" fill-rule="nonzero"/><path fill="#31ac7d" d="M 2.878906 15.175781 C 2.632812 15.175781 2.433594 15.371094 2.433594 15.617188 C 2.433594 15.859375 2.632812 16.058594 2.878906 16.058594 C 3.121094 16.058594 3.320312 15.859375 3.320312 15.617188 C 3.320312 15.371094 3.121094 15.175781 2.878906 15.175781 Z M 3.09375 15.617188 Z M 3.09375 15.617188 " fill-opacity="1" fill-rule="nonzero"/><path fill="#31ac7d" d="M 4.855469 15.617188 C 4.855469 15.371094 4.660156 15.175781 4.414062 15.175781 C 4.171875 15.175781 3.972656 15.371094 3.972656 15.617188 C 3.972656 15.859375 4.171875 16.058594 4.414062 16.058594 C 4.660156 16.058594 4.855469 15.859375 4.855469 15.617188 Z M 4.855469 15.617188 " fill-opacity="1" fill-rule="nonzero"/><path fill="#31ac7d" d="M 5.753906 16.011719 C 5.816406 16.042969 5.886719 16.058594 5.953125 16.058594 C 6 16.058594 6.046875 16.050781 6.089844 16.035156 C 6.203125 16 6.292969 15.921875 6.347656 15.816406 C 6.402344 15.710938 6.410156 15.589844 6.375 15.476562 C 6.371094 15.476562 6.371094 15.476562 6.371094 15.476562 C 6.296875 15.246094 6.046875 15.117188 5.816406 15.195312 C 5.585938 15.273438 5.457031 15.523438 5.535156 15.753906 C 5.570312 15.867188 5.648438 15.957031 5.753906 16.011719 Z M 6.160156 15.546875 Z M 6.160156 15.546875 " fill-opacity="1" fill-rule="nonzero"/><g clip-path="url(#ab5386583e)"><path fill="#31ac7d" d="M 1.238281 10.515625 L 5.730469 10.515625 C 6.117188 10.515625 6.433594 10.199219 6.433594 9.8125 L 6.433594 7.394531 L 8.226562 7.394531 L 8.226562 8.125 L 8.203125 8.125 C 8.019531 8.125 7.871094 8.273438 7.871094 8.460938 L 7.871094 10.050781 C 7.871094 10.234375 8.019531 10.386719 8.203125 10.386719 L 8.226562 10.386719 L 8.226562 19.40625 L 4.84375 19.40625 C 4.777344 19.40625 4.722656 19.351562 4.722656 19.289062 L 4.722656 17.320312 L 6.613281 17.320312 C 7.136719 17.320312 7.5625 16.894531 7.5625 16.371094 L 7.5625 14.859375 C 7.5625 14.335938 7.136719 13.910156 6.613281 13.910156 L 2.21875 13.910156 C 1.695312 13.910156 1.269531 14.335938 1.269531 14.859375 L 1.269531 16.371094 C 1.269531 16.894531 1.695312 17.320312 2.21875 17.320312 L 4.277344 17.320312 L 4.277344 19.289062 C 4.277344 19.597656 4.53125 19.851562 4.84375 19.851562 L 8.226562 19.851562 C 8.226562 19.945312 8.226562 24.230469 8.226562 24.074219 C 8.226562 24.75 8.777344 25.300781 9.457031 25.300781 L 20.460938 25.300781 C 21.144531 25.300781 21.699219 24.75 21.699219 24.074219 C 21.699219 22.796875 21.703125 28.703125 21.691406 11.582031 L 23.84375 11.582031 L 23.84375 11.75 C 23.84375 11.949219 24.007812 12.109375 24.207031 12.109375 C 26.457031 12.109375 27.703125 12.109375 29.195312 12.109375 C 29.398438 12.109375 29.554688 11.953125 29.554688 11.75 C 29.554688 11.636719 29.554688 6.917969 29.554688 7.015625 C 29.554688 6.675781 29.28125 6.398438 28.941406 6.398438 L 24.460938 6.398438 C 24.121094 6.398438 23.84375 6.675781 23.84375 7.015625 C 23.84375 7.117188 23.84375 11.265625 23.84375 11.136719 L 18.109375 11.136719 L 18.109375 10.660156 C 18.109375 10.386719 17.886719 10.160156 17.609375 10.160156 L 16.222656 10.160156 C 15.945312 10.160156 15.722656 10.386719 15.722656 10.660156 L 15.722656 12.046875 C 15.722656 12.324219 15.945312 12.546875 16.222656 12.546875 L 17.609375 12.546875 C 17.886719 12.546875 18.109375 12.324219 18.109375 12.046875 L 18.109375 11.582031 L 21.246094 11.582031 C 21.246094 13.828125 21.246094 20.917969 21.246094 23.257812 C 21.21875 23.671875 20.871094 23.996094 20.460938 23.996094 L 9.449219 23.996094 C 9.019531 23.996094 8.671875 23.644531 8.671875 23.210938 L 8.671875 19.851562 L 14.90625 19.851562 C 15.21875 19.851562 15.46875 19.597656 15.46875 19.289062 L 15.46875 18.351562 C 15.824219 18.242188 16.105469 17.960938 16.195312 17.589844 C 16.199219 17.574219 16.1875 17.558594 16.1875 17.539062 L 17.460938 17.539062 C 18.460938 17.539062 19.28125 16.726562 19.28125 15.726562 C 19.28125 14.726562 18.460938 13.914062 17.460938 13.914062 L 12.832031 13.914062 C 11.832031 13.914062 11.019531 14.726562 11.019531 15.726562 C 11.019531 16.726562 11.832031 17.539062 12.832031 17.539062 L 14.117188 17.539062 C 14.117188 17.558594 14.101562 17.574219 14.109375 17.589844 C 14.210938 18.027344 14.582031 18.332031 15.023438 18.382812 L 15.023438 19.289062 C 15.023438 19.351562 14.972656 19.40625 14.90625 19.40625 L 8.671875 19.40625 L 8.671875 7.394531 L 12.664062 7.394531 C 12.835938 7.394531 12.976562 7.539062 12.976562 7.714844 L 12.976562 10.160156 L 12.398438 10.160156 C 12.125 10.160156 11.898438 10.386719 11.898438 10.660156 L 11.898438 12.046875 C 11.898438 12.324219 12.125 12.546875 12.398438 12.546875 L 13.785156 12.546875 C 14.0625 12.546875 14.285156 12.324219 14.285156 12.046875 L 14.285156 10.660156 C 14.285156 10.386719 14.0625 10.160156 13.785156 10.160156 L 13.421875 10.160156 L 13.421875 7.714844 C 13.421875 7.292969 13.082031 6.949219 12.664062 6.949219 L 8.671875 6.949219 L 8.671875 1.492188 C 8.671875 1.050781 9.019531 0.695312 9.449219 0.695312 L 20.460938 0.695312 C 20.894531 0.695312 21.246094 1.050781 21.246094 1.492188 L 21.246094 9.8125 C 21.246094 9.9375 21.34375 10.039062 21.46875 10.039062 C 21.59375 10.039062 21.691406 9.9375 21.691406 9.8125 L 21.691406 1.492188 C 21.691406 0.808594 21.140625 0.25 20.460938 0.25 L 9.449219 0.25 C 8.773438 0.25 8.226562 0.808594 8.226562 1.492188 L 8.226562 4.242188 L 8.203125 4.242188 C 8.019531 4.242188 7.871094 4.394531 7.871094 4.578125 L 7.871094 6.167969 C 7.871094 6.355469 8.019531 6.503906 8.203125 6.503906 L 8.226562 6.503906 L 8.226562 6.949219 L 6.433594 6.949219 L 6.433594 5.328125 C 6.433594 4.9375 6.117188 4.625 5.730469 4.625 L 1.238281 4.625 C 0.847656 4.625 0.53125 4.9375 0.53125 5.328125 L 0.53125 9.8125 C 0.53125 10.199219 0.847656 10.515625 1.238281 10.515625 Z M 1.714844 16.371094 L 1.714844 14.859375 C 1.714844 14.582031 1.941406 14.359375 2.21875 14.359375 L 6.613281 14.359375 C 6.890625 14.359375 7.117188 14.582031 7.117188 14.859375 L 7.117188 16.371094 C 7.117188 16.648438 6.890625 16.875 6.613281 16.875 L 2.21875 16.875 C 1.941406 16.875 1.714844 16.648438 1.714844 16.371094 Z M 24.460938 6.84375 L 28.941406 6.84375 C 29.035156 6.84375 29.109375 6.921875 29.109375 7.015625 L 29.109375 9.527344 C 29.03125 9.4375 28.480469 8.796875 28.558594 8.886719 C 28.402344 8.714844 28.121094 8.710938 27.957031 8.917969 L 27.195312 9.953125 L 26.066406 8.261719 C 25.917969 8.050781 25.605469 8.046875 25.453125 8.238281 L 24.292969 9.664062 L 24.292969 7.015625 C 24.292969 6.921875 24.367188 6.84375 24.460938 6.84375 Z M 12.734375 15.726562 C 12.734375 15.601562 12.832031 15.503906 12.957031 15.503906 L 17.308594 15.503906 C 17.433594 15.503906 17.53125 15.601562 17.53125 15.726562 C 17.53125 15.851562 17.433594 15.949219 17.308594 15.949219 L 12.957031 15.949219 C 12.832031 15.949219 12.734375 15.851562 12.734375 15.726562 Z M 14.5625 17.539062 L 15.738281 17.539062 C 15.550781 18.089844 14.753906 18.109375 14.5625 17.539062 Z M 0.980469 5.328125 C 0.980469 5.1875 1.097656 5.070312 1.238281 5.070312 L 5.730469 5.070312 C 5.871094 5.070312 5.988281 5.1875 5.988281 5.328125 L 5.988281 7.160156 C 5.988281 7.164062 5.984375 7.167969 5.984375 7.171875 C 5.984375 7.175781 5.988281 7.175781 5.988281 7.179688 L 5.988281 9.8125 C 5.988281 9.957031 5.875 10.070312 5.730469 10.070312 L 1.238281 10.070312 C 1.09375 10.070312 0.980469 9.957031 0.980469 9.8125 Z M 0.980469 5.328125 " fill-opacity="1" fill-rule="nonzero"/></g><path fill="#31ac7d" d="M 2.34375 7.371094 L 2.996094 8.46875 C 3.027344 8.523438 3.078125 8.5625 3.140625 8.574219 C 3.15625 8.578125 3.171875 8.578125 3.1875 8.578125 C 3.234375 8.578125 3.277344 8.5625 3.316406 8.535156 L 4.726562 7.523438 C 4.789062 7.558594 4.855469 7.582031 4.933594 7.582031 C 5.171875 7.582031 5.367188 7.386719 5.367188 7.148438 C 5.367188 6.90625 5.171875 6.710938 4.933594 6.710938 C 4.695312 6.710938 4.5 6.902344 4.496094 7.140625 L 3.253906 8.03125 L 2.726562 7.136719 C 2.761719 7.074219 2.785156 7.007812 2.785156 6.933594 C 2.785156 6.691406 2.589844 6.496094 2.347656 6.496094 C 2.105469 6.496094 1.910156 6.691406 1.910156 6.933594 C 1.910156 7.171875 2.105469 7.367188 2.34375 7.371094 Z M 2.34375 7.371094 " fill-opacity="1" fill-rule="nonzero"/></svg>