<svg xmlns="http://www.w3.org/2000/svg" xmlns:xlink="http://www.w3.org/1999/xlink" width="40" zoomAndPan="magnify" viewBox="0 0 30 30.000001" height="40" preserveAspectRatio="xMidYMid meet" version="1.0"><defs><clipPath id="9c4cd6acab"><path d="M 0.484375 0 L 29.515625 0 L 29.515625 29.03125 L 0.484375 29.03125 Z M 0.484375 0 " clip-rule="nonzero"/></clipPath></defs><g clip-path="url(#9c4cd6acab)"><path fill="#31ac7d" d="M 2.949219 6.519531 C 2.789062 6.558594 2.625 6.582031 2.453125 6.582031 C 1.367188 6.582031 0.484375 5.699219 0.484375 4.613281 C 0.484375 3.527344 1.367188 2.644531 2.453125 2.644531 C 3.539062 2.644531 4.421875 3.527344 4.421875 4.613281 C 4.421875 5.234375 4.132812 5.789062 3.683594 6.148438 L 4.261719 7.257812 L 6.449219 7.257812 L 6.449219 2.457031 C 6.449219 1.105469 7.554688 0 8.90625 0 L 21.09375 0 C 22.445312 0 23.550781 1.105469 23.550781 2.457031 L 23.550781 7.257812 L 25.738281 7.257812 L 26.316406 6.148438 C 25.867188 5.789062 25.578125 5.234375 25.578125 4.613281 C 25.578125 3.527344 26.460938 2.644531 27.546875 2.644531 C 28.632812 2.644531 29.515625 3.527344 29.515625 4.613281 C 29.515625 5.699219 28.632812 6.582031 27.546875 6.582031 C 27.375 6.582031 27.210938 6.558594 27.050781 6.519531 L 26.355469 7.859375 C 26.285156 7.996094 26.144531 8.082031 25.988281 8.082031 L 23.550781 8.082031 L 23.550781 13.546875 L 25.621094 13.546875 C 25.8125 12.65625 26.601562 11.988281 27.546875 11.988281 C 28.632812 11.988281 29.515625 12.871094 29.515625 13.957031 C 29.515625 15.042969 28.632812 15.925781 27.546875 15.925781 C 26.601562 15.925781 25.8125 15.257812 25.621094 14.371094 L 23.550781 14.371094 L 23.550781 19.835938 L 25.988281 19.835938 C 26.144531 19.835938 26.285156 19.921875 26.355469 20.054688 L 27.066406 21.421875 C 27.21875 21.382812 27.378906 21.363281 27.546875 21.363281 C 28.632812 21.363281 29.515625 22.246094 29.515625 23.332031 C 29.515625 24.417969 28.632812 25.300781 27.546875 25.300781 C 26.460938 25.300781 25.578125 24.417969 25.578125 23.332031 C 25.578125 22.707031 25.871094 22.148438 26.328125 21.785156 L 25.738281 20.65625 L 23.550781 20.65625 L 23.550781 26.574219 C 23.550781 27.925781 22.445312 29.03125 21.09375 29.03125 L 8.90625 29.03125 C 7.554688 29.03125 6.449219 27.925781 6.449219 26.574219 L 6.449219 20.65625 L 4.261719 20.65625 L 3.671875 21.785156 C 4.128906 22.148438 4.421875 22.707031 4.421875 23.332031 C 4.421875 24.417969 3.539062 25.300781 2.453125 25.300781 C 1.367188 25.300781 0.484375 24.417969 0.484375 23.332031 C 0.484375 22.246094 1.367188 21.363281 2.453125 21.363281 C 2.621094 21.363281 2.78125 21.382812 2.933594 21.421875 L 3.644531 20.054688 C 3.714844 19.921875 3.855469 19.835938 4.011719 19.835938 L 6.449219 19.835938 L 6.449219 14.371094 L 4.378906 14.371094 C 4.1875 15.257812 3.398438 15.925781 2.453125 15.925781 C 1.367188 15.925781 0.484375 15.042969 0.484375 13.957031 C 0.484375 12.871094 1.367188 11.988281 2.453125 11.988281 C 3.398438 11.988281 4.1875 12.65625 4.378906 13.546875 L 6.449219 13.546875 L 6.449219 8.082031 L 4.011719 8.082031 C 3.855469 8.082031 3.714844 7.996094 3.644531 7.859375 Z M 22.726562 26.574219 L 22.726562 2.457031 C 22.726562 1.558594 21.992188 0.824219 21.09375 0.824219 L 8.90625 0.824219 C 8.007812 0.824219 7.273438 1.558594 7.273438 2.457031 L 7.273438 26.574219 C 7.273438 27.472656 8.007812 28.210938 8.90625 28.210938 L 21.09375 28.210938 C 21.992188 28.210938 22.726562 27.472656 22.726562 26.574219 Z M 26.402344 13.957031 C 26.402344 14.589844 26.914062 15.105469 27.546875 15.105469 C 28.179688 15.105469 28.691406 14.589844 28.691406 13.957031 C 28.691406 13.324219 28.179688 12.8125 27.546875 12.8125 C 26.914062 12.8125 26.402344 13.324219 26.402344 13.957031 Z M 3.597656 13.957031 C 3.597656 13.324219 3.085938 12.8125 2.453125 12.8125 C 1.820312 12.8125 1.308594 13.324219 1.308594 13.957031 C 1.308594 14.589844 1.820312 15.105469 2.453125 15.105469 C 3.085938 15.105469 3.597656 14.589844 3.597656 13.957031 Z M 20.695312 15.378906 C 19.863281 15.378906 19.441406 16.390625 20.035156 16.980469 C 20.351562 17.296875 20.351562 17.8125 20.035156 18.128906 L 19.171875 18.992188 C 18.855469 19.308594 18.339844 19.308594 18.023438 18.992188 C 17.433594 18.402344 16.421875 18.820312 16.421875 19.65625 C 16.421875 20.105469 16.058594 20.464844 15.609375 20.464844 L 14.390625 20.464844 C 13.941406 20.464844 13.578125 20.105469 13.578125 19.65625 C 13.578125 18.820312 12.566406 18.402344 11.976562 18.992188 C 11.660156 19.308594 11.144531 19.308594 10.828125 18.992188 L 9.964844 18.128906 C 9.648438 17.8125 9.648438 17.296875 9.964844 16.980469 C 10.558594 16.390625 10.136719 15.378906 9.304688 15.378906 C 8.855469 15.378906 8.492188 15.015625 8.492188 14.566406 L 8.492188 13.347656 C 8.492188 12.898438 8.855469 12.535156 9.304688 12.535156 C 10.136719 12.535156 10.558594 11.523438 9.964844 10.933594 C 9.648438 10.617188 9.648438 10.105469 9.964844 9.785156 L 10.828125 8.925781 C 11.144531 8.605469 11.660156 8.605469 11.976562 8.925781 C 12.566406 9.515625 13.578125 9.097656 13.578125 8.261719 C 13.578125 7.8125 13.941406 7.449219 14.390625 7.449219 L 15.609375 7.449219 C 16.058594 7.449219 16.421875 7.8125 16.421875 8.261719 C 16.421875 9.097656 17.433594 9.515625 18.023438 8.925781 C 18.339844 8.609375 18.855469 8.609375 19.171875 8.925781 L 20.035156 9.785156 C 20.351562 10.105469 20.351562 10.617188 20.035156 10.933594 C 19.441406 11.523438 19.863281 12.535156 20.695312 12.535156 C 21.148438 12.535156 21.507812 12.898438 21.507812 13.347656 L 21.507812 14.566406 C 21.507812 15.015625 21.148438 15.378906 20.695312 15.378906 Z M 9.3125 13.359375 L 9.3125 14.554688 C 10.871094 14.566406 11.648438 16.449219 10.554688 17.554688 L 11.402344 18.402344 C 12.511719 17.308594 14.390625 18.085938 14.402344 19.644531 L 15.597656 19.644531 C 15.609375 18.089844 17.492188 17.308594 18.597656 18.402344 L 19.445312 17.554688 C 18.351562 16.449219 19.128906 14.566406 20.6875 14.554688 L 20.6875 13.359375 C 19.128906 13.351562 18.351562 11.46875 19.445312 10.359375 L 18.597656 9.511719 C 17.492188 10.609375 15.609375 9.828125 15.597656 8.273438 L 14.402344 8.273438 C 14.390625 9.828125 12.507812 10.609375 11.402344 9.515625 L 10.554688 10.359375 C 11.648438 11.46875 10.871094 13.351562 9.3125 13.359375 Z M 15 17.300781 C 13.160156 17.300781 11.660156 15.796875 11.660156 13.957031 C 11.660156 12.117188 13.160156 10.617188 15 10.617188 C 16.839844 10.617188 18.339844 12.117188 18.339844 13.957031 C 18.339844 15.796875 16.839844 17.300781 15 17.300781 Z M 15 16.476562 C 16.386719 16.476562 17.519531 15.34375 17.519531 13.957031 C 17.519531 12.570312 16.386719 11.441406 15 11.441406 C 13.613281 11.441406 12.480469 12.570312 12.480469 13.957031 C 12.480469 15.34375 13.613281 16.476562 15 16.476562 Z M 13.886719 26.191406 C 13.660156 26.191406 13.476562 26.007812 13.476562 25.78125 C 13.476562 25.554688 13.660156 25.371094 13.886719 25.371094 L 16.113281 25.371094 C 16.339844 25.371094 16.523438 25.554688 16.523438 25.78125 C 16.523438 26.007812 16.339844 26.191406 16.113281 26.191406 Z M 2.453125 22.1875 C 1.820312 22.1875 1.308594 22.699219 1.308594 23.332031 C 1.308594 23.964844 1.820312 24.476562 2.453125 24.476562 C 3.085938 24.476562 3.597656 23.964844 3.597656 23.332031 C 3.597656 22.699219 3.085938 22.1875 2.453125 22.1875 Z M 27.546875 3.46875 C 26.914062 3.46875 26.402344 3.980469 26.402344 4.613281 C 26.402344 5.246094 26.914062 5.757812 27.546875 5.757812 C 28.179688 5.757812 28.691406 5.246094 28.691406 4.613281 C 28.691406 3.980469 28.179688 3.46875 27.546875 3.46875 Z M 27.546875 22.1875 C 26.914062 22.1875 26.402344 22.699219 26.402344 23.332031 C 26.402344 23.964844 26.914062 24.476562 27.546875 24.476562 C 28.179688 24.476562 28.691406 23.964844 28.691406 23.332031 C 28.691406 22.699219 28.179688 22.1875 27.546875 22.1875 Z M 2.453125 3.46875 C 1.820312 3.46875 1.308594 3.980469 1.308594 4.613281 C 1.308594 5.246094 1.820312 5.757812 2.453125 5.757812 C 3.085938 5.757812 3.597656 5.246094 3.597656 4.613281 C 3.597656 3.980469 3.085938 3.46875 2.453125 3.46875 Z M 2.453125 3.46875 " fill-opacity="1" fill-rule="evenodd"/></g></svg>