<svg xmlns="http://www.w3.org/2000/svg" xmlns:xlink="http://www.w3.org/1999/xlink" width="40" zoomAndPan="magnify" viewBox="0 0 30 30.000001" height="40" preserveAspectRatio="xMidYMid meet" version="1.0"><defs><clipPath id="ef70f84341"><path d="M 6.289062 0 L 23.710938 0 L 23.710938 29.03125 L 6.289062 29.03125 Z M 6.289062 0 " clip-rule="nonzero"/></clipPath></defs><g clip-path="url(#ef70f84341)"><path fill="#31ac7d" d="M 7.257812 2.417969 C 7.257812 1.617188 7.910156 0.96875 8.710938 0.96875 L 11.128906 0.96875 L 11.128906 1.453125 C 11.128906 2.253906 11.777344 2.902344 12.582031 2.902344 L 17.417969 2.902344 C 18.222656 2.902344 18.871094 2.253906 18.871094 1.453125 L 18.871094 0.96875 L 21.289062 0.96875 C 22.089844 0.96875 22.742188 1.617188 22.742188 2.417969 L 22.742188 26.613281 C 22.742188 27.414062 22.089844 28.066406 21.289062 28.066406 L 8.710938 28.066406 C 7.910156 28.066406 7.257812 27.414062 7.257812 26.613281 Z M 12.097656 0.96875 L 17.902344 0.96875 L 17.902344 1.453125 C 17.902344 1.71875 17.6875 1.933594 17.417969 1.933594 L 12.582031 1.933594 C 12.3125 1.933594 12.097656 1.71875 12.097656 1.453125 Z M 8.710938 29.03125 L 21.289062 29.03125 C 22.625 29.03125 23.710938 27.949219 23.710938 26.613281 L 23.710938 2.417969 C 23.710938 1.085938 22.625 0 21.289062 0 L 8.710938 0 C 7.375 0 6.289062 1.085938 6.289062 2.417969 L 6.289062 26.613281 C 6.289062 27.949219 7.375 29.03125 8.710938 29.03125 " fill-opacity="1" fill-rule="nonzero"/></g><path fill="#31ac7d" d="M 18.386719 26.128906 L 11.613281 26.128906 C 11.347656 26.128906 11.128906 26.347656 11.128906 26.613281 C 11.128906 26.878906 11.347656 27.097656 11.613281 27.097656 L 18.386719 27.097656 C 18.652344 27.097656 18.871094 26.878906 18.871094 26.613281 C 18.871094 26.347656 18.652344 26.128906 18.386719 26.128906 " fill-opacity="1" fill-rule="nonzero"/><path fill="#31ac7d" d="M 11.792969 10.539062 C 11.882812 10.609375 11.992188 10.644531 12.097656 10.644531 C 12.238281 10.644531 12.378906 10.582031 12.476562 10.464844 C 12.640625 10.253906 12.605469 9.949219 12.398438 9.785156 L 10.453125 8.226562 L 12.398438 6.667969 C 12.605469 6.503906 12.640625 6.195312 12.476562 5.988281 C 12.304688 5.78125 12.003906 5.746094 11.792969 5.914062 L 9.375 7.847656 C 9.257812 7.941406 9.195312 8.078125 9.195312 8.226562 C 9.195312 8.375 9.257812 8.511719 9.375 8.605469 L 11.792969 10.539062 " fill-opacity="1" fill-rule="nonzero"/><path fill="#31ac7d" d="M 17.523438 10.464844 C 17.621094 10.582031 17.761719 10.644531 17.902344 10.644531 C 18.007812 10.644531 18.117188 10.609375 18.207031 10.539062 L 20.625 8.605469 C 20.742188 8.511719 20.804688 8.375 20.804688 8.226562 C 20.804688 8.078125 20.742188 7.941406 20.625 7.847656 L 18.207031 5.914062 C 17.996094 5.746094 17.695312 5.78125 17.523438 5.988281 C 17.359375 6.195312 17.394531 6.503906 17.601562 6.667969 L 19.546875 8.226562 L 17.601562 9.785156 C 17.394531 9.949219 17.359375 10.253906 17.523438 10.464844 " fill-opacity="1" fill-rule="nonzero"/><path fill="#31ac7d" d="M 14.421875 11.121094 C 14.453125 11.125 14.484375 11.128906 14.515625 11.128906 C 14.742188 11.128906 14.945312 10.96875 14.992188 10.738281 L 15.957031 5.902344 C 16.011719 5.640625 15.839844 5.386719 15.578125 5.332031 C 15.316406 5.277344 15.0625 5.449219 15.007812 5.710938 L 14.042969 10.550781 C 13.988281 10.8125 14.160156 11.066406 14.421875 11.121094 " fill-opacity="1" fill-rule="nonzero"/><path fill="#31ac7d" d="M 9.195312 14.515625 L 9.675781 14.515625 C 9.945312 14.515625 10.160156 14.296875 10.160156 14.03125 C 10.160156 13.765625 9.945312 13.546875 9.675781 13.546875 L 9.195312 13.546875 C 8.925781 13.546875 8.710938 13.765625 8.710938 14.03125 C 8.710938 14.296875 8.925781 14.515625 9.195312 14.515625 " fill-opacity="1" fill-rule="nonzero"/><path fill="#31ac7d" d="M 11.128906 14.03125 C 11.128906 14.296875 11.347656 14.515625 11.613281 14.515625 L 20.804688 14.515625 C 21.074219 14.515625 21.289062 14.296875 21.289062 14.03125 C 21.289062 13.765625 21.074219 13.546875 20.804688 13.546875 L 11.613281 13.546875 C 11.347656 13.546875 11.128906 13.765625 11.128906 14.03125 " fill-opacity="1" fill-rule="nonzero"/><path fill="#31ac7d" d="M 9.195312 20.324219 L 9.675781 20.324219 C 9.945312 20.324219 10.160156 20.105469 10.160156 19.839844 C 10.160156 19.570312 9.945312 19.355469 9.675781 19.355469 L 9.195312 19.355469 C 8.925781 19.355469 8.710938 19.570312 8.710938 19.839844 C 8.710938 20.105469 8.925781 20.324219 9.195312 20.324219 " fill-opacity="1" fill-rule="nonzero"/><path fill="#31ac7d" d="M 20.804688 19.355469 L 11.613281 19.355469 C 11.347656 19.355469 11.128906 19.570312 11.128906 19.839844 C 11.128906 20.105469 11.347656 20.324219 11.613281 20.324219 L 20.804688 20.324219 C 21.074219 20.324219 21.289062 20.105469 21.289062 19.839844 C 21.289062 19.570312 21.074219 19.355469 20.804688 19.355469 " fill-opacity="1" fill-rule="nonzero"/><path fill="#31ac7d" d="M 10.160156 16.453125 L 10.644531 16.453125 C 10.910156 16.453125 11.128906 16.234375 11.128906 15.96875 C 11.128906 15.703125 10.910156 15.484375 10.644531 15.484375 L 10.160156 15.484375 C 9.894531 15.484375 9.675781 15.703125 9.675781 15.96875 C 9.675781 16.234375 9.894531 16.453125 10.160156 16.453125 " fill-opacity="1" fill-rule="nonzero"/><path fill="#31ac7d" d="M 20.804688 15.484375 L 16.933594 15.484375 C 16.667969 15.484375 16.453125 15.703125 16.453125 15.96875 C 16.453125 16.234375 16.667969 16.453125 16.933594 16.453125 L 20.804688 16.453125 C 21.074219 16.453125 21.289062 16.234375 21.289062 15.96875 C 21.289062 15.703125 21.074219 15.484375 20.804688 15.484375 " fill-opacity="1" fill-rule="nonzero"/><path fill="#31ac7d" d="M 12.582031 16.453125 L 15 16.453125 C 15.265625 16.453125 15.484375 16.234375 15.484375 15.96875 C 15.484375 15.703125 15.265625 15.484375 15 15.484375 L 12.582031 15.484375 C 12.3125 15.484375 12.097656 15.703125 12.097656 15.96875 C 12.097656 16.234375 12.3125 16.453125 12.582031 16.453125 " fill-opacity="1" fill-rule="nonzero"/><path fill="#31ac7d" d="M 10.160156 18.386719 L 10.644531 18.386719 C 10.910156 18.386719 11.128906 18.167969 11.128906 17.902344 C 11.128906 17.636719 10.910156 17.417969 10.644531 17.417969 L 10.160156 17.417969 C 9.894531 17.417969 9.675781 17.636719 9.675781 17.902344 C 9.675781 18.167969 9.894531 18.386719 10.160156 18.386719 " fill-opacity="1" fill-rule="nonzero"/><path fill="#31ac7d" d="M 20.804688 17.417969 L 16.933594 17.417969 C 16.667969 17.417969 16.453125 17.636719 16.453125 17.902344 C 16.453125 18.167969 16.667969 18.386719 16.933594 18.386719 L 20.804688 18.386719 C 21.074219 18.386719 21.289062 18.167969 21.289062 17.902344 C 21.289062 17.636719 21.074219 17.417969 20.804688 17.417969 " fill-opacity="1" fill-rule="nonzero"/><path fill="#31ac7d" d="M 12.582031 18.386719 L 15 18.386719 C 15.265625 18.386719 15.484375 18.167969 15.484375 17.902344 C 15.484375 17.636719 15.265625 17.417969 15 17.417969 L 12.582031 17.417969 C 12.3125 17.417969 12.097656 17.636719 12.097656 17.902344 C 12.097656 18.167969 12.3125 18.386719 12.582031 18.386719 " fill-opacity="1" fill-rule="nonzero"/><path fill="#31ac7d" d="M 9.675781 21.773438 C 9.675781 22.039062 9.894531 22.257812 10.160156 22.257812 L 10.644531 22.257812 C 10.910156 22.257812 11.128906 22.039062 11.128906 21.773438 C 11.128906 21.507812 10.910156 21.289062 10.644531 21.289062 L 10.160156 21.289062 C 9.894531 21.289062 9.675781 21.507812 9.675781 21.773438 " fill-opacity="1" fill-rule="nonzero"/><path fill="#31ac7d" d="M 20.804688 21.289062 L 16.933594 21.289062 C 16.667969 21.289062 16.453125 21.507812 16.453125 21.773438 C 16.453125 22.039062 16.667969 22.257812 16.933594 22.257812 L 20.804688 22.257812 C 21.074219 22.257812 21.289062 22.039062 21.289062 21.773438 C 21.289062 21.507812 21.074219 21.289062 20.804688 21.289062 " fill-opacity="1" fill-rule="nonzero"/><path fill="#31ac7d" d="M 12.582031 22.257812 L 15 22.257812 C 15.265625 22.257812 15.484375 22.039062 15.484375 21.773438 C 15.484375 21.507812 15.265625 21.289062 15 21.289062 L 12.582031 21.289062 C 12.3125 21.289062 12.097656 21.507812 12.097656 21.773438 C 12.097656 22.039062 12.3125 22.257812 12.582031 22.257812 " fill-opacity="1" fill-rule="nonzero"/><path fill="#31ac7d" d="M 10.644531 23.226562 L 10.160156 23.226562 C 9.894531 23.226562 9.675781 23.441406 9.675781 23.710938 C 9.675781 23.976562 9.894531 24.195312 10.160156 24.195312 L 10.644531 24.195312 C 10.910156 24.195312 11.128906 23.976562 11.128906 23.710938 C 11.128906 23.441406 10.910156 23.226562 10.644531 23.226562 " fill-opacity="1" fill-rule="nonzero"/><path fill="#31ac7d" d="M 20.804688 23.226562 L 16.933594 23.226562 C 16.667969 23.226562 16.453125 23.441406 16.453125 23.710938 C 16.453125 23.976562 16.667969 24.195312 16.933594 24.195312 L 20.804688 24.195312 C 21.074219 24.195312 21.289062 23.976562 21.289062 23.710938 C 21.289062 23.441406 21.074219 23.226562 20.804688 23.226562 " fill-opacity="1" fill-rule="nonzero"/><path fill="#31ac7d" d="M 12.582031 24.195312 L 15 24.195312 C 15.265625 24.195312 15.484375 23.976562 15.484375 23.710938 C 15.484375 23.441406 15.265625 23.226562 15 23.226562 L 12.582031 23.226562 C 12.3125 23.226562 12.097656 23.441406 12.097656 23.710938 C 12.097656 23.976562 12.3125 24.195312 12.582031 24.195312 " fill-opacity="1" fill-rule="nonzero"/></svg>