<svg xmlns="http://www.w3.org/2000/svg" xmlns:xlink="http://www.w3.org/1999/xlink" width="40" zoomAndPan="magnify" viewBox="0 0 30 30.000001" height="40" preserveAspectRatio="xMidYMid meet" version="1.0"><defs><clipPath id="586d63b719"><path d="M 0.484375 8 L 7 8 L 7 13 L 0.484375 13 Z M 0.484375 8 " clip-rule="nonzero"/></clipPath><clipPath id="6ed7d0aadf"><path d="M 9 23 L 14 23 L 14 29.03125 L 9 29.03125 Z M 9 23 " clip-rule="nonzero"/></clipPath><clipPath id="c82995174e"><path d="M 23 15 L 29.515625 15 L 29.515625 20 L 23 20 Z M 23 15 " clip-rule="nonzero"/></clipPath></defs><path fill="#31ac7d" d="M 16.945312 26.84375 C 16.792969 26.84375 16.636719 26.722656 16.621094 26.554688 C 16.585938 26.367188 16.707031 26.195312 16.894531 26.164062 C 22.105469 25.296875 26.164062 21.222656 26.976562 15.992188 C 27.011719 15.804688 27.183594 15.6875 27.367188 15.722656 C 27.554688 15.738281 27.675781 15.925781 27.640625 16.113281 C 26.773438 21.613281 22.511719 25.925781 17.011719 26.84375 C 16.996094 26.84375 16.960938 26.84375 16.945312 26.84375 Z M 12.800781 26.84375 C 12.785156 26.84375 12.765625 26.84375 12.75 26.84375 C 7.25 25.925781 2.972656 21.613281 2.105469 16.113281 C 2.070312 15.925781 2.207031 15.738281 2.394531 15.722656 C 2.582031 15.6875 2.75 15.804688 2.785156 15.992188 C 3.597656 21.222656 7.640625 25.296875 12.851562 26.164062 C 13.039062 26.195312 13.175781 26.367188 13.140625 26.554688 C 13.105469 26.722656 12.972656 26.84375 12.800781 26.84375 Z M 2.480469 12.242188 C 2.460938 12.242188 2.445312 12.242188 2.410156 12.242188 C 2.242188 12.207031 2.105469 12.039062 2.140625 11.851562 C 3.089844 6.453125 7.351562 2.222656 12.75 1.324219 C 12.9375 1.308594 13.105469 1.425781 13.140625 1.613281 C 13.175781 1.800781 13.039062 1.96875 12.851562 2.003906 C 7.742188 2.851562 3.703125 6.859375 2.816406 11.96875 C 2.785156 12.121094 2.632812 12.242188 2.480469 12.242188 Z M 27.285156 12.242188 C 27.113281 12.242188 26.976562 12.121094 26.945312 11.96875 C 26.042969 6.859375 22.019531 2.851562 16.894531 2.003906 C 16.707031 1.96875 16.585938 1.800781 16.621094 1.613281 C 16.636719 1.425781 16.824219 1.308594 17.011719 1.324219 C 22.410156 2.222656 26.671875 6.453125 27.605469 11.851562 C 27.640625 12.039062 27.519531 12.207031 27.335938 12.242188 C 27.316406 12.242188 27.300781 12.242188 27.285156 12.242188 Z M 27.285156 12.242188 " fill-opacity="1" fill-rule="evenodd"/><path fill="#31ac7d" d="M 18.234375 5.433594 C 18.082031 5.433594 17.960938 5.347656 17.910156 5.210938 L 16.636719 1.78125 C 16.605469 1.699219 16.605469 1.613281 16.636719 1.527344 C 16.671875 1.441406 16.742188 1.375 16.824219 1.339844 L 20.253906 0.0664062 C 20.425781 0 20.628906 0.101562 20.695312 0.273438 C 20.765625 0.441406 20.664062 0.644531 20.492188 0.714844 L 17.386719 1.867188 L 18.539062 4.972656 C 18.609375 5.144531 18.523438 5.332031 18.335938 5.398438 C 18.300781 5.414062 18.269531 5.433594 18.234375 5.433594 Z M 18.234375 5.433594 " fill-opacity="1" fill-rule="evenodd"/><g clip-path="url(#586d63b719)"><path fill="#31ac7d" d="M 2.480469 12.242188 C 2.34375 12.242188 2.207031 12.15625 2.15625 12.039062 L 0.796875 8.640625 C 0.730469 8.472656 0.816406 8.269531 0.984375 8.199219 C 1.15625 8.132812 1.359375 8.21875 1.425781 8.386719 L 2.664062 11.460938 L 5.738281 10.222656 C 5.910156 10.152344 6.113281 10.238281 6.179688 10.425781 C 6.246094 10.59375 6.164062 10.78125 5.992188 10.867188 L 2.597656 12.222656 C 2.5625 12.242188 2.511719 12.242188 2.480469 12.242188 Z M 2.480469 12.242188 " fill-opacity="1" fill-rule="evenodd"/></g><g clip-path="url(#6ed7d0aadf)"><path fill="#31ac7d" d="M 9.882812 29.03125 C 9.777344 29.03125 9.675781 28.980469 9.609375 28.894531 C 9.492188 28.742188 9.523438 28.523438 9.675781 28.421875 L 12.324219 26.433594 L 10.339844 23.785156 C 10.238281 23.632812 10.273438 23.414062 10.40625 23.3125 C 10.558594 23.191406 10.78125 23.226562 10.882812 23.378906 L 13.074219 26.296875 C 13.191406 26.453125 13.15625 26.65625 13.003906 26.773438 L 10.085938 28.964844 C 10.015625 29 9.949219 29.03125 9.882812 29.03125 Z M 9.882812 29.03125 " fill-opacity="1" fill-rule="evenodd"/></g><g clip-path="url(#c82995174e)"><path fill="#31ac7d" d="M 28.878906 19.695312 C 28.761719 19.695312 28.625 19.625 28.574219 19.492188 L 27.148438 16.503906 L 24.160156 17.929688 C 23.988281 18.011719 23.785156 17.929688 23.703125 17.757812 C 23.632812 17.589844 23.703125 17.386719 23.871094 17.316406 L 27.164062 15.738281 C 27.335938 15.671875 27.539062 15.738281 27.625 15.910156 L 29.183594 19.203125 C 29.269531 19.371094 29.203125 19.574219 29.03125 19.660156 C 28.980469 19.675781 28.929688 19.695312 28.878906 19.695312 Z M 28.878906 19.695312 " fill-opacity="1" fill-rule="evenodd"/></g><path fill="#31ac7d" d="M 14.871094 22.273438 C 10.355469 22.273438 6.6875 18.589844 6.6875 14.089844 C 6.6875 9.574219 10.355469 5.910156 14.871094 5.910156 C 19.390625 5.910156 23.054688 9.574219 23.054688 14.089844 C 23.054688 18.589844 19.390625 22.273438 14.871094 22.273438 Z M 14.871094 6.585938 C 10.746094 6.585938 7.367188 9.949219 7.367188 14.089844 C 7.367188 18.21875 10.746094 21.597656 14.871094 21.597656 C 19.015625 21.597656 22.375 18.21875 22.375 14.089844 C 22.375 9.949219 19.015625 6.585938 14.871094 6.585938 Z M 14.871094 6.585938 " fill-opacity="1" fill-rule="evenodd"/><path fill="#31ac7d" d="M 14.871094 20.390625 C 11.390625 20.390625 8.574219 17.554688 8.574219 14.089844 C 8.574219 10.609375 11.390625 7.777344 14.871094 7.777344 C 18.351562 7.777344 21.1875 10.609375 21.1875 14.089844 C 21.1875 17.554688 18.351562 20.390625 14.871094 20.390625 Z M 14.871094 8.453125 C 11.78125 8.453125 9.253906 10.984375 9.253906 14.089844 C 9.253906 17.183594 11.78125 19.710938 14.871094 19.710938 C 17.980469 19.710938 20.507812 17.183594 20.507812 14.089844 C 20.507812 10.984375 17.980469 8.453125 14.871094 8.453125 Z M 14.871094 8.453125 " fill-opacity="1" fill-rule="evenodd"/><path fill="#31ac7d" d="M 13.835938 16.925781 C 13.53125 16.925781 13.242188 16.808594 13.023438 16.585938 L 11.714844 15.28125 C 11.492188 15.058594 11.375 14.769531 11.375 14.464844 C 11.375 14.160156 11.492188 13.871094 11.714844 13.667969 C 11.933594 13.445312 12.207031 13.328125 12.511719 13.328125 C 12.816406 13.328125 13.105469 13.445312 13.328125 13.667969 L 13.835938 14.160156 L 16.417969 11.578125 C 16.636719 11.359375 16.925781 11.238281 17.234375 11.238281 C 17.539062 11.238281 17.828125 11.359375 18.046875 11.578125 C 18.488281 12.019531 18.488281 12.75 18.046875 13.191406 L 14.636719 16.585938 C 14.429688 16.808594 14.144531 16.925781 13.835938 16.925781 Z M 12.511719 14.007812 C 12.394531 14.007812 12.273438 14.058594 12.191406 14.144531 C 12.105469 14.226562 12.054688 14.347656 12.054688 14.464844 C 12.054688 14.601562 12.105469 14.71875 12.191406 14.804688 L 13.496094 16.113281 C 13.683594 16.28125 13.988281 16.28125 14.160156 16.113281 L 17.554688 12.714844 C 17.742188 12.53125 17.742188 12.242188 17.554688 12.054688 C 17.386719 11.882812 17.078125 11.882812 16.910156 12.054688 L 14.074219 14.890625 C 13.9375 15.027344 13.71875 15.027344 13.597656 14.890625 L 12.851562 14.144531 C 12.765625 14.058594 12.648438 14.007812 12.511719 14.007812 Z M 12.511719 14.007812 " fill-opacity="1" fill-rule="evenodd"/></svg>