<svg xmlns="http://www.w3.org/2000/svg" xmlns:xlink="http://www.w3.org/1999/xlink" width="40" zoomAndPan="magnify" viewBox="0 0 30 30.000001" height="40" preserveAspectRatio="xMidYMid meet" version="1.0"><defs><clipPath id="4819171932"><path d="M 0.484375 0 L 29.515625 0 L 29.515625 29.03125 L 0.484375 29.03125 Z M 0.484375 0 " clip-rule="nonzero"/></clipPath></defs><g clip-path="url(#4819171932)"><path fill="#31ac7d" d="M 27.582031 21.289062 L 16.933594 21.289062 C 16.402344 21.289062 15.96875 20.855469 15.96875 20.324219 L 15.96875 10.644531 L 28.546875 10.644531 L 28.546875 20.324219 C 28.546875 20.855469 28.113281 21.289062 27.582031 21.289062 Z M 22.742188 24.195312 L 7.257812 24.195312 L 7.257812 21.289062 C 7.453125 21.289062 7.648438 21.28125 7.839844 21.265625 C 8.15625 21.234375 8.425781 21.035156 8.550781 20.730469 L 8.863281 19.941406 C 9.246094 19.828125 9.609375 19.679688 9.957031 19.488281 L 10.742188 19.824219 C 11.035156 19.949219 11.375 19.902344 11.617188 19.699219 C 11.769531 19.574219 11.910156 19.445312 12.046875 19.304688 C 12.1875 19.167969 12.316406 19.027344 12.441406 18.875 C 12.644531 18.632812 12.691406 18.296875 12.566406 18 L 12.230469 17.214844 C 12.421875 16.867188 12.570312 16.503906 12.683594 16.121094 L 13.472656 15.808594 C 13.476562 15.804688 13.476562 15.804688 13.476562 15.804688 C 13.773438 15.683594 13.976562 15.414062 14.007812 15.097656 C 14.023438 14.90625 14.03125 14.710938 14.03125 14.515625 C 14.03125 14.320312 14.023438 14.125 14.007812 13.933594 C 13.976562 13.617188 13.773438 13.347656 13.472656 13.226562 L 12.683594 12.910156 C 12.570312 12.53125 12.421875 12.164062 12.230469 11.816406 L 12.566406 11.03125 C 12.691406 10.734375 12.644531 10.398438 12.441406 10.15625 C 12.316406 10.007812 12.1875 9.863281 12.046875 9.726562 C 11.910156 9.589844 11.769531 9.457031 11.617188 9.332031 C 11.375 9.128906 11.035156 9.082031 10.742188 9.207031 L 9.957031 9.542969 C 9.609375 9.355469 9.246094 9.203125 8.863281 9.089844 L 8.546875 8.300781 C 8.425781 8 8.15625 7.796875 7.839844 7.765625 C 7.648438 7.75 7.453125 7.738281 7.257812 7.738281 L 7.257812 4.839844 L 22.742188 4.839844 L 22.742188 5.804688 L 16.933594 5.804688 C 15.867188 5.804688 15 6.675781 15 7.742188 L 15 20.324219 C 15 21.390625 15.867188 22.257812 16.933594 22.257812 L 22.742188 22.257812 Z M 21.773438 28.066406 L 8.226562 28.066406 C 7.691406 28.066406 7.257812 27.628906 7.257812 27.097656 L 7.257812 25.160156 L 22.742188 25.160156 L 22.742188 27.097656 C 22.742188 27.628906 22.308594 28.066406 21.773438 28.066406 Z M 4.839844 18.535156 C 4.707031 18.453125 4.542969 18.441406 4.398438 18.503906 L 3.457031 18.90625 C 3.351562 18.816406 3.25 18.722656 3.152344 18.621094 C 3.054688 18.523438 2.957031 18.421875 2.867188 18.316406 L 3.273438 17.375 C 3.332031 17.230469 3.320312 17.066406 3.238281 16.933594 C 2.996094 16.53125 2.816406 16.101562 2.703125 15.644531 C 2.667969 15.496094 2.558594 15.371094 2.414062 15.3125 L 1.464844 14.933594 C 1.457031 14.796875 1.453125 14.65625 1.453125 14.515625 C 1.453125 14.375 1.457031 14.238281 1.464844 14.097656 L 2.414062 13.71875 C 2.558594 13.660156 2.667969 13.535156 2.703125 13.386719 C 2.816406 12.933594 2.996094 12.5 3.238281 12.097656 C 3.320312 11.964844 3.332031 11.800781 3.273438 11.65625 L 2.867188 10.71875 C 2.957031 10.609375 3.054688 10.507812 3.152344 10.410156 C 3.25 10.3125 3.351562 10.214844 3.457031 10.125 L 4.398438 10.53125 C 4.542969 10.589844 4.707031 10.578125 4.839844 10.496094 C 5.242188 10.253906 5.675781 10.078125 6.128906 9.960938 C 6.277344 9.925781 6.402344 9.816406 6.460938 9.671875 L 6.839844 8.726562 C 7.117188 8.703125 7.398438 8.703125 7.675781 8.726562 L 8.054688 9.671875 C 8.113281 9.816406 8.238281 9.925781 8.386719 9.960938 C 8.84375 10.078125 9.273438 10.253906 9.675781 10.496094 C 9.808594 10.578125 9.972656 10.589844 10.117188 10.53125 L 11.058594 10.125 C 11.164062 10.214844 11.265625 10.3125 11.363281 10.410156 C 11.464844 10.507812 11.558594 10.609375 11.648438 10.71875 L 11.246094 11.65625 C 11.183594 11.800781 11.195312 11.964844 11.277344 12.097656 C 11.519531 12.5 11.699219 12.933594 11.8125 13.386719 C 11.847656 13.535156 11.957031 13.660156 12.101562 13.71875 L 13.050781 14.097656 C 13.058594 14.238281 13.066406 14.375 13.066406 14.515625 C 13.066406 14.65625 13.058594 14.796875 13.050781 14.933594 L 12.101562 15.3125 C 11.957031 15.371094 11.847656 15.496094 11.8125 15.644531 C 11.699219 16.101562 11.519531 16.53125 11.277344 16.933594 C 11.195312 17.066406 11.183594 17.230469 11.246094 17.375 L 11.648438 18.316406 C 11.558594 18.421875 11.464844 18.523438 11.363281 18.621094 C 11.265625 18.722656 11.164062 18.816406 11.058594 18.90625 L 10.117188 18.503906 C 9.972656 18.441406 9.808594 18.453125 9.675781 18.535156 C 9.273438 18.777344 8.84375 18.957031 8.386719 19.070312 C 8.238281 19.105469 8.113281 19.214844 8.054688 19.359375 L 7.675781 20.308594 C 7.398438 20.328125 7.117188 20.328125 6.839844 20.308594 L 6.460938 19.359375 C 6.402344 19.214844 6.277344 19.105469 6.128906 19.070312 C 5.675781 18.957031 5.242188 18.777344 4.839844 18.535156 Z M 8.226562 0.96875 L 21.773438 0.96875 C 22.308594 0.96875 22.742188 1.402344 22.742188 1.933594 L 22.742188 3.871094 L 7.257812 3.871094 L 7.257812 1.933594 C 7.257812 1.402344 7.691406 0.96875 8.226562 0.96875 Z M 28.546875 7.742188 L 28.546875 9.675781 L 15.96875 9.675781 L 15.96875 7.742188 C 15.96875 7.207031 16.402344 6.773438 16.933594 6.773438 L 27.582031 6.773438 C 28.113281 6.773438 28.546875 7.207031 28.546875 7.742188 Z M 27.582031 5.804688 L 23.710938 5.804688 L 23.710938 1.933594 C 23.710938 0.867188 22.84375 0 21.773438 0 L 8.226562 0 C 7.15625 0 6.289062 0.867188 6.289062 1.933594 L 6.289062 7.910156 C 6.152344 8.003906 6.035156 8.136719 5.96875 8.300781 L 5.652344 9.089844 C 5.273438 9.203125 4.90625 9.355469 4.558594 9.542969 L 3.773438 9.207031 C 3.476562 9.082031 3.140625 9.128906 2.898438 9.332031 C 2.75 9.457031 2.605469 9.589844 2.46875 9.726562 C 2.332031 9.863281 2.199219 10.007812 2.074219 10.15625 C 1.871094 10.398438 1.824219 10.734375 1.949219 11.03125 L 2.285156 11.816406 C 2.097656 12.164062 1.945312 12.53125 1.832031 12.910156 L 1.042969 13.226562 C 0.742188 13.347656 0.539062 13.617188 0.511719 13.933594 C 0.492188 14.125 0.484375 14.320312 0.484375 14.515625 C 0.484375 14.710938 0.492188 14.90625 0.511719 15.097656 C 0.539062 15.414062 0.742188 15.683594 1.042969 15.808594 L 1.832031 16.121094 C 1.945312 16.503906 2.097656 16.867188 2.285156 17.214844 L 1.949219 18 C 1.824219 18.296875 1.871094 18.632812 2.074219 18.875 C 2.199219 19.027344 2.332031 19.167969 2.46875 19.304688 C 2.605469 19.445312 2.75 19.574219 2.898438 19.699219 C 3.140625 19.902344 3.476562 19.949219 3.773438 19.824219 L 4.558594 19.488281 C 4.90625 19.679688 5.273438 19.828125 5.652344 19.941406 L 5.96875 20.734375 C 6.035156 20.898438 6.152344 21.03125 6.289062 21.125 L 6.289062 27.097656 C 6.289062 28.164062 7.15625 29.03125 8.226562 29.03125 L 21.773438 29.03125 C 22.84375 29.03125 23.710938 28.164062 23.710938 27.097656 L 23.710938 22.257812 L 27.582031 22.257812 C 28.648438 22.257812 29.515625 21.390625 29.515625 20.324219 L 29.515625 7.742188 C 29.515625 6.675781 28.648438 5.804688 27.582031 5.804688 " fill-opacity="1" fill-rule="nonzero"/></g><path fill="#31ac7d" d="M 4.355469 14.515625 C 4.355469 13.253906 5.164062 12.183594 6.289062 11.78125 L 6.289062 12.847656 C 5.714844 13.183594 5.324219 13.804688 5.324219 14.515625 C 5.324219 15.230469 5.714844 15.847656 6.289062 16.183594 L 6.289062 17.25 C 5.164062 16.851562 4.355469 15.777344 4.355469 14.515625 Z M 7.257812 13.546875 C 7.792969 13.546875 8.226562 13.984375 8.226562 14.515625 C 8.226562 15.050781 7.792969 15.484375 7.257812 15.484375 C 6.726562 15.484375 6.289062 15.050781 6.289062 14.515625 C 6.289062 13.984375 6.726562 13.546875 7.257812 13.546875 Z M 10.160156 14.515625 C 10.160156 16.117188 8.859375 17.417969 7.257812 17.417969 L 7.257812 16.453125 C 8.324219 16.453125 9.195312 15.585938 9.195312 14.515625 C 9.195312 13.449219 8.324219 12.582031 7.257812 12.582031 L 7.257812 11.613281 C 8.859375 11.613281 10.160156 12.914062 10.160156 14.515625 Z M 11.128906 14.515625 C 11.128906 12.382812 9.390625 10.644531 7.257812 10.644531 C 5.125 10.644531 3.386719 12.382812 3.386719 14.515625 C 3.386719 16.648438 5.125 18.386719 7.257812 18.386719 C 9.390625 18.386719 11.128906 16.648438 11.128906 14.515625 " fill-opacity="1" fill-rule="nonzero"/><path fill="#31ac7d" d="M 17.902344 14.515625 L 17.902344 12.582031 L 26.613281 12.582031 L 26.613281 14.515625 Z M 26.613281 11.613281 L 17.902344 11.613281 C 17.371094 11.613281 16.933594 12.046875 16.933594 12.582031 L 16.933594 14.515625 C 16.933594 15.050781 17.371094 15.484375 17.902344 15.484375 L 26.613281 15.484375 C 27.144531 15.484375 27.582031 15.050781 27.582031 14.515625 L 27.582031 12.582031 C 27.582031 12.046875 27.144531 11.613281 26.613281 11.613281 " fill-opacity="1" fill-rule="nonzero"/><path fill="#31ac7d" d="M 13.066406 2.902344 L 13.546875 2.902344 C 13.816406 2.902344 14.03125 2.6875 14.03125 2.417969 C 14.03125 2.152344 13.816406 1.933594 13.546875 1.933594 L 13.066406 1.933594 C 12.796875 1.933594 12.582031 2.152344 12.582031 2.417969 C 12.582031 2.6875 12.796875 2.902344 13.066406 2.902344 " fill-opacity="1" fill-rule="nonzero"/><path fill="#31ac7d" d="M 15.484375 2.902344 L 16.933594 2.902344 C 17.203125 2.902344 17.417969 2.6875 17.417969 2.417969 C 17.417969 2.152344 17.203125 1.933594 16.933594 1.933594 L 15.484375 1.933594 C 15.21875 1.933594 15 2.152344 15 2.417969 C 15 2.6875 15.21875 2.902344 15.484375 2.902344 " fill-opacity="1" fill-rule="nonzero"/><path fill="#31ac7d" d="M 15.96875 26.128906 L 14.03125 26.128906 C 13.765625 26.128906 13.546875 26.347656 13.546875 26.613281 C 13.546875 26.878906 13.765625 27.097656 14.03125 27.097656 L 15.96875 27.097656 C 16.234375 27.097656 16.453125 26.878906 16.453125 26.613281 C 16.453125 26.347656 16.234375 26.128906 15.96875 26.128906 " fill-opacity="1" fill-rule="nonzero"/><path fill="#31ac7d" d="M 17.902344 7.742188 L 17.417969 7.742188 C 17.152344 7.742188 16.933594 7.960938 16.933594 8.226562 C 16.933594 8.492188 17.152344 8.710938 17.417969 8.710938 L 17.902344 8.710938 C 18.167969 8.710938 18.386719 8.492188 18.386719 8.226562 C 18.386719 7.960938 18.167969 7.742188 17.902344 7.742188 " fill-opacity="1" fill-rule="nonzero"/><path fill="#31ac7d" d="M 20.324219 7.742188 L 19.839844 7.742188 C 19.570312 7.742188 19.355469 7.960938 19.355469 8.226562 C 19.355469 8.492188 19.570312 8.710938 19.839844 8.710938 L 20.324219 8.710938 C 20.589844 8.710938 20.804688 8.492188 20.804688 8.226562 C 20.804688 7.960938 20.589844 7.742188 20.324219 7.742188 " fill-opacity="1" fill-rule="nonzero"/><path fill="#31ac7d" d="M 24.675781 8.710938 L 27.097656 8.710938 C 27.363281 8.710938 27.582031 8.492188 27.582031 8.226562 C 27.582031 7.960938 27.363281 7.742188 27.097656 7.742188 L 24.675781 7.742188 C 24.410156 7.742188 24.195312 7.960938 24.195312 8.226562 C 24.195312 8.492188 24.410156 8.710938 24.675781 8.710938 " fill-opacity="1" fill-rule="nonzero"/><path fill="#31ac7d" d="M 22.742188 16.453125 L 18.386719 16.453125 C 18.121094 16.453125 17.902344 16.667969 17.902344 16.933594 C 17.902344 17.203125 18.121094 17.417969 18.386719 17.417969 L 22.742188 17.417969 C 23.007812 17.417969 23.226562 17.203125 23.226562 16.933594 C 23.226562 16.667969 23.007812 16.453125 22.742188 16.453125 " fill-opacity="1" fill-rule="nonzero"/><path fill="#31ac7d" d="M 21.773438 18.386719 L 18.386719 18.386719 C 18.121094 18.386719 17.902344 18.605469 17.902344 18.871094 C 17.902344 19.136719 18.121094 19.355469 18.386719 19.355469 L 21.773438 19.355469 C 22.039062 19.355469 22.257812 19.136719 22.257812 18.871094 C 22.257812 18.605469 22.039062 18.386719 21.773438 18.386719 " fill-opacity="1" fill-rule="nonzero"/><path fill="#31ac7d" d="M 26.128906 16.453125 L 24.675781 16.453125 C 24.410156 16.453125 24.195312 16.667969 24.195312 16.933594 C 24.195312 17.203125 24.410156 17.417969 24.675781 17.417969 L 26.128906 17.417969 C 26.394531 17.417969 26.613281 17.203125 26.613281 16.933594 C 26.613281 16.667969 26.394531 16.453125 26.128906 16.453125 " fill-opacity="1" fill-rule="nonzero"/><path fill="#31ac7d" d="M 25.160156 18.386719 L 23.710938 18.386719 C 23.441406 18.386719 23.226562 18.605469 23.226562 18.871094 C 23.226562 19.136719 23.441406 19.355469 23.710938 19.355469 L 25.160156 19.355469 C 25.429688 19.355469 25.644531 19.136719 25.644531 18.871094 C 25.644531 18.605469 25.429688 18.386719 25.160156 18.386719 " fill-opacity="1" fill-rule="nonzero"/></svg>