<svg xmlns="http://www.w3.org/2000/svg" xmlns:xlink="http://www.w3.org/1999/xlink" width="40" zoomAndPan="magnify" viewBox="0 0 30 30.000001" height="40" preserveAspectRatio="xMidYMid meet" version="1.0"><defs><clipPath id="7fea539c32"><path d="M 5 0 L 28.960938 0 L 28.960938 14 L 5 14 Z M 5 0 " clip-rule="nonzero"/></clipPath><clipPath id="40a1324556"><path d="M 1.378906 10 L 23 10 L 23 29 L 1.378906 29 Z M 1.378906 10 " clip-rule="nonzero"/></clipPath></defs><g clip-path="url(#7fea539c32)"><path fill="#31ac7d" d="M 24.71875 5.898438 C 24.449219 5.898438 24.1875 5.925781 23.929688 5.980469 C 23.984375 5.671875 24.015625 5.355469 24.015625 5.035156 C 24.015625 2.285156 21.777344 0.046875 19.027344 0.046875 C 16.75 0.046875 14.773438 1.59375 14.203125 3.769531 C 13.652344 3.4375 13.027344 3.257812 12.382812 3.257812 C 10.433594 3.257812 8.847656 4.84375 8.847656 6.792969 C 8.847656 7.019531 8.871094 7.242188 8.910156 7.460938 C 8.613281 7.371094 8.304688 7.324219 7.984375 7.324219 C 6.699219 7.324219 5.546875 8.089844 5.046875 9.273438 C 4.996094 9.382812 5.050781 9.519531 5.167969 9.566406 C 5.277344 9.617188 5.410156 9.5625 5.457031 9.445312 C 5.886719 8.425781 6.878906 7.769531 7.984375 7.769531 C 8.390625 7.769531 8.78125 7.851562 9.140625 8.027344 C 9.222656 8.066406 9.320312 8.046875 9.386719 7.992188 C 9.453125 7.933594 9.476562 7.839844 9.449219 7.75 C 9.347656 7.453125 9.292969 7.132812 9.292969 6.792969 C 9.292969 5.089844 10.675781 3.703125 12.382812 3.703125 C 13.046875 3.703125 13.675781 3.917969 14.214844 4.320312 C 14.277344 4.363281 14.359375 4.375 14.429688 4.351562 C 14.5 4.324219 14.554688 4.261719 14.566406 4.183594 C 14.976562 2.046875 16.855469 0.496094 19.03125 0.496094 C 21.539062 0.496094 23.578125 2.535156 23.578125 5.039062 C 23.578125 5.453125 23.523438 5.855469 23.417969 6.234375 C 23.394531 6.3125 23.417969 6.398438 23.476562 6.449219 C 23.539062 6.503906 23.621094 6.527344 23.699219 6.503906 C 24.023438 6.402344 24.367188 6.347656 24.726562 6.347656 C 26.628906 6.347656 28.183594 7.898438 28.183594 9.808594 C 28.183594 11.714844 26.632812 13.265625 24.726562 13.265625 L 23.148438 13.265625 C 23.023438 13.265625 22.925781 13.363281 22.925781 13.488281 C 22.925781 13.613281 23.023438 13.710938 23.148438 13.710938 L 24.726562 13.710938 C 26.875 13.710938 28.628906 11.960938 28.628906 9.808594 C 28.628906 7.652344 26.871094 5.898438 24.71875 5.898438 Z M 24.71875 5.898438 " fill-opacity="1" fill-rule="nonzero"/></g><path fill="#31ac7d" d="M 3.304688 22.664062 L 3.304688 23.964844 C 3.304688 24.089844 3.402344 24.1875 3.527344 24.1875 C 3.652344 24.1875 3.75 24.089844 3.75 23.964844 L 3.75 22.664062 C 3.75 22.542969 3.652344 22.445312 3.527344 22.445312 C 3.402344 22.445312 3.304688 22.546875 3.304688 22.664062 Z M 3.304688 22.664062 " fill-opacity="1" fill-rule="nonzero"/><path fill="#31ac7d" d="M 4.097656 22.664062 L 4.097656 23.964844 C 4.097656 24.089844 4.195312 24.1875 4.320312 24.1875 C 4.445312 24.1875 4.542969 24.089844 4.542969 23.964844 L 4.542969 22.664062 C 4.542969 22.542969 4.445312 22.445312 4.320312 22.445312 C 4.195312 22.445312 4.097656 22.546875 4.097656 22.664062 Z M 4.097656 22.664062 " fill-opacity="1" fill-rule="nonzero"/><path fill="#31ac7d" d="M 4.890625 22.664062 L 4.890625 23.964844 C 4.890625 24.089844 4.988281 24.1875 5.113281 24.1875 C 5.238281 24.1875 5.335938 24.089844 5.335938 23.964844 L 5.335938 22.664062 C 5.335938 22.542969 5.238281 22.445312 5.113281 22.445312 C 4.988281 22.445312 4.890625 22.546875 4.890625 22.664062 Z M 4.890625 22.664062 " fill-opacity="1" fill-rule="nonzero"/><path fill="#31ac7d" d="M 5.6875 22.664062 L 5.6875 23.964844 C 5.6875 24.089844 5.785156 24.1875 5.910156 24.1875 C 6.035156 24.1875 6.132812 24.089844 6.132812 23.964844 L 6.132812 22.664062 C 6.132812 22.542969 6.035156 22.445312 5.910156 22.445312 C 5.785156 22.445312 5.6875 22.546875 5.6875 22.664062 Z M 5.6875 22.664062 " fill-opacity="1" fill-rule="nonzero"/><path fill="#31ac7d" d="M 6.480469 22.664062 L 6.480469 23.964844 C 6.480469 24.089844 6.578125 24.1875 6.703125 24.1875 C 6.828125 24.1875 6.925781 24.089844 6.925781 23.964844 L 6.925781 22.664062 C 6.925781 22.542969 6.828125 22.445312 6.703125 22.445312 C 6.578125 22.445312 6.480469 22.546875 6.480469 22.664062 Z M 6.480469 22.664062 " fill-opacity="1" fill-rule="nonzero"/><path fill="#31ac7d" d="M 7.273438 22.664062 L 7.273438 23.964844 C 7.273438 24.089844 7.371094 24.1875 7.496094 24.1875 C 7.621094 24.1875 7.71875 24.089844 7.71875 23.964844 L 7.71875 22.664062 C 7.71875 22.542969 7.621094 22.445312 7.496094 22.445312 C 7.371094 22.445312 7.273438 22.546875 7.273438 22.664062 Z M 7.273438 22.664062 " fill-opacity="1" fill-rule="nonzero"/><path fill="#31ac7d" d="M 8.066406 22.664062 L 8.066406 23.964844 C 8.066406 24.089844 8.164062 24.1875 8.285156 24.1875 C 8.410156 24.1875 8.507812 24.089844 8.507812 23.964844 L 8.507812 22.664062 C 8.507812 22.542969 8.410156 22.445312 8.285156 22.445312 C 8.164062 22.445312 8.066406 22.546875 8.066406 22.664062 Z M 8.066406 22.664062 " fill-opacity="1" fill-rule="nonzero"/><path fill="#31ac7d" d="M 2.867188 21.703125 L 2.867188 11.53125 L 10.996094 11.53125 C 11.117188 11.53125 11.21875 11.429688 11.21875 11.308594 C 11.21875 11.183594 11.117188 11.085938 10.996094 11.085938 L 2.644531 11.085938 C 2.519531 11.085938 2.421875 11.183594 2.421875 11.308594 L 2.421875 21.925781 C 2.421875 22.050781 2.519531 22.148438 2.644531 22.148438 L 21.132812 22.148438 C 21.253906 22.148438 21.355469 22.050781 21.355469 21.925781 L 21.355469 11.308594 C 21.355469 11.183594 21.253906 11.085938 21.132812 11.085938 L 20.625 11.085938 C 20.5 11.085938 20.402344 11.183594 20.402344 11.308594 C 20.402344 11.429688 20.5 11.53125 20.625 11.53125 L 20.910156 11.53125 L 20.910156 21.703125 Z M 2.867188 21.703125 " fill-opacity="1" fill-rule="nonzero"/><g clip-path="url(#40a1324556)"><path fill="#31ac7d" d="M 21.574219 10.042969 L 20.359375 10.042969 C 20.234375 10.042969 20.136719 10.140625 20.136719 10.265625 C 20.136719 10.390625 20.234375 10.488281 20.359375 10.488281 L 21.574219 10.488281 C 21.78125 10.488281 21.953125 10.652344 21.953125 10.867188 L 21.953125 24.105469 C 21.953125 24.316406 21.78125 24.480469 21.574219 24.480469 L 2.203125 24.480469 C 1.988281 24.480469 1.824219 24.316406 1.824219 24.105469 L 1.824219 10.867188 C 1.824219 10.652344 1.988281 10.488281 2.203125 10.488281 L 11.269531 10.488281 C 11.390625 10.488281 11.492188 10.390625 11.492188 10.265625 C 11.492188 10.140625 11.390625 10.042969 11.269531 10.042969 L 2.203125 10.042969 C 1.75 10.042969 1.378906 10.414062 1.378906 10.867188 L 1.378906 24.105469 C 1.378906 24.558594 1.75 24.925781 2.203125 24.925781 L 8.84375 24.925781 L 8.84375 26.90625 L 7.546875 26.90625 C 7.421875 26.90625 7.324219 27.011719 7.324219 27.128906 L 7.324219 28.757812 C 7.324219 28.878906 7.421875 28.980469 7.546875 28.980469 L 16.226562 28.980469 C 16.351562 28.980469 16.449219 28.878906 16.449219 28.757812 L 16.449219 27.128906 C 16.449219 27.011719 16.351562 26.90625 16.226562 26.90625 L 14.929688 26.90625 L 14.929688 24.925781 L 21.574219 24.925781 C 22.027344 24.925781 22.398438 24.558594 22.398438 24.105469 L 22.398438 10.867188 C 22.398438 10.414062 22.027344 10.042969 21.574219 10.042969 Z M 21.574219 10.042969 " fill-opacity="1" fill-rule="nonzero"/></g><path fill="#31ac7d" d="M 19.066406 23.3125 C 19.066406 23.746094 19.417969 24.105469 19.847656 24.105469 C 20.28125 24.105469 20.640625 23.746094 20.640625 23.3125 C 20.640625 22.878906 20.28125 22.53125 19.847656 22.53125 C 19.417969 22.53125 19.066406 22.878906 19.066406 23.3125 Z M 19.066406 23.3125 " fill-opacity="1" fill-rule="nonzero"/><path fill="#31ac7d" d="M 17.375 23.3125 C 17.375 23.652344 17.652344 23.929688 17.984375 23.929688 C 18.328125 23.929688 18.605469 23.652344 18.605469 23.3125 C 18.605469 22.976562 18.328125 22.707031 17.984375 22.707031 C 17.652344 22.707031 17.375 22.976562 17.375 23.3125 Z M 17.375 23.3125 " fill-opacity="1" fill-rule="nonzero"/><path fill="#31ac7d" d="M 14.199219 19.90625 C 14.199219 19.511719 13.875 19.183594 13.472656 19.183594 C 13.078125 19.183594 12.75 19.511719 12.75 19.90625 C 12.75 20.308594 13.078125 20.632812 13.472656 20.632812 C 13.875 20.632812 14.199219 20.308594 14.199219 19.90625 Z M 14.199219 19.90625 " fill-opacity="1" fill-rule="nonzero"/><path fill="#31ac7d" d="M 17.742188 19.90625 C 17.742188 19.511719 17.417969 19.183594 17.015625 19.183594 C 16.613281 19.183594 16.292969 19.511719 16.292969 19.90625 C 16.292969 20.308594 16.613281 20.632812 17.015625 20.632812 C 17.417969 20.632812 17.742188 20.308594 17.742188 19.90625 Z M 17.742188 19.90625 " fill-opacity="1" fill-rule="nonzero"/><path fill="#31ac7d" d="M 15.96875 19.90625 C 15.96875 19.511719 15.644531 19.183594 15.242188 19.183594 C 14.847656 19.183594 14.523438 19.511719 14.523438 19.90625 C 14.523438 20.308594 14.847656 20.632812 15.242188 20.632812 C 15.644531 20.632812 15.96875 20.308594 15.96875 19.90625 Z M 15.96875 19.90625 " fill-opacity="1" fill-rule="nonzero"/><path fill="#31ac7d" d="M 19.511719 19.90625 C 19.511719 19.511719 19.183594 19.183594 18.78125 19.183594 C 18.386719 19.183594 18.066406 19.511719 18.066406 19.90625 C 18.066406 20.308594 18.386719 20.632812 18.78125 20.632812 C 19.183594 20.632812 19.511719 20.308594 19.511719 19.90625 Z M 19.511719 19.90625 " fill-opacity="1" fill-rule="nonzero"/><path fill="#31ac7d" d="M 27.285156 9.800781 C 27.285156 9.679688 27.1875 9.578125 27.0625 9.578125 C 26.9375 9.578125 26.839844 9.679688 26.839844 9.800781 C 26.839844 10.972656 25.886719 11.925781 24.714844 11.925781 C 24.589844 11.925781 24.492188 12.023438 24.492188 12.148438 C 24.492188 12.273438 24.589844 12.371094 24.714844 12.371094 C 26.136719 12.371094 27.285156 11.21875 27.285156 9.800781 Z M 27.285156 9.800781 " fill-opacity="1" fill-rule="nonzero"/><path fill="#31ac7d" d="M 19.027344 1.386719 C 18.902344 1.386719 18.804688 1.484375 18.804688 1.609375 C 18.804688 1.734375 18.902344 1.832031 19.027344 1.832031 C 20.792969 1.832031 22.238281 3.269531 22.238281 5.039062 C 22.238281 5.164062 22.335938 5.261719 22.460938 5.261719 C 22.582031 5.261719 22.683594 5.164062 22.683594 5.039062 C 22.683594 3.023438 21.042969 1.386719 19.027344 1.386719 Z M 19.027344 1.386719 " fill-opacity="1" fill-rule="nonzero"/><path fill="#31ac7d" d="M 12.382812 4.59375 C 11.171875 4.59375 10.183594 5.582031 10.183594 6.792969 C 10.183594 7.035156 10.21875 7.257812 10.289062 7.460938 C 10.320312 7.554688 10.410156 7.613281 10.5 7.613281 C 10.523438 7.613281 10.546875 7.609375 10.570312 7.597656 C 10.6875 7.558594 10.75 7.429688 10.707031 7.3125 C 10.65625 7.160156 10.628906 6.980469 10.628906 6.792969 C 10.628906 5.828125 11.417969 5.039062 12.382812 5.039062 C 12.507812 5.039062 12.605469 4.941406 12.605469 4.816406 C 12.605469 4.691406 12.507812 4.59375 12.382812 4.59375 Z M 12.382812 4.59375 " fill-opacity="1" fill-rule="nonzero"/><path fill="#31ac7d" d="M 6.828125 9.714844 C 7.222656 9.15625 7.957031 8.957031 8.578125 9.238281 C 8.6875 9.289062 8.820312 9.238281 8.871094 9.125 C 8.917969 9.015625 8.871094 8.882812 8.757812 8.832031 C 7.949219 8.460938 6.984375 8.726562 6.460938 9.457031 C 6.390625 9.554688 6.414062 9.695312 6.515625 9.765625 C 6.554688 9.792969 6.601562 9.808594 6.644531 9.808594 C 6.714844 9.808594 6.78125 9.769531 6.828125 9.714844 Z M 6.828125 9.714844 " fill-opacity="1" fill-rule="nonzero"/><path fill="#31ac7d" d="M 18.6875 8.449219 C 18.714844 8.398438 18.703125 8.332031 18.652344 8.292969 L 18.171875 7.902344 C 18.140625 7.871094 18.105469 7.871094 18.082031 7.871094 C 18.058594 7.875 18.035156 7.882812 18.011719 7.902344 L 17.71875 8.152344 C 17.621094 8.230469 17.507812 8.285156 17.386719 8.296875 C 17.292969 8.308594 17.195312 8.292969 17.085938 8.253906 C 16.855469 8.15625 16.625 8.089844 16.417969 8.054688 C 16.191406 8.019531 16.003906 7.851562 15.929688 7.605469 L 15.828125 7.257812 C 15.804688 7.195312 15.757812 7.160156 15.695312 7.167969 L 15.070312 7.234375 C 14.980469 7.242188 14.960938 7.335938 14.953125 7.390625 L 14.933594 7.691406 C 14.929688 7.9375 14.78125 8.152344 14.550781 8.25 C 14.347656 8.328125 14.140625 8.445312 13.929688 8.585938 C 13.851562 8.640625 13.753906 8.679688 13.652344 8.691406 C 13.527344 8.703125 13.402344 8.675781 13.28125 8.613281 L 12.949219 8.425781 C 12.921875 8.414062 12.894531 8.414062 12.878906 8.414062 C 12.863281 8.414062 12.824219 8.425781 12.796875 8.460938 L 12.398438 8.949219 C 12.359375 8.992188 12.359375 9.054688 12.398438 9.109375 L 12.617188 9.363281 C 12.796875 9.53125 12.847656 9.800781 12.746094 10.035156 C 12.664062 10.238281 12.59375 10.46875 12.550781 10.691406 C 12.519531 10.914062 12.355469 11.109375 12.109375 11.195312 L 11.75 11.292969 C 11.695312 11.308594 11.65625 11.371094 11.664062 11.425781 L 11.730469 12.050781 C 11.738281 12.109375 11.789062 12.152344 11.84375 12.15625 L 12.234375 12.1875 C 12.472656 12.214844 12.675781 12.371094 12.742188 12.566406 C 12.832031 12.789062 12.949219 12.992188 13.09375 13.203125 C 13.214844 13.386719 13.222656 13.613281 13.117188 13.839844 L 12.929688 14.164062 C 12.898438 14.21875 12.910156 14.28125 12.960938 14.320312 L 13.445312 14.714844 C 13.476562 14.746094 13.515625 14.746094 13.539062 14.746094 C 13.550781 14.746094 13.578125 14.738281 13.605469 14.714844 L 13.886719 14.472656 C 13.984375 14.390625 14.109375 14.339844 14.230469 14.324219 C 14.328125 14.316406 14.425781 14.324219 14.527344 14.363281 C 14.746094 14.460938 14.980469 14.53125 15.238281 14.574219 C 15.472656 14.632812 15.644531 14.804688 15.6875 15.003906 L 15.785156 15.355469 C 15.808594 15.417969 15.863281 15.464844 15.921875 15.460938 L 16.542969 15.394531 C 16.601562 15.386719 16.644531 15.335938 16.65625 15.277344 L 16.683594 14.929688 C 16.6875 14.675781 16.84375 14.453125 17.058594 14.375 C 17.28125 14.285156 17.484375 14.171875 17.691406 14.027344 C 17.773438 13.972656 17.859375 13.941406 17.964844 13.933594 C 18.089844 13.917969 18.222656 13.945312 18.320312 14 L 18.65625 14.183594 C 18.683594 14.195312 18.710938 14.199219 18.734375 14.199219 C 18.75 14.199219 18.785156 14.191406 18.8125 14.152344 L 19.207031 13.671875 C 19.246094 13.621094 19.246094 13.554688 19.207031 13.511719 L 18.941406 13.207031 C 18.800781 13.03125 18.769531 12.785156 18.855469 12.59375 C 18.953125 12.347656 19.019531 12.121094 19.058594 11.902344 C 19.09375 11.683594 19.253906 11.503906 19.5 11.421875 L 19.859375 11.324219 C 19.917969 11.300781 19.957031 11.25 19.949219 11.191406 L 19.882812 10.566406 C 19.878906 10.511719 19.824219 10.464844 19.769531 10.457031 L 19.386719 10.429688 C 19.164062 10.414062 18.976562 10.28125 18.863281 10.050781 C 18.78125 9.84375 18.664062 9.632812 18.515625 9.417969 C 18.390625 9.226562 18.386719 8.984375 18.492188 8.789062 Z M 15.996094 13.097656 C 15.007812 13.199219 14.121094 12.480469 14.019531 11.492188 C 13.917969 10.503906 14.632812 9.621094 15.621094 9.519531 C 16.609375 9.414062 17.496094 10.132812 17.597656 11.121094 C 17.699219 12.109375 16.984375 12.992188 15.996094 13.097656 Z M 15.996094 13.097656 " fill-opacity="1" fill-rule="nonzero"/><path fill="#31ac7d" d="M 11.78125 13.941406 C 11.8125 13.898438 11.804688 13.84375 11.769531 13.808594 L 11.378906 13.421875 C 11.355469 13.394531 11.324219 13.390625 11.308594 13.390625 C 11.296875 13.390625 11.273438 13.394531 11.25 13.40625 L 10.972656 13.605469 C 10.882812 13.664062 10.773438 13.695312 10.667969 13.695312 C 10.570312 13.695312 10.472656 13.671875 10.414062 13.628906 C 10.214844 13.523438 10.019531 13.445312 9.832031 13.394531 C 9.625 13.332031 9.476562 13.152344 9.457031 12.972656 L 9.390625 12.636719 C 9.382812 12.589844 9.34375 12.554688 9.292969 12.554688 L 8.746094 12.554688 C 8.664062 12.554688 8.640625 12.660156 8.632812 12.679688 L 8.585938 12.949219 C 8.554688 13.171875 8.390625 13.351562 8.207031 13.390625 C 8.003906 13.453125 7.804688 13.53125 7.605469 13.644531 L 7.472656 13.695312 L 7.371094 13.695312 C 7.246094 13.695312 7.128906 13.65625 7.0625 13.597656 L 6.78125 13.40625 C 6.765625 13.394531 6.746094 13.390625 6.726562 13.390625 C 6.707031 13.390625 6.675781 13.394531 6.652344 13.417969 L 6.265625 13.804688 C 6.226562 13.84375 6.222656 13.894531 6.257812 13.941406 L 6.441406 14.203125 C 6.566406 14.378906 6.578125 14.605469 6.476562 14.78125 C 6.375 14.964844 6.292969 15.160156 6.238281 15.351562 C 6.183594 15.558594 5.996094 15.714844 5.808594 15.734375 L 5.488281 15.792969 C 5.4375 15.800781 5.398438 15.847656 5.398438 15.902344 L 5.398438 16.445312 C 5.398438 16.496094 5.433594 16.535156 5.488281 16.550781 L 5.824219 16.613281 C 6.03125 16.65625 6.183594 16.800781 6.234375 16.980469 C 6.292969 17.183594 6.375 17.378906 6.472656 17.554688 C 6.574219 17.738281 6.558594 17.964844 6.445312 18.128906 L 6.253906 18.410156 C 6.226562 18.449219 6.230469 18.503906 6.265625 18.539062 L 6.65625 18.929688 C 6.679688 18.953125 6.710938 18.957031 6.726562 18.957031 C 6.738281 18.957031 6.761719 18.953125 6.785156 18.9375 L 7.054688 18.753906 C 7.148438 18.6875 7.261719 18.652344 7.378906 18.652344 L 7.53125 18.660156 L 7.632812 18.71875 C 7.816406 18.816406 8.007812 18.902344 8.183594 18.953125 C 8.394531 19.003906 8.558594 19.175781 8.589844 19.386719 L 8.648438 19.710938 C 8.65625 19.757812 8.699219 19.800781 8.75 19.800781 L 9.296875 19.800781 C 9.347656 19.800781 9.390625 19.765625 9.398438 19.707031 L 9.457031 19.417969 C 9.480469 19.199219 9.632812 19.015625 9.84375 18.953125 C 10.03125 18.90625 10.222656 18.824219 10.40625 18.726562 L 10.546875 18.652344 L 10.664062 18.652344 C 10.78125 18.652344 10.890625 18.6875 10.976562 18.75 L 11.246094 18.9375 C 11.269531 18.953125 11.292969 18.953125 11.308594 18.953125 C 11.324219 18.953125 11.355469 18.949219 11.378906 18.921875 L 11.769531 18.539062 C 11.804688 18.503906 11.8125 18.449219 11.777344 18.40625 L 11.578125 18.117188 C 11.460938 17.929688 11.460938 17.707031 11.554688 17.566406 C 11.660156 17.375 11.738281 17.183594 11.792969 16.980469 C 11.847656 16.796875 12.003906 16.65625 12.226562 16.609375 L 12.546875 16.550781 C 12.601562 16.542969 12.632812 16.496094 12.632812 16.445312 L 12.632812 15.902344 C 12.632812 15.847656 12.59375 15.808594 12.546875 15.792969 L 12.25 15.738281 C 12.03125 15.714844 11.84375 15.554688 11.792969 15.351562 C 11.738281 15.152344 11.660156 14.964844 11.558594 14.789062 C 11.457031 14.605469 11.46875 14.378906 11.589844 14.210938 Z M 9.015625 17.757812 C 8.144531 17.757812 7.4375 17.042969 7.4375 16.171875 C 7.4375 15.300781 8.144531 14.59375 9.015625 14.59375 C 9.890625 14.59375 10.601562 15.300781 10.601562 16.171875 C 10.601562 17.042969 9.890625 17.757812 9.015625 17.757812 Z M 9.015625 17.757812 " fill-opacity="1" fill-rule="nonzero"/></svg>